<?xml version='1.0' encoding='utf-8'?>
<mlt LC_NUMERIC="en_US.UTF-8" title="Anonymous Submission" root="/home/cassi" version="6.0.0" producer="main bin">
 <profile frame_rate_num="24" frame_rate_den="1" progressive="1" colorspace="709" sample_aspect_num="1" height="1080" description="HD 1080p 24 fps" sample_aspect_den="1" display_aspect_den="9" display_aspect_num="16" width="1920"/>
 <producer id="3" out="244275" title="Anonymous Submission" in="0">
  <property name="mlt_type">mlt_producer</property>
  <property name="length">02:49:38:04</property>
  <property name="eof">pause</property>
  <property name="resource">/media/cassi/SilverSqueaker/backup-new/movies/action/hobbit/The.Hobbit.An.Unexpected.Journey.2012.720p.BluRay.DTS-ES.x264-tRuEHD.mkv</property>
  <property name="meta.media.nb_streams">9</property>
  <property name="meta.media.0.stream.type">video</property>
  <property name="meta.media.0.stream.frame_rate">23.976</property>
  <property name="meta.media.0.stream.sample_aspect_ratio">1</property>
  <property name="meta.media.0.codec.width">1280</property>
  <property name="meta.media.0.codec.height">534</property>
  <property name="meta.media.0.codec.rotate">0</property>
  <property name="meta.media.0.codec.frame_rate">23.976</property>
  <property name="meta.media.0.codec.pix_fmt">yuv420p</property>
  <property name="meta.media.0.codec.sample_aspect_ratio">1</property>
  <property name="meta.media.0.codec.colorspace">709</property>
  <property name="meta.media.0.codec.name">h264</property>
  <property name="meta.media.0.codec.long_name">H.264 / AVC / MPEG-4 AVC / MPEG-4 part 10</property>
  <property name="meta.media.0.codec.bit_rate">0</property>
  <property name="meta.attr.0.stream.language.markup">eng</property>
  <property name="meta.media.1.stream.type">audio</property>
  <property name="meta.media.1.codec.sample_fmt">fltp</property>
  <property name="meta.media.1.codec.sample_rate">48000</property>
  <property name="meta.media.1.codec.channels">7</property>
  <property name="meta.media.1.codec.name">dca</property>
  <property name="meta.media.1.codec.long_name">DCA (DTS Coherent Acoustics)</property>
  <property name="meta.media.1.codec.bit_rate">1536000</property>
  <property name="meta.attr.1.stream.language.markup">eng</property>
  <property name="meta.attr.1.stream.title.markup">Main Movie</property>
  <property name="meta.media.2.codec.name">srt</property>
  <property name="meta.media.2.codec.long_name">SubRip subtitle</property>
  <property name="meta.media.2.codec.bit_rate">0</property>
  <property name="meta.attr.2.stream.language.markup">eng</property>
  <property name="meta.attr.2.stream.title.markup">Subtitle #1</property>
  <property name="meta.media.3.codec.name">srt</property>
  <property name="meta.media.3.codec.long_name">SubRip subtitle</property>
  <property name="meta.media.3.codec.bit_rate">0</property>
  <property name="meta.attr.3.stream.language.markup">spa</property>
  <property name="meta.attr.3.stream.title.markup">Subtitle #2</property>
  <property name="meta.media.4.codec.name">srt</property>
  <property name="meta.media.4.codec.long_name">SubRip subtitle</property>
  <property name="meta.media.4.codec.bit_rate">0</property>
  <property name="meta.attr.4.stream.language.markup">swe</property>
  <property name="meta.attr.4.stream.title.markup">Subtitle #3</property>
  <property name="meta.media.5.codec.name">srt</property>
  <property name="meta.media.5.codec.long_name">SubRip subtitle</property>
  <property name="meta.media.5.codec.bit_rate">0</property>
  <property name="meta.attr.5.stream.language.markup">pol</property>
  <property name="meta.attr.5.stream.title.markup">Subtitle #4</property>
  <property name="meta.media.6.codec.name">srt</property>
  <property name="meta.media.6.codec.long_name">SubRip subtitle</property>
  <property name="meta.media.6.codec.bit_rate">0</property>
  <property name="meta.attr.6.stream.language.markup">dut</property>
  <property name="meta.attr.6.stream.title.markup">Subtitle #5</property>
  <property name="meta.media.7.codec.name">srt</property>
  <property name="meta.media.7.codec.long_name">SubRip subtitle</property>
  <property name="meta.media.7.codec.bit_rate">0</property>
  <property name="meta.attr.7.stream.language.markup">hun</property>
  <property name="meta.attr.7.stream.title.markup">Subtitle #5</property>
  <property name="meta.media.8.codec.name">srt</property>
  <property name="meta.media.8.codec.long_name">SubRip subtitle</property>
  <property name="meta.media.8.codec.bit_rate">0</property>
  <property name="meta.attr.8.stream.language.markup">fin</property>
  <property name="meta.attr.8.stream.title.markup">Subtitle #7</property>
  <property name="meta.attr.encoder.markup">libebml v1.3.0 + libmatroska v1.4.0</property>
  <property name="meta.attr.creation_time.markup">2013-03-06 19:22:31</property>
  <property name="seekable">1</property>
  <property name="meta.media.sample_aspect_num">1</property>
  <property name="meta.media.sample_aspect_den">1</property>
  <property name="aspect_ratio">1</property>
  <property name="audio_index">1</property>
  <property name="video_index">0</property>
  <property name="mute_on_pause">1</property>
  <property name="mlt_service">avformat</property>
  <property name="kdenlive:file_hash">cb27a31175b869914daeb30fd94f9ce1</property>
  <property name="kdenlive:file_size">9954075332</property>
  <property name="kdenlive:clipname">The.Hobbit.An.Unexpected.Journey.2012.720p.BluRay.DTS-ES.x264-tRuEHD.mkv</property>
  <property name="global_feed">1</property>
  <property name="meta.media.frame_rate_num">24000</property>
  <property name="meta.media.frame_rate_den">1001</property>
  <property name="meta.media.colorspace">709</property>
  <property name="meta.media.color_trc">2</property>
  <property name="meta.media.width">1280</property>
  <property name="meta.media.height">534</property>
  <property name="meta.media.top_field_first">0</property>
  <property name="meta.media.progressive">1</property>
 </producer>
 <producer id="1" out="268700" title="Anonymous Submission" in="0">
  <property name="mlt_type">mlt_producer</property>
  <property name="length">03:06:35:21</property>
  <property name="eof">pause</property>
  <property name="resource">/media/cassi/SilverSqueaker/backup-new/movies/action/hobbit/The.Hobbit.Desolation.Of.Smaug.Extended.Edition.2013.BluRay.DTS-ES.x264-tRuEHD.mkv</property>
  <property name="meta.media.nb_streams">6</property>
  <property name="meta.media.0.stream.type">video</property>
  <property name="meta.media.0.stream.frame_rate">23.976</property>
  <property name="meta.media.0.stream.sample_aspect_ratio">1</property>
  <property name="meta.media.0.codec.width">1280</property>
  <property name="meta.media.0.codec.height">534</property>
  <property name="meta.media.0.codec.rotate">0</property>
  <property name="meta.media.0.codec.frame_rate">23.976</property>
  <property name="meta.media.0.codec.pix_fmt">yuv420p</property>
  <property name="meta.media.0.codec.sample_aspect_ratio">1</property>
  <property name="meta.media.0.codec.colorspace">709</property>
  <property name="meta.media.0.codec.name">h264</property>
  <property name="meta.media.0.codec.long_name">H.264 / AVC / MPEG-4 AVC / MPEG-4 part 10</property>
  <property name="meta.media.0.codec.bit_rate">0</property>
  <property name="meta.attr.0.stream.language.markup">eng</property>
  <property name="meta.media.1.stream.type">audio</property>
  <property name="meta.media.1.codec.sample_fmt">fltp</property>
  <property name="meta.media.1.codec.sample_rate">48000</property>
  <property name="meta.media.1.codec.channels">7</property>
  <property name="meta.media.1.codec.name">dca</property>
  <property name="meta.media.1.codec.long_name">DCA (DTS Coherent Acoustics)</property>
  <property name="meta.media.1.codec.bit_rate">1536000</property>
  <property name="meta.attr.1.stream.language.markup">eng</property>
  <property name="meta.attr.1.stream.title.markup">Main Audio</property>
  <property name="meta.media.2.stream.type">audio</property>
  <property name="meta.media.2.codec.sample_fmt">fltp</property>
  <property name="meta.media.2.codec.sample_rate">48000</property>
  <property name="meta.media.2.codec.channels">2</property>
  <property name="meta.media.2.codec.name">ac3</property>
  <property name="meta.media.2.codec.long_name">ATSC A/52A (AC-3)</property>
  <property name="meta.media.2.codec.bit_rate">128000</property>
  <property name="meta.attr.2.stream.language.markup">eng</property>
  <property name="meta.attr.2.stream.title.markup">Commentary</property>
  <property name="meta.media.3.codec.name">srt</property>
  <property name="meta.media.3.codec.long_name">SubRip subtitle</property>
  <property name="meta.media.3.codec.bit_rate">0</property>
  <property name="meta.attr.3.stream.language.markup">eng</property>
  <property name="meta.attr.3.stream.title.markup">Subtitle #1</property>
  <property name="meta.media.4.codec.name">srt</property>
  <property name="meta.media.4.codec.long_name">SubRip subtitle</property>
  <property name="meta.media.4.codec.bit_rate">0</property>
  <property name="meta.attr.4.stream.language.markup">fre</property>
  <property name="meta.attr.4.stream.title.markup">Subtitle #2</property>
  <property name="meta.media.5.codec.name">srt</property>
  <property name="meta.media.5.codec.long_name">SubRip subtitle</property>
  <property name="meta.media.5.codec.bit_rate">0</property>
  <property name="meta.attr.5.stream.language.markup">spa</property>
  <property name="meta.attr.5.stream.title.markup">Subtitle #3</property>
  <property name="meta.attr.encoder.markup">libebml v1.3.0 + libmatroska v1.4.1</property>
  <property name="meta.attr.creation_time.markup">2014-10-27 22:49:14</property>
  <property name="seekable">1</property>
  <property name="meta.media.sample_aspect_num">1</property>
  <property name="meta.media.sample_aspect_den">1</property>
  <property name="aspect_ratio">1</property>
  <property name="audio_index">1</property>
  <property name="video_index">0</property>
  <property name="mute_on_pause">1</property>
  <property name="mlt_service">avformat</property>
  <property name="kdenlive:file_hash">8be2978c13f0cd02e7ae33c9d4ec03c9</property>
  <property name="kdenlive:file_size">10472010332</property>
  <property name="kdenlive:clipname">The.Hobbit.Desolation.Of.Smaug.Extended.Edition.2013.BluRay.DTS-ES.x264-tRuEHD.mkv</property>
  <property name="global_feed">1</property>
 </producer>
 <producer id="2" out="208056" title="Anonymous Submission" in="0">
  <property name="mlt_type">mlt_producer</property>
  <property name="length">02:24:29:01</property>
  <property name="eof">pause</property>
  <property name="resource">/media/cassi/SilverSqueaker/backup-new/movies/action/hobbit/The.Hobbit.The.Battle.of.the.Five.Armies.2014.720p.BluRay.DTS-ES.x264-tRuEHD.mkv</property>
  <property name="meta.media.nb_streams">11</property>
  <property name="meta.media.0.stream.type">video</property>
  <property name="meta.media.0.stream.frame_rate">23.976</property>
  <property name="meta.media.0.stream.sample_aspect_ratio">1</property>
  <property name="meta.media.0.codec.width">1280</property>
  <property name="meta.media.0.codec.height">534</property>
  <property name="meta.media.0.codec.rotate">0</property>
  <property name="meta.media.0.codec.frame_rate">23.976</property>
  <property name="meta.media.0.codec.pix_fmt">yuv420p</property>
  <property name="meta.media.0.codec.sample_aspect_ratio">1</property>
  <property name="meta.media.0.codec.colorspace">709</property>
  <property name="meta.media.0.codec.name">h264</property>
  <property name="meta.media.0.codec.long_name">H.264 / AVC / MPEG-4 AVC / MPEG-4 part 10</property>
  <property name="meta.media.0.codec.bit_rate">0</property>
  <property name="meta.attr.0.stream.language.markup">eng</property>
  <property name="meta.media.1.stream.type">audio</property>
  <property name="meta.media.1.codec.sample_fmt">fltp</property>
  <property name="meta.media.1.codec.sample_rate">48000</property>
  <property name="meta.media.1.codec.channels">7</property>
  <property name="meta.media.1.codec.name">dca</property>
  <property name="meta.media.1.codec.long_name">DCA (DTS Coherent Acoustics)</property>
  <property name="meta.media.1.codec.bit_rate">1536000</property>
  <property name="meta.attr.1.stream.language.markup">eng</property>
  <property name="meta.attr.1.stream.title.markup">Main Audio</property>
  <property name="meta.media.2.codec.name">srt</property>
  <property name="meta.media.2.codec.long_name">SubRip subtitle</property>
  <property name="meta.media.2.codec.bit_rate">0</property>
  <property name="meta.attr.2.stream.language.markup">eng</property>
  <property name="meta.attr.2.stream.title.markup">Subtitle #1</property>
  <property name="meta.media.3.codec.name">srt</property>
  <property name="meta.media.3.codec.long_name">SubRip subtitle</property>
  <property name="meta.media.3.codec.bit_rate">0</property>
  <property name="meta.attr.3.stream.language.markup">dan</property>
  <property name="meta.attr.3.stream.title.markup">Subtitle #2</property>
  <property name="meta.media.4.codec.name">srt</property>
  <property name="meta.media.4.codec.long_name">SubRip subtitle</property>
  <property name="meta.media.4.codec.bit_rate">0</property>
  <property name="meta.attr.4.stream.language.markup">dut</property>
  <property name="meta.attr.4.stream.title.markup">Subtitle #3</property>
  <property name="meta.media.5.codec.name">srt</property>
  <property name="meta.media.5.codec.long_name">SubRip subtitle</property>
  <property name="meta.media.5.codec.bit_rate">0</property>
  <property name="meta.attr.5.stream.language.markup">nor</property>
  <property name="meta.attr.5.stream.title.markup">Subtitle #4</property>
  <property name="meta.media.6.codec.name">srt</property>
  <property name="meta.media.6.codec.long_name">SubRip subtitle</property>
  <property name="meta.media.6.codec.bit_rate">0</property>
  <property name="meta.attr.6.stream.language.markup">pol</property>
  <property name="meta.attr.6.stream.title.markup">Subtitle #5</property>
  <property name="meta.media.7.codec.name">srt</property>
  <property name="meta.media.7.codec.long_name">SubRip subtitle</property>
  <property name="meta.media.7.codec.bit_rate">0</property>
  <property name="meta.attr.7.stream.language.markup">rum</property>
  <property name="meta.attr.7.stream.title.markup">Subtitle #6</property>
  <property name="meta.media.8.codec.name">srt</property>
  <property name="meta.media.8.codec.long_name">SubRip subtitle</property>
  <property name="meta.media.8.codec.bit_rate">0</property>
  <property name="meta.attr.8.stream.language.markup">spa</property>
  <property name="meta.attr.8.stream.title.markup">Subtitle #7</property>
  <property name="meta.media.9.codec.name">srt</property>
  <property name="meta.media.9.codec.long_name">SubRip subtitle</property>
  <property name="meta.media.9.codec.bit_rate">0</property>
  <property name="meta.attr.9.stream.language.markup">swe</property>
  <property name="meta.attr.9.stream.title.markup">Subtitle #8</property>
  <property name="meta.media.10.codec.name">srt</property>
  <property name="meta.media.10.codec.long_name">SubRip subtitle</property>
  <property name="meta.media.10.codec.bit_rate">0</property>
  <property name="meta.attr.10.stream.language.markup">tur</property>
  <property name="meta.attr.10.stream.title.markup">Subtitle #9</property>
  <property name="meta.attr.encoder.markup">libebml v1.3.0 + libmatroska v1.4.1</property>
  <property name="meta.attr.creation_time.markup">2015-03-12 04:24:50</property>
  <property name="seekable">1</property>
  <property name="meta.media.sample_aspect_num">1</property>
  <property name="meta.media.sample_aspect_den">1</property>
  <property name="aspect_ratio">1</property>
  <property name="audio_index">1</property>
  <property name="video_index">0</property>
  <property name="mute_on_pause">1</property>
  <property name="mlt_service">avformat</property>
  <property name="kdenlive:file_hash">871be6bb17b23fa99a05acde371b8110</property>
  <property name="kdenlive:file_size">8363749757</property>
  <property name="kdenlive:clipname">The.Hobbit.The.Battle.of.the.Five.Armies.2014.720p.BluRay.DTS-ES.x264-tRuEHD.mkv</property>
  <property name="global_feed">1</property>
  <property name="meta.media.frame_rate_num">24000</property>
  <property name="meta.media.frame_rate_den">1001</property>
  <property name="meta.media.colorspace">709</property>
  <property name="meta.media.color_trc">2</property>
  <property name="meta.media.width">1280</property>
  <property name="meta.media.height">534</property>
  <property name="meta.media.top_field_first">0</property>
  <property name="meta.media.progressive">1</property>
 </producer>
 <producer id="9" out="162" in="0">
  <property name="mlt_type">producer</property>
  <property name="length">00:00:06:19</property>
  <property name="eof">pause</property>
  <property name="resource">/media/cassi/SilverSqueaker/backup-new/movies/action/hobbit/2018/abridged.png</property>
  <property name="ttl">25</property>
  <property name="aspect_ratio">1</property>
  <property name="progressive">1</property>
  <property name="seekable">1</property>
  <property name="loop">1</property>
  <property name="meta.media.width">1920</property>
  <property name="meta.media.height">1080</property>
  <property name="mlt_service">pixbuf</property>
  <property name="kdenlive:file_size">41378</property>
  <property name="kdenlive:clipname">abridged.png</property>
  <property name="kdenlive:file_hash">3d8d9c57eb99a4285a0f7a4fe33412e1</property>
 </producer>
 <producer id="8" out="119" in="0">
  <property name="mlt_type">producer</property>
  <property name="length">00:00:05:00</property>
  <property name="eof">pause</property>
  <property name="resource">/media/cassi/SilverSqueaker/backup-new/movies/action/hobbit/2018/credit.png</property>
  <property name="ttl">25</property>
  <property name="aspect_ratio">1</property>
  <property name="progressive">1</property>
  <property name="seekable">1</property>
  <property name="loop">1</property>
  <property name="meta.media.width">1920</property>
  <property name="meta.media.height">1080</property>
  <property name="mlt_service">pixbuf</property>
  <property name="kdenlive:file_size">35429</property>
  <property name="kdenlive:clipname">credit.png</property>
  <property name="kdenlive:file_hash">42c5464e13e299f3cb20e1e8504b47ad</property>
 </producer>
 <playlist id="main bin" kdenlive:customeffects="&lt;customeffects/>&#xa;">
  <property name="kdenlive:customeffects">&lt;customeffects/>
</property>
  <property name="kdenlive:docproperties.version">0.91</property>
  <property name="kdenlive:docproperties.projectfolder">kdenlive</property>
  <property name="kdenlive:docproperties.documentid">1535664321692</property>
  <property name="kdenlive:docproperties.enableproxy">0</property>
  <property name="kdenlive:docproperties.generateimageproxy">0</property>
  <property name="kdenlive:docproperties.generateproxy">0</property>
  <property name="kdenlive:docproperties.kdenliveversion">15.12.3</property>
  <property name="kdenlive:docproperties.position">97796</property>
  <property name="kdenlive:docproperties.profile">atsc_1080p_24</property>
  <property name="kdenlive:docproperties.proxyextension">mpg</property>
  <property name="kdenlive:docproperties.proxyimageminsize">2000</property>
  <property name="kdenlive:docproperties.proxyminsize">1000</property>
  <property name="kdenlive:docproperties.proxyparams">-s 640x480 -g 5 -qscale 6 -ab 128k -vcodec mpeg2video -acodec mp2</property>
  <property name="kdenlive:docproperties.verticalzoom">1</property>
  <property name="kdenlive:docproperties.zonein">250486</property>
  <property name="kdenlive:docproperties.zoneout">250487</property>
  <property name="kdenlive:docproperties.zoom">3</property>
  <property name="kdenlive:documentnotes"/>
  <property name="kdenlive:clipgroups">&lt;groups>
 &lt;group>
  &lt;clipitem track="4" position="321320"/>
  &lt;clipitem track="5" position="308707"/>
  &lt;clipitem track="4" position="308688"/>
  &lt;clipitem track="5" position="301470"/>
  &lt;clipitem track="6" position="308534"/>
  &lt;clipitem track="3" position="314425"/>
  &lt;transitionitem track="6" position="308610"/>
  &lt;transitionitem track="6" position="308546"/>
  &lt;transitionitem track="6" position="308534"/>
 &lt;/group>
 &lt;group>
  &lt;clipitem track="6" position="297299"/>
  &lt;clipitem track="6" position="297564"/>
  &lt;clipitem track="6" position="297756"/>
  &lt;clipitem track="6" position="297724"/>
  &lt;clipitem track="5" position="297299"/>
  &lt;clipitem track="6" position="296918"/>
  &lt;clipitem track="6" position="298100"/>
  &lt;clipitem track="5" position="298100"/>
  &lt;clipitem track="6" position="297333"/>
  &lt;clipitem track="4" position="301470"/>
  &lt;clipitem track="6" position="297500"/>
  &lt;clipitem track="6" position="297444"/>
 &lt;/group>
 &lt;group>
  &lt;clipitem track="6" position="290228"/>
  &lt;clipitem track="5" position="290565"/>
  &lt;clipitem track="5" position="290192"/>
  &lt;clipitem track="5" position="293387"/>
  &lt;clipitem track="6" position="293558"/>
  &lt;clipitem track="6" position="289140"/>
  &lt;clipitem track="4" position="293386"/>
  &lt;clipitem track="6" position="290323"/>
  &lt;clipitem track="4" position="290204"/>
  &lt;clipitem track="6" position="290565"/>
  &lt;clipitem track="5" position="296918"/>
 &lt;/group>
 &lt;group>
  &lt;clipitem track="5" position="289140"/>
  &lt;clipitem track="6" position="288429"/>
  &lt;clipitem track="5" position="288150"/>
  &lt;clipitem track="6" position="287824"/>
 &lt;/group>
 &lt;group>
  &lt;clipitem track="5" position="287313"/>
  &lt;clipitem track="5" position="287304"/>
  &lt;clipitem track="6" position="285595"/>
  &lt;clipitem track="5" position="287824"/>
  &lt;clipitem track="5" position="285595"/>
  &lt;clipitem track="5" position="284756"/>
  &lt;clipitem track="5" position="285433"/>
  &lt;clipitem track="5" position="286223"/>
  &lt;clipitem track="5" position="286243"/>
  &lt;clipitem track="6" position="286075"/>
  &lt;clipitem track="4" position="287384"/>
  &lt;clipitem track="6" position="285433"/>
  &lt;clipitem track="6" position="285715"/>
  &lt;clipitem track="6" position="287013"/>
  &lt;clipitem track="6" position="287424"/>
  &lt;clipitem track="6" position="287350"/>
  &lt;clipitem track="5" position="284764"/>
  &lt;clipitem track="6" position="284088"/>
  &lt;clipitem track="5" position="285404"/>
  &lt;clipitem track="4" position="285715"/>
  &lt;clipitem track="6" position="286243"/>
  &lt;clipitem track="5" position="285334"/>
  &lt;clipitem track="5" position="286990"/>
  &lt;clipitem track="6" position="284764"/>
  &lt;clipitem track="5" position="285310"/>
  &lt;clipitem track="5" position="285137"/>
  &lt;clipitem track="6" position="287397"/>
  &lt;clipitem track="6" position="286020"/>
  &lt;clipitem track="3" position="285706"/>
  &lt;clipitem track="4" position="284114"/>
  &lt;clipitem track="5" position="285706"/>
  &lt;clipitem track="5" position="285158"/>
  &lt;clipitem track="5" position="284088"/>
  &lt;clipitem track="6" position="285158"/>
  &lt;clipitem track="6" position="285334"/>
  &lt;clipitem track="5" position="284860"/>
  &lt;clipitem track="3" position="287323"/>
  &lt;clipitem track="6" position="285732"/>
  &lt;clipitem track="6" position="285915"/>
  &lt;clipitem track="4" position="285440"/>
  &lt;clipitem track="6" position="285066"/>
  &lt;clipitem track="5" position="285578"/>
  &lt;clipitem track="6" position="284144"/>
  &lt;clipitem track="5" position="286020"/>
  &lt;clipitem track="5" position="284843"/>
  &lt;clipitem track="6" position="287313"/>
  &lt;clipitem track="5" position="287013"/>
  &lt;clipitem track="6" position="283679"/>
  &lt;clipitem track="5" position="285453"/>
  &lt;clipitem track="3" position="285451"/>
  &lt;clipitem track="5" position="285061"/>
  &lt;clipitem track="5" position="285915"/>
  &lt;clipitem track="6" position="284860"/>
  &lt;clipitem track="6" position="285488"/>
 &lt;/group>
 &lt;group>
  &lt;clipitem track="6" position="281588"/>
  &lt;clipitem track="5" position="283473"/>
  &lt;clipitem track="6" position="281191"/>
  &lt;clipitem track="6" position="281701"/>
  &lt;clipitem track="5" position="283170"/>
  &lt;clipitem track="4" position="283587"/>
  &lt;clipitem track="4" position="281578"/>
  &lt;clipitem track="4" position="283414"/>
  &lt;clipitem track="3" position="281582"/>
  &lt;clipitem track="6" position="283212"/>
  &lt;clipitem track="5" position="281588"/>
  &lt;clipitem track="2" position="281208"/>
  &lt;clipitem track="4" position="281191"/>
  &lt;clipitem track="6" position="283429"/>
  &lt;clipitem track="3" position="281213"/>
  &lt;clipitem track="5" position="283212"/>
  &lt;clipitem track="5" position="283679"/>
  &lt;clipitem track="6" position="281661"/>
  &lt;clipitem track="2" position="281578"/>
  &lt;clipitem track="4" position="283429"/>
  &lt;clipitem track="6" position="281232"/>
  &lt;clipitem track="5" position="281625"/>
  &lt;clipitem track="5" position="281232"/>
  &lt;clipitem track="6" position="283587"/>
 &lt;/group>
 &lt;group>
  &lt;clipitem track="4" position="279782"/>
  &lt;clipitem track="6" position="279707"/>
  &lt;clipitem track="3" position="279547"/>
  &lt;clipitem track="2" position="279688"/>
  &lt;clipitem track="4" position="279666"/>
  &lt;clipitem track="2" position="279770"/>
  &lt;clipitem track="4" position="279547"/>
  &lt;clipitem track="5" position="279657"/>
  &lt;clipitem track="6" position="279178"/>
  &lt;clipitem track="6" position="279568"/>
  &lt;clipitem track="4" position="279697"/>
  &lt;clipitem track="3" position="279634"/>
  &lt;clipitem track="1" position="279676"/>
  &lt;clipitem track="6" position="279680"/>
  &lt;clipitem track="6" position="279657"/>
  &lt;clipitem track="6" position="279547"/>
  &lt;clipitem track="6" position="279766"/>
 &lt;/group>
 &lt;group>
  &lt;clipitem track="6" position="281103"/>
  &lt;clipitem track="5" position="279788"/>
  &lt;clipitem track="5" position="281191"/>
  &lt;clipitem track="5" position="281103"/>
  &lt;clipitem track="1" position="279781"/>
  &lt;clipitem track="6" position="279801"/>
  &lt;clipitem track="4" position="280530"/>
  &lt;clipitem track="5" position="280519"/>
 &lt;/group>
 &lt;group>
  &lt;clipitem track="6" position="267451"/>
  &lt;clipitem track="6" position="270024"/>
  &lt;clipitem track="6" position="270513"/>
  &lt;clipitem track="5" position="267451"/>
  &lt;clipitem track="6" position="271599"/>
  &lt;clipitem track="5" position="271958"/>
  &lt;clipitem track="5" position="270008"/>
  &lt;clipitem track="6" position="267362"/>
  &lt;clipitem track="6" position="270297"/>
  &lt;clipitem track="4" position="271965"/>
  &lt;clipitem track="5" position="270954"/>
  &lt;clipitem track="6" position="271153"/>
 &lt;/group>
 &lt;group>
  &lt;clipitem track="6" position="271958"/>
  &lt;clipitem track="5" position="277821"/>
  &lt;clipitem track="6" position="274526"/>
  &lt;clipitem track="5" position="277814"/>
  &lt;clipitem track="6" position="277821"/>
  &lt;clipitem track="5" position="275208"/>
  &lt;clipitem track="5" position="279178"/>
  &lt;clipitem track="6" position="275209"/>
 &lt;/group>
 &lt;group>
  &lt;clipitem track="5" position="264457"/>
  &lt;clipitem track="6" position="266633"/>
  &lt;clipitem track="5" position="264760"/>
  &lt;clipitem track="5" position="266633"/>
  &lt;clipitem track="6" position="262674"/>
  &lt;clipitem track="5" position="267362"/>
  &lt;clipitem track="4" position="264486"/>
  &lt;clipitem track="6" position="264920"/>
  &lt;clipitem track="6" position="264660"/>
  &lt;clipitem track="4" position="264770"/>
 &lt;/group>
 &lt;group>
  &lt;clipitem track="5" position="256494"/>
  &lt;clipitem track="4" position="255500"/>
  &lt;clipitem track="4" position="261763"/>
  &lt;clipitem track="5" position="255542"/>
  &lt;clipitem track="6" position="256494"/>
  &lt;clipitem track="6" position="261802"/>
  &lt;clipitem track="5" position="259178"/>
  &lt;clipitem track="5" position="252630"/>
  &lt;clipitem track="6" position="252630"/>
  &lt;clipitem track="6" position="256156"/>
  &lt;clipitem track="6" position="252368"/>
  &lt;clipitem track="6" position="252454"/>
 &lt;/group>
 &lt;group>
  &lt;clipitem track="5" position="250411"/>
  &lt;clipitem track="6" position="242225"/>
  &lt;clipitem track="6" position="250411"/>
  &lt;clipitem track="6" position="249857"/>
  &lt;clipitem track="4" position="242177"/>
  &lt;clipitem track="5" position="246586"/>
 &lt;/group>
 &lt;group>
  &lt;clipitem track="5" position="240236"/>
  &lt;clipitem track="4" position="240183"/>
  &lt;clipitem track="5" position="240724"/>
  &lt;clipitem track="6" position="236955"/>
  &lt;clipitem track="6" position="240378"/>
  &lt;clipitem track="5" position="239668"/>
  &lt;clipitem track="4" position="237191"/>
  &lt;clipitem track="6" position="240279"/>
  &lt;clipitem track="3" position="237191"/>
  &lt;clipitem track="6" position="240790"/>
  &lt;clipitem track="6" position="238795"/>
  &lt;clipitem track="6" position="240183"/>
  &lt;clipitem track="5" position="238795"/>
  &lt;clipitem track="6" position="238907"/>
  &lt;clipitem track="6" position="242152"/>
  &lt;clipitem track="5" position="242152"/>
  &lt;transitionitem track="6" position="238795"/>
 &lt;/group>
 &lt;group>
  &lt;clipitem track="6" position="236149"/>
  &lt;clipitem track="5" position="236955"/>
  &lt;clipitem track="6" position="231301"/>
  &lt;clipitem track="4" position="232808"/>
  &lt;clipitem track="5" position="232808"/>
  &lt;transitionitem track="6" position="236149"/>
 &lt;/group>
 &lt;group>
  &lt;clipitem track="6" position="227463"/>
  &lt;clipitem track="5" position="230543"/>
  &lt;clipitem track="5" position="229154"/>
  &lt;clipitem track="5" position="229438"/>
  &lt;clipitem track="5" position="229143"/>
  &lt;clipitem track="5" position="230533"/>
  &lt;clipitem track="6" position="228139"/>
  &lt;clipitem track="5" position="229429"/>
  &lt;clipitem track="6" position="229042"/>
  &lt;clipitem track="6" position="229438"/>
  &lt;clipitem track="6" position="227927"/>
  &lt;clipitem track="5" position="228139"/>
  &lt;clipitem track="6" position="231245"/>
  &lt;clipitem track="5" position="229042"/>
  &lt;clipitem track="4" position="227851"/>
  &lt;clipitem track="6" position="230543"/>
  &lt;clipitem track="5" position="227878"/>
  &lt;clipitem track="6" position="229154"/>
  &lt;clipitem track="5" position="231245"/>
  &lt;clipitem track="6" position="227878"/>
 &lt;/group>
 &lt;group>
  &lt;clipitem track="5" position="224595"/>
  &lt;clipitem track="5" position="222088"/>
  &lt;clipitem track="4" position="224678"/>
  &lt;clipitem track="5" position="227463"/>
  &lt;clipitem track="4" position="224709"/>
  &lt;clipitem track="4" position="224603"/>
  &lt;clipitem track="5" position="222670"/>
  &lt;clipitem track="5" position="222016"/>
  &lt;clipitem track="6" position="222795"/>
  &lt;clipitem track="6" position="225016"/>
  &lt;clipitem track="6" position="221456"/>
  &lt;clipitem track="6" position="225688"/>
  &lt;clipitem track="5" position="224744"/>
  &lt;clipitem track="6" position="222088"/>
  &lt;clipitem track="4" position="222670"/>
  &lt;clipitem track="3" position="224555"/>
  &lt;clipitem track="6" position="224595"/>
 &lt;/group>
 &lt;group>
  &lt;clipitem track="5" position="213055"/>
  &lt;clipitem track="5" position="212541"/>
  &lt;clipitem track="6" position="211884"/>
  &lt;clipitem track="6" position="212080"/>
  &lt;clipitem track="5" position="212971"/>
  &lt;clipitem track="6" position="214708"/>
  &lt;clipitem track="6" position="212994"/>
  &lt;clipitem track="5" position="211884"/>
  &lt;clipitem track="6" position="214374"/>
  &lt;clipitem track="5" position="215790"/>
  &lt;clipitem track="5" position="214374"/>
  &lt;clipitem track="6" position="211817"/>
  &lt;clipitem track="5" position="212055"/>
  &lt;clipitem track="5" position="211817"/>
  &lt;clipitem track="5" position="212080"/>
  &lt;clipitem track="6" position="215828"/>
  &lt;clipitem track="5" position="215828"/>
  &lt;clipitem track="6" position="219246"/>
  &lt;clipitem track="5" position="214663"/>
  &lt;clipitem track="6" position="213055"/>
  &lt;clipitem track="6" position="212541"/>
  &lt;clipitem track="5" position="212849"/>
  &lt;clipitem track="5" position="212819"/>
  &lt;clipitem track="5" position="221445"/>
  &lt;clipitem track="6" position="212849"/>
  &lt;clipitem track="4" position="221495"/>
  &lt;clipitem track="6" position="211763"/>
  &lt;clipitem track="5" position="218293"/>
  &lt;clipitem track="5" position="212994"/>
  &lt;clipitem track="6" position="211943"/>
 &lt;/group>
 &lt;group>
  &lt;clipitem track="6" position="211015"/>
  &lt;clipitem track="6" position="210905"/>
  &lt;clipitem track="6" position="211220"/>
  &lt;clipitem track="5" position="208997"/>
  &lt;clipitem track="6" position="210823"/>
  &lt;clipitem track="5" position="210894"/>
  &lt;clipitem track="6" position="211084"/>
  &lt;clipitem track="4" position="210980"/>
  &lt;clipitem track="6" position="210942"/>
  &lt;clipitem track="5" position="210956"/>
  &lt;clipitem track="6" position="211035"/>
  &lt;clipitem track="6" position="208104"/>
  &lt;clipitem track="1" position="208685"/>
  &lt;clipitem track="2" position="210879"/>
  &lt;clipitem track="4" position="210897"/>
  &lt;clipitem track="3" position="210915"/>
  &lt;clipitem track="5" position="211207"/>
  &lt;clipitem track="6" position="210925"/>
  &lt;transitionitem track="6" position="210894"/>
 &lt;/group>
 &lt;group>
  &lt;clipitem track="6" position="190602"/>
  &lt;clipitem track="6" position="206659"/>
  &lt;clipitem track="5" position="206776"/>
  &lt;clipitem track="5" position="204603"/>
  &lt;clipitem track="5" position="199616"/>
  &lt;clipitem track="5" position="206659"/>
  &lt;clipitem track="6" position="206673"/>
  &lt;clipitem track="5" position="205326"/>
  &lt;clipitem track="5" position="208104"/>
  &lt;clipitem track="4" position="206801"/>
  &lt;clipitem track="6" position="206922"/>
  &lt;clipitem track="5" position="206922"/>
  &lt;clipitem track="5" position="196138"/>
  &lt;clipitem track="5" position="194342"/>
  &lt;clipitem track="4" position="194342"/>
  &lt;clipitem track="5" position="206895"/>
  &lt;clipitem track="6" position="199661"/>
  &lt;clipitem track="6" position="204603"/>
  &lt;clipitem track="6" position="194866"/>
  &lt;clipitem track="6" position="206113"/>
  &lt;clipitem track="6" position="206821"/>
  &lt;clipitem track="6" position="206772"/>
  &lt;clipitem track="5" position="206113"/>
  &lt;transitionitem track="6" position="199661"/>
 &lt;/group>
 &lt;group>
  &lt;clipitem track="5" position="3047"/>
  &lt;clipitem track="5" position="2529"/>
  &lt;clipitem track="2" position="3180"/>
  &lt;clipitem track="3" position="3017"/>
  &lt;clipitem track="5" position="3173"/>
  &lt;clipitem track="6" position="2949"/>
  &lt;clipitem track="6" position="3127"/>
  &lt;clipitem track="3" position="2474"/>
  &lt;clipitem track="4" position="3127"/>
  &lt;transitionitem track="6" position="3127"/>
  &lt;transitionitem track="6" position="2949"/>
 &lt;/group>
 &lt;group>
  &lt;clipitem track="5" position="0"/>
  &lt;clipitem track="3" position="2196"/>
  &lt;clipitem track="6" position="1325"/>
  &lt;clipitem track="4" position="2196"/>
  &lt;clipitem track="4" position="0"/>
  &lt;transitionitem track="6" position="1411"/>
  &lt;transitionitem track="6" position="1390"/>
  &lt;transitionitem track="6" position="1325"/>
 &lt;/group>
 &lt;group>
  &lt;clipitem track="5" position="97775"/>
  &lt;clipitem track="6" position="80203"/>
  &lt;clipitem track="5" position="79349"/>
  &lt;clipitem track="6" position="97476"/>
  &lt;clipitem track="6" position="79400"/>
  &lt;clipitem track="5" position="97784"/>
  &lt;clipitem track="5" position="80072"/>
  &lt;clipitem track="5" position="97418"/>
  &lt;clipitem track="4" position="80089"/>
  &lt;transitionitem track="6" position="80072"/>
 &lt;/group>
 &lt;group>
  &lt;clipitem track="6" position="185244"/>
  &lt;clipitem track="6" position="190590"/>
  &lt;clipitem track="5" position="185016"/>
  &lt;clipitem track="6" position="185016"/>
  &lt;clipitem track="6" position="189096"/>
  &lt;clipitem track="6" position="181789"/>
  &lt;clipitem track="4" position="185244"/>
  &lt;clipitem track="5" position="185227"/>
  &lt;clipitem track="4" position="181754"/>
  &lt;clipitem track="5" position="190590"/>
 &lt;/group>
 &lt;group>
  &lt;clipitem track="5" position="179800"/>
  &lt;clipitem track="3" position="181640"/>
  &lt;clipitem track="6" position="179903"/>
  &lt;clipitem track="4" position="180345"/>
  &lt;clipitem track="6" position="179800"/>
  &lt;clipitem track="6" position="181698"/>
  &lt;clipitem track="6" position="181008"/>
  &lt;clipitem track="5" position="180345"/>
  &lt;transitionitem track="6" position="181698"/>
 &lt;/group>
 &lt;group>
  &lt;clipitem track="4" position="178272"/>
  &lt;clipitem track="5" position="178268"/>
  &lt;clipitem track="5" position="178868"/>
  &lt;clipitem track="6" position="178268"/>
  &lt;clipitem track="6" position="178868"/>
 &lt;/group>
 &lt;group>
  &lt;clipitem track="6" position="174246"/>
  &lt;clipitem track="5" position="170777"/>
  &lt;clipitem track="6" position="175849"/>
  &lt;clipitem track="5" position="176515"/>
  &lt;clipitem track="6" position="176834"/>
  &lt;clipitem track="5" position="177731"/>
  &lt;clipitem track="6" position="175233"/>
  &lt;clipitem track="4" position="165263"/>
  &lt;clipitem track="6" position="166712"/>
  &lt;clipitem track="5" position="174246"/>
  &lt;clipitem track="4" position="166283"/>
  &lt;clipitem track="6" position="178070"/>
  &lt;clipitem track="6" position="176534"/>
  &lt;clipitem track="6" position="178038"/>
  &lt;clipitem track="5" position="175826"/>
  &lt;clipitem track="6" position="165252"/>
  &lt;clipitem track="6" position="171118"/>
  &lt;clipitem track="6" position="175202"/>
  &lt;clipitem track="5" position="178009"/>
  &lt;clipitem track="5" position="177751"/>
  &lt;clipitem track="6" position="177751"/>
  &lt;clipitem track="5" position="165252"/>
  &lt;clipitem track="5" position="166283"/>
  &lt;clipitem track="4" position="178038"/>
  &lt;clipitem track="5" position="175192"/>
  &lt;clipitem track="5" position="176798"/>
  &lt;clipitem track="4" position="174242"/>
 &lt;/group>
 &lt;group>
  &lt;clipitem track="5" position="161932"/>
  &lt;clipitem track="6" position="161932"/>
  &lt;clipitem track="5" position="163552"/>
  &lt;clipitem track="6" position="164155"/>
  &lt;clipitem track="4" position="163517"/>
  &lt;clipitem track="4" position="164309"/>
  &lt;clipitem track="6" position="164480"/>
  &lt;clipitem track="5" position="164331"/>
  &lt;clipitem track="6" position="164264"/>
  &lt;clipitem track="6" position="164816"/>
  &lt;clipitem track="4" position="164027"/>
  &lt;clipitem track="5" position="164264"/>
  &lt;clipitem track="5" position="164793"/>
  &lt;clipitem track="6" position="164076"/>
  &lt;clipitem track="4" position="164459"/>
  &lt;transitionitem track="6" position="164076"/>
 &lt;/group>
 &lt;group>
  &lt;clipitem track="4" position="148334"/>
  &lt;clipitem track="5" position="147383"/>
  &lt;clipitem track="5" position="148175"/>
  &lt;clipitem track="5" position="147208"/>
  &lt;clipitem track="6" position="148334"/>
  &lt;clipitem track="6" position="147476"/>
  &lt;clipitem track="5" position="147121"/>
  &lt;clipitem track="6" position="149088"/>
  &lt;clipitem track="5" position="150392"/>
  &lt;clipitem track="6" position="150392"/>
  &lt;clipitem track="6" position="150616"/>
  &lt;transitionitem track="6" position="148185"/>
  &lt;transitionitem track="6" position="147476"/>
 &lt;/group>
 &lt;group>
  &lt;clipitem track="6" position="138322"/>
  &lt;clipitem track="4" position="140370"/>
  &lt;clipitem track="4" position="143986"/>
  &lt;clipitem track="5" position="139138"/>
  &lt;clipitem track="5" position="138255"/>
  &lt;clipitem track="6" position="131757"/>
  &lt;clipitem track="5" position="139191"/>
  &lt;clipitem track="6" position="135362"/>
  &lt;clipitem track="6" position="138426"/>
  &lt;clipitem track="5" position="135343"/>
  &lt;clipitem track="5" position="138426"/>
  &lt;clipitem track="5" position="144120"/>
  &lt;clipitem track="6" position="139191"/>
  &lt;clipitem track="3" position="144074"/>
  &lt;clipitem track="4" position="140395"/>
  &lt;clipitem track="5" position="135362"/>
  &lt;clipitem track="5" position="140231"/>
  &lt;clipitem track="5" position="138322"/>
  &lt;clipitem track="5" position="140395"/>
  &lt;transitionitem track="6" position="135343"/>
  &lt;transitionitem track="5" position="144120"/>
  &lt;transitionitem track="6" position="140231"/>
 &lt;/group>
 &lt;group>
  &lt;clipitem track="6" position="131314"/>
  &lt;clipitem track="5" position="131513"/>
  &lt;clipitem track="6" position="131359"/>
  &lt;clipitem track="5" position="131757"/>
  &lt;clipitem track="4" position="131336"/>
  &lt;clipitem track="6" position="129631"/>
  &lt;clipitem track="5" position="131314"/>
  &lt;clipitem track="6" position="131541"/>
 &lt;/group>
 &lt;group>
  &lt;clipitem track="5" position="127727"/>
  &lt;clipitem track="5" position="127652"/>
  &lt;clipitem track="6" position="128493"/>
  &lt;clipitem track="6" position="125269"/>
  &lt;clipitem track="5" position="119098"/>
  &lt;clipitem track="6" position="128520"/>
  &lt;clipitem track="5" position="129631"/>
 &lt;/group>
 &lt;group>
  &lt;clipitem track="4" position="119098"/>
  &lt;clipitem track="6" position="117062"/>
  &lt;clipitem track="5" position="118749"/>
  &lt;transitionitem track="6" position="118749"/>
 &lt;/group>
 &lt;group>
  &lt;clipitem track="6" position="112549"/>
  &lt;clipitem track="4" position="112395"/>
  &lt;clipitem track="6" position="115052"/>
  &lt;clipitem track="5" position="117062"/>
  &lt;clipitem track="6" position="113277"/>
  &lt;clipitem track="5" position="113325"/>
  &lt;clipitem track="5" position="113101"/>
  &lt;transitionitem track="6" position="113101"/>
 &lt;/group>
 &lt;group>
  &lt;clipitem track="6" position="111052"/>
  &lt;clipitem track="6" position="110126"/>
  &lt;clipitem track="5" position="109511"/>
  &lt;clipitem track="6" position="109591"/>
  &lt;clipitem track="6" position="111299"/>
  &lt;clipitem track="6" position="109470"/>
  &lt;clipitem track="4" position="111029"/>
  &lt;clipitem track="4" position="109529"/>
  &lt;clipitem track="6" position="109529"/>
  &lt;clipitem track="5" position="109470"/>
  &lt;clipitem track="5" position="109458"/>
  &lt;clipitem track="5" position="111052"/>
  &lt;clipitem track="4" position="110041"/>
  &lt;clipitem track="6" position="110041"/>
  &lt;clipitem track="6" position="111194"/>
 &lt;/group>
 &lt;group>
  &lt;clipitem track="5" position="103570"/>
  &lt;clipitem track="6" position="103610"/>
  &lt;clipitem track="6" position="103458"/>
  &lt;clipitem track="6" position="104640"/>
  &lt;clipitem track="5" position="103458"/>
  &lt;clipitem track="6" position="104455"/>
  &lt;clipitem track="5" position="103527"/>
  &lt;clipitem track="6" position="103527"/>
  &lt;clipitem track="5" position="104918"/>
  &lt;clipitem track="5" position="104455"/>
  &lt;clipitem track="5" position="104626"/>
  &lt;clipitem track="4" position="103517"/>
  &lt;clipitem track="5" position="103455"/>
  &lt;clipitem track="6" position="99637"/>
  &lt;clipitem track="6" position="104952"/>
 &lt;/group>
 &lt;group>
  &lt;clipitem track="4" position="97992"/>
  &lt;clipitem track="5" position="97954"/>
  &lt;clipitem track="5" position="99637"/>
  &lt;clipitem track="6" position="97954"/>
  &lt;clipitem track="5" position="97982"/>
 &lt;/group>
 &lt;group>
  &lt;clipitem track="5" position="76085"/>
  &lt;clipitem track="6" position="76096"/>
  &lt;clipitem track="6" position="77010"/>
  &lt;clipitem track="6" position="75984"/>
  &lt;clipitem track="5" position="76096"/>
  &lt;clipitem track="5" position="77010"/>
  &lt;clipitem track="5" position="77476"/>
  &lt;clipitem track="6" position="77476"/>
  &lt;clipitem track="5" position="75939"/>
  &lt;clipitem track="6" position="75940"/>
 &lt;/group>
 &lt;group>
  &lt;clipitem track="5" position="22244"/>
  &lt;clipitem track="6" position="13736"/>
  &lt;clipitem track="6" position="18731"/>
  &lt;clipitem track="5" position="18689"/>
  &lt;clipitem track="6" position="22258"/>
  &lt;clipitem track="6" position="18835"/>
  &lt;clipitem track="4" position="18731"/>
  &lt;clipitem track="6" position="18177"/>
  &lt;clipitem track="6" position="17857"/>
  &lt;clipitem track="5" position="18158"/>
  &lt;clipitem track="5" position="17801"/>
  &lt;clipitem track="6" position="17808"/>
 &lt;/group>
 &lt;group>
  &lt;clipitem track="6" position="23799"/>
  &lt;clipitem track="5" position="23762"/>
  &lt;clipitem track="6" position="22309"/>
 &lt;/group>
 &lt;group>
  &lt;clipitem track="6" position="11019"/>
  &lt;clipitem track="6" position="3355"/>
  &lt;clipitem track="6" position="13625"/>
  &lt;clipitem track="5" position="13625"/>
  &lt;clipitem track="4" position="11058"/>
  &lt;clipitem track="5" position="11019"/>
  &lt;clipitem track="6" position="12926"/>
  &lt;clipitem track="6" position="7124"/>
 &lt;/group>
 &lt;group>
  &lt;clipitem track="5" position="27292"/>
  &lt;clipitem track="6" position="26337"/>
  &lt;clipitem track="5" position="26545"/>
  &lt;clipitem track="6" position="27403"/>
  &lt;clipitem track="6" position="26795"/>
  &lt;clipitem track="6" position="30443"/>
  &lt;clipitem track="4" position="26758"/>
  &lt;clipitem track="5" position="26496"/>
  &lt;clipitem track="5" position="26799"/>
  &lt;clipitem track="6" position="26761"/>
 &lt;/group>
 &lt;group>
  &lt;clipitem track="5" position="33478"/>
  &lt;clipitem track="6" position="30626"/>
  &lt;clipitem track="5" position="30616"/>
 &lt;/group>
 &lt;group>
  &lt;clipitem track="5" position="38602"/>
  &lt;clipitem track="5" position="38709"/>
  &lt;clipitem track="6" position="38682"/>
  &lt;clipitem track="5" position="40851"/>
  &lt;clipitem track="4" position="38682"/>
  &lt;clipitem track="6" position="33478"/>
  &lt;clipitem track="5" position="38625"/>
  &lt;clipitem track="6" position="38625"/>
  &lt;clipitem track="5" position="37768"/>
  &lt;clipitem track="6" position="37796"/>
  &lt;clipitem track="5" position="40902"/>
  &lt;clipitem track="5" position="37796"/>
  &lt;clipitem track="6" position="38754"/>
  &lt;clipitem track="6" position="40902"/>
  &lt;clipitem track="6" position="41246"/>
  &lt;clipitem track="5" position="41246"/>
 &lt;/group>
 &lt;group>
  &lt;clipitem track="5" position="63450"/>
  &lt;clipitem track="6" position="48156"/>
  &lt;clipitem track="5" position="51015"/>
  &lt;clipitem track="6" position="61666"/>
  &lt;clipitem track="6" position="63462"/>
  &lt;clipitem track="5" position="43535"/>
  &lt;clipitem track="5" position="60603"/>
  &lt;clipitem track="6" position="60603"/>
  &lt;clipitem track="5" position="60585"/>
  &lt;clipitem track="6" position="51030"/>
  &lt;clipitem track="5" position="51030"/>
  &lt;clipitem track="6" position="43550"/>
  &lt;clipitem track="5" position="51398"/>
  &lt;clipitem track="6" position="42148"/>
  &lt;clipitem track="5" position="48125"/>
  &lt;clipitem track="5" position="42136"/>
  &lt;clipitem track="6" position="51466"/>
  &lt;clipitem track="5" position="63973"/>
  &lt;clipitem track="5" position="61645"/>
 &lt;/group>
 &lt;group>
  &lt;clipitem track="6" position="63973"/>
  &lt;clipitem track="5" position="65443"/>
  &lt;clipitem track="6" position="66979"/>
  &lt;clipitem track="6" position="65104"/>
  &lt;clipitem track="4" position="66862"/>
  &lt;clipitem track="5" position="65073"/>
  &lt;clipitem track="5" position="65104"/>
 &lt;/group>
 &lt;group>
  &lt;clipitem track="4" position="70957"/>
  &lt;clipitem track="4" position="71048"/>
  &lt;clipitem track="6" position="70159"/>
  &lt;clipitem track="6" position="69331"/>
  &lt;clipitem track="6" position="68195"/>
  &lt;clipitem track="6" position="69273"/>
  &lt;clipitem track="6" position="69712"/>
  &lt;clipitem track="6" position="71016"/>
  &lt;clipitem track="4" position="71001"/>
  &lt;clipitem track="5" position="69699"/>
  &lt;clipitem track="4" position="71028"/>
  &lt;clipitem track="5" position="70957"/>
  &lt;clipitem track="4" position="70991"/>
  &lt;clipitem track="5" position="70128"/>
  &lt;clipitem track="4" position="71038"/>
  &lt;clipitem track="5" position="70159"/>
  &lt;clipitem track="5" position="69158"/>
  &lt;transitionitem track="6" position="71016"/>
 &lt;/group>
 &lt;group>
  &lt;clipitem track="2" position="71516"/>
  &lt;clipitem track="2" position="71597"/>
  &lt;clipitem track="2" position="71543"/>
  &lt;clipitem track="2" position="71423"/>
  &lt;clipitem track="2" position="71355"/>
  &lt;clipitem track="3" position="71496"/>
  &lt;clipitem track="5" position="71718"/>
  &lt;clipitem track="3" position="71398"/>
  &lt;clipitem track="3" position="71443"/>
  &lt;clipitem track="2" position="71450"/>
  &lt;clipitem track="6" position="71382"/>
  &lt;clipitem track="3" position="71544"/>
  &lt;clipitem track="4" position="71362"/>
  &lt;clipitem track="2" position="71570"/>
  &lt;clipitem track="6" position="71755"/>
  &lt;clipitem track="5" position="71362"/>
  &lt;clipitem track="2" position="71382"/>
  &lt;clipitem track="2" position="71477"/>
  &lt;transitionitem track="6" position="72100"/>
 &lt;/group>
 &lt;group>
  &lt;clipitem track="5" position="75448"/>
  &lt;clipitem track="6" position="72105"/>
  &lt;clipitem track="5" position="74654"/>
  &lt;clipitem track="6" position="74730"/>
  &lt;clipitem track="6" position="73425"/>
  &lt;clipitem track="3" position="74688"/>
  &lt;clipitem track="5" position="73400"/>
  &lt;clipitem track="6" position="73166"/>
  &lt;clipitem track="5" position="73113"/>
  &lt;clipitem track="4" position="74692"/>
  &lt;clipitem track="6" position="73185"/>
  &lt;clipitem track="5" position="74672"/>
  &lt;clipitem track="4" position="73306"/>
  &lt;clipitem track="6" position="74688"/>
  &lt;clipitem track="6" position="74672"/>
  &lt;clipitem track="6" position="75542"/>
  &lt;clipitem track="6" position="73243"/>
 &lt;/group>
 &lt;group>
  &lt;clipitem track="6" position="160368"/>
  &lt;clipitem track="4" position="160983"/>
  &lt;clipitem track="6" position="159806"/>
  &lt;clipitem track="4" position="160388"/>
  &lt;clipitem track="5" position="160253"/>
  &lt;clipitem track="3" position="160248"/>
  &lt;clipitem track="5" position="159937"/>
  &lt;clipitem track="5" position="155602"/>
  &lt;clipitem track="3" position="159875"/>
  &lt;clipitem track="4" position="159902"/>
  &lt;clipitem track="5" position="154239"/>
  &lt;clipitem track="6" position="160138"/>
  &lt;clipitem track="4" position="159886"/>
  &lt;clipitem track="5" position="160138"/>
  &lt;clipitem track="5" position="159886"/>
  &lt;clipitem track="5" position="159716"/>
  &lt;clipitem track="5" position="160388"/>
  &lt;clipitem track="4" position="159716"/>
  &lt;clipitem track="6" position="155602"/>
  &lt;clipitem track="6" position="161000"/>
  &lt;clipitem track="6" position="154259"/>
 &lt;/group>
 &lt;group>
  &lt;clipitem track="4" position="107815"/>
  &lt;clipitem track="6" position="106419"/>
  &lt;clipitem track="6" position="106864"/>
  &lt;clipitem track="5" position="107227"/>
  &lt;clipitem track="6" position="106523"/>
  &lt;clipitem track="6" position="107893"/>
  &lt;clipitem track="6" position="107254"/>
  &lt;clipitem track="6" position="107864"/>
  &lt;clipitem track="5" position="106864"/>
  &lt;clipitem track="5" position="107049"/>
  &lt;clipitem track="5" position="107864"/>
  &lt;clipitem track="5" position="107254"/>
  &lt;clipitem track="6" position="107049"/>
 &lt;/group>
&lt;/groups>
</property>
  <property name="kdenlive:guide.107.667">An Unexpected Party</property>
  <property name="kdenlive:docproperties.renderaudiobitrate">192</property>
  <property name="kdenlive:docproperties.renderbitrate">15</property>
  <property name="kdenlive:docproperties.rendercategory">MP4</property>
  <property name="kdenlive:docproperties.renderendguide">0</property>
  <property name="kdenlive:docproperties.renderexportaudio">0</property>
  <property name="kdenlive:docproperties.renderguide">0</property>
  <property name="kdenlive:docproperties.renderplay">0</property>
  <property name="kdenlive:docproperties.renderprofile">H.264/AAC fast</property>
  <property name="kdenlive:docproperties.renderratio">1</property>
  <property name="kdenlive:docproperties.renderrescale">0</property>
  <property name="kdenlive:docproperties.renderrescaleheight">180</property>
  <property name="kdenlive:docproperties.renderrescalewidth">320</property>
  <property name="kdenlive:docproperties.renderscanning">0</property>
  <property name="kdenlive:docproperties.renderstartguide">0</property>
  <property name="kdenlive:docproperties.rendertcoverlay">0</property>
  <property name="kdenlive:docproperties.rendertctype">0</property>
  <property name="kdenlive:docproperties.rendertwopass">0</property>
  <property name="kdenlive:docproperties.renderurl">/media/cassi/SilverSqueaker/backup-new/movies/action/hobbit/2018/hobbit_abridged_2019.mp4</property>
  <property name="kdenlive:docproperties.renderzone">0</property>
  <property name="kdenlive:guide.1232.54">Roast Mutton</property>
  <property name="kdenlive:guide.2569.42">A Short Rest</property>
  <property name="kdenlive:guide.3004.38">Over Hill and Under Hill</property>
  <property name="kdenlive:guide.3337.04">Riddles in the Dark</property>
  <property name="kdenlive:guide.4279.12">Out of the Frying Pan and into the Fire</property>
  <property name="kdenlive:guide.4619.46">Queer Lodgings</property>
  <property name="kdenlive:guide.5414.29">Flies and Spiders</property>
  <property name="kdenlive:guide.6147.29">Barrels out of Bond</property>
  <property name="kdenlive:guide.6678.88">A Warm Welcome</property>
  <property name="kdenlive:guide.7427.83">On the Doorstep</property>
  <property name="kdenlive:guide.7941.75">Inside Information</property>
  <property name="kdenlive:guide.8588.83">Not at Home</property>
  <property name="kdenlive:guide.8824.54">Fire and Water</property>
  <property name="kdenlive:guide.9227.33">A Gathering of Clouds</property>
  <property name="kdenlive:guide.10526.2">A Thief in the Night</property>
  <property name="kdenlive:guide.10647.6">The Clouds Burst</property>
  <property name="kdenlive:guide.12213.4">The Return Journey</property>
  <property name="kdenlive:guide.12481.5">The Last Stage</property>
  <property name="xml_retain">1</property>
  <entry out="244275" in="0" producer="3"/>
  <entry out="268700" in="0" producer="1"/>
  <entry out="208056" in="0" producer="2"/>
  <entry out="119" in="0" producer="9"/>
  <entry out="119" in="0" producer="8"/>
 </playlist>
 <producer id="black" out="648919" in="0">
  <property name="mlt_type">producer</property>
  <property name="length">648920</property>
  <property name="eof">pause</property>
  <property name="resource">black</property>
  <property name="aspect_ratio">0</property>
  <property name="mlt_service">colour</property>
 </producer>
 <playlist id="black_track">
  <entry out="327146" in="0" producer="black"/>
 </playlist>
 <producer id="1_playlist0_audio" out="268700" title="Anonymous Submission" in="0">
  <property name="mlt_type">producer</property>
  <property name="length">03:06:35:21</property>
  <property name="eof">pause</property>
  <property name="resource">/media/cassi/SilverSqueaker/backup-new/movies/action/hobbit/The.Hobbit.Desolation.Of.Smaug.Extended.Edition.2013.BluRay.DTS-ES.x264-tRuEHD.mkv</property>
  <property name="meta.media.nb_streams">6</property>
  <property name="meta.media.0.stream.type">video</property>
  <property name="meta.media.0.stream.frame_rate">23.976</property>
  <property name="meta.media.0.stream.sample_aspect_ratio">1</property>
  <property name="meta.media.0.codec.width">1280</property>
  <property name="meta.media.0.codec.height">534</property>
  <property name="meta.media.0.codec.rotate">0</property>
  <property name="meta.media.0.codec.frame_rate">23.976</property>
  <property name="meta.media.0.codec.pix_fmt">yuv420p</property>
  <property name="meta.media.0.codec.sample_aspect_ratio">1</property>
  <property name="meta.media.0.codec.colorspace">709</property>
  <property name="meta.media.0.codec.name">h264</property>
  <property name="meta.media.0.codec.long_name">H.264 / AVC / MPEG-4 AVC / MPEG-4 part 10</property>
  <property name="meta.media.0.codec.bit_rate">0</property>
  <property name="meta.attr.0.stream.language.markup">eng</property>
  <property name="meta.media.1.stream.type">audio</property>
  <property name="meta.media.1.codec.sample_fmt">fltp</property>
  <property name="meta.media.1.codec.sample_rate">48000</property>
  <property name="meta.media.1.codec.channels">7</property>
  <property name="meta.media.1.codec.name">dca</property>
  <property name="meta.media.1.codec.long_name">DCA (DTS Coherent Acoustics)</property>
  <property name="meta.media.1.codec.bit_rate">1536000</property>
  <property name="meta.attr.1.stream.language.markup">eng</property>
  <property name="meta.attr.1.stream.title.markup">Main Audio</property>
  <property name="meta.media.2.stream.type">audio</property>
  <property name="meta.media.2.codec.sample_fmt">fltp</property>
  <property name="meta.media.2.codec.sample_rate">48000</property>
  <property name="meta.media.2.codec.channels">2</property>
  <property name="meta.media.2.codec.name">ac3</property>
  <property name="meta.media.2.codec.long_name">ATSC A/52A (AC-3)</property>
  <property name="meta.media.2.codec.bit_rate">128000</property>
  <property name="meta.attr.2.stream.language.markup">eng</property>
  <property name="meta.attr.2.stream.title.markup">Commentary</property>
  <property name="meta.media.3.codec.name">srt</property>
  <property name="meta.media.3.codec.long_name">SubRip subtitle</property>
  <property name="meta.media.3.codec.bit_rate">0</property>
  <property name="meta.attr.3.stream.language.markup">eng</property>
  <property name="meta.attr.3.stream.title.markup">Subtitle #1</property>
  <property name="meta.media.4.codec.name">srt</property>
  <property name="meta.media.4.codec.long_name">SubRip subtitle</property>
  <property name="meta.media.4.codec.bit_rate">0</property>
  <property name="meta.attr.4.stream.language.markup">fre</property>
  <property name="meta.attr.4.stream.title.markup">Subtitle #2</property>
  <property name="meta.media.5.codec.name">srt</property>
  <property name="meta.media.5.codec.long_name">SubRip subtitle</property>
  <property name="meta.media.5.codec.bit_rate">0</property>
  <property name="meta.attr.5.stream.language.markup">spa</property>
  <property name="meta.attr.5.stream.title.markup">Subtitle #3</property>
  <property name="meta.attr.encoder.markup">libebml v1.3.0 + libmatroska v1.4.1</property>
  <property name="meta.attr.creation_time.markup">2014-10-27 22:49:14</property>
  <property name="seekable">1</property>
  <property name="meta.media.sample_aspect_num">1</property>
  <property name="meta.media.sample_aspect_den">1</property>
  <property name="aspect_ratio">1</property>
  <property name="audio_index">1</property>
  <property name="video_index">-1</property>
  <property name="mute_on_pause">1</property>
  <property name="mlt_service">avformat</property>
  <property name="kdenlive:file_hash">8be2978c13f0cd02e7ae33c9d4ec03c9</property>
  <property name="kdenlive:file_size">10472010332</property>
  <property name="kdenlive:clipname">The.Hobbit.Desolation.Of.Smaug.Extended.Edition.2013.BluRay.DTS-ES.x264-tRuEHD.mkv</property>
  <property name="global_feed">1</property>
  <property name="xml">was here</property>
 </producer>
 <producer id="2_playlist0" out="208056" title="Anonymous Submission" in="0">
  <property name="mlt_type">producer</property>
  <property name="length">02:24:29:01</property>
  <property name="eof">pause</property>
  <property name="resource">/media/cassi/SilverSqueaker/backup-new/movies/action/hobbit/The.Hobbit.The.Battle.of.the.Five.Armies.2014.720p.BluRay.DTS-ES.x264-tRuEHD.mkv</property>
  <property name="meta.media.nb_streams">11</property>
  <property name="meta.media.0.stream.type">video</property>
  <property name="meta.media.0.stream.frame_rate">23.976</property>
  <property name="meta.media.0.stream.sample_aspect_ratio">1</property>
  <property name="meta.media.0.codec.width">1280</property>
  <property name="meta.media.0.codec.height">534</property>
  <property name="meta.media.0.codec.rotate">0</property>
  <property name="meta.media.0.codec.frame_rate">23.976</property>
  <property name="meta.media.0.codec.pix_fmt">yuv420p</property>
  <property name="meta.media.0.codec.sample_aspect_ratio">1</property>
  <property name="meta.media.0.codec.colorspace">709</property>
  <property name="meta.media.0.codec.name">h264</property>
  <property name="meta.media.0.codec.long_name">H.264 / AVC / MPEG-4 AVC / MPEG-4 part 10</property>
  <property name="meta.media.0.codec.bit_rate">0</property>
  <property name="meta.attr.0.stream.language.markup">eng</property>
  <property name="meta.media.1.stream.type">audio</property>
  <property name="meta.media.1.codec.sample_fmt">fltp</property>
  <property name="meta.media.1.codec.sample_rate">48000</property>
  <property name="meta.media.1.codec.channels">7</property>
  <property name="meta.media.1.codec.name">dca</property>
  <property name="meta.media.1.codec.long_name">DCA (DTS Coherent Acoustics)</property>
  <property name="meta.media.1.codec.bit_rate">1536000</property>
  <property name="meta.attr.1.stream.language.markup">eng</property>
  <property name="meta.attr.1.stream.title.markup">Main Audio</property>
  <property name="meta.media.2.codec.name">srt</property>
  <property name="meta.media.2.codec.long_name">SubRip subtitle</property>
  <property name="meta.media.2.codec.bit_rate">0</property>
  <property name="meta.attr.2.stream.language.markup">eng</property>
  <property name="meta.attr.2.stream.title.markup">Subtitle #1</property>
  <property name="meta.media.3.codec.name">srt</property>
  <property name="meta.media.3.codec.long_name">SubRip subtitle</property>
  <property name="meta.media.3.codec.bit_rate">0</property>
  <property name="meta.attr.3.stream.language.markup">dan</property>
  <property name="meta.attr.3.stream.title.markup">Subtitle #2</property>
  <property name="meta.media.4.codec.name">srt</property>
  <property name="meta.media.4.codec.long_name">SubRip subtitle</property>
  <property name="meta.media.4.codec.bit_rate">0</property>
  <property name="meta.attr.4.stream.language.markup">dut</property>
  <property name="meta.attr.4.stream.title.markup">Subtitle #3</property>
  <property name="meta.media.5.codec.name">srt</property>
  <property name="meta.media.5.codec.long_name">SubRip subtitle</property>
  <property name="meta.media.5.codec.bit_rate">0</property>
  <property name="meta.attr.5.stream.language.markup">nor</property>
  <property name="meta.attr.5.stream.title.markup">Subtitle #4</property>
  <property name="meta.media.6.codec.name">srt</property>
  <property name="meta.media.6.codec.long_name">SubRip subtitle</property>
  <property name="meta.media.6.codec.bit_rate">0</property>
  <property name="meta.attr.6.stream.language.markup">pol</property>
  <property name="meta.attr.6.stream.title.markup">Subtitle #5</property>
  <property name="meta.media.7.codec.name">srt</property>
  <property name="meta.media.7.codec.long_name">SubRip subtitle</property>
  <property name="meta.media.7.codec.bit_rate">0</property>
  <property name="meta.attr.7.stream.language.markup">rum</property>
  <property name="meta.attr.7.stream.title.markup">Subtitle #6</property>
  <property name="meta.media.8.codec.name">srt</property>
  <property name="meta.media.8.codec.long_name">SubRip subtitle</property>
  <property name="meta.media.8.codec.bit_rate">0</property>
  <property name="meta.attr.8.stream.language.markup">spa</property>
  <property name="meta.attr.8.stream.title.markup">Subtitle #7</property>
  <property name="meta.media.9.codec.name">srt</property>
  <property name="meta.media.9.codec.long_name">SubRip subtitle</property>
  <property name="meta.media.9.codec.bit_rate">0</property>
  <property name="meta.attr.9.stream.language.markup">swe</property>
  <property name="meta.attr.9.stream.title.markup">Subtitle #8</property>
  <property name="meta.media.10.codec.name">srt</property>
  <property name="meta.media.10.codec.long_name">SubRip subtitle</property>
  <property name="meta.media.10.codec.bit_rate">0</property>
  <property name="meta.attr.10.stream.language.markup">tur</property>
  <property name="meta.attr.10.stream.title.markup">Subtitle #9</property>
  <property name="meta.attr.encoder.markup">libebml v1.3.0 + libmatroska v1.4.1</property>
  <property name="meta.attr.creation_time.markup">2015-03-12 04:24:50</property>
  <property name="seekable">1</property>
  <property name="meta.media.sample_aspect_num">1</property>
  <property name="meta.media.sample_aspect_den">1</property>
  <property name="aspect_ratio">1</property>
  <property name="audio_index">1</property>
  <property name="video_index">0</property>
  <property name="mute_on_pause">1</property>
  <property name="mlt_service">avformat</property>
  <property name="kdenlive:file_hash">871be6bb17b23fa99a05acde371b8110</property>
  <property name="kdenlive:file_size">8363749757</property>
  <property name="kdenlive:clipname">The.Hobbit.The.Battle.of.the.Five.Armies.2014.720p.BluRay.DTS-ES.x264-tRuEHD.mkv</property>
  <property name="global_feed">1</property>
  <property name="xml">was here</property>
  <property name="meta.media.frame_rate_num">24000</property>
  <property name="meta.media.frame_rate_den">1001</property>
  <property name="meta.media.colorspace">709</property>
  <property name="meta.media.color_trc">2</property>
  <property name="meta.media.width">1280</property>
  <property name="meta.media.height">534</property>
  <property name="meta.media.top_field_first">0</property>
  <property name="meta.media.progressive">1</property>
 </producer>
 <playlist id="playlist0">
  <property name="kdenlive:track_name">1</property>
  <property name="kdenlive:locked_track">0</property>
  <property name="kdenlive:composite">1</property>
  <blank length="208685"/>
  <entry out="263253" in="260658" producer="1_playlist0_audio">
   <filter id="volume" out="261258" in="260658">
    <property name="window">75</property>
    <property name="max_gain">20dB</property>
    <property name="mlt_type">filter</property>
    <property name="mlt_service">volume</property>
    <property name="kdenlive_id">volume</property>
    <property name="tag">volume</property>
    <property name="kdenlive_ix">1</property>
    <property name="kdenlive_info"/>
    <property name="disable"/>
    <property name="gain">1</property>
    <property name="end">0.93</property>
   </filter>
   <filter id="filter0" out="261639" in="261259">
    <property name="window">75</property>
    <property name="max_gain">20dB</property>
    <property name="mlt_type">filter</property>
    <property name="mlt_service">volume</property>
    <property name="kdenlive_id">volume</property>
    <property name="tag">volume</property>
    <property name="kdenlive_ix">1</property>
    <property name="kdenlive_info"/>
    <property name="disable"/>
    <property name="gain">0.92853</property>
    <property name="end">0.37</property>
   </filter>
   <filter id="filter1" out="261838" in="261640">
    <property name="window">75</property>
    <property name="max_gain">20dB</property>
    <property name="mlt_type">filter</property>
    <property name="mlt_service">volume</property>
    <property name="kdenlive_id">volume</property>
    <property name="tag">volume</property>
    <property name="kdenlive_ix">1</property>
    <property name="kdenlive_info"/>
    <property name="disable"/>
    <property name="gain">0.368141</property>
    <property name="end">0</property>
   </filter>
   <filter id="filter2" out="262367" in="261839">
    <property name="window">75</property>
    <property name="max_gain">20dB</property>
    <property name="mlt_type">filter</property>
    <property name="mlt_service">volume</property>
    <property name="kdenlive_id">volume</property>
    <property name="tag">volume</property>
    <property name="kdenlive_ix">1</property>
    <property name="kdenlive_info"/>
    <property name="disable"/>
    <property name="gain">0</property>
    <property name="end">0</property>
   </filter>
   <filter id="filter3" out="262708" in="262368">
    <property name="window">75</property>
    <property name="max_gain">20dB</property>
    <property name="mlt_type">filter</property>
    <property name="mlt_service">volume</property>
    <property name="kdenlive_id">volume</property>
    <property name="tag">volume</property>
    <property name="kdenlive_ix">1</property>
    <property name="kdenlive_info"/>
    <property name="disable"/>
    <property name="gain">0.00146628</property>
    <property name="end">0.5</property>
   </filter>
   <filter id="filter4" out="263178" in="262709">
    <property name="window">75</property>
    <property name="max_gain">20dB</property>
    <property name="mlt_type">filter</property>
    <property name="mlt_service">volume</property>
    <property name="kdenlive_id">volume</property>
    <property name="tag">volume</property>
    <property name="kdenlive_ix">1</property>
    <property name="kdenlive_info"/>
    <property name="disable"/>
    <property name="gain">0.5</property>
    <property name="end">0.5</property>
   </filter>
   <filter id="filter5" out="263253" in="263179">
    <property name="window">75</property>
    <property name="max_gain">20dB</property>
    <property name="mlt_type">filter</property>
    <property name="mlt_service">volume</property>
    <property name="kdenlive_id">volume</property>
    <property name="tag">volume</property>
    <property name="kdenlive_ix">1</property>
    <property name="kdenlive_info"/>
    <property name="disable"/>
    <property name="gain">0.493333</property>
    <property name="end">0</property>
   </filter>
   <filter id="fadein" out="260954" in="260658">
    <property name="window">75</property>
    <property name="max_gain">20dB</property>
    <property name="mlt_type">filter</property>
    <property name="mlt_service">volume</property>
    <property name="kdenlive_id">fadein</property>
    <property name="tag">volume</property>
    <property name="kdenlive_ix">2</property>
    <property name="kdenlive_info"/>
    <property name="disable"/>
    <property name="gain">0</property>
    <property name="end">1</property>
   </filter>
  </entry>
  <blank length="68395"/>
  <entry out="134677" in="134662" producer="2_playlist0">
   <filter id="filter6" out="134663" in="134662">
    <property name="window">75</property>
    <property name="max_gain">20dB</property>
    <property name="mlt_type">filter</property>
    <property name="mlt_service">volume</property>
    <property name="kdenlive_id">volume</property>
    <property name="tag">volume</property>
    <property name="kdenlive_ix">1</property>
    <property name="kdenlive_info"/>
    <property name="disable"/>
    <property name="gain">0</property>
    <property name="end">0.3</property>
   </filter>
   <filter id="filter7" out="134675" in="134664">
    <property name="window">75</property>
    <property name="max_gain">20dB</property>
    <property name="mlt_type">filter</property>
    <property name="mlt_service">volume</property>
    <property name="kdenlive_id">volume</property>
    <property name="tag">volume</property>
    <property name="kdenlive_ix">1</property>
    <property name="kdenlive_info"/>
    <property name="disable"/>
    <property name="gain">0.3</property>
    <property name="end">0.3</property>
   </filter>
   <filter id="filter8" out="134677" in="134676">
    <property name="window">75</property>
    <property name="max_gain">20dB</property>
    <property name="mlt_type">filter</property>
    <property name="mlt_service">volume</property>
    <property name="kdenlive_id">volume</property>
    <property name="tag">volume</property>
    <property name="kdenlive_ix">1</property>
    <property name="kdenlive_info"/>
    <property name="disable"/>
    <property name="gain">0.15</property>
    <property name="end">0</property>
   </filter>
  </entry>
  <blank length="89"/>
  <entry out="134997" in="134991" producer="2_playlist0">
   <filter id="filter9" out="134997" in="134991">
    <property name="window">75</property>
    <property name="max_gain">20dB</property>
    <property name="mlt_type">filter</property>
    <property name="mlt_service">volume</property>
    <property name="kdenlive_id">volume</property>
    <property name="tag">volume</property>
    <property name="kdenlive_ix">1</property>
    <property name="kdenlive_info"/>
    <property name="disable"/>
    <property name="gain">0</property>
    <property name="end">0.4</property>
   </filter>
  </entry>
 </playlist>
 <producer id="3_playlist0" out="244275" title="Anonymous Submission" in="0">
  <property name="mlt_type">producer</property>
  <property name="length">02:49:38:04</property>
  <property name="eof">pause</property>
  <property name="resource">/media/cassi/SilverSqueaker/backup-new/movies/action/hobbit/The.Hobbit.An.Unexpected.Journey.2012.720p.BluRay.DTS-ES.x264-tRuEHD.mkv</property>
  <property name="meta.media.nb_streams">9</property>
  <property name="meta.media.0.stream.type">video</property>
  <property name="meta.media.0.stream.frame_rate">23.976</property>
  <property name="meta.media.0.stream.sample_aspect_ratio">1</property>
  <property name="meta.media.0.codec.width">1280</property>
  <property name="meta.media.0.codec.height">534</property>
  <property name="meta.media.0.codec.rotate">0</property>
  <property name="meta.media.0.codec.frame_rate">23.976</property>
  <property name="meta.media.0.codec.pix_fmt">yuv420p</property>
  <property name="meta.media.0.codec.sample_aspect_ratio">1</property>
  <property name="meta.media.0.codec.colorspace">709</property>
  <property name="meta.media.0.codec.name">h264</property>
  <property name="meta.media.0.codec.long_name">H.264 / AVC / MPEG-4 AVC / MPEG-4 part 10</property>
  <property name="meta.media.0.codec.bit_rate">0</property>
  <property name="meta.attr.0.stream.language.markup">eng</property>
  <property name="meta.media.1.stream.type">audio</property>
  <property name="meta.media.1.codec.sample_fmt">fltp</property>
  <property name="meta.media.1.codec.sample_rate">48000</property>
  <property name="meta.media.1.codec.channels">7</property>
  <property name="meta.media.1.codec.name">dca</property>
  <property name="meta.media.1.codec.long_name">DCA (DTS Coherent Acoustics)</property>
  <property name="meta.media.1.codec.bit_rate">1536000</property>
  <property name="meta.attr.1.stream.language.markup">eng</property>
  <property name="meta.attr.1.stream.title.markup">Main Movie</property>
  <property name="meta.media.2.codec.name">srt</property>
  <property name="meta.media.2.codec.long_name">SubRip subtitle</property>
  <property name="meta.media.2.codec.bit_rate">0</property>
  <property name="meta.attr.2.stream.language.markup">eng</property>
  <property name="meta.attr.2.stream.title.markup">Subtitle #1</property>
  <property name="meta.media.3.codec.name">srt</property>
  <property name="meta.media.3.codec.long_name">SubRip subtitle</property>
  <property name="meta.media.3.codec.bit_rate">0</property>
  <property name="meta.attr.3.stream.language.markup">spa</property>
  <property name="meta.attr.3.stream.title.markup">Subtitle #2</property>
  <property name="meta.media.4.codec.name">srt</property>
  <property name="meta.media.4.codec.long_name">SubRip subtitle</property>
  <property name="meta.media.4.codec.bit_rate">0</property>
  <property name="meta.attr.4.stream.language.markup">swe</property>
  <property name="meta.attr.4.stream.title.markup">Subtitle #3</property>
  <property name="meta.media.5.codec.name">srt</property>
  <property name="meta.media.5.codec.long_name">SubRip subtitle</property>
  <property name="meta.media.5.codec.bit_rate">0</property>
  <property name="meta.attr.5.stream.language.markup">pol</property>
  <property name="meta.attr.5.stream.title.markup">Subtitle #4</property>
  <property name="meta.media.6.codec.name">srt</property>
  <property name="meta.media.6.codec.long_name">SubRip subtitle</property>
  <property name="meta.media.6.codec.bit_rate">0</property>
  <property name="meta.attr.6.stream.language.markup">dut</property>
  <property name="meta.attr.6.stream.title.markup">Subtitle #5</property>
  <property name="meta.media.7.codec.name">srt</property>
  <property name="meta.media.7.codec.long_name">SubRip subtitle</property>
  <property name="meta.media.7.codec.bit_rate">0</property>
  <property name="meta.attr.7.stream.language.markup">hun</property>
  <property name="meta.attr.7.stream.title.markup">Subtitle #5</property>
  <property name="meta.media.8.codec.name">srt</property>
  <property name="meta.media.8.codec.long_name">SubRip subtitle</property>
  <property name="meta.media.8.codec.bit_rate">0</property>
  <property name="meta.attr.8.stream.language.markup">fin</property>
  <property name="meta.attr.8.stream.title.markup">Subtitle #7</property>
  <property name="meta.attr.encoder.markup">libebml v1.3.0 + libmatroska v1.4.0</property>
  <property name="meta.attr.creation_time.markup">2013-03-06 19:22:31</property>
  <property name="seekable">1</property>
  <property name="meta.media.sample_aspect_num">1</property>
  <property name="meta.media.sample_aspect_den">1</property>
  <property name="aspect_ratio">1</property>
  <property name="audio_index">1</property>
  <property name="video_index">0</property>
  <property name="mute_on_pause">1</property>
  <property name="mlt_service">avformat</property>
  <property name="kdenlive:file_hash">cb27a31175b869914daeb30fd94f9ce1</property>
  <property name="kdenlive:file_size">9954075332</property>
  <property name="kdenlive:clipname">The.Hobbit.An.Unexpected.Journey.2012.720p.BluRay.DTS-ES.x264-tRuEHD.mkv</property>
  <property name="global_feed">1</property>
  <property name="xml">was here</property>
  <property name="meta.media.frame_rate_num">24000</property>
  <property name="meta.media.frame_rate_den">1001</property>
  <property name="meta.media.colorspace">709</property>
  <property name="meta.media.color_trc">2</property>
  <property name="meta.media.width">1280</property>
  <property name="meta.media.height">534</property>
 </producer>
 <producer id="3_playlist1" out="244275" title="Anonymous Submission" in="0">
  <property name="mlt_type">producer</property>
  <property name="length">02:49:38:04</property>
  <property name="eof">pause</property>
  <property name="resource">/media/cassi/SilverSqueaker/backup-new/movies/action/hobbit/The.Hobbit.An.Unexpected.Journey.2012.720p.BluRay.DTS-ES.x264-tRuEHD.mkv</property>
  <property name="meta.media.nb_streams">9</property>
  <property name="meta.media.0.stream.type">video</property>
  <property name="meta.media.0.stream.frame_rate">23.976</property>
  <property name="meta.media.0.stream.sample_aspect_ratio">1</property>
  <property name="meta.media.0.codec.width">1280</property>
  <property name="meta.media.0.codec.height">534</property>
  <property name="meta.media.0.codec.rotate">0</property>
  <property name="meta.media.0.codec.frame_rate">23.976</property>
  <property name="meta.media.0.codec.pix_fmt">yuv420p</property>
  <property name="meta.media.0.codec.sample_aspect_ratio">1</property>
  <property name="meta.media.0.codec.colorspace">709</property>
  <property name="meta.media.0.codec.name">h264</property>
  <property name="meta.media.0.codec.long_name">H.264 / AVC / MPEG-4 AVC / MPEG-4 part 10</property>
  <property name="meta.media.0.codec.bit_rate">0</property>
  <property name="meta.attr.0.stream.language.markup">eng</property>
  <property name="meta.media.1.stream.type">audio</property>
  <property name="meta.media.1.codec.sample_fmt">fltp</property>
  <property name="meta.media.1.codec.sample_rate">48000</property>
  <property name="meta.media.1.codec.channels">7</property>
  <property name="meta.media.1.codec.name">dca</property>
  <property name="meta.media.1.codec.long_name">DCA (DTS Coherent Acoustics)</property>
  <property name="meta.media.1.codec.bit_rate">1536000</property>
  <property name="meta.attr.1.stream.language.markup">eng</property>
  <property name="meta.attr.1.stream.title.markup">Main Movie</property>
  <property name="meta.media.2.codec.name">srt</property>
  <property name="meta.media.2.codec.long_name">SubRip subtitle</property>
  <property name="meta.media.2.codec.bit_rate">0</property>
  <property name="meta.attr.2.stream.language.markup">eng</property>
  <property name="meta.attr.2.stream.title.markup">Subtitle #1</property>
  <property name="meta.media.3.codec.name">srt</property>
  <property name="meta.media.3.codec.long_name">SubRip subtitle</property>
  <property name="meta.media.3.codec.bit_rate">0</property>
  <property name="meta.attr.3.stream.language.markup">spa</property>
  <property name="meta.attr.3.stream.title.markup">Subtitle #2</property>
  <property name="meta.media.4.codec.name">srt</property>
  <property name="meta.media.4.codec.long_name">SubRip subtitle</property>
  <property name="meta.media.4.codec.bit_rate">0</property>
  <property name="meta.attr.4.stream.language.markup">swe</property>
  <property name="meta.attr.4.stream.title.markup">Subtitle #3</property>
  <property name="meta.media.5.codec.name">srt</property>
  <property name="meta.media.5.codec.long_name">SubRip subtitle</property>
  <property name="meta.media.5.codec.bit_rate">0</property>
  <property name="meta.attr.5.stream.language.markup">pol</property>
  <property name="meta.attr.5.stream.title.markup">Subtitle #4</property>
  <property name="meta.media.6.codec.name">srt</property>
  <property name="meta.media.6.codec.long_name">SubRip subtitle</property>
  <property name="meta.media.6.codec.bit_rate">0</property>
  <property name="meta.attr.6.stream.language.markup">dut</property>
  <property name="meta.attr.6.stream.title.markup">Subtitle #5</property>
  <property name="meta.media.7.codec.name">srt</property>
  <property name="meta.media.7.codec.long_name">SubRip subtitle</property>
  <property name="meta.media.7.codec.bit_rate">0</property>
  <property name="meta.attr.7.stream.language.markup">hun</property>
  <property name="meta.attr.7.stream.title.markup">Subtitle #5</property>
  <property name="meta.media.8.codec.name">srt</property>
  <property name="meta.media.8.codec.long_name">SubRip subtitle</property>
  <property name="meta.media.8.codec.bit_rate">0</property>
  <property name="meta.attr.8.stream.language.markup">fin</property>
  <property name="meta.attr.8.stream.title.markup">Subtitle #7</property>
  <property name="meta.attr.encoder.markup">libebml v1.3.0 + libmatroska v1.4.0</property>
  <property name="meta.attr.creation_time.markup">2013-03-06 19:22:31</property>
  <property name="seekable">1</property>
  <property name="meta.media.sample_aspect_num">1</property>
  <property name="meta.media.sample_aspect_den">1</property>
  <property name="aspect_ratio">1</property>
  <property name="audio_index">1</property>
  <property name="video_index">0</property>
  <property name="mute_on_pause">1</property>
  <property name="mlt_service">avformat</property>
  <property name="kdenlive:file_hash">cb27a31175b869914daeb30fd94f9ce1</property>
  <property name="kdenlive:file_size">9954075332</property>
  <property name="kdenlive:clipname">The.Hobbit.An.Unexpected.Journey.2012.720p.BluRay.DTS-ES.x264-tRuEHD.mkv</property>
  <property name="global_feed">1</property>
  <property name="xml">was here</property>
  <property name="meta.media.frame_rate_num">24000</property>
  <property name="meta.media.frame_rate_den">1001</property>
  <property name="meta.media.colorspace">709</property>
  <property name="meta.media.color_trc">2</property>
  <property name="meta.media.width">1280</property>
  <property name="meta.media.height">534</property>
 </producer>
 <producer id="1_playlist1" out="268700" title="Anonymous Submission" in="0">
  <property name="mlt_type">producer</property>
  <property name="length">03:06:35:21</property>
  <property name="eof">pause</property>
  <property name="resource">/media/cassi/SilverSqueaker/backup-new/movies/action/hobbit/The.Hobbit.Desolation.Of.Smaug.Extended.Edition.2013.BluRay.DTS-ES.x264-tRuEHD.mkv</property>
  <property name="meta.media.nb_streams">6</property>
  <property name="meta.media.0.stream.type">video</property>
  <property name="meta.media.0.stream.frame_rate">23.976</property>
  <property name="meta.media.0.stream.sample_aspect_ratio">1</property>
  <property name="meta.media.0.codec.width">1280</property>
  <property name="meta.media.0.codec.height">534</property>
  <property name="meta.media.0.codec.rotate">0</property>
  <property name="meta.media.0.codec.frame_rate">23.976</property>
  <property name="meta.media.0.codec.pix_fmt">yuv420p</property>
  <property name="meta.media.0.codec.sample_aspect_ratio">1</property>
  <property name="meta.media.0.codec.colorspace">709</property>
  <property name="meta.media.0.codec.name">h264</property>
  <property name="meta.media.0.codec.long_name">H.264 / AVC / MPEG-4 AVC / MPEG-4 part 10</property>
  <property name="meta.media.0.codec.bit_rate">0</property>
  <property name="meta.attr.0.stream.language.markup">eng</property>
  <property name="meta.media.1.stream.type">audio</property>
  <property name="meta.media.1.codec.sample_fmt">fltp</property>
  <property name="meta.media.1.codec.sample_rate">48000</property>
  <property name="meta.media.1.codec.channels">7</property>
  <property name="meta.media.1.codec.name">dca</property>
  <property name="meta.media.1.codec.long_name">DCA (DTS Coherent Acoustics)</property>
  <property name="meta.media.1.codec.bit_rate">1536000</property>
  <property name="meta.attr.1.stream.language.markup">eng</property>
  <property name="meta.attr.1.stream.title.markup">Main Audio</property>
  <property name="meta.media.2.stream.type">audio</property>
  <property name="meta.media.2.codec.sample_fmt">fltp</property>
  <property name="meta.media.2.codec.sample_rate">48000</property>
  <property name="meta.media.2.codec.channels">2</property>
  <property name="meta.media.2.codec.name">ac3</property>
  <property name="meta.media.2.codec.long_name">ATSC A/52A (AC-3)</property>
  <property name="meta.media.2.codec.bit_rate">128000</property>
  <property name="meta.attr.2.stream.language.markup">eng</property>
  <property name="meta.attr.2.stream.title.markup">Commentary</property>
  <property name="meta.media.3.codec.name">srt</property>
  <property name="meta.media.3.codec.long_name">SubRip subtitle</property>
  <property name="meta.media.3.codec.bit_rate">0</property>
  <property name="meta.attr.3.stream.language.markup">eng</property>
  <property name="meta.attr.3.stream.title.markup">Subtitle #1</property>
  <property name="meta.media.4.codec.name">srt</property>
  <property name="meta.media.4.codec.long_name">SubRip subtitle</property>
  <property name="meta.media.4.codec.bit_rate">0</property>
  <property name="meta.attr.4.stream.language.markup">fre</property>
  <property name="meta.attr.4.stream.title.markup">Subtitle #2</property>
  <property name="meta.media.5.codec.name">srt</property>
  <property name="meta.media.5.codec.long_name">SubRip subtitle</property>
  <property name="meta.media.5.codec.bit_rate">0</property>
  <property name="meta.attr.5.stream.language.markup">spa</property>
  <property name="meta.attr.5.stream.title.markup">Subtitle #3</property>
  <property name="meta.attr.encoder.markup">libebml v1.3.0 + libmatroska v1.4.1</property>
  <property name="meta.attr.creation_time.markup">2014-10-27 22:49:14</property>
  <property name="seekable">1</property>
  <property name="meta.media.sample_aspect_num">1</property>
  <property name="meta.media.sample_aspect_den">1</property>
  <property name="aspect_ratio">1</property>
  <property name="audio_index">1</property>
  <property name="video_index">0</property>
  <property name="mute_on_pause">1</property>
  <property name="mlt_service">avformat</property>
  <property name="kdenlive:file_hash">8be2978c13f0cd02e7ae33c9d4ec03c9</property>
  <property name="kdenlive:file_size">10472010332</property>
  <property name="kdenlive:clipname">The.Hobbit.Desolation.Of.Smaug.Extended.Edition.2013.BluRay.DTS-ES.x264-tRuEHD.mkv</property>
  <property name="global_feed">1</property>
  <property name="xml">was here</property>
 </producer>
 <producer id="2_playlist1" out="208056" title="Anonymous Submission" in="0">
  <property name="mlt_type">producer</property>
  <property name="length">02:24:29:01</property>
  <property name="eof">pause</property>
  <property name="resource">/media/cassi/SilverSqueaker/backup-new/movies/action/hobbit/The.Hobbit.The.Battle.of.the.Five.Armies.2014.720p.BluRay.DTS-ES.x264-tRuEHD.mkv</property>
  <property name="meta.media.nb_streams">11</property>
  <property name="meta.media.0.stream.type">video</property>
  <property name="meta.media.0.stream.frame_rate">23.976</property>
  <property name="meta.media.0.stream.sample_aspect_ratio">1</property>
  <property name="meta.media.0.codec.width">1280</property>
  <property name="meta.media.0.codec.height">534</property>
  <property name="meta.media.0.codec.rotate">0</property>
  <property name="meta.media.0.codec.frame_rate">23.976</property>
  <property name="meta.media.0.codec.pix_fmt">yuv420p</property>
  <property name="meta.media.0.codec.sample_aspect_ratio">1</property>
  <property name="meta.media.0.codec.colorspace">709</property>
  <property name="meta.media.0.codec.name">h264</property>
  <property name="meta.media.0.codec.long_name">H.264 / AVC / MPEG-4 AVC / MPEG-4 part 10</property>
  <property name="meta.media.0.codec.bit_rate">0</property>
  <property name="meta.attr.0.stream.language.markup">eng</property>
  <property name="meta.media.1.stream.type">audio</property>
  <property name="meta.media.1.codec.sample_fmt">fltp</property>
  <property name="meta.media.1.codec.sample_rate">48000</property>
  <property name="meta.media.1.codec.channels">7</property>
  <property name="meta.media.1.codec.name">dca</property>
  <property name="meta.media.1.codec.long_name">DCA (DTS Coherent Acoustics)</property>
  <property name="meta.media.1.codec.bit_rate">1536000</property>
  <property name="meta.attr.1.stream.language.markup">eng</property>
  <property name="meta.attr.1.stream.title.markup">Main Audio</property>
  <property name="meta.media.2.codec.name">srt</property>
  <property name="meta.media.2.codec.long_name">SubRip subtitle</property>
  <property name="meta.media.2.codec.bit_rate">0</property>
  <property name="meta.attr.2.stream.language.markup">eng</property>
  <property name="meta.attr.2.stream.title.markup">Subtitle #1</property>
  <property name="meta.media.3.codec.name">srt</property>
  <property name="meta.media.3.codec.long_name">SubRip subtitle</property>
  <property name="meta.media.3.codec.bit_rate">0</property>
  <property name="meta.attr.3.stream.language.markup">dan</property>
  <property name="meta.attr.3.stream.title.markup">Subtitle #2</property>
  <property name="meta.media.4.codec.name">srt</property>
  <property name="meta.media.4.codec.long_name">SubRip subtitle</property>
  <property name="meta.media.4.codec.bit_rate">0</property>
  <property name="meta.attr.4.stream.language.markup">dut</property>
  <property name="meta.attr.4.stream.title.markup">Subtitle #3</property>
  <property name="meta.media.5.codec.name">srt</property>
  <property name="meta.media.5.codec.long_name">SubRip subtitle</property>
  <property name="meta.media.5.codec.bit_rate">0</property>
  <property name="meta.attr.5.stream.language.markup">nor</property>
  <property name="meta.attr.5.stream.title.markup">Subtitle #4</property>
  <property name="meta.media.6.codec.name">srt</property>
  <property name="meta.media.6.codec.long_name">SubRip subtitle</property>
  <property name="meta.media.6.codec.bit_rate">0</property>
  <property name="meta.attr.6.stream.language.markup">pol</property>
  <property name="meta.attr.6.stream.title.markup">Subtitle #5</property>
  <property name="meta.media.7.codec.name">srt</property>
  <property name="meta.media.7.codec.long_name">SubRip subtitle</property>
  <property name="meta.media.7.codec.bit_rate">0</property>
  <property name="meta.attr.7.stream.language.markup">rum</property>
  <property name="meta.attr.7.stream.title.markup">Subtitle #6</property>
  <property name="meta.media.8.codec.name">srt</property>
  <property name="meta.media.8.codec.long_name">SubRip subtitle</property>
  <property name="meta.media.8.codec.bit_rate">0</property>
  <property name="meta.attr.8.stream.language.markup">spa</property>
  <property name="meta.attr.8.stream.title.markup">Subtitle #7</property>
  <property name="meta.media.9.codec.name">srt</property>
  <property name="meta.media.9.codec.long_name">SubRip subtitle</property>
  <property name="meta.media.9.codec.bit_rate">0</property>
  <property name="meta.attr.9.stream.language.markup">swe</property>
  <property name="meta.attr.9.stream.title.markup">Subtitle #8</property>
  <property name="meta.media.10.codec.name">srt</property>
  <property name="meta.media.10.codec.long_name">SubRip subtitle</property>
  <property name="meta.media.10.codec.bit_rate">0</property>
  <property name="meta.attr.10.stream.language.markup">tur</property>
  <property name="meta.attr.10.stream.title.markup">Subtitle #9</property>
  <property name="meta.attr.encoder.markup">libebml v1.3.0 + libmatroska v1.4.1</property>
  <property name="meta.attr.creation_time.markup">2015-03-12 04:24:50</property>
  <property name="seekable">1</property>
  <property name="meta.media.sample_aspect_num">1</property>
  <property name="meta.media.sample_aspect_den">1</property>
  <property name="aspect_ratio">1</property>
  <property name="audio_index">1</property>
  <property name="video_index">0</property>
  <property name="mute_on_pause">1</property>
  <property name="mlt_service">avformat</property>
  <property name="kdenlive:file_hash">871be6bb17b23fa99a05acde371b8110</property>
  <property name="kdenlive:file_size">8363749757</property>
  <property name="kdenlive:clipname">The.Hobbit.The.Battle.of.the.Five.Armies.2014.720p.BluRay.DTS-ES.x264-tRuEHD.mkv</property>
  <property name="global_feed">1</property>
  <property name="xml">was here</property>
  <property name="meta.media.frame_rate_num">24000</property>
  <property name="meta.media.frame_rate_den">1001</property>
  <property name="meta.media.colorspace">709</property>
  <property name="meta.media.color_trc">2</property>
  <property name="meta.media.width">1280</property>
  <property name="meta.media.height">534</property>
  <property name="meta.media.top_field_first">0</property>
  <property name="meta.media.progressive">1</property>
 </producer>
 <playlist id="playlist1">
  <property name="kdenlive:track_name">2</property>
  <property name="kdenlive:locked_track">0</property>
  <property name="kdenlive:composite">1</property>
  <blank length="3180"/>
  <entry out="55604" in="55417" producer="3_playlist0">
   <filter id="filter13" out="55422" in="55417">
    <property name="window">75</property>
    <property name="max_gain">20dB</property>
    <property name="mlt_type">filter</property>
    <property name="mlt_service">volume</property>
    <property name="kdenlive_id">fadein</property>
    <property name="tag">volume</property>
    <property name="kdenlive_ix">1</property>
    <property name="gain">0</property>
    <property name="end">1</property>
    <property name="kdenlive_info"/>
   </filter>
   <filter id="filter14" out="55604" in="55600">
    <property name="window">75</property>
    <property name="max_gain">20dB</property>
    <property name="mlt_type">filter</property>
    <property name="mlt_service">volume</property>
    <property name="kdenlive_id">fadeout</property>
    <property name="tag">volume</property>
    <property name="kdenlive_ix">2</property>
    <property name="gain">1</property>
    <property name="end">0</property>
    <property name="kdenlive_info"/>
   </filter>
  </entry>
  <blank length="67987"/>
  <entry out="132145" in="132119" producer="3_playlist1">
   <filter id="filter15" out="132132" in="132119">
    <property name="window">75</property>
    <property name="max_gain">20dB</property>
    <property name="mlt_type">filter</property>
    <property name="mlt_service">volume</property>
    <property name="kdenlive_id">volume</property>
    <property name="tag">volume</property>
    <property name="kdenlive_ix">1</property>
    <property name="kdenlive_info"/>
    <property name="disable"/>
    <property name="gain">0</property>
    <property name="end">0.2</property>
   </filter>
   <filter id="filter16" out="132145" in="132133">
    <property name="window">75</property>
    <property name="max_gain">20dB</property>
    <property name="mlt_type">filter</property>
    <property name="mlt_service">volume</property>
    <property name="kdenlive_id">volume</property>
    <property name="tag">volume</property>
    <property name="kdenlive_ix">1</property>
    <property name="kdenlive_info"/>
    <property name="disable"/>
    <property name="gain">0.223077</property>
    <property name="end">0.5</property>
   </filter>
   <filter id="ladspa.1890">
    <property name="mlt_type">filter</property>
    <property name="mlt_service">ladspa.1890</property>
    <property name="kdenlive_id">ladspa.1890</property>
    <property name="tag">ladspa.1890</property>
    <property name="kdenlive_ix">2</property>
    <property name="kdenlive_info"/>
    <property name="disable"/>
    <property name="0">4345</property>
    <property name="1">1</property>
    <property name="wetness">1</property>
   </filter>
  </entry>
  <entry out="132145" in="132119" producer="3_playlist1">
   <filter id="filter17" in="132119">
    <property name="window">75</property>
    <property name="max_gain">20dB</property>
    <property name="mlt_type">filter</property>
    <property name="mlt_service">volume</property>
    <property name="kdenlive_id">volume</property>
    <property name="tag">volume</property>
    <property name="kdenlive_ix">1</property>
    <property name="kdenlive_info"/>
    <property name="disable"/>
    <property name="gain">0.5</property>
   </filter>
   <filter id="filter18">
    <property name="mlt_type">filter</property>
    <property name="mlt_service">ladspa.1890</property>
    <property name="kdenlive_id">ladspa.1890</property>
    <property name="tag">ladspa.1890</property>
    <property name="kdenlive_ix">2</property>
    <property name="kdenlive_info"/>
    <property name="disable"/>
    <property name="0">4345</property>
    <property name="1">1</property>
    <property name="wetness">1</property>
   </filter>
  </entry>
  <blank length="14"/>
  <entry out="132145" in="132119" producer="3_playlist1">
   <filter id="filter19" in="132119">
    <property name="window">75</property>
    <property name="max_gain">20dB</property>
    <property name="mlt_type">filter</property>
    <property name="mlt_service">volume</property>
    <property name="kdenlive_id">volume</property>
    <property name="tag">volume</property>
    <property name="kdenlive_ix">1</property>
    <property name="kdenlive_info"/>
    <property name="disable"/>
    <property name="gain">0.5</property>
   </filter>
   <filter id="filter20">
    <property name="mlt_type">filter</property>
    <property name="mlt_service">ladspa.1890</property>
    <property name="kdenlive_id">ladspa.1890</property>
    <property name="tag">ladspa.1890</property>
    <property name="kdenlive_ix">2</property>
    <property name="kdenlive_info"/>
    <property name="disable"/>
    <property name="0">4345</property>
    <property name="1">1</property>
    <property name="wetness">1</property>
   </filter>
  </entry>
  <entry out="132145" in="132119" producer="3_playlist1">
   <filter id="filter21" in="132119">
    <property name="window">75</property>
    <property name="max_gain">20dB</property>
    <property name="mlt_type">filter</property>
    <property name="mlt_service">volume</property>
    <property name="kdenlive_id">volume</property>
    <property name="tag">volume</property>
    <property name="kdenlive_ix">1</property>
    <property name="kdenlive_info"/>
    <property name="disable"/>
    <property name="gain">0.5</property>
   </filter>
   <filter id="filter22">
    <property name="mlt_type">filter</property>
    <property name="mlt_service">ladspa.1890</property>
    <property name="kdenlive_id">ladspa.1890</property>
    <property name="tag">ladspa.1890</property>
    <property name="kdenlive_ix">2</property>
    <property name="kdenlive_info"/>
    <property name="disable"/>
    <property name="0">4345</property>
    <property name="1">1</property>
    <property name="wetness">1</property>
   </filter>
  </entry>
  <entry out="132145" in="132119" producer="3_playlist1">
   <filter id="filter23" in="132119">
    <property name="window">75</property>
    <property name="max_gain">20dB</property>
    <property name="mlt_type">filter</property>
    <property name="mlt_service">volume</property>
    <property name="kdenlive_id">volume</property>
    <property name="tag">volume</property>
    <property name="kdenlive_ix">1</property>
    <property name="kdenlive_info"/>
    <property name="disable"/>
    <property name="gain">0.5</property>
   </filter>
   <filter id="filter24">
    <property name="mlt_type">filter</property>
    <property name="mlt_service">ladspa.1890</property>
    <property name="kdenlive_id">ladspa.1890</property>
    <property name="tag">ladspa.1890</property>
    <property name="kdenlive_ix">2</property>
    <property name="kdenlive_info"/>
    <property name="disable"/>
    <property name="0">4345</property>
    <property name="1">1</property>
    <property name="wetness">1</property>
   </filter>
  </entry>
  <blank length="12"/>
  <entry out="132145" in="132119" producer="3_playlist1">
   <filter id="filter25" in="132119">
    <property name="window">75</property>
    <property name="max_gain">20dB</property>
    <property name="mlt_type">filter</property>
    <property name="mlt_service">volume</property>
    <property name="kdenlive_id">volume</property>
    <property name="tag">volume</property>
    <property name="kdenlive_ix">1</property>
    <property name="kdenlive_info"/>
    <property name="disable"/>
    <property name="gain">0.5</property>
   </filter>
   <filter id="filter26">
    <property name="mlt_type">filter</property>
    <property name="mlt_service">ladspa.1890</property>
    <property name="kdenlive_id">ladspa.1890</property>
    <property name="tag">ladspa.1890</property>
    <property name="kdenlive_ix">2</property>
    <property name="kdenlive_info"/>
    <property name="disable"/>
    <property name="0">4345</property>
    <property name="1">1</property>
    <property name="wetness">1</property>
   </filter>
  </entry>
  <entry out="132145" in="132119" producer="3_playlist1">
   <filter id="filter27" in="132119">
    <property name="window">75</property>
    <property name="max_gain">20dB</property>
    <property name="mlt_type">filter</property>
    <property name="mlt_service">volume</property>
    <property name="kdenlive_id">volume</property>
    <property name="tag">volume</property>
    <property name="kdenlive_ix">1</property>
    <property name="kdenlive_info"/>
    <property name="disable"/>
    <property name="gain">0.5</property>
   </filter>
   <filter id="filter28">
    <property name="mlt_type">filter</property>
    <property name="mlt_service">ladspa.1890</property>
    <property name="kdenlive_id">ladspa.1890</property>
    <property name="tag">ladspa.1890</property>
    <property name="kdenlive_ix">2</property>
    <property name="kdenlive_info"/>
    <property name="disable"/>
    <property name="0">4345</property>
    <property name="1">1</property>
    <property name="wetness">1</property>
   </filter>
  </entry>
  <entry out="132145" in="132119" producer="3_playlist1">
   <filter id="filter29" out="132145" in="132119">
    <property name="window">75</property>
    <property name="max_gain">20dB</property>
    <property name="mlt_type">filter</property>
    <property name="mlt_service">volume</property>
    <property name="kdenlive_id">volume</property>
    <property name="tag">volume</property>
    <property name="kdenlive_ix">1</property>
    <property name="kdenlive_info"/>
    <property name="disable"/>
    <property name="gain">0.5</property>
    <property name="end">0.25</property>
   </filter>
   <filter id="filter30">
    <property name="mlt_type">filter</property>
    <property name="mlt_service">ladspa.1890</property>
    <property name="kdenlive_id">ladspa.1890</property>
    <property name="tag">ladspa.1890</property>
    <property name="kdenlive_ix">2</property>
    <property name="kdenlive_info"/>
    <property name="disable"/>
    <property name="0">4345</property>
    <property name="1">1</property>
    <property name="wetness">1</property>
   </filter>
  </entry>
  <entry out="132145" in="132119" producer="3_playlist1">
   <filter id="filter31" out="132132" in="132119">
    <property name="window">75</property>
    <property name="max_gain">20dB</property>
    <property name="mlt_type">filter</property>
    <property name="mlt_service">volume</property>
    <property name="kdenlive_id">volume</property>
    <property name="tag">volume</property>
    <property name="kdenlive_ix">1</property>
    <property name="kdenlive_info"/>
    <property name="disable"/>
    <property name="gain">0.25</property>
    <property name="end">0.25</property>
   </filter>
   <filter id="filter32" out="132145" in="132133">
    <property name="window">75</property>
    <property name="max_gain">20dB</property>
    <property name="mlt_type">filter</property>
    <property name="mlt_service">volume</property>
    <property name="kdenlive_id">volume</property>
    <property name="tag">volume</property>
    <property name="kdenlive_ix">1</property>
    <property name="kdenlive_info"/>
    <property name="disable"/>
    <property name="gain">0.230769</property>
    <property name="end">0</property>
   </filter>
   <filter id="filter33">
    <property name="mlt_type">filter</property>
    <property name="mlt_service">ladspa.1890</property>
    <property name="kdenlive_id">ladspa.1890</property>
    <property name="tag">ladspa.1890</property>
    <property name="kdenlive_ix">2</property>
    <property name="kdenlive_info"/>
    <property name="disable"/>
    <property name="0">4345</property>
    <property name="1">1</property>
    <property name="wetness">1</property>
   </filter>
  </entry>
  <blank length="139255"/>
  <entry out="253264" in="253177" producer="1_playlist1">
   <filter id="fadeout" out="253264" in="253237">
    <property name="window">75</property>
    <property name="max_gain">20dB</property>
    <property name="mlt_type">filter</property>
    <property name="mlt_service">volume</property>
    <property name="kdenlive_id">fadeout</property>
    <property name="tag">volume</property>
    <property name="kdenlive_ix">1</property>
    <property name="kdenlive_info"/>
    <property name="disable"/>
    <property name="gain">1</property>
    <property name="end">0</property>
   </filter>
   <filter id="filter10" out="253239" in="253177">
    <property name="window">75</property>
    <property name="max_gain">20dB</property>
    <property name="mlt_type">filter</property>
    <property name="mlt_service">volume</property>
    <property name="kdenlive_id">fadein</property>
    <property name="tag">volume</property>
    <property name="kdenlive_ix">2</property>
    <property name="kdenlive_info"/>
    <property name="disable"/>
    <property name="gain">0</property>
    <property name="end">1</property>
   </filter>
   <filter id="filter11" in="253177">
    <property name="window">75</property>
    <property name="max_gain">20dB</property>
    <property name="mlt_type">filter</property>
    <property name="mlt_service">volume</property>
    <property name="kdenlive_id">volume</property>
    <property name="tag">volume</property>
    <property name="kdenlive_ix">3</property>
    <property name="kdenlive_info"/>
    <property name="disable"/>
    <property name="gain">0.8</property>
   </filter>
  </entry>
  <blank length="68721"/>
  <entry out="134730" in="134717" producer="2_playlist1">
   <filter id="filter12" out="134719" in="134717">
    <property name="window">75</property>
    <property name="max_gain">20dB</property>
    <property name="mlt_type">filter</property>
    <property name="mlt_service">volume</property>
    <property name="kdenlive_id">volume</property>
    <property name="tag">volume</property>
    <property name="kdenlive_ix">1</property>
    <property name="kdenlive_info"/>
    <property name="disable"/>
    <property name="gain">0</property>
    <property name="end">0.5</property>
   </filter>
   <filter id="filter34" out="134728" in="134720">
    <property name="window">75</property>
    <property name="max_gain">20dB</property>
    <property name="mlt_type">filter</property>
    <property name="mlt_service">volume</property>
    <property name="kdenlive_id">volume</property>
    <property name="tag">volume</property>
    <property name="kdenlive_ix">1</property>
    <property name="kdenlive_info"/>
    <property name="disable"/>
    <property name="gain">0.5</property>
    <property name="end">0.5</property>
   </filter>
   <filter id="filter35" out="134730" in="134729">
    <property name="window">75</property>
    <property name="max_gain">20dB</property>
    <property name="mlt_type">filter</property>
    <property name="mlt_service">volume</property>
    <property name="kdenlive_id">volume</property>
    <property name="tag">volume</property>
    <property name="kdenlive_ix">1</property>
    <property name="kdenlive_info"/>
    <property name="disable"/>
    <property name="gain">0.25</property>
    <property name="end">0</property>
   </filter>
  </entry>
  <blank length="68"/>
  <entry out="134677" in="134662" producer="2_playlist1">
   <filter id="filter36" out="134663" in="134662">
    <property name="window">75</property>
    <property name="max_gain">20dB</property>
    <property name="mlt_type">filter</property>
    <property name="mlt_service">volume</property>
    <property name="kdenlive_id">volume</property>
    <property name="tag">volume</property>
    <property name="kdenlive_ix">1</property>
    <property name="kdenlive_info"/>
    <property name="disable"/>
    <property name="gain">0</property>
    <property name="end">0.3</property>
   </filter>
   <filter id="filter37" out="134675" in="134664">
    <property name="window">75</property>
    <property name="max_gain">20dB</property>
    <property name="mlt_type">filter</property>
    <property name="mlt_service">volume</property>
    <property name="kdenlive_id">volume</property>
    <property name="tag">volume</property>
    <property name="kdenlive_ix">1</property>
    <property name="kdenlive_info"/>
    <property name="disable"/>
    <property name="gain">0.3</property>
    <property name="end">0.3</property>
   </filter>
   <filter id="filter38" out="134677" in="134676">
    <property name="window">75</property>
    <property name="max_gain">20dB</property>
    <property name="mlt_type">filter</property>
    <property name="mlt_service">volume</property>
    <property name="kdenlive_id">volume</property>
    <property name="tag">volume</property>
    <property name="kdenlive_ix">1</property>
    <property name="kdenlive_info"/>
    <property name="disable"/>
    <property name="gain">0.15</property>
    <property name="end">0</property>
   </filter>
  </entry>
  <blank length="1422"/>
  <entry out="147160" in="147137" producer="2_playlist1">
   <filter id="filter39" out="147140" in="147137">
    <property name="window">75</property>
    <property name="max_gain">20dB</property>
    <property name="mlt_type">filter</property>
    <property name="mlt_service">volume</property>
    <property name="kdenlive_id">fadein</property>
    <property name="tag">volume</property>
    <property name="kdenlive_ix">1</property>
    <property name="kdenlive_info"/>
    <property name="disable"/>
    <property name="gain">0</property>
    <property name="end">1</property>
   </filter>
   <filter id="filter40" in="147137">
    <property name="window">75</property>
    <property name="max_gain">20dB</property>
    <property name="mlt_type">filter</property>
    <property name="mlt_service">volume</property>
    <property name="kdenlive_id">volume</property>
    <property name="tag">volume</property>
    <property name="kdenlive_ix">2</property>
    <property name="kdenlive_info"/>
    <property name="disable"/>
    <property name="gain">0.5</property>
   </filter>
  </entry>
  <blank length="346"/>
  <entry out="140693" in="140625" producer="2_playlist1">
   <filter id="filter41" out="140663" in="140625">
    <property name="window">75</property>
    <property name="max_gain">20dB</property>
    <property name="mlt_type">filter</property>
    <property name="mlt_service">volume</property>
    <property name="kdenlive_id">volume</property>
    <property name="tag">volume</property>
    <property name="kdenlive_ix">1</property>
    <property name="kdenlive_info"/>
    <property name="disable"/>
    <property name="gain">1</property>
    <property name="end">1</property>
   </filter>
   <filter id="filter42" out="140693" in="140664">
    <property name="window">75</property>
    <property name="max_gain">20dB</property>
    <property name="mlt_type">filter</property>
    <property name="mlt_service">volume</property>
    <property name="kdenlive_id">volume</property>
    <property name="tag">volume</property>
    <property name="kdenlive_ix">1</property>
    <property name="kdenlive_info"/>
    <property name="disable"/>
    <property name="gain">0.966667</property>
    <property name="end">0</property>
   </filter>
  </entry>
 </playlist>
 <producer id="3_playlist2_audio" out="244275" in="0">
  <property name="mlt_type">producer</property>
  <property name="length">244276</property>
  <property name="eof">pause</property>
  <property name="resource">/media/cassi/SilverSqueaker/backup-new/movies/action/hobbit/The.Hobbit.An.Unexpected.Journey.2012.720p.BluRay.DTS-ES.x264-tRuEHD.mkv</property>
  <property name="meta.media.nb_streams">9</property>
  <property name="meta.media.0.stream.type">video</property>
  <property name="meta.media.0.stream.frame_rate">23.976</property>
  <property name="meta.media.0.stream.sample_aspect_ratio">1</property>
  <property name="meta.media.0.codec.width">1280</property>
  <property name="meta.media.0.codec.height">534</property>
  <property name="meta.media.0.codec.rotate">0</property>
  <property name="meta.media.0.codec.frame_rate">23.976</property>
  <property name="meta.media.0.codec.pix_fmt">yuv420p</property>
  <property name="meta.media.0.codec.sample_aspect_ratio">1</property>
  <property name="meta.media.0.codec.colorspace">709</property>
  <property name="meta.media.0.codec.name">h264</property>
  <property name="meta.media.0.codec.long_name">H.264 / AVC / MPEG-4 AVC / MPEG-4 part 10</property>
  <property name="meta.media.0.codec.bit_rate">0</property>
  <property name="meta.attr.0.stream.language.markup">eng</property>
  <property name="meta.media.1.stream.type">audio</property>
  <property name="meta.media.1.codec.sample_fmt">fltp</property>
  <property name="meta.media.1.codec.sample_rate">48000</property>
  <property name="meta.media.1.codec.channels">7</property>
  <property name="meta.media.1.codec.name">dca</property>
  <property name="meta.media.1.codec.long_name">DCA (DTS Coherent Acoustics)</property>
  <property name="meta.media.1.codec.bit_rate">1536000</property>
  <property name="meta.attr.1.stream.language.markup">eng</property>
  <property name="meta.attr.1.stream.title.markup">Main Movie</property>
  <property name="meta.media.2.codec.name">srt</property>
  <property name="meta.media.2.codec.long_name">SubRip subtitle</property>
  <property name="meta.media.2.codec.bit_rate">0</property>
  <property name="meta.attr.2.stream.language.markup">eng</property>
  <property name="meta.attr.2.stream.title.markup">Subtitle #1</property>
  <property name="meta.media.3.codec.name">srt</property>
  <property name="meta.media.3.codec.long_name">SubRip subtitle</property>
  <property name="meta.media.3.codec.bit_rate">0</property>
  <property name="meta.attr.3.stream.language.markup">spa</property>
  <property name="meta.attr.3.stream.title.markup">Subtitle #2</property>
  <property name="meta.media.4.codec.name">srt</property>
  <property name="meta.media.4.codec.long_name">SubRip subtitle</property>
  <property name="meta.media.4.codec.bit_rate">0</property>
  <property name="meta.attr.4.stream.language.markup">swe</property>
  <property name="meta.attr.4.stream.title.markup">Subtitle #3</property>
  <property name="meta.media.5.codec.name">srt</property>
  <property name="meta.media.5.codec.long_name">SubRip subtitle</property>
  <property name="meta.media.5.codec.bit_rate">0</property>
  <property name="meta.attr.5.stream.language.markup">pol</property>
  <property name="meta.attr.5.stream.title.markup">Subtitle #4</property>
  <property name="meta.media.6.codec.name">srt</property>
  <property name="meta.media.6.codec.long_name">SubRip subtitle</property>
  <property name="meta.media.6.codec.bit_rate">0</property>
  <property name="meta.attr.6.stream.language.markup">dut</property>
  <property name="meta.attr.6.stream.title.markup">Subtitle #5</property>
  <property name="meta.media.7.codec.name">srt</property>
  <property name="meta.media.7.codec.long_name">SubRip subtitle</property>
  <property name="meta.media.7.codec.bit_rate">0</property>
  <property name="meta.attr.7.stream.language.markup">hun</property>
  <property name="meta.attr.7.stream.title.markup">Subtitle #5</property>
  <property name="meta.media.8.codec.name">srt</property>
  <property name="meta.media.8.codec.long_name">SubRip subtitle</property>
  <property name="meta.media.8.codec.bit_rate">0</property>
  <property name="meta.attr.8.stream.language.markup">fin</property>
  <property name="meta.attr.8.stream.title.markup">Subtitle #7</property>
  <property name="meta.attr.encoder.markup">libebml v1.3.0 + libmatroska v1.4.0</property>
  <property name="meta.attr.creation_time.markup">2013-03-06 19:22:31</property>
  <property name="seekable">1</property>
  <property name="meta.media.sample_aspect_num">1</property>
  <property name="meta.media.sample_aspect_den">1</property>
  <property name="aspect_ratio">1</property>
  <property name="audio_index">1</property>
  <property name="video_index">-1</property>
  <property name="mute_on_pause">1</property>
  <property name="mlt_service">avformat</property>
 </producer>
 <producer id="3_playlist2" out="244275" title="Anonymous Submission" in="0">
  <property name="mlt_type">mlt_producer</property>
  <property name="length">02:49:38:04</property>
  <property name="eof">pause</property>
  <property name="resource">/media/cassi/SilverSqueaker/backup-new/movies/action/hobbit/The.Hobbit.An.Unexpected.Journey.2012.720p.BluRay.DTS-ES.x264-tRuEHD.mkv</property>
  <property name="meta.media.nb_streams">9</property>
  <property name="meta.media.0.stream.type">video</property>
  <property name="meta.media.0.stream.frame_rate">23.976</property>
  <property name="meta.media.0.stream.sample_aspect_ratio">1</property>
  <property name="meta.media.0.codec.width">1280</property>
  <property name="meta.media.0.codec.height">534</property>
  <property name="meta.media.0.codec.rotate">0</property>
  <property name="meta.media.0.codec.frame_rate">23.976</property>
  <property name="meta.media.0.codec.pix_fmt">yuv420p</property>
  <property name="meta.media.0.codec.sample_aspect_ratio">1</property>
  <property name="meta.media.0.codec.colorspace">709</property>
  <property name="meta.media.0.codec.name">h264</property>
  <property name="meta.media.0.codec.long_name">H.264 / AVC / MPEG-4 AVC / MPEG-4 part 10</property>
  <property name="meta.media.0.codec.bit_rate">0</property>
  <property name="meta.attr.0.stream.language.markup">eng</property>
  <property name="meta.media.1.stream.type">audio</property>
  <property name="meta.media.1.codec.sample_fmt">fltp</property>
  <property name="meta.media.1.codec.sample_rate">48000</property>
  <property name="meta.media.1.codec.channels">7</property>
  <property name="meta.media.1.codec.name">dca</property>
  <property name="meta.media.1.codec.long_name">DCA (DTS Coherent Acoustics)</property>
  <property name="meta.media.1.codec.bit_rate">1536000</property>
  <property name="meta.attr.1.stream.language.markup">eng</property>
  <property name="meta.attr.1.stream.title.markup">Main Movie</property>
  <property name="meta.media.2.codec.name">srt</property>
  <property name="meta.media.2.codec.long_name">SubRip subtitle</property>
  <property name="meta.media.2.codec.bit_rate">0</property>
  <property name="meta.attr.2.stream.language.markup">eng</property>
  <property name="meta.attr.2.stream.title.markup">Subtitle #1</property>
  <property name="meta.media.3.codec.name">srt</property>
  <property name="meta.media.3.codec.long_name">SubRip subtitle</property>
  <property name="meta.media.3.codec.bit_rate">0</property>
  <property name="meta.attr.3.stream.language.markup">spa</property>
  <property name="meta.attr.3.stream.title.markup">Subtitle #2</property>
  <property name="meta.media.4.codec.name">srt</property>
  <property name="meta.media.4.codec.long_name">SubRip subtitle</property>
  <property name="meta.media.4.codec.bit_rate">0</property>
  <property name="meta.attr.4.stream.language.markup">swe</property>
  <property name="meta.attr.4.stream.title.markup">Subtitle #3</property>
  <property name="meta.media.5.codec.name">srt</property>
  <property name="meta.media.5.codec.long_name">SubRip subtitle</property>
  <property name="meta.media.5.codec.bit_rate">0</property>
  <property name="meta.attr.5.stream.language.markup">pol</property>
  <property name="meta.attr.5.stream.title.markup">Subtitle #4</property>
  <property name="meta.media.6.codec.name">srt</property>
  <property name="meta.media.6.codec.long_name">SubRip subtitle</property>
  <property name="meta.media.6.codec.bit_rate">0</property>
  <property name="meta.attr.6.stream.language.markup">dut</property>
  <property name="meta.attr.6.stream.title.markup">Subtitle #5</property>
  <property name="meta.media.7.codec.name">srt</property>
  <property name="meta.media.7.codec.long_name">SubRip subtitle</property>
  <property name="meta.media.7.codec.bit_rate">0</property>
  <property name="meta.attr.7.stream.language.markup">hun</property>
  <property name="meta.attr.7.stream.title.markup">Subtitle #5</property>
  <property name="meta.media.8.codec.name">srt</property>
  <property name="meta.media.8.codec.long_name">SubRip subtitle</property>
  <property name="meta.media.8.codec.bit_rate">0</property>
  <property name="meta.attr.8.stream.language.markup">fin</property>
  <property name="meta.attr.8.stream.title.markup">Subtitle #7</property>
  <property name="meta.attr.encoder.markup">libebml v1.3.0 + libmatroska v1.4.0</property>
  <property name="meta.attr.creation_time.markup">2013-03-06 19:22:31</property>
  <property name="seekable">1</property>
  <property name="meta.media.sample_aspect_num">1</property>
  <property name="meta.media.sample_aspect_den">1</property>
  <property name="aspect_ratio">1</property>
  <property name="audio_index">1</property>
  <property name="video_index">0</property>
  <property name="mute_on_pause">1</property>
  <property name="mlt_service">avformat</property>
  <property name="kdenlive:file_hash">cb27a31175b869914daeb30fd94f9ce1</property>
  <property name="kdenlive:file_size">9954075332</property>
  <property name="kdenlive:clipname">The.Hobbit.An.Unexpected.Journey.2012.720p.BluRay.DTS-ES.x264-tRuEHD.mkv</property>
  <property name="global_feed">1</property>
  <property name="xml">was here</property>
  <property name="meta.media.frame_rate_num">24000</property>
  <property name="meta.media.frame_rate_den">1001</property>
  <property name="meta.media.colorspace">709</property>
  <property name="meta.media.color_trc">2</property>
  <property name="meta.media.width">1280</property>
  <property name="meta.media.height">534</property>
  <property name="meta.media.top_field_first">0</property>
  <property name="meta.media.progressive">1</property>
 </producer>
 <producer id="1_playlist2" out="268700" title="Anonymous Submission" in="0">
  <property name="mlt_type">producer</property>
  <property name="length">03:06:35:21</property>
  <property name="eof">pause</property>
  <property name="resource">/media/cassi/SilverSqueaker/backup-new/movies/action/hobbit/The.Hobbit.Desolation.Of.Smaug.Extended.Edition.2013.BluRay.DTS-ES.x264-tRuEHD.mkv</property>
  <property name="meta.media.nb_streams">6</property>
  <property name="meta.media.0.stream.type">video</property>
  <property name="meta.media.0.stream.frame_rate">23.976</property>
  <property name="meta.media.0.stream.sample_aspect_ratio">1</property>
  <property name="meta.media.0.codec.width">1280</property>
  <property name="meta.media.0.codec.height">534</property>
  <property name="meta.media.0.codec.rotate">0</property>
  <property name="meta.media.0.codec.frame_rate">23.976</property>
  <property name="meta.media.0.codec.pix_fmt">yuv420p</property>
  <property name="meta.media.0.codec.sample_aspect_ratio">1</property>
  <property name="meta.media.0.codec.colorspace">709</property>
  <property name="meta.media.0.codec.name">h264</property>
  <property name="meta.media.0.codec.long_name">H.264 / AVC / MPEG-4 AVC / MPEG-4 part 10</property>
  <property name="meta.media.0.codec.bit_rate">0</property>
  <property name="meta.attr.0.stream.language.markup">eng</property>
  <property name="meta.media.1.stream.type">audio</property>
  <property name="meta.media.1.codec.sample_fmt">fltp</property>
  <property name="meta.media.1.codec.sample_rate">48000</property>
  <property name="meta.media.1.codec.channels">7</property>
  <property name="meta.media.1.codec.name">dca</property>
  <property name="meta.media.1.codec.long_name">DCA (DTS Coherent Acoustics)</property>
  <property name="meta.media.1.codec.bit_rate">1536000</property>
  <property name="meta.attr.1.stream.language.markup">eng</property>
  <property name="meta.attr.1.stream.title.markup">Main Audio</property>
  <property name="meta.media.2.stream.type">audio</property>
  <property name="meta.media.2.codec.sample_fmt">fltp</property>
  <property name="meta.media.2.codec.sample_rate">48000</property>
  <property name="meta.media.2.codec.channels">2</property>
  <property name="meta.media.2.codec.name">ac3</property>
  <property name="meta.media.2.codec.long_name">ATSC A/52A (AC-3)</property>
  <property name="meta.media.2.codec.bit_rate">128000</property>
  <property name="meta.attr.2.stream.language.markup">eng</property>
  <property name="meta.attr.2.stream.title.markup">Commentary</property>
  <property name="meta.media.3.codec.name">srt</property>
  <property name="meta.media.3.codec.long_name">SubRip subtitle</property>
  <property name="meta.media.3.codec.bit_rate">0</property>
  <property name="meta.attr.3.stream.language.markup">eng</property>
  <property name="meta.attr.3.stream.title.markup">Subtitle #1</property>
  <property name="meta.media.4.codec.name">srt</property>
  <property name="meta.media.4.codec.long_name">SubRip subtitle</property>
  <property name="meta.media.4.codec.bit_rate">0</property>
  <property name="meta.attr.4.stream.language.markup">fre</property>
  <property name="meta.attr.4.stream.title.markup">Subtitle #2</property>
  <property name="meta.media.5.codec.name">srt</property>
  <property name="meta.media.5.codec.long_name">SubRip subtitle</property>
  <property name="meta.media.5.codec.bit_rate">0</property>
  <property name="meta.attr.5.stream.language.markup">spa</property>
  <property name="meta.attr.5.stream.title.markup">Subtitle #3</property>
  <property name="meta.attr.encoder.markup">libebml v1.3.0 + libmatroska v1.4.1</property>
  <property name="meta.attr.creation_time.markup">2014-10-27 22:49:14</property>
  <property name="seekable">1</property>
  <property name="meta.media.sample_aspect_num">1</property>
  <property name="meta.media.sample_aspect_den">1</property>
  <property name="aspect_ratio">1</property>
  <property name="audio_index">1</property>
  <property name="video_index">0</property>
  <property name="mute_on_pause">1</property>
  <property name="mlt_service">avformat</property>
  <property name="kdenlive:file_hash">8be2978c13f0cd02e7ae33c9d4ec03c9</property>
  <property name="kdenlive:file_size">10472010332</property>
  <property name="kdenlive:clipname">The.Hobbit.Desolation.Of.Smaug.Extended.Edition.2013.BluRay.DTS-ES.x264-tRuEHD.mkv</property>
  <property name="global_feed">1</property>
  <property name="xml">was here</property>
  <property name="meta.media.frame_rate_num">24000</property>
  <property name="meta.media.frame_rate_den">1001</property>
  <property name="meta.media.colorspace">709</property>
  <property name="meta.media.color_trc">2</property>
  <property name="meta.media.width">1280</property>
  <property name="meta.media.height">534</property>
  <property name="meta.media.top_field_first">0</property>
  <property name="meta.media.progressive">1</property>
 </producer>
 <producer id="1_playlist2_audio" out="268700" title="Anonymous Submission" in="0">
  <property name="mlt_type">producer</property>
  <property name="length">03:06:35:21</property>
  <property name="eof">pause</property>
  <property name="resource">/media/cassi/SilverSqueaker/backup-new/movies/action/hobbit/The.Hobbit.Desolation.Of.Smaug.Extended.Edition.2013.BluRay.DTS-ES.x264-tRuEHD.mkv</property>
  <property name="meta.media.nb_streams">6</property>
  <property name="meta.media.0.stream.type">video</property>
  <property name="meta.media.0.stream.frame_rate">23.976</property>
  <property name="meta.media.0.stream.sample_aspect_ratio">1</property>
  <property name="meta.media.0.codec.width">1280</property>
  <property name="meta.media.0.codec.height">534</property>
  <property name="meta.media.0.codec.rotate">0</property>
  <property name="meta.media.0.codec.frame_rate">23.976</property>
  <property name="meta.media.0.codec.pix_fmt">yuv420p</property>
  <property name="meta.media.0.codec.sample_aspect_ratio">1</property>
  <property name="meta.media.0.codec.colorspace">709</property>
  <property name="meta.media.0.codec.name">h264</property>
  <property name="meta.media.0.codec.long_name">H.264 / AVC / MPEG-4 AVC / MPEG-4 part 10</property>
  <property name="meta.media.0.codec.bit_rate">0</property>
  <property name="meta.attr.0.stream.language.markup">eng</property>
  <property name="meta.media.1.stream.type">audio</property>
  <property name="meta.media.1.codec.sample_fmt">fltp</property>
  <property name="meta.media.1.codec.sample_rate">48000</property>
  <property name="meta.media.1.codec.channels">7</property>
  <property name="meta.media.1.codec.name">dca</property>
  <property name="meta.media.1.codec.long_name">DCA (DTS Coherent Acoustics)</property>
  <property name="meta.media.1.codec.bit_rate">1536000</property>
  <property name="meta.attr.1.stream.language.markup">eng</property>
  <property name="meta.attr.1.stream.title.markup">Main Audio</property>
  <property name="meta.media.2.stream.type">audio</property>
  <property name="meta.media.2.codec.sample_fmt">fltp</property>
  <property name="meta.media.2.codec.sample_rate">48000</property>
  <property name="meta.media.2.codec.channels">2</property>
  <property name="meta.media.2.codec.name">ac3</property>
  <property name="meta.media.2.codec.long_name">ATSC A/52A (AC-3)</property>
  <property name="meta.media.2.codec.bit_rate">128000</property>
  <property name="meta.attr.2.stream.language.markup">eng</property>
  <property name="meta.attr.2.stream.title.markup">Commentary</property>
  <property name="meta.media.3.codec.name">srt</property>
  <property name="meta.media.3.codec.long_name">SubRip subtitle</property>
  <property name="meta.media.3.codec.bit_rate">0</property>
  <property name="meta.attr.3.stream.language.markup">eng</property>
  <property name="meta.attr.3.stream.title.markup">Subtitle #1</property>
  <property name="meta.media.4.codec.name">srt</property>
  <property name="meta.media.4.codec.long_name">SubRip subtitle</property>
  <property name="meta.media.4.codec.bit_rate">0</property>
  <property name="meta.attr.4.stream.language.markup">fre</property>
  <property name="meta.attr.4.stream.title.markup">Subtitle #2</property>
  <property name="meta.media.5.codec.name">srt</property>
  <property name="meta.media.5.codec.long_name">SubRip subtitle</property>
  <property name="meta.media.5.codec.bit_rate">0</property>
  <property name="meta.attr.5.stream.language.markup">spa</property>
  <property name="meta.attr.5.stream.title.markup">Subtitle #3</property>
  <property name="meta.attr.encoder.markup">libebml v1.3.0 + libmatroska v1.4.1</property>
  <property name="meta.attr.creation_time.markup">2014-10-27 22:49:14</property>
  <property name="seekable">1</property>
  <property name="meta.media.sample_aspect_num">1</property>
  <property name="meta.media.sample_aspect_den">1</property>
  <property name="aspect_ratio">1</property>
  <property name="audio_index">1</property>
  <property name="video_index">-1</property>
  <property name="mute_on_pause">1</property>
  <property name="mlt_service">avformat</property>
  <property name="kdenlive:file_hash">8be2978c13f0cd02e7ae33c9d4ec03c9</property>
  <property name="kdenlive:file_size">10472010332</property>
  <property name="kdenlive:clipname">The.Hobbit.Desolation.Of.Smaug.Extended.Edition.2013.BluRay.DTS-ES.x264-tRuEHD.mkv</property>
  <property name="global_feed">1</property>
  <property name="xml">was here</property>
 </producer>
 <producer id="2_playlist2" out="208056" title="Anonymous Submission" in="0">
  <property name="mlt_type">producer</property>
  <property name="length">02:24:29:01</property>
  <property name="eof">pause</property>
  <property name="resource">/media/cassi/SilverSqueaker/backup-new/movies/action/hobbit/The.Hobbit.The.Battle.of.the.Five.Armies.2014.720p.BluRay.DTS-ES.x264-tRuEHD.mkv</property>
  <property name="meta.media.nb_streams">11</property>
  <property name="meta.media.0.stream.type">video</property>
  <property name="meta.media.0.stream.frame_rate">23.976</property>
  <property name="meta.media.0.stream.sample_aspect_ratio">1</property>
  <property name="meta.media.0.codec.width">1280</property>
  <property name="meta.media.0.codec.height">534</property>
  <property name="meta.media.0.codec.rotate">0</property>
  <property name="meta.media.0.codec.frame_rate">23.976</property>
  <property name="meta.media.0.codec.pix_fmt">yuv420p</property>
  <property name="meta.media.0.codec.sample_aspect_ratio">1</property>
  <property name="meta.media.0.codec.colorspace">709</property>
  <property name="meta.media.0.codec.name">h264</property>
  <property name="meta.media.0.codec.long_name">H.264 / AVC / MPEG-4 AVC / MPEG-4 part 10</property>
  <property name="meta.media.0.codec.bit_rate">0</property>
  <property name="meta.attr.0.stream.language.markup">eng</property>
  <property name="meta.media.1.stream.type">audio</property>
  <property name="meta.media.1.codec.sample_fmt">fltp</property>
  <property name="meta.media.1.codec.sample_rate">48000</property>
  <property name="meta.media.1.codec.channels">7</property>
  <property name="meta.media.1.codec.name">dca</property>
  <property name="meta.media.1.codec.long_name">DCA (DTS Coherent Acoustics)</property>
  <property name="meta.media.1.codec.bit_rate">1536000</property>
  <property name="meta.attr.1.stream.language.markup">eng</property>
  <property name="meta.attr.1.stream.title.markup">Main Audio</property>
  <property name="meta.media.2.codec.name">srt</property>
  <property name="meta.media.2.codec.long_name">SubRip subtitle</property>
  <property name="meta.media.2.codec.bit_rate">0</property>
  <property name="meta.attr.2.stream.language.markup">eng</property>
  <property name="meta.attr.2.stream.title.markup">Subtitle #1</property>
  <property name="meta.media.3.codec.name">srt</property>
  <property name="meta.media.3.codec.long_name">SubRip subtitle</property>
  <property name="meta.media.3.codec.bit_rate">0</property>
  <property name="meta.attr.3.stream.language.markup">dan</property>
  <property name="meta.attr.3.stream.title.markup">Subtitle #2</property>
  <property name="meta.media.4.codec.name">srt</property>
  <property name="meta.media.4.codec.long_name">SubRip subtitle</property>
  <property name="meta.media.4.codec.bit_rate">0</property>
  <property name="meta.attr.4.stream.language.markup">dut</property>
  <property name="meta.attr.4.stream.title.markup">Subtitle #3</property>
  <property name="meta.media.5.codec.name">srt</property>
  <property name="meta.media.5.codec.long_name">SubRip subtitle</property>
  <property name="meta.media.5.codec.bit_rate">0</property>
  <property name="meta.attr.5.stream.language.markup">nor</property>
  <property name="meta.attr.5.stream.title.markup">Subtitle #4</property>
  <property name="meta.media.6.codec.name">srt</property>
  <property name="meta.media.6.codec.long_name">SubRip subtitle</property>
  <property name="meta.media.6.codec.bit_rate">0</property>
  <property name="meta.attr.6.stream.language.markup">pol</property>
  <property name="meta.attr.6.stream.title.markup">Subtitle #5</property>
  <property name="meta.media.7.codec.name">srt</property>
  <property name="meta.media.7.codec.long_name">SubRip subtitle</property>
  <property name="meta.media.7.codec.bit_rate">0</property>
  <property name="meta.attr.7.stream.language.markup">rum</property>
  <property name="meta.attr.7.stream.title.markup">Subtitle #6</property>
  <property name="meta.media.8.codec.name">srt</property>
  <property name="meta.media.8.codec.long_name">SubRip subtitle</property>
  <property name="meta.media.8.codec.bit_rate">0</property>
  <property name="meta.attr.8.stream.language.markup">spa</property>
  <property name="meta.attr.8.stream.title.markup">Subtitle #7</property>
  <property name="meta.media.9.codec.name">srt</property>
  <property name="meta.media.9.codec.long_name">SubRip subtitle</property>
  <property name="meta.media.9.codec.bit_rate">0</property>
  <property name="meta.attr.9.stream.language.markup">swe</property>
  <property name="meta.attr.9.stream.title.markup">Subtitle #8</property>
  <property name="meta.media.10.codec.name">srt</property>
  <property name="meta.media.10.codec.long_name">SubRip subtitle</property>
  <property name="meta.media.10.codec.bit_rate">0</property>
  <property name="meta.attr.10.stream.language.markup">tur</property>
  <property name="meta.attr.10.stream.title.markup">Subtitle #9</property>
  <property name="meta.attr.encoder.markup">libebml v1.3.0 + libmatroska v1.4.1</property>
  <property name="meta.attr.creation_time.markup">2015-03-12 04:24:50</property>
  <property name="seekable">1</property>
  <property name="meta.media.sample_aspect_num">1</property>
  <property name="meta.media.sample_aspect_den">1</property>
  <property name="aspect_ratio">1</property>
  <property name="audio_index">1</property>
  <property name="video_index">0</property>
  <property name="mute_on_pause">1</property>
  <property name="mlt_service">avformat</property>
  <property name="kdenlive:file_hash">871be6bb17b23fa99a05acde371b8110</property>
  <property name="kdenlive:file_size">8363749757</property>
  <property name="kdenlive:clipname">The.Hobbit.The.Battle.of.the.Five.Armies.2014.720p.BluRay.DTS-ES.x264-tRuEHD.mkv</property>
  <property name="global_feed">1</property>
  <property name="xml">was here</property>
  <property name="meta.media.frame_rate_num">24000</property>
  <property name="meta.media.frame_rate_den">1001</property>
  <property name="meta.media.colorspace">709</property>
  <property name="meta.media.color_trc">2</property>
  <property name="meta.media.width">1280</property>
  <property name="meta.media.height">534</property>
  <property name="meta.media.top_field_first">0</property>
  <property name="meta.media.progressive">1</property>
 </producer>
 <producer id="2_playlist2_audio" out="208056" title="Anonymous Submission" in="0">
  <property name="mlt_type">producer</property>
  <property name="length">02:24:29:01</property>
  <property name="eof">pause</property>
  <property name="resource">/media/cassi/SilverSqueaker/backup-new/movies/action/hobbit/The.Hobbit.The.Battle.of.the.Five.Armies.2014.720p.BluRay.DTS-ES.x264-tRuEHD.mkv</property>
  <property name="meta.media.nb_streams">11</property>
  <property name="meta.media.0.stream.type">video</property>
  <property name="meta.media.0.stream.frame_rate">23.976</property>
  <property name="meta.media.0.stream.sample_aspect_ratio">1</property>
  <property name="meta.media.0.codec.width">1280</property>
  <property name="meta.media.0.codec.height">534</property>
  <property name="meta.media.0.codec.rotate">0</property>
  <property name="meta.media.0.codec.frame_rate">23.976</property>
  <property name="meta.media.0.codec.pix_fmt">yuv420p</property>
  <property name="meta.media.0.codec.sample_aspect_ratio">1</property>
  <property name="meta.media.0.codec.colorspace">709</property>
  <property name="meta.media.0.codec.name">h264</property>
  <property name="meta.media.0.codec.long_name">H.264 / AVC / MPEG-4 AVC / MPEG-4 part 10</property>
  <property name="meta.media.0.codec.bit_rate">0</property>
  <property name="meta.attr.0.stream.language.markup">eng</property>
  <property name="meta.media.1.stream.type">audio</property>
  <property name="meta.media.1.codec.sample_fmt">fltp</property>
  <property name="meta.media.1.codec.sample_rate">48000</property>
  <property name="meta.media.1.codec.channels">7</property>
  <property name="meta.media.1.codec.name">dca</property>
  <property name="meta.media.1.codec.long_name">DCA (DTS Coherent Acoustics)</property>
  <property name="meta.media.1.codec.bit_rate">1536000</property>
  <property name="meta.attr.1.stream.language.markup">eng</property>
  <property name="meta.attr.1.stream.title.markup">Main Audio</property>
  <property name="meta.media.2.codec.name">srt</property>
  <property name="meta.media.2.codec.long_name">SubRip subtitle</property>
  <property name="meta.media.2.codec.bit_rate">0</property>
  <property name="meta.attr.2.stream.language.markup">eng</property>
  <property name="meta.attr.2.stream.title.markup">Subtitle #1</property>
  <property name="meta.media.3.codec.name">srt</property>
  <property name="meta.media.3.codec.long_name">SubRip subtitle</property>
  <property name="meta.media.3.codec.bit_rate">0</property>
  <property name="meta.attr.3.stream.language.markup">dan</property>
  <property name="meta.attr.3.stream.title.markup">Subtitle #2</property>
  <property name="meta.media.4.codec.name">srt</property>
  <property name="meta.media.4.codec.long_name">SubRip subtitle</property>
  <property name="meta.media.4.codec.bit_rate">0</property>
  <property name="meta.attr.4.stream.language.markup">dut</property>
  <property name="meta.attr.4.stream.title.markup">Subtitle #3</property>
  <property name="meta.media.5.codec.name">srt</property>
  <property name="meta.media.5.codec.long_name">SubRip subtitle</property>
  <property name="meta.media.5.codec.bit_rate">0</property>
  <property name="meta.attr.5.stream.language.markup">nor</property>
  <property name="meta.attr.5.stream.title.markup">Subtitle #4</property>
  <property name="meta.media.6.codec.name">srt</property>
  <property name="meta.media.6.codec.long_name">SubRip subtitle</property>
  <property name="meta.media.6.codec.bit_rate">0</property>
  <property name="meta.attr.6.stream.language.markup">pol</property>
  <property name="meta.attr.6.stream.title.markup">Subtitle #5</property>
  <property name="meta.media.7.codec.name">srt</property>
  <property name="meta.media.7.codec.long_name">SubRip subtitle</property>
  <property name="meta.media.7.codec.bit_rate">0</property>
  <property name="meta.attr.7.stream.language.markup">rum</property>
  <property name="meta.attr.7.stream.title.markup">Subtitle #6</property>
  <property name="meta.media.8.codec.name">srt</property>
  <property name="meta.media.8.codec.long_name">SubRip subtitle</property>
  <property name="meta.media.8.codec.bit_rate">0</property>
  <property name="meta.attr.8.stream.language.markup">spa</property>
  <property name="meta.attr.8.stream.title.markup">Subtitle #7</property>
  <property name="meta.media.9.codec.name">srt</property>
  <property name="meta.media.9.codec.long_name">SubRip subtitle</property>
  <property name="meta.media.9.codec.bit_rate">0</property>
  <property name="meta.attr.9.stream.language.markup">swe</property>
  <property name="meta.attr.9.stream.title.markup">Subtitle #8</property>
  <property name="meta.media.10.codec.name">srt</property>
  <property name="meta.media.10.codec.long_name">SubRip subtitle</property>
  <property name="meta.media.10.codec.bit_rate">0</property>
  <property name="meta.attr.10.stream.language.markup">tur</property>
  <property name="meta.attr.10.stream.title.markup">Subtitle #9</property>
  <property name="meta.attr.encoder.markup">libebml v1.3.0 + libmatroska v1.4.1</property>
  <property name="meta.attr.creation_time.markup">2015-03-12 04:24:50</property>
  <property name="seekable">1</property>
  <property name="meta.media.sample_aspect_num">1</property>
  <property name="meta.media.sample_aspect_den">1</property>
  <property name="aspect_ratio">1</property>
  <property name="audio_index">1</property>
  <property name="video_index">-1</property>
  <property name="mute_on_pause">1</property>
  <property name="mlt_service">avformat</property>
  <property name="kdenlive:file_hash">871be6bb17b23fa99a05acde371b8110</property>
  <property name="kdenlive:file_size">8363749757</property>
  <property name="kdenlive:clipname">The.Hobbit.The.Battle.of.the.Five.Armies.2014.720p.BluRay.DTS-ES.x264-tRuEHD.mkv</property>
  <property name="global_feed">1</property>
  <property name="xml">was here</property>
 </producer>
 <playlist id="playlist2">
  <property name="kdenlive:track_name"/>
  <property name="kdenlive:locked_track">0</property>
  <property name="kdenlive:composite">1</property>
  <blank length="2196"/>
  <entry out="2255" in="2196" producer="3_playlist2_audio">
   <filter id="filter48" out="2255" in="2196">
    <property name="window">75</property>
    <property name="max_gain">20dB</property>
    <property name="mlt_type">filter</property>
    <property name="mlt_service">volume</property>
    <property name="track">0</property>
    <property name="kdenlive_id">fadeout</property>
    <property name="tag">volume</property>
    <property name="kdenlive_ix">1</property>
    <property name="kdenlive_info"/>
    <property name="gain">1</property>
    <property name="end">0</property>
   </filter>
   <filter id="filter49" in="2196">
    <property name="window">75</property>
    <property name="max_gain">20dB</property>
    <property name="mlt_type">filter</property>
    <property name="mlt_service">volume</property>
    <property name="track">0</property>
    <property name="kdenlive_id">volume</property>
    <property name="tag">volume</property>
    <property name="kdenlive_ix">2</property>
    <property name="kdenlive_info"/>
    <property name="gain">0.6</property>
   </filter>
  </entry>
  <blank length="218"/>
  <entry out="13199" in="13145" producer="3_playlist2_audio"/>
  <blank length="488"/>
  <entry out="13858" in="13688" producer="3_playlist2_audio">
   <filter id="filter50" out="13858" in="13835">
    <property name="window">75</property>
    <property name="max_gain">20dB</property>
    <property name="mlt_type">filter</property>
    <property name="mlt_service">volume</property>
    <property name="track">0</property>
    <property name="kdenlive_id">fadeout</property>
    <property name="tag">volume</property>
    <property name="kdenlive_ix">1</property>
    <property name="kdenlive_info"/>
    <property name="gain">1</property>
    <property name="end">0</property>
    <property name="disable"/>
   </filter>
  </entry>
  <blank length="68210"/>
  <entry out="132145" in="132119" producer="3_playlist2">
   <filter id="filter51" out="132123" in="132119">
    <property name="window">75</property>
    <property name="max_gain">20dB</property>
    <property name="mlt_type">filter</property>
    <property name="mlt_service">volume</property>
    <property name="kdenlive_id">volume</property>
    <property name="tag">volume</property>
    <property name="kdenlive_ix">1</property>
    <property name="kdenlive_info"/>
    <property name="disable"/>
    <property name="gain">0</property>
    <property name="end">0.5</property>
   </filter>
   <filter id="filter52" out="132142" in="132124">
    <property name="window">75</property>
    <property name="max_gain">20dB</property>
    <property name="mlt_type">filter</property>
    <property name="mlt_service">volume</property>
    <property name="kdenlive_id">volume</property>
    <property name="tag">volume</property>
    <property name="kdenlive_ix">1</property>
    <property name="kdenlive_info"/>
    <property name="disable"/>
    <property name="gain">0.5</property>
    <property name="end">0.5</property>
   </filter>
   <filter id="filter53" out="132145" in="132143">
    <property name="window">75</property>
    <property name="max_gain">20dB</property>
    <property name="mlt_type">filter</property>
    <property name="mlt_service">volume</property>
    <property name="kdenlive_id">volume</property>
    <property name="tag">volume</property>
    <property name="kdenlive_ix">1</property>
    <property name="kdenlive_info"/>
    <property name="disable"/>
    <property name="gain">0.333333</property>
    <property name="end">0</property>
   </filter>
   <filter id="filter54">
    <property name="mlt_type">filter</property>
    <property name="mlt_service">ladspa.1890</property>
    <property name="kdenlive_id">ladspa.1890</property>
    <property name="tag">ladspa.1890</property>
    <property name="kdenlive_ix">2</property>
    <property name="kdenlive_info"/>
    <property name="disable"/>
    <property name="0">4345</property>
    <property name="1">1</property>
    <property name="wetness">1</property>
   </filter>
  </entry>
  <blank length="18"/>
  <entry out="31790" in="31747" producer="1_playlist2">
   <filter id="filter55" out="31748" in="31747">
    <property name="window">75</property>
    <property name="max_gain">20dB</property>
    <property name="mlt_type">filter</property>
    <property name="mlt_service">volume</property>
    <property name="kdenlive_id">volume</property>
    <property name="tag">volume</property>
    <property name="kdenlive_ix">1</property>
    <property name="kdenlive_info"/>
    <property name="disable"/>
    <property name="gain">0</property>
    <property name="end">1</property>
   </filter>
   <filter id="filter56" out="31790" in="31749">
    <property name="window">75</property>
    <property name="max_gain">20dB</property>
    <property name="mlt_type">filter</property>
    <property name="mlt_service">volume</property>
    <property name="kdenlive_id">volume</property>
    <property name="tag">volume</property>
    <property name="kdenlive_ix">1</property>
    <property name="kdenlive_info"/>
    <property name="disable"/>
    <property name="gain">0.995238</property>
    <property name="end">0.8</property>
   </filter>
  </entry>
  <blank length="9"/>
  <entry out="132145" in="132119" producer="3_playlist2">
   <filter id="filter57" out="132123" in="132119">
    <property name="window">75</property>
    <property name="max_gain">20dB</property>
    <property name="mlt_type">filter</property>
    <property name="mlt_service">volume</property>
    <property name="kdenlive_id">volume</property>
    <property name="tag">volume</property>
    <property name="kdenlive_ix">1</property>
    <property name="kdenlive_info"/>
    <property name="disable"/>
    <property name="gain">0</property>
    <property name="end">0.5</property>
   </filter>
   <filter id="filter58" out="132138" in="132124">
    <property name="window">75</property>
    <property name="max_gain">20dB</property>
    <property name="mlt_type">filter</property>
    <property name="mlt_service">volume</property>
    <property name="kdenlive_id">volume</property>
    <property name="tag">volume</property>
    <property name="kdenlive_ix">1</property>
    <property name="kdenlive_info"/>
    <property name="disable"/>
    <property name="gain">0.5</property>
    <property name="end">0.5</property>
   </filter>
   <filter id="filter59" out="132145" in="132139">
    <property name="window">75</property>
    <property name="max_gain">20dB</property>
    <property name="mlt_type">filter</property>
    <property name="mlt_service">volume</property>
    <property name="kdenlive_id">volume</property>
    <property name="tag">volume</property>
    <property name="kdenlive_ix">1</property>
    <property name="kdenlive_info"/>
    <property name="disable"/>
    <property name="gain">0.428571</property>
    <property name="end">0</property>
   </filter>
   <filter id="filter60">
    <property name="mlt_type">filter</property>
    <property name="mlt_service">ladspa.1890</property>
    <property name="kdenlive_id">ladspa.1890</property>
    <property name="tag">ladspa.1890</property>
    <property name="kdenlive_ix">2</property>
    <property name="kdenlive_info"/>
    <property name="disable"/>
    <property name="0">4345</property>
    <property name="1">1</property>
    <property name="wetness">1</property>
   </filter>
  </entry>
  <blank length="21"/>
  <entry out="139940" in="139772" producer="3_playlist2">
   <filter id="filter61" out="139777" in="139772">
    <property name="window">75</property>
    <property name="max_gain">20dB</property>
    <property name="mlt_type">filter</property>
    <property name="mlt_service">volume</property>
    <property name="kdenlive_id">volume</property>
    <property name="tag">volume</property>
    <property name="kdenlive_ix">1</property>
    <property name="kdenlive_info"/>
    <property name="disable"/>
    <property name="gain">0</property>
    <property name="end">1</property>
   </filter>
   <filter id="filter62" out="139940" in="139778">
    <property name="window">75</property>
    <property name="max_gain">20dB</property>
    <property name="mlt_type">filter</property>
    <property name="mlt_service">volume</property>
    <property name="kdenlive_id">volume</property>
    <property name="tag">volume</property>
    <property name="kdenlive_ix">1</property>
    <property name="kdenlive_info"/>
    <property name="disable"/>
    <property name="gain">1</property>
    <property name="end">1</property>
   </filter>
   <filter id="ladspa.1891">
    <property name="mlt_type">filter</property>
    <property name="mlt_service">ladspa.1891</property>
    <property name="kdenlive_id">ladspa.1891</property>
    <property name="tag">ladspa.1891</property>
    <property name="kdenlive_ix">2</property>
    <property name="kdenlive_info"/>
    <property name="disable">0</property>
    <property name="0">3308.87</property>
    <property name="1">1</property>
    <property name="wetness">1</property>
   </filter>
  </entry>
  <blank length="2975"/>
  <entry out="150731" in="150717" producer="3_playlist2">
   <filter id="filter63" out="150727" in="150717">
    <property name="window">75</property>
    <property name="max_gain">20dB</property>
    <property name="mlt_type">filter</property>
    <property name="mlt_service">volume</property>
    <property name="kdenlive_id">volume</property>
    <property name="tag">volume</property>
    <property name="kdenlive_ix">1</property>
    <property name="kdenlive_info"/>
    <property name="disable"/>
    <property name="gain">0.8</property>
    <property name="end">0.8</property>
   </filter>
   <filter id="filter64" out="150731" in="150728">
    <property name="window">75</property>
    <property name="max_gain">20dB</property>
    <property name="mlt_type">filter</property>
    <property name="mlt_service">volume</property>
    <property name="kdenlive_id">volume</property>
    <property name="tag">volume</property>
    <property name="kdenlive_ix">1</property>
    <property name="kdenlive_info"/>
    <property name="disable"/>
    <property name="gain">0.6</property>
    <property name="end">0</property>
   </filter>
  </entry>
  <blank length="69371"/>
  <entry out="58407" in="58101" producer="1_playlist2">
   <filter id="filter65" in="57537">
    <property name="window">75</property>
    <property name="max_gain">20dB</property>
    <property name="mlt_type">filter</property>
    <property name="mlt_service">volume</property>
    <property name="kdenlive_id">volume</property>
    <property name="tag">volume</property>
    <property name="kdenlive_ix">1</property>
    <property name="kdenlive_info"/>
    <property name="disable"/>
    <property name="gain">1</property>
   </filter>
  </entry>
  <blank length="15494"/>
  <entry out="95228" in="95161" producer="1_playlist2">
   <filter id="filter43" out="95170" in="95161">
    <property name="window">75</property>
    <property name="max_gain">20dB</property>
    <property name="mlt_type">filter</property>
    <property name="mlt_service">volume</property>
    <property name="kdenlive_id">volume</property>
    <property name="tag">volume</property>
    <property name="kdenlive_ix">1</property>
    <property name="kdenlive_info"/>
    <property name="disable"/>
    <property name="gain">0</property>
    <property name="end">0</property>
   </filter>
   <filter id="filter44" out="95172" in="95171">
    <property name="window">75</property>
    <property name="max_gain">20dB</property>
    <property name="mlt_type">filter</property>
    <property name="mlt_service">volume</property>
    <property name="kdenlive_id">volume</property>
    <property name="tag">volume</property>
    <property name="kdenlive_ix">1</property>
    <property name="kdenlive_info"/>
    <property name="disable"/>
    <property name="gain">0.2</property>
    <property name="end">0.4</property>
   </filter>
   <filter id="filter45" out="95177" in="95173">
    <property name="window">75</property>
    <property name="max_gain">20dB</property>
    <property name="mlt_type">filter</property>
    <property name="mlt_service">volume</property>
    <property name="kdenlive_id">volume</property>
    <property name="tag">volume</property>
    <property name="kdenlive_ix">1</property>
    <property name="kdenlive_info"/>
    <property name="disable"/>
    <property name="gain">0.44</property>
    <property name="end">0.6</property>
   </filter>
   <filter id="filter46" out="95201" in="95178">
    <property name="window">75</property>
    <property name="max_gain">20dB</property>
    <property name="mlt_type">filter</property>
    <property name="mlt_service">volume</property>
    <property name="kdenlive_id">volume</property>
    <property name="tag">volume</property>
    <property name="kdenlive_ix">1</property>
    <property name="kdenlive_info"/>
    <property name="disable"/>
    <property name="gain">0.59375</property>
    <property name="end">0.45</property>
   </filter>
   <filter id="filter47" out="95228" in="95202">
    <property name="window">75</property>
    <property name="max_gain">20dB</property>
    <property name="mlt_type">filter</property>
    <property name="mlt_service">volume</property>
    <property name="kdenlive_id">volume</property>
    <property name="tag">volume</property>
    <property name="kdenlive_ix">1</property>
    <property name="kdenlive_info"/>
    <property name="disable"/>
    <property name="gain">0.433333</property>
    <property name="end">0</property>
   </filter>
  </entry>
  <blank length="305"/>
  <entry out="145625" in="145465" producer="3_playlist2">
   <filter id="filter66" out="145477" in="145465">
    <property name="window">75</property>
    <property name="max_gain">20dB</property>
    <property name="mlt_type">filter</property>
    <property name="mlt_service">volume</property>
    <property name="kdenlive_id">volume</property>
    <property name="tag">volume</property>
    <property name="kdenlive_ix">1</property>
    <property name="kdenlive_info"/>
    <property name="disable"/>
    <property name="gain">0</property>
    <property name="end">0.15</property>
   </filter>
   <filter id="filter67" out="145611" in="145478">
    <property name="window">75</property>
    <property name="max_gain">20dB</property>
    <property name="mlt_type">filter</property>
    <property name="mlt_service">volume</property>
    <property name="kdenlive_id">volume</property>
    <property name="tag">volume</property>
    <property name="kdenlive_ix">1</property>
    <property name="kdenlive_info"/>
    <property name="disable"/>
    <property name="gain">0.15</property>
    <property name="end">0.15</property>
   </filter>
   <filter id="filter68" out="145625" in="145612">
    <property name="window">75</property>
    <property name="max_gain">20dB</property>
    <property name="mlt_type">filter</property>
    <property name="mlt_service">volume</property>
    <property name="kdenlive_id">volume</property>
    <property name="tag">volume</property>
    <property name="kdenlive_ix">1</property>
    <property name="kdenlive_info"/>
    <property name="disable"/>
    <property name="gain">0.139286</property>
    <property name="end">0</property>
   </filter>
  </entry>
  <blank length="21231"/>
  <entry out="79588" in="79434" producer="3_playlist2">
   <filter id="filter69" out="79458" in="79434">
    <property name="window">75</property>
    <property name="max_gain">20dB</property>
    <property name="mlt_type">filter</property>
    <property name="mlt_service">volume</property>
    <property name="kdenlive_id">volume</property>
    <property name="tag">volume</property>
    <property name="kdenlive_ix">1</property>
    <property name="kdenlive_info"/>
    <property name="disable"/>
    <property name="gain">0</property>
    <property name="end">0.25</property>
   </filter>
   <filter id="filter70" out="79564" in="79459">
    <property name="window">75</property>
    <property name="max_gain">20dB</property>
    <property name="mlt_type">filter</property>
    <property name="mlt_service">volume</property>
    <property name="kdenlive_id">volume</property>
    <property name="tag">volume</property>
    <property name="kdenlive_ix">1</property>
    <property name="kdenlive_info"/>
    <property name="disable"/>
    <property name="gain">0.251887</property>
    <property name="end">0.45</property>
   </filter>
   <filter id="filter71" out="79588" in="79565">
    <property name="window">75</property>
    <property name="max_gain">20dB</property>
    <property name="mlt_type">filter</property>
    <property name="mlt_service">volume</property>
    <property name="kdenlive_id">volume</property>
    <property name="tag">volume</property>
    <property name="kdenlive_ix">1</property>
    <property name="kdenlive_info"/>
    <property name="disable"/>
    <property name="gain">0.43125</property>
    <property name="end">0</property>
   </filter>
  </entry>
  <blank length="29120"/>
  <entry out="246903" in="246814" producer="1_playlist2">
   <filter id="filter72" out="246858" in="246814">
    <property name="window">75</property>
    <property name="max_gain">20dB</property>
    <property name="mlt_type">filter</property>
    <property name="mlt_service">volume</property>
    <property name="kdenlive_id">volume</property>
    <property name="tag">volume</property>
    <property name="kdenlive_ix">1</property>
    <property name="kdenlive_info"/>
    <property name="disable"/>
    <property name="gain">0.7</property>
    <property name="end">0.7</property>
   </filter>
   <filter id="filter73" out="246862" in="246859">
    <property name="window">75</property>
    <property name="max_gain">20dB</property>
    <property name="mlt_type">filter</property>
    <property name="mlt_service">volume</property>
    <property name="kdenlive_id">volume</property>
    <property name="tag">volume</property>
    <property name="kdenlive_ix">1</property>
    <property name="kdenlive_info"/>
    <property name="disable"/>
    <property name="gain">0.525</property>
    <property name="end">0</property>
   </filter>
   <filter id="filter74" out="246903" in="246863">
    <property name="window">75</property>
    <property name="max_gain">20dB</property>
    <property name="mlt_type">filter</property>
    <property name="mlt_service">volume</property>
    <property name="kdenlive_id">volume</property>
    <property name="tag">volume</property>
    <property name="kdenlive_ix">1</property>
    <property name="kdenlive_info"/>
    <property name="disable"/>
    <property name="gain">0</property>
    <property name="end">0</property>
   </filter>
   <filter id="filter75" out="246819" in="246814">
    <property name="window">75</property>
    <property name="max_gain">20dB</property>
    <property name="mlt_type">filter</property>
    <property name="mlt_service">volume</property>
    <property name="kdenlive_id">volume</property>
    <property name="tag">volume</property>
    <property name="kdenlive_ix">2</property>
    <property name="kdenlive_info"/>
    <property name="disable"/>
    <property name="gain">0</property>
    <property name="end">1</property>
   </filter>
   <filter id="filter76" out="246862" in="246820">
    <property name="window">75</property>
    <property name="max_gain">20dB</property>
    <property name="mlt_type">filter</property>
    <property name="mlt_service">volume</property>
    <property name="kdenlive_id">volume</property>
    <property name="tag">volume</property>
    <property name="kdenlive_ix">2</property>
    <property name="kdenlive_info"/>
    <property name="disable"/>
    <property name="gain">1</property>
    <property name="end">1</property>
   </filter>
   <filter id="filter77" out="246867" in="246863">
    <property name="window">75</property>
    <property name="max_gain">20dB</property>
    <property name="mlt_type">filter</property>
    <property name="mlt_service">volume</property>
    <property name="kdenlive_id">volume</property>
    <property name="tag">volume</property>
    <property name="kdenlive_ix">2</property>
    <property name="kdenlive_info"/>
    <property name="disable"/>
    <property name="gain">0.86</property>
    <property name="end">0.3</property>
   </filter>
   <filter id="filter78" out="246904" in="246868">
    <property name="window">75</property>
    <property name="max_gain">20dB</property>
    <property name="mlt_type">filter</property>
    <property name="mlt_service">volume</property>
    <property name="kdenlive_id">volume</property>
    <property name="tag">volume</property>
    <property name="kdenlive_ix">2</property>
    <property name="kdenlive_info"/>
    <property name="disable"/>
    <property name="gain">0.291892</property>
    <property name="end">0</property>
   </filter>
  </entry>
  <blank length="13550"/>
  <entry out="263757" in="263317" producer="1_playlist2_audio">
   <filter id="filter79" out="263346" in="263317">
    <property name="window">75</property>
    <property name="max_gain">20dB</property>
    <property name="mlt_type">filter</property>
    <property name="mlt_service">volume</property>
    <property name="kdenlive_id">volume</property>
    <property name="tag">volume</property>
    <property name="kdenlive_ix">1</property>
    <property name="kdenlive_info"/>
    <property name="disable"/>
    <property name="gain">0</property>
    <property name="end">0</property>
   </filter>
   <filter id="filter80" out="263372" in="263347">
    <property name="window">75</property>
    <property name="max_gain">20dB</property>
    <property name="mlt_type">filter</property>
    <property name="mlt_service">volume</property>
    <property name="kdenlive_id">volume</property>
    <property name="tag">volume</property>
    <property name="kdenlive_ix">1</property>
    <property name="kdenlive_info"/>
    <property name="disable"/>
    <property name="gain">0.00769231</property>
    <property name="end">0.2</property>
   </filter>
   <filter id="filter81" out="263430" in="263373">
    <property name="window">75</property>
    <property name="max_gain">20dB</property>
    <property name="mlt_type">filter</property>
    <property name="mlt_service">volume</property>
    <property name="kdenlive_id">volume</property>
    <property name="tag">volume</property>
    <property name="kdenlive_ix">1</property>
    <property name="kdenlive_info"/>
    <property name="disable"/>
    <property name="gain">0.201724</property>
    <property name="end">0.3</property>
   </filter>
   <filter id="filter82" out="263458" in="263431">
    <property name="window">75</property>
    <property name="max_gain">20dB</property>
    <property name="mlt_type">filter</property>
    <property name="mlt_service">volume</property>
    <property name="kdenlive_id">volume</property>
    <property name="tag">volume</property>
    <property name="kdenlive_ix">1</property>
    <property name="kdenlive_info"/>
    <property name="disable"/>
    <property name="gain">0.291071</property>
    <property name="end">0.05</property>
   </filter>
   <filter id="filter83" out="263583" in="263459">
    <property name="window">75</property>
    <property name="max_gain">20dB</property>
    <property name="mlt_type">filter</property>
    <property name="mlt_service">volume</property>
    <property name="kdenlive_id">volume</property>
    <property name="tag">volume</property>
    <property name="kdenlive_ix">1</property>
    <property name="kdenlive_info"/>
    <property name="disable"/>
    <property name="gain">0.05</property>
    <property name="end">0.05</property>
   </filter>
   <filter id="filter84" out="263616" in="263584">
    <property name="window">75</property>
    <property name="max_gain">20dB</property>
    <property name="mlt_type">filter</property>
    <property name="mlt_service">volume</property>
    <property name="kdenlive_id">volume</property>
    <property name="tag">volume</property>
    <property name="kdenlive_ix">1</property>
    <property name="kdenlive_info"/>
    <property name="disable"/>
    <property name="gain">0.0606061</property>
    <property name="end">0.4</property>
   </filter>
   <filter id="filter85" out="263645" in="263617">
    <property name="window">75</property>
    <property name="max_gain">20dB</property>
    <property name="mlt_type">filter</property>
    <property name="mlt_service">volume</property>
    <property name="kdenlive_id">volume</property>
    <property name="tag">volume</property>
    <property name="kdenlive_ix">1</property>
    <property name="kdenlive_info"/>
    <property name="disable"/>
    <property name="gain">0.393103</property>
    <property name="end">0.2</property>
   </filter>
   <filter id="filter86" out="263675" in="263646">
    <property name="window">75</property>
    <property name="max_gain">20dB</property>
    <property name="mlt_type">filter</property>
    <property name="mlt_service">volume</property>
    <property name="kdenlive_id">volume</property>
    <property name="tag">volume</property>
    <property name="kdenlive_ix">1</property>
    <property name="kdenlive_info"/>
    <property name="disable"/>
    <property name="gain">0.197333</property>
    <property name="end">0.12</property>
   </filter>
   <filter id="filter87" out="263729" in="263676">
    <property name="window">75</property>
    <property name="max_gain">20dB</property>
    <property name="mlt_type">filter</property>
    <property name="mlt_service">volume</property>
    <property name="kdenlive_id">volume</property>
    <property name="tag">volume</property>
    <property name="kdenlive_ix">1</property>
    <property name="kdenlive_info"/>
    <property name="disable"/>
    <property name="gain">0.118704</property>
    <property name="end">0.05</property>
   </filter>
   <filter id="filter88" out="263757" in="263730">
    <property name="window">75</property>
    <property name="max_gain">20dB</property>
    <property name="mlt_type">filter</property>
    <property name="mlt_service">volume</property>
    <property name="kdenlive_id">volume</property>
    <property name="tag">volume</property>
    <property name="kdenlive_ix">1</property>
    <property name="kdenlive_info"/>
    <property name="disable"/>
    <property name="gain">0.0482143</property>
    <property name="end">0</property>
   </filter>
  </entry>
  <blank length="12195"/>
  <entry out="39415" in="39412" producer="2_playlist2">
   <filter id="filter89" out="39415" in="39412">
    <property name="window">75</property>
    <property name="max_gain">20dB</property>
    <property name="mlt_type">filter</property>
    <property name="mlt_service">volume</property>
    <property name="kdenlive_id">volume</property>
    <property name="tag">volume</property>
    <property name="kdenlive_ix">1</property>
    <property name="kdenlive_info"/>
    <property name="disable"/>
    <property name="gain">1</property>
    <property name="end">1</property>
   </filter>
  </entry>
  <blank length="42352"/>
  <entry out="131928" in="131919" producer="2_playlist2">
   <filter id="filter90" out="131928" in="131919">
    <property name="window">75</property>
    <property name="max_gain">20dB</property>
    <property name="mlt_type">filter</property>
    <property name="mlt_service">volume</property>
    <property name="kdenlive_id">volume</property>
    <property name="tag">volume</property>
    <property name="kdenlive_ix">1</property>
    <property name="kdenlive_info"/>
    <property name="disable"/>
    <property name="gain">0.8</property>
    <property name="end">0</property>
   </filter>
  </entry>
  <blank length="77"/>
  <entry out="159299" in="159133" producer="1_playlist2">
   <filter id="filter91" out="159161" in="159133">
    <property name="window">75</property>
    <property name="max_gain">20dB</property>
    <property name="mlt_type">filter</property>
    <property name="mlt_service">volume</property>
    <property name="kdenlive_id">volume</property>
    <property name="tag">volume</property>
    <property name="kdenlive_ix">1</property>
    <property name="kdenlive_info"/>
    <property name="disable"/>
    <property name="gain">0</property>
    <property name="end">0.35</property>
   </filter>
   <filter id="filter92" out="159184" in="159162">
    <property name="window">75</property>
    <property name="max_gain">20dB</property>
    <property name="mlt_type">filter</property>
    <property name="mlt_service">volume</property>
    <property name="kdenlive_id">volume</property>
    <property name="tag">volume</property>
    <property name="kdenlive_ix">1</property>
    <property name="kdenlive_info"/>
    <property name="disable"/>
    <property name="gain">0.35</property>
    <property name="end">0.35</property>
   </filter>
   <filter id="filter93" out="159258" in="159185">
    <property name="window">75</property>
    <property name="max_gain">20dB</property>
    <property name="mlt_type">filter</property>
    <property name="mlt_service">volume</property>
    <property name="kdenlive_id">volume</property>
    <property name="tag">volume</property>
    <property name="kdenlive_ix">1</property>
    <property name="kdenlive_info"/>
    <property name="disable"/>
    <property name="gain">0.347297</property>
    <property name="end">0.15</property>
   </filter>
   <filter id="filter94" out="159300" in="159259">
    <property name="window">75</property>
    <property name="max_gain">20dB</property>
    <property name="mlt_type">filter</property>
    <property name="mlt_service">volume</property>
    <property name="kdenlive_id">volume</property>
    <property name="tag">volume</property>
    <property name="kdenlive_ix">1</property>
    <property name="kdenlive_info"/>
    <property name="disable"/>
    <property name="gain">0.146429</property>
    <property name="end">0</property>
   </filter>
  </entry>
  <blank length="1412"/>
  <entry out="140078" in="140051" producer="2_playlist2">
   <filter id="filter95" out="140056" in="140051">
    <property name="window">75</property>
    <property name="max_gain">20dB</property>
    <property name="mlt_type">filter</property>
    <property name="mlt_service">volume</property>
    <property name="kdenlive_id">volume</property>
    <property name="tag">volume</property>
    <property name="kdenlive_ix">1</property>
    <property name="kdenlive_info"/>
    <property name="disable"/>
    <property name="gain">0</property>
    <property name="end">0.5</property>
   </filter>
   <filter id="filter96" out="140075" in="140057">
    <property name="window">75</property>
    <property name="max_gain">20dB</property>
    <property name="mlt_type">filter</property>
    <property name="mlt_service">volume</property>
    <property name="kdenlive_id">volume</property>
    <property name="tag">volume</property>
    <property name="kdenlive_ix">1</property>
    <property name="kdenlive_info"/>
    <property name="disable"/>
    <property name="gain">0.5</property>
    <property name="end">0.5</property>
   </filter>
   <filter id="filter97" out="140078" in="140076">
    <property name="window">75</property>
    <property name="max_gain">20dB</property>
    <property name="mlt_type">filter</property>
    <property name="mlt_service">volume</property>
    <property name="kdenlive_id">volume</property>
    <property name="tag">volume</property>
    <property name="kdenlive_ix">1</property>
    <property name="kdenlive_info"/>
    <property name="disable"/>
    <property name="gain">0.333333</property>
    <property name="end">0</property>
   </filter>
  </entry>
  <blank length="341"/>
  <entry out="140570" in="140549" producer="2_playlist2">
   <filter id="filter98" out="140553" in="140549">
    <property name="window">75</property>
    <property name="max_gain">20dB</property>
    <property name="mlt_type">filter</property>
    <property name="mlt_service">volume</property>
    <property name="kdenlive_id">volume</property>
    <property name="tag">volume</property>
    <property name="kdenlive_ix">1</property>
    <property name="kdenlive_info"/>
    <property name="disable"/>
    <property name="gain">0</property>
    <property name="end">1.5</property>
   </filter>
   <filter id="filter99" out="140566" in="140554">
    <property name="window">75</property>
    <property name="max_gain">20dB</property>
    <property name="mlt_type">filter</property>
    <property name="mlt_service">volume</property>
    <property name="kdenlive_id">volume</property>
    <property name="tag">volume</property>
    <property name="kdenlive_ix">1</property>
    <property name="kdenlive_info"/>
    <property name="disable"/>
    <property name="gain">1.5</property>
    <property name="end">1.5</property>
   </filter>
   <filter id="filter100" out="140570" in="140567">
    <property name="window">75</property>
    <property name="max_gain">20dB</property>
    <property name="mlt_type">filter</property>
    <property name="mlt_service">volume</property>
    <property name="kdenlive_id">volume</property>
    <property name="tag">volume</property>
    <property name="kdenlive_ix">1</property>
    <property name="kdenlive_info"/>
    <property name="disable"/>
    <property name="gain">1.125</property>
    <property name="end">0</property>
   </filter>
  </entry>
  <blank length="3847"/>
  <entry out="151042" in="151006" producer="2_playlist2">
   <filter id="filter101" out="151017" in="151006">
    <property name="window">75</property>
    <property name="max_gain">20dB</property>
    <property name="mlt_type">filter</property>
    <property name="mlt_service">volume</property>
    <property name="kdenlive_id">fadein</property>
    <property name="tag">volume</property>
    <property name="kdenlive_ix">1</property>
    <property name="kdenlive_info"/>
    <property name="disable"/>
    <property name="gain">0</property>
    <property name="end">1</property>
   </filter>
  </entry>
  <blank length="218"/>
  <entry out="151495" in="151374" producer="2_playlist2">
   <filter id="filter102" out="151389" in="151374">
    <property name="window">75</property>
    <property name="max_gain">20dB</property>
    <property name="mlt_type">filter</property>
    <property name="mlt_service">volume</property>
    <property name="kdenlive_id">volume</property>
    <property name="tag">volume</property>
    <property name="kdenlive_ix">1</property>
    <property name="kdenlive_info"/>
    <property name="disable"/>
    <property name="gain">0</property>
    <property name="end">1</property>
   </filter>
   <filter id="filter103" out="151481" in="151390">
    <property name="window">75</property>
    <property name="max_gain">20dB</property>
    <property name="mlt_type">filter</property>
    <property name="mlt_service">volume</property>
    <property name="kdenlive_id">volume</property>
    <property name="tag">volume</property>
    <property name="kdenlive_ix">1</property>
    <property name="kdenlive_info"/>
    <property name="disable"/>
    <property name="gain">1</property>
    <property name="end">1</property>
   </filter>
   <filter id="filter104" out="151495" in="151482">
    <property name="window">75</property>
    <property name="max_gain">20dB</property>
    <property name="mlt_type">filter</property>
    <property name="mlt_service">volume</property>
    <property name="kdenlive_id">volume</property>
    <property name="tag">volume</property>
    <property name="kdenlive_ix">1</property>
    <property name="kdenlive_info"/>
    <property name="disable"/>
    <property name="gain">0.928571</property>
    <property name="end">0</property>
   </filter>
  </entry>
  <blank length="1495"/>
  <entry out="203875" in="203660" producer="2_playlist2_audio">
   <filter id="filter105" out="203669" in="203660">
    <property name="window">75</property>
    <property name="max_gain">20dB</property>
    <property name="mlt_type">filter</property>
    <property name="mlt_service">volume</property>
    <property name="kdenlive_id">volume</property>
    <property name="tag">volume</property>
    <property name="kdenlive_ix">1</property>
    <property name="kdenlive_info"/>
    <property name="disable"/>
    <property name="gain">0</property>
    <property name="end">0.75</property>
   </filter>
   <filter id="filter106" out="203702" in="203670">
    <property name="window">75</property>
    <property name="max_gain">20dB</property>
    <property name="mlt_type">filter</property>
    <property name="mlt_service">volume</property>
    <property name="kdenlive_id">volume</property>
    <property name="tag">volume</property>
    <property name="kdenlive_ix">1</property>
    <property name="kdenlive_info"/>
    <property name="disable"/>
    <property name="gain">0.772727</property>
    <property name="end">1.5</property>
   </filter>
   <filter id="filter107" out="203816" in="203703">
    <property name="window">75</property>
    <property name="max_gain">20dB</property>
    <property name="mlt_type">filter</property>
    <property name="mlt_service">volume</property>
    <property name="kdenlive_id">volume</property>
    <property name="tag">volume</property>
    <property name="kdenlive_ix">1</property>
    <property name="kdenlive_info"/>
    <property name="disable"/>
    <property name="gain">1.5</property>
    <property name="end">1.5</property>
   </filter>
   <filter id="filter108" out="203845" in="203817">
    <property name="window">75</property>
    <property name="max_gain">20dB</property>
    <property name="mlt_type">filter</property>
    <property name="mlt_service">volume</property>
    <property name="kdenlive_id">volume</property>
    <property name="tag">volume</property>
    <property name="kdenlive_ix">1</property>
    <property name="kdenlive_info"/>
    <property name="disable"/>
    <property name="gain">1.46552</property>
    <property name="end">0.5</property>
   </filter>
   <filter id="filter109" out="203875" in="203846">
    <property name="window">75</property>
    <property name="max_gain">20dB</property>
    <property name="mlt_type">filter</property>
    <property name="mlt_service">volume</property>
    <property name="kdenlive_id">volume</property>
    <property name="tag">volume</property>
    <property name="kdenlive_ix">1</property>
    <property name="kdenlive_info"/>
    <property name="disable"/>
    <property name="gain">0.483333</property>
    <property name="end">0</property>
   </filter>
  </entry>
  <blank length="26886"/>
  <entry out="260551" in="253505" producer="1_playlist2_audio">
   <filter id="filter110" out="260551" in="260545">
    <property name="window">75</property>
    <property name="max_gain">20dB</property>
    <property name="mlt_type">filter</property>
    <property name="mlt_service">volume</property>
    <property name="kdenlive_id">fadeout</property>
    <property name="tag">volume</property>
    <property name="kdenlive_ix">1</property>
    <property name="kdenlive_info"/>
    <property name="disable"/>
    <property name="gain">1</property>
    <property name="end">0</property>
   </filter>
  </entry>
 </playlist>
 <producer id="3_playlist3_audio" out="244275" title="Anonymous Submission" in="0">
  <property name="mlt_type">mlt_producer</property>
  <property name="length">244276</property>
  <property name="eof">pause</property>
  <property name="resource">/media/cassi/SilverSqueaker/backup-new/movies/action/hobbit/The.Hobbit.An.Unexpected.Journey.2012.720p.BluRay.DTS-ES.x264-tRuEHD.mkv</property>
  <property name="meta.media.nb_streams">9</property>
  <property name="meta.media.0.stream.type">video</property>
  <property name="meta.media.0.stream.frame_rate">23.976</property>
  <property name="meta.media.0.stream.sample_aspect_ratio">1</property>
  <property name="meta.media.0.codec.width">1280</property>
  <property name="meta.media.0.codec.height">534</property>
  <property name="meta.media.0.codec.rotate">0</property>
  <property name="meta.media.0.codec.frame_rate">23.976</property>
  <property name="meta.media.0.codec.pix_fmt">yuv420p</property>
  <property name="meta.media.0.codec.sample_aspect_ratio">1</property>
  <property name="meta.media.0.codec.colorspace">709</property>
  <property name="meta.media.0.codec.name">h264</property>
  <property name="meta.media.0.codec.long_name">H.264 / AVC / MPEG-4 AVC / MPEG-4 part 10</property>
  <property name="meta.media.0.codec.bit_rate">0</property>
  <property name="meta.attr.0.stream.language.markup">eng</property>
  <property name="meta.media.1.stream.type">audio</property>
  <property name="meta.media.1.codec.sample_fmt">fltp</property>
  <property name="meta.media.1.codec.sample_rate">48000</property>
  <property name="meta.media.1.codec.channels">7</property>
  <property name="meta.media.1.codec.name">dca</property>
  <property name="meta.media.1.codec.long_name">DCA (DTS Coherent Acoustics)</property>
  <property name="meta.media.1.codec.bit_rate">1536000</property>
  <property name="meta.attr.1.stream.language.markup">eng</property>
  <property name="meta.attr.1.stream.title.markup">Main Movie</property>
  <property name="meta.media.2.codec.name">srt</property>
  <property name="meta.media.2.codec.long_name">SubRip subtitle</property>
  <property name="meta.media.2.codec.bit_rate">0</property>
  <property name="meta.attr.2.stream.language.markup">eng</property>
  <property name="meta.attr.2.stream.title.markup">Subtitle #1</property>
  <property name="meta.media.3.codec.name">srt</property>
  <property name="meta.media.3.codec.long_name">SubRip subtitle</property>
  <property name="meta.media.3.codec.bit_rate">0</property>
  <property name="meta.attr.3.stream.language.markup">spa</property>
  <property name="meta.attr.3.stream.title.markup">Subtitle #2</property>
  <property name="meta.media.4.codec.name">srt</property>
  <property name="meta.media.4.codec.long_name">SubRip subtitle</property>
  <property name="meta.media.4.codec.bit_rate">0</property>
  <property name="meta.attr.4.stream.language.markup">swe</property>
  <property name="meta.attr.4.stream.title.markup">Subtitle #3</property>
  <property name="meta.media.5.codec.name">srt</property>
  <property name="meta.media.5.codec.long_name">SubRip subtitle</property>
  <property name="meta.media.5.codec.bit_rate">0</property>
  <property name="meta.attr.5.stream.language.markup">pol</property>
  <property name="meta.attr.5.stream.title.markup">Subtitle #4</property>
  <property name="meta.media.6.codec.name">srt</property>
  <property name="meta.media.6.codec.long_name">SubRip subtitle</property>
  <property name="meta.media.6.codec.bit_rate">0</property>
  <property name="meta.attr.6.stream.language.markup">dut</property>
  <property name="meta.attr.6.stream.title.markup">Subtitle #5</property>
  <property name="meta.media.7.codec.name">srt</property>
  <property name="meta.media.7.codec.long_name">SubRip subtitle</property>
  <property name="meta.media.7.codec.bit_rate">0</property>
  <property name="meta.attr.7.stream.language.markup">hun</property>
  <property name="meta.attr.7.stream.title.markup">Subtitle #5</property>
  <property name="meta.media.8.codec.name">srt</property>
  <property name="meta.media.8.codec.long_name">SubRip subtitle</property>
  <property name="meta.media.8.codec.bit_rate">0</property>
  <property name="meta.attr.8.stream.language.markup">fin</property>
  <property name="meta.attr.8.stream.title.markup">Subtitle #7</property>
  <property name="meta.attr.encoder.markup">libebml v1.3.0 + libmatroska v1.4.0</property>
  <property name="meta.attr.creation_time.markup">2013-03-06 19:22:31</property>
  <property name="seekable">1</property>
  <property name="meta.media.sample_aspect_num">1</property>
  <property name="meta.media.sample_aspect_den">1</property>
  <property name="aspect_ratio">1</property>
  <property name="audio_index">1</property>
  <property name="video_index">-1</property>
  <property name="mute_on_pause">1</property>
  <property name="mlt_service">avformat</property>
  <property name="global_feed">1</property>
 </producer>
 <producer id="3_playlist3" out="244275" title="Anonymous Submission" in="0">
  <property name="mlt_type">mlt_producer</property>
  <property name="length">244276</property>
  <property name="eof">pause</property>
  <property name="resource">/media/cassi/SilverSqueaker/backup-new/movies/action/hobbit/The.Hobbit.An.Unexpected.Journey.2012.720p.BluRay.DTS-ES.x264-tRuEHD.mkv</property>
  <property name="meta.media.nb_streams">9</property>
  <property name="meta.media.0.stream.type">video</property>
  <property name="meta.media.0.stream.frame_rate">23.976</property>
  <property name="meta.media.0.stream.sample_aspect_ratio">1</property>
  <property name="meta.media.0.codec.width">1280</property>
  <property name="meta.media.0.codec.height">534</property>
  <property name="meta.media.0.codec.rotate">0</property>
  <property name="meta.media.0.codec.frame_rate">23.976</property>
  <property name="meta.media.0.codec.pix_fmt">yuv420p</property>
  <property name="meta.media.0.codec.sample_aspect_ratio">1</property>
  <property name="meta.media.0.codec.colorspace">709</property>
  <property name="meta.media.0.codec.name">h264</property>
  <property name="meta.media.0.codec.long_name">H.264 / AVC / MPEG-4 AVC / MPEG-4 part 10</property>
  <property name="meta.media.0.codec.bit_rate">0</property>
  <property name="meta.attr.0.stream.language.markup">eng</property>
  <property name="meta.media.1.stream.type">audio</property>
  <property name="meta.media.1.codec.sample_fmt">fltp</property>
  <property name="meta.media.1.codec.sample_rate">48000</property>
  <property name="meta.media.1.codec.channels">7</property>
  <property name="meta.media.1.codec.name">dca</property>
  <property name="meta.media.1.codec.long_name">DCA (DTS Coherent Acoustics)</property>
  <property name="meta.media.1.codec.bit_rate">1536000</property>
  <property name="meta.attr.1.stream.language.markup">eng</property>
  <property name="meta.attr.1.stream.title.markup">Main Movie</property>
  <property name="meta.media.2.codec.name">srt</property>
  <property name="meta.media.2.codec.long_name">SubRip subtitle</property>
  <property name="meta.media.2.codec.bit_rate">0</property>
  <property name="meta.attr.2.stream.language.markup">eng</property>
  <property name="meta.attr.2.stream.title.markup">Subtitle #1</property>
  <property name="meta.media.3.codec.name">srt</property>
  <property name="meta.media.3.codec.long_name">SubRip subtitle</property>
  <property name="meta.media.3.codec.bit_rate">0</property>
  <property name="meta.attr.3.stream.language.markup">spa</property>
  <property name="meta.attr.3.stream.title.markup">Subtitle #2</property>
  <property name="meta.media.4.codec.name">srt</property>
  <property name="meta.media.4.codec.long_name">SubRip subtitle</property>
  <property name="meta.media.4.codec.bit_rate">0</property>
  <property name="meta.attr.4.stream.language.markup">swe</property>
  <property name="meta.attr.4.stream.title.markup">Subtitle #3</property>
  <property name="meta.media.5.codec.name">srt</property>
  <property name="meta.media.5.codec.long_name">SubRip subtitle</property>
  <property name="meta.media.5.codec.bit_rate">0</property>
  <property name="meta.attr.5.stream.language.markup">pol</property>
  <property name="meta.attr.5.stream.title.markup">Subtitle #4</property>
  <property name="meta.media.6.codec.name">srt</property>
  <property name="meta.media.6.codec.long_name">SubRip subtitle</property>
  <property name="meta.media.6.codec.bit_rate">0</property>
  <property name="meta.attr.6.stream.language.markup">dut</property>
  <property name="meta.attr.6.stream.title.markup">Subtitle #5</property>
  <property name="meta.media.7.codec.name">srt</property>
  <property name="meta.media.7.codec.long_name">SubRip subtitle</property>
  <property name="meta.media.7.codec.bit_rate">0</property>
  <property name="meta.attr.7.stream.language.markup">hun</property>
  <property name="meta.attr.7.stream.title.markup">Subtitle #5</property>
  <property name="meta.media.8.codec.name">srt</property>
  <property name="meta.media.8.codec.long_name">SubRip subtitle</property>
  <property name="meta.media.8.codec.bit_rate">0</property>
  <property name="meta.attr.8.stream.language.markup">fin</property>
  <property name="meta.attr.8.stream.title.markup">Subtitle #7</property>
  <property name="meta.attr.encoder.markup">libebml v1.3.0 + libmatroska v1.4.0</property>
  <property name="meta.attr.creation_time.markup">2013-03-06 19:22:31</property>
  <property name="seekable">1</property>
  <property name="meta.media.sample_aspect_num">1</property>
  <property name="meta.media.sample_aspect_den">1</property>
  <property name="aspect_ratio">1</property>
  <property name="audio_index">1</property>
  <property name="video_index">0</property>
  <property name="mute_on_pause">1</property>
  <property name="mlt_service">avformat</property>
  <property name="meta.media.frame_rate_num">24000</property>
  <property name="meta.media.frame_rate_den">1001</property>
  <property name="meta.media.colorspace">709</property>
  <property name="meta.media.color_trc">2</property>
  <property name="meta.media.width">1280</property>
  <property name="meta.media.height">534</property>
  <property name="meta.media.top_field_first">0</property>
  <property name="meta.media.progressive">1</property>
  <property name="global_feed">1</property>
 </producer>
 <producer id="1_playlist3_audio" out="268700" title="Anonymous Submission" in="0">
  <property name="mlt_type">producer</property>
  <property name="length">03:06:35:21</property>
  <property name="eof">pause</property>
  <property name="resource">/media/cassi/SilverSqueaker/backup-new/movies/action/hobbit/The.Hobbit.Desolation.Of.Smaug.Extended.Edition.2013.BluRay.DTS-ES.x264-tRuEHD.mkv</property>
  <property name="meta.media.nb_streams">6</property>
  <property name="meta.media.0.stream.type">video</property>
  <property name="meta.media.0.stream.frame_rate">23.976</property>
  <property name="meta.media.0.stream.sample_aspect_ratio">1</property>
  <property name="meta.media.0.codec.width">1280</property>
  <property name="meta.media.0.codec.height">534</property>
  <property name="meta.media.0.codec.rotate">0</property>
  <property name="meta.media.0.codec.frame_rate">23.976</property>
  <property name="meta.media.0.codec.pix_fmt">yuv420p</property>
  <property name="meta.media.0.codec.sample_aspect_ratio">1</property>
  <property name="meta.media.0.codec.colorspace">709</property>
  <property name="meta.media.0.codec.name">h264</property>
  <property name="meta.media.0.codec.long_name">H.264 / AVC / MPEG-4 AVC / MPEG-4 part 10</property>
  <property name="meta.media.0.codec.bit_rate">0</property>
  <property name="meta.attr.0.stream.language.markup">eng</property>
  <property name="meta.media.1.stream.type">audio</property>
  <property name="meta.media.1.codec.sample_fmt">fltp</property>
  <property name="meta.media.1.codec.sample_rate">48000</property>
  <property name="meta.media.1.codec.channels">7</property>
  <property name="meta.media.1.codec.name">dca</property>
  <property name="meta.media.1.codec.long_name">DCA (DTS Coherent Acoustics)</property>
  <property name="meta.media.1.codec.bit_rate">1536000</property>
  <property name="meta.attr.1.stream.language.markup">eng</property>
  <property name="meta.attr.1.stream.title.markup">Main Audio</property>
  <property name="meta.media.2.stream.type">audio</property>
  <property name="meta.media.2.codec.sample_fmt">fltp</property>
  <property name="meta.media.2.codec.sample_rate">48000</property>
  <property name="meta.media.2.codec.channels">2</property>
  <property name="meta.media.2.codec.name">ac3</property>
  <property name="meta.media.2.codec.long_name">ATSC A/52A (AC-3)</property>
  <property name="meta.media.2.codec.bit_rate">128000</property>
  <property name="meta.attr.2.stream.language.markup">eng</property>
  <property name="meta.attr.2.stream.title.markup">Commentary</property>
  <property name="meta.media.3.codec.name">srt</property>
  <property name="meta.media.3.codec.long_name">SubRip subtitle</property>
  <property name="meta.media.3.codec.bit_rate">0</property>
  <property name="meta.attr.3.stream.language.markup">eng</property>
  <property name="meta.attr.3.stream.title.markup">Subtitle #1</property>
  <property name="meta.media.4.codec.name">srt</property>
  <property name="meta.media.4.codec.long_name">SubRip subtitle</property>
  <property name="meta.media.4.codec.bit_rate">0</property>
  <property name="meta.attr.4.stream.language.markup">fre</property>
  <property name="meta.attr.4.stream.title.markup">Subtitle #2</property>
  <property name="meta.media.5.codec.name">srt</property>
  <property name="meta.media.5.codec.long_name">SubRip subtitle</property>
  <property name="meta.media.5.codec.bit_rate">0</property>
  <property name="meta.attr.5.stream.language.markup">spa</property>
  <property name="meta.attr.5.stream.title.markup">Subtitle #3</property>
  <property name="meta.attr.encoder.markup">libebml v1.3.0 + libmatroska v1.4.1</property>
  <property name="meta.attr.creation_time.markup">2014-10-27 22:49:14</property>
  <property name="seekable">1</property>
  <property name="meta.media.sample_aspect_num">1</property>
  <property name="meta.media.sample_aspect_den">1</property>
  <property name="aspect_ratio">1</property>
  <property name="audio_index">1</property>
  <property name="video_index">-1</property>
  <property name="mute_on_pause">1</property>
  <property name="mlt_service">avformat</property>
  <property name="kdenlive:file_hash">8be2978c13f0cd02e7ae33c9d4ec03c9</property>
  <property name="kdenlive:file_size">10472010332</property>
  <property name="kdenlive:clipname">The.Hobbit.Desolation.Of.Smaug.Extended.Edition.2013.BluRay.DTS-ES.x264-tRuEHD.mkv</property>
  <property name="global_feed">1</property>
  <property name="xml">was here</property>
 </producer>
 <producer id="1_playlist3" out="268700" title="Anonymous Submission" in="0">
  <property name="mlt_type">mlt_producer</property>
  <property name="length">268701</property>
  <property name="eof">pause</property>
  <property name="resource">/media/cassi/SilverSqueaker/backup-new/movies/action/hobbit/The.Hobbit.Desolation.Of.Smaug.Extended.Edition.2013.BluRay.DTS-ES.x264-tRuEHD.mkv</property>
  <property name="meta.media.nb_streams">6</property>
  <property name="meta.media.0.stream.type">video</property>
  <property name="meta.media.0.stream.frame_rate">23.976</property>
  <property name="meta.media.0.stream.sample_aspect_ratio">1</property>
  <property name="meta.media.0.codec.width">1280</property>
  <property name="meta.media.0.codec.height">534</property>
  <property name="meta.media.0.codec.rotate">0</property>
  <property name="meta.media.0.codec.frame_rate">23.976</property>
  <property name="meta.media.0.codec.pix_fmt">yuv420p</property>
  <property name="meta.media.0.codec.sample_aspect_ratio">1</property>
  <property name="meta.media.0.codec.colorspace">709</property>
  <property name="meta.media.0.codec.name">h264</property>
  <property name="meta.media.0.codec.long_name">H.264 / AVC / MPEG-4 AVC / MPEG-4 part 10</property>
  <property name="meta.media.0.codec.bit_rate">0</property>
  <property name="meta.attr.0.stream.language.markup">eng</property>
  <property name="meta.media.1.stream.type">audio</property>
  <property name="meta.media.1.codec.sample_fmt">fltp</property>
  <property name="meta.media.1.codec.sample_rate">48000</property>
  <property name="meta.media.1.codec.channels">7</property>
  <property name="meta.media.1.codec.name">dca</property>
  <property name="meta.media.1.codec.long_name">DCA (DTS Coherent Acoustics)</property>
  <property name="meta.media.1.codec.bit_rate">1536000</property>
  <property name="meta.attr.1.stream.language.markup">eng</property>
  <property name="meta.attr.1.stream.title.markup">Main Audio</property>
  <property name="meta.media.2.stream.type">audio</property>
  <property name="meta.media.2.codec.sample_fmt">fltp</property>
  <property name="meta.media.2.codec.sample_rate">48000</property>
  <property name="meta.media.2.codec.channels">2</property>
  <property name="meta.media.2.codec.name">ac3</property>
  <property name="meta.media.2.codec.long_name">ATSC A/52A (AC-3)</property>
  <property name="meta.media.2.codec.bit_rate">128000</property>
  <property name="meta.attr.2.stream.language.markup">eng</property>
  <property name="meta.attr.2.stream.title.markup">Commentary</property>
  <property name="meta.media.3.codec.name">srt</property>
  <property name="meta.media.3.codec.long_name">SubRip subtitle</property>
  <property name="meta.media.3.codec.bit_rate">0</property>
  <property name="meta.attr.3.stream.language.markup">eng</property>
  <property name="meta.attr.3.stream.title.markup">Subtitle #1</property>
  <property name="meta.media.4.codec.name">srt</property>
  <property name="meta.media.4.codec.long_name">SubRip subtitle</property>
  <property name="meta.media.4.codec.bit_rate">0</property>
  <property name="meta.attr.4.stream.language.markup">fre</property>
  <property name="meta.attr.4.stream.title.markup">Subtitle #2</property>
  <property name="meta.media.5.codec.name">srt</property>
  <property name="meta.media.5.codec.long_name">SubRip subtitle</property>
  <property name="meta.media.5.codec.bit_rate">0</property>
  <property name="meta.attr.5.stream.language.markup">spa</property>
  <property name="meta.attr.5.stream.title.markup">Subtitle #3</property>
  <property name="meta.attr.encoder.markup">libebml v1.3.0 + libmatroska v1.4.1</property>
  <property name="meta.attr.creation_time.markup">2014-10-27 22:49:14</property>
  <property name="seekable">1</property>
  <property name="meta.media.sample_aspect_num">1</property>
  <property name="meta.media.sample_aspect_den">1</property>
  <property name="aspect_ratio">1</property>
  <property name="audio_index">1</property>
  <property name="video_index">0</property>
  <property name="mute_on_pause">1</property>
  <property name="mlt_service">avformat</property>
  <property name="meta.media.frame_rate_num">24000</property>
  <property name="meta.media.frame_rate_den">1001</property>
  <property name="meta.media.colorspace">709</property>
  <property name="meta.media.color_trc">2</property>
  <property name="meta.media.width">1280</property>
  <property name="meta.media.height">534</property>
  <property name="meta.media.top_field_first">0</property>
  <property name="meta.media.progressive">1</property>
  <property name="global_feed">1</property>
 </producer>
 <producer id="2_playlist3" out="208056" title="Anonymous Submission" in="0">
  <property name="mlt_type">mlt_producer</property>
  <property name="length">208057</property>
  <property name="eof">pause</property>
  <property name="resource">/media/cassi/SilverSqueaker/backup-new/movies/action/hobbit/The.Hobbit.The.Battle.of.the.Five.Armies.2014.720p.BluRay.DTS-ES.x264-tRuEHD.mkv</property>
  <property name="meta.media.nb_streams">11</property>
  <property name="meta.media.0.stream.type">video</property>
  <property name="meta.media.0.stream.frame_rate">23.976</property>
  <property name="meta.media.0.stream.sample_aspect_ratio">1</property>
  <property name="meta.media.0.codec.width">1280</property>
  <property name="meta.media.0.codec.height">534</property>
  <property name="meta.media.0.codec.rotate">0</property>
  <property name="meta.media.0.codec.frame_rate">23.976</property>
  <property name="meta.media.0.codec.pix_fmt">yuv420p</property>
  <property name="meta.media.0.codec.sample_aspect_ratio">1</property>
  <property name="meta.media.0.codec.colorspace">709</property>
  <property name="meta.media.0.codec.name">h264</property>
  <property name="meta.media.0.codec.long_name">H.264 / AVC / MPEG-4 AVC / MPEG-4 part 10</property>
  <property name="meta.media.0.codec.bit_rate">0</property>
  <property name="meta.attr.0.stream.language.markup">eng</property>
  <property name="meta.media.1.stream.type">audio</property>
  <property name="meta.media.1.codec.sample_fmt">fltp</property>
  <property name="meta.media.1.codec.sample_rate">48000</property>
  <property name="meta.media.1.codec.channels">7</property>
  <property name="meta.media.1.codec.name">dca</property>
  <property name="meta.media.1.codec.long_name">DCA (DTS Coherent Acoustics)</property>
  <property name="meta.media.1.codec.bit_rate">1536000</property>
  <property name="meta.attr.1.stream.language.markup">eng</property>
  <property name="meta.attr.1.stream.title.markup">Main Audio</property>
  <property name="meta.media.2.codec.name">srt</property>
  <property name="meta.media.2.codec.long_name">SubRip subtitle</property>
  <property name="meta.media.2.codec.bit_rate">0</property>
  <property name="meta.attr.2.stream.language.markup">eng</property>
  <property name="meta.attr.2.stream.title.markup">Subtitle #1</property>
  <property name="meta.media.3.codec.name">srt</property>
  <property name="meta.media.3.codec.long_name">SubRip subtitle</property>
  <property name="meta.media.3.codec.bit_rate">0</property>
  <property name="meta.attr.3.stream.language.markup">dan</property>
  <property name="meta.attr.3.stream.title.markup">Subtitle #2</property>
  <property name="meta.media.4.codec.name">srt</property>
  <property name="meta.media.4.codec.long_name">SubRip subtitle</property>
  <property name="meta.media.4.codec.bit_rate">0</property>
  <property name="meta.attr.4.stream.language.markup">dut</property>
  <property name="meta.attr.4.stream.title.markup">Subtitle #3</property>
  <property name="meta.media.5.codec.name">srt</property>
  <property name="meta.media.5.codec.long_name">SubRip subtitle</property>
  <property name="meta.media.5.codec.bit_rate">0</property>
  <property name="meta.attr.5.stream.language.markup">nor</property>
  <property name="meta.attr.5.stream.title.markup">Subtitle #4</property>
  <property name="meta.media.6.codec.name">srt</property>
  <property name="meta.media.6.codec.long_name">SubRip subtitle</property>
  <property name="meta.media.6.codec.bit_rate">0</property>
  <property name="meta.attr.6.stream.language.markup">pol</property>
  <property name="meta.attr.6.stream.title.markup">Subtitle #5</property>
  <property name="meta.media.7.codec.name">srt</property>
  <property name="meta.media.7.codec.long_name">SubRip subtitle</property>
  <property name="meta.media.7.codec.bit_rate">0</property>
  <property name="meta.attr.7.stream.language.markup">rum</property>
  <property name="meta.attr.7.stream.title.markup">Subtitle #6</property>
  <property name="meta.media.8.codec.name">srt</property>
  <property name="meta.media.8.codec.long_name">SubRip subtitle</property>
  <property name="meta.media.8.codec.bit_rate">0</property>
  <property name="meta.attr.8.stream.language.markup">spa</property>
  <property name="meta.attr.8.stream.title.markup">Subtitle #7</property>
  <property name="meta.media.9.codec.name">srt</property>
  <property name="meta.media.9.codec.long_name">SubRip subtitle</property>
  <property name="meta.media.9.codec.bit_rate">0</property>
  <property name="meta.attr.9.stream.language.markup">swe</property>
  <property name="meta.attr.9.stream.title.markup">Subtitle #8</property>
  <property name="meta.media.10.codec.name">srt</property>
  <property name="meta.media.10.codec.long_name">SubRip subtitle</property>
  <property name="meta.media.10.codec.bit_rate">0</property>
  <property name="meta.attr.10.stream.language.markup">tur</property>
  <property name="meta.attr.10.stream.title.markup">Subtitle #9</property>
  <property name="meta.attr.encoder.markup">libebml v1.3.0 + libmatroska v1.4.1</property>
  <property name="meta.attr.creation_time.markup">2015-03-12 04:24:50</property>
  <property name="seekable">1</property>
  <property name="meta.media.sample_aspect_num">1</property>
  <property name="meta.media.sample_aspect_den">1</property>
  <property name="aspect_ratio">1</property>
  <property name="audio_index">1</property>
  <property name="video_index">0</property>
  <property name="mute_on_pause">1</property>
  <property name="mlt_service">avformat</property>
  <property name="meta.media.frame_rate_num">24000</property>
  <property name="meta.media.frame_rate_den">1001</property>
  <property name="meta.media.colorspace">709</property>
  <property name="meta.media.color_trc">2</property>
  <property name="meta.media.width">1280</property>
  <property name="meta.media.height">534</property>
  <property name="meta.media.top_field_first">0</property>
  <property name="meta.media.progressive">1</property>
  <property name="global_feed">1</property>
 </producer>
 <producer id="2_playlist3_audio" out="208056" title="Anonymous Submission" in="0">
  <property name="mlt_type">mlt_producer</property>
  <property name="length">02:24:29:01</property>
  <property name="eof">pause</property>
  <property name="resource">/media/cassi/SilverSqueaker/backup-new/movies/action/hobbit/The.Hobbit.The.Battle.of.the.Five.Armies.2014.720p.BluRay.DTS-ES.x264-tRuEHD.mkv</property>
  <property name="meta.media.nb_streams">11</property>
  <property name="meta.media.0.stream.type">video</property>
  <property name="meta.media.0.stream.frame_rate">23.976</property>
  <property name="meta.media.0.stream.sample_aspect_ratio">1</property>
  <property name="meta.media.0.codec.width">1280</property>
  <property name="meta.media.0.codec.height">534</property>
  <property name="meta.media.0.codec.rotate">0</property>
  <property name="meta.media.0.codec.frame_rate">23.976</property>
  <property name="meta.media.0.codec.pix_fmt">yuv420p</property>
  <property name="meta.media.0.codec.sample_aspect_ratio">1</property>
  <property name="meta.media.0.codec.colorspace">709</property>
  <property name="meta.media.0.codec.name">h264</property>
  <property name="meta.media.0.codec.long_name">H.264 / AVC / MPEG-4 AVC / MPEG-4 part 10</property>
  <property name="meta.media.0.codec.bit_rate">0</property>
  <property name="meta.attr.0.stream.language.markup">eng</property>
  <property name="meta.media.1.stream.type">audio</property>
  <property name="meta.media.1.codec.sample_fmt">fltp</property>
  <property name="meta.media.1.codec.sample_rate">48000</property>
  <property name="meta.media.1.codec.channels">7</property>
  <property name="meta.media.1.codec.name">dca</property>
  <property name="meta.media.1.codec.long_name">DCA (DTS Coherent Acoustics)</property>
  <property name="meta.media.1.codec.bit_rate">1536000</property>
  <property name="meta.attr.1.stream.language.markup">eng</property>
  <property name="meta.attr.1.stream.title.markup">Main Audio</property>
  <property name="meta.media.2.codec.name">srt</property>
  <property name="meta.media.2.codec.long_name">SubRip subtitle</property>
  <property name="meta.media.2.codec.bit_rate">0</property>
  <property name="meta.attr.2.stream.language.markup">eng</property>
  <property name="meta.attr.2.stream.title.markup">Subtitle #1</property>
  <property name="meta.media.3.codec.name">srt</property>
  <property name="meta.media.3.codec.long_name">SubRip subtitle</property>
  <property name="meta.media.3.codec.bit_rate">0</property>
  <property name="meta.attr.3.stream.language.markup">dan</property>
  <property name="meta.attr.3.stream.title.markup">Subtitle #2</property>
  <property name="meta.media.4.codec.name">srt</property>
  <property name="meta.media.4.codec.long_name">SubRip subtitle</property>
  <property name="meta.media.4.codec.bit_rate">0</property>
  <property name="meta.attr.4.stream.language.markup">dut</property>
  <property name="meta.attr.4.stream.title.markup">Subtitle #3</property>
  <property name="meta.media.5.codec.name">srt</property>
  <property name="meta.media.5.codec.long_name">SubRip subtitle</property>
  <property name="meta.media.5.codec.bit_rate">0</property>
  <property name="meta.attr.5.stream.language.markup">nor</property>
  <property name="meta.attr.5.stream.title.markup">Subtitle #4</property>
  <property name="meta.media.6.codec.name">srt</property>
  <property name="meta.media.6.codec.long_name">SubRip subtitle</property>
  <property name="meta.media.6.codec.bit_rate">0</property>
  <property name="meta.attr.6.stream.language.markup">pol</property>
  <property name="meta.attr.6.stream.title.markup">Subtitle #5</property>
  <property name="meta.media.7.codec.name">srt</property>
  <property name="meta.media.7.codec.long_name">SubRip subtitle</property>
  <property name="meta.media.7.codec.bit_rate">0</property>
  <property name="meta.attr.7.stream.language.markup">rum</property>
  <property name="meta.attr.7.stream.title.markup">Subtitle #6</property>
  <property name="meta.media.8.codec.name">srt</property>
  <property name="meta.media.8.codec.long_name">SubRip subtitle</property>
  <property name="meta.media.8.codec.bit_rate">0</property>
  <property name="meta.attr.8.stream.language.markup">spa</property>
  <property name="meta.attr.8.stream.title.markup">Subtitle #7</property>
  <property name="meta.media.9.codec.name">srt</property>
  <property name="meta.media.9.codec.long_name">SubRip subtitle</property>
  <property name="meta.media.9.codec.bit_rate">0</property>
  <property name="meta.attr.9.stream.language.markup">swe</property>
  <property name="meta.attr.9.stream.title.markup">Subtitle #8</property>
  <property name="meta.media.10.codec.name">srt</property>
  <property name="meta.media.10.codec.long_name">SubRip subtitle</property>
  <property name="meta.media.10.codec.bit_rate">0</property>
  <property name="meta.attr.10.stream.language.markup">tur</property>
  <property name="meta.attr.10.stream.title.markup">Subtitle #9</property>
  <property name="meta.attr.encoder.markup">libebml v1.3.0 + libmatroska v1.4.1</property>
  <property name="meta.attr.creation_time.markup">2015-03-12 04:24:50</property>
  <property name="seekable">1</property>
  <property name="meta.media.sample_aspect_num">1</property>
  <property name="meta.media.sample_aspect_den">1</property>
  <property name="aspect_ratio">1</property>
  <property name="audio_index">1</property>
  <property name="video_index">-1</property>
  <property name="mute_on_pause">1</property>
  <property name="mlt_service">avformat</property>
  <property name="kdenlive:file_hash">871be6bb17b23fa99a05acde371b8110</property>
  <property name="kdenlive:file_size">8363749757</property>
  <property name="kdenlive:clipname">The.Hobbit.The.Battle.of.the.Five.Armies.2014.720p.BluRay.DTS-ES.x264-tRuEHD.mkv</property>
  <property name="global_feed">1</property>
  <property name="xml">was here</property>
 </producer>
 <playlist id="playlist3">
  <property name="kdenlive:track_name"/>
  <property name="kdenlive:locked_track">0</property>
  <property name="kdenlive:composite">1</property>
  <entry out="2195" in="0" producer="3_playlist3_audio">
   <filter id="filter116" out="2090">
    <property name="window">75</property>
    <property name="max_gain">20dB</property>
    <property name="mlt_type">filter</property>
    <property name="mlt_service">volume</property>
    <property name="track">0</property>
    <property name="kdenlive_id">volume</property>
    <property name="tag">volume</property>
    <property name="kdenlive_ix">1</property>
    <property name="kdenlive_info"/>
    <property name="gain">1</property>
    <property name="end">1</property>
   </filter>
   <filter id="filter117" out="2195" in="2091">
    <property name="window">75</property>
    <property name="max_gain">20dB</property>
    <property name="mlt_type">filter</property>
    <property name="mlt_service">volume</property>
    <property name="track">0</property>
    <property name="kdenlive_id">volume</property>
    <property name="tag">volume</property>
    <property name="kdenlive_ix">1</property>
    <property name="kdenlive_info"/>
    <property name="gain">1</property>
    <property name="end">0.6</property>
   </filter>
  </entry>
  <entry out="2729" in="2416" producer="3_playlist3_audio">
   <filter id="filter118" out="2729" in="2665">
    <property name="window">75</property>
    <property name="max_gain">20dB</property>
    <property name="mlt_type">filter</property>
    <property name="mlt_service">volume</property>
    <property name="track">0</property>
    <property name="kdenlive_id">fadeout</property>
    <property name="tag">volume</property>
    <property name="kdenlive_ix">1</property>
    <property name="kdenlive_info"/>
    <property name="gain">1</property>
    <property name="end">0</property>
   </filter>
   <filter id="filter119" out="2465" in="2416">
    <property name="window">75</property>
    <property name="max_gain">20dB</property>
    <property name="mlt_type">filter</property>
    <property name="mlt_service">volume</property>
    <property name="track">0</property>
    <property name="kdenlive_id">fadein</property>
    <property name="tag">volume</property>
    <property name="kdenlive_ix">2</property>
    <property name="gain">0</property>
    <property name="end">1</property>
    <property name="kdenlive_info"/>
   </filter>
  </entry>
  <blank length="617"/>
  <entry out="18995" in="18933" producer="3_playlist3">
   <filter id="filter120" in="18933">
    <property name="window">75</property>
    <property name="max_gain">20dB</property>
    <property name="mlt_type">filter</property>
    <property name="mlt_service">volume</property>
    <property name="kdenlive_id">volume</property>
    <property name="tag">volume</property>
    <property name="kdenlive_ix">1</property>
    <property name="kdenlive_info"/>
    <property name="disable"/>
    <property name="gain">0</property>
   </filter>
  </entry>
  <blank length="7868"/>
  <entry out="26315" in="26277" producer="3_playlist3">
   <filter id="filter121" out="26283" in="26277">
    <property name="window">75</property>
    <property name="max_gain">20dB</property>
    <property name="mlt_type">filter</property>
    <property name="mlt_service">volume</property>
    <property name="kdenlive_id">volume</property>
    <property name="tag">volume</property>
    <property name="kdenlive_ix">1</property>
    <property name="kdenlive_info"/>
    <property name="gain">0</property>
    <property name="end">0.5</property>
   </filter>
   <filter id="filter122" out="26310" in="26284">
    <property name="window">75</property>
    <property name="max_gain">20dB</property>
    <property name="mlt_type">filter</property>
    <property name="mlt_service">volume</property>
    <property name="kdenlive_id">volume</property>
    <property name="tag">volume</property>
    <property name="kdenlive_ix">1</property>
    <property name="kdenlive_info"/>
    <property name="gain">0.5</property>
    <property name="end">0.5</property>
   </filter>
   <filter id="filter123" out="26315" in="26311">
    <property name="window">75</property>
    <property name="max_gain">20dB</property>
    <property name="mlt_type">filter</property>
    <property name="mlt_service">volume</property>
    <property name="kdenlive_id">volume</property>
    <property name="tag">volume</property>
    <property name="kdenlive_ix">1</property>
    <property name="kdenlive_info"/>
    <property name="gain">0.4</property>
    <property name="end">0</property>
   </filter>
  </entry>
  <blank length="7634"/>
  <entry out="42165" in="42137" producer="3_playlist3">
   <filter id="filter124" out="42165" in="42137">
    <property name="window">75</property>
    <property name="max_gain">20dB</property>
    <property name="mlt_type">filter</property>
    <property name="mlt_service">volume</property>
    <property name="kdenlive_id">volume</property>
    <property name="tag">volume</property>
    <property name="kdenlive_ix">1</property>
    <property name="kdenlive_info"/>
    <property name="disable"/>
    <property name="gain">0.5</property>
    <property name="end">0</property>
   </filter>
  </entry>
  <blank length="7998"/>
  <entry out="52311" in="52275" producer="3_playlist3">
   <filter id="filter125" out="52287" in="52275">
    <property name="window">75</property>
    <property name="max_gain">20dB</property>
    <property name="mlt_type">filter</property>
    <property name="mlt_service">volume</property>
    <property name="kdenlive_id">volume</property>
    <property name="tag">volume</property>
    <property name="kdenlive_ix">1</property>
    <property name="kdenlive_info"/>
    <property name="disable"/>
    <property name="gain">0</property>
    <property name="end">0</property>
   </filter>
   <filter id="filter126" out="52310" in="52288">
    <property name="window">75</property>
    <property name="max_gain">20dB</property>
    <property name="mlt_type">filter</property>
    <property name="mlt_service">volume</property>
    <property name="kdenlive_id">volume</property>
    <property name="tag">volume</property>
    <property name="kdenlive_ix">1</property>
    <property name="kdenlive_info"/>
    <property name="disable"/>
    <property name="gain">0.0434783</property>
    <property name="end">1</property>
   </filter>
  </entry>
  <blank length="11887"/>
  <entry out="66964" in="66911" producer="3_playlist3">
   <filter id="filter127" out="66964" in="66911">
    <property name="window">75</property>
    <property name="max_gain">20dB</property>
    <property name="mlt_type">filter</property>
    <property name="mlt_service">volume</property>
    <property name="kdenlive_id">volume</property>
    <property name="tag">volume</property>
    <property name="kdenlive_ix">1</property>
    <property name="kdenlive_info"/>
    <property name="disable"/>
    <property name="gain">0.6</property>
    <property name="end">0.6</property>
   </filter>
   <filter id="filter128" out="66964" in="66920">
    <property name="window">75</property>
    <property name="max_gain">20dB</property>
    <property name="mlt_type">filter</property>
    <property name="mlt_service">volume</property>
    <property name="kdenlive_id">fadeout</property>
    <property name="tag">volume</property>
    <property name="kdenlive_ix">2</property>
    <property name="kdenlive_info">0/-1/</property>
    <property name="disable"/>
    <property name="gain">1</property>
    <property name="end">0</property>
   </filter>
  </entry>
  <blank length="28126"/>
  <entry out="126368" in="126252" producer="3_playlist3">
   <filter id="filter129" out="126368" in="126252">
    <property name="window">75</property>
    <property name="max_gain">20dB</property>
    <property name="mlt_type">filter</property>
    <property name="mlt_service">volume</property>
    <property name="kdenlive_id">fadein</property>
    <property name="tag">volume</property>
    <property name="kdenlive_ix">1</property>
    <property name="kdenlive_info"/>
    <property name="disable"/>
    <property name="gain">0</property>
    <property name="end">1</property>
   </filter>
  </entry>
  <blank length="3978"/>
  <entry out="131625" in="131592" producer="3_playlist3">
   <filter id="filter130" out="131620" in="131592">
    <property name="window">75</property>
    <property name="max_gain">20dB</property>
    <property name="mlt_type">filter</property>
    <property name="mlt_service">volume</property>
    <property name="kdenlive_id">volume</property>
    <property name="tag">volume</property>
    <property name="kdenlive_ix">1</property>
    <property name="kdenlive_info"/>
    <property name="disable"/>
    <property name="gain">1</property>
    <property name="end">1.31</property>
   </filter>
   <filter id="filter131" out="131625" in="131621">
    <property name="window">75</property>
    <property name="max_gain">20dB</property>
    <property name="mlt_type">filter</property>
    <property name="mlt_service">volume</property>
    <property name="kdenlive_id">volume</property>
    <property name="tag">volume</property>
    <property name="kdenlive_ix">1</property>
    <property name="kdenlive_info"/>
    <property name="disable"/>
    <property name="gain">1.248</property>
    <property name="end">1</property>
   </filter>
  </entry>
  <entry out="132039" in="132030" producer="3_playlist3">
   <filter id="filter132" in="132030">
    <property name="window">75</property>
    <property name="max_gain">20dB</property>
    <property name="mlt_type">filter</property>
    <property name="mlt_service">volume</property>
    <property name="kdenlive_id">volume</property>
    <property name="tag">volume</property>
    <property name="kdenlive_ix">1</property>
    <property name="kdenlive_info"/>
    <property name="disable"/>
    <property name="gain">1</property>
   </filter>
  </entry>
  <entry out="132145" in="132119" producer="3_playlist3">
   <filter id="filter133" in="132119">
    <property name="window">75</property>
    <property name="max_gain">20dB</property>
    <property name="mlt_type">filter</property>
    <property name="mlt_service">volume</property>
    <property name="kdenlive_id">volume</property>
    <property name="tag">volume</property>
    <property name="kdenlive_ix">1</property>
    <property name="kdenlive_info"/>
    <property name="disable"/>
    <property name="gain">1</property>
   </filter>
  </entry>
  <entry out="132039" in="132030" producer="3_playlist3">
   <filter id="filter134" in="132030">
    <property name="window">75</property>
    <property name="max_gain">20dB</property>
    <property name="mlt_type">filter</property>
    <property name="mlt_service">volume</property>
    <property name="kdenlive_id">volume</property>
    <property name="tag">volume</property>
    <property name="kdenlive_ix">1</property>
    <property name="kdenlive_info"/>
    <property name="disable"/>
    <property name="gain">1</property>
   </filter>
  </entry>
  <entry out="132039" in="132030" producer="3_playlist3">
   <filter id="filter135" in="132030">
    <property name="window">75</property>
    <property name="max_gain">20dB</property>
    <property name="mlt_type">filter</property>
    <property name="mlt_service">volume</property>
    <property name="kdenlive_id">volume</property>
    <property name="tag">volume</property>
    <property name="kdenlive_ix">1</property>
    <property name="kdenlive_info"/>
    <property name="disable"/>
    <property name="gain">1</property>
   </filter>
  </entry>
  <entry out="132145" in="132119" producer="3_playlist3">
   <filter id="filter136" in="132119">
    <property name="window">75</property>
    <property name="max_gain">20dB</property>
    <property name="mlt_type">filter</property>
    <property name="mlt_service">volume</property>
    <property name="kdenlive_id">volume</property>
    <property name="tag">volume</property>
    <property name="kdenlive_ix">1</property>
    <property name="kdenlive_info"/>
    <property name="disable"/>
    <property name="gain">1</property>
   </filter>
   <filter id="filter137" out="132145" in="132119">
    <property name="window">75</property>
    <property name="max_gain">20dB</property>
    <property name="mlt_type">filter</property>
    <property name="mlt_service">volume</property>
    <property name="kdenlive_id">fadeout</property>
    <property name="tag">volume</property>
    <property name="kdenlive_ix">2</property>
    <property name="kdenlive_info"/>
    <property name="disable"/>
    <property name="gain">1</property>
    <property name="end">0</property>
   </filter>
  </entry>
  <blank length="287"/>
  <entry out="237990" in="237542" producer="3_playlist3">
   <filter id="filter138" out="237643" in="237542">
    <property name="window">75</property>
    <property name="max_gain">20dB</property>
    <property name="mlt_type">filter</property>
    <property name="mlt_service">volume</property>
    <property name="kdenlive_id">volume</property>
    <property name="tag">volume</property>
    <property name="kdenlive_ix">1</property>
    <property name="kdenlive_info"/>
    <property name="disable"/>
    <property name="gain">0</property>
    <property name="end">0.4</property>
   </filter>
   <filter id="filter139" out="237678" in="237644">
    <property name="window">75</property>
    <property name="max_gain">20dB</property>
    <property name="mlt_type">filter</property>
    <property name="mlt_service">volume</property>
    <property name="kdenlive_id">volume</property>
    <property name="tag">volume</property>
    <property name="kdenlive_ix">1</property>
    <property name="kdenlive_info"/>
    <property name="disable"/>
    <property name="gain">0.393429</property>
    <property name="end">0.17</property>
   </filter>
   <filter id="filter140" out="237911" in="237679">
    <property name="window">75</property>
    <property name="max_gain">20dB</property>
    <property name="mlt_type">filter</property>
    <property name="mlt_service">volume</property>
    <property name="kdenlive_id">volume</property>
    <property name="tag">volume</property>
    <property name="kdenlive_ix">1</property>
    <property name="kdenlive_info"/>
    <property name="disable"/>
    <property name="gain">0.17</property>
    <property name="end">0.17</property>
   </filter>
   <filter id="filter141" out="237991" in="237912">
    <property name="window">75</property>
    <property name="max_gain">20dB</property>
    <property name="mlt_type">filter</property>
    <property name="mlt_service">volume</property>
    <property name="kdenlive_id">volume</property>
    <property name="tag">volume</property>
    <property name="kdenlive_ix">1</property>
    <property name="kdenlive_info"/>
    <property name="disable"/>
    <property name="gain">0.167875</property>
    <property name="end">0</property>
   </filter>
  </entry>
  <blank length="1495"/>
  <entry out="150554" in="150409" producer="3_playlist3">
   <filter id="filter142" out="150412" in="150409">
    <property name="window">75</property>
    <property name="max_gain">20dB</property>
    <property name="mlt_type">filter</property>
    <property name="mlt_service">volume</property>
    <property name="kdenlive_id">volume</property>
    <property name="tag">volume</property>
    <property name="kdenlive_ix">1</property>
    <property name="kdenlive_info"/>
    <property name="disable"/>
    <property name="gain">0</property>
    <property name="end">0.4</property>
   </filter>
   <filter id="filter143" out="150550" in="150413">
    <property name="window">75</property>
    <property name="max_gain">20dB</property>
    <property name="mlt_type">filter</property>
    <property name="mlt_service">volume</property>
    <property name="kdenlive_id">volume</property>
    <property name="tag">volume</property>
    <property name="kdenlive_ix">1</property>
    <property name="kdenlive_info"/>
    <property name="disable"/>
    <property name="gain">0.4</property>
    <property name="end">0.4</property>
   </filter>
   <filter id="filter144" out="150555" in="150551">
    <property name="window">75</property>
    <property name="max_gain">20dB</property>
    <property name="mlt_type">filter</property>
    <property name="mlt_service">volume</property>
    <property name="kdenlive_id">volume</property>
    <property name="tag">volume</property>
    <property name="kdenlive_ix">1</property>
    <property name="kdenlive_info"/>
    <property name="disable"/>
    <property name="gain">0.32</property>
    <property name="end">0</property>
   </filter>
  </entry>
  <blank length="1240"/>
  <entry out="150500" in="150409" producer="3_playlist3">
   <filter id="filter111" out="150412" in="150409">
    <property name="window">75</property>
    <property name="max_gain">20dB</property>
    <property name="mlt_type">filter</property>
    <property name="mlt_service">volume</property>
    <property name="kdenlive_id">volume</property>
    <property name="tag">volume</property>
    <property name="kdenlive_ix">1</property>
    <property name="kdenlive_info"/>
    <property name="disable"/>
    <property name="gain">0</property>
    <property name="end">0.9</property>
   </filter>
   <filter id="filter112" out="150448" in="150413">
    <property name="window">75</property>
    <property name="max_gain">20dB</property>
    <property name="mlt_type">filter</property>
    <property name="mlt_service">volume</property>
    <property name="kdenlive_id">volume</property>
    <property name="tag">volume</property>
    <property name="kdenlive_ix">1</property>
    <property name="kdenlive_info"/>
    <property name="disable"/>
    <property name="gain">0.9</property>
    <property name="end">0.9</property>
   </filter>
   <filter id="filter113" out="150454" in="150449">
    <property name="window">75</property>
    <property name="max_gain">20dB</property>
    <property name="mlt_type">filter</property>
    <property name="mlt_service">volume</property>
    <property name="kdenlive_id">volume</property>
    <property name="tag">volume</property>
    <property name="kdenlive_ix">1</property>
    <property name="kdenlive_info"/>
    <property name="disable"/>
    <property name="gain">0.9</property>
    <property name="end">0.9</property>
   </filter>
   <filter id="filter114" out="150471" in="150455">
    <property name="window">75</property>
    <property name="max_gain">20dB</property>
    <property name="mlt_type">filter</property>
    <property name="mlt_service">volume</property>
    <property name="kdenlive_id">volume</property>
    <property name="tag">volume</property>
    <property name="kdenlive_ix">1</property>
    <property name="kdenlive_info"/>
    <property name="disable"/>
    <property name="gain">0.870588</property>
    <property name="end">0.4</property>
   </filter>
   <filter id="filter115" out="150494" in="150472">
    <property name="window">75</property>
    <property name="max_gain">20dB</property>
    <property name="mlt_type">filter</property>
    <property name="mlt_service">volume</property>
    <property name="kdenlive_id">volume</property>
    <property name="tag">volume</property>
    <property name="kdenlive_ix">1</property>
    <property name="kdenlive_info"/>
    <property name="disable"/>
    <property name="gain">0.384783</property>
    <property name="end">0.05</property>
   </filter>
   <filter id="filter145" out="150501" in="150495">
    <property name="window">75</property>
    <property name="max_gain">20dB</property>
    <property name="mlt_type">filter</property>
    <property name="mlt_service">volume</property>
    <property name="kdenlive_id">volume</property>
    <property name="tag">volume</property>
    <property name="kdenlive_ix">1</property>
    <property name="kdenlive_info"/>
    <property name="disable"/>
    <property name="gain">0.0428571</property>
    <property name="end">0</property>
   </filter>
  </entry>
  <blank length="5305"/>
  <entry out="190706" in="190687" producer="3_playlist3">
   <filter id="filter151" out="190707" in="190687">
    <property name="window">75</property>
    <property name="max_gain">20dB</property>
    <property name="mlt_type">filter</property>
    <property name="mlt_service">volume</property>
    <property name="kdenlive_id">volume</property>
    <property name="tag">volume</property>
    <property name="kdenlive_ix">1</property>
    <property name="kdenlive_info"/>
    <property name="disable"/>
    <property name="gain">0.8</property>
    <property name="end">0</property>
   </filter>
  </entry>
  <blank length="17883"/>
  <entry out="196458" in="196441" producer="3_playlist3">
   <filter id="filter152" out="196445" in="196441">
    <property name="window">75</property>
    <property name="max_gain">20dB</property>
    <property name="mlt_type">filter</property>
    <property name="mlt_service">volume</property>
    <property name="kdenlive_id">volume</property>
    <property name="tag">volume</property>
    <property name="kdenlive_ix">1</property>
    <property name="kdenlive_info"/>
    <property name="disable"/>
    <property name="gain">0</property>
    <property name="end">0.06</property>
   </filter>
   <filter id="filter153" out="196458" in="196446">
    <property name="window">75</property>
    <property name="max_gain">20dB</property>
    <property name="mlt_type">filter</property>
    <property name="mlt_service">volume</property>
    <property name="kdenlive_id">volume</property>
    <property name="tag">volume</property>
    <property name="kdenlive_ix">1</property>
    <property name="kdenlive_info"/>
    <property name="disable"/>
    <property name="gain">0.0553846</property>
    <property name="end">0</property>
   </filter>
  </entry>
  <blank length="5507"/>
  <entry out="202623" in="202531" producer="3_playlist3">
   <filter id="filter154" out="202541" in="202531">
    <property name="window">75</property>
    <property name="max_gain">20dB</property>
    <property name="mlt_type">filter</property>
    <property name="mlt_service">volume</property>
    <property name="kdenlive_id">volume</property>
    <property name="tag">volume</property>
    <property name="kdenlive_ix">1</property>
    <property name="kdenlive_info"/>
    <property name="disable"/>
    <property name="gain">0</property>
    <property name="end">1</property>
   </filter>
   <filter id="filter155" out="202546" in="202542">
    <property name="window">75</property>
    <property name="max_gain">20dB</property>
    <property name="mlt_type">filter</property>
    <property name="mlt_service">volume</property>
    <property name="kdenlive_id">volume</property>
    <property name="tag">volume</property>
    <property name="kdenlive_ix">1</property>
    <property name="kdenlive_info"/>
    <property name="disable"/>
    <property name="gain">1</property>
    <property name="end">1</property>
   </filter>
   <filter id="filter156" out="202557" in="202547">
    <property name="window">75</property>
    <property name="max_gain">20dB</property>
    <property name="mlt_type">filter</property>
    <property name="mlt_service">volume</property>
    <property name="kdenlive_id">volume</property>
    <property name="tag">volume</property>
    <property name="kdenlive_ix">1</property>
    <property name="kdenlive_info"/>
    <property name="disable"/>
    <property name="gain">0.972727</property>
    <property name="end">0.7</property>
   </filter>
   <filter id="filter157" out="202618" in="202558">
    <property name="window">75</property>
    <property name="max_gain">20dB</property>
    <property name="mlt_type">filter</property>
    <property name="mlt_service">volume</property>
    <property name="kdenlive_id">volume</property>
    <property name="tag">volume</property>
    <property name="kdenlive_ix">1</property>
    <property name="kdenlive_info"/>
    <property name="disable"/>
    <property name="gain">0.701639</property>
    <property name="end">0.8</property>
   </filter>
   <filter id="filter158" out="202623" in="202619">
    <property name="window">75</property>
    <property name="max_gain">20dB</property>
    <property name="mlt_type">filter</property>
    <property name="mlt_service">volume</property>
    <property name="kdenlive_id">volume</property>
    <property name="tag">volume</property>
    <property name="kdenlive_ix">1</property>
    <property name="kdenlive_info"/>
    <property name="disable"/>
    <property name="gain">0.64</property>
    <property name="end">0</property>
   </filter>
  </entry>
  <blank length="4205"/>
  <entry out="211924" in="211847" producer="3_playlist3">
   <filter id="filter159" out="211895" in="211847">
    <property name="window">75</property>
    <property name="max_gain">20dB</property>
    <property name="mlt_type">filter</property>
    <property name="mlt_service">volume</property>
    <property name="kdenlive_id">fadein</property>
    <property name="tag">volume</property>
    <property name="kdenlive_ix">1</property>
    <property name="kdenlive_info"/>
    <property name="disable"/>
    <property name="gain">0</property>
    <property name="end">1</property>
   </filter>
   <filter id="filter160" in="211847">
    <property name="window">75</property>
    <property name="max_gain">20dB</property>
    <property name="mlt_type">filter</property>
    <property name="mlt_service">volume</property>
    <property name="kdenlive_id">volume</property>
    <property name="tag">volume</property>
    <property name="kdenlive_ix">2</property>
    <property name="kdenlive_info"/>
    <property name="disable"/>
    <property name="gain">0.5</property>
   </filter>
  </entry>
  <blank length="1636"/>
  <entry out="213891" in="213864" producer="3_playlist3">
   <filter id="filter161" out="213892" in="213864">
    <property name="window">75</property>
    <property name="max_gain">20dB</property>
    <property name="mlt_type">filter</property>
    <property name="mlt_service">volume</property>
    <property name="kdenlive_id">fadeout</property>
    <property name="tag">volume</property>
    <property name="kdenlive_ix">1</property>
    <property name="kdenlive_info"/>
    <property name="disable"/>
    <property name="gain">1</property>
    <property name="end">0</property>
   </filter>
   <filter id="filter162" in="213864">
    <property name="window">75</property>
    <property name="max_gain">20dB</property>
    <property name="mlt_type">filter</property>
    <property name="mlt_service">volume</property>
    <property name="kdenlive_id">volume</property>
    <property name="tag">volume</property>
    <property name="kdenlive_ix">2</property>
    <property name="kdenlive_info"/>
    <property name="disable"/>
    <property name="gain">0.5</property>
   </filter>
  </entry>
  <blank length="484"/>
  <entry out="220979" in="220895" producer="3_playlist3">
   <filter id="filter163" in="220895">
    <property name="window">75</property>
    <property name="max_gain">20dB</property>
    <property name="mlt_type">filter</property>
    <property name="mlt_service">volume</property>
    <property name="kdenlive_id">volume</property>
    <property name="tag">volume</property>
    <property name="kdenlive_ix">1</property>
    <property name="kdenlive_info"/>
    <property name="disable"/>
    <property name="gain">0.7</property>
   </filter>
   <filter id="filter164" out="220970" in="220895">
    <property name="window">75</property>
    <property name="max_gain">20dB</property>
    <property name="mlt_type">filter</property>
    <property name="mlt_service">volume</property>
    <property name="kdenlive_id">fadein</property>
    <property name="tag">volume</property>
    <property name="kdenlive_ix">2</property>
    <property name="kdenlive_info"/>
    <property name="disable"/>
    <property name="gain">0</property>
    <property name="end">1</property>
   </filter>
  </entry>
  <blank length="903"/>
  <entry out="228239" in="227940" producer="3_playlist3">
   <filter id="filter165" out="228015" in="227940">
    <property name="window">75</property>
    <property name="max_gain">20dB</property>
    <property name="mlt_type">filter</property>
    <property name="mlt_service">volume</property>
    <property name="kdenlive_id">fadein</property>
    <property name="tag">volume</property>
    <property name="kdenlive_ix">1</property>
    <property name="kdenlive_info"/>
    <property name="disable"/>
    <property name="gain">0</property>
    <property name="end">1</property>
   </filter>
   <filter id="filter166" out="228239" in="228164">
    <property name="window">75</property>
    <property name="max_gain">20dB</property>
    <property name="mlt_type">filter</property>
    <property name="mlt_service">volume</property>
    <property name="kdenlive_id">fadeout</property>
    <property name="tag">volume</property>
    <property name="kdenlive_ix">2</property>
    <property name="kdenlive_info"/>
    <property name="disable"/>
    <property name="gain">1</property>
    <property name="end">0</property>
   </filter>
  </entry>
  <blank length="1066"/>
  <entry out="149294" in="148524" producer="3_playlist3_audio">
   <filter id="filter167" out="148623" in="148524">
    <property name="window">75</property>
    <property name="max_gain">20dB</property>
    <property name="mlt_type">filter</property>
    <property name="mlt_service">volume</property>
    <property name="kdenlive_id">volume</property>
    <property name="tag">volume</property>
    <property name="kdenlive_ix">1</property>
    <property name="kdenlive_info"/>
    <property name="disable"/>
    <property name="gain">0</property>
    <property name="end">0.6</property>
   </filter>
   <filter id="filter168" out="149224" in="148624">
    <property name="window">75</property>
    <property name="max_gain">20dB</property>
    <property name="mlt_type">filter</property>
    <property name="mlt_service">volume</property>
    <property name="kdenlive_id">volume</property>
    <property name="tag">volume</property>
    <property name="kdenlive_ix">1</property>
    <property name="kdenlive_info"/>
    <property name="disable"/>
    <property name="gain">0.6</property>
    <property name="end">0.6</property>
   </filter>
   <filter id="filter169" out="149251" in="149225">
    <property name="window">75</property>
    <property name="max_gain">20dB</property>
    <property name="mlt_type">filter</property>
    <property name="mlt_service">volume</property>
    <property name="kdenlive_id">volume</property>
    <property name="tag">volume</property>
    <property name="kdenlive_ix">1</property>
    <property name="kdenlive_info"/>
    <property name="disable"/>
    <property name="gain">0.589259</property>
    <property name="end">0.31</property>
   </filter>
   <filter id="filter170" out="149294" in="149252">
    <property name="window">75</property>
    <property name="max_gain">20dB</property>
    <property name="mlt_type">filter</property>
    <property name="mlt_service">volume</property>
    <property name="kdenlive_id">volume</property>
    <property name="tag">volume</property>
    <property name="kdenlive_ix">1</property>
    <property name="kdenlive_info"/>
    <property name="disable"/>
    <property name="gain">0.302791</property>
    <property name="end">0</property>
   </filter>
  </entry>
  <blank length="5932"/>
  <entry out="23417" in="23397" producer="1_playlist3_audio">
   <filter id="filter171" out="23417" in="23397">
    <property name="window">75</property>
    <property name="max_gain">20dB</property>
    <property name="mlt_type">filter</property>
    <property name="mlt_service">volume</property>
    <property name="kdenlive_id">fadeout</property>
    <property name="tag">volume</property>
    <property name="kdenlive_ix">1</property>
    <property name="kdenlive_info"/>
    <property name="disable"/>
    <property name="gain">1</property>
    <property name="end">0</property>
   </filter>
  </entry>
  <blank length="12217"/>
  <entry out="39604" in="39400" producer="1_playlist3">
   <filter id="filter172" out="39425" in="39400">
    <property name="window">75</property>
    <property name="max_gain">20dB</property>
    <property name="mlt_type">filter</property>
    <property name="mlt_service">volume</property>
    <property name="kdenlive_id">volume</property>
    <property name="tag">volume</property>
    <property name="kdenlive_ix">1</property>
    <property name="kdenlive_info"/>
    <property name="disable"/>
    <property name="gain">0</property>
    <property name="end">1</property>
   </filter>
   <filter id="filter173" out="39591" in="39426">
    <property name="window">75</property>
    <property name="max_gain">20dB</property>
    <property name="mlt_type">filter</property>
    <property name="mlt_service">volume</property>
    <property name="kdenlive_id">volume</property>
    <property name="tag">volume</property>
    <property name="kdenlive_ix">1</property>
    <property name="kdenlive_info"/>
    <property name="disable"/>
    <property name="gain">1</property>
    <property name="end">1</property>
   </filter>
   <filter id="filter174" out="39604" in="39592">
    <property name="window">75</property>
    <property name="max_gain">20dB</property>
    <property name="mlt_type">filter</property>
    <property name="mlt_service">volume</property>
    <property name="kdenlive_id">volume</property>
    <property name="tag">volume</property>
    <property name="kdenlive_ix">1</property>
    <property name="kdenlive_info"/>
    <property name="disable"/>
    <property name="gain">0.933077</property>
    <property name="end">0.13</property>
   </filter>
  </entry>
  <blank length="8829"/>
  <entry out="53739" in="53715" producer="1_playlist3">
   <filter id="filter175" out="53739" in="53715">
    <property name="window">75</property>
    <property name="max_gain">20dB</property>
    <property name="mlt_type">filter</property>
    <property name="mlt_service">volume</property>
    <property name="kdenlive_id">volume</property>
    <property name="tag">volume</property>
    <property name="kdenlive_ix">1</property>
    <property name="kdenlive_info"/>
    <property name="disable"/>
    <property name="gain">0</property>
    <property name="end">1</property>
   </filter>
  </entry>
  <entry out="53421" in="53417" producer="1_playlist3">
   <filter id="filter176" out="53422" in="53417">
    <property name="window">75</property>
    <property name="max_gain">20dB</property>
    <property name="mlt_type">filter</property>
    <property name="mlt_service">volume</property>
    <property name="kdenlive_id">fadeout</property>
    <property name="tag">volume</property>
    <property name="kdenlive_ix">1</property>
    <property name="kdenlive_info"/>
    <property name="disable"/>
    <property name="gain">1</property>
    <property name="end">0</property>
   </filter>
  </entry>
  <blank length="3586"/>
  <entry out="57690" in="57537" producer="1_playlist3">
   <filter id="filter177" out="57685" in="57537">
    <property name="window">75</property>
    <property name="max_gain">20dB</property>
    <property name="mlt_type">filter</property>
    <property name="mlt_service">volume</property>
    <property name="kdenlive_id">fadein</property>
    <property name="tag">volume</property>
    <property name="kdenlive_ix">1</property>
    <property name="kdenlive_info"/>
    <property name="disable"/>
    <property name="gain">0</property>
    <property name="end">1</property>
   </filter>
   <filter id="filter178" out="57690" in="57615">
    <property name="window">75</property>
    <property name="max_gain">20dB</property>
    <property name="mlt_type">filter</property>
    <property name="mlt_service">volume</property>
    <property name="kdenlive_id">fadeout</property>
    <property name="tag">volume</property>
    <property name="kdenlive_ix">2</property>
    <property name="kdenlive_info"/>
    <property name="disable"/>
    <property name="gain">1</property>
    <property name="end">0</property>
   </filter>
   <filter id="filter179" out="57658" in="57537">
    <property name="window">75</property>
    <property name="max_gain">20dB</property>
    <property name="mlt_type">filter</property>
    <property name="mlt_service">volume</property>
    <property name="kdenlive_id">volume</property>
    <property name="tag">volume</property>
    <property name="kdenlive_ix">3</property>
    <property name="kdenlive_info"/>
    <property name="disable"/>
    <property name="gain">1</property>
    <property name="end">1</property>
   </filter>
   <filter id="filter180" out="57670" in="57659">
    <property name="window">75</property>
    <property name="max_gain">20dB</property>
    <property name="mlt_type">filter</property>
    <property name="mlt_service">volume</property>
    <property name="kdenlive_id">volume</property>
    <property name="tag">volume</property>
    <property name="kdenlive_ix">3</property>
    <property name="kdenlive_info"/>
    <property name="disable"/>
    <property name="gain">0.931667</property>
    <property name="end">0.18</property>
   </filter>
   <filter id="filter181" out="57681" in="57671">
    <property name="window">75</property>
    <property name="max_gain">20dB</property>
    <property name="mlt_type">filter</property>
    <property name="mlt_service">volume</property>
    <property name="kdenlive_id">volume</property>
    <property name="tag">volume</property>
    <property name="kdenlive_ix">3</property>
    <property name="kdenlive_info"/>
    <property name="disable"/>
    <property name="gain">0.163636</property>
    <property name="end">0</property>
   </filter>
   <filter id="filter182" out="57690" in="57682">
    <property name="window">75</property>
    <property name="max_gain">20dB</property>
    <property name="mlt_type">filter</property>
    <property name="mlt_service">volume</property>
    <property name="kdenlive_id">volume</property>
    <property name="tag">volume</property>
    <property name="kdenlive_ix">3</property>
    <property name="kdenlive_info"/>
    <property name="disable"/>
    <property name="gain">0</property>
    <property name="end">0</property>
   </filter>
   <filter id="filter183" in="57537">
    <property name="window">75</property>
    <property name="max_gain">20dB</property>
    <property name="mlt_type">filter</property>
    <property name="mlt_service">volume</property>
    <property name="kdenlive_id">volume</property>
    <property name="tag">volume</property>
    <property name="kdenlive_ix">4</property>
    <property name="kdenlive_info"/>
    <property name="disable"/>
    <property name="gain">1</property>
   </filter>
  </entry>
  <blank length="4194"/>
  <entry out="71161" in="70392" producer="1_playlist3">
   <filter id="filter184" out="71162" in="71139">
    <property name="window">75</property>
    <property name="max_gain">20dB</property>
    <property name="mlt_type">filter</property>
    <property name="mlt_service">volume</property>
    <property name="kdenlive_id">fadeout</property>
    <property name="tag">volume</property>
    <property name="kdenlive_ix">1</property>
    <property name="kdenlive_info"/>
    <property name="disable"/>
    <property name="gain">1</property>
    <property name="end">0</property>
   </filter>
   <filter id="filter185" out="70412" in="70392">
    <property name="window">75</property>
    <property name="max_gain">20dB</property>
    <property name="mlt_type">filter</property>
    <property name="mlt_service">volume</property>
    <property name="kdenlive_id">fadein</property>
    <property name="tag">volume</property>
    <property name="kdenlive_ix">2</property>
    <property name="kdenlive_info"/>
    <property name="disable"/>
    <property name="gain">0</property>
    <property name="end">1</property>
   </filter>
   <filter id="filter186" in="70392">
    <property name="window">75</property>
    <property name="max_gain">20dB</property>
    <property name="mlt_type">filter</property>
    <property name="mlt_service">volume</property>
    <property name="kdenlive_id">volume</property>
    <property name="tag">volume</property>
    <property name="kdenlive_ix">3</property>
    <property name="kdenlive_info"/>
    <property name="disable"/>
    <property name="gain">1</property>
   </filter>
  </entry>
  <blank length="10612"/>
  <entry out="89465" in="89436" producer="1_playlist3">
   <filter id="filter187" in="89436">
    <property name="window">75</property>
    <property name="max_gain">20dB</property>
    <property name="mlt_type">filter</property>
    <property name="mlt_service">volume</property>
    <property name="kdenlive_id">volume</property>
    <property name="tag">volume</property>
    <property name="kdenlive_ix">1</property>
    <property name="kdenlive_info"/>
    <property name="disable"/>
    <property name="gain">1.2</property>
   </filter>
   <filter id="filter188" out="89466" in="89436">
    <property name="window">75</property>
    <property name="max_gain">20dB</property>
    <property name="mlt_type">filter</property>
    <property name="mlt_service">volume</property>
    <property name="kdenlive_id">fadeout</property>
    <property name="tag">volume</property>
    <property name="kdenlive_ix">2</property>
    <property name="kdenlive_info"/>
    <property name="disable"/>
    <property name="gain">1</property>
    <property name="end">0</property>
   </filter>
  </entry>
  <blank length="140"/>
  <entry out="95141" in="95131" producer="1_playlist3">
   <filter id="filter189" out="95137" in="95131">
    <property name="window">75</property>
    <property name="max_gain">20dB</property>
    <property name="mlt_type">filter</property>
    <property name="mlt_service">volume</property>
    <property name="kdenlive_id">volume</property>
    <property name="tag">volume</property>
    <property name="kdenlive_ix">1</property>
    <property name="kdenlive_info"/>
    <property name="disable"/>
    <property name="gain">1</property>
    <property name="end">0.81</property>
   </filter>
   <filter id="filter190" out="95141" in="95138">
    <property name="window">75</property>
    <property name="max_gain">20dB</property>
    <property name="mlt_type">filter</property>
    <property name="mlt_service">volume</property>
    <property name="kdenlive_id">volume</property>
    <property name="tag">volume</property>
    <property name="kdenlive_ix">1</property>
    <property name="kdenlive_info"/>
    <property name="disable"/>
    <property name="gain">0.6075</property>
    <property name="end">0</property>
   </filter>
  </entry>
  <blank length="5"/>
  <entry out="95228" in="95161" producer="1_playlist3">
   <filter id="filter191" out="95170" in="95161">
    <property name="window">75</property>
    <property name="max_gain">20dB</property>
    <property name="mlt_type">filter</property>
    <property name="mlt_service">volume</property>
    <property name="kdenlive_id">volume</property>
    <property name="tag">volume</property>
    <property name="kdenlive_ix">1</property>
    <property name="kdenlive_info"/>
    <property name="disable"/>
    <property name="gain">0</property>
    <property name="end">0</property>
   </filter>
   <filter id="filter192" out="95172" in="95171">
    <property name="window">75</property>
    <property name="max_gain">20dB</property>
    <property name="mlt_type">filter</property>
    <property name="mlt_service">volume</property>
    <property name="kdenlive_id">volume</property>
    <property name="tag">volume</property>
    <property name="kdenlive_ix">1</property>
    <property name="kdenlive_info"/>
    <property name="disable"/>
    <property name="gain">0.1</property>
    <property name="end">0.2</property>
   </filter>
   <filter id="filter193" out="95177" in="95173">
    <property name="window">75</property>
    <property name="max_gain">20dB</property>
    <property name="mlt_type">filter</property>
    <property name="mlt_service">volume</property>
    <property name="kdenlive_id">volume</property>
    <property name="tag">volume</property>
    <property name="kdenlive_ix">1</property>
    <property name="kdenlive_info"/>
    <property name="disable"/>
    <property name="gain">0.25</property>
    <property name="end">0.45</property>
   </filter>
   <filter id="filter194" out="95201" in="95178">
    <property name="window">75</property>
    <property name="max_gain">20dB</property>
    <property name="mlt_type">filter</property>
    <property name="mlt_service">volume</property>
    <property name="kdenlive_id">volume</property>
    <property name="tag">volume</property>
    <property name="kdenlive_ix">1</property>
    <property name="kdenlive_info"/>
    <property name="disable"/>
    <property name="gain">0.45</property>
    <property name="end">0.45</property>
   </filter>
   <filter id="filter195" out="95228" in="95202">
    <property name="window">75</property>
    <property name="max_gain">20dB</property>
    <property name="mlt_type">filter</property>
    <property name="mlt_service">volume</property>
    <property name="kdenlive_id">volume</property>
    <property name="tag">volume</property>
    <property name="kdenlive_ix">1</property>
    <property name="kdenlive_info"/>
    <property name="disable"/>
    <property name="gain">0.433333</property>
    <property name="end">0</property>
   </filter>
  </entry>
  <blank length="418"/>
  <entry out="104352" in="104332" producer="1_playlist3">
   <filter id="filter196" out="104353" in="104332">
    <property name="window">75</property>
    <property name="max_gain">20dB</property>
    <property name="mlt_type">filter</property>
    <property name="mlt_service">volume</property>
    <property name="kdenlive_id">volume</property>
    <property name="tag">volume</property>
    <property name="kdenlive_ix">1</property>
    <property name="kdenlive_info"/>
    <property name="disable"/>
    <property name="gain">1</property>
    <property name="end">0</property>
   </filter>
  </entry>
  <blank length="574"/>
  <entry out="105785" in="105769" producer="1_playlist3">
   <filter id="filter197" out="105785" in="105769">
    <property name="window">75</property>
    <property name="max_gain">20dB</property>
    <property name="mlt_type">filter</property>
    <property name="mlt_service">volume</property>
    <property name="kdenlive_id">fadein</property>
    <property name="tag">volume</property>
    <property name="kdenlive_ix">1</property>
    <property name="kdenlive_info"/>
    <property name="disable"/>
    <property name="gain">0</property>
    <property name="end">1</property>
   </filter>
   <filter id="filter198" in="105769">
    <property name="window">75</property>
    <property name="max_gain">20dB</property>
    <property name="mlt_type">filter</property>
    <property name="mlt_service">volume</property>
    <property name="kdenlive_id">volume</property>
    <property name="tag">volume</property>
    <property name="kdenlive_ix">2</property>
    <property name="kdenlive_info"/>
    <property name="disable"/>
    <property name="gain">0.8</property>
   </filter>
  </entry>
  <blank length="2517"/>
  <entry out="118899" in="118865" producer="1_playlist3">
   <filter id="filter199" out="118894" in="118865">
    <property name="window">75</property>
    <property name="max_gain">20dB</property>
    <property name="mlt_type">filter</property>
    <property name="mlt_service">volume</property>
    <property name="kdenlive_id">fadein</property>
    <property name="tag">volume</property>
    <property name="kdenlive_ix">1</property>
    <property name="kdenlive_info"/>
    <property name="disable"/>
    <property name="gain">0</property>
    <property name="end">1</property>
   </filter>
  </entry>
  <blank length="475"/>
  <entry out="122766" in="122530" producer="1_playlist3">
   <filter id="filter200" out="122536" in="122530">
    <property name="window">75</property>
    <property name="max_gain">20dB</property>
    <property name="mlt_type">filter</property>
    <property name="mlt_service">volume</property>
    <property name="kdenlive_id">volume</property>
    <property name="tag">volume</property>
    <property name="kdenlive_ix">1</property>
    <property name="kdenlive_info"/>
    <property name="disable"/>
    <property name="gain">0</property>
    <property name="end">0.1</property>
   </filter>
   <filter id="filter201" out="122548" in="122537">
    <property name="window">75</property>
    <property name="max_gain">20dB</property>
    <property name="mlt_type">filter</property>
    <property name="mlt_service">volume</property>
    <property name="kdenlive_id">volume</property>
    <property name="tag">volume</property>
    <property name="kdenlive_ix">1</property>
    <property name="kdenlive_info"/>
    <property name="disable"/>
    <property name="gain">0.1125</property>
    <property name="end">0.25</property>
   </filter>
   <filter id="filter202" out="122560" in="122549">
    <property name="window">75</property>
    <property name="max_gain">20dB</property>
    <property name="mlt_type">filter</property>
    <property name="mlt_service">volume</property>
    <property name="kdenlive_id">volume</property>
    <property name="tag">volume</property>
    <property name="kdenlive_ix">1</property>
    <property name="kdenlive_info"/>
    <property name="disable"/>
    <property name="gain">0.295833</property>
    <property name="end">0.8</property>
   </filter>
   <filter id="filter203" out="122766" in="122561">
    <property name="window">75</property>
    <property name="max_gain">20dB</property>
    <property name="mlt_type">filter</property>
    <property name="mlt_service">volume</property>
    <property name="kdenlive_id">volume</property>
    <property name="tag">volume</property>
    <property name="kdenlive_ix">1</property>
    <property name="kdenlive_info"/>
    <property name="disable"/>
    <property name="gain">0.8</property>
    <property name="end">0.8</property>
   </filter>
  </entry>
  <blank length="45"/>
  <entry out="122714" in="122682" producer="1_playlist3_audio">
   <filter id="filter204" in="122682">
    <property name="window">75</property>
    <property name="max_gain">20dB</property>
    <property name="mlt_type">filter</property>
    <property name="mlt_service">volume</property>
    <property name="kdenlive_id">volume</property>
    <property name="tag">volume</property>
    <property name="kdenlive_ix">1</property>
    <property name="kdenlive_info"/>
    <property name="disable"/>
    <property name="gain">0.1</property>
   </filter>
   <filter id="filter205" out="122715" in="122711">
    <property name="window">75</property>
    <property name="max_gain">20dB</property>
    <property name="mlt_type">filter</property>
    <property name="mlt_service">volume</property>
    <property name="kdenlive_id">fadeout</property>
    <property name="tag">volume</property>
    <property name="kdenlive_ix">2</property>
    <property name="kdenlive_info"/>
    <property name="disable"/>
    <property name="gain">1</property>
    <property name="end">0</property>
   </filter>
   <filter id="filter206" out="122688" in="122682">
    <property name="window">75</property>
    <property name="max_gain">20dB</property>
    <property name="mlt_type">filter</property>
    <property name="mlt_service">volume</property>
    <property name="kdenlive_id">fadein</property>
    <property name="tag">volume</property>
    <property name="kdenlive_ix">3</property>
    <property name="kdenlive_info"/>
    <property name="disable"/>
    <property name="gain">0</property>
    <property name="end">1</property>
   </filter>
  </entry>
  <blank length="117"/>
  <entry out="124083" in="124063" producer="1_playlist3">
   <filter id="filter207" out="124083" in="124063">
    <property name="window">75</property>
    <property name="max_gain">20dB</property>
    <property name="mlt_type">filter</property>
    <property name="mlt_service">volume</property>
    <property name="kdenlive_id">fadein</property>
    <property name="tag">volume</property>
    <property name="kdenlive_ix">1</property>
    <property name="kdenlive_info"/>
    <property name="disable"/>
    <property name="gain">0</property>
    <property name="end">1</property>
   </filter>
  </entry>
  <blank length="783"/>
  <entry out="124948" in="124926" producer="1_playlist3">
   <filter id="filter208" out="124948" in="124926">
    <property name="window">75</property>
    <property name="max_gain">20dB</property>
    <property name="mlt_type">filter</property>
    <property name="mlt_service">volume</property>
    <property name="kdenlive_id">fadeout</property>
    <property name="tag">volume</property>
    <property name="kdenlive_ix">1</property>
    <property name="kdenlive_info"/>
    <property name="disable"/>
    <property name="gain">1</property>
    <property name="end">0</property>
   </filter>
   <filter id="filter209" out="124948" in="124926">
    <property name="window">75</property>
    <property name="max_gain">20dB</property>
    <property name="mlt_type">filter</property>
    <property name="mlt_service">volume</property>
    <property name="kdenlive_id">fadein</property>
    <property name="tag">volume</property>
    <property name="kdenlive_ix">2</property>
    <property name="kdenlive_info"/>
    <property name="disable"/>
    <property name="gain">0</property>
    <property name="end">1</property>
   </filter>
  </entry>
  <blank length="997"/>
  <entry out="128041" in="127954" producer="1_playlist3">
   <filter id="filter210" out="128042" in="127954">
    <property name="window">75</property>
    <property name="max_gain">20dB</property>
    <property name="mlt_type">filter</property>
    <property name="mlt_service">volume</property>
    <property name="kdenlive_id">fadeout</property>
    <property name="tag">volume</property>
    <property name="kdenlive_ix">1</property>
    <property name="kdenlive_info"/>
    <property name="disable"/>
    <property name="gain">1</property>
    <property name="end">0</property>
   </filter>
  </entry>
  <blank length="7871"/>
  <entry out="148986" in="148954" producer="1_playlist3">
   <filter id="filter211" out="148956" in="148954">
    <property name="window">75</property>
    <property name="max_gain">20dB</property>
    <property name="mlt_type">filter</property>
    <property name="mlt_service">volume</property>
    <property name="kdenlive_id">volume</property>
    <property name="tag">volume</property>
    <property name="kdenlive_ix">1</property>
    <property name="kdenlive_info"/>
    <property name="disable"/>
    <property name="gain">0</property>
    <property name="end">0.7</property>
   </filter>
   <filter id="filter212" out="148982" in="148957">
    <property name="window">75</property>
    <property name="max_gain">20dB</property>
    <property name="mlt_type">filter</property>
    <property name="mlt_service">volume</property>
    <property name="kdenlive_id">volume</property>
    <property name="tag">volume</property>
    <property name="kdenlive_ix">1</property>
    <property name="kdenlive_info"/>
    <property name="disable"/>
    <property name="gain">0.7</property>
    <property name="end">0.7</property>
   </filter>
   <filter id="filter213" out="148986" in="148983">
    <property name="window">75</property>
    <property name="max_gain">20dB</property>
    <property name="mlt_type">filter</property>
    <property name="mlt_service">volume</property>
    <property name="kdenlive_id">volume</property>
    <property name="tag">volume</property>
    <property name="kdenlive_ix">1</property>
    <property name="kdenlive_info"/>
    <property name="disable"/>
    <property name="gain">0.525</property>
    <property name="end">0</property>
   </filter>
  </entry>
  <blank length="3763"/>
  <entry out="153576" in="153573" producer="1_playlist3">
   <filter id="filter214" out="153576" in="153573">
    <property name="window">75</property>
    <property name="max_gain">20dB</property>
    <property name="mlt_type">filter</property>
    <property name="mlt_service">volume</property>
    <property name="kdenlive_id">volume</property>
    <property name="tag">volume</property>
    <property name="kdenlive_ix">1</property>
    <property name="kdenlive_info"/>
    <property name="disable"/>
    <property name="gain">0.3</property>
    <property name="end">0</property>
   </filter>
  </entry>
  <blank length="230"/>
  <entry out="154557" in="154457" producer="1_playlist3">
   <filter id="filter215" out="154497" in="154457">
    <property name="window">75</property>
    <property name="max_gain">20dB</property>
    <property name="mlt_type">filter</property>
    <property name="mlt_service">volume</property>
    <property name="kdenlive_id">volume</property>
    <property name="tag">volume</property>
    <property name="kdenlive_ix">1</property>
    <property name="kdenlive_info"/>
    <property name="disable"/>
    <property name="gain">0.6</property>
    <property name="end">0.6</property>
   </filter>
   <filter id="filter216" out="154517" in="154498">
    <property name="window">75</property>
    <property name="max_gain">20dB</property>
    <property name="mlt_type">filter</property>
    <property name="mlt_service">volume</property>
    <property name="kdenlive_id">volume</property>
    <property name="tag">volume</property>
    <property name="kdenlive_ix">1</property>
    <property name="kdenlive_info"/>
    <property name="disable"/>
    <property name="gain">0.58</property>
    <property name="end">0.2</property>
   </filter>
   <filter id="filter217" out="154557" in="154518">
    <property name="window">75</property>
    <property name="max_gain">20dB</property>
    <property name="mlt_type">filter</property>
    <property name="mlt_service">volume</property>
    <property name="kdenlive_id">volume</property>
    <property name="tag">volume</property>
    <property name="kdenlive_ix">1</property>
    <property name="kdenlive_info"/>
    <property name="disable"/>
    <property name="gain">0.195</property>
    <property name="end">0</property>
   </filter>
  </entry>
  <blank length="1972"/>
  <entry out="162079" in="162033" producer="1_playlist3">
   <filter id="filter218" out="162079" in="162033">
    <property name="window">75</property>
    <property name="max_gain">20dB</property>
    <property name="mlt_type">filter</property>
    <property name="mlt_service">volume</property>
    <property name="kdenlive_id">fadeout</property>
    <property name="tag">volume</property>
    <property name="kdenlive_ix">1</property>
    <property name="kdenlive_info"/>
    <property name="disable"/>
    <property name="gain">1</property>
    <property name="end">0</property>
   </filter>
  </entry>
  <blank length="1362"/>
  <entry out="172194" in="172160" producer="1_playlist3">
   <filter id="filter219" out="172195" in="172160">
    <property name="window">75</property>
    <property name="max_gain">20dB</property>
    <property name="mlt_type">filter</property>
    <property name="mlt_service">volume</property>
    <property name="kdenlive_id">volume</property>
    <property name="tag">volume</property>
    <property name="kdenlive_ix">1</property>
    <property name="kdenlive_info"/>
    <property name="disable"/>
    <property name="gain">0</property>
    <property name="end">0.4</property>
   </filter>
  </entry>
  <blank length="3455"/>
  <entry out="176078" in="176026" producer="1_playlist3">
   <filter id="filter220" out="176068" in="176026">
    <property name="window">75</property>
    <property name="max_gain">20dB</property>
    <property name="mlt_type">filter</property>
    <property name="mlt_service">volume</property>
    <property name="kdenlive_id">volume</property>
    <property name="tag">volume</property>
    <property name="kdenlive_ix">1</property>
    <property name="kdenlive_info"/>
    <property name="disable"/>
    <property name="gain">0.25</property>
    <property name="end">0.25</property>
   </filter>
   <filter id="filter221" out="176078" in="176069">
    <property name="window">75</property>
    <property name="max_gain">20dB</property>
    <property name="mlt_type">filter</property>
    <property name="mlt_service">volume</property>
    <property name="kdenlive_id">volume</property>
    <property name="tag">volume</property>
    <property name="kdenlive_ix">1</property>
    <property name="kdenlive_info"/>
    <property name="disable"/>
    <property name="gain">0.225</property>
    <property name="end">0</property>
   </filter>
  </entry>
  <blank length="9045"/>
  <entry out="192933" in="192891" producer="1_playlist3">
   <filter id="filter222" out="192933" in="192891">
    <property name="window">75</property>
    <property name="max_gain">20dB</property>
    <property name="mlt_type">filter</property>
    <property name="mlt_service">volume</property>
    <property name="kdenlive_id">fadeout</property>
    <property name="tag">volume</property>
    <property name="kdenlive_ix">1</property>
    <property name="kdenlive_info"/>
    <property name="disable"/>
    <property name="gain">1</property>
    <property name="end">0</property>
   </filter>
  </entry>
  <blank length="12416"/>
  <entry out="221778" in="221759" producer="1_playlist3">
   <filter id="filter146" out="221778" in="221759">
    <property name="window">75</property>
    <property name="max_gain">20dB</property>
    <property name="mlt_type">filter</property>
    <property name="mlt_service">volume</property>
    <property name="kdenlive_id">fadein</property>
    <property name="tag">volume</property>
    <property name="kdenlive_ix">1</property>
    <property name="kdenlive_info"/>
    <property name="disable"/>
    <property name="gain">0</property>
    <property name="end">1</property>
   </filter>
  </entry>
  <blank length="4076"/>
  <entry out="252017" in="251984" producer="1_playlist3">
   <filter id="filter147" out="252006" in="251984">
    <property name="window">75</property>
    <property name="max_gain">20dB</property>
    <property name="mlt_type">filter</property>
    <property name="mlt_service">volume</property>
    <property name="kdenlive_id">volume</property>
    <property name="tag">volume</property>
    <property name="kdenlive_ix">1</property>
    <property name="kdenlive_info"/>
    <property name="disable"/>
    <property name="gain">1</property>
    <property name="end">0.65</property>
   </filter>
   <filter id="filter148" out="252012" in="252007">
    <property name="window">75</property>
    <property name="max_gain">20dB</property>
    <property name="mlt_type">filter</property>
    <property name="mlt_service">volume</property>
    <property name="kdenlive_id">volume</property>
    <property name="tag">volume</property>
    <property name="kdenlive_ix">1</property>
    <property name="kdenlive_info"/>
    <property name="disable"/>
    <property name="gain">0.541667</property>
    <property name="end">0</property>
   </filter>
   <filter id="filter149" out="252017" in="252013">
    <property name="window">75</property>
    <property name="max_gain">20dB</property>
    <property name="mlt_type">filter</property>
    <property name="mlt_service">volume</property>
    <property name="kdenlive_id">volume</property>
    <property name="tag">volume</property>
    <property name="kdenlive_ix">1</property>
    <property name="kdenlive_info"/>
    <property name="disable"/>
    <property name="gain">0</property>
    <property name="end">0</property>
   </filter>
  </entry>
  <blank length="49"/>
  <entry out="246903" in="246814" producer="1_playlist3">
   <filter id="filter150" in="246814">
    <property name="window">75</property>
    <property name="max_gain">20dB</property>
    <property name="mlt_type">filter</property>
    <property name="mlt_service">volume</property>
    <property name="kdenlive_id">volume</property>
    <property name="tag">volume</property>
    <property name="kdenlive_ix">1</property>
    <property name="kdenlive_info"/>
    <property name="disable"/>
    <property name="gain">0.7</property>
   </filter>
   <filter id="filter223" out="246819" in="246814">
    <property name="window">75</property>
    <property name="max_gain">20dB</property>
    <property name="mlt_type">filter</property>
    <property name="mlt_service">volume</property>
    <property name="kdenlive_id">volume</property>
    <property name="tag">volume</property>
    <property name="kdenlive_ix">2</property>
    <property name="kdenlive_info"/>
    <property name="disable"/>
    <property name="gain">0</property>
    <property name="end">1</property>
   </filter>
   <filter id="filter224" out="246862" in="246820">
    <property name="window">75</property>
    <property name="max_gain">20dB</property>
    <property name="mlt_type">filter</property>
    <property name="mlt_service">volume</property>
    <property name="kdenlive_id">volume</property>
    <property name="tag">volume</property>
    <property name="kdenlive_ix">2</property>
    <property name="kdenlive_info"/>
    <property name="disable"/>
    <property name="gain">1</property>
    <property name="end">1</property>
   </filter>
   <filter id="filter225" out="246867" in="246863">
    <property name="window">75</property>
    <property name="max_gain">20dB</property>
    <property name="mlt_type">filter</property>
    <property name="mlt_service">volume</property>
    <property name="kdenlive_id">volume</property>
    <property name="tag">volume</property>
    <property name="kdenlive_ix">2</property>
    <property name="kdenlive_info"/>
    <property name="disable"/>
    <property name="gain">0.86</property>
    <property name="end">0.3</property>
   </filter>
   <filter id="filter226" out="246904" in="246868">
    <property name="window">75</property>
    <property name="max_gain">20dB</property>
    <property name="mlt_type">filter</property>
    <property name="mlt_service">volume</property>
    <property name="kdenlive_id">volume</property>
    <property name="tag">volume</property>
    <property name="kdenlive_ix">2</property>
    <property name="kdenlive_info"/>
    <property name="disable"/>
    <property name="gain">0.291892</property>
    <property name="end">0</property>
   </filter>
  </entry>
  <blank length="10425"/>
  <entry out="211362" in="211252" producer="1_playlist3">
   <filter id="filter227" in="211252">
    <property name="window">75</property>
    <property name="max_gain">20dB</property>
    <property name="mlt_type">filter</property>
    <property name="mlt_service">volume</property>
    <property name="kdenlive_id">volume</property>
    <property name="tag">volume</property>
    <property name="kdenlive_ix">1</property>
    <property name="kdenlive_info"/>
    <property name="disable"/>
    <property name="gain">0.2</property>
   </filter>
   <filter id="filter228" out="211362" in="211344">
    <property name="window">75</property>
    <property name="max_gain">20dB</property>
    <property name="mlt_type">filter</property>
    <property name="mlt_service">volume</property>
    <property name="kdenlive_id">fadeout</property>
    <property name="tag">volume</property>
    <property name="kdenlive_ix">2</property>
    <property name="kdenlive_info"/>
    <property name="disable"/>
    <property name="gain">1</property>
    <property name="end">0</property>
   </filter>
   <filter id="filter229" out="211294" in="211252">
    <property name="window">75</property>
    <property name="max_gain">20dB</property>
    <property name="mlt_type">filter</property>
    <property name="mlt_service">volume</property>
    <property name="kdenlive_id">fadein</property>
    <property name="tag">volume</property>
    <property name="kdenlive_ix">3</property>
    <property name="kdenlive_info"/>
    <property name="disable"/>
    <property name="gain">0</property>
    <property name="end">1</property>
   </filter>
  </entry>
  <blank length="1064"/>
  <entry out="22589" in="22537" producer="1_playlist3">
   <filter id="filter230" out="22589" in="22568">
    <property name="window">75</property>
    <property name="max_gain">20dB</property>
    <property name="mlt_type">filter</property>
    <property name="mlt_service">volume</property>
    <property name="kdenlive_id">fadeout</property>
    <property name="tag">volume</property>
    <property name="kdenlive_ix">1</property>
    <property name="kdenlive_info"/>
    <property name="disable"/>
    <property name="gain">1</property>
    <property name="end">0</property>
   </filter>
  </entry>
  <blank length="1880"/>
  <entry out="49755" in="49681" producer="2_playlist3">
   <filter id="mute">
    <property name="window">75</property>
    <property name="max_gain">20dB</property>
    <property name="mlt_type">filter</property>
    <property name="mlt_service">volume</property>
    <property name="kdenlive_id">mute</property>
    <property name="tag">volume</property>
    <property name="kdenlive_ix">1</property>
    <property name="kdenlive_info"/>
    <property name="disable"/>
    <property name="gain">0</property>
   </filter>
  </entry>
  <entry out="10114" in="10084" producer="1_playlist3">
   <filter id="filter231" out="10096" in="10084">
    <property name="window">75</property>
    <property name="max_gain">20dB</property>
    <property name="mlt_type">filter</property>
    <property name="mlt_service">volume</property>
    <property name="kdenlive_id">volume</property>
    <property name="tag">volume</property>
    <property name="kdenlive_ix">1</property>
    <property name="kdenlive_info"/>
    <property name="disable"/>
    <property name="gain">0</property>
    <property name="end">0.7</property>
   </filter>
   <filter id="filter232" out="10114" in="10097">
    <property name="window">75</property>
    <property name="max_gain">20dB</property>
    <property name="mlt_type">filter</property>
    <property name="mlt_service">volume</property>
    <property name="kdenlive_id">volume</property>
    <property name="tag">volume</property>
    <property name="kdenlive_ix">1</property>
    <property name="kdenlive_info"/>
    <property name="disable"/>
    <property name="gain">0.7</property>
    <property name="end">0.7</property>
   </filter>
  </entry>
  <entry out="10273" in="10118" producer="1_playlist3">
   <filter id="filter233" out="10267" in="10118">
    <property name="window">75</property>
    <property name="max_gain">20dB</property>
    <property name="mlt_type">filter</property>
    <property name="mlt_service">volume</property>
    <property name="kdenlive_id">volume</property>
    <property name="tag">volume</property>
    <property name="kdenlive_ix">1</property>
    <property name="kdenlive_info"/>
    <property name="disable"/>
    <property name="gain">0.7</property>
    <property name="end">0.7</property>
   </filter>
   <filter id="filter234" out="10273" in="10268">
    <property name="window">75</property>
    <property name="max_gain">20dB</property>
    <property name="mlt_type">filter</property>
    <property name="mlt_service">volume</property>
    <property name="kdenlive_id">volume</property>
    <property name="tag">volume</property>
    <property name="kdenlive_ix">1</property>
    <property name="kdenlive_info"/>
    <property name="disable"/>
    <property name="gain">0.6</property>
    <property name="end">0.1</property>
   </filter>
  </entry>
  <blank length="2986"/>
  <entry out="27267" in="27192" producer="2_playlist3">
   <filter id="filter235" out="27267" in="27192">
    <property name="window">75</property>
    <property name="max_gain">20dB</property>
    <property name="mlt_type">filter</property>
    <property name="mlt_service">volume</property>
    <property name="kdenlive_id">volume</property>
    <property name="tag">volume</property>
    <property name="kdenlive_ix">1</property>
    <property name="kdenlive_info"/>
    <property name="disable"/>
    <property name="gain">0</property>
    <property name="end">0.35</property>
   </filter>
  </entry>
  <blank length="4881"/>
  <entry out="54778" in="54752" producer="2_playlist3">
   <filter id="filter236" in="54752">
    <property name="window">75</property>
    <property name="max_gain">20dB</property>
    <property name="mlt_type">filter</property>
    <property name="mlt_service">volume</property>
    <property name="kdenlive_id">volume</property>
    <property name="tag">volume</property>
    <property name="kdenlive_ix">1</property>
    <property name="kdenlive_info"/>
    <property name="disable"/>
    <property name="gain">0.15</property>
   </filter>
   <filter id="filter237" out="54778" in="54752">
    <property name="window">75</property>
    <property name="max_gain">20dB</property>
    <property name="mlt_type">filter</property>
    <property name="mlt_service">volume</property>
    <property name="kdenlive_id">fadeout</property>
    <property name="tag">volume</property>
    <property name="kdenlive_ix">2</property>
    <property name="kdenlive_info"/>
    <property name="disable"/>
    <property name="gain">1</property>
    <property name="end">0</property>
   </filter>
  </entry>
  <blank length="4356"/>
  <entry out="41644" in="39789" producer="2_playlist3">
   <filter id="filter238" out="39792" in="39789">
    <property name="window">75</property>
    <property name="max_gain">20dB</property>
    <property name="mlt_type">filter</property>
    <property name="mlt_service">volume</property>
    <property name="kdenlive_id">volume</property>
    <property name="tag">volume</property>
    <property name="kdenlive_ix">1</property>
    <property name="kdenlive_info"/>
    <property name="disable"/>
    <property name="gain">0</property>
    <property name="end">0.8</property>
   </filter>
   <filter id="filter239" out="41580" in="39793">
    <property name="window">75</property>
    <property name="max_gain">20dB</property>
    <property name="mlt_type">filter</property>
    <property name="mlt_service">volume</property>
    <property name="kdenlive_id">volume</property>
    <property name="tag">volume</property>
    <property name="kdenlive_ix">1</property>
    <property name="kdenlive_info"/>
    <property name="disable"/>
    <property name="gain">0.8</property>
    <property name="end">0.8</property>
   </filter>
   <filter id="filter240" out="41644" in="41581">
    <property name="window">75</property>
    <property name="max_gain">20dB</property>
    <property name="mlt_type">filter</property>
    <property name="mlt_service">volume</property>
    <property name="kdenlive_id">volume</property>
    <property name="tag">volume</property>
    <property name="kdenlive_ix">1</property>
    <property name="kdenlive_info"/>
    <property name="disable"/>
    <property name="gain">0.7875</property>
    <property name="end">0</property>
   </filter>
  </entry>
  <blank length="1136"/>
  <entry out="136464" in="136200" producer="3_playlist3">
   <filter id="filter241" out="136257" in="136200">
    <property name="window">75</property>
    <property name="max_gain">20dB</property>
    <property name="mlt_type">filter</property>
    <property name="mlt_service">volume</property>
    <property name="kdenlive_id">volume</property>
    <property name="tag">volume</property>
    <property name="kdenlive_ix">1</property>
    <property name="kdenlive_info"/>
    <property name="disable"/>
    <property name="gain">0</property>
    <property name="end">0.75</property>
   </filter>
   <filter id="filter242" out="136298" in="136258">
    <property name="window">75</property>
    <property name="max_gain">20dB</property>
    <property name="mlt_type">filter</property>
    <property name="mlt_service">volume</property>
    <property name="kdenlive_id">volume</property>
    <property name="tag">volume</property>
    <property name="kdenlive_ix">1</property>
    <property name="kdenlive_info"/>
    <property name="disable"/>
    <property name="gain">0.77561</property>
    <property name="end">1.8</property>
   </filter>
   <filter id="filter243" out="136346" in="136299">
    <property name="window">75</property>
    <property name="max_gain">20dB</property>
    <property name="mlt_type">filter</property>
    <property name="mlt_service">volume</property>
    <property name="kdenlive_id">volume</property>
    <property name="tag">volume</property>
    <property name="kdenlive_ix">1</property>
    <property name="kdenlive_info"/>
    <property name="disable"/>
    <property name="gain">1.8</property>
    <property name="end">1.8</property>
   </filter>
   <filter id="filter244" out="136356" in="136347">
    <property name="window">75</property>
    <property name="max_gain">20dB</property>
    <property name="mlt_type">filter</property>
    <property name="mlt_service">volume</property>
    <property name="kdenlive_id">volume</property>
    <property name="tag">volume</property>
    <property name="kdenlive_ix">1</property>
    <property name="kdenlive_info"/>
    <property name="disable"/>
    <property name="gain">1.75</property>
    <property name="end">1.3</property>
   </filter>
   <filter id="filter245" out="136389" in="136357">
    <property name="window">75</property>
    <property name="max_gain">20dB</property>
    <property name="mlt_type">filter</property>
    <property name="mlt_service">volume</property>
    <property name="kdenlive_id">volume</property>
    <property name="tag">volume</property>
    <property name="kdenlive_ix">1</property>
    <property name="kdenlive_info"/>
    <property name="disable"/>
    <property name="gain">1.3</property>
    <property name="end">1.3</property>
   </filter>
   <filter id="filter246" out="136428" in="136390">
    <property name="window">75</property>
    <property name="max_gain">20dB</property>
    <property name="mlt_type">filter</property>
    <property name="mlt_service">volume</property>
    <property name="kdenlive_id">volume</property>
    <property name="tag">volume</property>
    <property name="kdenlive_ix">1</property>
    <property name="kdenlive_info"/>
    <property name="disable"/>
    <property name="gain">1.27949</property>
    <property name="end">0.5</property>
   </filter>
   <filter id="filter247" out="136464" in="136429">
    <property name="window">75</property>
    <property name="max_gain">20dB</property>
    <property name="mlt_type">filter</property>
    <property name="mlt_service">volume</property>
    <property name="kdenlive_id">volume</property>
    <property name="tag">volume</property>
    <property name="kdenlive_ix">1</property>
    <property name="kdenlive_info"/>
    <property name="disable"/>
    <property name="gain">0.490278</property>
    <property name="end">0.15</property>
   </filter>
  </entry>
  <blank length="1729"/>
  <entry out="63508" in="63461" producer="2_playlist3">
   <filter id="filter248" out="63508" in="63461">
    <property name="window">75</property>
    <property name="max_gain">20dB</property>
    <property name="mlt_type">filter</property>
    <property name="mlt_service">volume</property>
    <property name="kdenlive_id">volume</property>
    <property name="tag">volume</property>
    <property name="kdenlive_ix">1</property>
    <property name="kdenlive_info"/>
    <property name="disable"/>
    <property name="gain">0</property>
    <property name="end">0.2</property>
   </filter>
  </entry>
  <blank length="13275"/>
  <entry out="89279" in="89238" producer="2_playlist3_audio">
   <filter id="filter249" out="89260" in="89238">
    <property name="window">75</property>
    <property name="max_gain">20dB</property>
    <property name="mlt_type">filter</property>
    <property name="mlt_service">volume</property>
    <property name="kdenlive_id">fadein</property>
    <property name="tag">volume</property>
    <property name="kdenlive_ix">1</property>
    <property name="kdenlive_info"/>
    <property name="disable"/>
    <property name="gain">0</property>
    <property name="end">1</property>
   </filter>
  </entry>
  <blank length="6221"/>
  <entry out="97641" in="97603" producer="2_playlist3">
   <filter id="filter250" out="97641" in="97603">
    <property name="window">75</property>
    <property name="max_gain">20dB</property>
    <property name="mlt_type">filter</property>
    <property name="mlt_service">volume</property>
    <property name="kdenlive_id">fadein</property>
    <property name="tag">volume</property>
    <property name="kdenlive_ix">1</property>
    <property name="kdenlive_info"/>
    <property name="disable"/>
    <property name="gain">0</property>
    <property name="end">1</property>
   </filter>
  </entry>
  <blank length="2684"/>
  <entry out="100713" in="100673" producer="2_playlist3_audio">
   <filter id="filter251" out="100713" in="100688">
    <property name="window">75</property>
    <property name="max_gain">20dB</property>
    <property name="mlt_type">filter</property>
    <property name="mlt_service">volume</property>
    <property name="kdenlive_id">fadeout</property>
    <property name="tag">volume</property>
    <property name="kdenlive_ix">1</property>
    <property name="kdenlive_info"/>
    <property name="disable"/>
    <property name="gain">1</property>
    <property name="end">0</property>
   </filter>
  </entry>
  <blank length="243"/>
  <entry out="102025" in="102003" producer="2_playlist3">
   <filter id="filter252" out="102025" in="102014">
    <property name="window">75</property>
    <property name="max_gain">20dB</property>
    <property name="mlt_type">filter</property>
    <property name="mlt_service">volume</property>
    <property name="kdenlive_id">fadeout</property>
    <property name="tag">volume</property>
    <property name="kdenlive_ix">1</property>
    <property name="kdenlive_info"/>
    <property name="disable"/>
    <property name="gain">1</property>
    <property name="end">0</property>
   </filter>
  </entry>
  <blank length="7172"/>
  <entry out="114946" in="114926" producer="2_playlist3">
   <filter id="filter253" out="114931" in="114926">
    <property name="window">75</property>
    <property name="max_gain">20dB</property>
    <property name="mlt_type">filter</property>
    <property name="mlt_service">volume</property>
    <property name="kdenlive_id">volume</property>
    <property name="tag">volume</property>
    <property name="kdenlive_ix">1</property>
    <property name="kdenlive_info"/>
    <property name="disable"/>
    <property name="gain">0</property>
    <property name="end">0.2</property>
   </filter>
   <filter id="filter254" out="114946" in="114932">
    <property name="window">75</property>
    <property name="max_gain">20dB</property>
    <property name="mlt_type">filter</property>
    <property name="mlt_service">volume</property>
    <property name="kdenlive_id">volume</property>
    <property name="tag">volume</property>
    <property name="kdenlive_ix">1</property>
    <property name="kdenlive_info"/>
    <property name="disable"/>
    <property name="gain">0.186667</property>
    <property name="end">0</property>
   </filter>
  </entry>
  <blank length="7561"/>
  <entry out="132057" in="132037" producer="2_playlist3">
   <filter id="filter255" out="132039" in="132037">
    <property name="window">75</property>
    <property name="max_gain">20dB</property>
    <property name="mlt_type">filter</property>
    <property name="mlt_service">volume</property>
    <property name="kdenlive_id">volume</property>
    <property name="tag">volume</property>
    <property name="kdenlive_ix">1</property>
    <property name="kdenlive_info"/>
    <property name="disable"/>
    <property name="gain">0</property>
    <property name="end">0</property>
   </filter>
   <filter id="filter256" out="132042" in="132040">
    <property name="window">75</property>
    <property name="max_gain">20dB</property>
    <property name="mlt_type">filter</property>
    <property name="mlt_service">volume</property>
    <property name="kdenlive_id">volume</property>
    <property name="tag">volume</property>
    <property name="kdenlive_ix">1</property>
    <property name="kdenlive_info"/>
    <property name="disable"/>
    <property name="gain">0.2</property>
    <property name="end">0.6</property>
   </filter>
   <filter id="filter257" out="132050" in="132043">
    <property name="window">75</property>
    <property name="max_gain">20dB</property>
    <property name="mlt_type">filter</property>
    <property name="mlt_service">volume</property>
    <property name="kdenlive_id">volume</property>
    <property name="tag">volume</property>
    <property name="kdenlive_ix">1</property>
    <property name="kdenlive_info"/>
    <property name="disable"/>
    <property name="gain">0.65</property>
    <property name="end">1</property>
   </filter>
   <filter id="filter258" out="132057" in="132051">
    <property name="window">75</property>
    <property name="max_gain">20dB</property>
    <property name="mlt_type">filter</property>
    <property name="mlt_service">volume</property>
    <property name="kdenlive_id">volume</property>
    <property name="tag">volume</property>
    <property name="kdenlive_ix">1</property>
    <property name="kdenlive_info"/>
    <property name="disable"/>
    <property name="gain">1.00143</property>
    <property name="end">1.01</property>
   </filter>
  </entry>
  <blank length="98"/>
  <entry out="134730" in="134717" producer="2_playlist3">
   <filter id="filter259" out="134719" in="134717">
    <property name="window">75</property>
    <property name="max_gain">20dB</property>
    <property name="mlt_type">filter</property>
    <property name="mlt_service">volume</property>
    <property name="kdenlive_id">volume</property>
    <property name="tag">volume</property>
    <property name="kdenlive_ix">1</property>
    <property name="kdenlive_info"/>
    <property name="disable"/>
    <property name="gain">0</property>
    <property name="end">0.5</property>
   </filter>
   <filter id="filter260" out="134728" in="134720">
    <property name="window">75</property>
    <property name="max_gain">20dB</property>
    <property name="mlt_type">filter</property>
    <property name="mlt_service">volume</property>
    <property name="kdenlive_id">volume</property>
    <property name="tag">volume</property>
    <property name="kdenlive_ix">1</property>
    <property name="kdenlive_info"/>
    <property name="disable"/>
    <property name="gain">0.5</property>
    <property name="end">0.5</property>
   </filter>
   <filter id="filter261" out="134730" in="134729">
    <property name="window">75</property>
    <property name="max_gain">20dB</property>
    <property name="mlt_type">filter</property>
    <property name="mlt_service">volume</property>
    <property name="kdenlive_id">volume</property>
    <property name="tag">volume</property>
    <property name="kdenlive_ix">1</property>
    <property name="kdenlive_info"/>
    <property name="disable"/>
    <property name="gain">0.25</property>
    <property name="end">0</property>
   </filter>
  </entry>
  <blank length="17"/>
  <entry out="134797" in="134721" producer="2_playlist3">
   <filter id="filter262" out="134723" in="134721">
    <property name="window">75</property>
    <property name="max_gain">20dB</property>
    <property name="mlt_type">filter</property>
    <property name="mlt_service">volume</property>
    <property name="kdenlive_id">volume</property>
    <property name="tag">volume</property>
    <property name="kdenlive_ix">1</property>
    <property name="kdenlive_info"/>
    <property name="disable"/>
    <property name="gain">0</property>
    <property name="end">0.9</property>
   </filter>
   <filter id="filter263" out="134795" in="134724">
    <property name="window">75</property>
    <property name="max_gain">20dB</property>
    <property name="mlt_type">filter</property>
    <property name="mlt_service">volume</property>
    <property name="kdenlive_id">volume</property>
    <property name="tag">volume</property>
    <property name="kdenlive_ix">1</property>
    <property name="kdenlive_info"/>
    <property name="disable"/>
    <property name="gain">0.9</property>
    <property name="end">0.9</property>
   </filter>
   <filter id="filter264" out="134797" in="134796">
    <property name="window">75</property>
    <property name="max_gain">20dB</property>
    <property name="mlt_type">filter</property>
    <property name="mlt_service">volume</property>
    <property name="kdenlive_id">volume</property>
    <property name="tag">volume</property>
    <property name="kdenlive_ix">1</property>
    <property name="kdenlive_info"/>
    <property name="disable"/>
    <property name="gain">0.45</property>
    <property name="end">0</property>
   </filter>
  </entry>
  <blank length="8"/>
  <entry out="134728" in="134717" producer="2_playlist3">
   <filter id="filter265" out="134719" in="134717">
    <property name="window">75</property>
    <property name="max_gain">20dB</property>
    <property name="mlt_type">filter</property>
    <property name="mlt_service">volume</property>
    <property name="kdenlive_id">volume</property>
    <property name="tag">volume</property>
    <property name="kdenlive_ix">1</property>
    <property name="kdenlive_info"/>
    <property name="disable"/>
    <property name="gain">0</property>
    <property name="end">0.5</property>
   </filter>
   <filter id="filter266" out="134727" in="134720">
    <property name="window">75</property>
    <property name="max_gain">20dB</property>
    <property name="mlt_type">filter</property>
    <property name="mlt_service">volume</property>
    <property name="kdenlive_id">volume</property>
    <property name="tag">volume</property>
    <property name="kdenlive_ix">1</property>
    <property name="kdenlive_info"/>
    <property name="disable"/>
    <property name="gain">0.5</property>
    <property name="end">0.5</property>
   </filter>
   <filter id="filter267" out="134729" in="134728">
    <property name="window">75</property>
    <property name="max_gain">20dB</property>
    <property name="mlt_type">filter</property>
    <property name="mlt_service">volume</property>
    <property name="kdenlive_id">volume</property>
    <property name="tag">volume</property>
    <property name="kdenlive_ix">1</property>
    <property name="kdenlive_info"/>
    <property name="disable"/>
    <property name="gain">0.25</property>
    <property name="end">0</property>
   </filter>
  </entry>
  <blank length="736"/>
  <entry out="80834" in="80819" producer="3_playlist3">
   <filter id="audiobalance" in="80819">
    <property name="channel">-1</property>
    <property name="mlt_type">filter</property>
    <property name="mlt_service">panner</property>
    <property name="kdenlive_id">audiobalance</property>
    <property name="tag">panner</property>
    <property name="kdenlive_ix">1</property>
    <property name="kdenlive_info"/>
    <property name="disable"/>
    <property name="start">0.8</property>
   </filter>
   <filter id="filter268" out="103738" in="103735">
    <property name="window">75</property>
    <property name="max_gain">20dB</property>
    <property name="mlt_type">filter</property>
    <property name="mlt_service">volume</property>
    <property name="kdenlive_id">fadeout</property>
    <property name="tag">volume</property>
    <property name="kdenlive_ix">2</property>
    <property name="kdenlive_info"/>
    <property name="disable"/>
    <property name="gain">1</property>
    <property name="end">0</property>
   </filter>
   <filter id="filter269" in="80819">
    <property name="window">75</property>
    <property name="max_gain">20dB</property>
    <property name="mlt_type">filter</property>
    <property name="mlt_service">volume</property>
    <property name="kdenlive_id">volume</property>
    <property name="tag">volume</property>
    <property name="kdenlive_ix">3</property>
    <property name="kdenlive_info"/>
    <property name="disable"/>
    <property name="gain">1.2</property>
   </filter>
  </entry>
  <blank length="645"/>
  <entry out="147160" in="147132" producer="2_playlist3">
   <filter id="filter270" out="147148" in="147132">
    <property name="window">75</property>
    <property name="max_gain">20dB</property>
    <property name="mlt_type">filter</property>
    <property name="mlt_service">volume</property>
    <property name="kdenlive_id">fadein</property>
    <property name="tag">volume</property>
    <property name="kdenlive_ix">1</property>
    <property name="kdenlive_info"/>
    <property name="disable"/>
    <property name="gain">0</property>
    <property name="end">1</property>
   </filter>
   <filter id="filter271" out="147160" in="147152">
    <property name="window">75</property>
    <property name="max_gain">20dB</property>
    <property name="mlt_type">filter</property>
    <property name="mlt_service">volume</property>
    <property name="kdenlive_id">fadeout</property>
    <property name="tag">volume</property>
    <property name="kdenlive_ix">2</property>
    <property name="kdenlive_info"/>
    <property name="disable">1</property>
    <property name="gain">1</property>
    <property name="end">0</property>
   </filter>
  </entry>
  <blank length="358"/>
  <entry out="152222" in="152160" producer="2_playlist3">
   <filter id="filter272" out="152222" in="152188">
    <property name="window">75</property>
    <property name="max_gain">20dB</property>
    <property name="mlt_type">filter</property>
    <property name="mlt_service">volume</property>
    <property name="kdenlive_id">fadeout</property>
    <property name="tag">volume</property>
    <property name="kdenlive_ix">1</property>
    <property name="kdenlive_info"/>
    <property name="disable"/>
    <property name="gain">1</property>
    <property name="end">0</property>
   </filter>
   <filter id="filter273" out="152168" in="152160">
    <property name="window">75</property>
    <property name="max_gain">20dB</property>
    <property name="mlt_type">filter</property>
    <property name="mlt_service">volume</property>
    <property name="kdenlive_id">fadein</property>
    <property name="tag">volume</property>
    <property name="kdenlive_ix">2</property>
    <property name="kdenlive_info"/>
    <property name="disable"/>
    <property name="gain">0</property>
    <property name="end">1</property>
   </filter>
   <filter id="filter274" in="152160">
    <property name="window">75</property>
    <property name="max_gain">20dB</property>
    <property name="mlt_type">filter</property>
    <property name="mlt_service">volume</property>
    <property name="kdenlive_id">volume</property>
    <property name="tag">volume</property>
    <property name="kdenlive_ix">3</property>
    <property name="kdenlive_info"/>
    <property name="disable"/>
    <property name="gain">0</property>
   </filter>
  </entry>
  <blank length="1773"/>
  <entry out="145991" in="145977" producer="2_playlist3">
   <filter id="filter275" out="145991" in="145977">
    <property name="window">75</property>
    <property name="max_gain">20dB</property>
    <property name="mlt_type">filter</property>
    <property name="mlt_service">volume</property>
    <property name="kdenlive_id">volume</property>
    <property name="tag">volume</property>
    <property name="kdenlive_ix">1</property>
    <property name="kdenlive_info"/>
    <property name="disable"/>
    <property name="gain">0</property>
    <property name="end">0.2</property>
   </filter>
  </entry>
  <entry out="143722" in="143653" producer="2_playlist3">
   <filter id="filter276" out="143722" in="143678">
    <property name="window">75</property>
    <property name="max_gain">20dB</property>
    <property name="mlt_type">filter</property>
    <property name="mlt_service">volume</property>
    <property name="kdenlive_id">fadeout</property>
    <property name="tag">volume</property>
    <property name="kdenlive_ix">1</property>
    <property name="kdenlive_info"/>
    <property name="disable"/>
    <property name="gain">1</property>
    <property name="end">0</property>
   </filter>
  </entry>
  <blank length="88"/>
  <entry out="155949" in="155858" producer="2_playlist3">
   <filter id="filter277" out="155949" in="155858">
    <property name="window">75</property>
    <property name="max_gain">20dB</property>
    <property name="mlt_type">filter</property>
    <property name="mlt_service">volume</property>
    <property name="kdenlive_id">fadein</property>
    <property name="tag">volume</property>
    <property name="kdenlive_ix">1</property>
    <property name="kdenlive_info"/>
    <property name="disable"/>
    <property name="gain">0</property>
    <property name="end">1</property>
   </filter>
  </entry>
  <blank length="435"/>
  <entry out="144400" in="144366" producer="2_playlist3">
   <filter id="filter278" in="144366">
    <property name="window">75</property>
    <property name="max_gain">20dB</property>
    <property name="mlt_type">filter</property>
    <property name="mlt_service">volume</property>
    <property name="kdenlive_id">volume</property>
    <property name="tag">volume</property>
    <property name="kdenlive_ix">1</property>
    <property name="kdenlive_info"/>
    <property name="disable"/>
    <property name="gain">0.3</property>
   </filter>
  </entry>
  <blank length="1291"/>
  <entry out="150579" in="150567" producer="2_playlist3">
   <filter id="filter279" out="150562" in="150557">
    <property name="window">75</property>
    <property name="max_gain">20dB</property>
    <property name="mlt_type">filter</property>
    <property name="mlt_service">volume</property>
    <property name="kdenlive_id">fadein</property>
    <property name="tag">volume</property>
    <property name="kdenlive_ix">1</property>
    <property name="kdenlive_info"/>
    <property name="disable"/>
    <property name="gain">0</property>
    <property name="end">1</property>
   </filter>
  </entry>
  <blank length="262"/>
  <entry out="151373" in="151356" producer="2_playlist3">
   <filter id="filter280" out="151373" in="151356">
    <property name="window">75</property>
    <property name="max_gain">20dB</property>
    <property name="mlt_type">filter</property>
    <property name="mlt_service">volume</property>
    <property name="kdenlive_id">volume</property>
    <property name="tag">volume</property>
    <property name="kdenlive_ix">1</property>
    <property name="kdenlive_info"/>
    <property name="disable"/>
    <property name="gain">1</property>
    <property name="end">0</property>
   </filter>
  </entry>
  <blank length="1651"/>
  <entry out="220705" in="220657" producer="1_playlist3">
   <filter id="filter281" out="220705" in="220691">
    <property name="window">75</property>
    <property name="max_gain">20dB</property>
    <property name="mlt_type">filter</property>
    <property name="mlt_service">volume</property>
    <property name="kdenlive_id">fadeout</property>
    <property name="tag">volume</property>
    <property name="kdenlive_ix">1</property>
    <property name="kdenlive_info"/>
    <property name="disable"/>
    <property name="gain">1</property>
    <property name="end">0</property>
   </filter>
   <filter id="filter282" out="220671" in="220657">
    <property name="window">75</property>
    <property name="max_gain">20dB</property>
    <property name="mlt_type">filter</property>
    <property name="mlt_service">volume</property>
    <property name="kdenlive_id">fadein</property>
    <property name="tag">volume</property>
    <property name="kdenlive_ix">2</property>
    <property name="kdenlive_info"/>
    <property name="disable"/>
    <property name="gain">0</property>
    <property name="end">1</property>
   </filter>
   <filter id="filter283" in="220657">
    <property name="window">75</property>
    <property name="max_gain">20dB</property>
    <property name="mlt_type">filter</property>
    <property name="mlt_service">volume</property>
    <property name="kdenlive_id">volume</property>
    <property name="tag">volume</property>
    <property name="kdenlive_ix">3</property>
    <property name="kdenlive_info"/>
    <property name="disable"/>
    <property name="gain">1</property>
   </filter>
  </entry>
  <blank length="2771"/>
  <entry out="160849" in="160791" producer="2_playlist3">
   <filter id="filter284" out="160822" in="160791">
    <property name="window">75</property>
    <property name="max_gain">20dB</property>
    <property name="mlt_type">filter</property>
    <property name="mlt_service">volume</property>
    <property name="kdenlive_id">volume</property>
    <property name="tag">volume</property>
    <property name="kdenlive_ix">1</property>
    <property name="kdenlive_info"/>
    <property name="disable"/>
    <property name="gain">1</property>
    <property name="end">1</property>
   </filter>
   <filter id="filter285" out="160849" in="160823">
    <property name="window">75</property>
    <property name="max_gain">20dB</property>
    <property name="mlt_type">filter</property>
    <property name="mlt_service">volume</property>
    <property name="kdenlive_id">volume</property>
    <property name="tag">volume</property>
    <property name="kdenlive_ix">1</property>
    <property name="kdenlive_info"/>
    <property name="disable"/>
    <property name="gain">0.962963</property>
    <property name="end">0</property>
   </filter>
  </entry>
  <blank length="3123"/>
  <entry out="165050" in="164956" producer="2_playlist3">
   <filter id="filter286" out="165050" in="164975">
    <property name="window">75</property>
    <property name="max_gain">20dB</property>
    <property name="mlt_type">filter</property>
    <property name="mlt_service">volume</property>
    <property name="kdenlive_id">fadeout</property>
    <property name="tag">volume</property>
    <property name="kdenlive_ix">1</property>
    <property name="kdenlive_info"/>
    <property name="disable"/>
    <property name="gain">1</property>
    <property name="end">0</property>
   </filter>
  </entry>
  <blank length="7989"/>
  <entry out="181712" in="181630" producer="2_playlist3">
   <filter id="filter287" out="181712" in="181630">
    <property name="window">75</property>
    <property name="max_gain">20dB</property>
    <property name="mlt_type">filter</property>
    <property name="mlt_service">volume</property>
    <property name="kdenlive_id">fadeout</property>
    <property name="tag">volume</property>
    <property name="kdenlive_ix">1</property>
    <property name="kdenlive_info"/>
    <property name="disable"/>
    <property name="gain">1</property>
    <property name="end">0</property>
   </filter>
  </entry>
  <blank length="7135"/>
  <entry out="236342" in="230586" producer="3_playlist3_audio">
   <filter id="filter288" out="236343" in="236230">
    <property name="window">75</property>
    <property name="max_gain">20dB</property>
    <property name="mlt_type">filter</property>
    <property name="mlt_service">volume</property>
    <property name="kdenlive_id">fadeout</property>
    <property name="tag">volume</property>
    <property name="kdenlive_ix">1</property>
    <property name="kdenlive_info"/>
    <property name="disable"/>
    <property name="gain">1</property>
    <property name="end">0</property>
   </filter>
   <filter id="filter289" out="230680" in="230586">
    <property name="window">75</property>
    <property name="max_gain">20dB</property>
    <property name="mlt_type">filter</property>
    <property name="mlt_service">volume</property>
    <property name="kdenlive_id">fadein</property>
    <property name="tag">volume</property>
    <property name="kdenlive_ix">2</property>
    <property name="kdenlive_info"/>
    <property name="disable"/>
    <property name="gain">0</property>
    <property name="end">1</property>
   </filter>
  </entry>
  <blank length="6875"/>
  <entry out="195573" in="189748" producer="2_playlist3_audio">
   <filter id="filter290" out="189850" in="189748">
    <property name="window">75</property>
    <property name="max_gain">20dB</property>
    <property name="mlt_type">filter</property>
    <property name="mlt_service">volume</property>
    <property name="kdenlive_id">volume</property>
    <property name="tag">volume</property>
    <property name="kdenlive_ix">1</property>
    <property name="kdenlive_info"/>
    <property name="disable"/>
    <property name="gain">0</property>
    <property name="end">1</property>
   </filter>
   <filter id="filter291" out="195573" in="189851">
    <property name="window">75</property>
    <property name="max_gain">20dB</property>
    <property name="mlt_type">filter</property>
    <property name="mlt_service">volume</property>
    <property name="kdenlive_id">volume</property>
    <property name="tag">volume</property>
    <property name="kdenlive_ix">1</property>
    <property name="kdenlive_info"/>
    <property name="disable"/>
    <property name="gain">1</property>
    <property name="end">1</property>
   </filter>
  </entry>
 </playlist>
 <producer id="3_1_video" out="244275" in="0">
  <property name="mlt_type">producer</property>
  <property name="length">244276</property>
  <property name="eof">pause</property>
  <property name="resource">/media/cassi/SilverSqueaker/backup-new/movies/action/hobbit/The.Hobbit.An.Unexpected.Journey.2012.720p.BluRay.DTS-ES.x264-tRuEHD.mkv</property>
  <property name="meta.media.nb_streams">9</property>
  <property name="meta.media.0.stream.type">video</property>
  <property name="meta.media.0.stream.frame_rate">23.976</property>
  <property name="meta.media.0.stream.sample_aspect_ratio">1</property>
  <property name="meta.media.0.codec.width">1280</property>
  <property name="meta.media.0.codec.height">534</property>
  <property name="meta.media.0.codec.rotate">0</property>
  <property name="meta.media.0.codec.frame_rate">23.976</property>
  <property name="meta.media.0.codec.pix_fmt">yuv420p</property>
  <property name="meta.media.0.codec.sample_aspect_ratio">1</property>
  <property name="meta.media.0.codec.colorspace">709</property>
  <property name="meta.media.0.codec.name">h264</property>
  <property name="meta.media.0.codec.long_name">H.264 / AVC / MPEG-4 AVC / MPEG-4 part 10</property>
  <property name="meta.media.0.codec.bit_rate">0</property>
  <property name="meta.attr.0.stream.language.markup">eng</property>
  <property name="meta.media.1.stream.type">audio</property>
  <property name="meta.media.1.codec.sample_fmt">fltp</property>
  <property name="meta.media.1.codec.sample_rate">48000</property>
  <property name="meta.media.1.codec.channels">7</property>
  <property name="meta.media.1.codec.name">dca</property>
  <property name="meta.media.1.codec.long_name">DCA (DTS Coherent Acoustics)</property>
  <property name="meta.media.1.codec.bit_rate">1536000</property>
  <property name="meta.attr.1.stream.language.markup">eng</property>
  <property name="meta.attr.1.stream.title.markup">Main Movie</property>
  <property name="meta.media.2.codec.name">srt</property>
  <property name="meta.media.2.codec.long_name">SubRip subtitle</property>
  <property name="meta.media.2.codec.bit_rate">0</property>
  <property name="meta.attr.2.stream.language.markup">eng</property>
  <property name="meta.attr.2.stream.title.markup">Subtitle #1</property>
  <property name="meta.media.3.codec.name">srt</property>
  <property name="meta.media.3.codec.long_name">SubRip subtitle</property>
  <property name="meta.media.3.codec.bit_rate">0</property>
  <property name="meta.attr.3.stream.language.markup">spa</property>
  <property name="meta.attr.3.stream.title.markup">Subtitle #2</property>
  <property name="meta.media.4.codec.name">srt</property>
  <property name="meta.media.4.codec.long_name">SubRip subtitle</property>
  <property name="meta.media.4.codec.bit_rate">0</property>
  <property name="meta.attr.4.stream.language.markup">swe</property>
  <property name="meta.attr.4.stream.title.markup">Subtitle #3</property>
  <property name="meta.media.5.codec.name">srt</property>
  <property name="meta.media.5.codec.long_name">SubRip subtitle</property>
  <property name="meta.media.5.codec.bit_rate">0</property>
  <property name="meta.attr.5.stream.language.markup">pol</property>
  <property name="meta.attr.5.stream.title.markup">Subtitle #4</property>
  <property name="meta.media.6.codec.name">srt</property>
  <property name="meta.media.6.codec.long_name">SubRip subtitle</property>
  <property name="meta.media.6.codec.bit_rate">0</property>
  <property name="meta.attr.6.stream.language.markup">dut</property>
  <property name="meta.attr.6.stream.title.markup">Subtitle #5</property>
  <property name="meta.media.7.codec.name">srt</property>
  <property name="meta.media.7.codec.long_name">SubRip subtitle</property>
  <property name="meta.media.7.codec.bit_rate">0</property>
  <property name="meta.attr.7.stream.language.markup">hun</property>
  <property name="meta.attr.7.stream.title.markup">Subtitle #5</property>
  <property name="meta.media.8.codec.name">srt</property>
  <property name="meta.media.8.codec.long_name">SubRip subtitle</property>
  <property name="meta.media.8.codec.bit_rate">0</property>
  <property name="meta.attr.8.stream.language.markup">fin</property>
  <property name="meta.attr.8.stream.title.markup">Subtitle #7</property>
  <property name="meta.attr.encoder.markup">libebml v1.3.0 + libmatroska v1.4.0</property>
  <property name="meta.attr.creation_time.markup">2013-03-06 19:22:31</property>
  <property name="seekable">1</property>
  <property name="meta.media.sample_aspect_num">1</property>
  <property name="meta.media.sample_aspect_den">1</property>
  <property name="aspect_ratio">1</property>
  <property name="audio_index">-1</property>
  <property name="video_index">0</property>
  <property name="mute_on_pause">1</property>
  <property name="mlt_service">avformat</property>
  <property name="meta.media.frame_rate_num">24000</property>
  <property name="meta.media.frame_rate_den">1001</property>
  <property name="meta.media.colorspace">709</property>
  <property name="meta.media.color_trc">2</property>
  <property name="meta.media.width">1280</property>
  <property name="meta.media.height">534</property>
  <property name="meta.media.top_field_first">0</property>
  <property name="meta.media.progressive">1</property>
 </producer>
 <producer id="3_playlist4" out="244275" title="Anonymous Submission" in="0">
  <property name="mlt_type">mlt_producer</property>
  <property name="length">244276</property>
  <property name="eof">pause</property>
  <property name="resource">/media/cassi/SilverSqueaker/backup-new/movies/action/hobbit/The.Hobbit.An.Unexpected.Journey.2012.720p.BluRay.DTS-ES.x264-tRuEHD.mkv</property>
  <property name="meta.media.nb_streams">9</property>
  <property name="meta.media.0.stream.type">video</property>
  <property name="meta.media.0.stream.frame_rate">23.976</property>
  <property name="meta.media.0.stream.sample_aspect_ratio">1</property>
  <property name="meta.media.0.codec.width">1280</property>
  <property name="meta.media.0.codec.height">534</property>
  <property name="meta.media.0.codec.rotate">0</property>
  <property name="meta.media.0.codec.frame_rate">23.976</property>
  <property name="meta.media.0.codec.pix_fmt">yuv420p</property>
  <property name="meta.media.0.codec.sample_aspect_ratio">1</property>
  <property name="meta.media.0.codec.colorspace">709</property>
  <property name="meta.media.0.codec.name">h264</property>
  <property name="meta.media.0.codec.long_name">H.264 / AVC / MPEG-4 AVC / MPEG-4 part 10</property>
  <property name="meta.media.0.codec.bit_rate">0</property>
  <property name="meta.attr.0.stream.language.markup">eng</property>
  <property name="meta.media.1.stream.type">audio</property>
  <property name="meta.media.1.codec.sample_fmt">fltp</property>
  <property name="meta.media.1.codec.sample_rate">48000</property>
  <property name="meta.media.1.codec.channels">7</property>
  <property name="meta.media.1.codec.name">dca</property>
  <property name="meta.media.1.codec.long_name">DCA (DTS Coherent Acoustics)</property>
  <property name="meta.media.1.codec.bit_rate">1536000</property>
  <property name="meta.attr.1.stream.language.markup">eng</property>
  <property name="meta.attr.1.stream.title.markup">Main Movie</property>
  <property name="meta.media.2.codec.name">srt</property>
  <property name="meta.media.2.codec.long_name">SubRip subtitle</property>
  <property name="meta.media.2.codec.bit_rate">0</property>
  <property name="meta.attr.2.stream.language.markup">eng</property>
  <property name="meta.attr.2.stream.title.markup">Subtitle #1</property>
  <property name="meta.media.3.codec.name">srt</property>
  <property name="meta.media.3.codec.long_name">SubRip subtitle</property>
  <property name="meta.media.3.codec.bit_rate">0</property>
  <property name="meta.attr.3.stream.language.markup">spa</property>
  <property name="meta.attr.3.stream.title.markup">Subtitle #2</property>
  <property name="meta.media.4.codec.name">srt</property>
  <property name="meta.media.4.codec.long_name">SubRip subtitle</property>
  <property name="meta.media.4.codec.bit_rate">0</property>
  <property name="meta.attr.4.stream.language.markup">swe</property>
  <property name="meta.attr.4.stream.title.markup">Subtitle #3</property>
  <property name="meta.media.5.codec.name">srt</property>
  <property name="meta.media.5.codec.long_name">SubRip subtitle</property>
  <property name="meta.media.5.codec.bit_rate">0</property>
  <property name="meta.attr.5.stream.language.markup">pol</property>
  <property name="meta.attr.5.stream.title.markup">Subtitle #4</property>
  <property name="meta.media.6.codec.name">srt</property>
  <property name="meta.media.6.codec.long_name">SubRip subtitle</property>
  <property name="meta.media.6.codec.bit_rate">0</property>
  <property name="meta.attr.6.stream.language.markup">dut</property>
  <property name="meta.attr.6.stream.title.markup">Subtitle #5</property>
  <property name="meta.media.7.codec.name">srt</property>
  <property name="meta.media.7.codec.long_name">SubRip subtitle</property>
  <property name="meta.media.7.codec.bit_rate">0</property>
  <property name="meta.attr.7.stream.language.markup">hun</property>
  <property name="meta.attr.7.stream.title.markup">Subtitle #5</property>
  <property name="meta.media.8.codec.name">srt</property>
  <property name="meta.media.8.codec.long_name">SubRip subtitle</property>
  <property name="meta.media.8.codec.bit_rate">0</property>
  <property name="meta.attr.8.stream.language.markup">fin</property>
  <property name="meta.attr.8.stream.title.markup">Subtitle #7</property>
  <property name="meta.attr.encoder.markup">libebml v1.3.0 + libmatroska v1.4.0</property>
  <property name="meta.attr.creation_time.markup">2013-03-06 19:22:31</property>
  <property name="seekable">1</property>
  <property name="meta.media.sample_aspect_num">1</property>
  <property name="meta.media.sample_aspect_den">1</property>
  <property name="aspect_ratio">1</property>
  <property name="audio_index">1</property>
  <property name="video_index">0</property>
  <property name="mute_on_pause">1</property>
  <property name="mlt_service">avformat</property>
  <property name="meta.media.frame_rate_num">24000</property>
  <property name="meta.media.frame_rate_den">1001</property>
  <property name="meta.media.colorspace">709</property>
  <property name="meta.media.color_trc">2</property>
  <property name="meta.media.width">1280</property>
  <property name="meta.media.height">534</property>
  <property name="meta.media.top_field_first">0</property>
  <property name="meta.media.progressive">1</property>
  <property name="global_feed">1</property>
 </producer>
 <producer id="3_video" out="244275" title="Anonymous Submission" in="0">
  <property name="mlt_type">producer</property>
  <property name="length">02:49:38:04</property>
  <property name="eof">pause</property>
  <property name="resource">/media/cassi/SilverSqueaker/backup-new/movies/action/hobbit/The.Hobbit.An.Unexpected.Journey.2012.720p.BluRay.DTS-ES.x264-tRuEHD.mkv</property>
  <property name="meta.media.nb_streams">9</property>
  <property name="meta.media.0.stream.type">video</property>
  <property name="meta.media.0.stream.frame_rate">23.976</property>
  <property name="meta.media.0.stream.sample_aspect_ratio">1</property>
  <property name="meta.media.0.codec.width">1280</property>
  <property name="meta.media.0.codec.height">534</property>
  <property name="meta.media.0.codec.rotate">0</property>
  <property name="meta.media.0.codec.frame_rate">23.976</property>
  <property name="meta.media.0.codec.pix_fmt">yuv420p</property>
  <property name="meta.media.0.codec.sample_aspect_ratio">1</property>
  <property name="meta.media.0.codec.colorspace">709</property>
  <property name="meta.media.0.codec.name">h264</property>
  <property name="meta.media.0.codec.long_name">H.264 / AVC / MPEG-4 AVC / MPEG-4 part 10</property>
  <property name="meta.media.0.codec.bit_rate">0</property>
  <property name="meta.attr.0.stream.language.markup">eng</property>
  <property name="meta.media.1.stream.type">audio</property>
  <property name="meta.media.1.codec.sample_fmt">fltp</property>
  <property name="meta.media.1.codec.sample_rate">48000</property>
  <property name="meta.media.1.codec.channels">7</property>
  <property name="meta.media.1.codec.name">dca</property>
  <property name="meta.media.1.codec.long_name">DCA (DTS Coherent Acoustics)</property>
  <property name="meta.media.1.codec.bit_rate">1536000</property>
  <property name="meta.attr.1.stream.language.markup">eng</property>
  <property name="meta.attr.1.stream.title.markup">Main Movie</property>
  <property name="meta.media.2.codec.name">srt</property>
  <property name="meta.media.2.codec.long_name">SubRip subtitle</property>
  <property name="meta.media.2.codec.bit_rate">0</property>
  <property name="meta.attr.2.stream.language.markup">eng</property>
  <property name="meta.attr.2.stream.title.markup">Subtitle #1</property>
  <property name="meta.media.3.codec.name">srt</property>
  <property name="meta.media.3.codec.long_name">SubRip subtitle</property>
  <property name="meta.media.3.codec.bit_rate">0</property>
  <property name="meta.attr.3.stream.language.markup">spa</property>
  <property name="meta.attr.3.stream.title.markup">Subtitle #2</property>
  <property name="meta.media.4.codec.name">srt</property>
  <property name="meta.media.4.codec.long_name">SubRip subtitle</property>
  <property name="meta.media.4.codec.bit_rate">0</property>
  <property name="meta.attr.4.stream.language.markup">swe</property>
  <property name="meta.attr.4.stream.title.markup">Subtitle #3</property>
  <property name="meta.media.5.codec.name">srt</property>
  <property name="meta.media.5.codec.long_name">SubRip subtitle</property>
  <property name="meta.media.5.codec.bit_rate">0</property>
  <property name="meta.attr.5.stream.language.markup">pol</property>
  <property name="meta.attr.5.stream.title.markup">Subtitle #4</property>
  <property name="meta.media.6.codec.name">srt</property>
  <property name="meta.media.6.codec.long_name">SubRip subtitle</property>
  <property name="meta.media.6.codec.bit_rate">0</property>
  <property name="meta.attr.6.stream.language.markup">dut</property>
  <property name="meta.attr.6.stream.title.markup">Subtitle #5</property>
  <property name="meta.media.7.codec.name">srt</property>
  <property name="meta.media.7.codec.long_name">SubRip subtitle</property>
  <property name="meta.media.7.codec.bit_rate">0</property>
  <property name="meta.attr.7.stream.language.markup">hun</property>
  <property name="meta.attr.7.stream.title.markup">Subtitle #5</property>
  <property name="meta.media.8.codec.name">srt</property>
  <property name="meta.media.8.codec.long_name">SubRip subtitle</property>
  <property name="meta.media.8.codec.bit_rate">0</property>
  <property name="meta.attr.8.stream.language.markup">fin</property>
  <property name="meta.attr.8.stream.title.markup">Subtitle #7</property>
  <property name="meta.attr.encoder.markup">libebml v1.3.0 + libmatroska v1.4.0</property>
  <property name="meta.attr.creation_time.markup">2013-03-06 19:22:31</property>
  <property name="seekable">1</property>
  <property name="meta.media.sample_aspect_num">1</property>
  <property name="meta.media.sample_aspect_den">1</property>
  <property name="aspect_ratio">1</property>
  <property name="audio_index">-1</property>
  <property name="video_index">0</property>
  <property name="mute_on_pause">1</property>
  <property name="mlt_service">avformat</property>
  <property name="kdenlive:file_hash">cb27a31175b869914daeb30fd94f9ce1</property>
  <property name="kdenlive:file_size">9954075332</property>
  <property name="kdenlive:clipname">The.Hobbit.An.Unexpected.Journey.2012.720p.BluRay.DTS-ES.x264-tRuEHD.mkv</property>
  <property name="global_feed">1</property>
  <property name="xml">was here</property>
  <property name="meta.media.frame_rate_num">24000</property>
  <property name="meta.media.frame_rate_den">1001</property>
  <property name="meta.media.colorspace">709</property>
  <property name="meta.media.color_trc">2</property>
  <property name="meta.media.width">1280</property>
  <property name="meta.media.height">534</property>
  <property name="meta.media.top_field_first">0</property>
  <property name="meta.media.progressive">1</property>
 </producer>
 <producer id="3_playlist4_audio" out="244275" title="Anonymous Submission" in="0">
  <property name="mlt_type">producer</property>
  <property name="length">244276</property>
  <property name="eof">pause</property>
  <property name="resource">/media/cassi/SilverSqueaker/backup-new/movies/action/hobbit/The.Hobbit.An.Unexpected.Journey.2012.720p.BluRay.DTS-ES.x264-tRuEHD.mkv</property>
  <property name="meta.media.nb_streams">9</property>
  <property name="meta.media.0.stream.type">video</property>
  <property name="meta.media.0.stream.frame_rate">23.976</property>
  <property name="meta.media.0.stream.sample_aspect_ratio">1</property>
  <property name="meta.media.0.codec.width">1280</property>
  <property name="meta.media.0.codec.height">534</property>
  <property name="meta.media.0.codec.rotate">0</property>
  <property name="meta.media.0.codec.frame_rate">23.976</property>
  <property name="meta.media.0.codec.pix_fmt">yuv420p</property>
  <property name="meta.media.0.codec.sample_aspect_ratio">1</property>
  <property name="meta.media.0.codec.colorspace">709</property>
  <property name="meta.media.0.codec.name">h264</property>
  <property name="meta.media.0.codec.long_name">H.264 / AVC / MPEG-4 AVC / MPEG-4 part 10</property>
  <property name="meta.media.0.codec.bit_rate">0</property>
  <property name="meta.attr.0.stream.language.markup">eng</property>
  <property name="meta.media.1.stream.type">audio</property>
  <property name="meta.media.1.codec.sample_fmt">fltp</property>
  <property name="meta.media.1.codec.sample_rate">48000</property>
  <property name="meta.media.1.codec.channels">7</property>
  <property name="meta.media.1.codec.name">dca</property>
  <property name="meta.media.1.codec.long_name">DCA (DTS Coherent Acoustics)</property>
  <property name="meta.media.1.codec.bit_rate">1536000</property>
  <property name="meta.attr.1.stream.language.markup">eng</property>
  <property name="meta.attr.1.stream.title.markup">Main Movie</property>
  <property name="meta.media.2.codec.name">srt</property>
  <property name="meta.media.2.codec.long_name">SubRip subtitle</property>
  <property name="meta.media.2.codec.bit_rate">0</property>
  <property name="meta.attr.2.stream.language.markup">eng</property>
  <property name="meta.attr.2.stream.title.markup">Subtitle #1</property>
  <property name="meta.media.3.codec.name">srt</property>
  <property name="meta.media.3.codec.long_name">SubRip subtitle</property>
  <property name="meta.media.3.codec.bit_rate">0</property>
  <property name="meta.attr.3.stream.language.markup">spa</property>
  <property name="meta.attr.3.stream.title.markup">Subtitle #2</property>
  <property name="meta.media.4.codec.name">srt</property>
  <property name="meta.media.4.codec.long_name">SubRip subtitle</property>
  <property name="meta.media.4.codec.bit_rate">0</property>
  <property name="meta.attr.4.stream.language.markup">swe</property>
  <property name="meta.attr.4.stream.title.markup">Subtitle #3</property>
  <property name="meta.media.5.codec.name">srt</property>
  <property name="meta.media.5.codec.long_name">SubRip subtitle</property>
  <property name="meta.media.5.codec.bit_rate">0</property>
  <property name="meta.attr.5.stream.language.markup">pol</property>
  <property name="meta.attr.5.stream.title.markup">Subtitle #4</property>
  <property name="meta.media.6.codec.name">srt</property>
  <property name="meta.media.6.codec.long_name">SubRip subtitle</property>
  <property name="meta.media.6.codec.bit_rate">0</property>
  <property name="meta.attr.6.stream.language.markup">dut</property>
  <property name="meta.attr.6.stream.title.markup">Subtitle #5</property>
  <property name="meta.media.7.codec.name">srt</property>
  <property name="meta.media.7.codec.long_name">SubRip subtitle</property>
  <property name="meta.media.7.codec.bit_rate">0</property>
  <property name="meta.attr.7.stream.language.markup">hun</property>
  <property name="meta.attr.7.stream.title.markup">Subtitle #5</property>
  <property name="meta.media.8.codec.name">srt</property>
  <property name="meta.media.8.codec.long_name">SubRip subtitle</property>
  <property name="meta.media.8.codec.bit_rate">0</property>
  <property name="meta.attr.8.stream.language.markup">fin</property>
  <property name="meta.attr.8.stream.title.markup">Subtitle #7</property>
  <property name="meta.attr.encoder.markup">libebml v1.3.0 + libmatroska v1.4.0</property>
  <property name="meta.attr.creation_time.markup">2013-03-06 19:22:31</property>
  <property name="seekable">1</property>
  <property name="meta.media.sample_aspect_num">1</property>
  <property name="meta.media.sample_aspect_den">1</property>
  <property name="aspect_ratio">1</property>
  <property name="audio_index">1</property>
  <property name="video_index">-1</property>
  <property name="mute_on_pause">1</property>
  <property name="mlt_service">avformat</property>
  <property name="global_feed">1</property>
  <property name="xml">was here</property>
 </producer>
 <producer id="1_playlist4" out="268700" title="Anonymous Submission" in="0">
  <property name="mlt_type">mlt_producer</property>
  <property name="length">268701</property>
  <property name="eof">pause</property>
  <property name="resource">/media/cassi/SilverSqueaker/backup-new/movies/action/hobbit/The.Hobbit.Desolation.Of.Smaug.Extended.Edition.2013.BluRay.DTS-ES.x264-tRuEHD.mkv</property>
  <property name="meta.media.nb_streams">6</property>
  <property name="meta.media.0.stream.type">video</property>
  <property name="meta.media.0.stream.frame_rate">23.976</property>
  <property name="meta.media.0.stream.sample_aspect_ratio">1</property>
  <property name="meta.media.0.codec.width">1280</property>
  <property name="meta.media.0.codec.height">534</property>
  <property name="meta.media.0.codec.rotate">0</property>
  <property name="meta.media.0.codec.frame_rate">23.976</property>
  <property name="meta.media.0.codec.pix_fmt">yuv420p</property>
  <property name="meta.media.0.codec.sample_aspect_ratio">1</property>
  <property name="meta.media.0.codec.colorspace">709</property>
  <property name="meta.media.0.codec.name">h264</property>
  <property name="meta.media.0.codec.long_name">H.264 / AVC / MPEG-4 AVC / MPEG-4 part 10</property>
  <property name="meta.media.0.codec.bit_rate">0</property>
  <property name="meta.attr.0.stream.language.markup">eng</property>
  <property name="meta.media.1.stream.type">audio</property>
  <property name="meta.media.1.codec.sample_fmt">fltp</property>
  <property name="meta.media.1.codec.sample_rate">48000</property>
  <property name="meta.media.1.codec.channels">7</property>
  <property name="meta.media.1.codec.name">dca</property>
  <property name="meta.media.1.codec.long_name">DCA (DTS Coherent Acoustics)</property>
  <property name="meta.media.1.codec.bit_rate">1536000</property>
  <property name="meta.attr.1.stream.language.markup">eng</property>
  <property name="meta.attr.1.stream.title.markup">Main Audio</property>
  <property name="meta.media.2.stream.type">audio</property>
  <property name="meta.media.2.codec.sample_fmt">fltp</property>
  <property name="meta.media.2.codec.sample_rate">48000</property>
  <property name="meta.media.2.codec.channels">2</property>
  <property name="meta.media.2.codec.name">ac3</property>
  <property name="meta.media.2.codec.long_name">ATSC A/52A (AC-3)</property>
  <property name="meta.media.2.codec.bit_rate">128000</property>
  <property name="meta.attr.2.stream.language.markup">eng</property>
  <property name="meta.attr.2.stream.title.markup">Commentary</property>
  <property name="meta.media.3.codec.name">srt</property>
  <property name="meta.media.3.codec.long_name">SubRip subtitle</property>
  <property name="meta.media.3.codec.bit_rate">0</property>
  <property name="meta.attr.3.stream.language.markup">eng</property>
  <property name="meta.attr.3.stream.title.markup">Subtitle #1</property>
  <property name="meta.media.4.codec.name">srt</property>
  <property name="meta.media.4.codec.long_name">SubRip subtitle</property>
  <property name="meta.media.4.codec.bit_rate">0</property>
  <property name="meta.attr.4.stream.language.markup">fre</property>
  <property name="meta.attr.4.stream.title.markup">Subtitle #2</property>
  <property name="meta.media.5.codec.name">srt</property>
  <property name="meta.media.5.codec.long_name">SubRip subtitle</property>
  <property name="meta.media.5.codec.bit_rate">0</property>
  <property name="meta.attr.5.stream.language.markup">spa</property>
  <property name="meta.attr.5.stream.title.markup">Subtitle #3</property>
  <property name="meta.attr.encoder.markup">libebml v1.3.0 + libmatroska v1.4.1</property>
  <property name="meta.attr.creation_time.markup">2014-10-27 22:49:14</property>
  <property name="seekable">1</property>
  <property name="meta.media.sample_aspect_num">1</property>
  <property name="meta.media.sample_aspect_den">1</property>
  <property name="aspect_ratio">1</property>
  <property name="audio_index">1</property>
  <property name="video_index">0</property>
  <property name="mute_on_pause">1</property>
  <property name="mlt_service">avformat</property>
  <property name="meta.media.frame_rate_num">24000</property>
  <property name="meta.media.frame_rate_den">1001</property>
  <property name="meta.media.colorspace">709</property>
  <property name="meta.media.color_trc">2</property>
  <property name="meta.media.width">1280</property>
  <property name="meta.media.height">534</property>
  <property name="meta.media.top_field_first">0</property>
  <property name="meta.media.progressive">1</property>
  <property name="global_feed">1</property>
 </producer>
 <producer id="1_playlist4_audio" out="268700" title="Anonymous Submission" in="0">
  <property name="mlt_type">producer</property>
  <property name="length">03:06:35:21</property>
  <property name="eof">pause</property>
  <property name="resource">/media/cassi/SilverSqueaker/backup-new/movies/action/hobbit/The.Hobbit.Desolation.Of.Smaug.Extended.Edition.2013.BluRay.DTS-ES.x264-tRuEHD.mkv</property>
  <property name="meta.media.nb_streams">6</property>
  <property name="meta.media.0.stream.type">video</property>
  <property name="meta.media.0.stream.frame_rate">23.976</property>
  <property name="meta.media.0.stream.sample_aspect_ratio">1</property>
  <property name="meta.media.0.codec.width">1280</property>
  <property name="meta.media.0.codec.height">534</property>
  <property name="meta.media.0.codec.rotate">0</property>
  <property name="meta.media.0.codec.frame_rate">23.976</property>
  <property name="meta.media.0.codec.pix_fmt">yuv420p</property>
  <property name="meta.media.0.codec.sample_aspect_ratio">1</property>
  <property name="meta.media.0.codec.colorspace">709</property>
  <property name="meta.media.0.codec.name">h264</property>
  <property name="meta.media.0.codec.long_name">H.264 / AVC / MPEG-4 AVC / MPEG-4 part 10</property>
  <property name="meta.media.0.codec.bit_rate">0</property>
  <property name="meta.attr.0.stream.language.markup">eng</property>
  <property name="meta.media.1.stream.type">audio</property>
  <property name="meta.media.1.codec.sample_fmt">fltp</property>
  <property name="meta.media.1.codec.sample_rate">48000</property>
  <property name="meta.media.1.codec.channels">7</property>
  <property name="meta.media.1.codec.name">dca</property>
  <property name="meta.media.1.codec.long_name">DCA (DTS Coherent Acoustics)</property>
  <property name="meta.media.1.codec.bit_rate">1536000</property>
  <property name="meta.attr.1.stream.language.markup">eng</property>
  <property name="meta.attr.1.stream.title.markup">Main Audio</property>
  <property name="meta.media.2.stream.type">audio</property>
  <property name="meta.media.2.codec.sample_fmt">fltp</property>
  <property name="meta.media.2.codec.sample_rate">48000</property>
  <property name="meta.media.2.codec.channels">2</property>
  <property name="meta.media.2.codec.name">ac3</property>
  <property name="meta.media.2.codec.long_name">ATSC A/52A (AC-3)</property>
  <property name="meta.media.2.codec.bit_rate">128000</property>
  <property name="meta.attr.2.stream.language.markup">eng</property>
  <property name="meta.attr.2.stream.title.markup">Commentary</property>
  <property name="meta.media.3.codec.name">srt</property>
  <property name="meta.media.3.codec.long_name">SubRip subtitle</property>
  <property name="meta.media.3.codec.bit_rate">0</property>
  <property name="meta.attr.3.stream.language.markup">eng</property>
  <property name="meta.attr.3.stream.title.markup">Subtitle #1</property>
  <property name="meta.media.4.codec.name">srt</property>
  <property name="meta.media.4.codec.long_name">SubRip subtitle</property>
  <property name="meta.media.4.codec.bit_rate">0</property>
  <property name="meta.attr.4.stream.language.markup">fre</property>
  <property name="meta.attr.4.stream.title.markup">Subtitle #2</property>
  <property name="meta.media.5.codec.name">srt</property>
  <property name="meta.media.5.codec.long_name">SubRip subtitle</property>
  <property name="meta.media.5.codec.bit_rate">0</property>
  <property name="meta.attr.5.stream.language.markup">spa</property>
  <property name="meta.attr.5.stream.title.markup">Subtitle #3</property>
  <property name="meta.attr.encoder.markup">libebml v1.3.0 + libmatroska v1.4.1</property>
  <property name="meta.attr.creation_time.markup">2014-10-27 22:49:14</property>
  <property name="seekable">1</property>
  <property name="meta.media.sample_aspect_num">1</property>
  <property name="meta.media.sample_aspect_den">1</property>
  <property name="aspect_ratio">1</property>
  <property name="audio_index">1</property>
  <property name="video_index">-1</property>
  <property name="mute_on_pause">1</property>
  <property name="mlt_service">avformat</property>
  <property name="kdenlive:file_hash">8be2978c13f0cd02e7ae33c9d4ec03c9</property>
  <property name="kdenlive:file_size">10472010332</property>
  <property name="kdenlive:clipname">The.Hobbit.Desolation.Of.Smaug.Extended.Edition.2013.BluRay.DTS-ES.x264-tRuEHD.mkv</property>
  <property name="global_feed">1</property>
  <property name="xml">was here</property>
 </producer>
 <producer id="2_playlist4" out="208056" title="Anonymous Submission" in="0">
  <property name="mlt_type">mlt_producer</property>
  <property name="length">208057</property>
  <property name="eof">pause</property>
  <property name="resource">/media/cassi/SilverSqueaker/backup-new/movies/action/hobbit/The.Hobbit.The.Battle.of.the.Five.Armies.2014.720p.BluRay.DTS-ES.x264-tRuEHD.mkv</property>
  <property name="meta.media.nb_streams">11</property>
  <property name="meta.media.0.stream.type">video</property>
  <property name="meta.media.0.stream.frame_rate">23.976</property>
  <property name="meta.media.0.stream.sample_aspect_ratio">1</property>
  <property name="meta.media.0.codec.width">1280</property>
  <property name="meta.media.0.codec.height">534</property>
  <property name="meta.media.0.codec.rotate">0</property>
  <property name="meta.media.0.codec.frame_rate">23.976</property>
  <property name="meta.media.0.codec.pix_fmt">yuv420p</property>
  <property name="meta.media.0.codec.sample_aspect_ratio">1</property>
  <property name="meta.media.0.codec.colorspace">709</property>
  <property name="meta.media.0.codec.name">h264</property>
  <property name="meta.media.0.codec.long_name">H.264 / AVC / MPEG-4 AVC / MPEG-4 part 10</property>
  <property name="meta.media.0.codec.bit_rate">0</property>
  <property name="meta.attr.0.stream.language.markup">eng</property>
  <property name="meta.media.1.stream.type">audio</property>
  <property name="meta.media.1.codec.sample_fmt">fltp</property>
  <property name="meta.media.1.codec.sample_rate">48000</property>
  <property name="meta.media.1.codec.channels">7</property>
  <property name="meta.media.1.codec.name">dca</property>
  <property name="meta.media.1.codec.long_name">DCA (DTS Coherent Acoustics)</property>
  <property name="meta.media.1.codec.bit_rate">1536000</property>
  <property name="meta.attr.1.stream.language.markup">eng</property>
  <property name="meta.attr.1.stream.title.markup">Main Audio</property>
  <property name="meta.media.2.codec.name">srt</property>
  <property name="meta.media.2.codec.long_name">SubRip subtitle</property>
  <property name="meta.media.2.codec.bit_rate">0</property>
  <property name="meta.attr.2.stream.language.markup">eng</property>
  <property name="meta.attr.2.stream.title.markup">Subtitle #1</property>
  <property name="meta.media.3.codec.name">srt</property>
  <property name="meta.media.3.codec.long_name">SubRip subtitle</property>
  <property name="meta.media.3.codec.bit_rate">0</property>
  <property name="meta.attr.3.stream.language.markup">dan</property>
  <property name="meta.attr.3.stream.title.markup">Subtitle #2</property>
  <property name="meta.media.4.codec.name">srt</property>
  <property name="meta.media.4.codec.long_name">SubRip subtitle</property>
  <property name="meta.media.4.codec.bit_rate">0</property>
  <property name="meta.attr.4.stream.language.markup">dut</property>
  <property name="meta.attr.4.stream.title.markup">Subtitle #3</property>
  <property name="meta.media.5.codec.name">srt</property>
  <property name="meta.media.5.codec.long_name">SubRip subtitle</property>
  <property name="meta.media.5.codec.bit_rate">0</property>
  <property name="meta.attr.5.stream.language.markup">nor</property>
  <property name="meta.attr.5.stream.title.markup">Subtitle #4</property>
  <property name="meta.media.6.codec.name">srt</property>
  <property name="meta.media.6.codec.long_name">SubRip subtitle</property>
  <property name="meta.media.6.codec.bit_rate">0</property>
  <property name="meta.attr.6.stream.language.markup">pol</property>
  <property name="meta.attr.6.stream.title.markup">Subtitle #5</property>
  <property name="meta.media.7.codec.name">srt</property>
  <property name="meta.media.7.codec.long_name">SubRip subtitle</property>
  <property name="meta.media.7.codec.bit_rate">0</property>
  <property name="meta.attr.7.stream.language.markup">rum</property>
  <property name="meta.attr.7.stream.title.markup">Subtitle #6</property>
  <property name="meta.media.8.codec.name">srt</property>
  <property name="meta.media.8.codec.long_name">SubRip subtitle</property>
  <property name="meta.media.8.codec.bit_rate">0</property>
  <property name="meta.attr.8.stream.language.markup">spa</property>
  <property name="meta.attr.8.stream.title.markup">Subtitle #7</property>
  <property name="meta.media.9.codec.name">srt</property>
  <property name="meta.media.9.codec.long_name">SubRip subtitle</property>
  <property name="meta.media.9.codec.bit_rate">0</property>
  <property name="meta.attr.9.stream.language.markup">swe</property>
  <property name="meta.attr.9.stream.title.markup">Subtitle #8</property>
  <property name="meta.media.10.codec.name">srt</property>
  <property name="meta.media.10.codec.long_name">SubRip subtitle</property>
  <property name="meta.media.10.codec.bit_rate">0</property>
  <property name="meta.attr.10.stream.language.markup">tur</property>
  <property name="meta.attr.10.stream.title.markup">Subtitle #9</property>
  <property name="meta.attr.encoder.markup">libebml v1.3.0 + libmatroska v1.4.1</property>
  <property name="meta.attr.creation_time.markup">2015-03-12 04:24:50</property>
  <property name="seekable">1</property>
  <property name="meta.media.sample_aspect_num">1</property>
  <property name="meta.media.sample_aspect_den">1</property>
  <property name="aspect_ratio">1</property>
  <property name="audio_index">1</property>
  <property name="video_index">0</property>
  <property name="mute_on_pause">1</property>
  <property name="mlt_service">avformat</property>
  <property name="meta.media.frame_rate_num">24000</property>
  <property name="meta.media.frame_rate_den">1001</property>
  <property name="meta.media.colorspace">709</property>
  <property name="meta.media.color_trc">2</property>
  <property name="meta.media.width">1280</property>
  <property name="meta.media.height">534</property>
  <property name="meta.media.top_field_first">0</property>
  <property name="meta.media.progressive">1</property>
  <property name="global_feed">1</property>
 </producer>
 <producer id="2_playlist4_audio" out="208056" title="Anonymous Submission" in="0">
  <property name="mlt_type">mlt_producer</property>
  <property name="length">02:24:29:01</property>
  <property name="eof">pause</property>
  <property name="resource">/media/cassi/SilverSqueaker/backup-new/movies/action/hobbit/The.Hobbit.The.Battle.of.the.Five.Armies.2014.720p.BluRay.DTS-ES.x264-tRuEHD.mkv</property>
  <property name="meta.media.nb_streams">11</property>
  <property name="meta.media.0.stream.type">video</property>
  <property name="meta.media.0.stream.frame_rate">23.976</property>
  <property name="meta.media.0.stream.sample_aspect_ratio">1</property>
  <property name="meta.media.0.codec.width">1280</property>
  <property name="meta.media.0.codec.height">534</property>
  <property name="meta.media.0.codec.rotate">0</property>
  <property name="meta.media.0.codec.frame_rate">23.976</property>
  <property name="meta.media.0.codec.pix_fmt">yuv420p</property>
  <property name="meta.media.0.codec.sample_aspect_ratio">1</property>
  <property name="meta.media.0.codec.colorspace">709</property>
  <property name="meta.media.0.codec.name">h264</property>
  <property name="meta.media.0.codec.long_name">H.264 / AVC / MPEG-4 AVC / MPEG-4 part 10</property>
  <property name="meta.media.0.codec.bit_rate">0</property>
  <property name="meta.attr.0.stream.language.markup">eng</property>
  <property name="meta.media.1.stream.type">audio</property>
  <property name="meta.media.1.codec.sample_fmt">fltp</property>
  <property name="meta.media.1.codec.sample_rate">48000</property>
  <property name="meta.media.1.codec.channels">7</property>
  <property name="meta.media.1.codec.name">dca</property>
  <property name="meta.media.1.codec.long_name">DCA (DTS Coherent Acoustics)</property>
  <property name="meta.media.1.codec.bit_rate">1536000</property>
  <property name="meta.attr.1.stream.language.markup">eng</property>
  <property name="meta.attr.1.stream.title.markup">Main Audio</property>
  <property name="meta.media.2.codec.name">srt</property>
  <property name="meta.media.2.codec.long_name">SubRip subtitle</property>
  <property name="meta.media.2.codec.bit_rate">0</property>
  <property name="meta.attr.2.stream.language.markup">eng</property>
  <property name="meta.attr.2.stream.title.markup">Subtitle #1</property>
  <property name="meta.media.3.codec.name">srt</property>
  <property name="meta.media.3.codec.long_name">SubRip subtitle</property>
  <property name="meta.media.3.codec.bit_rate">0</property>
  <property name="meta.attr.3.stream.language.markup">dan</property>
  <property name="meta.attr.3.stream.title.markup">Subtitle #2</property>
  <property name="meta.media.4.codec.name">srt</property>
  <property name="meta.media.4.codec.long_name">SubRip subtitle</property>
  <property name="meta.media.4.codec.bit_rate">0</property>
  <property name="meta.attr.4.stream.language.markup">dut</property>
  <property name="meta.attr.4.stream.title.markup">Subtitle #3</property>
  <property name="meta.media.5.codec.name">srt</property>
  <property name="meta.media.5.codec.long_name">SubRip subtitle</property>
  <property name="meta.media.5.codec.bit_rate">0</property>
  <property name="meta.attr.5.stream.language.markup">nor</property>
  <property name="meta.attr.5.stream.title.markup">Subtitle #4</property>
  <property name="meta.media.6.codec.name">srt</property>
  <property name="meta.media.6.codec.long_name">SubRip subtitle</property>
  <property name="meta.media.6.codec.bit_rate">0</property>
  <property name="meta.attr.6.stream.language.markup">pol</property>
  <property name="meta.attr.6.stream.title.markup">Subtitle #5</property>
  <property name="meta.media.7.codec.name">srt</property>
  <property name="meta.media.7.codec.long_name">SubRip subtitle</property>
  <property name="meta.media.7.codec.bit_rate">0</property>
  <property name="meta.attr.7.stream.language.markup">rum</property>
  <property name="meta.attr.7.stream.title.markup">Subtitle #6</property>
  <property name="meta.media.8.codec.name">srt</property>
  <property name="meta.media.8.codec.long_name">SubRip subtitle</property>
  <property name="meta.media.8.codec.bit_rate">0</property>
  <property name="meta.attr.8.stream.language.markup">spa</property>
  <property name="meta.attr.8.stream.title.markup">Subtitle #7</property>
  <property name="meta.media.9.codec.name">srt</property>
  <property name="meta.media.9.codec.long_name">SubRip subtitle</property>
  <property name="meta.media.9.codec.bit_rate">0</property>
  <property name="meta.attr.9.stream.language.markup">swe</property>
  <property name="meta.attr.9.stream.title.markup">Subtitle #8</property>
  <property name="meta.media.10.codec.name">srt</property>
  <property name="meta.media.10.codec.long_name">SubRip subtitle</property>
  <property name="meta.media.10.codec.bit_rate">0</property>
  <property name="meta.attr.10.stream.language.markup">tur</property>
  <property name="meta.attr.10.stream.title.markup">Subtitle #9</property>
  <property name="meta.attr.encoder.markup">libebml v1.3.0 + libmatroska v1.4.1</property>
  <property name="meta.attr.creation_time.markup">2015-03-12 04:24:50</property>
  <property name="seekable">1</property>
  <property name="meta.media.sample_aspect_num">1</property>
  <property name="meta.media.sample_aspect_den">1</property>
  <property name="aspect_ratio">1</property>
  <property name="audio_index">1</property>
  <property name="video_index">-1</property>
  <property name="mute_on_pause">1</property>
  <property name="mlt_service">avformat</property>
  <property name="kdenlive:file_hash">871be6bb17b23fa99a05acde371b8110</property>
  <property name="kdenlive:file_size">8363749757</property>
  <property name="kdenlive:clipname">The.Hobbit.The.Battle.of.the.Five.Armies.2014.720p.BluRay.DTS-ES.x264-tRuEHD.mkv</property>
  <property name="global_feed">1</property>
  <property name="xml">was here</property>
 </producer>
 <playlist id="playlist4">
  <property name="kdenlive:track_name"/>
  <property name="kdenlive:locked_track">0</property>
  <property name="kdenlive:composite">1</property>
  <entry out="2528" in="0" producer="3_1_video"/>
  <entry out="13687" in="13200" producer="3_playlist4"/>
  <blank length="30"/>
  <entry out="12937" in="12850" producer="3_video"/>
  <blank length="38"/>
  <entry out="18668" in="18654" producer="3_playlist4">
   <filter id="filter299" out="18668" in="18654">
    <property name="window">75</property>
    <property name="max_gain">20dB</property>
    <property name="mlt_type">filter</property>
    <property name="mlt_service">volume</property>
    <property name="kdenlive_id">fadeout</property>
    <property name="tag">volume</property>
    <property name="kdenlive_ix">1</property>
    <property name="kdenlive_info"/>
    <property name="disable"/>
    <property name="gain">1</property>
    <property name="end">0</property>
   </filter>
   <filter id="filter300" out="18668" in="18654">
    <property name="window">75</property>
    <property name="max_gain">20dB</property>
    <property name="mlt_type">filter</property>
    <property name="mlt_service">volume</property>
    <property name="kdenlive_id">fadein</property>
    <property name="tag">volume</property>
    <property name="kdenlive_ix">2</property>
    <property name="kdenlive_info"/>
    <property name="disable"/>
    <property name="gain">0</property>
    <property name="end">1</property>
   </filter>
   <filter id="filter301" in="18654">
    <property name="window">75</property>
    <property name="max_gain">20dB</property>
    <property name="mlt_type">filter</property>
    <property name="mlt_service">volume</property>
    <property name="kdenlive_id">volume</property>
    <property name="tag">volume</property>
    <property name="kdenlive_ix">3</property>
    <property name="kdenlive_info"/>
    <property name="gain">0.7</property>
   </filter>
  </entry>
  <blank length="7831"/>
  <entry out="27687" in="27583" producer="3_playlist4">
   <filter id="filter302" out="27632" in="27583">
    <property name="window">75</property>
    <property name="max_gain">20dB</property>
    <property name="mlt_type">filter</property>
    <property name="mlt_service">volume</property>
    <property name="kdenlive_id">volume</property>
    <property name="tag">volume</property>
    <property name="kdenlive_ix">1</property>
    <property name="kdenlive_info"/>
    <property name="disable"/>
    <property name="gain">0.8</property>
    <property name="end">0.8</property>
   </filter>
   <filter id="filter303" out="27634" in="27633">
    <property name="window">75</property>
    <property name="max_gain">20dB</property>
    <property name="mlt_type">filter</property>
    <property name="mlt_service">volume</property>
    <property name="kdenlive_id">volume</property>
    <property name="tag">volume</property>
    <property name="kdenlive_ix">1</property>
    <property name="kdenlive_info"/>
    <property name="disable"/>
    <property name="gain">0.4</property>
    <property name="end">0</property>
   </filter>
   <filter id="filter304" out="27646" in="27635">
    <property name="window">75</property>
    <property name="max_gain">20dB</property>
    <property name="mlt_type">filter</property>
    <property name="mlt_service">volume</property>
    <property name="kdenlive_id">volume</property>
    <property name="tag">volume</property>
    <property name="kdenlive_ix">1</property>
    <property name="kdenlive_info"/>
    <property name="disable"/>
    <property name="gain">0</property>
    <property name="end">0</property>
   </filter>
   <filter id="filter305" out="27649" in="27647">
    <property name="window">75</property>
    <property name="max_gain">20dB</property>
    <property name="mlt_type">filter</property>
    <property name="mlt_service">volume</property>
    <property name="kdenlive_id">volume</property>
    <property name="tag">volume</property>
    <property name="kdenlive_ix">1</property>
    <property name="kdenlive_info"/>
    <property name="disable"/>
    <property name="gain">0.266667</property>
    <property name="end">0.8</property>
   </filter>
   <filter id="filter306" out="27658" in="27650">
    <property name="window">75</property>
    <property name="max_gain">20dB</property>
    <property name="mlt_type">filter</property>
    <property name="mlt_service">volume</property>
    <property name="kdenlive_id">volume</property>
    <property name="tag">volume</property>
    <property name="kdenlive_ix">1</property>
    <property name="kdenlive_info"/>
    <property name="disable"/>
    <property name="gain">0.8</property>
    <property name="end">0.8</property>
   </filter>
   <filter id="filter307" out="27667" in="27659">
    <property name="window">75</property>
    <property name="max_gain">20dB</property>
    <property name="mlt_type">filter</property>
    <property name="mlt_service">volume</property>
    <property name="kdenlive_id">volume</property>
    <property name="tag">volume</property>
    <property name="kdenlive_ix">1</property>
    <property name="kdenlive_info"/>
    <property name="disable"/>
    <property name="gain">0.755556</property>
    <property name="end">0.4</property>
   </filter>
   <filter id="filter308" out="27687" in="27668">
    <property name="window">75</property>
    <property name="max_gain">20dB</property>
    <property name="mlt_type">filter</property>
    <property name="mlt_service">volume</property>
    <property name="kdenlive_id">volume</property>
    <property name="tag">volume</property>
    <property name="kdenlive_ix">1</property>
    <property name="kdenlive_info"/>
    <property name="disable"/>
    <property name="gain">0.4</property>
    <property name="end">0.4</property>
   </filter>
  </entry>
  <blank length="2501"/>
  <entry out="33258" in="33235" producer="3_playlist4">
   <filter id="filter309" out="33258" in="33244">
    <property name="window">75</property>
    <property name="max_gain">20dB</property>
    <property name="mlt_type">filter</property>
    <property name="mlt_service">volume</property>
    <property name="kdenlive_id">fadeout</property>
    <property name="tag">volume</property>
    <property name="kdenlive_ix">1</property>
    <property name="gain">1</property>
    <property name="end">0</property>
    <property name="kdenlive_info"/>
   </filter>
  </entry>
  <blank length="4152"/>
  <entry out="41098" in="41043" producer="3_playlist4">
   <filter id="filter310" out="41098" in="41043">
    <property name="window">75</property>
    <property name="max_gain">20dB</property>
    <property name="mlt_type">filter</property>
    <property name="mlt_service">volume</property>
    <property name="kdenlive_id">volume</property>
    <property name="tag">volume</property>
    <property name="kdenlive_ix">1</property>
    <property name="kdenlive_info"/>
    <property name="disable"/>
    <property name="gain">0</property>
    <property name="end">1</property>
   </filter>
  </entry>
  <blank length="301"/>
  <entry out="41582" in="41564" producer="3_playlist4">
   <filter id="filter311" out="41582" in="41564">
    <property name="window">75</property>
    <property name="max_gain">20dB</property>
    <property name="mlt_type">filter</property>
    <property name="mlt_service">volume</property>
    <property name="kdenlive_id">volume</property>
    <property name="tag">volume</property>
    <property name="kdenlive_ix">1</property>
    <property name="kdenlive_info"/>
    <property name="disable"/>
    <property name="gain">0</property>
    <property name="end">1</property>
   </filter>
  </entry>
  <blank length="512"/>
  <entry out="42693" in="42548" producer="3_playlist4">
   <filter id="filter312" out="42571" in="42548">
    <property name="window">75</property>
    <property name="max_gain">20dB</property>
    <property name="mlt_type">filter</property>
    <property name="mlt_service">volume</property>
    <property name="kdenlive_id">volume</property>
    <property name="tag">volume</property>
    <property name="kdenlive_ix">1</property>
    <property name="kdenlive_info"/>
    <property name="disable"/>
    <property name="gain">0</property>
    <property name="end">0.5</property>
   </filter>
   <filter id="filter313" out="42658" in="42572">
    <property name="window">75</property>
    <property name="max_gain">20dB</property>
    <property name="mlt_type">filter</property>
    <property name="mlt_service">volume</property>
    <property name="kdenlive_id">volume</property>
    <property name="tag">volume</property>
    <property name="kdenlive_ix">1</property>
    <property name="kdenlive_info"/>
    <property name="disable"/>
    <property name="gain">0.505747</property>
    <property name="end">1</property>
   </filter>
   <filter id="filter314" out="42693" in="42659">
    <property name="window">75</property>
    <property name="max_gain">20dB</property>
    <property name="mlt_type">filter</property>
    <property name="mlt_service">volume</property>
    <property name="kdenlive_id">volume</property>
    <property name="tag">volume</property>
    <property name="kdenlive_ix">1</property>
    <property name="kdenlive_info"/>
    <property name="disable"/>
    <property name="gain">1</property>
    <property name="end">1</property>
   </filter>
  </entry>
  <blank length="3409"/>
  <entry out="46566" in="46502" producer="3_playlist4">
   <filter id="filter315" out="46508" in="46502">
    <property name="window">75</property>
    <property name="max_gain">20dB</property>
    <property name="mlt_type">filter</property>
    <property name="mlt_service">volume</property>
    <property name="kdenlive_id">fadein</property>
    <property name="tag">volume</property>
    <property name="kdenlive_ix">1</property>
    <property name="kdenlive_info"/>
    <property name="disable"/>
    <property name="gain">0</property>
    <property name="end">1</property>
   </filter>
  </entry>
  <blank length="1453"/>
  <entry out="48201" in="48165" producer="3_playlist4"/>
  <blank length="2697"/>
  <entry out="51939" in="51891" producer="3_playlist4">
   <filter id="filter316" out="51914" in="51891">
    <property name="window">75</property>
    <property name="max_gain">20dB</property>
    <property name="mlt_type">filter</property>
    <property name="mlt_service">volume</property>
    <property name="kdenlive_id">fadein</property>
    <property name="tag">volume</property>
    <property name="kdenlive_ix">1</property>
    <property name="kdenlive_info"/>
    <property name="disable"/>
    <property name="gain">0</property>
    <property name="end">1</property>
   </filter>
  </entry>
  <entry out="52193" in="51940" producer="3_playlist4"/>
  <entry out="52218" in="52194" producer="3_playlist4">
   <filter id="filter317" out="52201" in="52194">
    <property name="window">75</property>
    <property name="max_gain">20dB</property>
    <property name="mlt_type">filter</property>
    <property name="mlt_service">volume</property>
    <property name="kdenlive_id">volume</property>
    <property name="tag">volume</property>
    <property name="kdenlive_ix">1</property>
    <property name="kdenlive_info"/>
    <property name="disable"/>
    <property name="gain">1</property>
    <property name="end">0.6</property>
   </filter>
   <filter id="filter318" out="52214" in="52202">
    <property name="window">75</property>
    <property name="max_gain">20dB</property>
    <property name="mlt_type">filter</property>
    <property name="mlt_service">volume</property>
    <property name="kdenlive_id">volume</property>
    <property name="tag">volume</property>
    <property name="kdenlive_ix">1</property>
    <property name="kdenlive_info"/>
    <property name="disable"/>
    <property name="gain">0.565385</property>
    <property name="end">0.15</property>
   </filter>
   <filter id="filter319" out="52218" in="52215">
    <property name="window">75</property>
    <property name="max_gain">20dB</property>
    <property name="mlt_type">filter</property>
    <property name="mlt_service">volume</property>
    <property name="kdenlive_id">volume</property>
    <property name="tag">volume</property>
    <property name="kdenlive_ix">1</property>
    <property name="kdenlive_info"/>
    <property name="disable"/>
    <property name="gain">0.1125</property>
    <property name="end">0</property>
   </filter>
  </entry>
  <blank length="468"/>
  <entry out="53183" in="53073" producer="3_playlist4">
   <filter id="filter320" out="53083" in="53073">
    <property name="window">75</property>
    <property name="max_gain">20dB</property>
    <property name="mlt_type">filter</property>
    <property name="mlt_service">volume</property>
    <property name="kdenlive_id">fadein</property>
    <property name="tag">volume</property>
    <property name="kdenlive_ix">1</property>
    <property name="kdenlive_info"/>
    <property name="disable"/>
    <property name="gain">0</property>
    <property name="end">1</property>
   </filter>
  </entry>
  <blank length="3213"/>
  <entry out="57662" in="57653" producer="3_playlist4">
   <filter id="filter321" in="57653">
    <property name="window">75</property>
    <property name="max_gain">20dB</property>
    <property name="mlt_type">filter</property>
    <property name="mlt_service">volume</property>
    <property name="kdenlive_id">volume</property>
    <property name="tag">volume</property>
    <property name="kdenlive_ix">1</property>
    <property name="kdenlive_info"/>
    <property name="disable"/>
    <property name="gain">0.7</property>
   </filter>
  </entry>
  <blank length="2852"/>
  <entry out="60583" in="60515" producer="3_playlist4">
   <filter id="filter322" out="60584" in="60515">
    <property name="window">75</property>
    <property name="max_gain">20dB</property>
    <property name="mlt_type">filter</property>
    <property name="mlt_service">volume</property>
    <property name="kdenlive_id">volume</property>
    <property name="tag">volume</property>
    <property name="kdenlive_ix">1</property>
    <property name="kdenlive_info"/>
    <property name="disable"/>
    <property name="gain">0.6</property>
    <property name="end">0</property>
   </filter>
  </entry>
  <blank length="4221"/>
  <entry out="65814" in="65787" producer="3_playlist4">
   <filter id="filter323" out="65814" in="65787">
    <property name="window">75</property>
    <property name="max_gain">20dB</property>
    <property name="mlt_type">filter</property>
    <property name="mlt_service">volume</property>
    <property name="kdenlive_id">volume</property>
    <property name="tag">volume</property>
    <property name="kdenlive_ix">1</property>
    <property name="kdenlive_info"/>
    <property name="disable"/>
    <property name="gain">0</property>
    <property name="end">0.6</property>
   </filter>
  </entry>
  <entry out="65596" in="65559" producer="3_playlist4">
   <filter id="filter324" out="65567" in="65559">
    <property name="window">75</property>
    <property name="max_gain">20dB</property>
    <property name="mlt_type">filter</property>
    <property name="mlt_service">volume</property>
    <property name="kdenlive_id">volume</property>
    <property name="tag">volume</property>
    <property name="kdenlive_ix">1</property>
    <property name="kdenlive_info"/>
    <property name="disable"/>
    <property name="gain">0.6</property>
    <property name="end">0.6</property>
   </filter>
   <filter id="filter325" out="65596" in="65568">
    <property name="window">75</property>
    <property name="max_gain">20dB</property>
    <property name="mlt_type">filter</property>
    <property name="mlt_service">volume</property>
    <property name="kdenlive_id">volume</property>
    <property name="tag">volume</property>
    <property name="kdenlive_ix">1</property>
    <property name="kdenlive_info"/>
    <property name="disable"/>
    <property name="gain">0.57931</property>
    <property name="end">0</property>
   </filter>
  </entry>
  <blank length="768"/>
  <entry out="66853" in="66831" producer="3_playlist4">
   <filter id="filter326" out="66853" in="66831">
    <property name="window">75</property>
    <property name="max_gain">20dB</property>
    <property name="mlt_type">filter</property>
    <property name="mlt_service">volume</property>
    <property name="kdenlive_id">volume</property>
    <property name="tag">volume</property>
    <property name="kdenlive_ix">1</property>
    <property name="kdenlive_info"/>
    <property name="disable"/>
    <property name="gain">0</property>
    <property name="end">0.6</property>
   </filter>
  </entry>
  <entry out="66678" in="66644" producer="3_playlist4">
   <filter id="filter327" out="66678" in="66644">
    <property name="window">75</property>
    <property name="max_gain">20dB</property>
    <property name="mlt_type">filter</property>
    <property name="mlt_service">volume</property>
    <property name="kdenlive_id">volume</property>
    <property name="tag">volume</property>
    <property name="kdenlive_ix">1</property>
    <property name="kdenlive_info"/>
    <property name="disable"/>
    <property name="gain">0.6</property>
    <property name="end">0</property>
   </filter>
  </entry>
  <blank length="49"/>
  <entry out="67266" in="67222" producer="3_playlist4">
   <filter id="filter328" out="67226" in="67222">
    <property name="window">75</property>
    <property name="max_gain">20dB</property>
    <property name="mlt_type">filter</property>
    <property name="mlt_service">volume</property>
    <property name="kdenlive_id">fadein</property>
    <property name="tag">volume</property>
    <property name="kdenlive_ix">1</property>
    <property name="kdenlive_info"/>
    <property name="disable"/>
    <property name="gain">0</property>
    <property name="end">1</property>
   </filter>
  </entry>
  <blank length="2097"/>
  <entry out="69712" in="69662" producer="3_playlist4">
   <filter id="filter329" out="69712" in="69662">
    <property name="window">75</property>
    <property name="max_gain">20dB</property>
    <property name="mlt_type">filter</property>
    <property name="mlt_service">volume</property>
    <property name="kdenlive_id">fadein</property>
    <property name="tag">volume</property>
    <property name="kdenlive_ix">1</property>
    <property name="kdenlive_info"/>
    <property name="disable"/>
    <property name="gain">0</property>
    <property name="end">1</property>
   </filter>
  </entry>
  <entry out="69499" in="69415" producer="3_playlist4">
   <filter id="filter330" out="69499" in="69424">
    <property name="window">75</property>
    <property name="max_gain">20dB</property>
    <property name="mlt_type">filter</property>
    <property name="mlt_service">volume</property>
    <property name="kdenlive_id">fadeout</property>
    <property name="tag">volume</property>
    <property name="kdenlive_ix">1</property>
    <property name="kdenlive_info"/>
    <property name="disable"/>
    <property name="gain">1</property>
    <property name="end">0</property>
   </filter>
   <filter id="filter331" in="69415">
    <property name="window">75</property>
    <property name="max_gain">20dB</property>
    <property name="mlt_type">filter</property>
    <property name="mlt_service">volume</property>
    <property name="kdenlive_id">volume</property>
    <property name="tag">volume</property>
    <property name="kdenlive_ix">2</property>
    <property name="kdenlive_info"/>
    <property name="disable"/>
    <property name="gain">0.6</property>
   </filter>
  </entry>
  <blank length="259"/>
  <entry out="70174" in="70057" producer="3_playlist4">
   <filter id="filter332" out="70129" in="70057">
    <property name="window">75</property>
    <property name="max_gain">20dB</property>
    <property name="mlt_type">filter</property>
    <property name="mlt_service">volume</property>
    <property name="kdenlive_id">volume</property>
    <property name="tag">volume</property>
    <property name="kdenlive_ix">1</property>
    <property name="kdenlive_info"/>
    <property name="disable"/>
    <property name="gain">1</property>
    <property name="end">1</property>
   </filter>
   <filter id="filter333" out="70137" in="70130">
    <property name="window">75</property>
    <property name="max_gain">20dB</property>
    <property name="mlt_type">filter</property>
    <property name="mlt_service">volume</property>
    <property name="kdenlive_id">volume</property>
    <property name="tag">volume</property>
    <property name="kdenlive_ix">1</property>
    <property name="kdenlive_info"/>
    <property name="disable"/>
    <property name="gain">0.875</property>
    <property name="end">0</property>
   </filter>
   <filter id="filter334" out="70174" in="70138">
    <property name="window">75</property>
    <property name="max_gain">20dB</property>
    <property name="mlt_type">filter</property>
    <property name="mlt_service">volume</property>
    <property name="kdenlive_id">volume</property>
    <property name="tag">volume</property>
    <property name="kdenlive_ix">1</property>
    <property name="kdenlive_info"/>
    <property name="disable"/>
    <property name="gain">0</property>
    <property name="end">0</property>
   </filter>
  </entry>
  <blank length="772"/>
  <entry out="72324" in="72313" producer="3_playlist4">
   <filter id="filter335" out="72319" in="72313">
    <property name="window">75</property>
    <property name="max_gain">20dB</property>
    <property name="mlt_type">filter</property>
    <property name="mlt_service">volume</property>
    <property name="kdenlive_id">fadein</property>
    <property name="tag">volume</property>
    <property name="kdenlive_ix">1</property>
    <property name="kdenlive_info"/>
    <property name="disable"/>
    <property name="gain">0</property>
    <property name="end">1</property>
   </filter>
  </entry>
  <blank length="1387"/>
  <entry out="82658" in="82644" producer="3_playlist4">
   <filter id="filter336" out="82658" in="82644">
    <property name="window">75</property>
    <property name="max_gain">20dB</property>
    <property name="mlt_type">filter</property>
    <property name="mlt_service">volume</property>
    <property name="kdenlive_id">fadein</property>
    <property name="tag">volume</property>
    <property name="kdenlive_ix">1</property>
    <property name="kdenlive_info"/>
    <property name="disable"/>
    <property name="gain">0</property>
    <property name="end">1</property>
   </filter>
   <filter id="filter337" in="82644">
    <property name="window">75</property>
    <property name="max_gain">20dB</property>
    <property name="mlt_type">filter</property>
    <property name="mlt_service">volume</property>
    <property name="kdenlive_id">volume</property>
    <property name="tag">volume</property>
    <property name="kdenlive_ix">2</property>
    <property name="kdenlive_info"/>
    <property name="disable"/>
    <property name="gain">1</property>
   </filter>
  </entry>
  <blank length="4575"/>
  <entry out="88148" in="88118" producer="3_playlist4">
   <filter id="filter338" out="88148" in="88118">
    <property name="window">75</property>
    <property name="max_gain">20dB</property>
    <property name="mlt_type">filter</property>
    <property name="mlt_service">volume</property>
    <property name="kdenlive_id">volume</property>
    <property name="tag">volume</property>
    <property name="kdenlive_ix">1</property>
    <property name="kdenlive_info"/>
    <property name="disable"/>
    <property name="gain">0</property>
    <property name="end">0.7</property>
   </filter>
  </entry>
  <blank length="2859"/>
  <entry out="91343" in="91329" producer="3_playlist4">
   <filter id="filter339" out="91343" in="91329">
    <property name="window">75</property>
    <property name="max_gain">20dB</property>
    <property name="mlt_type">filter</property>
    <property name="mlt_service">volume</property>
    <property name="kdenlive_id">volume</property>
    <property name="tag">volume</property>
    <property name="kdenlive_ix">1</property>
    <property name="kdenlive_info"/>
    <property name="disable"/>
    <property name="gain">0</property>
    <property name="end">0.5</property>
   </filter>
  </entry>
  <entry out="91032" in="91023" producer="3_playlist4">
   <filter id="filter340" out="91032" in="91023">
    <property name="window">75</property>
    <property name="max_gain">20dB</property>
    <property name="mlt_type">filter</property>
    <property name="mlt_service">volume</property>
    <property name="kdenlive_id">volume</property>
    <property name="tag">volume</property>
    <property name="kdenlive_ix">1</property>
    <property name="kdenlive_info"/>
    <property name="disable"/>
    <property name="gain">0.5</property>
    <property name="end">0</property>
   </filter>
  </entry>
  <blank length="358"/>
  <entry out="92243" in="92176" producer="3_playlist4">
   <filter id="filter341" out="92227" in="92176">
    <property name="window">75</property>
    <property name="max_gain">20dB</property>
    <property name="mlt_type">filter</property>
    <property name="mlt_service">volume</property>
    <property name="kdenlive_id">fadein</property>
    <property name="tag">volume</property>
    <property name="kdenlive_ix">1</property>
    <property name="kdenlive_info"/>
    <property name="disable"/>
    <property name="gain">0</property>
    <property name="end">1</property>
   </filter>
   <filter id="filter342" in="92176">
    <property name="window">75</property>
    <property name="max_gain">20dB</property>
    <property name="mlt_type">filter</property>
    <property name="mlt_service">volume</property>
    <property name="kdenlive_id">volume</property>
    <property name="tag">volume</property>
    <property name="kdenlive_ix">2</property>
    <property name="kdenlive_info"/>
    <property name="disable"/>
    <property name="gain">0.5</property>
   </filter>
  </entry>
  <blank length="9119"/>
  <entry out="102433" in="102416" producer="3_playlist4">
   <filter id="filter343" out="102433" in="102416">
    <property name="window">75</property>
    <property name="max_gain">20dB</property>
    <property name="mlt_type">filter</property>
    <property name="mlt_service">volume</property>
    <property name="kdenlive_id">fadein</property>
    <property name="tag">volume</property>
    <property name="kdenlive_ix">1</property>
    <property name="kdenlive_info"/>
    <property name="disable"/>
    <property name="gain">0</property>
    <property name="end">1</property>
   </filter>
   <filter id="filter344" in="102416">
    <property name="window">75</property>
    <property name="max_gain">20dB</property>
    <property name="mlt_type">filter</property>
    <property name="mlt_service">volume</property>
    <property name="kdenlive_id">volume</property>
    <property name="tag">volume</property>
    <property name="kdenlive_ix">2</property>
    <property name="kdenlive_info"/>
    <property name="disable"/>
    <property name="gain">1</property>
   </filter>
   <filter id="filter345" in="82644">
    <property name="window">75</property>
    <property name="max_gain">20dB</property>
    <property name="mlt_type">filter</property>
    <property name="mlt_service">volume</property>
    <property name="kdenlive_id">volume</property>
    <property name="tag">volume</property>
    <property name="kdenlive_ix">3</property>
    <property name="kdenlive_info"/>
    <property name="disable"/>
    <property name="gain">1</property>
   </filter>
  </entry>
  <entry out="101434" in="101381" producer="3_playlist4">
   <filter id="filter346" out="101434" in="101381">
    <property name="window">75</property>
    <property name="max_gain">20dB</property>
    <property name="mlt_type">filter</property>
    <property name="mlt_service">volume</property>
    <property name="kdenlive_id">volume</property>
    <property name="tag">volume</property>
    <property name="kdenlive_ix">1</property>
    <property name="kdenlive_info"/>
    <property name="disable"/>
    <property name="gain">0.5</property>
    <property name="end">0</property>
   </filter>
  </entry>
  <blank length="988"/>
  <entry out="118544" in="118524" producer="3_playlist4_audio">
   <filter id="filter347" out="118544" in="118524">
    <property name="window">75</property>
    <property name="max_gain">20dB</property>
    <property name="mlt_type">filter</property>
    <property name="mlt_service">volume</property>
    <property name="kdenlive_id">fadein</property>
    <property name="tag">volume</property>
    <property name="kdenlive_ix">1</property>
    <property name="kdenlive_info"/>
    <property name="disable"/>
    <property name="gain">0</property>
    <property name="end">1</property>
   </filter>
   <filter id="filter348" in="82644">
    <property name="window">75</property>
    <property name="max_gain">20dB</property>
    <property name="mlt_type">filter</property>
    <property name="mlt_service">volume</property>
    <property name="kdenlive_id">volume</property>
    <property name="tag">volume</property>
    <property name="kdenlive_ix">2</property>
    <property name="kdenlive_info"/>
    <property name="disable"/>
    <property name="gain">1</property>
   </filter>
  </entry>
  <blank length="1784"/>
  <entry out="120542" in="120531" producer="3_playlist4">
   <filter id="filter349" out="120533" in="120531">
    <property name="window">75</property>
    <property name="max_gain">20dB</property>
    <property name="mlt_type">filter</property>
    <property name="mlt_service">volume</property>
    <property name="kdenlive_id">volume</property>
    <property name="tag">volume</property>
    <property name="kdenlive_ix">1</property>
    <property name="kdenlive_info"/>
    <property name="disable"/>
    <property name="gain">0.2</property>
    <property name="end">1</property>
   </filter>
   <filter id="filter350" out="120542" in="120534">
    <property name="window">75</property>
    <property name="max_gain">20dB</property>
    <property name="mlt_type">filter</property>
    <property name="mlt_service">volume</property>
    <property name="kdenlive_id">volume</property>
    <property name="tag">volume</property>
    <property name="kdenlive_ix">1</property>
    <property name="kdenlive_info"/>
    <property name="disable"/>
    <property name="gain">1</property>
    <property name="end">1</property>
   </filter>
  </entry>
  <blank length="511"/>
  <entry out="121169" in="121051" producer="3_playlist4_audio">
   <filter id="filter351" out="121169" in="121094">
    <property name="window">75</property>
    <property name="max_gain">20dB</property>
    <property name="mlt_type">filter</property>
    <property name="mlt_service">volume</property>
    <property name="kdenlive_id">fadeout</property>
    <property name="tag">volume</property>
    <property name="kdenlive_ix">1</property>
    <property name="kdenlive_info"/>
    <property name="disable"/>
    <property name="gain">1</property>
    <property name="end">0</property>
   </filter>
  </entry>
  <blank length="981"/>
  <entry out="123660" in="123630" producer="3_playlist4">
   <filter id="filter352" out="123660" in="123630">
    <property name="window">75</property>
    <property name="max_gain">20dB</property>
    <property name="mlt_type">filter</property>
    <property name="mlt_service">volume</property>
    <property name="kdenlive_id">volume</property>
    <property name="tag">volume</property>
    <property name="kdenlive_ix">1</property>
    <property name="kdenlive_info"/>
    <property name="disable"/>
    <property name="gain">0</property>
    <property name="end">0.7</property>
   </filter>
  </entry>
  <entry out="123363" in="123327" producer="3_playlist4">
   <filter id="filter353" out="123363" in="123327">
    <property name="window">75</property>
    <property name="max_gain">20dB</property>
    <property name="mlt_type">filter</property>
    <property name="mlt_service">volume</property>
    <property name="kdenlive_id">volume</property>
    <property name="tag">volume</property>
    <property name="kdenlive_ix">1</property>
    <property name="kdenlive_info"/>
    <property name="disable"/>
    <property name="gain">0.7</property>
    <property name="end">0</property>
   </filter>
  </entry>
  <blank length="302"/>
  <entry out="125976" in="124441" producer="3_playlist4">
   <filter id="filter354" out="124465" in="124441">
    <property name="window">75</property>
    <property name="max_gain">20dB</property>
    <property name="mlt_type">filter</property>
    <property name="mlt_service">volume</property>
    <property name="kdenlive_id">fadein</property>
    <property name="tag">volume</property>
    <property name="kdenlive_ix">1</property>
    <property name="kdenlive_info"/>
    <property name="disable"/>
    <property name="gain">0</property>
    <property name="end">1</property>
   </filter>
  </entry>
  <blank length="2179"/>
  <entry out="129476" in="129304" producer="3_playlist4">
   <filter id="filter355" out="129855" in="129838">
    <property name="window">75</property>
    <property name="max_gain">20dB</property>
    <property name="mlt_type">filter</property>
    <property name="mlt_service">volume</property>
    <property name="kdenlive_id">fadeout</property>
    <property name="tag">volume</property>
    <property name="kdenlive_ix">1</property>
    <property name="kdenlive_info"/>
    <property name="disable"/>
    <property name="gain">1</property>
    <property name="end">0</property>
   </filter>
   <filter id="filter356" out="129316" in="129304">
    <property name="window">75</property>
    <property name="max_gain">20dB</property>
    <property name="mlt_type">filter</property>
    <property name="mlt_service">volume</property>
    <property name="kdenlive_id">fadein</property>
    <property name="tag">volume</property>
    <property name="kdenlive_ix">2</property>
    <property name="kdenlive_info"/>
    <property name="disable"/>
    <property name="gain">0</property>
    <property name="end">1</property>
   </filter>
  </entry>
  <blank length="368"/>
  <entry out="130229" in="130217" producer="3_playlist4">
   <filter id="filter357" out="130230" in="130217">
    <property name="window">75</property>
    <property name="max_gain">20dB</property>
    <property name="mlt_type">filter</property>
    <property name="mlt_service">volume</property>
    <property name="kdenlive_id">fadein</property>
    <property name="tag">volume</property>
    <property name="kdenlive_ix">1</property>
    <property name="kdenlive_info"/>
    <property name="disable"/>
    <property name="gain">0</property>
    <property name="end">1</property>
   </filter>
   <filter id="filter358" out="130229" in="130217">
    <property name="window">75</property>
    <property name="max_gain">20dB</property>
    <property name="mlt_type">filter</property>
    <property name="mlt_service">volume</property>
    <property name="kdenlive_id">volume</property>
    <property name="tag">volume</property>
    <property name="kdenlive_ix">2</property>
    <property name="kdenlive_info"/>
    <property name="disable"/>
    <property name="gain">1</property>
    <property name="end">1</property>
   </filter>
  </entry>
  <blank length="416"/>
  <entry out="130792" in="130762" producer="3_playlist4">
   <filter id="filter359" out="130792" in="130762">
    <property name="window">75</property>
    <property name="max_gain">20dB</property>
    <property name="mlt_type">filter</property>
    <property name="mlt_service">volume</property>
    <property name="kdenlive_id">volume</property>
    <property name="tag">volume</property>
    <property name="kdenlive_ix">1</property>
    <property name="kdenlive_info"/>
    <property name="disable"/>
    <property name="gain">1</property>
    <property name="end">1</property>
   </filter>
   <filter id="filter360" out="130792" in="130762">
    <property name="window">75</property>
    <property name="max_gain">20dB</property>
    <property name="mlt_type">filter</property>
    <property name="mlt_service">volume</property>
    <property name="kdenlive_id">fadein</property>
    <property name="tag">volume</property>
    <property name="kdenlive_ix">2</property>
    <property name="kdenlive_info"/>
    <property name="disable"/>
    <property name="gain">0</property>
    <property name="end">1</property>
   </filter>
  </entry>
  <entry out="130703" in="130677" producer="3_playlist4">
   <filter id="filter361" out="130703" in="130677">
    <property name="window">75</property>
    <property name="max_gain">20dB</property>
    <property name="mlt_type">filter</property>
    <property name="mlt_service">volume</property>
    <property name="kdenlive_id">volume</property>
    <property name="tag">volume</property>
    <property name="kdenlive_ix">1</property>
    <property name="kdenlive_info"/>
    <property name="disable"/>
    <property name="gain">1</property>
    <property name="end">1</property>
   </filter>
   <filter id="filter362" out="130703" in="130677">
    <property name="window">75</property>
    <property name="max_gain">20dB</property>
    <property name="mlt_type">filter</property>
    <property name="mlt_service">volume</property>
    <property name="kdenlive_id">fadeout</property>
    <property name="tag">volume</property>
    <property name="kdenlive_ix">2</property>
    <property name="kdenlive_info"/>
    <property name="disable"/>
    <property name="gain">1</property>
    <property name="end">0</property>
   </filter>
  </entry>
  <blank length="771"/>
  <entry out="130792" in="130729" producer="3_playlist4">
   <filter id="filter363">
    <property name="window">75</property>
    <property name="max_gain">20dB</property>
    <property name="mlt_type">filter</property>
    <property name="mlt_service">volume</property>
    <property name="kdenlive_id">mute</property>
    <property name="tag">volume</property>
    <property name="kdenlive_ix">1</property>
    <property name="kdenlive_info"/>
    <property name="disable"/>
    <property name="gain">0</property>
   </filter>
  </entry>
  <blank length="341"/>
  <entry out="145679" in="145617" producer="3_playlist4">
   <filter id="filter364" out="145634" in="145617">
    <property name="window">75</property>
    <property name="max_gain">20dB</property>
    <property name="mlt_type">filter</property>
    <property name="mlt_service">volume</property>
    <property name="kdenlive_id">volume</property>
    <property name="tag">volume</property>
    <property name="kdenlive_ix">1</property>
    <property name="kdenlive_info"/>
    <property name="disable"/>
    <property name="gain">0</property>
    <property name="end">0.6</property>
   </filter>
   <filter id="filter365" out="145665" in="145635">
    <property name="window">75</property>
    <property name="max_gain">20dB</property>
    <property name="mlt_type">filter</property>
    <property name="mlt_service">volume</property>
    <property name="kdenlive_id">volume</property>
    <property name="tag">volume</property>
    <property name="kdenlive_ix">1</property>
    <property name="kdenlive_info"/>
    <property name="disable"/>
    <property name="gain">0.606452</property>
    <property name="end">0.8</property>
   </filter>
   <filter id="filter366" out="145676" in="145666">
    <property name="window">75</property>
    <property name="max_gain">20dB</property>
    <property name="mlt_type">filter</property>
    <property name="mlt_service">volume</property>
    <property name="kdenlive_id">volume</property>
    <property name="tag">volume</property>
    <property name="kdenlive_ix">1</property>
    <property name="kdenlive_info"/>
    <property name="disable"/>
    <property name="gain">0.727273</property>
    <property name="end">0</property>
   </filter>
   <filter id="filter367" out="145680" in="145677">
    <property name="window">75</property>
    <property name="max_gain">20dB</property>
    <property name="mlt_type">filter</property>
    <property name="mlt_service">volume</property>
    <property name="kdenlive_id">volume</property>
    <property name="tag">volume</property>
    <property name="kdenlive_ix">1</property>
    <property name="kdenlive_info"/>
    <property name="disable"/>
    <property name="gain">0</property>
    <property name="end">0</property>
   </filter>
  </entry>
  <blank length="293"/>
  <entry out="146065" in="146029" producer="3_playlist4">
   <filter id="filter368" out="146049" in="146029">
    <property name="window">75</property>
    <property name="max_gain">20dB</property>
    <property name="mlt_type">filter</property>
    <property name="mlt_service">volume</property>
    <property name="kdenlive_id">volume</property>
    <property name="tag">volume</property>
    <property name="kdenlive_ix">1</property>
    <property name="kdenlive_info"/>
    <property name="disable"/>
    <property name="gain">0</property>
    <property name="end">0.35</property>
   </filter>
   <filter id="filter369" out="146065" in="146050">
    <property name="window">75</property>
    <property name="max_gain">20dB</property>
    <property name="mlt_type">filter</property>
    <property name="mlt_service">volume</property>
    <property name="kdenlive_id">volume</property>
    <property name="tag">volume</property>
    <property name="kdenlive_ix">1</property>
    <property name="kdenlive_info"/>
    <property name="disable"/>
    <property name="gain">0.390625</property>
    <property name="end">1</property>
   </filter>
  </entry>
  <blank length="264"/>
  <entry out="149639" in="149554" producer="3_playlist4">
   <filter id="filter370" out="149600" in="149554">
    <property name="window">75</property>
    <property name="max_gain">20dB</property>
    <property name="mlt_type">filter</property>
    <property name="mlt_service">volume</property>
    <property name="kdenlive_id">volume</property>
    <property name="tag">volume</property>
    <property name="kdenlive_ix">1</property>
    <property name="kdenlive_info"/>
    <property name="disable"/>
    <property name="gain">0</property>
    <property name="end">0.2</property>
   </filter>
   <filter id="filter371" out="149639" in="149601">
    <property name="window">75</property>
    <property name="max_gain">20dB</property>
    <property name="mlt_type">filter</property>
    <property name="mlt_service">volume</property>
    <property name="kdenlive_id">volume</property>
    <property name="tag">volume</property>
    <property name="kdenlive_ix">1</property>
    <property name="kdenlive_info"/>
    <property name="disable"/>
    <property name="gain">0.208205</property>
    <property name="end">0.52</property>
   </filter>
  </entry>
  <blank length="1008"/>
  <entry out="155552" in="155423" producer="3_playlist4">
   <filter id="filter372" out="155437" in="155423">
    <property name="window">75</property>
    <property name="max_gain">20dB</property>
    <property name="mlt_type">filter</property>
    <property name="mlt_service">volume</property>
    <property name="kdenlive_id">volume</property>
    <property name="tag">volume</property>
    <property name="kdenlive_ix">1</property>
    <property name="kdenlive_info"/>
    <property name="disable"/>
    <property name="gain">0</property>
    <property name="end">0.6</property>
   </filter>
   <filter id="filter373" out="155476" in="155438">
    <property name="window">75</property>
    <property name="max_gain">20dB</property>
    <property name="mlt_type">filter</property>
    <property name="mlt_service">volume</property>
    <property name="kdenlive_id">volume</property>
    <property name="tag">volume</property>
    <property name="kdenlive_ix">1</property>
    <property name="kdenlive_info"/>
    <property name="disable"/>
    <property name="gain">0.6</property>
    <property name="end">0.6</property>
   </filter>
   <filter id="filter374" out="155496" in="155477">
    <property name="window">75</property>
    <property name="max_gain">20dB</property>
    <property name="mlt_type">filter</property>
    <property name="mlt_service">volume</property>
    <property name="kdenlive_id">volume</property>
    <property name="tag">volume</property>
    <property name="kdenlive_ix">1</property>
    <property name="kdenlive_info"/>
    <property name="disable"/>
    <property name="gain">0.62</property>
    <property name="end">1</property>
   </filter>
   <filter id="filter375" out="155552" in="155497">
    <property name="window">75</property>
    <property name="max_gain">20dB</property>
    <property name="mlt_type">filter</property>
    <property name="mlt_service">volume</property>
    <property name="kdenlive_id">volume</property>
    <property name="tag">volume</property>
    <property name="kdenlive_ix">1</property>
    <property name="kdenlive_info"/>
    <property name="disable"/>
    <property name="gain">1</property>
    <property name="end">1</property>
   </filter>
  </entry>
  <blank length="157"/>
  <entry out="150763" in="150739" producer="3_playlist4">
   <filter id="filter376" out="150755" in="150739">
    <property name="window">75</property>
    <property name="max_gain">20dB</property>
    <property name="mlt_type">filter</property>
    <property name="mlt_service">volume</property>
    <property name="kdenlive_id">volume</property>
    <property name="tag">volume</property>
    <property name="kdenlive_ix">1</property>
    <property name="kdenlive_info"/>
    <property name="disable"/>
    <property name="gain">0</property>
    <property name="end">0.8</property>
   </filter>
   <filter id="filter377" out="150763" in="150756">
    <property name="window">75</property>
    <property name="max_gain">20dB</property>
    <property name="mlt_type">filter</property>
    <property name="mlt_service">volume</property>
    <property name="kdenlive_id">volume</property>
    <property name="tag">volume</property>
    <property name="kdenlive_ix">1</property>
    <property name="kdenlive_info"/>
    <property name="disable"/>
    <property name="gain">0.8</property>
    <property name="end">0.8</property>
   </filter>
  </entry>
  <blank length="1229"/>
  <entry out="150700" in="150683" producer="3_playlist4">
   <filter id="filter378" out="150684" in="150683">
    <property name="window">75</property>
    <property name="max_gain">20dB</property>
    <property name="mlt_type">filter</property>
    <property name="mlt_service">volume</property>
    <property name="kdenlive_id">volume</property>
    <property name="tag">volume</property>
    <property name="kdenlive_ix">1</property>
    <property name="kdenlive_info"/>
    <property name="disable"/>
    <property name="gain">0</property>
    <property name="end">0.8</property>
   </filter>
   <filter id="filter379" out="150700" in="150685">
    <property name="window">75</property>
    <property name="max_gain">20dB</property>
    <property name="mlt_type">filter</property>
    <property name="mlt_service">volume</property>
    <property name="kdenlive_id">volume</property>
    <property name="tag">volume</property>
    <property name="kdenlive_ix">1</property>
    <property name="kdenlive_info"/>
    <property name="disable"/>
    <property name="gain">0.8</property>
    <property name="end">0.8</property>
   </filter>
  </entry>
  <entry out="152062" in="152011" producer="3_playlist4">
   <filter id="filter292" out="152047" in="152011">
    <property name="window">75</property>
    <property name="max_gain">20dB</property>
    <property name="mlt_type">filter</property>
    <property name="mlt_service">volume</property>
    <property name="kdenlive_id">volume</property>
    <property name="tag">volume</property>
    <property name="kdenlive_ix">1</property>
    <property name="kdenlive_info"/>
    <property name="disable"/>
    <property name="gain">0.7</property>
    <property name="end">0.5</property>
   </filter>
   <filter id="filter293" out="152062" in="152048">
    <property name="window">75</property>
    <property name="max_gain">20dB</property>
    <property name="mlt_type">filter</property>
    <property name="mlt_service">volume</property>
    <property name="kdenlive_id">volume</property>
    <property name="tag">volume</property>
    <property name="kdenlive_ix">1</property>
    <property name="kdenlive_info"/>
    <property name="disable"/>
    <property name="gain">0.466667</property>
    <property name="end">0</property>
   </filter>
  </entry>
  <blank length="724"/>
  <entry out="160391" in="160298" producer="3_playlist4">
   <filter id="filter382" out="160359" in="160298">
    <property name="window">75</property>
    <property name="max_gain">20dB</property>
    <property name="mlt_type">filter</property>
    <property name="mlt_service">volume</property>
    <property name="kdenlive_id">fadein</property>
    <property name="tag">volume</property>
    <property name="kdenlive_ix">1</property>
    <property name="kdenlive_info"/>
    <property name="disable"/>
    <property name="gain">0</property>
    <property name="end">1</property>
   </filter>
   <filter id="filter383" in="160298">
    <property name="window">75</property>
    <property name="max_gain">20dB</property>
    <property name="mlt_type">filter</property>
    <property name="mlt_service">volume</property>
    <property name="kdenlive_id">volume</property>
    <property name="tag">volume</property>
    <property name="kdenlive_ix">2</property>
    <property name="kdenlive_info"/>
    <property name="disable"/>
    <property name="gain">1</property>
   </filter>
  </entry>
  <blank length="397"/>
  <entry out="160834" in="160790" producer="3_playlist4_audio">
   <filter id="filter384" in="155780">
    <property name="window">75</property>
    <property name="max_gain">20dB</property>
    <property name="mlt_type">filter</property>
    <property name="mlt_service">volume</property>
    <property name="kdenlive_id">volume</property>
    <property name="tag">volume</property>
    <property name="kdenlive_ix">1</property>
    <property name="kdenlive_info"/>
    <property name="disable"/>
    <property name="gain">1</property>
   </filter>
  </entry>
  <blank length="101"/>
  <entry out="161365" in="161355" producer="3_playlist4">
   <filter id="filter385" out="161365" in="161355">
    <property name="window">75</property>
    <property name="max_gain">20dB</property>
    <property name="mlt_type">filter</property>
    <property name="mlt_service">volume</property>
    <property name="kdenlive_id">volume</property>
    <property name="tag">volume</property>
    <property name="kdenlive_ix">1</property>
    <property name="kdenlive_info"/>
    <property name="disable"/>
    <property name="gain">0</property>
    <property name="end">0.5</property>
   </filter>
   <filter id="filter386" in="161355">
    <property name="window">75</property>
    <property name="max_gain">20dB</property>
    <property name="mlt_type">filter</property>
    <property name="mlt_service">volume</property>
    <property name="kdenlive_id">volume</property>
    <property name="tag">volume</property>
    <property name="kdenlive_ix">2</property>
    <property name="kdenlive_info"/>
    <property name="disable"/>
    <property name="gain">1</property>
   </filter>
  </entry>
  <entry out="161173" in="161165" producer="3_playlist4">
   <filter id="filter387" out="161173" in="161165">
    <property name="window">75</property>
    <property name="max_gain">20dB</property>
    <property name="mlt_type">filter</property>
    <property name="mlt_service">volume</property>
    <property name="kdenlive_id">volume</property>
    <property name="tag">volume</property>
    <property name="kdenlive_ix">1</property>
    <property name="kdenlive_info"/>
    <property name="disable"/>
    <property name="gain">0.5</property>
    <property name="end">0</property>
   </filter>
  </entry>
  <blank length="905"/>
  <entry out="162352" in="162280" producer="3_playlist4_audio">
   <filter id="filter388" in="162280">
    <property name="window">75</property>
    <property name="max_gain">20dB</property>
    <property name="mlt_type">filter</property>
    <property name="mlt_service">volume</property>
    <property name="kdenlive_id">volume</property>
    <property name="tag">volume</property>
    <property name="kdenlive_ix">1</property>
    <property name="kdenlive_info"/>
    <property name="disable"/>
    <property name="gain">0.5</property>
   </filter>
   <filter id="filter389" out="162352" in="162316">
    <property name="window">75</property>
    <property name="max_gain">20dB</property>
    <property name="mlt_type">filter</property>
    <property name="mlt_service">volume</property>
    <property name="kdenlive_id">fadeout</property>
    <property name="tag">volume</property>
    <property name="kdenlive_ix">2</property>
    <property name="kdenlive_info"/>
    <property name="disable"/>
    <property name="gain">1</property>
    <property name="end">0</property>
   </filter>
   <filter id="filter390" in="155780">
    <property name="window">75</property>
    <property name="max_gain">20dB</property>
    <property name="mlt_type">filter</property>
    <property name="mlt_service">volume</property>
    <property name="kdenlive_id">volume</property>
    <property name="tag">volume</property>
    <property name="kdenlive_ix">3</property>
    <property name="kdenlive_info"/>
    <property name="disable"/>
    <property name="gain">1</property>
   </filter>
  </entry>
  <blank length="393"/>
  <entry out="163139" in="163124" producer="3_playlist4">
   <filter id="filter391" out="163139" in="163064">
    <property name="window">75</property>
    <property name="max_gain">20dB</property>
    <property name="mlt_type">filter</property>
    <property name="mlt_service">volume</property>
    <property name="kdenlive_id">fadeout</property>
    <property name="tag">volume</property>
    <property name="kdenlive_ix">1</property>
    <property name="kdenlive_info"/>
    <property name="disable"/>
    <property name="gain">1</property>
    <property name="end">0</property>
   </filter>
   <filter id="filter392" in="155780">
    <property name="window">75</property>
    <property name="max_gain">20dB</property>
    <property name="mlt_type">filter</property>
    <property name="mlt_service">volume</property>
    <property name="kdenlive_id">volume</property>
    <property name="tag">volume</property>
    <property name="kdenlive_ix">2</property>
    <property name="kdenlive_info"/>
    <property name="disable"/>
    <property name="gain">1</property>
   </filter>
  </entry>
  <blank length="1857"/>
  <entry out="189998" in="189948" producer="3_playlist4">
   <filter id="filter393" out="189972" in="189948">
    <property name="window">75</property>
    <property name="max_gain">20dB</property>
    <property name="mlt_type">filter</property>
    <property name="mlt_service">volume</property>
    <property name="kdenlive_id">volume</property>
    <property name="tag">volume</property>
    <property name="kdenlive_ix">1</property>
    <property name="kdenlive_info"/>
    <property name="disable"/>
    <property name="gain">0</property>
    <property name="end">0.7</property>
   </filter>
   <filter id="filter394" out="189998" in="189973">
    <property name="window">75</property>
    <property name="max_gain">20dB</property>
    <property name="mlt_type">filter</property>
    <property name="mlt_service">volume</property>
    <property name="kdenlive_id">volume</property>
    <property name="tag">volume</property>
    <property name="kdenlive_ix">1</property>
    <property name="kdenlive_info"/>
    <property name="disable"/>
    <property name="gain">0.703846</property>
    <property name="end">0.8</property>
   </filter>
  </entry>
  <blank length="672"/>
  <entry out="163363" in="163207" producer="3_playlist4">
   <filter id="filter395" out="163363" in="163288">
    <property name="window">75</property>
    <property name="max_gain">20dB</property>
    <property name="mlt_type">filter</property>
    <property name="mlt_service">volume</property>
    <property name="kdenlive_id">fadeout</property>
    <property name="tag">volume</property>
    <property name="kdenlive_ix">1</property>
    <property name="kdenlive_info"/>
    <property name="disable"/>
    <property name="gain">1</property>
    <property name="end">0</property>
   </filter>
   <filter id="filter396" in="163207">
    <property name="window">75</property>
    <property name="max_gain">20dB</property>
    <property name="mlt_type">filter</property>
    <property name="mlt_service">volume</property>
    <property name="kdenlive_id">volume</property>
    <property name="tag">volume</property>
    <property name="kdenlive_ix">2</property>
    <property name="kdenlive_info"/>
    <property name="disable"/>
    <property name="gain">1</property>
   </filter>
  </entry>
  <blank length="17189"/>
  <entry out="195646" in="195589" producer="3_playlist4">
   <filter id="filter397" out="195637" in="195589">
    <property name="window">75</property>
    <property name="max_gain">20dB</property>
    <property name="mlt_type">filter</property>
    <property name="mlt_service">volume</property>
    <property name="kdenlive_id">volume</property>
    <property name="tag">volume</property>
    <property name="kdenlive_ix">1</property>
    <property name="kdenlive_info"/>
    <property name="disable"/>
    <property name="gain">0</property>
    <property name="end">0.5</property>
   </filter>
   <filter id="filter398" out="195646" in="195638">
    <property name="window">75</property>
    <property name="max_gain">20dB</property>
    <property name="mlt_type">filter</property>
    <property name="mlt_service">volume</property>
    <property name="kdenlive_id">volume</property>
    <property name="tag">volume</property>
    <property name="kdenlive_ix">1</property>
    <property name="kdenlive_info"/>
    <property name="disable"/>
    <property name="gain">0.5</property>
    <property name="end">0.5</property>
   </filter>
  </entry>
  <blank length="299"/>
  <entry out="196230" in="196222" producer="3_playlist4">
   <filter id="filter294" out="196230" in="196222">
    <property name="window">75</property>
    <property name="max_gain">20dB</property>
    <property name="mlt_type">filter</property>
    <property name="mlt_service">volume</property>
    <property name="kdenlive_id">volume</property>
    <property name="tag">volume</property>
    <property name="kdenlive_ix">1</property>
    <property name="kdenlive_info"/>
    <property name="disable"/>
    <property name="gain">0</property>
    <property name="end">0.5</property>
   </filter>
  </entry>
  <entry out="195965" in="195955" producer="3_playlist4">
   <filter id="filter400" out="195965" in="195955">
    <property name="window">75</property>
    <property name="max_gain">20dB</property>
    <property name="mlt_type">filter</property>
    <property name="mlt_service">volume</property>
    <property name="kdenlive_id">volume</property>
    <property name="tag">volume</property>
    <property name="kdenlive_ix">1</property>
    <property name="kdenlive_info"/>
    <property name="disable"/>
    <property name="gain">0.35</property>
    <property name="end">0</property>
   </filter>
  </entry>
  <blank length="159"/>
  <entry out="196428" in="196401" producer="3_playlist4">
   <filter id="filter401" out="196428" in="196401">
    <property name="window">75</property>
    <property name="max_gain">20dB</property>
    <property name="mlt_type">filter</property>
    <property name="mlt_service">volume</property>
    <property name="kdenlive_id">volume</property>
    <property name="tag">volume</property>
    <property name="kdenlive_ix">1</property>
    <property name="kdenlive_info"/>
    <property name="disable"/>
    <property name="gain">0.2</property>
    <property name="end">0.12</property>
   </filter>
   <filter id="fade_from_black" out="196406" in="196401">
    <property name="start">0</property>
    <property name="mlt_type">filter</property>
    <property name="mlt_service">brightness</property>
    <property name="kdenlive_id">fade_from_black</property>
    <property name="tag">brightness</property>
    <property name="kdenlive_ix">2</property>
    <property name="kdenlive_info"/>
    <property name="disable"/>
    <property name="end">1</property>
   </filter>
  </entry>
  <entry out="196458" in="196441" producer="3_playlist4">
   <filter id="filter402" out="196455" in="196441">
    <property name="window">75</property>
    <property name="max_gain">20dB</property>
    <property name="mlt_type">filter</property>
    <property name="mlt_service">volume</property>
    <property name="kdenlive_id">volume</property>
    <property name="tag">volume</property>
    <property name="kdenlive_ix">1</property>
    <property name="kdenlive_info"/>
    <property name="disable"/>
    <property name="gain">0.12</property>
    <property name="end">0.06</property>
   </filter>
   <filter id="filter403" out="196458" in="196456">
    <property name="window">75</property>
    <property name="max_gain">20dB</property>
    <property name="mlt_type">filter</property>
    <property name="mlt_service">volume</property>
    <property name="kdenlive_id">volume</property>
    <property name="tag">volume</property>
    <property name="kdenlive_ix">1</property>
    <property name="kdenlive_info"/>
    <property name="disable"/>
    <property name="gain">0.04</property>
    <property name="end">0</property>
   </filter>
  </entry>
  <blank length="1637"/>
  <entry out="192422" in="192371" producer="3_playlist4">
   <filter id="filter404" out="192422" in="192371">
    <property name="window">75</property>
    <property name="max_gain">20dB</property>
    <property name="mlt_type">filter</property>
    <property name="mlt_service">volume</property>
    <property name="kdenlive_id">volume</property>
    <property name="tag">volume</property>
    <property name="kdenlive_ix">1</property>
    <property name="kdenlive_info"/>
    <property name="disable"/>
    <property name="gain">1</property>
    <property name="end">1</property>
   </filter>
   <filter id="filter405" out="192422" in="192347">
    <property name="window">75</property>
    <property name="max_gain">20dB</property>
    <property name="mlt_type">filter</property>
    <property name="mlt_service">volume</property>
    <property name="kdenlive_id">fadeout</property>
    <property name="tag">volume</property>
    <property name="kdenlive_ix">2</property>
    <property name="kdenlive_info"/>
    <property name="disable"/>
    <property name="gain">1</property>
    <property name="end">0</property>
   </filter>
  </entry>
  <blank length="3766"/>
  <entry out="202739" in="202737" producer="3_playlist4">
   <filter id="filter406" out="202739" in="202737">
    <property name="window">75</property>
    <property name="max_gain">20dB</property>
    <property name="mlt_type">filter</property>
    <property name="mlt_service">volume</property>
    <property name="kdenlive_id">volume</property>
    <property name="tag">volume</property>
    <property name="kdenlive_ix">1</property>
    <property name="kdenlive_info"/>
    <property name="disable"/>
    <property name="gain">0</property>
    <property name="end">0.33</property>
   </filter>
  </entry>
  <entry out="202556" in="202541" producer="3_playlist4">
   <filter id="filter407" out="202557" in="202541">
    <property name="window">75</property>
    <property name="max_gain">20dB</property>
    <property name="mlt_type">filter</property>
    <property name="mlt_service">volume</property>
    <property name="kdenlive_id">volume</property>
    <property name="tag">volume</property>
    <property name="kdenlive_ix">1</property>
    <property name="kdenlive_info"/>
    <property name="disable"/>
    <property name="gain">1</property>
    <property name="end">0</property>
   </filter>
  </entry>
  <blank length="53"/>
  <entry out="202820" in="202809" producer="3_playlist4">
   <filter id="filter408" out="202820" in="202809">
    <property name="window">75</property>
    <property name="max_gain">20dB</property>
    <property name="mlt_type">filter</property>
    <property name="mlt_service">volume</property>
    <property name="kdenlive_id">volume</property>
    <property name="tag">volume</property>
    <property name="kdenlive_ix">1</property>
    <property name="kdenlive_info"/>
    <property name="disable"/>
    <property name="gain">0.5</property>
    <property name="end">0</property>
   </filter>
  </entry>
  <blank length="31"/>
  <entry out="203505" in="203466" producer="3_playlist4">
   <filter id="filter409" out="203505" in="203466">
    <property name="window">75</property>
    <property name="max_gain">20dB</property>
    <property name="mlt_type">filter</property>
    <property name="mlt_service">volume</property>
    <property name="kdenlive_id">volume</property>
    <property name="tag">volume</property>
    <property name="kdenlive_ix">1</property>
    <property name="kdenlive_info"/>
    <property name="disable"/>
    <property name="gain">0</property>
    <property name="end">1</property>
   </filter>
  </entry>
  <blank length="845"/>
  <entry out="204421" in="204351" producer="3_playlist4">
   <filter id="filter410" out="204381" in="204351">
    <property name="window">75</property>
    <property name="max_gain">20dB</property>
    <property name="mlt_type">filter</property>
    <property name="mlt_service">volume</property>
    <property name="kdenlive_id">volume</property>
    <property name="tag">volume</property>
    <property name="kdenlive_ix">1</property>
    <property name="kdenlive_info"/>
    <property name="disable"/>
    <property name="gain">1</property>
    <property name="end">1</property>
   </filter>
   <filter id="filter411" out="204421" in="204382">
    <property name="window">75</property>
    <property name="max_gain">20dB</property>
    <property name="mlt_type">filter</property>
    <property name="mlt_service">volume</property>
    <property name="kdenlive_id">volume</property>
    <property name="tag">volume</property>
    <property name="kdenlive_ix">1</property>
    <property name="kdenlive_info"/>
    <property name="disable"/>
    <property name="gain">0.975</property>
    <property name="end">0</property>
   </filter>
  </entry>
  <blank length="100"/>
  <entry out="204709" in="204696" producer="3_playlist4">
   <filter id="filter412" out="204698" in="204696">
    <property name="window">75</property>
    <property name="max_gain">20dB</property>
    <property name="mlt_type">filter</property>
    <property name="mlt_service">volume</property>
    <property name="kdenlive_id">volume</property>
    <property name="tag">volume</property>
    <property name="kdenlive_ix">1</property>
    <property name="kdenlive_info"/>
    <property name="disable"/>
    <property name="gain">0</property>
    <property name="end">1</property>
   </filter>
   <filter id="filter413" out="204709" in="204699">
    <property name="window">75</property>
    <property name="max_gain">20dB</property>
    <property name="mlt_type">filter</property>
    <property name="mlt_service">volume</property>
    <property name="kdenlive_id">volume</property>
    <property name="tag">volume</property>
    <property name="kdenlive_ix">1</property>
    <property name="kdenlive_info"/>
    <property name="disable"/>
    <property name="gain">1</property>
    <property name="end">1</property>
   </filter>
  </entry>
  <blank length="278"/>
  <entry out="205146" in="205113" producer="3_playlist4">
   <filter id="filter414" out="205120" in="205113">
    <property name="window">75</property>
    <property name="max_gain">20dB</property>
    <property name="mlt_type">filter</property>
    <property name="mlt_service">volume</property>
    <property name="kdenlive_id">volume</property>
    <property name="tag">volume</property>
    <property name="kdenlive_ix">1</property>
    <property name="kdenlive_info"/>
    <property name="disable"/>
    <property name="gain">0</property>
    <property name="end">0.7</property>
   </filter>
   <filter id="filter415" out="205146" in="205121">
    <property name="window">75</property>
    <property name="max_gain">20dB</property>
    <property name="mlt_type">filter</property>
    <property name="mlt_service">volume</property>
    <property name="kdenlive_id">volume</property>
    <property name="tag">volume</property>
    <property name="kdenlive_ix">1</property>
    <property name="kdenlive_info"/>
    <property name="disable"/>
    <property name="gain">0.711538</property>
    <property name="end">1</property>
   </filter>
  </entry>
  <blank length="1912"/>
  <entry out="207660" in="207594" producer="3_playlist4">
   <filter id="filter416" out="207660" in="207607">
    <property name="window">75</property>
    <property name="max_gain">20dB</property>
    <property name="mlt_type">filter</property>
    <property name="mlt_service">volume</property>
    <property name="kdenlive_id">fadeout</property>
    <property name="tag">volume</property>
    <property name="kdenlive_ix">1</property>
    <property name="kdenlive_info"/>
    <property name="disable"/>
    <property name="gain">1</property>
    <property name="end">0</property>
   </filter>
   <filter id="filter417" in="207594">
    <property name="window">75</property>
    <property name="max_gain">20dB</property>
    <property name="mlt_type">filter</property>
    <property name="mlt_service">volume</property>
    <property name="kdenlive_id">volume</property>
    <property name="tag">volume</property>
    <property name="kdenlive_ix">2</property>
    <property name="kdenlive_info"/>
    <property name="disable"/>
    <property name="gain">0.7</property>
   </filter>
  </entry>
  <blank length="118"/>
  <entry out="208351" in="208310" producer="3_playlist4">
   <filter id="filter418" out="208351" in="208310">
    <property name="window">75</property>
    <property name="max_gain">20dB</property>
    <property name="mlt_type">filter</property>
    <property name="mlt_service">volume</property>
    <property name="kdenlive_id">fadeout</property>
    <property name="tag">volume</property>
    <property name="kdenlive_ix">1</property>
    <property name="kdenlive_info"/>
    <property name="disable"/>
    <property name="gain">1</property>
    <property name="end">0</property>
   </filter>
   <filter id="filter419" in="208310">
    <property name="window">75</property>
    <property name="max_gain">20dB</property>
    <property name="mlt_type">filter</property>
    <property name="mlt_service">volume</property>
    <property name="kdenlive_id">volume</property>
    <property name="tag">volume</property>
    <property name="kdenlive_ix">2</property>
    <property name="kdenlive_info"/>
    <property name="disable"/>
    <property name="gain">0.7</property>
   </filter>
  </entry>
  <blank length="136"/>
  <entry out="208792" in="208766" producer="3_playlist4">
   <filter id="filter420" out="208779" in="208766">
    <property name="window">75</property>
    <property name="max_gain">20dB</property>
    <property name="mlt_type">filter</property>
    <property name="mlt_service">volume</property>
    <property name="kdenlive_id">fadein</property>
    <property name="tag">volume</property>
    <property name="kdenlive_ix">1</property>
    <property name="kdenlive_info"/>
    <property name="disable"/>
    <property name="gain">0</property>
    <property name="end">1</property>
   </filter>
  </entry>
  <entry out="208725" in="208711" producer="3_playlist4">
   <filter id="filter421" in="208711">
    <property name="window">75</property>
    <property name="max_gain">20dB</property>
    <property name="mlt_type">filter</property>
    <property name="mlt_service">volume</property>
    <property name="kdenlive_id">volume</property>
    <property name="tag">volume</property>
    <property name="kdenlive_ix">1</property>
    <property name="kdenlive_info"/>
    <property name="disable"/>
    <property name="gain">0.3</property>
   </filter>
   <filter id="filter422" out="208725" in="208711">
    <property name="window">75</property>
    <property name="max_gain">20dB</property>
    <property name="mlt_type">filter</property>
    <property name="mlt_service">volume</property>
    <property name="kdenlive_id">fadeout</property>
    <property name="tag">volume</property>
    <property name="kdenlive_ix">2</property>
    <property name="kdenlive_info"/>
    <property name="disable"/>
    <property name="gain">1</property>
    <property name="end">0</property>
   </filter>
  </entry>
  <blank length="595"/>
  <entry out="209416" in="209403" producer="3_playlist4">
   <filter id="filter423" out="209416" in="209412">
    <property name="window">75</property>
    <property name="max_gain">20dB</property>
    <property name="mlt_type">filter</property>
    <property name="mlt_service">volume</property>
    <property name="kdenlive_id">fadeout</property>
    <property name="tag">volume</property>
    <property name="kdenlive_ix">1</property>
    <property name="kdenlive_info"/>
    <property name="disable"/>
    <property name="gain">1</property>
    <property name="end">0</property>
   </filter>
  </entry>
  <blank length="1580"/>
  <entry out="213804" in="213793" producer="3_playlist4">
   <filter id="filter424" in="213793">
    <property name="window">75</property>
    <property name="max_gain">20dB</property>
    <property name="mlt_type">filter</property>
    <property name="mlt_service">volume</property>
    <property name="kdenlive_id">volume</property>
    <property name="tag">volume</property>
    <property name="kdenlive_ix">1</property>
    <property name="kdenlive_info"/>
    <property name="disable"/>
    <property name="gain">0.7</property>
   </filter>
   <filter id="filter425" out="213804" in="213793">
    <property name="window">75</property>
    <property name="max_gain">20dB</property>
    <property name="mlt_type">filter</property>
    <property name="mlt_service">volume</property>
    <property name="kdenlive_id">fadein</property>
    <property name="tag">volume</property>
    <property name="kdenlive_ix">2</property>
    <property name="kdenlive_info"/>
    <property name="disable"/>
    <property name="gain">0</property>
    <property name="end">1</property>
   </filter>
  </entry>
  <entry out="213515" in="213502" producer="3_playlist4">
   <filter id="filter426" out="213515" in="213502">
    <property name="window">75</property>
    <property name="max_gain">20dB</property>
    <property name="mlt_type">filter</property>
    <property name="mlt_service">volume</property>
    <property name="kdenlive_id">fadeout</property>
    <property name="tag">volume</property>
    <property name="kdenlive_ix">1</property>
    <property name="kdenlive_info"/>
    <property name="disable"/>
    <property name="gain">1</property>
    <property name="end">0</property>
   </filter>
   <filter id="filter427" out="213515" in="213502">
    <property name="window">75</property>
    <property name="max_gain">20dB</property>
    <property name="mlt_type">filter</property>
    <property name="mlt_service">volume</property>
    <property name="kdenlive_id">volume</property>
    <property name="tag">volume</property>
    <property name="kdenlive_ix">2</property>
    <property name="kdenlive_info"/>
    <property name="disable"/>
    <property name="gain">0.7</property>
    <property name="end">0.7</property>
   </filter>
  </entry>
  <blank length="27"/>
  <entry out="219510" in="218917" producer="3_playlist4">
   <filter id="filter428" out="218986" in="218917">
    <property name="window">75</property>
    <property name="max_gain">20dB</property>
    <property name="mlt_type">filter</property>
    <property name="mlt_service">volume</property>
    <property name="kdenlive_id">fadein</property>
    <property name="tag">volume</property>
    <property name="kdenlive_ix">1</property>
    <property name="kdenlive_info"/>
    <property name="disable"/>
    <property name="gain">0</property>
    <property name="end">1</property>
   </filter>
   <filter id="filter429" out="219510" in="219435">
    <property name="window">75</property>
    <property name="max_gain">20dB</property>
    <property name="mlt_type">filter</property>
    <property name="mlt_service">volume</property>
    <property name="kdenlive_id">fadeout</property>
    <property name="tag">volume</property>
    <property name="kdenlive_ix">2</property>
    <property name="kdenlive_info"/>
    <property name="disable"/>
    <property name="gain">1</property>
    <property name="end">0</property>
   </filter>
   <filter id="filter430" in="218917">
    <property name="window">75</property>
    <property name="max_gain">20dB</property>
    <property name="mlt_type">filter</property>
    <property name="mlt_service">volume</property>
    <property name="kdenlive_id">volume</property>
    <property name="tag">volume</property>
    <property name="kdenlive_ix">3</property>
    <property name="kdenlive_info"/>
    <property name="disable"/>
    <property name="gain">0.7</property>
   </filter>
  </entry>
  <blank length="947"/>
  <entry out="221948" in="221906" producer="3_playlist4">
   <filter id="filter431" out="221948" in="221906">
    <property name="window">75</property>
    <property name="max_gain">20dB</property>
    <property name="mlt_type">filter</property>
    <property name="mlt_service">volume</property>
    <property name="kdenlive_id">fadeout</property>
    <property name="tag">volume</property>
    <property name="kdenlive_ix">1</property>
    <property name="kdenlive_info"/>
    <property name="disable"/>
    <property name="gain">1</property>
    <property name="end">0</property>
   </filter>
  </entry>
  <blank length="2006"/>
  <entry out="11447" in="11248" producer="1_playlist4">
   <filter id="filter432" out="11376" in="11248">
    <property name="window">75</property>
    <property name="max_gain">20dB</property>
    <property name="mlt_type">filter</property>
    <property name="mlt_service">volume</property>
    <property name="kdenlive_id">fadein</property>
    <property name="tag">volume</property>
    <property name="kdenlive_ix">1</property>
    <property name="kdenlive_info"/>
    <property name="disable"/>
    <property name="gain">0</property>
    <property name="end">1</property>
   </filter>
   <filter id="filter433" out="11447" in="11433">
    <property name="window">75</property>
    <property name="max_gain">20dB</property>
    <property name="mlt_type">filter</property>
    <property name="mlt_service">volume</property>
    <property name="kdenlive_id">fadeout</property>
    <property name="tag">volume</property>
    <property name="kdenlive_ix">2</property>
    <property name="kdenlive_info"/>
    <property name="disable"/>
    <property name="gain">1</property>
    <property name="end">0</property>
   </filter>
   <filter id="filter434" out="11521" in="11490">
    <property name="window">75</property>
    <property name="max_gain">20dB</property>
    <property name="mlt_type">filter</property>
    <property name="mlt_service">volume</property>
    <property name="kdenlive_id">fadeout</property>
    <property name="tag">volume</property>
    <property name="kdenlive_ix">3</property>
    <property name="kdenlive_info"/>
    <property name="disable"/>
    <property name="gain">1</property>
    <property name="end">0</property>
   </filter>
  </entry>
  <blank length="24"/>
  <entry out="14090" in="12240" producer="1_playlist4">
   <filter id="filter435" out="12361" in="12240">
    <property name="window">75</property>
    <property name="max_gain">20dB</property>
    <property name="mlt_type">filter</property>
    <property name="mlt_service">volume</property>
    <property name="kdenlive_id">fadein</property>
    <property name="tag">volume</property>
    <property name="kdenlive_ix">1</property>
    <property name="kdenlive_info"/>
    <property name="disable"/>
    <property name="gain">0</property>
    <property name="end">1</property>
   </filter>
   <filter id="filter436" out="14090" in="14005">
    <property name="window">75</property>
    <property name="max_gain">20dB</property>
    <property name="mlt_type">filter</property>
    <property name="mlt_service">volume</property>
    <property name="kdenlive_id">fadeout</property>
    <property name="tag">volume</property>
    <property name="kdenlive_ix">2</property>
    <property name="kdenlive_info"/>
    <property name="disable"/>
    <property name="gain">1</property>
    <property name="end">0</property>
   </filter>
  </entry>
  <blank length="1886"/>
  <entry out="16627" in="16597" producer="1_playlist4">
   <filter id="filter437" in="16597">
    <property name="window">75</property>
    <property name="max_gain">20dB</property>
    <property name="mlt_type">filter</property>
    <property name="mlt_service">volume</property>
    <property name="kdenlive_id">volume</property>
    <property name="tag">volume</property>
    <property name="kdenlive_ix">1</property>
    <property name="kdenlive_info">0/-1/</property>
    <property name="disable"/>
    <property name="gain">1</property>
   </filter>
   <filter id="filter438" out="16627" in="16609">
    <property name="window">75</property>
    <property name="max_gain">20dB</property>
    <property name="mlt_type">filter</property>
    <property name="mlt_service">volume</property>
    <property name="kdenlive_id">fadeout</property>
    <property name="tag">volume</property>
    <property name="kdenlive_ix">2</property>
    <property name="kdenlive_info"/>
    <property name="disable">0</property>
    <property name="gain">1</property>
    <property name="end">0</property>
   </filter>
  </entry>
  <blank length="1656"/>
  <entry out="23395" in="23047" producer="1_playlist4">
   <filter id="filter439" out="23122" in="23047">
    <property name="window">75</property>
    <property name="max_gain">20dB</property>
    <property name="mlt_type">filter</property>
    <property name="mlt_service">volume</property>
    <property name="kdenlive_id">fadein</property>
    <property name="tag">volume</property>
    <property name="kdenlive_ix">1</property>
    <property name="kdenlive_info"/>
    <property name="disable"/>
    <property name="gain">0</property>
    <property name="end">1</property>
   </filter>
  </entry>
  <entry out="29912" in="23688" producer="1_playlist4">
   <filter id="filter440" out="29912" in="29871">
    <property name="window">75</property>
    <property name="max_gain">20dB</property>
    <property name="mlt_type">filter</property>
    <property name="mlt_service">volume</property>
    <property name="kdenlive_id">fadeout</property>
    <property name="tag">volume</property>
    <property name="kdenlive_ix">1</property>
    <property name="kdenlive_info"/>
    <property name="disable"/>
    <property name="gain">1</property>
    <property name="end">0</property>
   </filter>
   <filter id="filter441" out="23712" in="23688">
    <property name="window">75</property>
    <property name="max_gain">20dB</property>
    <property name="mlt_type">filter</property>
    <property name="mlt_service">volume</property>
    <property name="kdenlive_id">fadein</property>
    <property name="tag">volume</property>
    <property name="kdenlive_ix">2</property>
    <property name="kdenlive_info"/>
    <property name="disable"/>
    <property name="gain">0</property>
    <property name="end">1</property>
   </filter>
  </entry>
  <blank length="2329"/>
  <entry out="34497" in="34423" producer="1_playlist4_audio">
   <filter id="filter442" out="34446" in="34423">
    <property name="window">75</property>
    <property name="max_gain">20dB</property>
    <property name="mlt_type">filter</property>
    <property name="mlt_service">volume</property>
    <property name="kdenlive_id">volume</property>
    <property name="tag">volume</property>
    <property name="kdenlive_ix">1</property>
    <property name="kdenlive_info"/>
    <property name="disable"/>
    <property name="gain">0.5</property>
    <property name="end">1.9</property>
   </filter>
   <filter id="filter443" out="34472" in="34447">
    <property name="window">75</property>
    <property name="max_gain">20dB</property>
    <property name="mlt_type">filter</property>
    <property name="mlt_service">volume</property>
    <property name="kdenlive_id">volume</property>
    <property name="tag">volume</property>
    <property name="kdenlive_ix">1</property>
    <property name="kdenlive_info"/>
    <property name="disable"/>
    <property name="gain">1.9</property>
    <property name="end">1.9</property>
   </filter>
   <filter id="filter444" out="34497" in="34473">
    <property name="window">75</property>
    <property name="max_gain">20dB</property>
    <property name="mlt_type">filter</property>
    <property name="mlt_service">volume</property>
    <property name="kdenlive_id">volume</property>
    <property name="tag">volume</property>
    <property name="kdenlive_ix">1</property>
    <property name="kdenlive_info"/>
    <property name="disable"/>
    <property name="gain">1.882</property>
    <property name="end">1.45</property>
   </filter>
  </entry>
  <entry out="35370" in="34498" producer="1_playlist4">
   <filter id="filter445" out="35370" in="35258">
    <property name="window">75</property>
    <property name="max_gain">20dB</property>
    <property name="mlt_type">filter</property>
    <property name="mlt_service">volume</property>
    <property name="kdenlive_id">fadeout</property>
    <property name="tag">volume</property>
    <property name="kdenlive_ix">1</property>
    <property name="kdenlive_info"/>
    <property name="disable"/>
    <property name="gain">1</property>
    <property name="end">0</property>
   </filter>
   <filter id="filter446" out="34775" in="34498">
    <property name="window">75</property>
    <property name="max_gain">20dB</property>
    <property name="mlt_type">filter</property>
    <property name="mlt_service">volume</property>
    <property name="kdenlive_id">volume</property>
    <property name="tag">volume</property>
    <property name="kdenlive_ix">2</property>
    <property name="kdenlive_info"/>
    <property name="disable"/>
    <property name="gain">1.45</property>
    <property name="end">1.45</property>
   </filter>
   <filter id="filter447" out="34806" in="34776">
    <property name="window">75</property>
    <property name="max_gain">20dB</property>
    <property name="mlt_type">filter</property>
    <property name="mlt_service">volume</property>
    <property name="kdenlive_id">volume</property>
    <property name="tag">volume</property>
    <property name="kdenlive_ix">2</property>
    <property name="kdenlive_info"/>
    <property name="disable"/>
    <property name="gain">1.45</property>
    <property name="end">1.45</property>
   </filter>
   <filter id="filter448" out="35370" in="34807">
    <property name="window">75</property>
    <property name="max_gain">20dB</property>
    <property name="mlt_type">filter</property>
    <property name="mlt_service">volume</property>
    <property name="kdenlive_id">volume</property>
    <property name="tag">volume</property>
    <property name="kdenlive_ix">2</property>
    <property name="kdenlive_info"/>
    <property name="disable"/>
    <property name="gain">1.45</property>
    <property name="end">1.45</property>
   </filter>
  </entry>
  <blank length="1031"/>
  <entry out="36984" in="36931" producer="1_playlist4">
   <filter id="filter449" out="36984" in="36934">
    <property name="window">75</property>
    <property name="max_gain">20dB</property>
    <property name="mlt_type">filter</property>
    <property name="mlt_service">volume</property>
    <property name="kdenlive_id">fadeout</property>
    <property name="tag">volume</property>
    <property name="kdenlive_ix">1</property>
    <property name="kdenlive_info"/>
    <property name="disable"/>
    <property name="gain">1</property>
    <property name="end">0</property>
   </filter>
   <filter id="filter450" in="36931">
    <property name="window">75</property>
    <property name="max_gain">20dB</property>
    <property name="mlt_type">filter</property>
    <property name="mlt_service">volume</property>
    <property name="kdenlive_id">volume</property>
    <property name="tag">volume</property>
    <property name="kdenlive_ix">2</property>
    <property name="kdenlive_info"/>
    <property name="disable"/>
    <property name="gain">1.45</property>
   </filter>
  </entry>
  <blank length="1629"/>
  <entry out="39055" in="38954" producer="1_playlist4">
   <filter id="filter451" out="39018" in="38954">
    <property name="window">75</property>
    <property name="max_gain">20dB</property>
    <property name="mlt_type">filter</property>
    <property name="mlt_service">volume</property>
    <property name="kdenlive_id">volume</property>
    <property name="tag">volume</property>
    <property name="kdenlive_ix">1</property>
    <property name="kdenlive_info"/>
    <property name="disable"/>
    <property name="gain">1</property>
    <property name="end">1</property>
   </filter>
   <filter id="filter452" out="39055" in="39019">
    <property name="window">75</property>
    <property name="max_gain">20dB</property>
    <property name="mlt_type">filter</property>
    <property name="mlt_service">volume</property>
    <property name="kdenlive_id">volume</property>
    <property name="tag">volume</property>
    <property name="kdenlive_ix">1</property>
    <property name="kdenlive_info"/>
    <property name="disable"/>
    <property name="gain">0.972973</property>
    <property name="end">0</property>
   </filter>
   <filter id="filter453" in="37271">
    <property name="window">75</property>
    <property name="max_gain">20dB</property>
    <property name="mlt_type">filter</property>
    <property name="mlt_service">volume</property>
    <property name="kdenlive_id">volume</property>
    <property name="tag">volume</property>
    <property name="kdenlive_ix">2</property>
    <property name="kdenlive_info"/>
    <property name="disable"/>
    <property name="gain">1</property>
   </filter>
  </entry>
  <blank length="97"/>
  <entry out="39715" in="39688" producer="1_playlist4">
   <filter id="filter454" out="39701" in="39688">
    <property name="window">75</property>
    <property name="max_gain">20dB</property>
    <property name="mlt_type">filter</property>
    <property name="mlt_service">volume</property>
    <property name="kdenlive_id">volume</property>
    <property name="tag">volume</property>
    <property name="kdenlive_ix">1</property>
    <property name="kdenlive_info"/>
    <property name="disable"/>
    <property name="gain">0</property>
    <property name="end">1</property>
   </filter>
   <filter id="filter455" out="39715" in="39702">
    <property name="window">75</property>
    <property name="max_gain">20dB</property>
    <property name="mlt_type">filter</property>
    <property name="mlt_service">volume</property>
    <property name="kdenlive_id">volume</property>
    <property name="tag">volume</property>
    <property name="kdenlive_ix">1</property>
    <property name="kdenlive_info"/>
    <property name="disable"/>
    <property name="gain">1</property>
    <property name="end">1</property>
   </filter>
  </entry>
  <blank length="216"/>
  <entry out="39945" in="39932" producer="1_playlist4">
   <filter id="filter456" out="39366" in="39318">
    <property name="window">75</property>
    <property name="max_gain">20dB</property>
    <property name="mlt_type">filter</property>
    <property name="mlt_service">volume</property>
    <property name="kdenlive_id">volume</property>
    <property name="tag">volume</property>
    <property name="kdenlive_ix">1</property>
    <property name="kdenlive_info"/>
    <property name="disable"/>
    <property name="gain">0</property>
    <property name="end">0</property>
   </filter>
   <filter id="filter457" out="39373" in="39367">
    <property name="window">75</property>
    <property name="max_gain">20dB</property>
    <property name="mlt_type">filter</property>
    <property name="mlt_service">volume</property>
    <property name="kdenlive_id">volume</property>
    <property name="tag">volume</property>
    <property name="kdenlive_ix">1</property>
    <property name="kdenlive_info"/>
    <property name="disable"/>
    <property name="gain">0.142857</property>
    <property name="end">1</property>
   </filter>
   <filter id="filter458" out="39681" in="39374">
    <property name="window">75</property>
    <property name="max_gain">20dB</property>
    <property name="mlt_type">filter</property>
    <property name="mlt_service">volume</property>
    <property name="kdenlive_id">volume</property>
    <property name="tag">volume</property>
    <property name="kdenlive_ix">1</property>
    <property name="kdenlive_info"/>
    <property name="disable"/>
    <property name="gain">1</property>
    <property name="end">1</property>
   </filter>
  </entry>
  <blank length="3572"/>
  <entry out="44589" in="44571" producer="1_playlist4">
   <filter id="filter459" out="44589" in="44571">
    <property name="window">75</property>
    <property name="max_gain">20dB</property>
    <property name="mlt_type">filter</property>
    <property name="mlt_service">volume</property>
    <property name="kdenlive_id">volume</property>
    <property name="tag">volume</property>
    <property name="kdenlive_ix">1</property>
    <property name="kdenlive_info"/>
    <property name="disable"/>
    <property name="gain">0</property>
    <property name="end">0</property>
   </filter>
  </entry>
  <entry out="44124" in="43973" producer="1_playlist4">
   <filter id="filter460" out="44124" in="43973">
    <property name="window">75</property>
    <property name="max_gain">20dB</property>
    <property name="mlt_type">filter</property>
    <property name="mlt_service">volume</property>
    <property name="kdenlive_id">fadeout</property>
    <property name="tag">volume</property>
    <property name="kdenlive_ix">1</property>
    <property name="kdenlive_info"/>
    <property name="disable"/>
    <property name="gain">1</property>
    <property name="end">0</property>
   </filter>
   <filter id="filter461" in="57537">
    <property name="window">75</property>
    <property name="max_gain">20dB</property>
    <property name="mlt_type">filter</property>
    <property name="mlt_service">volume</property>
    <property name="kdenlive_id">volume</property>
    <property name="tag">volume</property>
    <property name="kdenlive_ix">2</property>
    <property name="kdenlive_info"/>
    <property name="disable"/>
    <property name="gain">1</property>
   </filter>
  </entry>
  <blank length="2741"/>
  <entry out="47730" in="47664" producer="1_playlist4">
   <filter id="filter462" out="47711" in="47664">
    <property name="window">75</property>
    <property name="max_gain">20dB</property>
    <property name="mlt_type">filter</property>
    <property name="mlt_service">volume</property>
    <property name="kdenlive_id">fadein</property>
    <property name="tag">volume</property>
    <property name="kdenlive_ix">1</property>
    <property name="kdenlive_info"/>
    <property name="disable"/>
    <property name="gain">0</property>
    <property name="end">1</property>
   </filter>
   <filter id="filter463" in="47664">
    <property name="window">75</property>
    <property name="max_gain">20dB</property>
    <property name="mlt_type">filter</property>
    <property name="mlt_service">volume</property>
    <property name="kdenlive_id">volume</property>
    <property name="tag">volume</property>
    <property name="kdenlive_ix">2</property>
    <property name="kdenlive_info"/>
    <property name="disable"/>
    <property name="gain">0.7</property>
   </filter>
  </entry>
  <entry out="47623" in="47550" producer="1_playlist4">
   <filter id="filter464" out="47624" in="47550">
    <property name="window">75</property>
    <property name="max_gain">20dB</property>
    <property name="mlt_type">filter</property>
    <property name="mlt_service">volume</property>
    <property name="kdenlive_id">fadeout</property>
    <property name="tag">volume</property>
    <property name="kdenlive_ix">1</property>
    <property name="kdenlive_info"/>
    <property name="disable"/>
    <property name="gain">1</property>
    <property name="end">0</property>
   </filter>
   <filter id="filter465" in="47550">
    <property name="window">75</property>
    <property name="max_gain">20dB</property>
    <property name="mlt_type">filter</property>
    <property name="mlt_service">volume</property>
    <property name="kdenlive_id">volume</property>
    <property name="tag">volume</property>
    <property name="kdenlive_ix">2</property>
    <property name="kdenlive_info"/>
    <property name="disable"/>
    <property name="gain">0.7</property>
   </filter>
  </entry>
  <blank length="30"/>
  <entry out="47874" in="47835" producer="1_playlist4">
   <filter id="filter466" out="47874" in="47835">
    <property name="window">75</property>
    <property name="max_gain">20dB</property>
    <property name="mlt_type">filter</property>
    <property name="mlt_service">volume</property>
    <property name="kdenlive_id">fadeout</property>
    <property name="tag">volume</property>
    <property name="kdenlive_ix">1</property>
    <property name="kdenlive_info"/>
    <property name="disable"/>
    <property name="gain">1</property>
    <property name="end">0</property>
   </filter>
   <filter id="filter467" in="47835">
    <property name="window">75</property>
    <property name="max_gain">20dB</property>
    <property name="mlt_type">filter</property>
    <property name="mlt_service">volume</property>
    <property name="kdenlive_id">volume</property>
    <property name="tag">volume</property>
    <property name="kdenlive_ix">2</property>
    <property name="kdenlive_info"/>
    <property name="disable"/>
    <property name="gain">0.7</property>
   </filter>
  </entry>
  <blank length="672"/>
  <entry out="50904" in="50852" producer="1_playlist4">
   <filter id="filter468" out="50878" in="50852">
    <property name="window">75</property>
    <property name="max_gain">20dB</property>
    <property name="mlt_type">filter</property>
    <property name="mlt_service">volume</property>
    <property name="kdenlive_id">volume</property>
    <property name="tag">volume</property>
    <property name="kdenlive_ix">1</property>
    <property name="kdenlive_info"/>
    <property name="disable"/>
    <property name="gain">0</property>
    <property name="end">1</property>
   </filter>
   <filter id="filter469" out="50905" in="50879">
    <property name="window">75</property>
    <property name="max_gain">20dB</property>
    <property name="mlt_type">filter</property>
    <property name="mlt_service">volume</property>
    <property name="kdenlive_id">volume</property>
    <property name="tag">volume</property>
    <property name="kdenlive_ix">1</property>
    <property name="kdenlive_info"/>
    <property name="disable"/>
    <property name="gain">1</property>
    <property name="end">1</property>
   </filter>
  </entry>
  <entry out="49638" in="49615" producer="1_playlist4">
   <filter id="filter470" out="49638" in="49615">
    <property name="window">75</property>
    <property name="max_gain">20dB</property>
    <property name="mlt_type">filter</property>
    <property name="mlt_service">volume</property>
    <property name="kdenlive_id">volume</property>
    <property name="tag">volume</property>
    <property name="kdenlive_ix">1</property>
    <property name="kdenlive_info"/>
    <property name="disable"/>
    <property name="gain">1</property>
    <property name="end">0</property>
   </filter>
   <filter id="filter471" in="49638">
    <property name="window">75</property>
    <property name="max_gain">20dB</property>
    <property name="mlt_type">filter</property>
    <property name="mlt_service">volume</property>
    <property name="kdenlive_id">volume</property>
    <property name="tag">volume</property>
    <property name="kdenlive_ix">2</property>
    <property name="kdenlive_info"/>
    <property name="disable"/>
    <property name="gain">1</property>
   </filter>
  </entry>
  <blank length="1016"/>
  <entry out="53416" in="53253" producer="1_playlist4">
   <filter id="filter472" out="53328" in="53253">
    <property name="window">75</property>
    <property name="max_gain">20dB</property>
    <property name="mlt_type">filter</property>
    <property name="mlt_service">volume</property>
    <property name="kdenlive_id">fadein</property>
    <property name="tag">volume</property>
    <property name="kdenlive_ix">1</property>
    <property name="kdenlive_info"/>
    <property name="disable"/>
    <property name="gain">0</property>
    <property name="end">1</property>
   </filter>
   <filter id="filter473" in="53416">
    <property name="window">75</property>
    <property name="max_gain">20dB</property>
    <property name="mlt_type">filter</property>
    <property name="mlt_service">volume</property>
    <property name="kdenlive_id">volume</property>
    <property name="tag">volume</property>
    <property name="kdenlive_ix">2</property>
    <property name="kdenlive_info"/>
    <property name="disable"/>
    <property name="gain">1</property>
   </filter>
  </entry>
  <entry out="57394" in="53740" producer="1_playlist4">
   <filter id="filter474" out="57394" in="57319">
    <property name="window">75</property>
    <property name="max_gain">20dB</property>
    <property name="mlt_type">filter</property>
    <property name="mlt_service">volume</property>
    <property name="kdenlive_id">fadeout</property>
    <property name="tag">volume</property>
    <property name="kdenlive_ix">1</property>
    <property name="kdenlive_info"/>
    <property name="disable"/>
    <property name="gain">1</property>
    <property name="end">0</property>
   </filter>
   <filter id="filter475" in="57394">
    <property name="window">75</property>
    <property name="max_gain">20dB</property>
    <property name="mlt_type">filter</property>
    <property name="mlt_service">volume</property>
    <property name="kdenlive_id">volume</property>
    <property name="tag">volume</property>
    <property name="kdenlive_ix">2</property>
    <property name="kdenlive_info"/>
    <property name="disable"/>
    <property name="gain">1</property>
   </filter>
  </entry>
  <blank length="70"/>
  <entry out="62124" in="59124" producer="1_playlist4">
   <filter id="filter476" out="59474" in="59124">
    <property name="window">75</property>
    <property name="max_gain">20dB</property>
    <property name="mlt_type">filter</property>
    <property name="mlt_service">volume</property>
    <property name="kdenlive_id">fadein</property>
    <property name="tag">volume</property>
    <property name="kdenlive_ix">1</property>
    <property name="kdenlive_info"/>
    <property name="disable"/>
    <property name="gain">0</property>
    <property name="end">1</property>
   </filter>
   <filter id="frei0r.hueshift0r">
    <property name="version">0.3</property>
    <property name="mlt_type">filter</property>
    <property name="mlt_service">frei0r.hueshift0r</property>
    <property name="kdenlive_id">frei0r.hueshift0r</property>
    <property name="tag">frei0r.hueshift0r</property>
    <property name="kdenlive_ix">2</property>
    <property name="kdenlive_info"/>
    <property name="disable">0</property>
    <property name="Hue">59124=0.0277778</property>
   </filter>
   <filter id="filter477" in="59124">
    <property name="window">75</property>
    <property name="max_gain">20dB</property>
    <property name="mlt_type">filter</property>
    <property name="mlt_service">volume</property>
    <property name="kdenlive_id">volume</property>
    <property name="tag">volume</property>
    <property name="kdenlive_ix">3</property>
    <property name="kdenlive_info"/>
    <property name="disable"/>
    <property name="gain">1</property>
   </filter>
   <filter id="frei0r.levels">
    <property name="version">0.3</property>
    <property name="mlt_type">filter</property>
    <property name="mlt_service">frei0r.levels</property>
    <property name="kdenlive_id">frei0r.levels</property>
    <property name="tag">frei0r.levels</property>
    <property name="kdenlive_ix">4</property>
    <property name="kdenlive_info"/>
    <property name="disable">0</property>
    <property name="Channel">0</property>
    <property name="Input black level">59124=0;59685=0;59686=0;59688=0;61248=0;61252=0;61254=0;62124=0</property>
    <property name="Input white level">59124=0.8;59685=0.8;59686=0.9;59688=1;61248=1;61252=0.9;61254=0.8;62124=0.8</property>
    <property name="Gamma">59124=0.325;59685=0.325;59686=0.325;59688=0.25;61248=0.25;61252=0.3;61254=0.3;62124=0.3</property>
    <property name="Black output">59124=0;59685=0;59686=0;59688=0;61248=0;61252=0;61254=0;62124=0</property>
    <property name="White output">59124=1;59685=1;59686=1;59688=1;61248=1;61252=1;61254=1;62124=1</property>
    <property name="Show histogram">0</property>
    <property name="Histogram position">0.3</property>
   </filter>
   <filter id="frei0r.saturat0r">
    <property name="version">0.3</property>
    <property name="mlt_type">filter</property>
    <property name="mlt_service">frei0r.saturat0r</property>
    <property name="kdenlive_id">frei0r.saturat0r</property>
    <property name="tag">frei0r.saturat0r</property>
    <property name="kdenlive_ix">5</property>
    <property name="kdenlive_info"/>
    <property name="disable"/>
    <property name="Saturation">59124=0.07</property>
   </filter>
  </entry>
  <entry out="62211" in="62125" producer="1_playlist4">
   <filter id="filter478" in="62125">
    <property name="window">75</property>
    <property name="max_gain">20dB</property>
    <property name="mlt_type">filter</property>
    <property name="mlt_service">volume</property>
    <property name="kdenlive_id">volume</property>
    <property name="tag">volume</property>
    <property name="kdenlive_ix">1</property>
    <property name="kdenlive_info"/>
    <property name="disable"/>
    <property name="gain">1</property>
   </filter>
   <filter id="filter479">
    <property name="version">0.3</property>
    <property name="mlt_type">filter</property>
    <property name="mlt_service">frei0r.levels</property>
    <property name="kdenlive_id">frei0r.levels</property>
    <property name="tag">frei0r.levels</property>
    <property name="kdenlive_ix">2</property>
    <property name="kdenlive_info"/>
    <property name="disable"/>
    <property name="Channel">0</property>
    <property name="Input black level">62125=0</property>
    <property name="Input white level">62125=0.8</property>
    <property name="Gamma">62125=0.3</property>
    <property name="Black output">62125=0</property>
    <property name="White output">62125=1</property>
    <property name="Show histogram">0</property>
    <property name="Histogram position">0</property>
   </filter>
   <filter id="filter480">
    <property name="version">0.3</property>
    <property name="mlt_type">filter</property>
    <property name="mlt_service">frei0r.saturat0r</property>
    <property name="kdenlive_id">frei0r.saturat0r</property>
    <property name="tag">frei0r.saturat0r</property>
    <property name="kdenlive_ix">3</property>
    <property name="kdenlive_info"/>
    <property name="disable"/>
    <property name="Saturation">62125=0.07</property>
   </filter>
   <filter id="filter481">
    <property name="version">0.3</property>
    <property name="mlt_type">filter</property>
    <property name="mlt_service">frei0r.hueshift0r</property>
    <property name="kdenlive_id">frei0r.hueshift0r</property>
    <property name="tag">frei0r.hueshift0r</property>
    <property name="kdenlive_ix">4</property>
    <property name="kdenlive_info"/>
    <property name="disable">0</property>
    <property name="Hue">62125=0.0277778</property>
   </filter>
  </entry>
  <entry out="62386" in="62212" producer="1_playlist4">
   <filter id="filter482" in="62212">
    <property name="window">75</property>
    <property name="max_gain">20dB</property>
    <property name="mlt_type">filter</property>
    <property name="mlt_service">volume</property>
    <property name="kdenlive_id">volume</property>
    <property name="tag">volume</property>
    <property name="kdenlive_ix">1</property>
    <property name="kdenlive_info"/>
    <property name="disable"/>
    <property name="gain">1</property>
   </filter>
   <filter id="filter483">
    <property name="version">0.3</property>
    <property name="mlt_type">filter</property>
    <property name="mlt_service">frei0r.hueshift0r</property>
    <property name="kdenlive_id">frei0r.hueshift0r</property>
    <property name="tag">frei0r.hueshift0r</property>
    <property name="kdenlive_ix">2</property>
    <property name="kdenlive_info"/>
    <property name="disable">1</property>
    <property name="Hue">62212=0.0277778</property>
   </filter>
   <filter id="filter484">
    <property name="version">0.3</property>
    <property name="mlt_type">filter</property>
    <property name="mlt_service">frei0r.saturat0r</property>
    <property name="kdenlive_id">frei0r.saturat0r</property>
    <property name="tag">frei0r.saturat0r</property>
    <property name="kdenlive_ix">3</property>
    <property name="kdenlive_info"/>
    <property name="disable"/>
    <property name="Saturation">62212=0.07</property>
   </filter>
   <filter id="filter485">
    <property name="version">0.3</property>
    <property name="mlt_type">filter</property>
    <property name="mlt_service">frei0r.levels</property>
    <property name="kdenlive_id">frei0r.levels</property>
    <property name="tag">frei0r.levels</property>
    <property name="kdenlive_ix">4</property>
    <property name="kdenlive_info"/>
    <property name="disable"/>
    <property name="Channel">0</property>
    <property name="Input black level">62212=0</property>
    <property name="Input white level">62212=0.8</property>
    <property name="Gamma">62212=0.2875</property>
    <property name="Black output">62212=0</property>
    <property name="White output">62212=1</property>
    <property name="Show histogram">0</property>
    <property name="Histogram position">0.3</property>
   </filter>
  </entry>
  <entry out="62506" in="62387" producer="1_playlist4">
   <filter id="filter486" out="62507" in="62483">
    <property name="window">75</property>
    <property name="max_gain">20dB</property>
    <property name="mlt_type">filter</property>
    <property name="mlt_service">volume</property>
    <property name="kdenlive_id">fadeout</property>
    <property name="tag">volume</property>
    <property name="kdenlive_ix">1</property>
    <property name="kdenlive_info"/>
    <property name="disable"/>
    <property name="gain">1</property>
    <property name="end">0</property>
   </filter>
   <filter id="filter487" in="62387">
    <property name="window">75</property>
    <property name="max_gain">20dB</property>
    <property name="mlt_type">filter</property>
    <property name="mlt_service">volume</property>
    <property name="kdenlive_id">volume</property>
    <property name="tag">volume</property>
    <property name="kdenlive_ix">2</property>
    <property name="kdenlive_info"/>
    <property name="disable"/>
    <property name="gain">1</property>
   </filter>
   <filter id="filter488">
    <property name="version">0.3</property>
    <property name="mlt_type">filter</property>
    <property name="mlt_service">frei0r.levels</property>
    <property name="kdenlive_id">frei0r.levels</property>
    <property name="tag">frei0r.levels</property>
    <property name="kdenlive_ix">3</property>
    <property name="kdenlive_info"/>
    <property name="disable"/>
    <property name="Channel">0</property>
    <property name="Input black level">62387=0</property>
    <property name="Input white level">62387=0.5</property>
    <property name="Gamma">62387=0.24675</property>
    <property name="Black output">62387=0</property>
    <property name="White output">62387=1</property>
    <property name="Show histogram">0</property>
    <property name="Histogram position">3</property>
   </filter>
   <filter id="filter489">
    <property name="version">0.3</property>
    <property name="mlt_type">filter</property>
    <property name="mlt_service">frei0r.saturat0r</property>
    <property name="kdenlive_id">frei0r.saturat0r</property>
    <property name="tag">frei0r.saturat0r</property>
    <property name="kdenlive_ix">4</property>
    <property name="kdenlive_info"/>
    <property name="disable"/>
    <property name="Saturation">62387=0.07</property>
   </filter>
  </entry>
  <blank length="672"/>
  <entry out="69832" in="69652" producer="1_playlist4">
   <filter id="filter490" out="69832" in="69742">
    <property name="window">75</property>
    <property name="max_gain">20dB</property>
    <property name="mlt_type">filter</property>
    <property name="mlt_service">volume</property>
    <property name="kdenlive_id">fadeout</property>
    <property name="tag">volume</property>
    <property name="kdenlive_ix">1</property>
    <property name="kdenlive_info"/>
    <property name="disable"/>
    <property name="gain">1</property>
    <property name="end">0</property>
   </filter>
   <filter id="filter491" out="69727" in="69652">
    <property name="window">75</property>
    <property name="max_gain">20dB</property>
    <property name="mlt_type">filter</property>
    <property name="mlt_service">volume</property>
    <property name="kdenlive_id">fadein</property>
    <property name="tag">volume</property>
    <property name="kdenlive_ix">2</property>
    <property name="kdenlive_info"/>
    <property name="disable"/>
    <property name="gain">0</property>
    <property name="end">1</property>
   </filter>
   <filter id="filter492" in="57537">
    <property name="window">75</property>
    <property name="max_gain">20dB</property>
    <property name="mlt_type">filter</property>
    <property name="mlt_service">volume</property>
    <property name="kdenlive_id">volume</property>
    <property name="tag">volume</property>
    <property name="kdenlive_ix">3</property>
    <property name="kdenlive_info"/>
    <property name="disable"/>
    <property name="gain">1</property>
   </filter>
  </entry>
  <blank length="2036"/>
  <entry out="73199" in="72976" producer="1_playlist4">
   <filter id="filter493" in="57537">
    <property name="window">75</property>
    <property name="max_gain">20dB</property>
    <property name="mlt_type">filter</property>
    <property name="mlt_service">volume</property>
    <property name="kdenlive_id">volume</property>
    <property name="tag">volume</property>
    <property name="kdenlive_ix">1</property>
    <property name="kdenlive_info"/>
    <property name="disable"/>
    <property name="gain">1</property>
   </filter>
  </entry>
  <blank length="3623"/>
  <entry out="83739" in="83720" producer="1_playlist4">
   <filter id="filter494" out="83776" in="83720">
    <property name="window">75</property>
    <property name="max_gain">20dB</property>
    <property name="mlt_type">filter</property>
    <property name="mlt_service">volume</property>
    <property name="kdenlive_id">fadein</property>
    <property name="tag">volume</property>
    <property name="kdenlive_ix">1</property>
    <property name="kdenlive_info"/>
    <property name="disable"/>
    <property name="gain">0</property>
    <property name="end">1</property>
   </filter>
  </entry>
  <blank length="1343"/>
  <entry out="85160" in="85083" producer="1_playlist4">
   <filter id="filter495" out="85161" in="85111">
    <property name="window">75</property>
    <property name="max_gain">20dB</property>
    <property name="mlt_type">filter</property>
    <property name="mlt_service">volume</property>
    <property name="kdenlive_id">fadeout</property>
    <property name="tag">volume</property>
    <property name="kdenlive_ix">1</property>
    <property name="kdenlive_info"/>
    <property name="disable"/>
    <property name="gain">1</property>
    <property name="end">0</property>
   </filter>
  </entry>
  <blank length="4036"/>
  <entry out="89681" in="89583" producer="1_playlist4">
   <filter id="filter496" in="89583">
    <property name="window">75</property>
    <property name="max_gain">20dB</property>
    <property name="mlt_type">filter</property>
    <property name="mlt_service">volume</property>
    <property name="kdenlive_id">volume</property>
    <property name="tag">volume</property>
    <property name="kdenlive_ix">1</property>
    <property name="kdenlive_info"/>
    <property name="disable"/>
    <property name="gain">1</property>
   </filter>
  </entry>
  <blank length="71"/>
  <entry out="94106" in="94056" producer="1_playlist4">
   <filter id="filter497" out="94057" in="94056">
    <property name="window">75</property>
    <property name="max_gain">20dB</property>
    <property name="mlt_type">filter</property>
    <property name="mlt_service">volume</property>
    <property name="kdenlive_id">volume</property>
    <property name="tag">volume</property>
    <property name="kdenlive_ix">1</property>
    <property name="kdenlive_info"/>
    <property name="disable"/>
    <property name="gain">0</property>
    <property name="end">0</property>
   </filter>
   <filter id="filter498" out="94080" in="94058">
    <property name="window">75</property>
    <property name="max_gain">20dB</property>
    <property name="mlt_type">filter</property>
    <property name="mlt_service">volume</property>
    <property name="kdenlive_id">volume</property>
    <property name="tag">volume</property>
    <property name="kdenlive_ix">1</property>
    <property name="kdenlive_info"/>
    <property name="disable"/>
    <property name="gain">0.0434783</property>
    <property name="end">1</property>
   </filter>
   <filter id="filter499" out="94085" in="94081">
    <property name="window">75</property>
    <property name="max_gain">20dB</property>
    <property name="mlt_type">filter</property>
    <property name="mlt_service">volume</property>
    <property name="kdenlive_id">volume</property>
    <property name="tag">volume</property>
    <property name="kdenlive_ix">1</property>
    <property name="kdenlive_info"/>
    <property name="disable"/>
    <property name="gain">0.8</property>
    <property name="end">0</property>
   </filter>
   <filter id="filter500" out="94106" in="94086">
    <property name="window">75</property>
    <property name="max_gain">20dB</property>
    <property name="mlt_type">filter</property>
    <property name="mlt_service">volume</property>
    <property name="kdenlive_id">volume</property>
    <property name="tag">volume</property>
    <property name="kdenlive_ix">1</property>
    <property name="kdenlive_info"/>
    <property name="disable"/>
    <property name="gain">0</property>
    <property name="end">0</property>
   </filter>
  </entry>
  <entry out="94322" in="94122" producer="1_playlist4">
   <filter id="filter501" out="94127" in="94122">
    <property name="window">75</property>
    <property name="max_gain">20dB</property>
    <property name="mlt_type">filter</property>
    <property name="mlt_service">volume</property>
    <property name="kdenlive_id">volume</property>
    <property name="tag">volume</property>
    <property name="kdenlive_ix">1</property>
    <property name="kdenlive_info"/>
    <property name="disable"/>
    <property name="gain">0</property>
    <property name="end">0</property>
   </filter>
   <filter id="filter502" out="94132" in="94128">
    <property name="window">75</property>
    <property name="max_gain">20dB</property>
    <property name="mlt_type">filter</property>
    <property name="mlt_service">volume</property>
    <property name="kdenlive_id">volume</property>
    <property name="tag">volume</property>
    <property name="kdenlive_ix">1</property>
    <property name="kdenlive_info"/>
    <property name="disable"/>
    <property name="gain">0.2</property>
    <property name="end">1</property>
   </filter>
   <filter id="filter503" out="94322" in="94133">
    <property name="window">75</property>
    <property name="max_gain">20dB</property>
    <property name="mlt_type">filter</property>
    <property name="mlt_service">volume</property>
    <property name="kdenlive_id">volume</property>
    <property name="tag">volume</property>
    <property name="kdenlive_ix">1</property>
    <property name="kdenlive_info"/>
    <property name="disable"/>
    <property name="gain">1</property>
    <property name="end">1</property>
   </filter>
  </entry>
  <entry out="94330" in="94323" producer="1_playlist4">
   <filter id="filter295" out="94330" in="94323">
    <property name="window">75</property>
    <property name="max_gain">20dB</property>
    <property name="mlt_type">filter</property>
    <property name="mlt_service">volume</property>
    <property name="kdenlive_id">volume</property>
    <property name="tag">volume</property>
    <property name="kdenlive_ix">1</property>
    <property name="kdenlive_info"/>
    <property name="disable"/>
    <property name="gain">1</property>
    <property name="end">0</property>
   </filter>
  </entry>
  <blank length="107"/>
  <entry out="104331" in="104197" producer="1_playlist4">
   <filter id="filter504" out="104244" in="104197">
    <property name="window">75</property>
    <property name="max_gain">20dB</property>
    <property name="mlt_type">filter</property>
    <property name="mlt_service">volume</property>
    <property name="kdenlive_id">volume</property>
    <property name="tag">volume</property>
    <property name="kdenlive_ix">1</property>
    <property name="kdenlive_info"/>
    <property name="disable"/>
    <property name="gain">0</property>
    <property name="end">0.15</property>
   </filter>
   <filter id="filter505" out="104262" in="104245">
    <property name="window">75</property>
    <property name="max_gain">20dB</property>
    <property name="mlt_type">filter</property>
    <property name="mlt_service">volume</property>
    <property name="kdenlive_id">volume</property>
    <property name="tag">volume</property>
    <property name="kdenlive_ix">1</property>
    <property name="kdenlive_info"/>
    <property name="disable"/>
    <property name="gain">0.197222</property>
    <property name="end">1</property>
   </filter>
   <filter id="filter506" out="104331" in="104263">
    <property name="window">75</property>
    <property name="max_gain">20dB</property>
    <property name="mlt_type">filter</property>
    <property name="mlt_service">volume</property>
    <property name="kdenlive_id">volume</property>
    <property name="tag">volume</property>
    <property name="kdenlive_ix">1</property>
    <property name="kdenlive_info"/>
    <property name="disable"/>
    <property name="gain">1</property>
    <property name="end">1</property>
   </filter>
   <filter id="ladspa.1894">
    <property name="mlt_type">filter</property>
    <property name="mlt_service">ladspa.1894</property>
    <property name="kdenlive_id">ladspa.1894</property>
    <property name="tag">ladspa.1894</property>
    <property name="kdenlive_ix">2</property>
    <property name="kdenlive_info"/>
    <property name="disable">1</property>
    <property name="0">300</property>
    <property name="1">15000</property>
    <property name="2">1</property>
    <property name="wetness">1</property>
   </filter>
  </entry>
  <entry out="105187" in="104570" producer="1_playlist4">
   <filter id="filter507" out="105187" in="105168">
    <property name="window">75</property>
    <property name="max_gain">20dB</property>
    <property name="mlt_type">filter</property>
    <property name="mlt_service">volume</property>
    <property name="kdenlive_id">fadeout</property>
    <property name="tag">volume</property>
    <property name="kdenlive_ix">1</property>
    <property name="kdenlive_info"/>
    <property name="disable"/>
    <property name="gain">1</property>
    <property name="end">0</property>
   </filter>
   <filter id="filter508" out="104924" in="104570">
    <property name="window">75</property>
    <property name="max_gain">20dB</property>
    <property name="mlt_type">filter</property>
    <property name="mlt_service">volume</property>
    <property name="kdenlive_id">volume</property>
    <property name="tag">volume</property>
    <property name="kdenlive_ix">2</property>
    <property name="kdenlive_info"/>
    <property name="disable"/>
    <property name="gain">1</property>
    <property name="end">1</property>
   </filter>
   <filter id="filter509" out="104930" in="104925">
    <property name="window">75</property>
    <property name="max_gain">20dB</property>
    <property name="mlt_type">filter</property>
    <property name="mlt_service">volume</property>
    <property name="kdenlive_id">volume</property>
    <property name="tag">volume</property>
    <property name="kdenlive_ix">2</property>
    <property name="kdenlive_info"/>
    <property name="disable"/>
    <property name="gain">0.975</property>
    <property name="end">0.85</property>
   </filter>
   <filter id="filter510" out="104944" in="104931">
    <property name="window">75</property>
    <property name="max_gain">20dB</property>
    <property name="mlt_type">filter</property>
    <property name="mlt_service">volume</property>
    <property name="kdenlive_id">volume</property>
    <property name="tag">volume</property>
    <property name="kdenlive_ix">2</property>
    <property name="kdenlive_info"/>
    <property name="disable"/>
    <property name="gain">0.846429</property>
    <property name="end">0.8</property>
   </filter>
   <filter id="filter511" out="105126" in="104945">
    <property name="window">75</property>
    <property name="max_gain">20dB</property>
    <property name="mlt_type">filter</property>
    <property name="mlt_service">volume</property>
    <property name="kdenlive_id">volume</property>
    <property name="tag">volume</property>
    <property name="kdenlive_ix">2</property>
    <property name="kdenlive_info"/>
    <property name="disable"/>
    <property name="gain">0.8</property>
    <property name="end">0.8</property>
   </filter>
   <filter id="filter512" out="105140" in="105127">
    <property name="window">75</property>
    <property name="max_gain">20dB</property>
    <property name="mlt_type">filter</property>
    <property name="mlt_service">volume</property>
    <property name="kdenlive_id">volume</property>
    <property name="tag">volume</property>
    <property name="kdenlive_ix">2</property>
    <property name="kdenlive_info"/>
    <property name="disable"/>
    <property name="gain">0.8</property>
    <property name="end">0.8</property>
   </filter>
   <filter id="filter513" out="105187" in="105141">
    <property name="window">75</property>
    <property name="max_gain">20dB</property>
    <property name="mlt_type">filter</property>
    <property name="mlt_service">volume</property>
    <property name="kdenlive_id">volume</property>
    <property name="tag">volume</property>
    <property name="kdenlive_ix">2</property>
    <property name="kdenlive_info"/>
    <property name="disable"/>
    <property name="gain">0.795745</property>
    <property name="end">0.6</property>
   </filter>
  </entry>
  <blank length="926"/>
  <entry out="109058" in="107439" producer="1_playlist4">
   <filter id="filter514" out="109058" in="108994">
    <property name="window">75</property>
    <property name="max_gain">20dB</property>
    <property name="mlt_type">filter</property>
    <property name="mlt_service">volume</property>
    <property name="kdenlive_id">fadeout</property>
    <property name="tag">volume</property>
    <property name="kdenlive_ix">1</property>
    <property name="kdenlive_info"/>
    <property name="disable"/>
    <property name="gain">1</property>
    <property name="end">0</property>
   </filter>
   <filter id="filter515" out="109020" in="107439">
    <property name="window">75</property>
    <property name="max_gain">20dB</property>
    <property name="mlt_type">filter</property>
    <property name="mlt_service">volume</property>
    <property name="kdenlive_id">volume</property>
    <property name="tag">volume</property>
    <property name="kdenlive_ix">2</property>
    <property name="kdenlive_info"/>
    <property name="disable"/>
    <property name="gain">1</property>
    <property name="end">1</property>
   </filter>
   <filter id="filter516" out="109031" in="109021">
    <property name="window">75</property>
    <property name="max_gain">20dB</property>
    <property name="mlt_type">filter</property>
    <property name="mlt_service">volume</property>
    <property name="kdenlive_id">volume</property>
    <property name="tag">volume</property>
    <property name="kdenlive_ix">2</property>
    <property name="kdenlive_info"/>
    <property name="disable"/>
    <property name="gain">0.913636</property>
    <property name="end">0.05</property>
   </filter>
   <filter id="filter517" out="109058" in="109032">
    <property name="window">75</property>
    <property name="max_gain">20dB</property>
    <property name="mlt_type">filter</property>
    <property name="mlt_service">volume</property>
    <property name="kdenlive_id">volume</property>
    <property name="tag">volume</property>
    <property name="kdenlive_ix">2</property>
    <property name="kdenlive_info"/>
    <property name="disable"/>
    <property name="gain">0.05</property>
    <property name="end">0.05</property>
   </filter>
  </entry>
  <entry out="119468" in="118900" producer="1_playlist4">
   <filter id="filter518" out="119377" in="118900">
    <property name="window">75</property>
    <property name="max_gain">20dB</property>
    <property name="mlt_type">filter</property>
    <property name="mlt_service">volume</property>
    <property name="kdenlive_id">volume</property>
    <property name="tag">volume</property>
    <property name="kdenlive_ix">1</property>
    <property name="kdenlive_info"/>
    <property name="disable"/>
    <property name="gain">1</property>
    <property name="end">1</property>
   </filter>
   <filter id="filter519" out="119391" in="119378">
    <property name="window">75</property>
    <property name="max_gain">20dB</property>
    <property name="mlt_type">filter</property>
    <property name="mlt_service">volume</property>
    <property name="kdenlive_id">volume</property>
    <property name="tag">volume</property>
    <property name="kdenlive_ix">1</property>
    <property name="kdenlive_info"/>
    <property name="disable"/>
    <property name="gain">0.986429</property>
    <property name="end">0.81</property>
   </filter>
   <filter id="filter520" out="119399" in="119392">
    <property name="window">75</property>
    <property name="max_gain">20dB</property>
    <property name="mlt_type">filter</property>
    <property name="mlt_service">volume</property>
    <property name="kdenlive_id">volume</property>
    <property name="tag">volume</property>
    <property name="kdenlive_ix">1</property>
    <property name="kdenlive_info"/>
    <property name="disable"/>
    <property name="gain">0.7475</property>
    <property name="end">0.31</property>
   </filter>
   <filter id="filter521" out="119433" in="119400">
    <property name="window">75</property>
    <property name="max_gain">20dB</property>
    <property name="mlt_type">filter</property>
    <property name="mlt_service">volume</property>
    <property name="kdenlive_id">volume</property>
    <property name="tag">volume</property>
    <property name="kdenlive_ix">1</property>
    <property name="kdenlive_info"/>
    <property name="disable"/>
    <property name="gain">0.300882</property>
    <property name="end">0</property>
   </filter>
   <filter id="filter522" out="119468" in="119434">
    <property name="window">75</property>
    <property name="max_gain">20dB</property>
    <property name="mlt_type">filter</property>
    <property name="mlt_service">volume</property>
    <property name="kdenlive_id">volume</property>
    <property name="tag">volume</property>
    <property name="kdenlive_ix">1</property>
    <property name="kdenlive_info"/>
    <property name="disable"/>
    <property name="gain">0</property>
    <property name="end">0</property>
   </filter>
  </entry>
  <blank length="143"/>
  <entry out="122821" in="122767" producer="1_playlist4">
   <filter id="filter523" out="122821" in="122813">
    <property name="window">75</property>
    <property name="max_gain">20dB</property>
    <property name="mlt_type">filter</property>
    <property name="mlt_service">volume</property>
    <property name="kdenlive_id">fadeout</property>
    <property name="tag">volume</property>
    <property name="kdenlive_ix">1</property>
    <property name="kdenlive_info"/>
    <property name="disable"/>
    <property name="gain">1</property>
    <property name="end">0</property>
   </filter>
   <filter id="filter524" in="122767">
    <property name="window">75</property>
    <property name="max_gain">20dB</property>
    <property name="mlt_type">filter</property>
    <property name="mlt_service">volume</property>
    <property name="kdenlive_id">volume</property>
    <property name="tag">volume</property>
    <property name="kdenlive_ix">2</property>
    <property name="kdenlive_info"/>
    <property name="disable"/>
    <property name="gain">0.5</property>
   </filter>
  </entry>
  <blank length="12"/>
  <entry out="123205" in="123057" producer="1_playlist4"/>
  <blank length="313"/>
  <entry out="124489" in="124467" producer="1_playlist4">
   <filter id="filter525" out="124489" in="124467">
    <property name="window">75</property>
    <property name="max_gain">20dB</property>
    <property name="mlt_type">filter</property>
    <property name="mlt_service">volume</property>
    <property name="kdenlive_id">fadein</property>
    <property name="tag">volume</property>
    <property name="kdenlive_ix">1</property>
    <property name="kdenlive_info"/>
    <property name="disable"/>
    <property name="gain">0</property>
    <property name="end">1</property>
   </filter>
  </entry>
  <blank length="436"/>
  <entry out="124948" in="124926" producer="1_playlist4">
   <filter id="filter526" out="124948" in="124938">
    <property name="window">75</property>
    <property name="max_gain">20dB</property>
    <property name="mlt_type">filter</property>
    <property name="mlt_service">volume</property>
    <property name="kdenlive_id">fadeout</property>
    <property name="tag">volume</property>
    <property name="kdenlive_ix">1</property>
    <property name="kdenlive_info"/>
    <property name="disable"/>
    <property name="gain">1</property>
    <property name="end">0</property>
   </filter>
  </entry>
  <blank length="1008"/>
  <entry out="130810" in="130272" producer="1_playlist4">
   <filter id="filter527" out="130465" in="130272">
    <property name="window">75</property>
    <property name="max_gain">20dB</property>
    <property name="mlt_type">filter</property>
    <property name="mlt_service">volume</property>
    <property name="kdenlive_id">fadein</property>
    <property name="tag">volume</property>
    <property name="kdenlive_ix">1</property>
    <property name="kdenlive_info"/>
    <property name="disable"/>
    <property name="gain">0</property>
    <property name="end">1</property>
   </filter>
   <filter id="filter528" out="130810" in="130735">
    <property name="window">75</property>
    <property name="max_gain">20dB</property>
    <property name="mlt_type">filter</property>
    <property name="mlt_service">volume</property>
    <property name="kdenlive_id">fadeout</property>
    <property name="tag">volume</property>
    <property name="kdenlive_ix">2</property>
    <property name="kdenlive_info"/>
    <property name="disable"/>
    <property name="gain">1</property>
    <property name="end">0</property>
   </filter>
  </entry>
  <blank length="3955"/>
  <entry out="142937" in="142592" producer="1_playlist4">
   <filter id="filter529" out="142937" in="142914">
    <property name="window">75</property>
    <property name="max_gain">20dB</property>
    <property name="mlt_type">filter</property>
    <property name="mlt_service">volume</property>
    <property name="kdenlive_id">fadeout</property>
    <property name="tag">volume</property>
    <property name="kdenlive_ix">1</property>
    <property name="kdenlive_info"/>
    <property name="disable"/>
    <property name="gain">1</property>
    <property name="end">0</property>
   </filter>
   <filter id="filter530" out="142606" in="142592">
    <property name="window">75</property>
    <property name="max_gain">20dB</property>
    <property name="mlt_type">filter</property>
    <property name="mlt_service">volume</property>
    <property name="kdenlive_id">fadein</property>
    <property name="tag">volume</property>
    <property name="kdenlive_ix">2</property>
    <property name="kdenlive_info"/>
    <property name="disable"/>
    <property name="gain">0</property>
    <property name="end">1</property>
   </filter>
  </entry>
  <blank length="3123"/>
  <entry out="147011" in="147000" producer="1_playlist4">
   <filter id="filter531" out="147012" in="147000">
    <property name="window">75</property>
    <property name="max_gain">20dB</property>
    <property name="mlt_type">filter</property>
    <property name="mlt_service">volume</property>
    <property name="kdenlive_id">volume</property>
    <property name="tag">volume</property>
    <property name="kdenlive_ix">1</property>
    <property name="kdenlive_info"/>
    <property name="disable"/>
    <property name="gain">0.3</property>
    <property name="end">0</property>
   </filter>
  </entry>
  <blank length="934"/>
  <entry out="147233" in="147193" producer="1_playlist4">
   <filter id="filter532" out="147213" in="147193">
    <property name="window">75</property>
    <property name="max_gain">20dB</property>
    <property name="mlt_type">filter</property>
    <property name="mlt_service">volume</property>
    <property name="kdenlive_id">volume</property>
    <property name="tag">volume</property>
    <property name="kdenlive_ix">1</property>
    <property name="kdenlive_info"/>
    <property name="disable"/>
    <property name="gain">0</property>
    <property name="end">0.85</property>
   </filter>
   <filter id="filter533" out="147233" in="147214">
    <property name="window">75</property>
    <property name="max_gain">20dB</property>
    <property name="mlt_type">filter</property>
    <property name="mlt_service">volume</property>
    <property name="kdenlive_id">volume</property>
    <property name="tag">volume</property>
    <property name="kdenlive_ix">1</property>
    <property name="kdenlive_info"/>
    <property name="disable"/>
    <property name="gain">0.8575</property>
    <property name="end">1</property>
   </filter>
  </entry>
  <blank length="593"/>
  <entry out="147954" in="147850" producer="1_playlist4_audio">
   <filter id="filter534" out="147954" in="147879">
    <property name="window">75</property>
    <property name="max_gain">20dB</property>
    <property name="mlt_type">filter</property>
    <property name="mlt_service">volume</property>
    <property name="kdenlive_id">fadeout</property>
    <property name="tag">volume</property>
    <property name="kdenlive_ix">1</property>
    <property name="kdenlive_info"/>
    <property name="disable"/>
    <property name="gain">1</property>
    <property name="end">0</property>
   </filter>
   <filter id="filter535" out="147854" in="147850">
    <property name="window">75</property>
    <property name="max_gain">20dB</property>
    <property name="mlt_type">filter</property>
    <property name="mlt_service">volume</property>
    <property name="kdenlive_id">fadein</property>
    <property name="tag">volume</property>
    <property name="kdenlive_ix">2</property>
    <property name="kdenlive_info"/>
    <property name="disable"/>
    <property name="gain">0</property>
    <property name="end">1</property>
   </filter>
   <filter id="filter536" in="147850">
    <property name="window">75</property>
    <property name="max_gain">20dB</property>
    <property name="mlt_type">filter</property>
    <property name="mlt_service">volume</property>
    <property name="kdenlive_id">volume</property>
    <property name="tag">volume</property>
    <property name="kdenlive_ix">3</property>
    <property name="kdenlive_info"/>
    <property name="disable"/>
    <property name="gain">0.5</property>
   </filter>
  </entry>
  <blank length="584"/>
  <entry out="151920" in="151902" producer="1_playlist4">
   <filter id="filter537" in="151902">
    <property name="window">75</property>
    <property name="max_gain">20dB</property>
    <property name="mlt_type">filter</property>
    <property name="mlt_service">volume</property>
    <property name="kdenlive_id">volume</property>
    <property name="tag">volume</property>
    <property name="kdenlive_ix">1</property>
    <property name="kdenlive_info"/>
    <property name="disable"/>
    <property name="gain">1</property>
   </filter>
  </entry>
  <blank length="264"/>
  <entry out="152332" in="152297" producer="1_playlist4">
   <filter id="filter538" out="152324" in="152297">
    <property name="window">75</property>
    <property name="max_gain">20dB</property>
    <property name="mlt_type">filter</property>
    <property name="mlt_service">volume</property>
    <property name="kdenlive_id">volume</property>
    <property name="tag">volume</property>
    <property name="kdenlive_ix">1</property>
    <property name="kdenlive_info"/>
    <property name="disable"/>
    <property name="gain">0</property>
    <property name="end">1</property>
   </filter>
   <filter id="filter539" out="152332" in="152325">
    <property name="window">75</property>
    <property name="max_gain">20dB</property>
    <property name="mlt_type">filter</property>
    <property name="mlt_service">volume</property>
    <property name="kdenlive_id">volume</property>
    <property name="tag">volume</property>
    <property name="kdenlive_ix">1</property>
    <property name="kdenlive_info"/>
    <property name="disable"/>
    <property name="gain">1</property>
    <property name="end">1</property>
   </filter>
  </entry>
  <blank length="897"/>
  <entry out="153285" in="153266" producer="1_playlist4">
   <filter id="filter540" out="153285" in="153266">
    <property name="window">75</property>
    <property name="max_gain">20dB</property>
    <property name="mlt_type">filter</property>
    <property name="mlt_service">volume</property>
    <property name="kdenlive_id">volume</property>
    <property name="tag">volume</property>
    <property name="kdenlive_ix">1</property>
    <property name="kdenlive_info"/>
    <property name="disable"/>
    <property name="gain">0</property>
    <property name="end">0.9</property>
   </filter>
  </entry>
  <entry out="153268" in="153250" producer="1_playlist4">
   <filter id="filter541" out="153268" in="153250">
    <property name="window">75</property>
    <property name="max_gain">20dB</property>
    <property name="mlt_type">filter</property>
    <property name="mlt_service">volume</property>
    <property name="kdenlive_id">volume</property>
    <property name="tag">volume</property>
    <property name="kdenlive_ix">1</property>
    <property name="kdenlive_info"/>
    <property name="disable"/>
    <property name="gain">1</property>
    <property name="end">0</property>
   </filter>
  </entry>
  <blank length="239"/>
  <entry out="154341" in="154083" producer="1_playlist4">
   <filter id="filter542" out="154091" in="154083">
    <property name="window">75</property>
    <property name="max_gain">20dB</property>
    <property name="mlt_type">filter</property>
    <property name="mlt_service">volume</property>
    <property name="kdenlive_id">volume</property>
    <property name="tag">volume</property>
    <property name="kdenlive_ix">1</property>
    <property name="kdenlive_info"/>
    <property name="disable"/>
    <property name="gain">0</property>
    <property name="end">0</property>
   </filter>
   <filter id="filter543" out="154122" in="154092">
    <property name="window">75</property>
    <property name="max_gain">20dB</property>
    <property name="mlt_type">filter</property>
    <property name="mlt_service">volume</property>
    <property name="kdenlive_id">volume</property>
    <property name="tag">volume</property>
    <property name="kdenlive_ix">1</property>
    <property name="kdenlive_info"/>
    <property name="disable"/>
    <property name="gain">0.0322581</property>
    <property name="end">1</property>
   </filter>
   <filter id="filter544" out="154341" in="154123">
    <property name="window">75</property>
    <property name="max_gain">20dB</property>
    <property name="mlt_type">filter</property>
    <property name="mlt_service">volume</property>
    <property name="kdenlive_id">volume</property>
    <property name="tag">volume</property>
    <property name="kdenlive_ix">1</property>
    <property name="kdenlive_info"/>
    <property name="disable"/>
    <property name="gain">1</property>
    <property name="end">1</property>
   </filter>
  </entry>
  <entry out="154350" in="154342" producer="1_playlist4">
   <filter id="filter545" out="154350" in="154342">
    <property name="window">75</property>
    <property name="max_gain">20dB</property>
    <property name="mlt_type">filter</property>
    <property name="mlt_service">volume</property>
    <property name="kdenlive_id">volume</property>
    <property name="tag">volume</property>
    <property name="kdenlive_ix">1</property>
    <property name="kdenlive_info"/>
    <property name="disable"/>
    <property name="gain">1</property>
    <property name="end">0</property>
   </filter>
  </entry>
  <blank length="591"/>
  <entry out="157435" in="157356" producer="1_playlist4">
   <filter id="filter546" in="157356">
    <property name="window">75</property>
    <property name="max_gain">20dB</property>
    <property name="mlt_type">filter</property>
    <property name="mlt_service">volume</property>
    <property name="kdenlive_id">volume</property>
    <property name="tag">volume</property>
    <property name="kdenlive_ix">1</property>
    <property name="kdenlive_info"/>
    <property name="disable"/>
    <property name="gain">1</property>
   </filter>
  </entry>
  <blank length="852"/>
  <entry out="159316" in="159114" producer="1_playlist4">
   <filter id="filter547" out="159154" in="159114">
    <property name="window">75</property>
    <property name="max_gain">20dB</property>
    <property name="mlt_type">filter</property>
    <property name="mlt_service">volume</property>
    <property name="kdenlive_id">volume</property>
    <property name="tag">volume</property>
    <property name="kdenlive_ix">1</property>
    <property name="kdenlive_info"/>
    <property name="disable"/>
    <property name="gain">1</property>
    <property name="end">0.3</property>
   </filter>
   <filter id="filter548" out="159316" in="159155">
    <property name="window">75</property>
    <property name="max_gain">20dB</property>
    <property name="mlt_type">filter</property>
    <property name="mlt_service">volume</property>
    <property name="kdenlive_id">volume</property>
    <property name="tag">volume</property>
    <property name="kdenlive_ix">1</property>
    <property name="kdenlive_info"/>
    <property name="disable"/>
    <property name="gain">0.298148</property>
    <property name="end">0</property>
   </filter>
  </entry>
  <blank length="342"/>
  <entry out="164413" in="162951" producer="1_playlist4">
   <filter id="filter549" out="164413" in="164147">
    <property name="window">75</property>
    <property name="max_gain">20dB</property>
    <property name="mlt_type">filter</property>
    <property name="mlt_service">volume</property>
    <property name="kdenlive_id">fadeout</property>
    <property name="tag">volume</property>
    <property name="kdenlive_ix">1</property>
    <property name="kdenlive_info"/>
    <property name="disable">1</property>
    <property name="gain">1</property>
    <property name="end">0</property>
   </filter>
   <filter id="filter550" out="163026" in="162951">
    <property name="window">75</property>
    <property name="max_gain">20dB</property>
    <property name="mlt_type">filter</property>
    <property name="mlt_service">volume</property>
    <property name="kdenlive_id">fadein</property>
    <property name="tag">volume</property>
    <property name="kdenlive_ix">2</property>
    <property name="kdenlive_info"/>
    <property name="disable"/>
    <property name="gain">0</property>
    <property name="end">1</property>
   </filter>
   <filter id="filter551" out="164187" in="162951">
    <property name="window">75</property>
    <property name="max_gain">20dB</property>
    <property name="mlt_type">filter</property>
    <property name="mlt_service">volume</property>
    <property name="kdenlive_id">volume</property>
    <property name="tag">volume</property>
    <property name="kdenlive_ix">3</property>
    <property name="kdenlive_info"/>
    <property name="disable"/>
    <property name="gain">1</property>
    <property name="end">1</property>
   </filter>
   <filter id="filter552" out="164248" in="164188">
    <property name="window">75</property>
    <property name="max_gain">20dB</property>
    <property name="mlt_type">filter</property>
    <property name="mlt_service">volume</property>
    <property name="kdenlive_id">volume</property>
    <property name="tag">volume</property>
    <property name="kdenlive_ix">3</property>
    <property name="kdenlive_info"/>
    <property name="disable"/>
    <property name="gain">0.990164</property>
    <property name="end">0.4</property>
   </filter>
   <filter id="filter553" out="164413" in="164249">
    <property name="window">75</property>
    <property name="max_gain">20dB</property>
    <property name="mlt_type">filter</property>
    <property name="mlt_service">volume</property>
    <property name="kdenlive_id">volume</property>
    <property name="tag">volume</property>
    <property name="kdenlive_ix">3</property>
    <property name="kdenlive_info"/>
    <property name="disable"/>
    <property name="gain">0.397576</property>
    <property name="end">0</property>
   </filter>
  </entry>
  <blank length="3208"/>
  <entry out="175480" in="175422" producer="1_playlist4">
   <filter id="filter554" out="175480" in="175422">
    <property name="window">75</property>
    <property name="max_gain">20dB</property>
    <property name="mlt_type">filter</property>
    <property name="mlt_service">volume</property>
    <property name="kdenlive_id">fadeout</property>
    <property name="tag">volume</property>
    <property name="kdenlive_ix">1</property>
    <property name="kdenlive_info"/>
    <property name="disable"/>
    <property name="gain">1</property>
    <property name="end">0</property>
   </filter>
  </entry>
  <blank length="152"/>
  <entry out="180775" in="176781" producer="1_playlist4">
   <filter id="filter555" out="176802" in="176781">
    <property name="window">75</property>
    <property name="max_gain">20dB</property>
    <property name="mlt_type">filter</property>
    <property name="mlt_service">volume</property>
    <property name="kdenlive_id">volume</property>
    <property name="tag">volume</property>
    <property name="kdenlive_ix">1</property>
    <property name="kdenlive_info"/>
    <property name="disable"/>
    <property name="gain">0</property>
    <property name="end">0.2</property>
   </filter>
   <filter id="filter556" out="176878" in="176803">
    <property name="window">75</property>
    <property name="max_gain">20dB</property>
    <property name="mlt_type">filter</property>
    <property name="mlt_service">volume</property>
    <property name="kdenlive_id">volume</property>
    <property name="tag">volume</property>
    <property name="kdenlive_ix">1</property>
    <property name="kdenlive_info"/>
    <property name="disable"/>
    <property name="gain">0.204605</property>
    <property name="end">0.55</property>
   </filter>
   <filter id="filter557" out="176952" in="176879">
    <property name="window">75</property>
    <property name="max_gain">20dB</property>
    <property name="mlt_type">filter</property>
    <property name="mlt_service">volume</property>
    <property name="kdenlive_id">volume</property>
    <property name="tag">volume</property>
    <property name="kdenlive_ix">1</property>
    <property name="kdenlive_info"/>
    <property name="disable"/>
    <property name="gain">0.552703</property>
    <property name="end">0.75</property>
   </filter>
   <filter id="filter558" out="177043" in="176953">
    <property name="window">75</property>
    <property name="max_gain">20dB</property>
    <property name="mlt_type">filter</property>
    <property name="mlt_service">volume</property>
    <property name="kdenlive_id">volume</property>
    <property name="tag">volume</property>
    <property name="kdenlive_ix">1</property>
    <property name="kdenlive_info"/>
    <property name="disable"/>
    <property name="gain">0.751648</property>
    <property name="end">0.9</property>
   </filter>
   <filter id="filter559" out="177168" in="177044">
    <property name="window">75</property>
    <property name="max_gain">20dB</property>
    <property name="mlt_type">filter</property>
    <property name="mlt_service">volume</property>
    <property name="kdenlive_id">volume</property>
    <property name="tag">volume</property>
    <property name="kdenlive_ix">1</property>
    <property name="kdenlive_info"/>
    <property name="disable"/>
    <property name="gain">0.9008</property>
    <property name="end">1</property>
   </filter>
   <filter id="filter560" out="178076" in="177169">
    <property name="window">75</property>
    <property name="max_gain">20dB</property>
    <property name="mlt_type">filter</property>
    <property name="mlt_service">volume</property>
    <property name="kdenlive_id">volume</property>
    <property name="tag">volume</property>
    <property name="kdenlive_ix">1</property>
    <property name="kdenlive_info"/>
    <property name="disable"/>
    <property name="gain">1</property>
    <property name="end">1</property>
   </filter>
   <filter id="filter561" out="178150" in="178077">
    <property name="window">75</property>
    <property name="max_gain">20dB</property>
    <property name="mlt_type">filter</property>
    <property name="mlt_service">volume</property>
    <property name="kdenlive_id">volume</property>
    <property name="tag">volume</property>
    <property name="kdenlive_ix">1</property>
    <property name="kdenlive_info"/>
    <property name="disable"/>
    <property name="gain">0.997297</property>
    <property name="end">0.8</property>
   </filter>
   <filter id="filter562" out="178287" in="178151">
    <property name="window">75</property>
    <property name="max_gain">20dB</property>
    <property name="mlt_type">filter</property>
    <property name="mlt_service">volume</property>
    <property name="kdenlive_id">volume</property>
    <property name="tag">volume</property>
    <property name="kdenlive_ix">1</property>
    <property name="kdenlive_info"/>
    <property name="disable"/>
    <property name="gain">0.79927</property>
    <property name="end">0.7</property>
   </filter>
   <filter id="filter563" out="178770" in="178288">
    <property name="window">75</property>
    <property name="max_gain">20dB</property>
    <property name="mlt_type">filter</property>
    <property name="mlt_service">volume</property>
    <property name="kdenlive_id">volume</property>
    <property name="tag">volume</property>
    <property name="kdenlive_ix">1</property>
    <property name="kdenlive_info"/>
    <property name="disable"/>
    <property name="gain">0.7</property>
    <property name="end">0.7</property>
   </filter>
   <filter id="filter564" out="178901" in="178771">
    <property name="window">75</property>
    <property name="max_gain">20dB</property>
    <property name="mlt_type">filter</property>
    <property name="mlt_service">volume</property>
    <property name="kdenlive_id">volume</property>
    <property name="tag">volume</property>
    <property name="kdenlive_ix">1</property>
    <property name="kdenlive_info"/>
    <property name="disable"/>
    <property name="gain">0.70229</property>
    <property name="end">1</property>
   </filter>
   <filter id="filter565" out="179537" in="178902">
    <property name="window">75</property>
    <property name="max_gain">20dB</property>
    <property name="mlt_type">filter</property>
    <property name="mlt_service">volume</property>
    <property name="kdenlive_id">volume</property>
    <property name="tag">volume</property>
    <property name="kdenlive_ix">1</property>
    <property name="kdenlive_info"/>
    <property name="disable"/>
    <property name="gain">1</property>
    <property name="end">1</property>
   </filter>
   <filter id="filter566" out="179656" in="179538">
    <property name="window">75</property>
    <property name="max_gain">20dB</property>
    <property name="mlt_type">filter</property>
    <property name="mlt_service">volume</property>
    <property name="kdenlive_id">volume</property>
    <property name="tag">volume</property>
    <property name="kdenlive_ix">1</property>
    <property name="kdenlive_info"/>
    <property name="disable"/>
    <property name="gain">0.997899</property>
    <property name="end">0.75</property>
   </filter>
   <filter id="filter567" out="179849" in="179657">
    <property name="window">75</property>
    <property name="max_gain">20dB</property>
    <property name="mlt_type">filter</property>
    <property name="mlt_service">volume</property>
    <property name="kdenlive_id">volume</property>
    <property name="tag">volume</property>
    <property name="kdenlive_ix">1</property>
    <property name="kdenlive_info"/>
    <property name="disable"/>
    <property name="gain">0.75</property>
    <property name="end">0.75</property>
   </filter>
   <filter id="filter568" out="179917" in="179850">
    <property name="window">75</property>
    <property name="max_gain">20dB</property>
    <property name="mlt_type">filter</property>
    <property name="mlt_service">volume</property>
    <property name="kdenlive_id">volume</property>
    <property name="tag">volume</property>
    <property name="kdenlive_ix">1</property>
    <property name="kdenlive_info"/>
    <property name="disable"/>
    <property name="gain">0.753676</property>
    <property name="end">1</property>
   </filter>
   <filter id="filter569" out="180775" in="179918">
    <property name="window">75</property>
    <property name="max_gain">20dB</property>
    <property name="mlt_type">filter</property>
    <property name="mlt_service">volume</property>
    <property name="kdenlive_id">volume</property>
    <property name="tag">volume</property>
    <property name="kdenlive_ix">1</property>
    <property name="kdenlive_info"/>
    <property name="disable"/>
    <property name="gain">1</property>
    <property name="end">1</property>
   </filter>
   <filter id="filter570" out="180776" in="180644">
    <property name="window">75</property>
    <property name="max_gain">20dB</property>
    <property name="mlt_type">filter</property>
    <property name="mlt_service">volume</property>
    <property name="kdenlive_id">fadeout</property>
    <property name="tag">volume</property>
    <property name="kdenlive_ix">2</property>
    <property name="kdenlive_info"/>
    <property name="disable"/>
    <property name="gain">1</property>
    <property name="end">0</property>
   </filter>
  </entry>
  <blank length="1368"/>
  <entry out="183152" in="183060" producer="1_playlist4_audio">
   <filter id="filter571" out="183152" in="183119">
    <property name="window">75</property>
    <property name="max_gain">20dB</property>
    <property name="mlt_type">filter</property>
    <property name="mlt_service">volume</property>
    <property name="kdenlive_id">fadeout</property>
    <property name="tag">volume</property>
    <property name="kdenlive_ix">1</property>
    <property name="kdenlive_info"/>
    <property name="disable"/>
    <property name="gain">1</property>
    <property name="end">0</property>
   </filter>
  </entry>
  <blank length="3659"/>
  <entry out="193771" in="193242" producer="1_playlist4">
   <filter id="filter572" out="193771" in="193763">
    <property name="window">75</property>
    <property name="max_gain">20dB</property>
    <property name="mlt_type">filter</property>
    <property name="mlt_service">volume</property>
    <property name="kdenlive_id">fadeout</property>
    <property name="tag">volume</property>
    <property name="kdenlive_ix">1</property>
    <property name="kdenlive_info"/>
    <property name="disable"/>
    <property name="gain">1</property>
    <property name="end">0</property>
   </filter>
   <filter id="filter573" out="193291" in="193242">
    <property name="window">75</property>
    <property name="max_gain">20dB</property>
    <property name="mlt_type">filter</property>
    <property name="mlt_service">volume</property>
    <property name="kdenlive_id">fadein</property>
    <property name="tag">volume</property>
    <property name="kdenlive_ix">2</property>
    <property name="kdenlive_info"/>
    <property name="disable"/>
    <property name="gain">0</property>
    <property name="end">1</property>
   </filter>
  </entry>
  <blank length="1266"/>
  <entry out="199430" in="195953" producer="1_playlist4">
   <filter id="filter296" out="196748" in="195953">
    <property name="window">75</property>
    <property name="max_gain">20dB</property>
    <property name="mlt_type">filter</property>
    <property name="mlt_service">volume</property>
    <property name="kdenlive_id">volume</property>
    <property name="tag">volume</property>
    <property name="kdenlive_ix">1</property>
    <property name="kdenlive_info"/>
    <property name="disable"/>
    <property name="gain">1</property>
    <property name="end">0.85</property>
   </filter>
   <filter id="filter297" out="197490" in="196749">
    <property name="window">75</property>
    <property name="max_gain">20dB</property>
    <property name="mlt_type">filter</property>
    <property name="mlt_service">volume</property>
    <property name="kdenlive_id">volume</property>
    <property name="tag">volume</property>
    <property name="kdenlive_ix">1</property>
    <property name="kdenlive_info"/>
    <property name="disable"/>
    <property name="gain">0.849865</property>
    <property name="end">0.75</property>
   </filter>
   <filter id="filter298" out="199430" in="197491">
    <property name="window">75</property>
    <property name="max_gain">20dB</property>
    <property name="mlt_type">filter</property>
    <property name="mlt_service">volume</property>
    <property name="kdenlive_id">volume</property>
    <property name="tag">volume</property>
    <property name="kdenlive_ix">1</property>
    <property name="kdenlive_info"/>
    <property name="disable"/>
    <property name="gain">0.75</property>
    <property name="end">0.75</property>
   </filter>
  </entry>
  <entry out="199489" in="199431" producer="1_playlist4">
   <filter id="filter380" out="199489" in="199431">
    <property name="window">75</property>
    <property name="max_gain">20dB</property>
    <property name="mlt_type">filter</property>
    <property name="mlt_service">volume</property>
    <property name="kdenlive_id">volume</property>
    <property name="tag">volume</property>
    <property name="kdenlive_ix">1</property>
    <property name="kdenlive_info"/>
    <property name="disable"/>
    <property name="gain">0.75</property>
    <property name="end">0.75</property>
   </filter>
  </entry>
  <blank length="4928"/>
  <entry out="212674" in="212667" producer="1_playlist4">
   <filter id="filter381" out="212674" in="212667">
    <property name="window">75</property>
    <property name="max_gain">20dB</property>
    <property name="mlt_type">filter</property>
    <property name="mlt_service">volume</property>
    <property name="kdenlive_id">volume</property>
    <property name="tag">volume</property>
    <property name="kdenlive_ix">1</property>
    <property name="kdenlive_info"/>
    <property name="disable"/>
    <property name="gain">0</property>
    <property name="end">0.16</property>
   </filter>
  </entry>
  <blank length="715"/>
  <entry out="215006" in="214220" producer="1_playlist4">
   <filter id="filter399" in="214220">
    <property name="window">75</property>
    <property name="max_gain">20dB</property>
    <property name="mlt_type">filter</property>
    <property name="mlt_service">volume</property>
    <property name="kdenlive_id">volume</property>
    <property name="tag">volume</property>
    <property name="kdenlive_ix">1</property>
    <property name="kdenlive_info"/>
    <property name="disable"/>
    <property name="gain">0.7</property>
   </filter>
   <filter id="filter574" out="214243" in="214220">
    <property name="window">75</property>
    <property name="max_gain">20dB</property>
    <property name="mlt_type">filter</property>
    <property name="mlt_service">volume</property>
    <property name="kdenlive_id">fadein</property>
    <property name="tag">volume</property>
    <property name="kdenlive_ix">2</property>
    <property name="kdenlive_info"/>
    <property name="disable"/>
    <property name="gain">0</property>
    <property name="end">1</property>
   </filter>
  </entry>
  <entry out="215049" in="215007" producer="1_playlist4_audio">
   <filter id="filter575" out="215049" in="215007">
    <property name="window">75</property>
    <property name="max_gain">20dB</property>
    <property name="mlt_type">filter</property>
    <property name="mlt_service">volume</property>
    <property name="kdenlive_id">fadeout</property>
    <property name="tag">volume</property>
    <property name="kdenlive_ix">1</property>
    <property name="kdenlive_info"/>
    <property name="disable"/>
    <property name="gain">1</property>
    <property name="end">0</property>
   </filter>
  </entry>
  <blank length="503"/>
  <entry out="221306" in="221190" producer="1_playlist4"/>
  <entry out="221360" in="221307" producer="1_playlist4">
   <filter id="filter576" out="221360" in="221337">
    <property name="window">75</property>
    <property name="max_gain">20dB</property>
    <property name="mlt_type">filter</property>
    <property name="mlt_service">volume</property>
    <property name="kdenlive_id">fadeout</property>
    <property name="tag">volume</property>
    <property name="kdenlive_ix">1</property>
    <property name="kdenlive_info"/>
    <property name="disable"/>
    <property name="gain">1</property>
    <property name="end">0</property>
   </filter>
  </entry>
  <blank length="65"/>
  <entry out="221939" in="221913" producer="1_playlist4">
   <filter id="filter577" out="221939" in="221913">
    <property name="window">75</property>
    <property name="max_gain">20dB</property>
    <property name="mlt_type">filter</property>
    <property name="mlt_service">volume</property>
    <property name="kdenlive_id">fadein</property>
    <property name="tag">volume</property>
    <property name="kdenlive_ix">1</property>
    <property name="kdenlive_info"/>
    <property name="disable"/>
    <property name="gain">0</property>
    <property name="end">1</property>
   </filter>
  </entry>
  <entry out="221912" in="221880" producer="1_playlist4">
   <filter id="filter578" out="221912" in="221880">
    <property name="window">75</property>
    <property name="max_gain">20dB</property>
    <property name="mlt_type">filter</property>
    <property name="mlt_service">volume</property>
    <property name="kdenlive_id">fadeout</property>
    <property name="tag">volume</property>
    <property name="kdenlive_ix">1</property>
    <property name="kdenlive_info"/>
    <property name="disable"/>
    <property name="gain">1</property>
    <property name="end">0</property>
   </filter>
  </entry>
  <blank length="1149"/>
  <entry out="223147" in="223122" producer="1_playlist4">
   <filter id="filter579" out="223147" in="223122">
    <property name="window">75</property>
    <property name="max_gain">20dB</property>
    <property name="mlt_type">filter</property>
    <property name="mlt_service">volume</property>
    <property name="kdenlive_id">fadeout</property>
    <property name="tag">volume</property>
    <property name="kdenlive_ix">1</property>
    <property name="kdenlive_info"/>
    <property name="disable"/>
    <property name="gain">1</property>
    <property name="end">0</property>
   </filter>
  </entry>
  <blank length="867"/>
  <entry out="248428" in="246595" producer="1_playlist4">
   <filter id="filter580" out="246670" in="246595">
    <property name="window">75</property>
    <property name="max_gain">20dB</property>
    <property name="mlt_type">filter</property>
    <property name="mlt_service">volume</property>
    <property name="kdenlive_id">fadein</property>
    <property name="tag">volume</property>
    <property name="kdenlive_ix">1</property>
    <property name="kdenlive_info"/>
    <property name="disable"/>
    <property name="gain">0</property>
    <property name="end">1</property>
   </filter>
   <filter id="filter581" out="248428" in="248381">
    <property name="window">75</property>
    <property name="max_gain">20dB</property>
    <property name="mlt_type">filter</property>
    <property name="mlt_service">volume</property>
    <property name="kdenlive_id">fadeout</property>
    <property name="tag">volume</property>
    <property name="kdenlive_ix">2</property>
    <property name="kdenlive_info"/>
    <property name="disable"/>
    <property name="gain">1</property>
    <property name="end">0</property>
   </filter>
  </entry>
  <blank length="63"/>
  <entry out="222826" in="222809" producer="1_playlist4">
   <filter id="filter582" out="222816" in="222809">
    <property name="window">75</property>
    <property name="max_gain">20dB</property>
    <property name="mlt_type">filter</property>
    <property name="mlt_service">volume</property>
    <property name="kdenlive_id">fadein</property>
    <property name="tag">volume</property>
    <property name="kdenlive_ix">1</property>
    <property name="kdenlive_info"/>
    <property name="disable"/>
    <property name="gain">0</property>
    <property name="end">1</property>
   </filter>
   <filter id="filter583" out="222826" in="222817">
    <property name="window">75</property>
    <property name="max_gain">20dB</property>
    <property name="mlt_type">filter</property>
    <property name="mlt_service">volume</property>
    <property name="kdenlive_id">fadeout</property>
    <property name="tag">volume</property>
    <property name="kdenlive_ix">2</property>
    <property name="kdenlive_info"/>
    <property name="disable"/>
    <property name="gain">1</property>
    <property name="end">0</property>
   </filter>
  </entry>
  <blank length="44"/>
  <entry out="246848" in="246814" producer="1_playlist4">
   <filter id="filter584" out="246848" in="246814">
    <property name="window">75</property>
    <property name="max_gain">20dB</property>
    <property name="mlt_type">filter</property>
    <property name="mlt_service">volume</property>
    <property name="kdenlive_id">volume</property>
    <property name="tag">volume</property>
    <property name="kdenlive_ix">1</property>
    <property name="kdenlive_info"/>
    <property name="disable"/>
    <property name="gain">0.7</property>
    <property name="end">0.7</property>
   </filter>
   <filter id="filter585" out="246819" in="246814">
    <property name="window">75</property>
    <property name="max_gain">20dB</property>
    <property name="mlt_type">filter</property>
    <property name="mlt_service">volume</property>
    <property name="kdenlive_id">volume</property>
    <property name="tag">volume</property>
    <property name="kdenlive_ix">2</property>
    <property name="kdenlive_info"/>
    <property name="disable"/>
    <property name="gain">0</property>
    <property name="end">1</property>
   </filter>
   <filter id="filter586" out="246848" in="246820">
    <property name="window">75</property>
    <property name="max_gain">20dB</property>
    <property name="mlt_type">filter</property>
    <property name="mlt_service">volume</property>
    <property name="kdenlive_id">volume</property>
    <property name="tag">volume</property>
    <property name="kdenlive_ix">2</property>
    <property name="kdenlive_info"/>
    <property name="disable"/>
    <property name="gain">1</property>
    <property name="end">1</property>
   </filter>
  </entry>
  <blank length="216"/>
  <entry out="252894" in="252882" producer="1_playlist4">
   <filter id="filter587" out="252894" in="252882">
    <property name="window">75</property>
    <property name="max_gain">20dB</property>
    <property name="mlt_type">filter</property>
    <property name="mlt_service">volume</property>
    <property name="kdenlive_id">volume</property>
    <property name="tag">volume</property>
    <property name="kdenlive_ix">1</property>
    <property name="kdenlive_info"/>
    <property name="disable"/>
    <property name="gain">0</property>
    <property name="end">0.3</property>
   </filter>
   <filter id="filter588" out="253437" in="253427">
    <property name="window">75</property>
    <property name="max_gain">20dB</property>
    <property name="mlt_type">filter</property>
    <property name="mlt_service">volume</property>
    <property name="kdenlive_id">fadeout</property>
    <property name="tag">volume</property>
    <property name="kdenlive_ix">2</property>
    <property name="kdenlive_info"/>
    <property name="disable"/>
    <property name="gain">1</property>
    <property name="end">0</property>
   </filter>
  </entry>
  <blank length="597"/>
  <entry out="3411" in="3392" producer="2_playlist4">
   <filter id="filter589" out="3411" in="3392">
    <property name="window">75</property>
    <property name="max_gain">20dB</property>
    <property name="mlt_type">filter</property>
    <property name="mlt_service">volume</property>
    <property name="kdenlive_id">fadeout</property>
    <property name="tag">volume</property>
    <property name="kdenlive_ix">1</property>
    <property name="kdenlive_info"/>
    <property name="disable"/>
    <property name="gain">1</property>
    <property name="end">0</property>
   </filter>
  </entry>
  <blank length="47"/>
  <entry out="3918" in="3808" producer="2_playlist4">
   <filter id="filter590" out="3918" in="3899">
    <property name="window">75</property>
    <property name="max_gain">20dB</property>
    <property name="mlt_type">filter</property>
    <property name="mlt_service">volume</property>
    <property name="kdenlive_id">fadeout</property>
    <property name="tag">volume</property>
    <property name="kdenlive_ix">1</property>
    <property name="kdenlive_info"/>
    <property name="disable"/>
    <property name="gain">1</property>
    <property name="end">0</property>
   </filter>
  </entry>
  <blank length="60"/>
  <entry out="4175" in="4151" producer="2_playlist4">
   <filter id="filter591" out="4175" in="4151">
    <property name="window">75</property>
    <property name="max_gain">20dB</property>
    <property name="mlt_type">filter</property>
    <property name="mlt_service">volume</property>
    <property name="kdenlive_id">fadein</property>
    <property name="tag">volume</property>
    <property name="kdenlive_ix">1</property>
    <property name="kdenlive_info"/>
    <property name="disable"/>
    <property name="gain">0</property>
    <property name="end">1</property>
   </filter>
   <filter id="filter592" out="4262" in="4240">
    <property name="window">75</property>
    <property name="max_gain">20dB</property>
    <property name="mlt_type">filter</property>
    <property name="mlt_service">volume</property>
    <property name="kdenlive_id">fadeout</property>
    <property name="tag">volume</property>
    <property name="kdenlive_ix">2</property>
    <property name="kdenlive_info"/>
    <property name="disable"/>
    <property name="gain">1</property>
    <property name="end">0</property>
   </filter>
  </entry>
  <entry out="4101" in="4071" producer="2_playlist4">
   <filter id="filter593" out="4102" in="4071">
    <property name="window">75</property>
    <property name="max_gain">20dB</property>
    <property name="mlt_type">filter</property>
    <property name="mlt_service">volume</property>
    <property name="kdenlive_id">volume</property>
    <property name="tag">volume</property>
    <property name="kdenlive_ix">1</property>
    <property name="kdenlive_info"/>
    <property name="disable"/>
    <property name="gain">1</property>
    <property name="end">0</property>
   </filter>
  </entry>
  <blank length="430"/>
  <entry out="4662" in="4637" producer="2_playlist4">
   <filter id="filter594" out="4663" in="4637">
    <property name="window">75</property>
    <property name="max_gain">20dB</property>
    <property name="mlt_type">filter</property>
    <property name="mlt_service">volume</property>
    <property name="kdenlive_id">fadeout</property>
    <property name="tag">volume</property>
    <property name="kdenlive_ix">1</property>
    <property name="kdenlive_info"/>
    <property name="disable"/>
    <property name="gain">1</property>
    <property name="end">0</property>
   </filter>
  </entry>
  <blank length="252"/>
  <entry out="5661" in="5632" producer="2_playlist4">
   <filter id="filter595" out="5647" in="5632">
    <property name="window">75</property>
    <property name="max_gain">20dB</property>
    <property name="mlt_type">filter</property>
    <property name="mlt_service">volume</property>
    <property name="kdenlive_id">fadein</property>
    <property name="tag">volume</property>
    <property name="kdenlive_ix">1</property>
    <property name="kdenlive_info"/>
    <property name="disable"/>
    <property name="gain">0</property>
    <property name="end">1</property>
   </filter>
  </entry>
  <entry out="5291" in="5245" producer="2_playlist4">
   <filter id="filter596" out="5291" in="5216">
    <property name="window">75</property>
    <property name="max_gain">20dB</property>
    <property name="mlt_type">filter</property>
    <property name="mlt_service">volume</property>
    <property name="kdenlive_id">fadeout</property>
    <property name="tag">volume</property>
    <property name="kdenlive_ix">1</property>
    <property name="kdenlive_info"/>
    <property name="disable"/>
    <property name="gain">1</property>
    <property name="end">0</property>
   </filter>
  </entry>
  <blank length="75"/>
  <entry out="5841" in="5819" producer="2_playlist4">
   <filter id="filter597" out="5841" in="5819">
    <property name="window">75</property>
    <property name="max_gain">20dB</property>
    <property name="mlt_type">filter</property>
    <property name="mlt_service">volume</property>
    <property name="kdenlive_id">fadein</property>
    <property name="tag">volume</property>
    <property name="kdenlive_ix">1</property>
    <property name="kdenlive_info"/>
    <property name="disable"/>
    <property name="gain">0</property>
    <property name="end">1</property>
   </filter>
  </entry>
  <entry out="5818" in="5807" producer="2_playlist4"/>
  <blank length="49"/>
  <entry out="5932" in="5903" producer="2_playlist4">
   <filter id="filter598" out="5932" in="5917">
    <property name="window">75</property>
    <property name="max_gain">20dB</property>
    <property name="mlt_type">filter</property>
    <property name="mlt_service">volume</property>
    <property name="kdenlive_id">fadeout</property>
    <property name="tag">volume</property>
    <property name="kdenlive_ix">1</property>
    <property name="kdenlive_info"/>
    <property name="disable"/>
    <property name="gain">1</property>
    <property name="end">0</property>
   </filter>
  </entry>
  <blank length="1289"/>
  <entry out="8079" in="8028" producer="2_playlist4_audio">
   <filter id="filter599" out="8079" in="8044">
    <property name="window">75</property>
    <property name="max_gain">20dB</property>
    <property name="mlt_type">filter</property>
    <property name="mlt_service">volume</property>
    <property name="kdenlive_id">fadeout</property>
    <property name="tag">volume</property>
    <property name="kdenlive_ix">1</property>
    <property name="kdenlive_info"/>
    <property name="disable"/>
    <property name="gain">1</property>
    <property name="end">0</property>
   </filter>
  </entry>
  <blank length="237"/>
  <entry out="8910" in="8866" producer="2_playlist4_audio">
   <filter id="filter600" out="8906" in="8866">
    <property name="window">75</property>
    <property name="max_gain">20dB</property>
    <property name="mlt_type">filter</property>
    <property name="mlt_service">volume</property>
    <property name="kdenlive_id">fadein</property>
    <property name="tag">volume</property>
    <property name="kdenlive_ix">1</property>
    <property name="kdenlive_info"/>
    <property name="disable"/>
    <property name="gain">0</property>
    <property name="end">1</property>
   </filter>
   <filter id="filter601" in="8866">
    <property name="window">75</property>
    <property name="max_gain">20dB</property>
    <property name="mlt_type">filter</property>
    <property name="mlt_service">volume</property>
    <property name="kdenlive_id">volume</property>
    <property name="tag">volume</property>
    <property name="kdenlive_ix">2</property>
    <property name="kdenlive_info"/>
    <property name="disable"/>
    <property name="gain">0.7</property>
   </filter>
  </entry>
  <blank length="1082"/>
  <entry out="10880" in="10843" producer="2_playlist4">
   <filter id="filter602" out="10880" in="10843">
    <property name="window">75</property>
    <property name="max_gain">20dB</property>
    <property name="mlt_type">filter</property>
    <property name="mlt_service">volume</property>
    <property name="kdenlive_id">fadein</property>
    <property name="tag">volume</property>
    <property name="kdenlive_ix">1</property>
    <property name="kdenlive_info"/>
    <property name="disable"/>
    <property name="gain">0</property>
    <property name="end">1</property>
   </filter>
   <filter id="filter603" in="10843">
    <property name="window">75</property>
    <property name="max_gain">20dB</property>
    <property name="mlt_type">filter</property>
    <property name="mlt_service">volume</property>
    <property name="kdenlive_id">volume</property>
    <property name="tag">volume</property>
    <property name="kdenlive_ix">2</property>
    <property name="kdenlive_info"/>
    <property name="disable"/>
    <property name="gain">0.7</property>
   </filter>
  </entry>
  <entry out="8910" in="8866" producer="2_playlist4_audio">
   <filter id="filter604" out="8910" in="8881">
    <property name="window">75</property>
    <property name="max_gain">20dB</property>
    <property name="mlt_type">filter</property>
    <property name="mlt_service">volume</property>
    <property name="kdenlive_id">fadeout</property>
    <property name="tag">volume</property>
    <property name="kdenlive_ix">1</property>
    <property name="kdenlive_info"/>
    <property name="disable"/>
    <property name="gain">1</property>
    <property name="end">0</property>
   </filter>
   <filter id="filter605" in="8866">
    <property name="window">75</property>
    <property name="max_gain">20dB</property>
    <property name="mlt_type">filter</property>
    <property name="mlt_service">volume</property>
    <property name="kdenlive_id">volume</property>
    <property name="tag">volume</property>
    <property name="kdenlive_ix">2</property>
    <property name="kdenlive_info"/>
    <property name="disable"/>
    <property name="gain">0.7</property>
   </filter>
  </entry>
  <blank length="2420"/>
  <entry out="14711" in="13736" producer="2_playlist4">
   <filter id="filter606" out="13811" in="13736">
    <property name="window">75</property>
    <property name="max_gain">20dB</property>
    <property name="mlt_type">filter</property>
    <property name="mlt_service">volume</property>
    <property name="kdenlive_id">fadein</property>
    <property name="tag">volume</property>
    <property name="kdenlive_ix">1</property>
    <property name="kdenlive_info"/>
    <property name="disable"/>
    <property name="gain">0</property>
    <property name="end">1</property>
   </filter>
   <filter id="filter607" out="14711" in="14658">
    <property name="window">75</property>
    <property name="max_gain">20dB</property>
    <property name="mlt_type">filter</property>
    <property name="mlt_service">volume</property>
    <property name="kdenlive_id">fadeout</property>
    <property name="tag">volume</property>
    <property name="kdenlive_ix">2</property>
    <property name="kdenlive_info"/>
    <property name="disable"/>
    <property name="gain">1</property>
    <property name="end">0</property>
   </filter>
   <filter id="filter608" in="13736">
    <property name="window">75</property>
    <property name="max_gain">20dB</property>
    <property name="mlt_type">filter</property>
    <property name="mlt_service">volume</property>
    <property name="kdenlive_id">volume</property>
    <property name="tag">volume</property>
    <property name="kdenlive_ix">3</property>
    <property name="kdenlive_info"/>
    <property name="disable"/>
    <property name="gain">0.7</property>
   </filter>
  </entry>
  <blank length="2176"/>
  <entry out="17529" in="17425" producer="2_playlist4">
   <filter id="filter609" out="17530" in="17464">
    <property name="window">75</property>
    <property name="max_gain">20dB</property>
    <property name="mlt_type">filter</property>
    <property name="mlt_service">volume</property>
    <property name="kdenlive_id">fadeout</property>
    <property name="tag">volume</property>
    <property name="kdenlive_ix">1</property>
    <property name="kdenlive_info"/>
    <property name="disable"/>
    <property name="gain">1</property>
    <property name="end">0</property>
   </filter>
  </entry>
  <blank length="466"/>
  <entry out="21954" in="21883" producer="1_playlist4">
   <filter id="filter610">
    <property name="version">0.3</property>
    <property name="mlt_type">filter</property>
    <property name="mlt_service">frei0r.hueshift0r</property>
    <property name="kdenlive_id">frei0r.hueshift0r</property>
    <property name="tag">frei0r.hueshift0r</property>
    <property name="kdenlive_ix">1</property>
    <property name="kdenlive_info"/>
    <property name="disable">0</property>
    <property name="Hue">21883=0.805556</property>
   </filter>
   <filter id="filter611">
    <property name="version">0.3</property>
    <property name="mlt_type">filter</property>
    <property name="mlt_service">frei0r.saturat0r</property>
    <property name="kdenlive_id">frei0r.saturat0r</property>
    <property name="tag">frei0r.saturat0r</property>
    <property name="kdenlive_ix">2</property>
    <property name="kdenlive_info"/>
    <property name="disable">0</property>
    <property name="Saturation">21883=0.06</property>
   </filter>
  </entry>
  <entry out="211322" in="211282" producer="1_playlist4">
   <filter id="filter612" out="211297" in="211282">
    <property name="window">75</property>
    <property name="max_gain">20dB</property>
    <property name="mlt_type">filter</property>
    <property name="mlt_service">volume</property>
    <property name="kdenlive_id">volume</property>
    <property name="tag">volume</property>
    <property name="kdenlive_ix">1</property>
    <property name="kdenlive_info"/>
    <property name="disable"/>
    <property name="gain">0.7</property>
    <property name="end">0.3</property>
   </filter>
   <filter id="filter613" out="211323" in="211298">
    <property name="window">75</property>
    <property name="max_gain">20dB</property>
    <property name="mlt_type">filter</property>
    <property name="mlt_service">volume</property>
    <property name="kdenlive_id">volume</property>
    <property name="tag">volume</property>
    <property name="kdenlive_ix">1</property>
    <property name="kdenlive_info"/>
    <property name="disable"/>
    <property name="gain">0.288462</property>
    <property name="end">0</property>
   </filter>
   <filter id="filter614" out="211322" in="211304">
    <property name="window">75</property>
    <property name="max_gain">20dB</property>
    <property name="mlt_type">filter</property>
    <property name="mlt_service">volume</property>
    <property name="kdenlive_id">fadeout</property>
    <property name="tag">volume</property>
    <property name="kdenlive_ix">2</property>
    <property name="kdenlive_info"/>
    <property name="disable"/>
    <property name="gain">1</property>
    <property name="end">0</property>
   </filter>
  </entry>
  <blank length="541"/>
  <entry out="18848" in="18684" producer="2_playlist4">
   <filter id="filter615" out="18725" in="18684">
    <property name="window">75</property>
    <property name="max_gain">20dB</property>
    <property name="mlt_type">filter</property>
    <property name="mlt_service">volume</property>
    <property name="kdenlive_id">fadein</property>
    <property name="tag">volume</property>
    <property name="kdenlive_ix">1</property>
    <property name="kdenlive_info"/>
    <property name="disable"/>
    <property name="gain">0</property>
    <property name="end">1</property>
   </filter>
   <filter id="filter616" out="18849" in="18810">
    <property name="window">75</property>
    <property name="max_gain">20dB</property>
    <property name="mlt_type">filter</property>
    <property name="mlt_service">volume</property>
    <property name="kdenlive_id">fadeout</property>
    <property name="tag">volume</property>
    <property name="kdenlive_ix">2</property>
    <property name="kdenlive_info"/>
    <property name="disable"/>
    <property name="gain">1</property>
    <property name="end">0</property>
   </filter>
  </entry>
  <blank length="1760"/>
  <entry out="24171" in="24105" producer="2_playlist4_audio">
   <filter id="filter617" out="24130" in="24105">
    <property name="window">75</property>
    <property name="max_gain">20dB</property>
    <property name="mlt_type">filter</property>
    <property name="mlt_service">volume</property>
    <property name="kdenlive_id">volume</property>
    <property name="tag">volume</property>
    <property name="kdenlive_ix">1</property>
    <property name="kdenlive_info"/>
    <property name="disable"/>
    <property name="gain">1</property>
    <property name="end">0.3</property>
   </filter>
   <filter id="filter618" out="24171" in="24131">
    <property name="window">75</property>
    <property name="max_gain">20dB</property>
    <property name="mlt_type">filter</property>
    <property name="mlt_service">volume</property>
    <property name="kdenlive_id">volume</property>
    <property name="tag">volume</property>
    <property name="kdenlive_ix">1</property>
    <property name="kdenlive_info"/>
    <property name="disable"/>
    <property name="gain">0.292683</property>
    <property name="end">0</property>
   </filter>
  </entry>
  <blank length="82"/>
  <entry out="50122" in="49789" producer="2_playlist4">
   <filter id="filter619" out="49912" in="49789">
    <property name="window">75</property>
    <property name="max_gain">20dB</property>
    <property name="mlt_type">filter</property>
    <property name="mlt_service">volume</property>
    <property name="kdenlive_id">volume</property>
    <property name="tag">volume</property>
    <property name="kdenlive_ix">1</property>
    <property name="kdenlive_info"/>
    <property name="disable"/>
    <property name="gain">0</property>
    <property name="end">0</property>
   </filter>
   <filter id="filter620" out="49917" in="49913">
    <property name="window">75</property>
    <property name="max_gain">20dB</property>
    <property name="mlt_type">filter</property>
    <property name="mlt_service">volume</property>
    <property name="kdenlive_id">volume</property>
    <property name="tag">volume</property>
    <property name="kdenlive_ix">1</property>
    <property name="kdenlive_info"/>
    <property name="disable"/>
    <property name="gain">0.2</property>
    <property name="end">1</property>
   </filter>
   <filter id="filter621" out="50089" in="49918">
    <property name="window">75</property>
    <property name="max_gain">20dB</property>
    <property name="mlt_type">filter</property>
    <property name="mlt_service">volume</property>
    <property name="kdenlive_id">volume</property>
    <property name="tag">volume</property>
    <property name="kdenlive_ix">1</property>
    <property name="kdenlive_info"/>
    <property name="disable"/>
    <property name="gain">1</property>
    <property name="end">1</property>
   </filter>
   <filter id="filter622" out="50099" in="50090">
    <property name="window">75</property>
    <property name="max_gain">20dB</property>
    <property name="mlt_type">filter</property>
    <property name="mlt_service">volume</property>
    <property name="kdenlive_id">volume</property>
    <property name="tag">volume</property>
    <property name="kdenlive_ix">1</property>
    <property name="kdenlive_info"/>
    <property name="disable"/>
    <property name="gain">0.9</property>
    <property name="end">0</property>
   </filter>
   <filter id="filter623" out="50122" in="50100">
    <property name="window">75</property>
    <property name="max_gain">20dB</property>
    <property name="mlt_type">filter</property>
    <property name="mlt_service">volume</property>
    <property name="kdenlive_id">volume</property>
    <property name="tag">volume</property>
    <property name="kdenlive_ix">1</property>
    <property name="kdenlive_info"/>
    <property name="disable"/>
    <property name="gain">0</property>
    <property name="end">0</property>
   </filter>
  </entry>
  <blank length="2385"/>
  <entry out="53255" in="53216" producer="2_playlist4">
   <filter id="filter624" out="53255" in="53216">
    <property name="window">75</property>
    <property name="max_gain">20dB</property>
    <property name="mlt_type">filter</property>
    <property name="mlt_service">volume</property>
    <property name="kdenlive_id">fadeout</property>
    <property name="tag">volume</property>
    <property name="kdenlive_ix">1</property>
    <property name="kdenlive_info"/>
    <property name="disable"/>
    <property name="gain">1</property>
    <property name="end">0</property>
   </filter>
  </entry>
  <blank length="375"/>
  <entry out="34075" in="34055" producer="2_playlist4">
   <filter id="filter625" out="34076" in="34066">
    <property name="window">75</property>
    <property name="max_gain">20dB</property>
    <property name="mlt_type">filter</property>
    <property name="mlt_service">volume</property>
    <property name="kdenlive_id">fadeout</property>
    <property name="tag">volume</property>
    <property name="kdenlive_ix">1</property>
    <property name="kdenlive_info"/>
    <property name="disable"/>
    <property name="gain">1</property>
    <property name="end">0</property>
   </filter>
  </entry>
  <blank length="240"/>
  <entry out="27579" in="27480" producer="2_playlist4">
   <filter id="filter626" out="27579" in="27480">
    <property name="window">75</property>
    <property name="max_gain">20dB</property>
    <property name="mlt_type">filter</property>
    <property name="mlt_service">volume</property>
    <property name="kdenlive_id">volume</property>
    <property name="tag">volume</property>
    <property name="kdenlive_ix">1</property>
    <property name="kdenlive_info"/>
    <property name="disable"/>
    <property name="gain">1</property>
    <property name="end">0</property>
   </filter>
  </entry>
  <blank length="803"/>
  <entry out="28611" in="28600" producer="2_playlist4">
   <filter id="filter627" in="28600">
    <property name="window">75</property>
    <property name="max_gain">20dB</property>
    <property name="mlt_type">filter</property>
    <property name="mlt_service">volume</property>
    <property name="kdenlive_id">volume</property>
    <property name="tag">volume</property>
    <property name="kdenlive_ix">1</property>
    <property name="kdenlive_info"/>
    <property name="disable"/>
    <property name="gain">1</property>
   </filter>
  </entry>
  <blank length="89"/>
  <entry out="28933" in="28923" producer="2_playlist4">
   <filter id="filter628" out="28933" in="28923">
    <property name="window">75</property>
    <property name="max_gain">20dB</property>
    <property name="mlt_type">filter</property>
    <property name="mlt_service">volume</property>
    <property name="kdenlive_id">volume</property>
    <property name="tag">volume</property>
    <property name="kdenlive_ix">1</property>
    <property name="kdenlive_info"/>
    <property name="disable"/>
    <property name="gain">0</property>
    <property name="end">0.46</property>
   </filter>
  </entry>
  <entry out="28810" in="28808" producer="2_playlist4">
   <filter id="filter629" in="28808">
    <property name="window">75</property>
    <property name="max_gain">20dB</property>
    <property name="mlt_type">filter</property>
    <property name="mlt_service">volume</property>
    <property name="kdenlive_id">volume</property>
    <property name="tag">volume</property>
    <property name="kdenlive_ix">1</property>
    <property name="kdenlive_info"/>
    <property name="disable"/>
    <property name="gain">1</property>
   </filter>
  </entry>
  <blank length="272"/>
  <entry out="29384" in="29376" producer="2_playlist4">
   <filter id="filter630" out="29384" in="29376">
    <property name="window">75</property>
    <property name="max_gain">20dB</property>
    <property name="mlt_type">filter</property>
    <property name="mlt_service">volume</property>
    <property name="kdenlive_id">volume</property>
    <property name="tag">volume</property>
    <property name="kdenlive_ix">1</property>
    <property name="kdenlive_info"/>
    <property name="disable"/>
    <property name="gain">0</property>
    <property name="end">0</property>
   </filter>
  </entry>
  <entry out="29275" in="29218" producer="2_playlist4">
   <filter id="filter631" out="29260" in="29218">
    <property name="window">75</property>
    <property name="max_gain">20dB</property>
    <property name="mlt_type">filter</property>
    <property name="mlt_service">volume</property>
    <property name="kdenlive_id">volume</property>
    <property name="tag">volume</property>
    <property name="kdenlive_ix">1</property>
    <property name="kdenlive_info"/>
    <property name="disable"/>
    <property name="gain">1</property>
    <property name="end">0.75</property>
   </filter>
   <filter id="filter632" out="29276" in="29261">
    <property name="window">75</property>
    <property name="max_gain">20dB</property>
    <property name="mlt_type">filter</property>
    <property name="mlt_service">volume</property>
    <property name="kdenlive_id">volume</property>
    <property name="tag">volume</property>
    <property name="kdenlive_ix">1</property>
    <property name="kdenlive_info"/>
    <property name="disable"/>
    <property name="gain">0.703125</property>
    <property name="end">0</property>
   </filter>
  </entry>
  <blank length="1037"/>
  <entry out="30979" in="30970" producer="2_playlist4">
   <filter id="filter633" out="30980" in="30970">
    <property name="window">75</property>
    <property name="max_gain">20dB</property>
    <property name="mlt_type">filter</property>
    <property name="mlt_service">volume</property>
    <property name="kdenlive_id">fadein</property>
    <property name="tag">volume</property>
    <property name="kdenlive_ix">1</property>
    <property name="kdenlive_info"/>
    <property name="disable"/>
    <property name="gain">0</property>
    <property name="end">1</property>
   </filter>
  </entry>
  <entry out="30501" in="30490" producer="2_playlist4">
   <filter id="filter634" out="30501" in="30490">
    <property name="window">75</property>
    <property name="max_gain">20dB</property>
    <property name="mlt_type">filter</property>
    <property name="mlt_service">volume</property>
    <property name="kdenlive_id">volume</property>
    <property name="tag">volume</property>
    <property name="kdenlive_ix">1</property>
    <property name="kdenlive_info"/>
    <property name="disable"/>
    <property name="gain">0.6</property>
    <property name="end">0</property>
   </filter>
  </entry>
  <blank length="690"/>
  <entry out="31769" in="31682" producer="2_playlist4">
   <filter id="filter635" out="31769" in="31739">
    <property name="window">75</property>
    <property name="max_gain">20dB</property>
    <property name="mlt_type">filter</property>
    <property name="mlt_service">volume</property>
    <property name="kdenlive_id">fadeout</property>
    <property name="tag">volume</property>
    <property name="kdenlive_ix">1</property>
    <property name="kdenlive_info"/>
    <property name="disable"/>
    <property name="gain">1</property>
    <property name="end">0</property>
   </filter>
  </entry>
  <blank length="1475"/>
  <entry out="58754" in="55394" producer="2_playlist4">
   <filter id="filter636" out="55542" in="55394">
    <property name="window">75</property>
    <property name="max_gain">20dB</property>
    <property name="mlt_type">filter</property>
    <property name="mlt_service">volume</property>
    <property name="kdenlive_id">fadein</property>
    <property name="tag">volume</property>
    <property name="kdenlive_ix">1</property>
    <property name="kdenlive_info"/>
    <property name="disable"/>
    <property name="gain">0</property>
    <property name="end">1</property>
   </filter>
   <filter id="filter637" out="58754" in="58508">
    <property name="window">75</property>
    <property name="max_gain">20dB</property>
    <property name="mlt_type">filter</property>
    <property name="mlt_service">volume</property>
    <property name="kdenlive_id">fadeout</property>
    <property name="tag">volume</property>
    <property name="kdenlive_ix">2</property>
    <property name="kdenlive_info"/>
    <property name="disable"/>
    <property name="gain">1</property>
    <property name="end">0</property>
   </filter>
  </entry>
  <blank length="786"/>
  <entry out="60174" in="60110" producer="2_playlist4_audio">
   <filter id="filter638" out="60175" in="60110">
    <property name="window">75</property>
    <property name="max_gain">20dB</property>
    <property name="mlt_type">filter</property>
    <property name="mlt_service">volume</property>
    <property name="kdenlive_id">fadeout</property>
    <property name="tag">volume</property>
    <property name="kdenlive_ix">1</property>
    <property name="kdenlive_info"/>
    <property name="disable"/>
    <property name="gain">1</property>
    <property name="end">0</property>
   </filter>
  </entry>
  <blank length="1775"/>
  <entry out="107249" in="107178" producer="3_playlist4">
   <filter id="filter639">
    <property name="window">75</property>
    <property name="max_gain">20dB</property>
    <property name="mlt_type">filter</property>
    <property name="mlt_service">volume</property>
    <property name="kdenlive_id">mute</property>
    <property name="tag">volume</property>
    <property name="kdenlive_ix">1</property>
    <property name="kdenlive_info"/>
    <property name="disable"/>
    <property name="gain">0</property>
   </filter>
   <filter id="filter640">
    <property name="version">0.3</property>
    <property name="mlt_type">filter</property>
    <property name="mlt_service">frei0r.saturat0r</property>
    <property name="kdenlive_id">frei0r.saturat0r</property>
    <property name="tag">frei0r.saturat0r</property>
    <property name="kdenlive_ix">2</property>
    <property name="kdenlive_info"/>
    <property name="disable">0</property>
    <property name="Saturation">107178=0.07</property>
   </filter>
   <filter id="frei0r.bezier_curves">
    <property name="version">0.3</property>
    <property name="mlt_type">filter</property>
    <property name="mlt_service">frei0r.curves</property>
    <property name="kdenlive_id">frei0r.bezier_curves</property>
    <property name="tag">frei0r.curves</property>
    <property name="kdenlive_ix">3</property>
    <property name="kdenlive_info"/>
    <property name="disable">0</property>
    <property name="Channel">0.4</property>
    <property name="Luma formula">1</property>
    <property name="Bézier spline">0;0#0;0#0.1;0.1|0.350267;0.178189#0.400267;0.228189#0.450267;0.278189|0.790696;0.493624#0.840696;0.543624#0.890696;0.593624|0.9;0.9#1;1#1;1</property>
   </filter>
   <filter id="frei0r.balanc0r">
    <property name="version">0.3</property>
    <property name="mlt_type">filter</property>
    <property name="mlt_service">frei0r.balanc0r</property>
    <property name="kdenlive_id">frei0r.balanc0r</property>
    <property name="tag">frei0r.balanc0r</property>
    <property name="kdenlive_ix">4</property>
    <property name="kdenlive_info"/>
    <property name="disable"/>
    <property name="Neutral Color">0xffffffff</property>
    <property name="Green Tint">107178=0.2014</property>
   </filter>
   <filter id="frei0r.brightness">
    <property name="version">0.2</property>
    <property name="mlt_type">filter</property>
    <property name="mlt_service">frei0r.brightness</property>
    <property name="kdenlive_id">frei0r.brightness</property>
    <property name="tag">frei0r.brightness</property>
    <property name="kdenlive_ix">5</property>
    <property name="kdenlive_info"/>
    <property name="disable"/>
    <property name="Brightness">0.263</property>
   </filter>
  </entry>
  <blank length="801"/>
  <entry out="48591" in="48564" producer="2_playlist4">
   <filter id="filter641" in="48564">
    <property name="window">75</property>
    <property name="max_gain">20dB</property>
    <property name="mlt_type">filter</property>
    <property name="mlt_service">volume</property>
    <property name="kdenlive_id">volume</property>
    <property name="tag">volume</property>
    <property name="kdenlive_ix">1</property>
    <property name="kdenlive_info"/>
    <property name="disable"/>
    <property name="gain">2.2</property>
   </filter>
   <filter id="ladspa.1433">
    <property name="mlt_type">filter</property>
    <property name="mlt_service">ladspa.1433</property>
    <property name="kdenlive_id">ladspa.1433</property>
    <property name="tag">ladspa.1433</property>
    <property name="kdenlive_ix">2</property>
    <property name="kdenlive_info"/>
    <property name="disable"/>
    <property name="0">0.966</property>
    <property name="1">4</property>
    <property name="wetness">1</property>
   </filter>
  </entry>
  <blank length="540"/>
  <entry out="43312" in="43112" producer="2_playlist4">
   <filter id="filter642" out="43312" in="43112">
    <property name="window">75</property>
    <property name="max_gain">20dB</property>
    <property name="mlt_type">filter</property>
    <property name="mlt_service">volume</property>
    <property name="kdenlive_id">volume</property>
    <property name="tag">volume</property>
    <property name="kdenlive_ix">1</property>
    <property name="kdenlive_info"/>
    <property name="disable"/>
    <property name="gain">0.2</property>
    <property name="end">0.2</property>
   </filter>
   <filter id="filter643" out="43312" in="43237">
    <property name="window">75</property>
    <property name="max_gain">20dB</property>
    <property name="mlt_type">filter</property>
    <property name="mlt_service">volume</property>
    <property name="kdenlive_id">fadeout</property>
    <property name="tag">volume</property>
    <property name="kdenlive_ix">2</property>
    <property name="kdenlive_info"/>
    <property name="disable"/>
    <property name="gain">1</property>
    <property name="end">0</property>
   </filter>
   <filter id="filter644" out="43137" in="43112">
    <property name="window">75</property>
    <property name="max_gain">20dB</property>
    <property name="mlt_type">filter</property>
    <property name="mlt_service">volume</property>
    <property name="kdenlive_id">fadein</property>
    <property name="tag">volume</property>
    <property name="kdenlive_ix">3</property>
    <property name="kdenlive_info"/>
    <property name="disable"/>
    <property name="gain">0</property>
    <property name="end">1</property>
   </filter>
  </entry>
  <blank length="287"/>
  <entry out="46010" in="45909" producer="2_playlist4">
   <filter id="filter645" out="45929" in="45909">
    <property name="window">75</property>
    <property name="max_gain">20dB</property>
    <property name="mlt_type">filter</property>
    <property name="mlt_service">volume</property>
    <property name="kdenlive_id">volume</property>
    <property name="tag">volume</property>
    <property name="kdenlive_ix">1</property>
    <property name="kdenlive_info"/>
    <property name="disable"/>
    <property name="gain">0</property>
    <property name="end">0.5</property>
   </filter>
   <filter id="filter646" out="45991" in="45930">
    <property name="window">75</property>
    <property name="max_gain">20dB</property>
    <property name="mlt_type">filter</property>
    <property name="mlt_service">volume</property>
    <property name="kdenlive_id">volume</property>
    <property name="tag">volume</property>
    <property name="kdenlive_ix">1</property>
    <property name="kdenlive_info"/>
    <property name="disable"/>
    <property name="gain">0.5</property>
    <property name="end">0.5</property>
   </filter>
   <filter id="filter647" out="46010" in="45992">
    <property name="window">75</property>
    <property name="max_gain">20dB</property>
    <property name="mlt_type">filter</property>
    <property name="mlt_service">volume</property>
    <property name="kdenlive_id">volume</property>
    <property name="tag">volume</property>
    <property name="kdenlive_ix">1</property>
    <property name="kdenlive_info"/>
    <property name="disable"/>
    <property name="gain">0.473684</property>
    <property name="end">0</property>
   </filter>
   <filter id="crop">
    <property name="mlt_type">filter</property>
    <property name="mlt_service">crop</property>
    <property name="kdenlive_id">crop</property>
    <property name="tag">crop</property>
    <property name="kdenlive_ix">2</property>
    <property name="kdenlive_info"/>
    <property name="disable"/>
    <property name="top">0</property>
    <property name="left">0</property>
    <property name="bottom">320</property>
    <property name="right">569</property>
    <property name="center">0</property>
    <property name="center_bias">0</property>
    <property name="use_profile">1</property>
   </filter>
  </entry>
  <blank length="1326"/>
  <entry out="47684" in="47612" producer="2_playlist4">
   <filter id="filter648" out="47684" in="47612">
    <property name="window">75</property>
    <property name="max_gain">20dB</property>
    <property name="mlt_type">filter</property>
    <property name="mlt_service">volume</property>
    <property name="kdenlive_id">fadeout</property>
    <property name="tag">volume</property>
    <property name="kdenlive_ix">1</property>
    <property name="kdenlive_info"/>
    <property name="disable"/>
    <property name="gain">1</property>
    <property name="end">0</property>
   </filter>
   <filter id="filter649" out="47684" in="47612">
    <property name="window">75</property>
    <property name="max_gain">20dB</property>
    <property name="mlt_type">filter</property>
    <property name="mlt_service">volume</property>
    <property name="kdenlive_id">volume</property>
    <property name="tag">volume</property>
    <property name="kdenlive_ix">2</property>
    <property name="kdenlive_info"/>
    <property name="disable"/>
    <property name="gain">0.5</property>
    <property name="end">0.16</property>
   </filter>
  </entry>
  <blank length="4361"/>
  <entry out="73924" in="70646" producer="2_playlist4">
   <filter id="filter650" out="70721" in="70646">
    <property name="window">75</property>
    <property name="max_gain">20dB</property>
    <property name="mlt_type">filter</property>
    <property name="mlt_service">volume</property>
    <property name="kdenlive_id">fadein</property>
    <property name="tag">volume</property>
    <property name="kdenlive_ix">1</property>
    <property name="kdenlive_info"/>
    <property name="disable"/>
    <property name="gain">0</property>
    <property name="end">1</property>
   </filter>
  </entry>
  <blank length="546"/>
  <entry out="78179" in="78160" producer="2_playlist4">
   <filter id="filter651" out="78179" in="78160">
    <property name="window">75</property>
    <property name="max_gain">20dB</property>
    <property name="mlt_type">filter</property>
    <property name="mlt_service">volume</property>
    <property name="kdenlive_id">fadeout</property>
    <property name="tag">volume</property>
    <property name="kdenlive_ix">1</property>
    <property name="kdenlive_info"/>
    <property name="disable"/>
    <property name="gain">1</property>
    <property name="end">0</property>
   </filter>
  </entry>
  <blank length="2199"/>
  <entry out="35653" in="35618" producer="2_playlist4">
   <filter id="filter652" out="35653" in="35618">
    <property name="window">75</property>
    <property name="max_gain">20dB</property>
    <property name="mlt_type">filter</property>
    <property name="mlt_service">volume</property>
    <property name="kdenlive_id">fadeout</property>
    <property name="tag">volume</property>
    <property name="kdenlive_ix">1</property>
    <property name="kdenlive_info"/>
    <property name="disable"/>
    <property name="gain">1</property>
    <property name="end">0</property>
   </filter>
  </entry>
  <blank length="2876"/>
  <entry out="89986" in="89280" producer="2_playlist4">
   <filter id="filter653" out="89986" in="89857">
    <property name="window">75</property>
    <property name="max_gain">20dB</property>
    <property name="mlt_type">filter</property>
    <property name="mlt_service">volume</property>
    <property name="kdenlive_id">fadeout</property>
    <property name="tag">volume</property>
    <property name="kdenlive_ix">1</property>
    <property name="kdenlive_info"/>
    <property name="disable"/>
    <property name="gain">1</property>
    <property name="end">0</property>
   </filter>
  </entry>
  <blank length="245"/>
  <entry out="90825" in="90738" producer="2_playlist4">
   <filter id="filter654" out="90773" in="90738">
    <property name="window">75</property>
    <property name="max_gain">20dB</property>
    <property name="mlt_type">filter</property>
    <property name="mlt_service">volume</property>
    <property name="kdenlive_id">volume</property>
    <property name="tag">volume</property>
    <property name="kdenlive_ix">1</property>
    <property name="kdenlive_info"/>
    <property name="disable"/>
    <property name="gain">0.85</property>
    <property name="end">0.3</property>
   </filter>
   <filter id="filter655" out="90800" in="90774">
    <property name="window">75</property>
    <property name="max_gain">20dB</property>
    <property name="mlt_type">filter</property>
    <property name="mlt_service">volume</property>
    <property name="kdenlive_id">volume</property>
    <property name="tag">volume</property>
    <property name="kdenlive_ix">1</property>
    <property name="kdenlive_info"/>
    <property name="disable"/>
    <property name="gain">0.291481</property>
    <property name="end">0.07</property>
   </filter>
   <filter id="filter656" out="90825" in="90801">
    <property name="window">75</property>
    <property name="max_gain">20dB</property>
    <property name="mlt_type">filter</property>
    <property name="mlt_service">volume</property>
    <property name="kdenlive_id">volume</property>
    <property name="tag">volume</property>
    <property name="kdenlive_ix">1</property>
    <property name="kdenlive_info"/>
    <property name="disable"/>
    <property name="gain">0.0672</property>
    <property name="end">0</property>
   </filter>
  </entry>
  <blank length="2596"/>
  <entry out="97141" in="94506" producer="2_playlist4">
   <filter id="filter657" out="94560" in="94506">
    <property name="window">75</property>
    <property name="max_gain">20dB</property>
    <property name="mlt_type">filter</property>
    <property name="mlt_service">volume</property>
    <property name="kdenlive_id">fadein</property>
    <property name="tag">volume</property>
    <property name="kdenlive_ix">1</property>
    <property name="kdenlive_info"/>
    <property name="disable"/>
    <property name="gain">0</property>
    <property name="end">1</property>
   </filter>
  </entry>
  <blank length="2643"/>
  <entry out="101744" in="101493" producer="2_playlist4">
   <filter id="filter658" out="101744" in="101715">
    <property name="window">75</property>
    <property name="max_gain">20dB</property>
    <property name="mlt_type">filter</property>
    <property name="mlt_service">volume</property>
    <property name="kdenlive_id">fadeout</property>
    <property name="tag">volume</property>
    <property name="kdenlive_ix">1</property>
    <property name="kdenlive_info"/>
    <property name="disable"/>
    <property name="gain">1</property>
    <property name="end">0</property>
   </filter>
   <filter id="filter659" out="101497" in="101493">
    <property name="window">75</property>
    <property name="max_gain">20dB</property>
    <property name="mlt_type">filter</property>
    <property name="mlt_service">volume</property>
    <property name="kdenlive_id">fadein</property>
    <property name="tag">volume</property>
    <property name="kdenlive_ix">2</property>
    <property name="kdenlive_info"/>
    <property name="disable"/>
    <property name="gain">0</property>
    <property name="end">1</property>
   </filter>
  </entry>
  <blank length="51"/>
  <entry out="101895" in="101728" producer="2_playlist4">
   <filter id="filter660" out="101740" in="101728">
    <property name="window">75</property>
    <property name="max_gain">20dB</property>
    <property name="mlt_type">filter</property>
    <property name="mlt_service">volume</property>
    <property name="kdenlive_id">fadein</property>
    <property name="tag">volume</property>
    <property name="kdenlive_ix">1</property>
    <property name="kdenlive_info"/>
    <property name="disable"/>
    <property name="gain">0</property>
    <property name="end">1</property>
   </filter>
   <filter id="filter661" out="101896" in="101884">
    <property name="window">75</property>
    <property name="max_gain">20dB</property>
    <property name="mlt_type">filter</property>
    <property name="mlt_service">volume</property>
    <property name="kdenlive_id">fadeout</property>
    <property name="tag">volume</property>
    <property name="kdenlive_ix">2</property>
    <property name="kdenlive_info"/>
    <property name="disable"/>
    <property name="gain">1</property>
    <property name="end">0</property>
   </filter>
  </entry>
  <blank length="1705"/>
  <entry out="103761" in="103722" producer="2_playlist4_audio">
   <filter id="filter662" out="103761" in="103728">
    <property name="window">75</property>
    <property name="max_gain">20dB</property>
    <property name="mlt_type">filter</property>
    <property name="mlt_service">volume</property>
    <property name="kdenlive_id">fadeout</property>
    <property name="tag">volume</property>
    <property name="kdenlive_ix">1</property>
    <property name="kdenlive_info"/>
    <property name="disable"/>
    <property name="gain">1</property>
    <property name="end">0</property>
   </filter>
  </entry>
  <blank length="689"/>
  <entry out="105163" in="105133" producer="2_playlist4">
   <filter id="filter663" out="105163" in="105148">
    <property name="window">75</property>
    <property name="max_gain">20dB</property>
    <property name="mlt_type">filter</property>
    <property name="mlt_service">volume</property>
    <property name="kdenlive_id">fadeout</property>
    <property name="tag">volume</property>
    <property name="kdenlive_ix">1</property>
    <property name="kdenlive_info"/>
    <property name="disable"/>
    <property name="gain">1</property>
    <property name="end">0</property>
   </filter>
  </entry>
  <blank length="58"/>
  <entry out="105598" in="105502" producer="2_playlist4">
   <filter id="filter664" out="105598" in="105523">
    <property name="window">75</property>
    <property name="max_gain">20dB</property>
    <property name="mlt_type">filter</property>
    <property name="mlt_service">volume</property>
    <property name="kdenlive_id">fadeout</property>
    <property name="tag">volume</property>
    <property name="kdenlive_ix">1</property>
    <property name="kdenlive_info"/>
    <property name="disable"/>
    <property name="gain">1</property>
    <property name="end">0</property>
   </filter>
  </entry>
  <blank length="2460"/>
  <entry out="109556" in="109541" producer="2_playlist4">
   <filter id="filter665" out="109549" in="109541">
    <property name="window">75</property>
    <property name="max_gain">20dB</property>
    <property name="mlt_type">filter</property>
    <property name="mlt_service">volume</property>
    <property name="kdenlive_id">fadein</property>
    <property name="tag">volume</property>
    <property name="kdenlive_ix">1</property>
    <property name="kdenlive_info"/>
    <property name="disable"/>
    <property name="gain">0</property>
    <property name="end">1</property>
   </filter>
  </entry>
  <blank length="930"/>
  <entry out="113524" in="113326" producer="2_playlist4"/>
  <blank length="805"/>
  <entry out="114946" in="114935" producer="2_playlist4">
   <filter id="filter666" out="114946" in="114935">
    <property name="window">75</property>
    <property name="max_gain">20dB</property>
    <property name="mlt_type">filter</property>
    <property name="mlt_service">volume</property>
    <property name="kdenlive_id">volume</property>
    <property name="tag">volume</property>
    <property name="kdenlive_ix">1</property>
    <property name="kdenlive_info"/>
    <property name="disable"/>
    <property name="gain">0.5</property>
    <property name="end">0.25</property>
   </filter>
  </entry>
  <blank length="3238"/>
  <entry out="122284" in="122256" producer="2_playlist4"/>
  <blank length="2577"/>
  <entry out="129893" in="129887" producer="2_playlist4">
   <filter id="filter667" out="129894" in="129887">
    <property name="window">75</property>
    <property name="max_gain">20dB</property>
    <property name="mlt_type">filter</property>
    <property name="mlt_service">volume</property>
    <property name="kdenlive_id">fadein</property>
    <property name="tag">volume</property>
    <property name="kdenlive_ix">1</property>
    <property name="kdenlive_info"/>
    <property name="disable"/>
    <property name="gain">0</property>
    <property name="end">1</property>
   </filter>
  </entry>
  <entry out="127417" in="127324" producer="2_playlist4">
   <filter id="filter668" out="127417" in="127336">
    <property name="window">75</property>
    <property name="max_gain">20dB</property>
    <property name="mlt_type">filter</property>
    <property name="mlt_service">volume</property>
    <property name="kdenlive_id">fadeout</property>
    <property name="tag">volume</property>
    <property name="kdenlive_ix">1</property>
    <property name="kdenlive_info"/>
    <property name="disable"/>
    <property name="gain">1</property>
    <property name="end">0</property>
   </filter>
  </entry>
  <blank length="1263"/>
  <entry out="131306" in="131251" producer="2_playlist4">
   <filter id="filter669" out="131306" in="131225">
    <property name="window">75</property>
    <property name="max_gain">20dB</property>
    <property name="mlt_type">filter</property>
    <property name="mlt_service">volume</property>
    <property name="kdenlive_id">fadeout</property>
    <property name="tag">volume</property>
    <property name="kdenlive_ix">1</property>
    <property name="kdenlive_info"/>
    <property name="disable"/>
    <property name="gain">1</property>
    <property name="end">0</property>
   </filter>
  </entry>
  <blank length="423"/>
  <entry out="132160" in="132147" producer="2_playlist4">
   <filter id="filter670" out="132156" in="132147">
    <property name="window">75</property>
    <property name="max_gain">20dB</property>
    <property name="mlt_type">filter</property>
    <property name="mlt_service">volume</property>
    <property name="kdenlive_id">volume</property>
    <property name="tag">volume</property>
    <property name="kdenlive_ix">1</property>
    <property name="kdenlive_info"/>
    <property name="disable"/>
    <property name="gain">1</property>
    <property name="end">0.6</property>
   </filter>
   <filter id="filter671" out="132161" in="132157">
    <property name="window">75</property>
    <property name="max_gain">20dB</property>
    <property name="mlt_type">filter</property>
    <property name="mlt_service">volume</property>
    <property name="kdenlive_id">volume</property>
    <property name="tag">volume</property>
    <property name="kdenlive_ix">1</property>
    <property name="kdenlive_info"/>
    <property name="disable"/>
    <property name="gain">0.48</property>
    <property name="end">0</property>
   </filter>
  </entry>
  <blank length="117"/>
  <entry out="135010" in="134998" producer="2_playlist4">
   <filter id="filter672" out="135006" in="134998">
    <property name="window">75</property>
    <property name="max_gain">20dB</property>
    <property name="mlt_type">filter</property>
    <property name="mlt_service">volume</property>
    <property name="kdenlive_id">volume</property>
    <property name="tag">volume</property>
    <property name="kdenlive_ix">1</property>
    <property name="kdenlive_info"/>
    <property name="disable"/>
    <property name="gain">0.46</property>
    <property name="end">1</property>
   </filter>
   <filter id="filter673" out="135010" in="135007">
    <property name="window">75</property>
    <property name="max_gain">20dB</property>
    <property name="mlt_type">filter</property>
    <property name="mlt_service">volume</property>
    <property name="kdenlive_id">volume</property>
    <property name="tag">volume</property>
    <property name="kdenlive_ix">1</property>
    <property name="kdenlive_info"/>
    <property name="disable"/>
    <property name="gain">1</property>
    <property name="end">1</property>
   </filter>
  </entry>
  <blank length="718"/>
  <entry out="138090" in="138029" producer="2_playlist4">
   <filter id="filter674" out="138059" in="138029">
    <property name="window">75</property>
    <property name="max_gain">20dB</property>
    <property name="mlt_type">filter</property>
    <property name="mlt_service">volume</property>
    <property name="kdenlive_id">volume</property>
    <property name="tag">volume</property>
    <property name="kdenlive_ix">1</property>
    <property name="kdenlive_info"/>
    <property name="disable"/>
    <property name="gain">0</property>
    <property name="end">0.4</property>
   </filter>
   <filter id="filter675" out="138088" in="138060">
    <property name="window">75</property>
    <property name="max_gain">20dB</property>
    <property name="mlt_type">filter</property>
    <property name="mlt_service">volume</property>
    <property name="kdenlive_id">volume</property>
    <property name="tag">volume</property>
    <property name="kdenlive_ix">1</property>
    <property name="kdenlive_info"/>
    <property name="disable"/>
    <property name="gain">0.4</property>
    <property name="end">0.4</property>
   </filter>
   <filter id="filter676" out="138090" in="138089">
    <property name="window">75</property>
    <property name="max_gain">20dB</property>
    <property name="mlt_type">filter</property>
    <property name="mlt_service">volume</property>
    <property name="kdenlive_id">volume</property>
    <property name="tag">volume</property>
    <property name="kdenlive_ix">1</property>
    <property name="kdenlive_info"/>
    <property name="disable"/>
    <property name="gain">0.2</property>
    <property name="end">0</property>
   </filter>
   <filter id="filter677" out="103738" in="103735">
    <property name="window">75</property>
    <property name="max_gain">20dB</property>
    <property name="mlt_type">filter</property>
    <property name="mlt_service">volume</property>
    <property name="kdenlive_id">fadeout</property>
    <property name="tag">volume</property>
    <property name="kdenlive_ix">2</property>
    <property name="kdenlive_info"/>
    <property name="disable"/>
    <property name="gain">1</property>
    <property name="end">0</property>
   </filter>
   <filter id="filter678" in="138029">
    <property name="channel">-1</property>
    <property name="mlt_type">filter</property>
    <property name="mlt_service">panner</property>
    <property name="kdenlive_id">audiobalance</property>
    <property name="tag">panner</property>
    <property name="kdenlive_ix">3</property>
    <property name="kdenlive_info"/>
    <property name="disable"/>
    <property name="start">0.8</property>
   </filter>
  </entry>
  <blank length="522"/>
  <entry out="136319" in="136313" producer="2_playlist4">
   <filter id="filter679" in="136313">
    <property name="window">75</property>
    <property name="max_gain">20dB</property>
    <property name="mlt_type">filter</property>
    <property name="mlt_service">volume</property>
    <property name="kdenlive_id">volume</property>
    <property name="tag">volume</property>
    <property name="kdenlive_ix">1</property>
    <property name="kdenlive_info"/>
    <property name="disable"/>
    <property name="gain">1</property>
   </filter>
   <filter id="filter680" out="103738" in="103735">
    <property name="window">75</property>
    <property name="max_gain">20dB</property>
    <property name="mlt_type">filter</property>
    <property name="mlt_service">volume</property>
    <property name="kdenlive_id">fadeout</property>
    <property name="tag">volume</property>
    <property name="kdenlive_ix">2</property>
    <property name="kdenlive_info"/>
    <property name="disable"/>
    <property name="gain">1</property>
    <property name="end">0</property>
   </filter>
  </entry>
  <blank length="81"/>
  <entry out="139500" in="139492" producer="2_playlist4">
   <filter id="filter681" out="139500" in="139492">
    <property name="window">75</property>
    <property name="max_gain">20dB</property>
    <property name="mlt_type">filter</property>
    <property name="mlt_service">volume</property>
    <property name="kdenlive_id">fadeout</property>
    <property name="tag">volume</property>
    <property name="kdenlive_ix">1</property>
    <property name="kdenlive_info"/>
    <property name="disable">0</property>
    <property name="gain">1</property>
    <property name="end">0</property>
   </filter>
  </entry>
  <blank length="32"/>
  <entry out="140078" in="140052" producer="2_playlist4">
   <filter id="filter682" in="140052">
    <property name="window">75</property>
    <property name="max_gain">20dB</property>
    <property name="mlt_type">filter</property>
    <property name="mlt_service">volume</property>
    <property name="kdenlive_id">volume</property>
    <property name="tag">volume</property>
    <property name="kdenlive_ix">1</property>
    <property name="kdenlive_info"/>
    <property name="disable"/>
    <property name="gain">1</property>
   </filter>
   <filter id="filter683" out="140055" in="140052">
    <property name="window">75</property>
    <property name="max_gain">20dB</property>
    <property name="mlt_type">filter</property>
    <property name="mlt_service">volume</property>
    <property name="kdenlive_id">fadein</property>
    <property name="tag">volume</property>
    <property name="kdenlive_ix">2</property>
    <property name="kdenlive_info"/>
    <property name="disable"/>
    <property name="gain">0</property>
    <property name="end">1</property>
   </filter>
   <filter id="filter684" out="140078" in="140075">
    <property name="window">75</property>
    <property name="max_gain">20dB</property>
    <property name="mlt_type">filter</property>
    <property name="mlt_service">volume</property>
    <property name="kdenlive_id">fadeout</property>
    <property name="tag">volume</property>
    <property name="kdenlive_ix">3</property>
    <property name="kdenlive_info"/>
    <property name="disable">1</property>
    <property name="gain">1</property>
    <property name="end">0</property>
   </filter>
  </entry>
  <blank length="329"/>
  <entry out="140193" in="140183" producer="2_playlist4">
   <filter id="filter685" out="140193" in="140183">
    <property name="window">75</property>
    <property name="max_gain">20dB</property>
    <property name="mlt_type">filter</property>
    <property name="mlt_service">volume</property>
    <property name="kdenlive_id">fadeout</property>
    <property name="tag">volume</property>
    <property name="kdenlive_ix">1</property>
    <property name="kdenlive_info"/>
    <property name="disable"/>
    <property name="gain">1</property>
    <property name="end">0</property>
   </filter>
   <filter id="filter686">
    <property name="window">75</property>
    <property name="max_gain">20dB</property>
    <property name="mlt_type">filter</property>
    <property name="mlt_service">volume</property>
    <property name="kdenlive_id">mute</property>
    <property name="tag">volume</property>
    <property name="kdenlive_ix">2</property>
    <property name="kdenlive_info"/>
    <property name="disable"/>
    <property name="gain">0</property>
   </filter>
  </entry>
  <blank length="26"/>
  <entry out="141605" in="141530" producer="2_playlist4">
   <filter id="filter687" out="141605" in="141530">
    <property name="window">75</property>
    <property name="max_gain">20dB</property>
    <property name="mlt_type">filter</property>
    <property name="mlt_service">volume</property>
    <property name="kdenlive_id">volume</property>
    <property name="tag">volume</property>
    <property name="kdenlive_ix">1</property>
    <property name="kdenlive_info"/>
    <property name="disable"/>
    <property name="gain">1</property>
    <property name="end">1</property>
   </filter>
  </entry>
  <blank length="1469"/>
  <entry out="143435" in="143394" producer="2_playlist4">
   <filter id="filter688" out="143430" in="143394">
    <property name="window">75</property>
    <property name="max_gain">20dB</property>
    <property name="mlt_type">filter</property>
    <property name="mlt_service">volume</property>
    <property name="kdenlive_id">fadein</property>
    <property name="tag">volume</property>
    <property name="kdenlive_ix">1</property>
    <property name="kdenlive_info"/>
    <property name="disable"/>
    <property name="gain">0</property>
    <property name="end">1</property>
   </filter>
  </entry>
  <entry out="143148" in="143117" producer="2_playlist4">
   <filter id="filter689" out="143148" in="143117">
    <property name="window">75</property>
    <property name="max_gain">20dB</property>
    <property name="mlt_type">filter</property>
    <property name="mlt_service">volume</property>
    <property name="kdenlive_id">fadeout</property>
    <property name="tag">volume</property>
    <property name="kdenlive_ix">1</property>
    <property name="kdenlive_info"/>
    <property name="disable"/>
    <property name="gain">1</property>
    <property name="end">0</property>
   </filter>
  </entry>
  <blank length="229"/>
  <entry out="146431" in="146255" producer="2_playlist4">
   <filter id="filter690" out="146431" in="146365">
    <property name="window">75</property>
    <property name="max_gain">20dB</property>
    <property name="mlt_type">filter</property>
    <property name="mlt_service">volume</property>
    <property name="kdenlive_id">fadeout</property>
    <property name="tag">volume</property>
    <property name="kdenlive_ix">1</property>
    <property name="kdenlive_info"/>
    <property name="disable"/>
    <property name="gain">1</property>
    <property name="end">0</property>
   </filter>
   <filter id="filter691" out="146260" in="146255">
    <property name="window">75</property>
    <property name="max_gain">20dB</property>
    <property name="mlt_type">filter</property>
    <property name="mlt_service">volume</property>
    <property name="kdenlive_id">fadein</property>
    <property name="tag">volume</property>
    <property name="kdenlive_ix">2</property>
    <property name="kdenlive_info"/>
    <property name="disable"/>
    <property name="gain">0</property>
    <property name="end">1</property>
   </filter>
  </entry>
  <blank length="29"/>
  <entry out="143450" in="143426" producer="2_playlist4">
   <filter id="filter692" out="143450" in="143426">
    <property name="window">75</property>
    <property name="max_gain">20dB</property>
    <property name="mlt_type">filter</property>
    <property name="mlt_service">volume</property>
    <property name="kdenlive_id">volume</property>
    <property name="tag">volume</property>
    <property name="kdenlive_ix">1</property>
    <property name="kdenlive_info"/>
    <property name="disable"/>
    <property name="gain">1</property>
    <property name="end">0</property>
   </filter>
  </entry>
  <blank length="384"/>
  <entry out="148361" in="148332" producer="2_playlist4">
   <filter id="filter693" out="148361" in="148332">
    <property name="window">75</property>
    <property name="max_gain">20dB</property>
    <property name="mlt_type">filter</property>
    <property name="mlt_service">volume</property>
    <property name="kdenlive_id">fadeout</property>
    <property name="tag">volume</property>
    <property name="kdenlive_ix">1</property>
    <property name="kdenlive_info"/>
    <property name="disable"/>
    <property name="gain">1</property>
    <property name="end">0</property>
   </filter>
   <filter id="filter694" out="148348" in="148332">
    <property name="window">75</property>
    <property name="max_gain">20dB</property>
    <property name="mlt_type">filter</property>
    <property name="mlt_service">volume</property>
    <property name="kdenlive_id">volume</property>
    <property name="tag">volume</property>
    <property name="kdenlive_ix">2</property>
    <property name="kdenlive_info"/>
    <property name="disable"/>
    <property name="gain">1</property>
    <property name="end">1</property>
   </filter>
   <filter id="filter695" out="148350" in="148349">
    <property name="window">75</property>
    <property name="max_gain">20dB</property>
    <property name="mlt_type">filter</property>
    <property name="mlt_service">volume</property>
    <property name="kdenlive_id">volume</property>
    <property name="tag">volume</property>
    <property name="kdenlive_ix">2</property>
    <property name="kdenlive_info"/>
    <property name="disable"/>
    <property name="gain">0.5</property>
    <property name="end">0</property>
   </filter>
   <filter id="filter696" out="148361" in="148351">
    <property name="window">75</property>
    <property name="max_gain">20dB</property>
    <property name="mlt_type">filter</property>
    <property name="mlt_service">volume</property>
    <property name="kdenlive_id">volume</property>
    <property name="tag">volume</property>
    <property name="kdenlive_ix">2</property>
    <property name="kdenlive_info"/>
    <property name="disable"/>
    <property name="gain">0</property>
    <property name="end">0</property>
   </filter>
  </entry>
  <blank length="638"/>
  <entry out="145152" in="145145" producer="2_playlist4">
   <filter id="filter697" out="145152" in="145145">
    <property name="window">75</property>
    <property name="max_gain">20dB</property>
    <property name="mlt_type">filter</property>
    <property name="mlt_service">volume</property>
    <property name="kdenlive_id">fadein</property>
    <property name="tag">volume</property>
    <property name="kdenlive_ix">1</property>
    <property name="kdenlive_info"/>
    <property name="disable"/>
    <property name="gain">0</property>
    <property name="end">1</property>
   </filter>
  </entry>
  <entry out="145046" in="145021" producer="2_playlist4">
   <filter id="filter698" out="145046" in="145021">
    <property name="window">75</property>
    <property name="max_gain">20dB</property>
    <property name="mlt_type">filter</property>
    <property name="mlt_service">volume</property>
    <property name="kdenlive_id">fadeout</property>
    <property name="tag">volume</property>
    <property name="kdenlive_ix">1</property>
    <property name="kdenlive_info"/>
    <property name="disable"/>
    <property name="gain">1</property>
    <property name="end">0</property>
   </filter>
  </entry>
  <blank length="53"/>
  <entry out="147026" in="147010" producer="2_playlist4">
   <filter id="filter699" out="147026" in="147010">
    <property name="window">75</property>
    <property name="max_gain">20dB</property>
    <property name="mlt_type">filter</property>
    <property name="mlt_service">volume</property>
    <property name="kdenlive_id">fadein</property>
    <property name="tag">volume</property>
    <property name="kdenlive_ix">1</property>
    <property name="kdenlive_info"/>
    <property name="disable"/>
    <property name="gain">0</property>
    <property name="end">1</property>
   </filter>
  </entry>
  <entry out="145274" in="145249" producer="2_playlist4">
   <filter id="filter700" out="145274" in="145249">
    <property name="window">75</property>
    <property name="max_gain">20dB</property>
    <property name="mlt_type">filter</property>
    <property name="mlt_service">volume</property>
    <property name="kdenlive_id">fadeout</property>
    <property name="tag">volume</property>
    <property name="kdenlive_ix">1</property>
    <property name="kdenlive_info"/>
    <property name="disable"/>
    <property name="gain">1</property>
    <property name="end">0</property>
   </filter>
  </entry>
  <blank length="175"/>
  <entry out="147163" in="147132" producer="2_playlist4">
   <filter id="filter701" out="147148" in="147132">
    <property name="window">75</property>
    <property name="max_gain">20dB</property>
    <property name="mlt_type">filter</property>
    <property name="mlt_service">volume</property>
    <property name="kdenlive_id">fadein</property>
    <property name="tag">volume</property>
    <property name="kdenlive_ix">1</property>
    <property name="kdenlive_info"/>
    <property name="disable"/>
    <property name="gain">0</property>
    <property name="end">1</property>
   </filter>
  </entry>
  <blank length="44"/>
  <entry out="149960" in="149940" producer="2_playlist4">
   <filter id="filter702" out="149960" in="149940">
    <property name="window">75</property>
    <property name="max_gain">20dB</property>
    <property name="mlt_type">filter</property>
    <property name="mlt_service">volume</property>
    <property name="kdenlive_id">volume</property>
    <property name="tag">volume</property>
    <property name="kdenlive_ix">1</property>
    <property name="kdenlive_info"/>
    <property name="disable"/>
    <property name="gain">0</property>
    <property name="end">1</property>
   </filter>
  </entry>
  <entry out="149928" in="149903" producer="2_playlist4">
   <filter id="filter703" out="149928" in="149903">
    <property name="window">75</property>
    <property name="max_gain">20dB</property>
    <property name="mlt_type">filter</property>
    <property name="mlt_service">volume</property>
    <property name="kdenlive_id">volume</property>
    <property name="tag">volume</property>
    <property name="kdenlive_ix">1</property>
    <property name="kdenlive_info"/>
    <property name="disable"/>
    <property name="gain">1</property>
    <property name="end">0</property>
   </filter>
  </entry>
  <blank length="126"/>
  <entry out="150173" in="150150" producer="2_playlist4">
   <filter id="filter704" out="150164" in="150150">
    <property name="window">75</property>
    <property name="max_gain">20dB</property>
    <property name="mlt_type">filter</property>
    <property name="mlt_service">volume</property>
    <property name="kdenlive_id">volume</property>
    <property name="tag">volume</property>
    <property name="kdenlive_ix">1</property>
    <property name="kdenlive_info"/>
    <property name="disable"/>
    <property name="gain">0.2</property>
    <property name="end">0.2</property>
   </filter>
   <filter id="filter705" out="150173" in="150165">
    <property name="window">75</property>
    <property name="max_gain">20dB</property>
    <property name="mlt_type">filter</property>
    <property name="mlt_service">volume</property>
    <property name="kdenlive_id">volume</property>
    <property name="tag">volume</property>
    <property name="kdenlive_ix">1</property>
    <property name="kdenlive_info"/>
    <property name="disable"/>
    <property name="gain">0.288889</property>
    <property name="end">1</property>
   </filter>
  </entry>
  <entry out="150149" in="150137" producer="2_playlist4">
   <filter id="filter706" out="150141" in="150137">
    <property name="window">75</property>
    <property name="max_gain">20dB</property>
    <property name="mlt_type">filter</property>
    <property name="mlt_service">volume</property>
    <property name="kdenlive_id">volume</property>
    <property name="tag">volume</property>
    <property name="kdenlive_ix">1</property>
    <property name="kdenlive_info"/>
    <property name="disable"/>
    <property name="gain">1</property>
    <property name="end">1</property>
   </filter>
   <filter id="filter707" out="150145" in="150142">
    <property name="window">75</property>
    <property name="max_gain">20dB</property>
    <property name="mlt_type">filter</property>
    <property name="mlt_service">volume</property>
    <property name="kdenlive_id">volume</property>
    <property name="tag">volume</property>
    <property name="kdenlive_ix">1</property>
    <property name="kdenlive_info"/>
    <property name="disable"/>
    <property name="gain">0.8</property>
    <property name="end">0.2</property>
   </filter>
   <filter id="filter708" out="150149" in="150146">
    <property name="window">75</property>
    <property name="max_gain">20dB</property>
    <property name="mlt_type">filter</property>
    <property name="mlt_service">volume</property>
    <property name="kdenlive_id">volume</property>
    <property name="tag">volume</property>
    <property name="kdenlive_ix">1</property>
    <property name="kdenlive_info"/>
    <property name="disable"/>
    <property name="gain">0.2</property>
    <property name="end">0.2</property>
   </filter>
  </entry>
  <blank length="57"/>
  <entry out="150531" in="150503" producer="2_playlist4">
   <filter id="filter709" out="150532" in="150508">
    <property name="window">75</property>
    <property name="max_gain">20dB</property>
    <property name="mlt_type">filter</property>
    <property name="mlt_service">volume</property>
    <property name="kdenlive_id">fadeout</property>
    <property name="tag">volume</property>
    <property name="kdenlive_ix">1</property>
    <property name="kdenlive_info"/>
    <property name="disable"/>
    <property name="gain">1</property>
    <property name="end">0</property>
   </filter>
   <filter id="filter710" out="150517" in="150503">
    <property name="window">75</property>
    <property name="max_gain">20dB</property>
    <property name="mlt_type">filter</property>
    <property name="mlt_service">volume</property>
    <property name="kdenlive_id">fadein</property>
    <property name="tag">volume</property>
    <property name="kdenlive_ix">2</property>
    <property name="kdenlive_info"/>
    <property name="disable"/>
    <property name="gain">0</property>
    <property name="end">1</property>
   </filter>
  </entry>
  <entry out="150286" in="150273" producer="2_playlist4">
   <filter id="filter711" out="150286" in="150282">
    <property name="window">75</property>
    <property name="max_gain">20dB</property>
    <property name="mlt_type">filter</property>
    <property name="mlt_service">volume</property>
    <property name="kdenlive_id">fadeout</property>
    <property name="tag">volume</property>
    <property name="kdenlive_ix">1</property>
    <property name="kdenlive_info"/>
    <property name="disable"/>
    <property name="gain">1</property>
    <property name="end">0</property>
   </filter>
  </entry>
  <blank length="6"/>
  <entry out="150614" in="150580" producer="2_playlist4">
   <filter id="filter712" out="150614" in="150608">
    <property name="window">75</property>
    <property name="max_gain">20dB</property>
    <property name="mlt_type">filter</property>
    <property name="mlt_service">volume</property>
    <property name="kdenlive_id">fadeout</property>
    <property name="tag">volume</property>
    <property name="kdenlive_ix">1</property>
    <property name="kdenlive_info"/>
    <property name="disable"/>
    <property name="gain">1</property>
    <property name="end">0</property>
   </filter>
  </entry>
  <blank length="90"/>
  <entry out="151235" in="151219" producer="2_playlist4">
   <filter id="filter713" out="151235" in="151219">
    <property name="window">75</property>
    <property name="max_gain">20dB</property>
    <property name="mlt_type">filter</property>
    <property name="mlt_service">volume</property>
    <property name="kdenlive_id">fadein</property>
    <property name="tag">volume</property>
    <property name="kdenlive_ix">1</property>
    <property name="kdenlive_info"/>
    <property name="disable"/>
    <property name="gain">0</property>
    <property name="end">1</property>
   </filter>
  </entry>
  <entry out="151165" in="151150" producer="2_playlist4">
   <filter id="filter714" out="151165" in="151150">
    <property name="window">75</property>
    <property name="max_gain">20dB</property>
    <property name="mlt_type">filter</property>
    <property name="mlt_service">volume</property>
    <property name="kdenlive_id">fadeout</property>
    <property name="tag">volume</property>
    <property name="kdenlive_ix">1</property>
    <property name="kdenlive_info"/>
    <property name="disable"/>
    <property name="gain">1</property>
    <property name="end">0</property>
   </filter>
  </entry>
  <blank length="95"/>
  <entry out="152417" in="152392" producer="2_playlist4">
   <filter id="filter715" out="152406" in="152392">
    <property name="window">75</property>
    <property name="max_gain">20dB</property>
    <property name="mlt_type">filter</property>
    <property name="mlt_service">volume</property>
    <property name="kdenlive_id">fadein</property>
    <property name="tag">volume</property>
    <property name="kdenlive_ix">1</property>
    <property name="kdenlive_info"/>
    <property name="disable"/>
    <property name="gain">0</property>
    <property name="end">1</property>
   </filter>
   <filter id="filter716" in="152392">
    <property name="window">75</property>
    <property name="max_gain">20dB</property>
    <property name="mlt_type">filter</property>
    <property name="mlt_service">volume</property>
    <property name="kdenlive_id">volume</property>
    <property name="tag">volume</property>
    <property name="kdenlive_ix">2</property>
    <property name="kdenlive_info"/>
    <property name="disable"/>
    <property name="gain">0</property>
   </filter>
  </entry>
  <blank length="183"/>
  <entry out="152619" in="152601" producer="2_playlist4">
   <filter id="filter717" out="152619" in="152605">
    <property name="window">75</property>
    <property name="max_gain">20dB</property>
    <property name="mlt_type">filter</property>
    <property name="mlt_service">volume</property>
    <property name="kdenlive_id">fadeout</property>
    <property name="tag">volume</property>
    <property name="kdenlive_ix">1</property>
    <property name="kdenlive_info"/>
    <property name="disable"/>
    <property name="gain">1</property>
    <property name="end">0</property>
   </filter>
  </entry>
  <blank length="86"/>
  <entry out="152861" in="152816" producer="2_playlist4">
   <filter id="filter718" out="152861" in="152845">
    <property name="window">75</property>
    <property name="max_gain">20dB</property>
    <property name="mlt_type">filter</property>
    <property name="mlt_service">volume</property>
    <property name="kdenlive_id">fadeout</property>
    <property name="tag">volume</property>
    <property name="kdenlive_ix">1</property>
    <property name="kdenlive_info"/>
    <property name="disable"/>
    <property name="gain">1</property>
    <property name="end">0</property>
   </filter>
  </entry>
  <blank length="157"/>
  <entry out="154322" in="154303" producer="2_playlist4">
   <filter id="filter719" out="154322" in="154303">
    <property name="window">75</property>
    <property name="max_gain">20dB</property>
    <property name="mlt_type">filter</property>
    <property name="mlt_service">volume</property>
    <property name="kdenlive_id">fadein</property>
    <property name="tag">volume</property>
    <property name="kdenlive_ix">1</property>
    <property name="kdenlive_info"/>
    <property name="disable"/>
    <property name="gain">0</property>
    <property name="end">1</property>
   </filter>
  </entry>
  <entry out="153816" in="153804" producer="2_playlist4"/>
  <blank length="734"/>
  <entry out="155179" in="155157" producer="2_playlist4">
   <filter id="filter720" out="155179" in="155157">
    <property name="window">75</property>
    <property name="max_gain">20dB</property>
    <property name="mlt_type">filter</property>
    <property name="mlt_service">volume</property>
    <property name="kdenlive_id">fadein</property>
    <property name="tag">volume</property>
    <property name="kdenlive_ix">1</property>
    <property name="kdenlive_info"/>
    <property name="disable"/>
    <property name="gain">0</property>
    <property name="end">1</property>
   </filter>
  </entry>
  <entry out="155123" in="155093" producer="2_playlist4">
   <filter id="filter721" out="155123" in="155093">
    <property name="window">75</property>
    <property name="max_gain">20dB</property>
    <property name="mlt_type">filter</property>
    <property name="mlt_service">volume</property>
    <property name="kdenlive_id">fadeout</property>
    <property name="tag">volume</property>
    <property name="kdenlive_ix">1</property>
    <property name="kdenlive_info"/>
    <property name="disable"/>
    <property name="gain">1</property>
    <property name="end">0</property>
   </filter>
  </entry>
  <blank length="260"/>
  <entry out="155649" in="155641" producer="2_playlist4">
   <filter id="filter722" out="155649" in="155641">
    <property name="window">75</property>
    <property name="max_gain">20dB</property>
    <property name="mlt_type">filter</property>
    <property name="mlt_service">volume</property>
    <property name="kdenlive_id">fadein</property>
    <property name="tag">volume</property>
    <property name="kdenlive_ix">1</property>
    <property name="kdenlive_info"/>
    <property name="disable"/>
    <property name="gain">0</property>
    <property name="end">1</property>
   </filter>
  </entry>
  <entry out="155753" in="155650" producer="2_playlist4">
   <filter id="filter723" out="155664" in="155650">
    <property name="window">75</property>
    <property name="max_gain">20dB</property>
    <property name="mlt_type">filter</property>
    <property name="mlt_service">volume</property>
    <property name="kdenlive_id">volume</property>
    <property name="tag">volume</property>
    <property name="kdenlive_ix">1</property>
    <property name="kdenlive_info"/>
    <property name="disable"/>
    <property name="gain">1</property>
    <property name="end">1</property>
   </filter>
   <filter id="filter724" out="155670" in="155665">
    <property name="window">75</property>
    <property name="max_gain">20dB</property>
    <property name="mlt_type">filter</property>
    <property name="mlt_service">volume</property>
    <property name="kdenlive_id">volume</property>
    <property name="tag">volume</property>
    <property name="kdenlive_ix">1</property>
    <property name="kdenlive_info"/>
    <property name="disable"/>
    <property name="gain">0.833333</property>
    <property name="end">0</property>
   </filter>
   <filter id="filter725" out="155679" in="155671">
    <property name="window">75</property>
    <property name="max_gain">20dB</property>
    <property name="mlt_type">filter</property>
    <property name="mlt_service">volume</property>
    <property name="kdenlive_id">volume</property>
    <property name="tag">volume</property>
    <property name="kdenlive_ix">1</property>
    <property name="kdenlive_info"/>
    <property name="disable"/>
    <property name="gain">0</property>
    <property name="end">0</property>
   </filter>
   <filter id="filter726" out="155690" in="155680">
    <property name="window">75</property>
    <property name="max_gain">20dB</property>
    <property name="mlt_type">filter</property>
    <property name="mlt_service">volume</property>
    <property name="kdenlive_id">volume</property>
    <property name="tag">volume</property>
    <property name="kdenlive_ix">1</property>
    <property name="kdenlive_info"/>
    <property name="disable"/>
    <property name="gain">0</property>
    <property name="end">0</property>
   </filter>
   <filter id="filter727" out="155728" in="155691">
    <property name="window">75</property>
    <property name="max_gain">20dB</property>
    <property name="mlt_type">filter</property>
    <property name="mlt_service">volume</property>
    <property name="kdenlive_id">volume</property>
    <property name="tag">volume</property>
    <property name="kdenlive_ix">1</property>
    <property name="kdenlive_info"/>
    <property name="disable"/>
    <property name="gain">0</property>
    <property name="end">0</property>
   </filter>
   <filter id="filter728" out="155745" in="155729">
    <property name="window">75</property>
    <property name="max_gain">20dB</property>
    <property name="mlt_type">filter</property>
    <property name="mlt_service">volume</property>
    <property name="kdenlive_id">volume</property>
    <property name="tag">volume</property>
    <property name="kdenlive_ix">1</property>
    <property name="kdenlive_info"/>
    <property name="disable"/>
    <property name="gain">0</property>
    <property name="end">0</property>
   </filter>
   <filter id="filter729" out="155753" in="155746">
    <property name="window">75</property>
    <property name="max_gain">20dB</property>
    <property name="mlt_type">filter</property>
    <property name="mlt_service">volume</property>
    <property name="kdenlive_id">volume</property>
    <property name="tag">volume</property>
    <property name="kdenlive_ix">1</property>
    <property name="kdenlive_info"/>
    <property name="disable"/>
    <property name="gain">0</property>
    <property name="end">0</property>
   </filter>
  </entry>
  <blank length="407"/>
  <entry out="156394" in="156350" producer="2_playlist4">
   <filter id="filter730" out="156394" in="156350">
    <property name="window">75</property>
    <property name="max_gain">20dB</property>
    <property name="mlt_type">filter</property>
    <property name="mlt_service">volume</property>
    <property name="kdenlive_id">volume</property>
    <property name="tag">volume</property>
    <property name="kdenlive_ix">1</property>
    <property name="kdenlive_info"/>
    <property name="disable"/>
    <property name="gain">0.8</property>
    <property name="end">0</property>
   </filter>
  </entry>
  <blank length="281"/>
  <entry out="158543" in="158225" producer="2_playlist4">
   <filter id="filter731" out="158243" in="158225">
    <property name="window">75</property>
    <property name="max_gain">20dB</property>
    <property name="mlt_type">filter</property>
    <property name="mlt_service">volume</property>
    <property name="kdenlive_id">fadein</property>
    <property name="tag">volume</property>
    <property name="kdenlive_ix">1</property>
    <property name="kdenlive_info"/>
    <property name="disable"/>
    <property name="gain">0</property>
    <property name="end">1</property>
   </filter>
  </entry>
  <blank length="671"/>
  <entry out="159822" in="159748" producer="2_playlist4">
   <filter id="filter732" out="159822" in="159758">
    <property name="window">75</property>
    <property name="max_gain">20dB</property>
    <property name="mlt_type">filter</property>
    <property name="mlt_service">volume</property>
    <property name="kdenlive_id">fadeout</property>
    <property name="tag">volume</property>
    <property name="kdenlive_ix">1</property>
    <property name="kdenlive_info"/>
    <property name="disable"/>
    <property name="gain">1</property>
    <property name="end">0</property>
   </filter>
   <filter id="filter733" in="159748">
    <property name="window">75</property>
    <property name="max_gain">20dB</property>
    <property name="mlt_type">filter</property>
    <property name="mlt_service">volume</property>
    <property name="kdenlive_id">volume</property>
    <property name="tag">volume</property>
    <property name="kdenlive_ix">2</property>
    <property name="kdenlive_info"/>
    <property name="disable"/>
    <property name="gain">0.8</property>
   </filter>
  </entry>
  <blank length="977"/>
  <entry out="161742" in="161370" producer="2_playlist4">
   <filter id="filter734" out="161436" in="161370">
    <property name="window">75</property>
    <property name="max_gain">20dB</property>
    <property name="mlt_type">filter</property>
    <property name="mlt_service">volume</property>
    <property name="kdenlive_id">volume</property>
    <property name="tag">volume</property>
    <property name="kdenlive_ix">1</property>
    <property name="kdenlive_info"/>
    <property name="disable"/>
    <property name="gain">0</property>
    <property name="end">1</property>
   </filter>
   <filter id="filter735" out="161742" in="161437">
    <property name="window">75</property>
    <property name="max_gain">20dB</property>
    <property name="mlt_type">filter</property>
    <property name="mlt_service">volume</property>
    <property name="kdenlive_id">volume</property>
    <property name="tag">volume</property>
    <property name="kdenlive_ix">1</property>
    <property name="kdenlive_info"/>
    <property name="disable"/>
    <property name="gain">1</property>
    <property name="end">1</property>
   </filter>
  </entry>
  <entry out="161824" in="161743" producer="2_playlist4">
   <filter id="filter736" out="161824" in="161749">
    <property name="window">75</property>
    <property name="max_gain">20dB</property>
    <property name="mlt_type">filter</property>
    <property name="mlt_service">volume</property>
    <property name="kdenlive_id">fadeout</property>
    <property name="tag">volume</property>
    <property name="kdenlive_ix">1</property>
    <property name="kdenlive_info"/>
    <property name="disable"/>
    <property name="gain">1</property>
    <property name="end">0</property>
   </filter>
  </entry>
  <blank length="2740"/>
  <entry out="165618" in="165309" producer="2_playlist4">
   <filter id="filter737" out="165618" in="165543">
    <property name="window">75</property>
    <property name="max_gain">20dB</property>
    <property name="mlt_type">filter</property>
    <property name="mlt_service">volume</property>
    <property name="kdenlive_id">fadeout</property>
    <property name="tag">volume</property>
    <property name="kdenlive_ix">1</property>
    <property name="kdenlive_info"/>
    <property name="disable"/>
    <property name="gain">1</property>
    <property name="end">0</property>
   </filter>
   <filter id="filter738" out="165384" in="165309">
    <property name="window">75</property>
    <property name="max_gain">20dB</property>
    <property name="mlt_type">filter</property>
    <property name="mlt_service">volume</property>
    <property name="kdenlive_id">fadein</property>
    <property name="tag">volume</property>
    <property name="kdenlive_ix">2</property>
    <property name="kdenlive_info"/>
    <property name="disable"/>
    <property name="gain">0</property>
    <property name="end">1</property>
   </filter>
  </entry>
  <blank length="3221"/>
  <entry out="169380" in="169317" producer="2_playlist4">
   <filter id="filter739" out="169380" in="169317">
    <property name="window">75</property>
    <property name="max_gain">20dB</property>
    <property name="mlt_type">filter</property>
    <property name="mlt_service">volume</property>
    <property name="kdenlive_id">volume</property>
    <property name="tag">volume</property>
    <property name="kdenlive_ix">1</property>
    <property name="kdenlive_info"/>
    <property name="disable"/>
    <property name="gain">0.5</property>
    <property name="end">0</property>
   </filter>
  </entry>
  <blank length="317"/>
  <entry out="177425" in="176625" producer="2_playlist4"/>
  <entry out="181629" in="178260" producer="2_playlist4">
   <filter id="filter740" out="178302" in="178260">
    <property name="window">75</property>
    <property name="max_gain">20dB</property>
    <property name="mlt_type">filter</property>
    <property name="mlt_service">volume</property>
    <property name="kdenlive_id">volume</property>
    <property name="tag">volume</property>
    <property name="kdenlive_ix">1</property>
    <property name="kdenlive_info"/>
    <property name="disable"/>
    <property name="gain">0</property>
    <property name="end">0.12</property>
   </filter>
   <filter id="filter741" out="178396" in="178303">
    <property name="window">75</property>
    <property name="max_gain">20dB</property>
    <property name="mlt_type">filter</property>
    <property name="mlt_service">volume</property>
    <property name="kdenlive_id">volume</property>
    <property name="tag">volume</property>
    <property name="kdenlive_ix">1</property>
    <property name="kdenlive_info"/>
    <property name="disable"/>
    <property name="gain">0.12</property>
    <property name="end">0.12</property>
   </filter>
   <filter id="filter742" out="178452" in="178397">
    <property name="window">75</property>
    <property name="max_gain">20dB</property>
    <property name="mlt_type">filter</property>
    <property name="mlt_service">volume</property>
    <property name="kdenlive_id">volume</property>
    <property name="tag">volume</property>
    <property name="kdenlive_ix">1</property>
    <property name="kdenlive_info"/>
    <property name="disable"/>
    <property name="gain">0.123214</property>
    <property name="end">0.3</property>
   </filter>
   <filter id="filter743" out="178549" in="178453">
    <property name="window">75</property>
    <property name="max_gain">20dB</property>
    <property name="mlt_type">filter</property>
    <property name="mlt_service">volume</property>
    <property name="kdenlive_id">volume</property>
    <property name="tag">volume</property>
    <property name="kdenlive_ix">1</property>
    <property name="kdenlive_info"/>
    <property name="disable"/>
    <property name="gain">0.307216</property>
    <property name="end">1</property>
   </filter>
   <filter id="filter744" out="181629" in="178550">
    <property name="window">75</property>
    <property name="max_gain">20dB</property>
    <property name="mlt_type">filter</property>
    <property name="mlt_service">volume</property>
    <property name="kdenlive_id">volume</property>
    <property name="tag">volume</property>
    <property name="kdenlive_ix">1</property>
    <property name="kdenlive_info"/>
    <property name="disable"/>
    <property name="gain">1</property>
    <property name="end">1</property>
   </filter>
  </entry>
  <entry out="189616" in="182380" producer="2_playlist4">
   <filter id="filter745" out="189575" in="182380">
    <property name="window">75</property>
    <property name="max_gain">20dB</property>
    <property name="mlt_type">filter</property>
    <property name="mlt_service">volume</property>
    <property name="kdenlive_id">volume</property>
    <property name="tag">volume</property>
    <property name="kdenlive_ix">1</property>
    <property name="kdenlive_info"/>
    <property name="disable"/>
    <property name="gain">1</property>
    <property name="end">1</property>
   </filter>
   <filter id="filter746" out="189616" in="189576">
    <property name="window">75</property>
    <property name="max_gain">20dB</property>
    <property name="mlt_type">filter</property>
    <property name="mlt_service">volume</property>
    <property name="kdenlive_id">volume</property>
    <property name="tag">volume</property>
    <property name="kdenlive_ix">1</property>
    <property name="kdenlive_info"/>
    <property name="disable"/>
    <property name="gain">0.97561</property>
    <property name="end">0</property>
   </filter>
   <filter id="filter747" out="182620" in="182380">
    <property name="window">75</property>
    <property name="max_gain">20dB</property>
    <property name="mlt_type">filter</property>
    <property name="mlt_service">volume</property>
    <property name="kdenlive_id">fadein</property>
    <property name="tag">volume</property>
    <property name="kdenlive_ix">2</property>
    <property name="kdenlive_info"/>
    <property name="disable"/>
    <property name="gain">0</property>
    <property name="end">1</property>
   </filter>
  </entry>
  <entry out="208056" in="189617" producer="2_playlist4">
   <filter id="filter748" out="196237" in="189617">
    <property name="window">75</property>
    <property name="max_gain">20dB</property>
    <property name="mlt_type">filter</property>
    <property name="mlt_service">volume</property>
    <property name="kdenlive_id">volume</property>
    <property name="tag">volume</property>
    <property name="kdenlive_ix">1</property>
    <property name="kdenlive_info"/>
    <property name="disable"/>
    <property name="gain">0</property>
    <property name="end">0</property>
   </filter>
   <filter id="filter749" out="196419" in="196238">
    <property name="window">75</property>
    <property name="max_gain">20dB</property>
    <property name="mlt_type">filter</property>
    <property name="mlt_service">volume</property>
    <property name="kdenlive_id">volume</property>
    <property name="tag">volume</property>
    <property name="kdenlive_ix">1</property>
    <property name="kdenlive_info"/>
    <property name="disable"/>
    <property name="gain">0</property>
    <property name="end">0</property>
   </filter>
   <filter id="filter750" out="208056" in="196420">
    <property name="window">75</property>
    <property name="max_gain">20dB</property>
    <property name="mlt_type">filter</property>
    <property name="mlt_service">volume</property>
    <property name="kdenlive_id">volume</property>
    <property name="tag">volume</property>
    <property name="kdenlive_ix">1</property>
    <property name="kdenlive_info"/>
    <property name="disable"/>
    <property name="gain">0</property>
    <property name="end">0</property>
   </filter>
  </entry>
 </playlist>
 <producer id="3_playlist5" out="244275" title="Anonymous Submission" in="0">
  <property name="mlt_type">mlt_producer</property>
  <property name="length">244276</property>
  <property name="eof">pause</property>
  <property name="resource">/media/cassi/SilverSqueaker/backup-new/movies/action/hobbit/The.Hobbit.An.Unexpected.Journey.2012.720p.BluRay.DTS-ES.x264-tRuEHD.mkv</property>
  <property name="meta.media.nb_streams">9</property>
  <property name="meta.media.0.stream.type">video</property>
  <property name="meta.media.0.stream.frame_rate">23.976</property>
  <property name="meta.media.0.stream.sample_aspect_ratio">1</property>
  <property name="meta.media.0.codec.width">1280</property>
  <property name="meta.media.0.codec.height">534</property>
  <property name="meta.media.0.codec.rotate">0</property>
  <property name="meta.media.0.codec.frame_rate">23.976</property>
  <property name="meta.media.0.codec.pix_fmt">yuv420p</property>
  <property name="meta.media.0.codec.sample_aspect_ratio">1</property>
  <property name="meta.media.0.codec.colorspace">709</property>
  <property name="meta.media.0.codec.name">h264</property>
  <property name="meta.media.0.codec.long_name">H.264 / AVC / MPEG-4 AVC / MPEG-4 part 10</property>
  <property name="meta.media.0.codec.bit_rate">0</property>
  <property name="meta.attr.0.stream.language.markup">eng</property>
  <property name="meta.media.1.stream.type">audio</property>
  <property name="meta.media.1.codec.sample_fmt">fltp</property>
  <property name="meta.media.1.codec.sample_rate">48000</property>
  <property name="meta.media.1.codec.channels">7</property>
  <property name="meta.media.1.codec.name">dca</property>
  <property name="meta.media.1.codec.long_name">DCA (DTS Coherent Acoustics)</property>
  <property name="meta.media.1.codec.bit_rate">1536000</property>
  <property name="meta.attr.1.stream.language.markup">eng</property>
  <property name="meta.attr.1.stream.title.markup">Main Movie</property>
  <property name="meta.media.2.codec.name">srt</property>
  <property name="meta.media.2.codec.long_name">SubRip subtitle</property>
  <property name="meta.media.2.codec.bit_rate">0</property>
  <property name="meta.attr.2.stream.language.markup">eng</property>
  <property name="meta.attr.2.stream.title.markup">Subtitle #1</property>
  <property name="meta.media.3.codec.name">srt</property>
  <property name="meta.media.3.codec.long_name">SubRip subtitle</property>
  <property name="meta.media.3.codec.bit_rate">0</property>
  <property name="meta.attr.3.stream.language.markup">spa</property>
  <property name="meta.attr.3.stream.title.markup">Subtitle #2</property>
  <property name="meta.media.4.codec.name">srt</property>
  <property name="meta.media.4.codec.long_name">SubRip subtitle</property>
  <property name="meta.media.4.codec.bit_rate">0</property>
  <property name="meta.attr.4.stream.language.markup">swe</property>
  <property name="meta.attr.4.stream.title.markup">Subtitle #3</property>
  <property name="meta.media.5.codec.name">srt</property>
  <property name="meta.media.5.codec.long_name">SubRip subtitle</property>
  <property name="meta.media.5.codec.bit_rate">0</property>
  <property name="meta.attr.5.stream.language.markup">pol</property>
  <property name="meta.attr.5.stream.title.markup">Subtitle #4</property>
  <property name="meta.media.6.codec.name">srt</property>
  <property name="meta.media.6.codec.long_name">SubRip subtitle</property>
  <property name="meta.media.6.codec.bit_rate">0</property>
  <property name="meta.attr.6.stream.language.markup">dut</property>
  <property name="meta.attr.6.stream.title.markup">Subtitle #5</property>
  <property name="meta.media.7.codec.name">srt</property>
  <property name="meta.media.7.codec.long_name">SubRip subtitle</property>
  <property name="meta.media.7.codec.bit_rate">0</property>
  <property name="meta.attr.7.stream.language.markup">hun</property>
  <property name="meta.attr.7.stream.title.markup">Subtitle #5</property>
  <property name="meta.media.8.codec.name">srt</property>
  <property name="meta.media.8.codec.long_name">SubRip subtitle</property>
  <property name="meta.media.8.codec.bit_rate">0</property>
  <property name="meta.attr.8.stream.language.markup">fin</property>
  <property name="meta.attr.8.stream.title.markup">Subtitle #7</property>
  <property name="meta.attr.encoder.markup">libebml v1.3.0 + libmatroska v1.4.0</property>
  <property name="meta.attr.creation_time.markup">2013-03-06 19:22:31</property>
  <property name="seekable">1</property>
  <property name="meta.media.sample_aspect_num">1</property>
  <property name="meta.media.sample_aspect_den">1</property>
  <property name="aspect_ratio">1</property>
  <property name="audio_index">1</property>
  <property name="video_index">0</property>
  <property name="mute_on_pause">1</property>
  <property name="mlt_service">avformat</property>
  <property name="meta.media.frame_rate_num">24000</property>
  <property name="meta.media.frame_rate_den">1001</property>
  <property name="meta.media.colorspace">709</property>
  <property name="meta.media.color_trc">2</property>
  <property name="meta.media.width">1280</property>
  <property name="meta.media.height">534</property>
  <property name="meta.media.top_field_first">0</property>
  <property name="meta.media.progressive">1</property>
  <property name="global_feed">1</property>
 </producer>
 <producer id="1_playlist5" out="268700" title="Anonymous Submission" in="0">
  <property name="mlt_type">mlt_producer</property>
  <property name="length">268701</property>
  <property name="eof">pause</property>
  <property name="resource">/media/cassi/SilverSqueaker/backup-new/movies/action/hobbit/The.Hobbit.Desolation.Of.Smaug.Extended.Edition.2013.BluRay.DTS-ES.x264-tRuEHD.mkv</property>
  <property name="meta.media.nb_streams">6</property>
  <property name="meta.media.0.stream.type">video</property>
  <property name="meta.media.0.stream.frame_rate">23.976</property>
  <property name="meta.media.0.stream.sample_aspect_ratio">1</property>
  <property name="meta.media.0.codec.width">1280</property>
  <property name="meta.media.0.codec.height">534</property>
  <property name="meta.media.0.codec.rotate">0</property>
  <property name="meta.media.0.codec.frame_rate">23.976</property>
  <property name="meta.media.0.codec.pix_fmt">yuv420p</property>
  <property name="meta.media.0.codec.sample_aspect_ratio">1</property>
  <property name="meta.media.0.codec.colorspace">709</property>
  <property name="meta.media.0.codec.name">h264</property>
  <property name="meta.media.0.codec.long_name">H.264 / AVC / MPEG-4 AVC / MPEG-4 part 10</property>
  <property name="meta.media.0.codec.bit_rate">0</property>
  <property name="meta.attr.0.stream.language.markup">eng</property>
  <property name="meta.media.1.stream.type">audio</property>
  <property name="meta.media.1.codec.sample_fmt">fltp</property>
  <property name="meta.media.1.codec.sample_rate">48000</property>
  <property name="meta.media.1.codec.channels">7</property>
  <property name="meta.media.1.codec.name">dca</property>
  <property name="meta.media.1.codec.long_name">DCA (DTS Coherent Acoustics)</property>
  <property name="meta.media.1.codec.bit_rate">1536000</property>
  <property name="meta.attr.1.stream.language.markup">eng</property>
  <property name="meta.attr.1.stream.title.markup">Main Audio</property>
  <property name="meta.media.2.stream.type">audio</property>
  <property name="meta.media.2.codec.sample_fmt">fltp</property>
  <property name="meta.media.2.codec.sample_rate">48000</property>
  <property name="meta.media.2.codec.channels">2</property>
  <property name="meta.media.2.codec.name">ac3</property>
  <property name="meta.media.2.codec.long_name">ATSC A/52A (AC-3)</property>
  <property name="meta.media.2.codec.bit_rate">128000</property>
  <property name="meta.attr.2.stream.language.markup">eng</property>
  <property name="meta.attr.2.stream.title.markup">Commentary</property>
  <property name="meta.media.3.codec.name">srt</property>
  <property name="meta.media.3.codec.long_name">SubRip subtitle</property>
  <property name="meta.media.3.codec.bit_rate">0</property>
  <property name="meta.attr.3.stream.language.markup">eng</property>
  <property name="meta.attr.3.stream.title.markup">Subtitle #1</property>
  <property name="meta.media.4.codec.name">srt</property>
  <property name="meta.media.4.codec.long_name">SubRip subtitle</property>
  <property name="meta.media.4.codec.bit_rate">0</property>
  <property name="meta.attr.4.stream.language.markup">fre</property>
  <property name="meta.attr.4.stream.title.markup">Subtitle #2</property>
  <property name="meta.media.5.codec.name">srt</property>
  <property name="meta.media.5.codec.long_name">SubRip subtitle</property>
  <property name="meta.media.5.codec.bit_rate">0</property>
  <property name="meta.attr.5.stream.language.markup">spa</property>
  <property name="meta.attr.5.stream.title.markup">Subtitle #3</property>
  <property name="meta.attr.encoder.markup">libebml v1.3.0 + libmatroska v1.4.1</property>
  <property name="meta.attr.creation_time.markup">2014-10-27 22:49:14</property>
  <property name="seekable">1</property>
  <property name="meta.media.sample_aspect_num">1</property>
  <property name="meta.media.sample_aspect_den">1</property>
  <property name="aspect_ratio">1</property>
  <property name="audio_index">1</property>
  <property name="video_index">0</property>
  <property name="mute_on_pause">1</property>
  <property name="mlt_service">avformat</property>
  <property name="meta.media.frame_rate_num">24000</property>
  <property name="meta.media.frame_rate_den">1001</property>
  <property name="meta.media.colorspace">709</property>
  <property name="meta.media.color_trc">2</property>
  <property name="meta.media.width">1280</property>
  <property name="meta.media.height">534</property>
  <property name="meta.media.top_field_first">0</property>
  <property name="meta.media.progressive">1</property>
  <property name="global_feed">1</property>
 </producer>
 <producer id="2_playlist5" out="208056" title="Anonymous Submission" in="0">
  <property name="mlt_type">mlt_producer</property>
  <property name="length">208057</property>
  <property name="eof">pause</property>
  <property name="resource">/media/cassi/SilverSqueaker/backup-new/movies/action/hobbit/The.Hobbit.The.Battle.of.the.Five.Armies.2014.720p.BluRay.DTS-ES.x264-tRuEHD.mkv</property>
  <property name="meta.media.nb_streams">11</property>
  <property name="meta.media.0.stream.type">video</property>
  <property name="meta.media.0.stream.frame_rate">23.976</property>
  <property name="meta.media.0.stream.sample_aspect_ratio">1</property>
  <property name="meta.media.0.codec.width">1280</property>
  <property name="meta.media.0.codec.height">534</property>
  <property name="meta.media.0.codec.rotate">0</property>
  <property name="meta.media.0.codec.frame_rate">23.976</property>
  <property name="meta.media.0.codec.pix_fmt">yuv420p</property>
  <property name="meta.media.0.codec.sample_aspect_ratio">1</property>
  <property name="meta.media.0.codec.colorspace">709</property>
  <property name="meta.media.0.codec.name">h264</property>
  <property name="meta.media.0.codec.long_name">H.264 / AVC / MPEG-4 AVC / MPEG-4 part 10</property>
  <property name="meta.media.0.codec.bit_rate">0</property>
  <property name="meta.attr.0.stream.language.markup">eng</property>
  <property name="meta.media.1.stream.type">audio</property>
  <property name="meta.media.1.codec.sample_fmt">fltp</property>
  <property name="meta.media.1.codec.sample_rate">48000</property>
  <property name="meta.media.1.codec.channels">7</property>
  <property name="meta.media.1.codec.name">dca</property>
  <property name="meta.media.1.codec.long_name">DCA (DTS Coherent Acoustics)</property>
  <property name="meta.media.1.codec.bit_rate">1536000</property>
  <property name="meta.attr.1.stream.language.markup">eng</property>
  <property name="meta.attr.1.stream.title.markup">Main Audio</property>
  <property name="meta.media.2.codec.name">srt</property>
  <property name="meta.media.2.codec.long_name">SubRip subtitle</property>
  <property name="meta.media.2.codec.bit_rate">0</property>
  <property name="meta.attr.2.stream.language.markup">eng</property>
  <property name="meta.attr.2.stream.title.markup">Subtitle #1</property>
  <property name="meta.media.3.codec.name">srt</property>
  <property name="meta.media.3.codec.long_name">SubRip subtitle</property>
  <property name="meta.media.3.codec.bit_rate">0</property>
  <property name="meta.attr.3.stream.language.markup">dan</property>
  <property name="meta.attr.3.stream.title.markup">Subtitle #2</property>
  <property name="meta.media.4.codec.name">srt</property>
  <property name="meta.media.4.codec.long_name">SubRip subtitle</property>
  <property name="meta.media.4.codec.bit_rate">0</property>
  <property name="meta.attr.4.stream.language.markup">dut</property>
  <property name="meta.attr.4.stream.title.markup">Subtitle #3</property>
  <property name="meta.media.5.codec.name">srt</property>
  <property name="meta.media.5.codec.long_name">SubRip subtitle</property>
  <property name="meta.media.5.codec.bit_rate">0</property>
  <property name="meta.attr.5.stream.language.markup">nor</property>
  <property name="meta.attr.5.stream.title.markup">Subtitle #4</property>
  <property name="meta.media.6.codec.name">srt</property>
  <property name="meta.media.6.codec.long_name">SubRip subtitle</property>
  <property name="meta.media.6.codec.bit_rate">0</property>
  <property name="meta.attr.6.stream.language.markup">pol</property>
  <property name="meta.attr.6.stream.title.markup">Subtitle #5</property>
  <property name="meta.media.7.codec.name">srt</property>
  <property name="meta.media.7.codec.long_name">SubRip subtitle</property>
  <property name="meta.media.7.codec.bit_rate">0</property>
  <property name="meta.attr.7.stream.language.markup">rum</property>
  <property name="meta.attr.7.stream.title.markup">Subtitle #6</property>
  <property name="meta.media.8.codec.name">srt</property>
  <property name="meta.media.8.codec.long_name">SubRip subtitle</property>
  <property name="meta.media.8.codec.bit_rate">0</property>
  <property name="meta.attr.8.stream.language.markup">spa</property>
  <property name="meta.attr.8.stream.title.markup">Subtitle #7</property>
  <property name="meta.media.9.codec.name">srt</property>
  <property name="meta.media.9.codec.long_name">SubRip subtitle</property>
  <property name="meta.media.9.codec.bit_rate">0</property>
  <property name="meta.attr.9.stream.language.markup">swe</property>
  <property name="meta.attr.9.stream.title.markup">Subtitle #8</property>
  <property name="meta.media.10.codec.name">srt</property>
  <property name="meta.media.10.codec.long_name">SubRip subtitle</property>
  <property name="meta.media.10.codec.bit_rate">0</property>
  <property name="meta.attr.10.stream.language.markup">tur</property>
  <property name="meta.attr.10.stream.title.markup">Subtitle #9</property>
  <property name="meta.attr.encoder.markup">libebml v1.3.0 + libmatroska v1.4.1</property>
  <property name="meta.attr.creation_time.markup">2015-03-12 04:24:50</property>
  <property name="seekable">1</property>
  <property name="meta.media.sample_aspect_num">1</property>
  <property name="meta.media.sample_aspect_den">1</property>
  <property name="aspect_ratio">1</property>
  <property name="audio_index">1</property>
  <property name="video_index">0</property>
  <property name="mute_on_pause">1</property>
  <property name="mlt_service">avformat</property>
  <property name="meta.media.frame_rate_num">24000</property>
  <property name="meta.media.frame_rate_den">1001</property>
  <property name="meta.media.colorspace">709</property>
  <property name="meta.media.color_trc">2</property>
  <property name="meta.media.width">1280</property>
  <property name="meta.media.height">534</property>
  <property name="meta.media.top_field_first">0</property>
  <property name="meta.media.progressive">1</property>
  <property name="global_feed">1</property>
 </producer>
 <playlist id="playlist5">
  <property name="kdenlive:track_name"/>
  <property name="kdenlive:locked_track">0</property>
  <property name="kdenlive:composite">1</property>
  <blank length="1325"/>
  <entry out="161" in="4" producer="9">
   <filter id="vignette">
    <property name="smooth">4=0.8;16=0.8;31=0.8;47=0.8;65=0.8;81=0.8;101=0.8;154=0.8</property>
    <property name="radius">4=0.3;16=0.45;31=0.4;47=0.45;65=0.43;81=0.45;101=0.42;154=0.5</property>
    <property name="x">4=0.4;16=0.4;31=0.4;47=0.4;65=0.4;81=0.4;101=0.4;154=0.4</property>
    <property name="y">4=0.1;16=0.1;31=0.1;47=0.1;65=0.1;81=0.1;101=0.1;154=0.1</property>
    <property name="opacity">4=0;16=0;31=0;47=0;65=0;81=0;101=0;154=0</property>
    <property name="mode">0</property>
    <property name="mlt_type">filter</property>
    <property name="mlt_service">vignette</property>
    <property name="kdenlive_id">vignette</property>
    <property name="tag">vignette</property>
    <property name="kdenlive_ix">1</property>
    <property name="kdenlive_info"/>
    <property name="disable">1</property>
   </filter>
  </entry>
  <blank length="1466"/>
  <entry out="18033" in="17936" producer="3_playlist5">
   <filter id="filter781">
    <property name="window">75</property>
    <property name="max_gain">20dB</property>
    <property name="mlt_type">filter</property>
    <property name="mlt_service">volume</property>
    <property name="track">0</property>
    <property name="kdenlive_id">mute</property>
    <property name="tag">volume</property>
    <property name="kdenlive_ix">1</property>
    <property name="kdenlive_info"/>
    <property name="gain">0</property>
   </filter>
   <filter id="filter782" in="18033">
    <property name="window">75</property>
    <property name="max_gain">20dB</property>
    <property name="mlt_type">filter</property>
    <property name="mlt_service">volume</property>
    <property name="kdenlive_id">volume</property>
    <property name="tag">volume</property>
    <property name="kdenlive_ix">2</property>
    <property name="kdenlive_info"/>
    <property name="disable"/>
    <property name="gain">1</property>
   </filter>
  </entry>
  <blank length="80"/>
  <entry out="18938" in="18711" producer="3_playlist5">
   <filter id="filter783">
    <property name="window">75</property>
    <property name="max_gain">20dB</property>
    <property name="mlt_type">filter</property>
    <property name="mlt_service">volume</property>
    <property name="track">0</property>
    <property name="kdenlive_id">mute</property>
    <property name="tag">volume</property>
    <property name="kdenlive_ix">1</property>
    <property name="kdenlive_info"/>
    <property name="gain">0</property>
   </filter>
  </entry>
  <entry out="22707" in="18939" producer="3_playlist5"/>
  <entry out="27582" in="23688" producer="3_playlist5"/>
  <entry out="30009" in="28103" producer="3_playlist5">
   <filter id="filter784" out="28143" in="28103">
    <property name="window">75</property>
    <property name="max_gain">20dB</property>
    <property name="mlt_type">filter</property>
    <property name="mlt_service">volume</property>
    <property name="track">0</property>
    <property name="kdenlive_id">volume</property>
    <property name="tag">volume</property>
    <property name="kdenlive_ix">1</property>
    <property name="kdenlive_info"/>
    <property name="gain">1</property>
    <property name="end">1</property>
   </filter>
   <filter id="filter785" out="28146" in="28144">
    <property name="window">75</property>
    <property name="max_gain">20dB</property>
    <property name="mlt_type">filter</property>
    <property name="mlt_service">volume</property>
    <property name="track">0</property>
    <property name="kdenlive_id">volume</property>
    <property name="tag">volume</property>
    <property name="kdenlive_ix">1</property>
    <property name="kdenlive_info"/>
    <property name="gain">1</property>
    <property name="end">0</property>
   </filter>
   <filter id="filter786" out="28179" in="28147">
    <property name="window">75</property>
    <property name="max_gain">20dB</property>
    <property name="mlt_type">filter</property>
    <property name="mlt_service">volume</property>
    <property name="track">0</property>
    <property name="kdenlive_id">volume</property>
    <property name="tag">volume</property>
    <property name="kdenlive_ix">1</property>
    <property name="kdenlive_info"/>
    <property name="gain">0</property>
    <property name="end">0</property>
   </filter>
   <filter id="filter787" out="28181" in="28180">
    <property name="window">75</property>
    <property name="max_gain">20dB</property>
    <property name="mlt_type">filter</property>
    <property name="mlt_service">volume</property>
    <property name="track">0</property>
    <property name="kdenlive_id">volume</property>
    <property name="tag">volume</property>
    <property name="kdenlive_ix">1</property>
    <property name="kdenlive_info"/>
    <property name="gain">0</property>
    <property name="end">1</property>
   </filter>
   <filter id="filter788" out="30009" in="28182">
    <property name="window">75</property>
    <property name="max_gain">20dB</property>
    <property name="mlt_type">filter</property>
    <property name="mlt_service">volume</property>
    <property name="track">0</property>
    <property name="kdenlive_id">volume</property>
    <property name="tag">volume</property>
    <property name="kdenlive_ix">1</property>
    <property name="kdenlive_info"/>
    <property name="gain">1</property>
    <property name="end">1</property>
   </filter>
  </entry>
  <entry out="33234" in="32536" producer="3_playlist5"/>
  <entry out="36097" in="35987" producer="3_playlist5">
   <filter id="filter789">
    <property name="mlt_type">filter</property>
    <property name="mlt_service">crop</property>
    <property name="track">0</property>
    <property name="kdenlive_id">crop</property>
    <property name="tag">crop</property>
    <property name="kdenlive_ix">1</property>
    <property name="kdenlive_info"/>
    <property name="top">0</property>
    <property name="left">300</property>
    <property name="bottom">481</property>
    <property name="right">555</property>
    <property name="center">0</property>
    <property name="center_bias">0</property>
    <property name="use_profile">1</property>
   </filter>
  </entry>
  <entry out="40169" in="36098" producer="3_playlist5"/>
  <entry out="40218" in="40170" producer="3_playlist5">
   <filter id="filter790" out="40206" in="40170">
    <property name="window">75</property>
    <property name="max_gain">20dB</property>
    <property name="mlt_type">filter</property>
    <property name="mlt_service">volume</property>
    <property name="kdenlive_id">volume</property>
    <property name="tag">volume</property>
    <property name="kdenlive_ix">1</property>
    <property name="kdenlive_info"/>
    <property name="disable"/>
    <property name="gain">1</property>
    <property name="end">1</property>
   </filter>
   <filter id="filter791" out="40212" in="40207">
    <property name="window">75</property>
    <property name="max_gain">20dB</property>
    <property name="mlt_type">filter</property>
    <property name="mlt_service">volume</property>
    <property name="kdenlive_id">volume</property>
    <property name="tag">volume</property>
    <property name="kdenlive_ix">1</property>
    <property name="kdenlive_info"/>
    <property name="disable"/>
    <property name="gain">0.833333</property>
    <property name="end">0</property>
   </filter>
   <filter id="filter792" out="40218" in="40213">
    <property name="window">75</property>
    <property name="max_gain">20dB</property>
    <property name="mlt_type">filter</property>
    <property name="mlt_service">volume</property>
    <property name="kdenlive_id">volume</property>
    <property name="tag">volume</property>
    <property name="kdenlive_ix">1</property>
    <property name="kdenlive_info"/>
    <property name="disable"/>
    <property name="gain">0</property>
    <property name="end">0</property>
   </filter>
  </entry>
  <entry out="41418" in="41099" producer="3_playlist5">
   <filter id="filter793" out="41404" in="41099">
    <property name="window">75</property>
    <property name="max_gain">20dB</property>
    <property name="mlt_type">filter</property>
    <property name="mlt_service">volume</property>
    <property name="kdenlive_id">volume</property>
    <property name="tag">volume</property>
    <property name="kdenlive_ix">1</property>
    <property name="kdenlive_info"/>
    <property name="disable"/>
    <property name="gain">1</property>
    <property name="end">1</property>
   </filter>
   <filter id="filter794" out="41418" in="41405">
    <property name="window">75</property>
    <property name="max_gain">20dB</property>
    <property name="mlt_type">filter</property>
    <property name="mlt_service">volume</property>
    <property name="kdenlive_id">volume</property>
    <property name="tag">volume</property>
    <property name="kdenlive_ix">1</property>
    <property name="kdenlive_info"/>
    <property name="disable"/>
    <property name="gain">0.928571</property>
    <property name="end">0</property>
   </filter>
  </entry>
  <entry out="42136" in="41583" producer="3_playlist5">
   <filter id="filter795" out="42107" in="41583">
    <property name="window">75</property>
    <property name="max_gain">20dB</property>
    <property name="mlt_type">filter</property>
    <property name="mlt_service">volume</property>
    <property name="kdenlive_id">volume</property>
    <property name="tag">volume</property>
    <property name="kdenlive_ix">1</property>
    <property name="kdenlive_info"/>
    <property name="disable"/>
    <property name="gain">1</property>
    <property name="end">1</property>
   </filter>
   <filter id="filter796" out="42121" in="42108">
    <property name="window">75</property>
    <property name="max_gain">20dB</property>
    <property name="mlt_type">filter</property>
    <property name="mlt_service">volume</property>
    <property name="kdenlive_id">volume</property>
    <property name="tag">volume</property>
    <property name="kdenlive_ix">1</property>
    <property name="kdenlive_info"/>
    <property name="disable"/>
    <property name="gain">0.975</property>
    <property name="end">0.65</property>
   </filter>
   <filter id="filter797" out="42136" in="42122">
    <property name="window">75</property>
    <property name="max_gain">20dB</property>
    <property name="mlt_type">filter</property>
    <property name="mlt_service">volume</property>
    <property name="kdenlive_id">volume</property>
    <property name="tag">volume</property>
    <property name="kdenlive_ix">1</property>
    <property name="kdenlive_info"/>
    <property name="disable"/>
    <property name="gain">0.64</property>
    <property name="end">0.5</property>
   </filter>
  </entry>
  <entry out="42584" in="42481" producer="3_playlist5">
   <filter id="filter798" in="42481">
    <property name="window">75</property>
    <property name="max_gain">20dB</property>
    <property name="mlt_type">filter</property>
    <property name="mlt_service">volume</property>
    <property name="kdenlive_id">volume</property>
    <property name="tag">volume</property>
    <property name="kdenlive_ix">1</property>
    <property name="kdenlive_info"/>
    <property name="disable"/>
    <property name="gain">0</property>
   </filter>
  </entry>
  <entry out="46116" in="42694" producer="3_playlist5">
   <filter id="filter799" out="46116" in="42694">
    <property name="window">75</property>
    <property name="max_gain">20dB</property>
    <property name="mlt_type">filter</property>
    <property name="mlt_service">volume</property>
    <property name="kdenlive_id">volume</property>
    <property name="tag">volume</property>
    <property name="kdenlive_ix">1</property>
    <property name="kdenlive_info"/>
    <property name="disable"/>
    <property name="gain">1</property>
    <property name="end">1</property>
   </filter>
  </entry>
  <entry out="46207" in="46157" producer="3_playlist5">
   <filter id="filter800">
    <property name="window">75</property>
    <property name="max_gain">20dB</property>
    <property name="mlt_type">filter</property>
    <property name="mlt_service">volume</property>
    <property name="kdenlive_id">mute</property>
    <property name="tag">volume</property>
    <property name="kdenlive_ix">1</property>
    <property name="kdenlive_info"/>
    <property name="disable"/>
    <property name="gain">0</property>
   </filter>
  </entry>
  <entry out="48056" in="46567" producer="3_playlist5">
   <filter id="filter801" out="48022" in="46567">
    <property name="window">75</property>
    <property name="max_gain">20dB</property>
    <property name="mlt_type">filter</property>
    <property name="mlt_service">volume</property>
    <property name="kdenlive_id">volume</property>
    <property name="tag">volume</property>
    <property name="kdenlive_ix">1</property>
    <property name="kdenlive_info"/>
    <property name="disable"/>
    <property name="gain">1</property>
    <property name="end">1</property>
   </filter>
   <filter id="filter802" out="48026" in="48023">
    <property name="window">75</property>
    <property name="max_gain">20dB</property>
    <property name="mlt_type">filter</property>
    <property name="mlt_service">volume</property>
    <property name="kdenlive_id">volume</property>
    <property name="tag">volume</property>
    <property name="kdenlive_ix">1</property>
    <property name="kdenlive_info"/>
    <property name="disable"/>
    <property name="gain">0.75</property>
    <property name="end">0</property>
   </filter>
   <filter id="filter803" out="48056" in="48027">
    <property name="window">75</property>
    <property name="max_gain">20dB</property>
    <property name="mlt_type">filter</property>
    <property name="mlt_service">volume</property>
    <property name="kdenlive_id">volume</property>
    <property name="tag">volume</property>
    <property name="kdenlive_ix">1</property>
    <property name="kdenlive_info"/>
    <property name="disable"/>
    <property name="gain">0</property>
    <property name="end">0</property>
   </filter>
  </entry>
  <entry out="50739" in="48202" producer="3_playlist5"/>
  <entry out="51031" in="50824" producer="3_playlist5">
   <filter id="filter804" out="50988" in="50824">
    <property name="window">75</property>
    <property name="max_gain">20dB</property>
    <property name="mlt_type">filter</property>
    <property name="mlt_service">volume</property>
    <property name="kdenlive_id">volume</property>
    <property name="tag">volume</property>
    <property name="kdenlive_ix">1</property>
    <property name="kdenlive_info"/>
    <property name="disable"/>
    <property name="gain">1</property>
    <property name="end">1</property>
   </filter>
   <filter id="filter805" out="50991" in="50989">
    <property name="window">75</property>
    <property name="max_gain">20dB</property>
    <property name="mlt_type">filter</property>
    <property name="mlt_service">volume</property>
    <property name="kdenlive_id">volume</property>
    <property name="tag">volume</property>
    <property name="kdenlive_ix">1</property>
    <property name="kdenlive_info"/>
    <property name="disable"/>
    <property name="gain">0.666667</property>
    <property name="end">0</property>
   </filter>
   <filter id="filter806" out="51031" in="50992">
    <property name="window">75</property>
    <property name="max_gain">20dB</property>
    <property name="mlt_type">filter</property>
    <property name="mlt_service">volume</property>
    <property name="kdenlive_id">volume</property>
    <property name="tag">volume</property>
    <property name="kdenlive_ix">1</property>
    <property name="kdenlive_info"/>
    <property name="disable"/>
    <property name="gain">0</property>
    <property name="end">0</property>
   </filter>
  </entry>
  <blank length="216"/>
  <entry out="52308" in="52275" producer="3_playlist5">
   <filter id="filter807">
    <property name="window">75</property>
    <property name="max_gain">20dB</property>
    <property name="mlt_type">filter</property>
    <property name="mlt_service">volume</property>
    <property name="kdenlive_id">mute</property>
    <property name="tag">volume</property>
    <property name="kdenlive_ix">1</property>
    <property name="kdenlive_info"/>
    <property name="disable"/>
    <property name="gain">0</property>
   </filter>
  </entry>
  <entry out="52919" in="52312" producer="3_playlist5">
   <filter id="filter808" out="52726" in="52312">
    <property name="window">75</property>
    <property name="max_gain">20dB</property>
    <property name="mlt_type">filter</property>
    <property name="mlt_service">volume</property>
    <property name="kdenlive_id">volume</property>
    <property name="tag">volume</property>
    <property name="kdenlive_ix">1</property>
    <property name="kdenlive_info"/>
    <property name="disable"/>
    <property name="gain">1</property>
    <property name="end">1</property>
   </filter>
   <filter id="filter809" out="52738" in="52727">
    <property name="window">75</property>
    <property name="max_gain">20dB</property>
    <property name="mlt_type">filter</property>
    <property name="mlt_service">volume</property>
    <property name="kdenlive_id">volume</property>
    <property name="tag">volume</property>
    <property name="kdenlive_ix">1</property>
    <property name="kdenlive_info"/>
    <property name="disable"/>
    <property name="gain">1</property>
    <property name="end">1</property>
   </filter>
   <filter id="filter810" out="52919" in="52739">
    <property name="window">75</property>
    <property name="max_gain">20dB</property>
    <property name="mlt_type">filter</property>
    <property name="mlt_service">volume</property>
    <property name="kdenlive_id">volume</property>
    <property name="tag">volume</property>
    <property name="kdenlive_ix">1</property>
    <property name="kdenlive_info"/>
    <property name="disable"/>
    <property name="gain">1</property>
    <property name="end">1</property>
   </filter>
  </entry>
  <entry out="56223" in="53184" producer="3_playlist5"/>
  <entry out="56849" in="56667" producer="3_playlist5">
   <filter id="filter811" out="56850" in="56824">
    <property name="window">75</property>
    <property name="max_gain">20dB</property>
    <property name="mlt_type">filter</property>
    <property name="mlt_service">volume</property>
    <property name="kdenlive_id">fadeout</property>
    <property name="tag">volume</property>
    <property name="kdenlive_ix">1</property>
    <property name="kdenlive_info"/>
    <property name="disable"/>
    <property name="gain">1</property>
    <property name="end">0</property>
   </filter>
  </entry>
  <entry out="60514" in="57663" producer="3_playlist5">
   <filter id="filter812" out="58748" in="57663">
    <property name="window">75</property>
    <property name="max_gain">20dB</property>
    <property name="mlt_type">filter</property>
    <property name="mlt_service">volume</property>
    <property name="kdenlive_id">volume</property>
    <property name="tag">volume</property>
    <property name="kdenlive_ix">1</property>
    <property name="kdenlive_info"/>
    <property name="disable"/>
    <property name="gain">0.7</property>
    <property name="end">0.7</property>
   </filter>
   <filter id="filter813" out="58834" in="58749">
    <property name="window">75</property>
    <property name="max_gain">20dB</property>
    <property name="mlt_type">filter</property>
    <property name="mlt_service">volume</property>
    <property name="kdenlive_id">volume</property>
    <property name="tag">volume</property>
    <property name="kdenlive_ix">1</property>
    <property name="kdenlive_info"/>
    <property name="disable"/>
    <property name="gain">0.703488</property>
    <property name="end">1</property>
   </filter>
   <filter id="filter814" out="60446" in="58835">
    <property name="window">75</property>
    <property name="max_gain">20dB</property>
    <property name="mlt_type">filter</property>
    <property name="mlt_service">volume</property>
    <property name="kdenlive_id">volume</property>
    <property name="tag">volume</property>
    <property name="kdenlive_ix">1</property>
    <property name="kdenlive_info"/>
    <property name="disable"/>
    <property name="gain">1</property>
    <property name="end">1</property>
   </filter>
   <filter id="filter815" out="60475" in="60447">
    <property name="window">75</property>
    <property name="max_gain">20dB</property>
    <property name="mlt_type">filter</property>
    <property name="mlt_service">volume</property>
    <property name="kdenlive_id">volume</property>
    <property name="tag">volume</property>
    <property name="kdenlive_ix">1</property>
    <property name="kdenlive_info"/>
    <property name="disable"/>
    <property name="gain">0.986207</property>
    <property name="end">0.6</property>
   </filter>
   <filter id="filter816" out="60514" in="60476">
    <property name="window">75</property>
    <property name="max_gain">20dB</property>
    <property name="mlt_type">filter</property>
    <property name="mlt_service">volume</property>
    <property name="kdenlive_id">volume</property>
    <property name="tag">volume</property>
    <property name="kdenlive_ix">1</property>
    <property name="kdenlive_info"/>
    <property name="disable"/>
    <property name="gain">0.6</property>
    <property name="end">0.6</property>
   </filter>
  </entry>
  <entry out="65558" in="61241" producer="3_playlist5">
   <filter id="filter817" out="62635" in="61241">
    <property name="window">75</property>
    <property name="max_gain">20dB</property>
    <property name="mlt_type">filter</property>
    <property name="mlt_service">volume</property>
    <property name="kdenlive_id">volume</property>
    <property name="tag">volume</property>
    <property name="kdenlive_ix">1</property>
    <property name="kdenlive_info"/>
    <property name="disable"/>
    <property name="gain">1</property>
    <property name="end">1</property>
   </filter>
   <filter id="filter818" out="62721" in="62636">
    <property name="window">75</property>
    <property name="max_gain">20dB</property>
    <property name="mlt_type">filter</property>
    <property name="mlt_service">volume</property>
    <property name="kdenlive_id">volume</property>
    <property name="tag">volume</property>
    <property name="kdenlive_ix">1</property>
    <property name="kdenlive_info"/>
    <property name="disable"/>
    <property name="gain">0.997674</property>
    <property name="end">0.8</property>
   </filter>
   <filter id="filter819" out="62967" in="62722">
    <property name="window">75</property>
    <property name="max_gain">20dB</property>
    <property name="mlt_type">filter</property>
    <property name="mlt_service">volume</property>
    <property name="kdenlive_id">volume</property>
    <property name="tag">volume</property>
    <property name="kdenlive_ix">1</property>
    <property name="kdenlive_info"/>
    <property name="disable"/>
    <property name="gain">0.8</property>
    <property name="end">0.8</property>
   </filter>
   <filter id="filter820" out="63018" in="62968">
    <property name="window">75</property>
    <property name="max_gain">20dB</property>
    <property name="mlt_type">filter</property>
    <property name="mlt_service">volume</property>
    <property name="kdenlive_id">volume</property>
    <property name="tag">volume</property>
    <property name="kdenlive_ix">1</property>
    <property name="kdenlive_info"/>
    <property name="disable"/>
    <property name="gain">0.803922</property>
    <property name="end">1</property>
   </filter>
   <filter id="filter821" out="65439" in="63019">
    <property name="window">75</property>
    <property name="max_gain">20dB</property>
    <property name="mlt_type">filter</property>
    <property name="mlt_service">volume</property>
    <property name="kdenlive_id">volume</property>
    <property name="tag">volume</property>
    <property name="kdenlive_ix">1</property>
    <property name="kdenlive_info"/>
    <property name="disable"/>
    <property name="gain">1</property>
    <property name="end">1</property>
   </filter>
   <filter id="filter822" out="65558" in="65440">
    <property name="window">75</property>
    <property name="max_gain">20dB</property>
    <property name="mlt_type">filter</property>
    <property name="mlt_service">volume</property>
    <property name="kdenlive_id">volume</property>
    <property name="tag">volume</property>
    <property name="kdenlive_ix">1</property>
    <property name="kdenlive_info"/>
    <property name="disable"/>
    <property name="gain">0.996639</property>
    <property name="end">0.6</property>
   </filter>
  </entry>
  <entry out="66643" in="65815" producer="3_playlist5">
   <filter id="filter823" out="66643" in="65815">
    <property name="window">75</property>
    <property name="max_gain">20dB</property>
    <property name="mlt_type">filter</property>
    <property name="mlt_service">volume</property>
    <property name="kdenlive_id">volume</property>
    <property name="tag">volume</property>
    <property name="kdenlive_ix">1</property>
    <property name="kdenlive_info"/>
    <property name="disable"/>
    <property name="gain">0.6</property>
    <property name="end">0.6</property>
   </filter>
  </entry>
  <entry out="66910" in="66854" producer="3_playlist5">
   <filter id="filter824" out="66910" in="66854">
    <property name="window">75</property>
    <property name="max_gain">20dB</property>
    <property name="mlt_type">filter</property>
    <property name="mlt_service">volume</property>
    <property name="kdenlive_id">volume</property>
    <property name="tag">volume</property>
    <property name="kdenlive_ix">1</property>
    <property name="kdenlive_info"/>
    <property name="disable"/>
    <property name="gain">0.6</property>
    <property name="end">0.6</property>
   </filter>
  </entry>
  <entry out="66988" in="66951" producer="3_playlist5">
   <filter id="filter825">
    <property name="window">75</property>
    <property name="max_gain">20dB</property>
    <property name="mlt_type">filter</property>
    <property name="mlt_service">volume</property>
    <property name="kdenlive_id">mute</property>
    <property name="tag">volume</property>
    <property name="kdenlive_ix">1</property>
    <property name="kdenlive_info"/>
    <property name="disable"/>
    <property name="gain">0</property>
   </filter>
  </entry>
  <blank length="34"/>
  <entry out="69414" in="67267" producer="3_playlist5">
   <filter id="filter826" out="67662" in="67267">
    <property name="window">75</property>
    <property name="max_gain">20dB</property>
    <property name="mlt_type">filter</property>
    <property name="mlt_service">volume</property>
    <property name="kdenlive_id">volume</property>
    <property name="tag">volume</property>
    <property name="kdenlive_ix">1</property>
    <property name="kdenlive_info"/>
    <property name="disable"/>
    <property name="gain">1</property>
    <property name="end">1</property>
   </filter>
   <filter id="filter827" out="67753" in="67663">
    <property name="window">75</property>
    <property name="max_gain">20dB</property>
    <property name="mlt_type">filter</property>
    <property name="mlt_service">volume</property>
    <property name="kdenlive_id">volume</property>
    <property name="tag">volume</property>
    <property name="kdenlive_ix">1</property>
    <property name="kdenlive_info"/>
    <property name="disable"/>
    <property name="gain">0.995604</property>
    <property name="end">0.6</property>
   </filter>
   <filter id="filter828" out="69414" in="67754">
    <property name="window">75</property>
    <property name="max_gain">20dB</property>
    <property name="mlt_type">filter</property>
    <property name="mlt_service">volume</property>
    <property name="kdenlive_id">volume</property>
    <property name="tag">volume</property>
    <property name="kdenlive_ix">1</property>
    <property name="kdenlive_info"/>
    <property name="disable"/>
    <property name="gain">0.6</property>
    <property name="end">0.6</property>
   </filter>
  </entry>
  <entry out="70056" in="69713" producer="3_playlist5">
   <filter id="filter829" out="70056" in="69713">
    <property name="window">75</property>
    <property name="max_gain">20dB</property>
    <property name="mlt_type">filter</property>
    <property name="mlt_service">volume</property>
    <property name="kdenlive_id">volume</property>
    <property name="tag">volume</property>
    <property name="kdenlive_ix">1</property>
    <property name="kdenlive_info"/>
    <property name="disable"/>
    <property name="gain">1</property>
    <property name="end">1</property>
   </filter>
  </entry>
  <entry out="71131" in="70230" producer="3_playlist5">
   <filter id="filter830" out="71131" in="71024">
    <property name="window">75</property>
    <property name="max_gain">20dB</property>
    <property name="mlt_type">filter</property>
    <property name="mlt_service">volume</property>
    <property name="kdenlive_id">fadeout</property>
    <property name="tag">volume</property>
    <property name="kdenlive_ix">1</property>
    <property name="kdenlive_info"/>
    <property name="disable"/>
    <property name="gain">1</property>
    <property name="end">0</property>
   </filter>
   <filter id="filter831" out="70280" in="70230">
    <property name="window">75</property>
    <property name="max_gain">20dB</property>
    <property name="mlt_type">filter</property>
    <property name="mlt_service">volume</property>
    <property name="kdenlive_id">volume</property>
    <property name="tag">volume</property>
    <property name="kdenlive_ix">2</property>
    <property name="kdenlive_info"/>
    <property name="disable"/>
    <property name="gain">0</property>
    <property name="end">0</property>
   </filter>
   <filter id="filter832" out="70296" in="70281">
    <property name="window">75</property>
    <property name="max_gain">20dB</property>
    <property name="mlt_type">filter</property>
    <property name="mlt_service">volume</property>
    <property name="kdenlive_id">volume</property>
    <property name="tag">volume</property>
    <property name="kdenlive_ix">2</property>
    <property name="kdenlive_info"/>
    <property name="disable"/>
    <property name="gain">0.0625</property>
    <property name="end">1</property>
   </filter>
   <filter id="filter833" out="71131" in="70297">
    <property name="window">75</property>
    <property name="max_gain">20dB</property>
    <property name="mlt_type">filter</property>
    <property name="mlt_service">volume</property>
    <property name="kdenlive_id">volume</property>
    <property name="tag">volume</property>
    <property name="kdenlive_ix">2</property>
    <property name="kdenlive_info"/>
    <property name="disable"/>
    <property name="gain">1</property>
    <property name="end">1</property>
   </filter>
  </entry>
  <entry out="73726" in="72325" producer="3_playlist5"/>
  <entry out="87264" in="82659" producer="3_playlist5">
   <filter id="filter834" in="82644">
    <property name="window">75</property>
    <property name="max_gain">20dB</property>
    <property name="mlt_type">filter</property>
    <property name="mlt_service">volume</property>
    <property name="kdenlive_id">volume</property>
    <property name="tag">volume</property>
    <property name="kdenlive_ix">1</property>
    <property name="kdenlive_info"/>
    <property name="disable"/>
    <property name="gain">1</property>
   </filter>
  </entry>
  <entry out="91022" in="88149" producer="3_playlist5">
   <filter id="filter835" out="88237" in="88149">
    <property name="window">75</property>
    <property name="max_gain">20dB</property>
    <property name="mlt_type">filter</property>
    <property name="mlt_service">volume</property>
    <property name="kdenlive_id">volume</property>
    <property name="tag">volume</property>
    <property name="kdenlive_ix">1</property>
    <property name="kdenlive_info"/>
    <property name="disable"/>
    <property name="gain">0.7</property>
    <property name="end">1</property>
   </filter>
   <filter id="filter836" out="90443" in="88238">
    <property name="window">75</property>
    <property name="max_gain">20dB</property>
    <property name="mlt_type">filter</property>
    <property name="mlt_service">volume</property>
    <property name="kdenlive_id">volume</property>
    <property name="tag">volume</property>
    <property name="kdenlive_ix">1</property>
    <property name="kdenlive_info"/>
    <property name="disable"/>
    <property name="gain">1</property>
    <property name="end">1</property>
   </filter>
   <filter id="filter837" out="90502" in="90444">
    <property name="window">75</property>
    <property name="max_gain">20dB</property>
    <property name="mlt_type">filter</property>
    <property name="mlt_service">volume</property>
    <property name="kdenlive_id">volume</property>
    <property name="tag">volume</property>
    <property name="kdenlive_ix">1</property>
    <property name="kdenlive_info"/>
    <property name="disable"/>
    <property name="gain">0.994915</property>
    <property name="end">0.7</property>
   </filter>
   <filter id="filter838" out="90741" in="90503">
    <property name="window">75</property>
    <property name="max_gain">20dB</property>
    <property name="mlt_type">filter</property>
    <property name="mlt_service">volume</property>
    <property name="kdenlive_id">volume</property>
    <property name="tag">volume</property>
    <property name="kdenlive_ix">1</property>
    <property name="kdenlive_info"/>
    <property name="disable"/>
    <property name="gain">0.7</property>
    <property name="end">0.7</property>
   </filter>
   <filter id="filter839" out="90810" in="90742">
    <property name="window">75</property>
    <property name="max_gain">20dB</property>
    <property name="mlt_type">filter</property>
    <property name="mlt_service">volume</property>
    <property name="kdenlive_id">volume</property>
    <property name="tag">volume</property>
    <property name="kdenlive_ix">1</property>
    <property name="kdenlive_info"/>
    <property name="disable"/>
    <property name="gain">0.697971</property>
    <property name="end">0.56</property>
   </filter>
   <filter id="filter840" out="90889" in="90811">
    <property name="window">75</property>
    <property name="max_gain">20dB</property>
    <property name="mlt_type">filter</property>
    <property name="mlt_service">volume</property>
    <property name="kdenlive_id">volume</property>
    <property name="tag">volume</property>
    <property name="kdenlive_ix">1</property>
    <property name="kdenlive_info"/>
    <property name="disable"/>
    <property name="gain">0.559241</property>
    <property name="end">0.5</property>
   </filter>
   <filter id="filter841" out="91000" in="90890">
    <property name="window">75</property>
    <property name="max_gain">20dB</property>
    <property name="mlt_type">filter</property>
    <property name="mlt_service">volume</property>
    <property name="kdenlive_id">volume</property>
    <property name="tag">volume</property>
    <property name="kdenlive_ix">1</property>
    <property name="kdenlive_info"/>
    <property name="disable"/>
    <property name="gain">0.5</property>
    <property name="end">0.5</property>
   </filter>
   <filter id="filter842" out="91022" in="91001">
    <property name="window">75</property>
    <property name="max_gain">20dB</property>
    <property name="mlt_type">filter</property>
    <property name="mlt_service">volume</property>
    <property name="kdenlive_id">volume</property>
    <property name="tag">volume</property>
    <property name="kdenlive_ix">1</property>
    <property name="kdenlive_info"/>
    <property name="disable"/>
    <property name="gain">0.5</property>
    <property name="end">0.5</property>
   </filter>
  </entry>
  <entry out="91779" in="91344" producer="3_playlist5">
   <filter id="filter843" out="91779" in="91344">
    <property name="window">75</property>
    <property name="max_gain">20dB</property>
    <property name="mlt_type">filter</property>
    <property name="mlt_service">volume</property>
    <property name="kdenlive_id">volume</property>
    <property name="tag">volume</property>
    <property name="kdenlive_ix">1</property>
    <property name="kdenlive_info"/>
    <property name="disable"/>
    <property name="gain">0.5</property>
    <property name="end">0.5</property>
   </filter>
   <filter id="filter844" out="91779" in="91704">
    <property name="window">75</property>
    <property name="max_gain">20dB</property>
    <property name="mlt_type">filter</property>
    <property name="mlt_service">volume</property>
    <property name="kdenlive_id">fadeout</property>
    <property name="tag">volume</property>
    <property name="kdenlive_ix">2</property>
    <property name="kdenlive_info"/>
    <property name="disable"/>
    <property name="gain">1</property>
    <property name="end">0</property>
   </filter>
  </entry>
  <entry out="101380" in="92244" producer="3_playlist5">
   <filter id="filter845" out="92617" in="92244">
    <property name="window">75</property>
    <property name="max_gain">20dB</property>
    <property name="mlt_type">filter</property>
    <property name="mlt_service">volume</property>
    <property name="kdenlive_id">volume</property>
    <property name="tag">volume</property>
    <property name="kdenlive_ix">1</property>
    <property name="kdenlive_info"/>
    <property name="disable"/>
    <property name="gain">0.5</property>
    <property name="end">1</property>
   </filter>
   <filter id="filter846" out="101339" in="92618">
    <property name="window">75</property>
    <property name="max_gain">20dB</property>
    <property name="mlt_type">filter</property>
    <property name="mlt_service">volume</property>
    <property name="kdenlive_id">volume</property>
    <property name="tag">volume</property>
    <property name="kdenlive_ix">1</property>
    <property name="kdenlive_info"/>
    <property name="disable"/>
    <property name="gain">1</property>
    <property name="end">1</property>
   </filter>
   <filter id="filter847" out="101380" in="101340">
    <property name="window">75</property>
    <property name="max_gain">20dB</property>
    <property name="mlt_type">filter</property>
    <property name="mlt_service">volume</property>
    <property name="kdenlive_id">volume</property>
    <property name="tag">volume</property>
    <property name="kdenlive_ix">1</property>
    <property name="kdenlive_info"/>
    <property name="disable"/>
    <property name="gain">0.987805</property>
    <property name="end">0.5</property>
   </filter>
  </entry>
  <entry out="103496" in="102434" producer="3_playlist5">
   <filter id="filter848" out="103496" in="103421">
    <property name="window">75</property>
    <property name="max_gain">20dB</property>
    <property name="mlt_type">filter</property>
    <property name="mlt_service">volume</property>
    <property name="kdenlive_id">fadeout</property>
    <property name="tag">volume</property>
    <property name="kdenlive_ix">1</property>
    <property name="kdenlive_info"/>
    <property name="disable"/>
    <property name="gain">1</property>
    <property name="end">0</property>
   </filter>
   <filter id="filter849" in="82644">
    <property name="window">75</property>
    <property name="max_gain">20dB</property>
    <property name="mlt_type">filter</property>
    <property name="mlt_service">volume</property>
    <property name="kdenlive_id">volume</property>
    <property name="tag">volume</property>
    <property name="kdenlive_ix">2</property>
    <property name="kdenlive_info"/>
    <property name="disable"/>
    <property name="gain">1</property>
   </filter>
  </entry>
  <entry out="120340" in="118545" producer="3_playlist5">
   <filter id="filter850" out="118997" in="118545">
    <property name="window">75</property>
    <property name="max_gain">20dB</property>
    <property name="mlt_type">filter</property>
    <property name="mlt_service">volume</property>
    <property name="kdenlive_id">volume</property>
    <property name="tag">volume</property>
    <property name="kdenlive_ix">1</property>
    <property name="kdenlive_info"/>
    <property name="disable"/>
    <property name="gain">1</property>
    <property name="end">1</property>
   </filter>
   <filter id="filter851" out="119151" in="118998">
    <property name="window">75</property>
    <property name="max_gain">20dB</property>
    <property name="mlt_type">filter</property>
    <property name="mlt_service">volume</property>
    <property name="kdenlive_id">volume</property>
    <property name="tag">volume</property>
    <property name="kdenlive_ix">1</property>
    <property name="kdenlive_info"/>
    <property name="disable"/>
    <property name="gain">0.996753</property>
    <property name="end">0.5</property>
   </filter>
   <filter id="filter852" out="119875" in="119152">
    <property name="window">75</property>
    <property name="max_gain">20dB</property>
    <property name="mlt_type">filter</property>
    <property name="mlt_service">volume</property>
    <property name="kdenlive_id">volume</property>
    <property name="tag">volume</property>
    <property name="kdenlive_ix">1</property>
    <property name="kdenlive_info"/>
    <property name="disable"/>
    <property name="gain">0.5</property>
    <property name="end">0.5</property>
   </filter>
   <filter id="filter853" out="120045" in="119876">
    <property name="window">75</property>
    <property name="max_gain">20dB</property>
    <property name="mlt_type">filter</property>
    <property name="mlt_service">volume</property>
    <property name="kdenlive_id">volume</property>
    <property name="tag">volume</property>
    <property name="kdenlive_ix">1</property>
    <property name="kdenlive_info"/>
    <property name="disable"/>
    <property name="gain">0.502941</property>
    <property name="end">1</property>
   </filter>
   <filter id="filter854" out="120335" in="120046">
    <property name="window">75</property>
    <property name="max_gain">20dB</property>
    <property name="mlt_type">filter</property>
    <property name="mlt_service">volume</property>
    <property name="kdenlive_id">volume</property>
    <property name="tag">volume</property>
    <property name="kdenlive_ix">1</property>
    <property name="kdenlive_info"/>
    <property name="disable"/>
    <property name="gain">1</property>
    <property name="end">1</property>
   </filter>
   <filter id="filter855" out="120340" in="120336">
    <property name="window">75</property>
    <property name="max_gain">20dB</property>
    <property name="mlt_type">filter</property>
    <property name="mlt_service">volume</property>
    <property name="kdenlive_id">volume</property>
    <property name="tag">volume</property>
    <property name="kdenlive_ix">1</property>
    <property name="kdenlive_info"/>
    <property name="disable"/>
    <property name="gain">0.8</property>
    <property name="end">0</property>
   </filter>
  </entry>
  <entry out="121053" in="120543" producer="3_playlist5">
   <filter id="filter856" out="121053" in="120543">
    <property name="window">75</property>
    <property name="max_gain">20dB</property>
    <property name="mlt_type">filter</property>
    <property name="mlt_service">volume</property>
    <property name="kdenlive_id">volume</property>
    <property name="tag">volume</property>
    <property name="kdenlive_ix">1</property>
    <property name="kdenlive_info"/>
    <property name="disable"/>
    <property name="gain">1</property>
    <property name="end">1</property>
   </filter>
  </entry>
  <entry out="123326" in="122196" producer="3_playlist5">
   <filter id="filter857" in="122196">
    <property name="window">75</property>
    <property name="max_gain">20dB</property>
    <property name="mlt_type">filter</property>
    <property name="mlt_service">volume</property>
    <property name="kdenlive_id">volume</property>
    <property name="tag">volume</property>
    <property name="kdenlive_ix">1</property>
    <property name="kdenlive_info"/>
    <property name="disable"/>
    <property name="gain">1</property>
   </filter>
   <filter id="filter858" out="122271" in="122196">
    <property name="window">75</property>
    <property name="max_gain">20dB</property>
    <property name="mlt_type">filter</property>
    <property name="mlt_service">volume</property>
    <property name="kdenlive_id">fadein</property>
    <property name="tag">volume</property>
    <property name="kdenlive_ix">2</property>
    <property name="kdenlive_info"/>
    <property name="disable"/>
    <property name="gain">0</property>
    <property name="end">1</property>
   </filter>
  </entry>
  <entry out="124060" in="123661" producer="3_playlist5">
   <filter id="filter859" out="123748" in="123661">
    <property name="window">75</property>
    <property name="max_gain">20dB</property>
    <property name="mlt_type">filter</property>
    <property name="mlt_service">volume</property>
    <property name="kdenlive_id">volume</property>
    <property name="tag">volume</property>
    <property name="kdenlive_ix">1</property>
    <property name="kdenlive_info"/>
    <property name="disable"/>
    <property name="gain">0.7</property>
    <property name="end">1</property>
   </filter>
   <filter id="filter860" out="124060" in="123749">
    <property name="window">75</property>
    <property name="max_gain">20dB</property>
    <property name="mlt_type">filter</property>
    <property name="mlt_service">volume</property>
    <property name="kdenlive_id">volume</property>
    <property name="tag">volume</property>
    <property name="kdenlive_ix">1</property>
    <property name="kdenlive_info"/>
    <property name="disable"/>
    <property name="gain">1</property>
    <property name="end">1</property>
   </filter>
  </entry>
  <blank length="1475"/>
  <entry out="127584" in="126369" producer="3_playlist5"/>
  <entry out="129006" in="127929" producer="3_playlist5">
   <filter id="filter861" out="128899" in="127929">
    <property name="window">75</property>
    <property name="max_gain">20dB</property>
    <property name="mlt_type">filter</property>
    <property name="mlt_service">volume</property>
    <property name="kdenlive_id">volume</property>
    <property name="tag">volume</property>
    <property name="kdenlive_ix">1</property>
    <property name="kdenlive_info"/>
    <property name="disable"/>
    <property name="gain">1</property>
    <property name="end">1</property>
   </filter>
   <filter id="filter862" out="128910" in="128900">
    <property name="window">75</property>
    <property name="max_gain">20dB</property>
    <property name="mlt_type">filter</property>
    <property name="mlt_service">volume</property>
    <property name="kdenlive_id">volume</property>
    <property name="tag">volume</property>
    <property name="kdenlive_ix">1</property>
    <property name="kdenlive_info"/>
    <property name="disable"/>
    <property name="gain">0.936364</property>
    <property name="end">0.3</property>
   </filter>
   <filter id="filter863" out="128932" in="128911">
    <property name="window">75</property>
    <property name="max_gain">20dB</property>
    <property name="mlt_type">filter</property>
    <property name="mlt_service">volume</property>
    <property name="kdenlive_id">volume</property>
    <property name="tag">volume</property>
    <property name="kdenlive_ix">1</property>
    <property name="kdenlive_info"/>
    <property name="disable"/>
    <property name="gain">0.3</property>
    <property name="end">0.3</property>
   </filter>
   <filter id="filter864" out="128944" in="128933">
    <property name="window">75</property>
    <property name="max_gain">20dB</property>
    <property name="mlt_type">filter</property>
    <property name="mlt_service">volume</property>
    <property name="kdenlive_id">volume</property>
    <property name="tag">volume</property>
    <property name="kdenlive_ix">1</property>
    <property name="kdenlive_info"/>
    <property name="disable"/>
    <property name="gain">0.316667</property>
    <property name="end">0.5</property>
   </filter>
   <filter id="filter865" out="128958" in="128945">
    <property name="window">75</property>
    <property name="max_gain">20dB</property>
    <property name="mlt_type">filter</property>
    <property name="mlt_service">volume</property>
    <property name="kdenlive_id">volume</property>
    <property name="tag">volume</property>
    <property name="kdenlive_ix">1</property>
    <property name="kdenlive_info"/>
    <property name="disable"/>
    <property name="gain">0.5</property>
    <property name="end">0.5</property>
   </filter>
   <filter id="filter866" out="128976" in="128959">
    <property name="window">75</property>
    <property name="max_gain">20dB</property>
    <property name="mlt_type">filter</property>
    <property name="mlt_service">volume</property>
    <property name="kdenlive_id">volume</property>
    <property name="tag">volume</property>
    <property name="kdenlive_ix">1</property>
    <property name="kdenlive_info"/>
    <property name="disable"/>
    <property name="gain">0.472222</property>
    <property name="end">0</property>
   </filter>
   <filter id="filter867" out="128993" in="128977">
    <property name="window">75</property>
    <property name="max_gain">20dB</property>
    <property name="mlt_type">filter</property>
    <property name="mlt_service">volume</property>
    <property name="kdenlive_id">volume</property>
    <property name="tag">volume</property>
    <property name="kdenlive_ix">1</property>
    <property name="kdenlive_info"/>
    <property name="disable"/>
    <property name="gain">0</property>
    <property name="end">0</property>
   </filter>
   <filter id="filter868" out="129006" in="128994">
    <property name="window">75</property>
    <property name="max_gain">20dB</property>
    <property name="mlt_type">filter</property>
    <property name="mlt_service">volume</property>
    <property name="kdenlive_id">volume</property>
    <property name="tag">volume</property>
    <property name="kdenlive_ix">1</property>
    <property name="kdenlive_info"/>
    <property name="disable"/>
    <property name="gain">0</property>
    <property name="end">0</property>
   </filter>
  </entry>
  <entry out="129274" in="129217" producer="3_playlist5">
   <filter id="filter869">
    <property name="window">75</property>
    <property name="max_gain">20dB</property>
    <property name="mlt_type">filter</property>
    <property name="mlt_service">volume</property>
    <property name="kdenlive_id">mute</property>
    <property name="tag">volume</property>
    <property name="kdenlive_ix">1</property>
    <property name="kdenlive_info"/>
    <property name="disable"/>
    <property name="gain">0</property>
   </filter>
  </entry>
  <entry out="129857" in="129477" producer="3_playlist5">
   <filter id="filter870" out="129857" in="129840">
    <property name="window">75</property>
    <property name="max_gain">20dB</property>
    <property name="mlt_type">filter</property>
    <property name="mlt_service">volume</property>
    <property name="kdenlive_id">fadeout</property>
    <property name="tag">volume</property>
    <property name="kdenlive_ix">1</property>
    <property name="kdenlive_info"/>
    <property name="disable"/>
    <property name="gain">1</property>
    <property name="end">0</property>
   </filter>
  </entry>
  <entry out="130676" in="130230" producer="3_playlist5">
   <filter id="filter871" out="130676" in="130230">
    <property name="window">75</property>
    <property name="max_gain">20dB</property>
    <property name="mlt_type">filter</property>
    <property name="mlt_service">volume</property>
    <property name="kdenlive_id">volume</property>
    <property name="tag">volume</property>
    <property name="kdenlive_ix">1</property>
    <property name="kdenlive_info"/>
    <property name="disable"/>
    <property name="gain">1</property>
    <property name="end">1</property>
   </filter>
  </entry>
  <entry out="131590" in="130793" producer="3_playlist5">
   <filter id="filter872" out="131590" in="130793">
    <property name="window">75</property>
    <property name="max_gain">20dB</property>
    <property name="mlt_type">filter</property>
    <property name="mlt_service">volume</property>
    <property name="kdenlive_id">volume</property>
    <property name="tag">volume</property>
    <property name="kdenlive_ix">1</property>
    <property name="kdenlive_info"/>
    <property name="disable"/>
    <property name="gain">1</property>
    <property name="end">1</property>
   </filter>
  </entry>
  <blank length="59"/>
  <entry out="145186" in="144821" producer="3_playlist5">
   <filter id="filter873" out="144865" in="144821">
    <property name="window">75</property>
    <property name="max_gain">20dB</property>
    <property name="mlt_type">filter</property>
    <property name="mlt_service">volume</property>
    <property name="kdenlive_id">fadein</property>
    <property name="tag">volume</property>
    <property name="kdenlive_ix">1</property>
    <property name="kdenlive_info"/>
    <property name="disable"/>
    <property name="gain">0</property>
    <property name="end">1</property>
   </filter>
   <filter id="filter874" out="145186" in="145157">
    <property name="window">75</property>
    <property name="max_gain">20dB</property>
    <property name="mlt_type">filter</property>
    <property name="mlt_service">volume</property>
    <property name="kdenlive_id">fadeout</property>
    <property name="tag">volume</property>
    <property name="kdenlive_ix">2</property>
    <property name="kdenlive_info"/>
    <property name="disable"/>
    <property name="gain">1</property>
    <property name="end">0</property>
   </filter>
  </entry>
  <entry out="146024" in="145652" producer="3_playlist5">
   <filter id="filter875">
    <property name="window">75</property>
    <property name="max_gain">20dB</property>
    <property name="mlt_type">filter</property>
    <property name="mlt_service">volume</property>
    <property name="kdenlive_id">mute</property>
    <property name="tag">volume</property>
    <property name="kdenlive_ix">1</property>
    <property name="kdenlive_info"/>
    <property name="disable"/>
    <property name="gain">0</property>
   </filter>
  </entry>
  <entry out="146415" in="146066" producer="3_playlist5">
   <filter id="filter876" out="146343" in="146066">
    <property name="window">75</property>
    <property name="max_gain">20dB</property>
    <property name="mlt_type">filter</property>
    <property name="mlt_service">volume</property>
    <property name="kdenlive_id">volume</property>
    <property name="tag">volume</property>
    <property name="kdenlive_ix">1</property>
    <property name="kdenlive_info"/>
    <property name="disable"/>
    <property name="gain">1</property>
    <property name="end">1</property>
   </filter>
   <filter id="filter877" out="146364" in="146344">
    <property name="window">75</property>
    <property name="max_gain">20dB</property>
    <property name="mlt_type">filter</property>
    <property name="mlt_service">volume</property>
    <property name="kdenlive_id">volume</property>
    <property name="tag">volume</property>
    <property name="kdenlive_ix">1</property>
    <property name="kdenlive_info"/>
    <property name="disable"/>
    <property name="gain">0.978571</property>
    <property name="end">0.55</property>
   </filter>
   <filter id="filter878" out="146376" in="146365">
    <property name="window">75</property>
    <property name="max_gain">20dB</property>
    <property name="mlt_type">filter</property>
    <property name="mlt_service">volume</property>
    <property name="kdenlive_id">volume</property>
    <property name="tag">volume</property>
    <property name="kdenlive_ix">1</property>
    <property name="kdenlive_info"/>
    <property name="disable"/>
    <property name="gain">0.504167</property>
    <property name="end">0</property>
   </filter>
   <filter id="filter879" out="146408" in="146377">
    <property name="window">75</property>
    <property name="max_gain">20dB</property>
    <property name="mlt_type">filter</property>
    <property name="mlt_service">volume</property>
    <property name="kdenlive_id">volume</property>
    <property name="tag">volume</property>
    <property name="kdenlive_ix">1</property>
    <property name="kdenlive_info"/>
    <property name="disable"/>
    <property name="gain">0</property>
    <property name="end">0</property>
   </filter>
   <filter id="filter880" out="146415" in="146409">
    <property name="window">75</property>
    <property name="max_gain">20dB</property>
    <property name="mlt_type">filter</property>
    <property name="mlt_service">volume</property>
    <property name="kdenlive_id">volume</property>
    <property name="tag">volume</property>
    <property name="kdenlive_ix">1</property>
    <property name="kdenlive_info"/>
    <property name="disable"/>
    <property name="gain">0</property>
    <property name="end">0</property>
   </filter>
  </entry>
  <entry out="150700" in="149640" producer="3_playlist5">
   <filter id="filter881" out="149640" in="149471">
    <property name="window">75</property>
    <property name="max_gain">20dB</property>
    <property name="mlt_type">filter</property>
    <property name="mlt_service">volume</property>
    <property name="kdenlive_id">volume</property>
    <property name="tag">volume</property>
    <property name="kdenlive_ix">1</property>
    <property name="kdenlive_info"/>
    <property name="disable"/>
    <property name="gain">2.31</property>
    <property name="end">0.52</property>
   </filter>
   <filter id="filter882" out="149643" in="149641">
    <property name="window">75</property>
    <property name="max_gain">20dB</property>
    <property name="mlt_type">filter</property>
    <property name="mlt_service">volume</property>
    <property name="kdenlive_id">volume</property>
    <property name="tag">volume</property>
    <property name="kdenlive_ix">1</property>
    <property name="kdenlive_info"/>
    <property name="disable"/>
    <property name="gain">0.546667</property>
    <property name="end">0.6</property>
   </filter>
   <filter id="filter883" out="149908" in="149644">
    <property name="window">75</property>
    <property name="max_gain">20dB</property>
    <property name="mlt_type">filter</property>
    <property name="mlt_service">volume</property>
    <property name="kdenlive_id">volume</property>
    <property name="tag">volume</property>
    <property name="kdenlive_ix">1</property>
    <property name="kdenlive_info"/>
    <property name="disable"/>
    <property name="gain">0.6</property>
    <property name="end">0.6</property>
   </filter>
   <filter id="filter884" out="149988" in="149909">
    <property name="window">75</property>
    <property name="max_gain">20dB</property>
    <property name="mlt_type">filter</property>
    <property name="mlt_service">volume</property>
    <property name="kdenlive_id">volume</property>
    <property name="tag">volume</property>
    <property name="kdenlive_ix">1</property>
    <property name="kdenlive_info"/>
    <property name="disable"/>
    <property name="gain">0.6025</property>
    <property name="end">0.8</property>
   </filter>
   <filter id="filter885" out="150086" in="149989">
    <property name="window">75</property>
    <property name="max_gain">20dB</property>
    <property name="mlt_type">filter</property>
    <property name="mlt_service">volume</property>
    <property name="kdenlive_id">volume</property>
    <property name="tag">volume</property>
    <property name="kdenlive_ix">1</property>
    <property name="kdenlive_info"/>
    <property name="disable"/>
    <property name="gain">0.8</property>
    <property name="end">0.8</property>
   </filter>
   <filter id="filter886" out="150132" in="150087">
    <property name="window">75</property>
    <property name="max_gain">20dB</property>
    <property name="mlt_type">filter</property>
    <property name="mlt_service">volume</property>
    <property name="kdenlive_id">volume</property>
    <property name="tag">volume</property>
    <property name="kdenlive_ix">1</property>
    <property name="kdenlive_info"/>
    <property name="disable"/>
    <property name="gain">0.794783</property>
    <property name="end">0.56</property>
   </filter>
   <filter id="filter887" out="150153" in="150133">
    <property name="window">75</property>
    <property name="max_gain">20dB</property>
    <property name="mlt_type">filter</property>
    <property name="mlt_service">volume</property>
    <property name="kdenlive_id">volume</property>
    <property name="tag">volume</property>
    <property name="kdenlive_ix">1</property>
    <property name="kdenlive_info"/>
    <property name="disable"/>
    <property name="gain">0.557143</property>
    <property name="end">0.5</property>
   </filter>
   <filter id="filter888" out="150172" in="150154">
    <property name="window">75</property>
    <property name="max_gain">20dB</property>
    <property name="mlt_type">filter</property>
    <property name="mlt_service">volume</property>
    <property name="kdenlive_id">volume</property>
    <property name="tag">volume</property>
    <property name="kdenlive_ix">1</property>
    <property name="kdenlive_info"/>
    <property name="disable"/>
    <property name="gain">0.5</property>
    <property name="end">0.5</property>
   </filter>
   <filter id="filter889" out="150319" in="150173">
    <property name="window">75</property>
    <property name="max_gain">20dB</property>
    <property name="mlt_type">filter</property>
    <property name="mlt_service">volume</property>
    <property name="kdenlive_id">volume</property>
    <property name="tag">volume</property>
    <property name="kdenlive_ix">1</property>
    <property name="kdenlive_info"/>
    <property name="disable"/>
    <property name="gain">0.50068</property>
    <property name="end">0.6</property>
   </filter>
   <filter id="filter890" out="150323" in="150320">
    <property name="window">75</property>
    <property name="max_gain">20dB</property>
    <property name="mlt_type">filter</property>
    <property name="mlt_service">volume</property>
    <property name="kdenlive_id">volume</property>
    <property name="tag">volume</property>
    <property name="kdenlive_ix">1</property>
    <property name="kdenlive_info"/>
    <property name="disable"/>
    <property name="gain">0.65</property>
    <property name="end">0.8</property>
   </filter>
   <filter id="filter891" out="150679" in="150324">
    <property name="window">75</property>
    <property name="max_gain">20dB</property>
    <property name="mlt_type">filter</property>
    <property name="mlt_service">volume</property>
    <property name="kdenlive_id">volume</property>
    <property name="tag">volume</property>
    <property name="kdenlive_ix">1</property>
    <property name="kdenlive_info"/>
    <property name="disable"/>
    <property name="gain">0.8</property>
    <property name="end">0.8</property>
   </filter>
   <filter id="filter892" out="150684" in="150680">
    <property name="window">75</property>
    <property name="max_gain">20dB</property>
    <property name="mlt_type">filter</property>
    <property name="mlt_service">volume</property>
    <property name="kdenlive_id">volume</property>
    <property name="tag">volume</property>
    <property name="kdenlive_ix">1</property>
    <property name="kdenlive_info"/>
    <property name="disable"/>
    <property name="gain">0.64</property>
    <property name="end">0</property>
   </filter>
   <filter id="filter893" out="150700" in="150685">
    <property name="window">75</property>
    <property name="max_gain">20dB</property>
    <property name="mlt_type">filter</property>
    <property name="mlt_service">volume</property>
    <property name="kdenlive_id">volume</property>
    <property name="tag">volume</property>
    <property name="kdenlive_ix">1</property>
    <property name="kdenlive_info"/>
    <property name="disable"/>
    <property name="gain">0</property>
    <property name="end">0</property>
   </filter>
  </entry>
  <entry out="152155" in="152137" producer="3_playlist5">
   <filter id="filter894">
    <property name="window">75</property>
    <property name="max_gain">20dB</property>
    <property name="mlt_type">filter</property>
    <property name="mlt_service">volume</property>
    <property name="kdenlive_id">mute</property>
    <property name="tag">volume</property>
    <property name="kdenlive_ix">1</property>
    <property name="kdenlive_info"/>
    <property name="disable"/>
    <property name="gain">0</property>
   </filter>
  </entry>
  <entry out="155481" in="155424" producer="3_playlist5">
   <filter id="filter895" in="155424">
    <property name="window">75</property>
    <property name="max_gain">20dB</property>
    <property name="mlt_type">filter</property>
    <property name="mlt_service">volume</property>
    <property name="kdenlive_id">volume</property>
    <property name="tag">volume</property>
    <property name="kdenlive_ix">1</property>
    <property name="kdenlive_info"/>
    <property name="disable"/>
    <property name="gain">0</property>
   </filter>
   <filter id="filter896">
    <property name="mlt_type">filter</property>
    <property name="mlt_service">crop</property>
    <property name="kdenlive_id">crop</property>
    <property name="tag">crop</property>
    <property name="kdenlive_ix">2</property>
    <property name="kdenlive_info"/>
    <property name="disable"/>
    <property name="top">108</property>
    <property name="left">384</property>
    <property name="bottom">108</property>
    <property name="right">0</property>
    <property name="center">0</property>
    <property name="center_bias">0</property>
    <property name="use_profile">1</property>
   </filter>
  </entry>
  <entry out="155734" in="155553" producer="3_playlist5">
   <filter id="filter897" out="155658" in="155553">
    <property name="window">75</property>
    <property name="max_gain">20dB</property>
    <property name="mlt_type">filter</property>
    <property name="mlt_service">volume</property>
    <property name="kdenlive_id">volume</property>
    <property name="tag">volume</property>
    <property name="kdenlive_ix">1</property>
    <property name="kdenlive_info"/>
    <property name="disable"/>
    <property name="gain">1</property>
    <property name="end">1</property>
   </filter>
   <filter id="filter898" out="155697" in="155659">
    <property name="window">75</property>
    <property name="max_gain">20dB</property>
    <property name="mlt_type">filter</property>
    <property name="mlt_service">volume</property>
    <property name="kdenlive_id">volume</property>
    <property name="tag">volume</property>
    <property name="kdenlive_ix">1</property>
    <property name="kdenlive_info"/>
    <property name="disable"/>
    <property name="gain">0.974359</property>
    <property name="end">0</property>
   </filter>
   <filter id="filter899" out="155735" in="155698">
    <property name="window">75</property>
    <property name="max_gain">20dB</property>
    <property name="mlt_type">filter</property>
    <property name="mlt_service">volume</property>
    <property name="kdenlive_id">volume</property>
    <property name="tag">volume</property>
    <property name="kdenlive_ix">1</property>
    <property name="kdenlive_info"/>
    <property name="disable"/>
    <property name="gain">0</property>
    <property name="end">0</property>
   </filter>
  </entry>
  <entry out="152010" in="150764" producer="3_playlist5">
   <filter id="filter761" out="151360" in="150764">
    <property name="window">75</property>
    <property name="max_gain">20dB</property>
    <property name="mlt_type">filter</property>
    <property name="mlt_service">volume</property>
    <property name="kdenlive_id">volume</property>
    <property name="tag">volume</property>
    <property name="kdenlive_ix">1</property>
    <property name="kdenlive_info"/>
    <property name="disable"/>
    <property name="gain">0.8</property>
    <property name="end">0.8</property>
   </filter>
   <filter id="filter762" out="151387" in="151361">
    <property name="window">75</property>
    <property name="max_gain">20dB</property>
    <property name="mlt_type">filter</property>
    <property name="mlt_service">volume</property>
    <property name="kdenlive_id">volume</property>
    <property name="tag">volume</property>
    <property name="kdenlive_ix">1</property>
    <property name="kdenlive_info"/>
    <property name="disable"/>
    <property name="gain">0.792593</property>
    <property name="end">0.6</property>
   </filter>
   <filter id="filter763" out="152010" in="151388">
    <property name="window">75</property>
    <property name="max_gain">20dB</property>
    <property name="mlt_type">filter</property>
    <property name="mlt_service">volume</property>
    <property name="kdenlive_id">volume</property>
    <property name="tag">volume</property>
    <property name="kdenlive_ix">1</property>
    <property name="kdenlive_info"/>
    <property name="disable"/>
    <property name="gain">0.600161</property>
    <property name="end">0.7</property>
   </filter>
  </entry>
  <entry out="150716" in="150701" producer="3_playlist5">
   <filter id="filter903" out="150716" in="150701">
    <property name="window">75</property>
    <property name="max_gain">20dB</property>
    <property name="mlt_type">filter</property>
    <property name="mlt_service">volume</property>
    <property name="kdenlive_id">volume</property>
    <property name="tag">volume</property>
    <property name="kdenlive_ix">1</property>
    <property name="kdenlive_info"/>
    <property name="disable"/>
    <property name="gain">0.8</property>
    <property name="end">0.8</property>
   </filter>
  </entry>
  <entry out="154334" in="154293" producer="3_playlist5">
   <filter id="filter904">
    <property name="window">75</property>
    <property name="max_gain">20dB</property>
    <property name="mlt_type">filter</property>
    <property name="mlt_service">volume</property>
    <property name="kdenlive_id">mute</property>
    <property name="tag">volume</property>
    <property name="kdenlive_ix">1</property>
    <property name="kdenlive_info"/>
    <property name="disable"/>
    <property name="gain">0</property>
   </filter>
  </entry>
  <entry out="156684" in="155873" producer="3_playlist5">
   <filter id="filter764" out="155918" in="155873">
    <property name="window">75</property>
    <property name="max_gain">20dB</property>
    <property name="mlt_type">filter</property>
    <property name="mlt_service">volume</property>
    <property name="kdenlive_id">volume</property>
    <property name="tag">volume</property>
    <property name="kdenlive_ix">1</property>
    <property name="kdenlive_info"/>
    <property name="disable"/>
    <property name="gain">0</property>
    <property name="end">1</property>
   </filter>
   <filter id="filter765" out="156363" in="155919">
    <property name="window">75</property>
    <property name="max_gain">20dB</property>
    <property name="mlt_type">filter</property>
    <property name="mlt_service">volume</property>
    <property name="kdenlive_id">volume</property>
    <property name="tag">volume</property>
    <property name="kdenlive_ix">1</property>
    <property name="kdenlive_info"/>
    <property name="disable"/>
    <property name="gain">1</property>
    <property name="end">1</property>
   </filter>
   <filter id="filter766" out="156402" in="156364">
    <property name="window">75</property>
    <property name="max_gain">20dB</property>
    <property name="mlt_type">filter</property>
    <property name="mlt_service">volume</property>
    <property name="kdenlive_id">volume</property>
    <property name="tag">volume</property>
    <property name="kdenlive_ix">1</property>
    <property name="kdenlive_info"/>
    <property name="disable"/>
    <property name="gain">1</property>
    <property name="end">1</property>
   </filter>
   <filter id="filter767" out="156678" in="156403">
    <property name="window">75</property>
    <property name="max_gain">20dB</property>
    <property name="mlt_type">filter</property>
    <property name="mlt_service">volume</property>
    <property name="kdenlive_id">volume</property>
    <property name="tag">volume</property>
    <property name="kdenlive_ix">1</property>
    <property name="kdenlive_info"/>
    <property name="disable"/>
    <property name="gain">1</property>
    <property name="end">1</property>
   </filter>
   <filter id="filter768" out="156684" in="156679">
    <property name="window">75</property>
    <property name="max_gain">20dB</property>
    <property name="mlt_type">filter</property>
    <property name="mlt_service">volume</property>
    <property name="kdenlive_id">volume</property>
    <property name="tag">volume</property>
    <property name="kdenlive_ix">1</property>
    <property name="kdenlive_info"/>
    <property name="disable"/>
    <property name="gain">0.883333</property>
    <property name="end">0.3</property>
   </filter>
  </entry>
  <entry out="160789" in="160392" producer="3_playlist5">
   <filter id="filter910" in="155780">
    <property name="window">75</property>
    <property name="max_gain">20dB</property>
    <property name="mlt_type">filter</property>
    <property name="mlt_service">volume</property>
    <property name="kdenlive_id">volume</property>
    <property name="tag">volume</property>
    <property name="kdenlive_ix">1</property>
    <property name="kdenlive_info"/>
    <property name="disable"/>
    <property name="gain">1</property>
   </filter>
  </entry>
  <entry out="160945" in="160902" producer="3_playlist5">
   <filter id="filter911" in="155780">
    <property name="window">75</property>
    <property name="max_gain">20dB</property>
    <property name="mlt_type">filter</property>
    <property name="mlt_service">volume</property>
    <property name="kdenlive_id">volume</property>
    <property name="tag">volume</property>
    <property name="kdenlive_ix">1</property>
    <property name="kdenlive_info"/>
    <property name="disable"/>
    <property name="gain">1</property>
   </filter>
  </entry>
  <entry out="161164" in="161053" producer="3_playlist5">
   <filter id="filter912" out="161058" in="161055">
    <property name="window">75</property>
    <property name="max_gain">20dB</property>
    <property name="mlt_type">filter</property>
    <property name="mlt_service">volume</property>
    <property name="kdenlive_id">volume</property>
    <property name="tag">volume</property>
    <property name="kdenlive_ix">1</property>
    <property name="kdenlive_info"/>
    <property name="disable"/>
    <property name="gain">1</property>
    <property name="end">0.68</property>
   </filter>
   <filter id="filter913" out="161061" in="161059">
    <property name="window">75</property>
    <property name="max_gain">20dB</property>
    <property name="mlt_type">filter</property>
    <property name="mlt_service">volume</property>
    <property name="kdenlive_id">volume</property>
    <property name="tag">volume</property>
    <property name="kdenlive_ix">1</property>
    <property name="kdenlive_info"/>
    <property name="disable"/>
    <property name="gain">0.62</property>
    <property name="end">0.5</property>
   </filter>
   <filter id="filter914" out="161164" in="161062">
    <property name="window">75</property>
    <property name="max_gain">20dB</property>
    <property name="mlt_type">filter</property>
    <property name="mlt_service">volume</property>
    <property name="kdenlive_id">volume</property>
    <property name="tag">volume</property>
    <property name="kdenlive_ix">1</property>
    <property name="kdenlive_info"/>
    <property name="disable"/>
    <property name="gain">0.5</property>
    <property name="end">0.5</property>
   </filter>
  </entry>
  <entry out="162279" in="161366" producer="3_playlist5">
   <filter id="filter915" out="161468" in="161366">
    <property name="window">75</property>
    <property name="max_gain">20dB</property>
    <property name="mlt_type">filter</property>
    <property name="mlt_service">volume</property>
    <property name="kdenlive_id">volume</property>
    <property name="tag">volume</property>
    <property name="kdenlive_ix">1</property>
    <property name="kdenlive_info"/>
    <property name="disable"/>
    <property name="gain">0.5</property>
    <property name="end">0.5</property>
   </filter>
   <filter id="filter916" out="162279" in="161469">
    <property name="window">75</property>
    <property name="max_gain">20dB</property>
    <property name="mlt_type">filter</property>
    <property name="mlt_service">volume</property>
    <property name="kdenlive_id">volume</property>
    <property name="tag">volume</property>
    <property name="kdenlive_ix">1</property>
    <property name="kdenlive_info"/>
    <property name="disable"/>
    <property name="gain">0.5</property>
    <property name="end">0.5</property>
   </filter>
   <filter id="filter917" in="161359">
    <property name="window">75</property>
    <property name="max_gain">20dB</property>
    <property name="mlt_type">filter</property>
    <property name="mlt_service">volume</property>
    <property name="kdenlive_id">volume</property>
    <property name="tag">volume</property>
    <property name="kdenlive_ix">2</property>
    <property name="kdenlive_info"/>
    <property name="disable"/>
    <property name="gain">1</property>
   </filter>
  </entry>
  <entry out="163123" in="162658" producer="3_playlist5">
   <filter id="filter918" out="162733" in="162658">
    <property name="window">75</property>
    <property name="max_gain">20dB</property>
    <property name="mlt_type">filter</property>
    <property name="mlt_service">volume</property>
    <property name="kdenlive_id">fadein</property>
    <property name="tag">volume</property>
    <property name="kdenlive_ix">1</property>
    <property name="kdenlive_info"/>
    <property name="disable"/>
    <property name="gain">0</property>
    <property name="end">1</property>
   </filter>
   <filter id="filter919" in="155780">
    <property name="window">75</property>
    <property name="max_gain">20dB</property>
    <property name="mlt_type">filter</property>
    <property name="mlt_service">volume</property>
    <property name="kdenlive_id">volume</property>
    <property name="tag">volume</property>
    <property name="kdenlive_ix">2</property>
    <property name="kdenlive_info"/>
    <property name="disable"/>
    <property name="gain">1</property>
   </filter>
  </entry>
  <entry out="189808" in="187885" producer="3_playlist5">
   <filter id="filter920" out="188234" in="187885">
    <property name="window">75</property>
    <property name="max_gain">20dB</property>
    <property name="mlt_type">filter</property>
    <property name="mlt_service">volume</property>
    <property name="kdenlive_id">volume</property>
    <property name="tag">volume</property>
    <property name="kdenlive_ix">1</property>
    <property name="kdenlive_info"/>
    <property name="disable"/>
    <property name="gain">0.9</property>
    <property name="end">0.9</property>
   </filter>
   <filter id="filter921" out="188403" in="188235">
    <property name="window">75</property>
    <property name="max_gain">20dB</property>
    <property name="mlt_type">filter</property>
    <property name="mlt_service">volume</property>
    <property name="kdenlive_id">volume</property>
    <property name="tag">volume</property>
    <property name="kdenlive_ix">1</property>
    <property name="kdenlive_info"/>
    <property name="disable"/>
    <property name="gain">0.899408</property>
    <property name="end">0.8</property>
   </filter>
   <filter id="filter922" out="189765" in="188404">
    <property name="window">75</property>
    <property name="max_gain">20dB</property>
    <property name="mlt_type">filter</property>
    <property name="mlt_service">volume</property>
    <property name="kdenlive_id">volume</property>
    <property name="tag">volume</property>
    <property name="kdenlive_ix">1</property>
    <property name="kdenlive_info"/>
    <property name="disable"/>
    <property name="gain">0.8</property>
    <property name="end">0.8</property>
   </filter>
   <filter id="filter923" out="189766" in="189766">
    <property name="window">75</property>
    <property name="max_gain">20dB</property>
    <property name="mlt_type">filter</property>
    <property name="mlt_service">volume</property>
    <property name="kdenlive_id">volume</property>
    <property name="tag">volume</property>
    <property name="kdenlive_ix">1</property>
    <property name="kdenlive_info"/>
    <property name="disable"/>
    <property name="gain">0.8</property>
    <property name="end">0.8</property>
   </filter>
   <filter id="filter924" out="189787" in="189767">
    <property name="window">75</property>
    <property name="max_gain">20dB</property>
    <property name="mlt_type">filter</property>
    <property name="mlt_service">volume</property>
    <property name="kdenlive_id">volume</property>
    <property name="tag">volume</property>
    <property name="kdenlive_ix">1</property>
    <property name="kdenlive_info"/>
    <property name="disable"/>
    <property name="gain">0.77619</property>
    <property name="end">0.3</property>
   </filter>
   <filter id="filter925" out="189808" in="189788">
    <property name="window">75</property>
    <property name="max_gain">20dB</property>
    <property name="mlt_type">filter</property>
    <property name="mlt_service">volume</property>
    <property name="kdenlive_id">volume</property>
    <property name="tag">volume</property>
    <property name="kdenlive_ix">1</property>
    <property name="kdenlive_info"/>
    <property name="disable"/>
    <property name="gain">0.285714</property>
    <property name="end">0</property>
   </filter>
   <filter id="filter926" in="187885">
    <property name="window">75</property>
    <property name="max_gain">20dB</property>
    <property name="mlt_type">filter</property>
    <property name="mlt_service">volume</property>
    <property name="kdenlive_id">volume</property>
    <property name="tag">volume</property>
    <property name="kdenlive_ix">2</property>
    <property name="kdenlive_info"/>
    <property name="disable"/>
    <property name="gain">1</property>
   </filter>
  </entry>
  <entry out="190687" in="189999" producer="3_playlist5">
   <filter id="filter927" out="190649" in="189999">
    <property name="window">75</property>
    <property name="max_gain">20dB</property>
    <property name="mlt_type">filter</property>
    <property name="mlt_service">volume</property>
    <property name="kdenlive_id">volume</property>
    <property name="tag">volume</property>
    <property name="kdenlive_ix">1</property>
    <property name="kdenlive_info"/>
    <property name="disable"/>
    <property name="gain">0.8</property>
    <property name="end">0.8</property>
   </filter>
   <filter id="filter928" out="190687" in="190650">
    <property name="window">75</property>
    <property name="max_gain">20dB</property>
    <property name="mlt_type">filter</property>
    <property name="mlt_service">volume</property>
    <property name="kdenlive_id">volume</property>
    <property name="tag">volume</property>
    <property name="kdenlive_ix">1</property>
    <property name="kdenlive_info"/>
    <property name="disable"/>
    <property name="gain">0.8</property>
    <property name="end">0.8</property>
   </filter>
  </entry>
  <blank length="114"/>
  <entry out="187864" in="170592" producer="3_playlist5">
   <filter id="filter929" out="170667" in="170592">
    <property name="window">75</property>
    <property name="max_gain">20dB</property>
    <property name="mlt_type">filter</property>
    <property name="mlt_service">volume</property>
    <property name="kdenlive_id">fadein</property>
    <property name="tag">volume</property>
    <property name="kdenlive_ix">1</property>
    <property name="kdenlive_info"/>
    <property name="disable"/>
    <property name="gain">0</property>
    <property name="end">1</property>
   </filter>
   <filter id="filter930" in="170592">
    <property name="window">75</property>
    <property name="max_gain">20dB</property>
    <property name="mlt_type">filter</property>
    <property name="mlt_service">volume</property>
    <property name="kdenlive_id">volume</property>
    <property name="tag">volume</property>
    <property name="kdenlive_ix">2</property>
    <property name="kdenlive_info"/>
    <property name="disable"/>
    <property name="gain">1</property>
   </filter>
  </entry>
  <entry out="195954" in="195647" producer="3_playlist5">
   <filter id="filter751" out="195951" in="195647">
    <property name="window">75</property>
    <property name="max_gain">20dB</property>
    <property name="mlt_type">filter</property>
    <property name="mlt_service">volume</property>
    <property name="kdenlive_id">volume</property>
    <property name="tag">volume</property>
    <property name="kdenlive_ix">1</property>
    <property name="kdenlive_info"/>
    <property name="disable"/>
    <property name="gain">0.5</property>
    <property name="end">0.5</property>
   </filter>
   <filter id="filter752" out="195954" in="195952">
    <property name="window">75</property>
    <property name="max_gain">20dB</property>
    <property name="mlt_type">filter</property>
    <property name="mlt_service">volume</property>
    <property name="kdenlive_id">volume</property>
    <property name="tag">volume</property>
    <property name="kdenlive_ix">1</property>
    <property name="kdenlive_info"/>
    <property name="disable"/>
    <property name="gain">0.45</property>
    <property name="end">0.35</property>
   </filter>
  </entry>
  <entry out="196400" in="196231" producer="3_playlist5">
   <filter id="filter933" out="196366" in="196231">
    <property name="window">75</property>
    <property name="max_gain">20dB</property>
    <property name="mlt_type">filter</property>
    <property name="mlt_service">volume</property>
    <property name="kdenlive_id">volume</property>
    <property name="tag">volume</property>
    <property name="kdenlive_ix">1</property>
    <property name="kdenlive_info">0/-1/</property>
    <property name="disable"/>
    <property name="gain">0.5</property>
    <property name="end">0.5</property>
   </filter>
   <filter id="filter934" out="196401" in="196367">
    <property name="window">75</property>
    <property name="max_gain">20dB</property>
    <property name="mlt_type">filter</property>
    <property name="mlt_service">volume</property>
    <property name="kdenlive_id">volume</property>
    <property name="tag">volume</property>
    <property name="kdenlive_ix">1</property>
    <property name="kdenlive_info">0/-1/</property>
    <property name="disable"/>
    <property name="gain">0.491429</property>
    <property name="end">0.2</property>
   </filter>
   <filter id="pan_zoom" out="196400" in="196231">
    <property name="background">colour:0x00000000</property>
    <property name="mlt_type">filter</property>
    <property name="mlt_service">affine</property>
    <property name="kdenlive_id">pan_zoom</property>
    <property name="tag">affine</property>
    <property name="kdenlive_ix">2</property>
    <property name="kdenlive_info"/>
    <property name="disable">0</property>
    <property name="transition.geometry">0=0/0:1920x1080:100;109=0/0:1920x1080:100;145=-482/-39:2400x1350:100;161=-723/-58:2640x1485:100;169=-965/-78:2880x1620:100</property>
    <property name="transition.distort">0</property>
   </filter>
   <filter id="frei0r.letterb0xed">
    <property name="version">0.1</property>
    <property name="mlt_type">filter</property>
    <property name="mlt_service">frei0r.letterb0xed</property>
    <property name="kdenlive_id">frei0r.letterb0xed</property>
    <property name="tag">frei0r.letterb0xed</property>
    <property name="kdenlive_ix">3</property>
    <property name="kdenlive_info">0/-1/</property>
    <property name="disable">0</property>
    <property name="Border Width">0.25</property>
    <property name="Transparency">0</property>
   </filter>
  </entry>
  <entry out="192370" in="190688" producer="3_playlist5">
   <filter id="filter935" out="190735" in="190688">
    <property name="window">75</property>
    <property name="max_gain">20dB</property>
    <property name="mlt_type">filter</property>
    <property name="mlt_service">volume</property>
    <property name="kdenlive_id">volume</property>
    <property name="tag">volume</property>
    <property name="kdenlive_ix">1</property>
    <property name="kdenlive_info"/>
    <property name="disable"/>
    <property name="gain">0</property>
    <property name="end">0.3</property>
   </filter>
   <filter id="filter936" out="190751" in="190736">
    <property name="window">75</property>
    <property name="max_gain">20dB</property>
    <property name="mlt_type">filter</property>
    <property name="mlt_service">volume</property>
    <property name="kdenlive_id">volume</property>
    <property name="tag">volume</property>
    <property name="kdenlive_ix">1</property>
    <property name="kdenlive_info"/>
    <property name="disable"/>
    <property name="gain">0.3</property>
    <property name="end">0.3</property>
   </filter>
   <filter id="filter937" out="190769" in="190752">
    <property name="window">75</property>
    <property name="max_gain">20dB</property>
    <property name="mlt_type">filter</property>
    <property name="mlt_service">volume</property>
    <property name="kdenlive_id">volume</property>
    <property name="tag">volume</property>
    <property name="kdenlive_ix">1</property>
    <property name="kdenlive_info"/>
    <property name="disable"/>
    <property name="gain">0.338889</property>
    <property name="end">1</property>
   </filter>
   <filter id="filter938" out="192370" in="190770">
    <property name="window">75</property>
    <property name="max_gain">20dB</property>
    <property name="mlt_type">filter</property>
    <property name="mlt_service">volume</property>
    <property name="kdenlive_id">volume</property>
    <property name="tag">volume</property>
    <property name="kdenlive_ix">1</property>
    <property name="kdenlive_info"/>
    <property name="disable"/>
    <property name="gain">1</property>
    <property name="end">1</property>
   </filter>
  </entry>
  <entry out="202540" in="198720" producer="3_playlist5">
   <filter id="filter939" out="198734" in="198720">
    <property name="window">75</property>
    <property name="max_gain">20dB</property>
    <property name="mlt_type">filter</property>
    <property name="mlt_service">volume</property>
    <property name="kdenlive_id">volume</property>
    <property name="tag">volume</property>
    <property name="kdenlive_ix">1</property>
    <property name="kdenlive_info"/>
    <property name="disable"/>
    <property name="gain">0</property>
    <property name="end">0</property>
   </filter>
   <filter id="filter940" out="198746" in="198735">
    <property name="window">75</property>
    <property name="max_gain">20dB</property>
    <property name="mlt_type">filter</property>
    <property name="mlt_service">volume</property>
    <property name="kdenlive_id">volume</property>
    <property name="tag">volume</property>
    <property name="kdenlive_ix">1</property>
    <property name="kdenlive_info"/>
    <property name="disable"/>
    <property name="gain">0.0166667</property>
    <property name="end">0.2</property>
   </filter>
   <filter id="filter941" out="198753" in="198747">
    <property name="window">75</property>
    <property name="max_gain">20dB</property>
    <property name="mlt_type">filter</property>
    <property name="mlt_service">volume</property>
    <property name="kdenlive_id">volume</property>
    <property name="tag">volume</property>
    <property name="kdenlive_ix">1</property>
    <property name="kdenlive_info"/>
    <property name="disable"/>
    <property name="gain">0.271429</property>
    <property name="end">0.7</property>
   </filter>
   <filter id="filter942" out="198769" in="198754">
    <property name="window">75</property>
    <property name="max_gain">20dB</property>
    <property name="mlt_type">filter</property>
    <property name="mlt_service">volume</property>
    <property name="kdenlive_id">volume</property>
    <property name="tag">volume</property>
    <property name="kdenlive_ix">1</property>
    <property name="kdenlive_info"/>
    <property name="disable"/>
    <property name="gain">0.7</property>
    <property name="end">0.7</property>
   </filter>
   <filter id="filter943" out="198888" in="198770">
    <property name="window">75</property>
    <property name="max_gain">20dB</property>
    <property name="mlt_type">filter</property>
    <property name="mlt_service">volume</property>
    <property name="kdenlive_id">volume</property>
    <property name="tag">volume</property>
    <property name="kdenlive_ix">1</property>
    <property name="kdenlive_info"/>
    <property name="disable"/>
    <property name="gain">0.702521</property>
    <property name="end">1</property>
   </filter>
   <filter id="filter944" out="202541" in="198889">
    <property name="window">75</property>
    <property name="max_gain">20dB</property>
    <property name="mlt_type">filter</property>
    <property name="mlt_service">volume</property>
    <property name="kdenlive_id">volume</property>
    <property name="tag">volume</property>
    <property name="kdenlive_ix">1</property>
    <property name="kdenlive_info"/>
    <property name="disable"/>
    <property name="gain">1</property>
    <property name="end">1</property>
   </filter>
  </entry>
  <entry out="202808" in="202740" producer="3_playlist5">
   <filter id="filter945" out="202742" in="202740">
    <property name="window">75</property>
    <property name="max_gain">20dB</property>
    <property name="mlt_type">filter</property>
    <property name="mlt_service">volume</property>
    <property name="kdenlive_id">volume</property>
    <property name="tag">volume</property>
    <property name="kdenlive_ix">1</property>
    <property name="kdenlive_info"/>
    <property name="disable"/>
    <property name="gain">0.33</property>
    <property name="end">1</property>
   </filter>
   <filter id="filter946" out="202805" in="202743">
    <property name="window">75</property>
    <property name="max_gain">20dB</property>
    <property name="mlt_type">filter</property>
    <property name="mlt_service">volume</property>
    <property name="kdenlive_id">volume</property>
    <property name="tag">volume</property>
    <property name="kdenlive_ix">1</property>
    <property name="kdenlive_info"/>
    <property name="disable"/>
    <property name="gain">1</property>
    <property name="end">1</property>
   </filter>
   <filter id="filter947" out="202808" in="202806">
    <property name="window">75</property>
    <property name="max_gain">20dB</property>
    <property name="mlt_type">filter</property>
    <property name="mlt_service">volume</property>
    <property name="kdenlive_id">volume</property>
    <property name="tag">volume</property>
    <property name="kdenlive_ix">1</property>
    <property name="kdenlive_info"/>
    <property name="disable"/>
    <property name="gain">0.833333</property>
    <property name="end">0.5</property>
   </filter>
  </entry>
  <entry out="202661" in="202579" producer="3_playlist5">
   <filter id="filter948">
    <property name="window">75</property>
    <property name="max_gain">20dB</property>
    <property name="mlt_type">filter</property>
    <property name="mlt_service">volume</property>
    <property name="kdenlive_id">mute</property>
    <property name="tag">volume</property>
    <property name="kdenlive_ix">1</property>
    <property name="kdenlive_info"/>
    <property name="disable"/>
    <property name="gain">0</property>
   </filter>
  </entry>
  <entry out="204350" in="203506" producer="3_playlist5">
   <filter id="filter949" out="204350" in="203506">
    <property name="window">75</property>
    <property name="max_gain">20dB</property>
    <property name="mlt_type">filter</property>
    <property name="mlt_service">volume</property>
    <property name="kdenlive_id">volume</property>
    <property name="tag">volume</property>
    <property name="kdenlive_ix">1</property>
    <property name="kdenlive_info"/>
    <property name="disable"/>
    <property name="gain">1</property>
    <property name="end">1</property>
   </filter>
  </entry>
  <entry out="204685" in="204501" producer="3_playlist5">
   <filter id="filter950" out="204674" in="204501">
    <property name="window">75</property>
    <property name="max_gain">20dB</property>
    <property name="mlt_type">filter</property>
    <property name="mlt_service">volume</property>
    <property name="kdenlive_id">volume</property>
    <property name="tag">volume</property>
    <property name="kdenlive_ix">1</property>
    <property name="kdenlive_info"/>
    <property name="disable"/>
    <property name="gain">1</property>
    <property name="end">1</property>
   </filter>
   <filter id="filter951" out="204679" in="204675">
    <property name="window">75</property>
    <property name="max_gain">20dB</property>
    <property name="mlt_type">filter</property>
    <property name="mlt_service">volume</property>
    <property name="kdenlive_id">volume</property>
    <property name="tag">volume</property>
    <property name="kdenlive_ix">1</property>
    <property name="kdenlive_info"/>
    <property name="disable"/>
    <property name="gain">0.8</property>
    <property name="end">0</property>
   </filter>
   <filter id="filter952" out="204686" in="204680">
    <property name="window">75</property>
    <property name="max_gain">20dB</property>
    <property name="mlt_type">filter</property>
    <property name="mlt_service">volume</property>
    <property name="kdenlive_id">volume</property>
    <property name="tag">volume</property>
    <property name="kdenlive_ix">1</property>
    <property name="kdenlive_info"/>
    <property name="disable"/>
    <property name="gain">0</property>
    <property name="end">0</property>
   </filter>
  </entry>
  <entry out="205021" in="204710" producer="3_playlist5">
   <filter id="filter953" out="204992" in="204710">
    <property name="window">75</property>
    <property name="max_gain">20dB</property>
    <property name="mlt_type">filter</property>
    <property name="mlt_service">volume</property>
    <property name="kdenlive_id">volume</property>
    <property name="tag">volume</property>
    <property name="kdenlive_ix">1</property>
    <property name="kdenlive_info"/>
    <property name="disable"/>
    <property name="gain">1</property>
    <property name="end">1</property>
   </filter>
   <filter id="filter954" out="204999" in="204993">
    <property name="window">75</property>
    <property name="max_gain">20dB</property>
    <property name="mlt_type">filter</property>
    <property name="mlt_service">volume</property>
    <property name="kdenlive_id">volume</property>
    <property name="tag">volume</property>
    <property name="kdenlive_ix">1</property>
    <property name="kdenlive_info"/>
    <property name="disable"/>
    <property name="gain">0.857143</property>
    <property name="end">0</property>
   </filter>
   <filter id="filter955" out="205021" in="205000">
    <property name="window">75</property>
    <property name="max_gain">20dB</property>
    <property name="mlt_type">filter</property>
    <property name="mlt_service">volume</property>
    <property name="kdenlive_id">volume</property>
    <property name="tag">volume</property>
    <property name="kdenlive_ix">1</property>
    <property name="kdenlive_info"/>
    <property name="disable"/>
    <property name="gain">0</property>
    <property name="end">0</property>
   </filter>
  </entry>
  <entry out="206613" in="205147" producer="3_playlist5">
   <filter id="filter956" out="206031" in="205147">
    <property name="window">75</property>
    <property name="max_gain">20dB</property>
    <property name="mlt_type">filter</property>
    <property name="mlt_service">volume</property>
    <property name="kdenlive_id">volume</property>
    <property name="tag">volume</property>
    <property name="kdenlive_ix">1</property>
    <property name="kdenlive_info"/>
    <property name="disable"/>
    <property name="gain">1</property>
    <property name="end">1</property>
   </filter>
   <filter id="filter957" out="206091" in="206032">
    <property name="window">75</property>
    <property name="max_gain">20dB</property>
    <property name="mlt_type">filter</property>
    <property name="mlt_service">volume</property>
    <property name="kdenlive_id">volume</property>
    <property name="tag">volume</property>
    <property name="kdenlive_ix">1</property>
    <property name="kdenlive_info"/>
    <property name="disable"/>
    <property name="gain">0.995</property>
    <property name="end">0.7</property>
   </filter>
   <filter id="filter958" out="206613" in="206092">
    <property name="window">75</property>
    <property name="max_gain">20dB</property>
    <property name="mlt_type">filter</property>
    <property name="mlt_service">volume</property>
    <property name="kdenlive_id">volume</property>
    <property name="tag">volume</property>
    <property name="kdenlive_ix">1</property>
    <property name="kdenlive_info"/>
    <property name="disable"/>
    <property name="gain">0.7</property>
    <property name="end">0.7</property>
   </filter>
  </entry>
  <entry out="207249" in="207146" producer="3_playlist5">
   <filter id="filter959" in="207146">
    <property name="window">75</property>
    <property name="max_gain">20dB</property>
    <property name="mlt_type">filter</property>
    <property name="mlt_service">volume</property>
    <property name="kdenlive_id">volume</property>
    <property name="tag">volume</property>
    <property name="kdenlive_ix">1</property>
    <property name="kdenlive_info"/>
    <property name="disable"/>
    <property name="gain">0.7</property>
   </filter>
   <filter id="gamma">
    <property name="gamma">0.85</property>
    <property name="mlt_type">filter</property>
    <property name="mlt_service">gamma</property>
    <property name="kdenlive_id">gamma</property>
    <property name="tag">gamma</property>
    <property name="kdenlive_ix">2</property>
    <property name="kdenlive_info"/>
    <property name="disable"/>
   </filter>
  </entry>
  <entry out="207590" in="207250" producer="3_playlist5">
   <filter id="filter753" in="207146">
    <property name="window">75</property>
    <property name="max_gain">20dB</property>
    <property name="mlt_type">filter</property>
    <property name="mlt_service">volume</property>
    <property name="kdenlive_id">volume</property>
    <property name="tag">volume</property>
    <property name="kdenlive_ix">1</property>
    <property name="kdenlive_info"/>
    <property name="disable"/>
    <property name="gain">0.7</property>
   </filter>
  </entry>
  <entry out="208309" in="208125" producer="3_playlist5">
   <filter id="filter960" in="208125">
    <property name="window">75</property>
    <property name="max_gain">20dB</property>
    <property name="mlt_type">filter</property>
    <property name="mlt_service">volume</property>
    <property name="kdenlive_id">volume</property>
    <property name="tag">volume</property>
    <property name="kdenlive_ix">1</property>
    <property name="kdenlive_info"/>
    <property name="disable"/>
    <property name="gain">0.7</property>
   </filter>
  </entry>
  <entry out="208710" in="208506" producer="3_playlist5">
   <filter id="filter961" out="208516" in="208506">
    <property name="window">75</property>
    <property name="max_gain">20dB</property>
    <property name="mlt_type">filter</property>
    <property name="mlt_service">volume</property>
    <property name="kdenlive_id">volume</property>
    <property name="tag">volume</property>
    <property name="kdenlive_ix">1</property>
    <property name="kdenlive_info"/>
    <property name="disable"/>
    <property name="gain">0</property>
    <property name="end">0.8</property>
   </filter>
   <filter id="filter962" out="208686" in="208517">
    <property name="window">75</property>
    <property name="max_gain">20dB</property>
    <property name="mlt_type">filter</property>
    <property name="mlt_service">volume</property>
    <property name="kdenlive_id">volume</property>
    <property name="tag">volume</property>
    <property name="kdenlive_ix">1</property>
    <property name="kdenlive_info"/>
    <property name="disable"/>
    <property name="gain">0.8</property>
    <property name="end">0.8</property>
   </filter>
   <filter id="filter963" out="208702" in="208687">
    <property name="window">75</property>
    <property name="max_gain">20dB</property>
    <property name="mlt_type">filter</property>
    <property name="mlt_service">volume</property>
    <property name="kdenlive_id">volume</property>
    <property name="tag">volume</property>
    <property name="kdenlive_ix">1</property>
    <property name="kdenlive_info"/>
    <property name="disable"/>
    <property name="gain">0.790625</property>
    <property name="end">0.65</property>
   </filter>
   <filter id="filter964" out="208710" in="208703">
    <property name="window">75</property>
    <property name="max_gain">20dB</property>
    <property name="mlt_type">filter</property>
    <property name="mlt_service">volume</property>
    <property name="kdenlive_id">volume</property>
    <property name="tag">volume</property>
    <property name="kdenlive_ix">1</property>
    <property name="kdenlive_info"/>
    <property name="disable"/>
    <property name="gain">0.60625</property>
    <property name="end">0.3</property>
   </filter>
  </entry>
  <entry out="209402" in="208793" producer="3_playlist5"/>
  <entry out="209682" in="209654" producer="3_playlist5"/>
  <entry out="213501" in="211925" producer="3_playlist5">
   <filter id="filter965" out="211941" in="211925">
    <property name="window">75</property>
    <property name="max_gain">20dB</property>
    <property name="mlt_type">filter</property>
    <property name="mlt_service">volume</property>
    <property name="kdenlive_id">volume</property>
    <property name="tag">volume</property>
    <property name="kdenlive_ix">1</property>
    <property name="kdenlive_info"/>
    <property name="disable"/>
    <property name="gain">0.5</property>
    <property name="end">0.7</property>
   </filter>
   <filter id="filter966" out="213501" in="211942">
    <property name="window">75</property>
    <property name="max_gain">20dB</property>
    <property name="mlt_type">filter</property>
    <property name="mlt_service">volume</property>
    <property name="kdenlive_id">volume</property>
    <property name="tag">volume</property>
    <property name="kdenlive_ix">1</property>
    <property name="kdenlive_info"/>
    <property name="disable"/>
    <property name="gain">0.7</property>
    <property name="end">0.7</property>
   </filter>
  </entry>
  <entry out="213863" in="213805" producer="3_playlist5">
   <filter id="filter967" in="213805">
    <property name="window">75</property>
    <property name="max_gain">20dB</property>
    <property name="mlt_type">filter</property>
    <property name="mlt_service">volume</property>
    <property name="kdenlive_id">volume</property>
    <property name="tag">volume</property>
    <property name="kdenlive_ix">1</property>
    <property name="kdenlive_info"/>
    <property name="disable"/>
    <property name="gain">0.5</property>
   </filter>
  </entry>
  <entry out="214452" in="214391" producer="3_playlist5">
   <filter id="filter968" in="214391">
    <property name="window">75</property>
    <property name="max_gain">20dB</property>
    <property name="mlt_type">filter</property>
    <property name="mlt_service">volume</property>
    <property name="kdenlive_id">volume</property>
    <property name="tag">volume</property>
    <property name="kdenlive_ix">1</property>
    <property name="kdenlive_info"/>
    <property name="disable"/>
    <property name="gain">0</property>
   </filter>
  </entry>
  <entry out="214870" in="214833" producer="3_playlist5">
   <filter id="filter969" in="214833">
    <property name="window">75</property>
    <property name="max_gain">20dB</property>
    <property name="mlt_type">filter</property>
    <property name="mlt_service">volume</property>
    <property name="kdenlive_id">volume</property>
    <property name="tag">volume</property>
    <property name="kdenlive_ix">1</property>
    <property name="kdenlive_info"/>
    <property name="disable"/>
    <property name="gain">0</property>
   </filter>
  </entry>
  <blank length="412"/>
  <entry out="220763" in="220679" producer="3_playlist5">
   <filter id="filter970" out="220763" in="220744">
    <property name="window">75</property>
    <property name="max_gain">20dB</property>
    <property name="mlt_type">filter</property>
    <property name="mlt_service">volume</property>
    <property name="kdenlive_id">fadeout</property>
    <property name="tag">volume</property>
    <property name="kdenlive_ix">1</property>
    <property name="kdenlive_info"/>
    <property name="disable"/>
    <property name="gain">1</property>
    <property name="end">0</property>
   </filter>
  </entry>
  <entry out="221905" in="220980" producer="3_playlist5">
   <filter id="filter971" out="221710" in="220980">
    <property name="window">75</property>
    <property name="max_gain">20dB</property>
    <property name="mlt_type">filter</property>
    <property name="mlt_service">volume</property>
    <property name="kdenlive_id">volume</property>
    <property name="tag">volume</property>
    <property name="kdenlive_ix">1</property>
    <property name="kdenlive_info"/>
    <property name="disable"/>
    <property name="gain">0.7</property>
    <property name="end">0.7</property>
   </filter>
   <filter id="filter972" out="221747" in="221711">
    <property name="window">75</property>
    <property name="max_gain">20dB</property>
    <property name="mlt_type">filter</property>
    <property name="mlt_service">volume</property>
    <property name="kdenlive_id">volume</property>
    <property name="tag">volume</property>
    <property name="kdenlive_ix">1</property>
    <property name="kdenlive_info"/>
    <property name="disable"/>
    <property name="gain">0.708108</property>
    <property name="end">1</property>
   </filter>
   <filter id="filter973" out="221905" in="221748">
    <property name="window">75</property>
    <property name="max_gain">20dB</property>
    <property name="mlt_type">filter</property>
    <property name="mlt_service">volume</property>
    <property name="kdenlive_id">volume</property>
    <property name="tag">volume</property>
    <property name="kdenlive_ix">1</property>
    <property name="kdenlive_info"/>
    <property name="disable"/>
    <property name="gain">1</property>
    <property name="end">1</property>
   </filter>
  </entry>
  <entry out="223519" in="223378" producer="3_playlist5">
   <filter id="filter974">
    <property name="window">75</property>
    <property name="max_gain">20dB</property>
    <property name="mlt_type">filter</property>
    <property name="mlt_service">volume</property>
    <property name="kdenlive_id">mute</property>
    <property name="tag">volume</property>
    <property name="kdenlive_ix">1</property>
    <property name="kdenlive_info"/>
    <property name="disable"/>
    <property name="gain">0</property>
   </filter>
  </entry>
  <entry out="223809" in="223705" producer="3_playlist5">
   <filter id="filter975">
    <property name="window">75</property>
    <property name="max_gain">20dB</property>
    <property name="mlt_type">filter</property>
    <property name="mlt_service">volume</property>
    <property name="kdenlive_id">mute</property>
    <property name="tag">volume</property>
    <property name="kdenlive_ix">1</property>
    <property name="kdenlive_info"/>
    <property name="disable"/>
    <property name="gain">0</property>
   </filter>
  </entry>
  <entry out="227394" in="226145" producer="3_playlist5">
   <filter id="filter976" out="226180" in="226145">
    <property name="window">75</property>
    <property name="max_gain">20dB</property>
    <property name="mlt_type">filter</property>
    <property name="mlt_service">volume</property>
    <property name="kdenlive_id">fadein</property>
    <property name="tag">volume</property>
    <property name="kdenlive_ix">1</property>
    <property name="kdenlive_info"/>
    <property name="disable"/>
    <property name="gain">0</property>
    <property name="end">1</property>
   </filter>
   <filter id="filter977" out="227394" in="227298">
    <property name="window">75</property>
    <property name="max_gain">20dB</property>
    <property name="mlt_type">filter</property>
    <property name="mlt_service">volume</property>
    <property name="kdenlive_id">fadeout</property>
    <property name="tag">volume</property>
    <property name="kdenlive_ix">2</property>
    <property name="kdenlive_info"/>
    <property name="disable"/>
    <property name="gain">1</property>
    <property name="end">0</property>
   </filter>
  </entry>
  <entry out="149321" in="148761" producer="3_playlist5">
   <filter id="filter978">
    <property name="window">75</property>
    <property name="max_gain">20dB</property>
    <property name="mlt_type">filter</property>
    <property name="mlt_service">volume</property>
    <property name="kdenlive_id">mute</property>
    <property name="tag">volume</property>
    <property name="kdenlive_ix">1</property>
    <property name="kdenlive_info"/>
    <property name="disable"/>
    <property name="gain">0</property>
   </filter>
  </entry>
  <blank length="167"/>
  <entry out="11608" in="11532" producer="1_playlist5">
   <filter id="filter979" out="11608" in="11577">
    <property name="window">75</property>
    <property name="max_gain">20dB</property>
    <property name="mlt_type">filter</property>
    <property name="mlt_service">volume</property>
    <property name="kdenlive_id">fadeout</property>
    <property name="tag">volume</property>
    <property name="kdenlive_ix">1</property>
    <property name="kdenlive_info"/>
    <property name="disable"/>
    <property name="gain">1</property>
    <property name="end">0</property>
   </filter>
   <filter id="filter980" out="11607" in="11532">
    <property name="window">75</property>
    <property name="max_gain">20dB</property>
    <property name="mlt_type">filter</property>
    <property name="mlt_service">volume</property>
    <property name="kdenlive_id">fadein</property>
    <property name="tag">volume</property>
    <property name="kdenlive_ix">2</property>
    <property name="kdenlive_info"/>
    <property name="disable"/>
    <property name="gain">0</property>
    <property name="end">1</property>
   </filter>
  </entry>
  <blank length="1698"/>
  <entry out="16596" in="14587" producer="1_playlist5">
   <filter id="filter981" out="15139" in="14587">
    <property name="window">75</property>
    <property name="max_gain">20dB</property>
    <property name="mlt_type">filter</property>
    <property name="mlt_service">volume</property>
    <property name="kdenlive_id">volume</property>
    <property name="tag">volume</property>
    <property name="kdenlive_ix">1</property>
    <property name="kdenlive_info">0/-1/</property>
    <property name="disable"/>
    <property name="gain">0.85</property>
    <property name="end">0.85</property>
   </filter>
   <filter id="filter982" out="15191" in="15140">
    <property name="window">75</property>
    <property name="max_gain">20dB</property>
    <property name="mlt_type">filter</property>
    <property name="mlt_service">volume</property>
    <property name="kdenlive_id">volume</property>
    <property name="tag">volume</property>
    <property name="kdenlive_ix">1</property>
    <property name="kdenlive_info">0/-1/</property>
    <property name="disable"/>
    <property name="gain">0.852885</property>
    <property name="end">1</property>
   </filter>
   <filter id="filter983" out="16596" in="15192">
    <property name="window">75</property>
    <property name="max_gain">20dB</property>
    <property name="mlt_type">filter</property>
    <property name="mlt_service">volume</property>
    <property name="kdenlive_id">volume</property>
    <property name="tag">volume</property>
    <property name="kdenlive_ix">1</property>
    <property name="kdenlive_info">0/-1/</property>
    <property name="disable"/>
    <property name="gain">1</property>
    <property name="end">1</property>
   </filter>
   <filter id="filter984" out="14638" in="14587">
    <property name="window">75</property>
    <property name="max_gain">20dB</property>
    <property name="mlt_type">filter</property>
    <property name="mlt_service">volume</property>
    <property name="kdenlive_id">fadein</property>
    <property name="tag">volume</property>
    <property name="kdenlive_ix">2</property>
    <property name="kdenlive_info"/>
    <property name="disable"/>
    <property name="gain">0</property>
    <property name="end">1</property>
   </filter>
  </entry>
  <entry out="18700" in="16981" producer="1_playlist5">
   <filter id="filter985" out="18700" in="18690">
    <property name="window">75</property>
    <property name="max_gain">20dB</property>
    <property name="mlt_type">filter</property>
    <property name="mlt_service">volume</property>
    <property name="kdenlive_id">fadeout</property>
    <property name="tag">volume</property>
    <property name="kdenlive_ix">1</property>
    <property name="kdenlive_info"/>
    <property name="disable"/>
    <property name="gain">1</property>
    <property name="end">0</property>
   </filter>
  </entry>
  <blank length="6487"/>
  <entry out="33616" in="31156" producer="1_playlist5">
   <filter id="filter986" out="31227" in="31156">
    <property name="window">75</property>
    <property name="max_gain">20dB</property>
    <property name="mlt_type">filter</property>
    <property name="mlt_service">volume</property>
    <property name="kdenlive_id">volume</property>
    <property name="tag">volume</property>
    <property name="kdenlive_ix">1</property>
    <property name="kdenlive_info"/>
    <property name="disable"/>
    <property name="gain">1.5</property>
    <property name="end">1.5</property>
   </filter>
   <filter id="filter987" out="31460" in="31228">
    <property name="window">75</property>
    <property name="max_gain">20dB</property>
    <property name="mlt_type">filter</property>
    <property name="mlt_service">volume</property>
    <property name="kdenlive_id">volume</property>
    <property name="tag">volume</property>
    <property name="kdenlive_ix">1</property>
    <property name="kdenlive_info"/>
    <property name="disable"/>
    <property name="gain">1.49785</property>
    <property name="end">1</property>
   </filter>
   <filter id="filter988" out="33616" in="31461">
    <property name="window">75</property>
    <property name="max_gain">20dB</property>
    <property name="mlt_type">filter</property>
    <property name="mlt_service">volume</property>
    <property name="kdenlive_id">volume</property>
    <property name="tag">volume</property>
    <property name="kdenlive_ix">1</property>
    <property name="kdenlive_info"/>
    <property name="disable"/>
    <property name="gain">1</property>
    <property name="end">1</property>
   </filter>
   <filter id="filter989" out="33616" in="33494">
    <property name="window">75</property>
    <property name="max_gain">20dB</property>
    <property name="mlt_type">filter</property>
    <property name="mlt_service">volume</property>
    <property name="kdenlive_id">fadeout</property>
    <property name="tag">volume</property>
    <property name="kdenlive_ix">2</property>
    <property name="kdenlive_info"/>
    <property name="disable"/>
    <property name="gain">1</property>
    <property name="end">0</property>
   </filter>
   <filter id="filter990" out="31174" in="31156">
    <property name="window">75</property>
    <property name="max_gain">20dB</property>
    <property name="mlt_type">filter</property>
    <property name="mlt_service">volume</property>
    <property name="kdenlive_id">fadein</property>
    <property name="tag">volume</property>
    <property name="kdenlive_ix">3</property>
    <property name="kdenlive_info"/>
    <property name="disable"/>
    <property name="gain">0</property>
    <property name="end">1</property>
   </filter>
  </entry>
  <blank length="763"/>
  <entry out="35819" in="35793" producer="1_playlist5">
   <filter id="filter991">
    <property name="window">75</property>
    <property name="max_gain">20dB</property>
    <property name="mlt_type">filter</property>
    <property name="mlt_service">volume</property>
    <property name="kdenlive_id">mute</property>
    <property name="tag">volume</property>
    <property name="kdenlive_ix">1</property>
    <property name="kdenlive_info"/>
    <property name="disable"/>
    <property name="gain">0</property>
   </filter>
   <filter id="filter992" in="35686">
    <property name="window">75</property>
    <property name="max_gain">20dB</property>
    <property name="mlt_type">filter</property>
    <property name="mlt_service">volume</property>
    <property name="kdenlive_id">volume</property>
    <property name="tag">volume</property>
    <property name="kdenlive_ix">2</property>
    <property name="kdenlive_info"/>
    <property name="disable"/>
    <property name="gain">1</property>
   </filter>
  </entry>
  <entry out="36930" in="35820" producer="1_playlist5">
   <filter id="filter993" in="35820">
    <property name="window">75</property>
    <property name="max_gain">20dB</property>
    <property name="mlt_type">filter</property>
    <property name="mlt_service">volume</property>
    <property name="kdenlive_id">volume</property>
    <property name="tag">volume</property>
    <property name="kdenlive_ix">1</property>
    <property name="kdenlive_info"/>
    <property name="disable"/>
    <property name="gain">1.45</property>
   </filter>
   <filter id="filter994" out="35838" in="35820">
    <property name="window">75</property>
    <property name="max_gain">20dB</property>
    <property name="mlt_type">filter</property>
    <property name="mlt_service">volume</property>
    <property name="kdenlive_id">fadein</property>
    <property name="tag">volume</property>
    <property name="kdenlive_ix">2</property>
    <property name="kdenlive_info"/>
    <property name="disable"/>
    <property name="gain">0</property>
    <property name="end">1</property>
   </filter>
   <filter id="filter995" out="213420" in="213410">
    <property name="window">75</property>
    <property name="max_gain">20dB</property>
    <property name="mlt_type">filter</property>
    <property name="mlt_service">volume</property>
    <property name="kdenlive_id">fadeout</property>
    <property name="tag">volume</property>
    <property name="kdenlive_ix">3</property>
    <property name="kdenlive_info"/>
    <property name="disable"/>
    <property name="gain">1</property>
    <property name="end">0</property>
   </filter>
  </entry>
  <entry out="38953" in="37271" producer="1_playlist5">
   <filter id="filter996" out="37346" in="37271">
    <property name="window">75</property>
    <property name="max_gain">20dB</property>
    <property name="mlt_type">filter</property>
    <property name="mlt_service">volume</property>
    <property name="kdenlive_id">fadein</property>
    <property name="tag">volume</property>
    <property name="kdenlive_ix">1</property>
    <property name="kdenlive_info"/>
    <property name="disable"/>
    <property name="gain">0</property>
    <property name="end">1</property>
   </filter>
   <filter id="filter997" in="37271">
    <property name="window">75</property>
    <property name="max_gain">20dB</property>
    <property name="mlt_type">filter</property>
    <property name="mlt_service">volume</property>
    <property name="kdenlive_id">volume</property>
    <property name="tag">volume</property>
    <property name="kdenlive_ix">2</property>
    <property name="kdenlive_info"/>
    <property name="disable"/>
    <property name="gain">1</property>
   </filter>
  </entry>
  <entry out="39520" in="39476" producer="1_playlist5">
   <filter id="filter998" in="39476">
    <property name="window">75</property>
    <property name="max_gain">20dB</property>
    <property name="mlt_type">filter</property>
    <property name="mlt_service">volume</property>
    <property name="kdenlive_id">volume</property>
    <property name="tag">volume</property>
    <property name="kdenlive_ix">1</property>
    <property name="kdenlive_info"/>
    <property name="disable"/>
    <property name="gain">0</property>
   </filter>
  </entry>
  <entry out="39702" in="39521" producer="1_playlist5">
   <filter id="filter999" in="39521">
    <property name="window">75</property>
    <property name="max_gain">20dB</property>
    <property name="mlt_type">filter</property>
    <property name="mlt_service">volume</property>
    <property name="kdenlive_id">volume</property>
    <property name="tag">volume</property>
    <property name="kdenlive_ix">1</property>
    <property name="kdenlive_info"/>
    <property name="disable"/>
    <property name="gain">0</property>
   </filter>
  </entry>
  <entry out="39931" in="39716" producer="1_playlist5">
   <filter id="filter1000" out="39931" in="39716">
    <property name="window">75</property>
    <property name="max_gain">20dB</property>
    <property name="mlt_type">filter</property>
    <property name="mlt_service">volume</property>
    <property name="kdenlive_id">volume</property>
    <property name="tag">volume</property>
    <property name="kdenlive_ix">1</property>
    <property name="kdenlive_info"/>
    <property name="disable"/>
    <property name="gain">1</property>
    <property name="end">1</property>
   </filter>
  </entry>
  <entry out="43953" in="40349" producer="1_playlist5">
   <filter id="filter1001" out="40373" in="40349">
    <property name="window">75</property>
    <property name="max_gain">20dB</property>
    <property name="mlt_type">filter</property>
    <property name="mlt_service">volume</property>
    <property name="kdenlive_id">fadein</property>
    <property name="tag">volume</property>
    <property name="kdenlive_ix">1</property>
    <property name="kdenlive_info"/>
    <property name="disable"/>
    <property name="gain">0</property>
    <property name="end">1</property>
   </filter>
   <filter id="filter1002" in="57537">
    <property name="window">75</property>
    <property name="max_gain">20dB</property>
    <property name="mlt_type">filter</property>
    <property name="mlt_service">volume</property>
    <property name="kdenlive_id">volume</property>
    <property name="tag">volume</property>
    <property name="kdenlive_ix">2</property>
    <property name="kdenlive_info"/>
    <property name="disable"/>
    <property name="gain">1</property>
   </filter>
  </entry>
  <entry out="47549" in="44590" producer="1_playlist5">
   <filter id="filter1003" out="44732" in="44590">
    <property name="window">75</property>
    <property name="max_gain">20dB</property>
    <property name="mlt_type">filter</property>
    <property name="mlt_service">volume</property>
    <property name="kdenlive_id">volume</property>
    <property name="tag">volume</property>
    <property name="kdenlive_ix">1</property>
    <property name="kdenlive_info"/>
    <property name="disable"/>
    <property name="gain">0</property>
    <property name="end">1</property>
   </filter>
   <filter id="filter1004" out="47090" in="44733">
    <property name="window">75</property>
    <property name="max_gain">20dB</property>
    <property name="mlt_type">filter</property>
    <property name="mlt_service">volume</property>
    <property name="kdenlive_id">volume</property>
    <property name="tag">volume</property>
    <property name="kdenlive_ix">1</property>
    <property name="kdenlive_info"/>
    <property name="disable"/>
    <property name="gain">1</property>
    <property name="end">1</property>
   </filter>
   <filter id="filter1005" out="47172" in="47091">
    <property name="window">75</property>
    <property name="max_gain">20dB</property>
    <property name="mlt_type">filter</property>
    <property name="mlt_service">volume</property>
    <property name="kdenlive_id">volume</property>
    <property name="tag">volume</property>
    <property name="kdenlive_ix">1</property>
    <property name="kdenlive_info"/>
    <property name="disable"/>
    <property name="gain">0.996341</property>
    <property name="end">0.7</property>
   </filter>
   <filter id="filter1006" out="47549" in="47173">
    <property name="window">75</property>
    <property name="max_gain">20dB</property>
    <property name="mlt_type">filter</property>
    <property name="mlt_service">volume</property>
    <property name="kdenlive_id">volume</property>
    <property name="tag">volume</property>
    <property name="kdenlive_ix">1</property>
    <property name="kdenlive_info"/>
    <property name="disable"/>
    <property name="gain">0.7</property>
    <property name="end">0.7</property>
   </filter>
  </entry>
  <entry out="47834" in="47731" producer="1_playlist5">
   <filter id="filter1007" in="47731">
    <property name="window">75</property>
    <property name="max_gain">20dB</property>
    <property name="mlt_type">filter</property>
    <property name="mlt_service">volume</property>
    <property name="kdenlive_id">volume</property>
    <property name="tag">volume</property>
    <property name="kdenlive_ix">1</property>
    <property name="kdenlive_info"/>
    <property name="disable"/>
    <property name="gain">0.7</property>
   </filter>
  </entry>
  <entry out="49614" in="48850" producer="1_playlist5">
   <filter id="filter1008" out="48896" in="48850">
    <property name="window">75</property>
    <property name="max_gain">20dB</property>
    <property name="mlt_type">filter</property>
    <property name="mlt_service">volume</property>
    <property name="kdenlive_id">fadein</property>
    <property name="tag">volume</property>
    <property name="kdenlive_ix">1</property>
    <property name="kdenlive_info"/>
    <property name="disable"/>
    <property name="gain">0</property>
    <property name="end">1</property>
   </filter>
   <filter id="filter1009" in="49614">
    <property name="window">75</property>
    <property name="max_gain">20dB</property>
    <property name="mlt_type">filter</property>
    <property name="mlt_service">volume</property>
    <property name="kdenlive_id">volume</property>
    <property name="tag">volume</property>
    <property name="kdenlive_ix">2</property>
    <property name="kdenlive_info"/>
    <property name="disable"/>
    <property name="gain">0.99</property>
   </filter>
  </entry>
  <entry out="51958" in="50905" producer="1_playlist5">
   <filter id="filter1010" in="51958">
    <property name="window">75</property>
    <property name="max_gain">20dB</property>
    <property name="mlt_type">filter</property>
    <property name="mlt_service">volume</property>
    <property name="kdenlive_id">volume</property>
    <property name="tag">volume</property>
    <property name="kdenlive_ix">1</property>
    <property name="kdenlive_info"/>
    <property name="disable"/>
    <property name="gain">1</property>
   </filter>
   <filter id="filter1011" out="51958" in="51910">
    <property name="window">75</property>
    <property name="max_gain">20dB</property>
    <property name="mlt_type">filter</property>
    <property name="mlt_service">volume</property>
    <property name="kdenlive_id">fadeout</property>
    <property name="tag">volume</property>
    <property name="kdenlive_ix">2</property>
    <property name="kdenlive_info"/>
    <property name="disable"/>
    <property name="gain">1</property>
    <property name="end">0</property>
   </filter>
  </entry>
  <blank length="7231"/>
  <entry out="66480" in="65761" producer="1_playlist5">
   <filter id="filter1012" out="66480" in="66426">
    <property name="window">75</property>
    <property name="max_gain">20dB</property>
    <property name="mlt_type">filter</property>
    <property name="mlt_service">volume</property>
    <property name="kdenlive_id">fadeout</property>
    <property name="tag">volume</property>
    <property name="kdenlive_ix">1</property>
    <property name="kdenlive_info"/>
    <property name="disable"/>
    <property name="gain">1</property>
    <property name="end">0</property>
   </filter>
   <filter id="filter1013" out="65786" in="65761">
    <property name="window">75</property>
    <property name="max_gain">20dB</property>
    <property name="mlt_type">filter</property>
    <property name="mlt_service">volume</property>
    <property name="kdenlive_id">volume</property>
    <property name="tag">volume</property>
    <property name="kdenlive_ix">2</property>
    <property name="kdenlive_info"/>
    <property name="disable"/>
    <property name="gain">0</property>
    <property name="end">1</property>
   </filter>
   <filter id="filter1014" out="66480" in="65787">
    <property name="window">75</property>
    <property name="max_gain">20dB</property>
    <property name="mlt_type">filter</property>
    <property name="mlt_service">volume</property>
    <property name="kdenlive_id">volume</property>
    <property name="tag">volume</property>
    <property name="kdenlive_ix">2</property>
    <property name="kdenlive_info"/>
    <property name="disable"/>
    <property name="gain">1</property>
    <property name="end">1</property>
   </filter>
  </entry>
  <blank length="138"/>
  <entry out="70212" in="70147" producer="1_playlist5">
   <filter id="filter1015">
    <property name="window">75</property>
    <property name="max_gain">20dB</property>
    <property name="mlt_type">filter</property>
    <property name="mlt_service">volume</property>
    <property name="kdenlive_id">mute</property>
    <property name="tag">volume</property>
    <property name="kdenlive_ix">1</property>
    <property name="kdenlive_info"/>
    <property name="disable"/>
    <property name="gain">0</property>
   </filter>
  </entry>
  <blank length="688"/>
  <entry out="72975" in="71672" producer="1_playlist5">
   <filter id="filter1016" out="71683" in="71672">
    <property name="window">75</property>
    <property name="max_gain">20dB</property>
    <property name="mlt_type">filter</property>
    <property name="mlt_service">volume</property>
    <property name="kdenlive_id">fadein</property>
    <property name="tag">volume</property>
    <property name="kdenlive_ix">1</property>
    <property name="kdenlive_info"/>
    <property name="disable"/>
    <property name="gain">0</property>
    <property name="end">1</property>
   </filter>
   <filter id="filter1017" in="57537">
    <property name="window">75</property>
    <property name="max_gain">20dB</property>
    <property name="mlt_type">filter</property>
    <property name="mlt_service">volume</property>
    <property name="kdenlive_id">volume</property>
    <property name="tag">volume</property>
    <property name="kdenlive_ix">2</property>
    <property name="kdenlive_info"/>
    <property name="disable"/>
    <property name="gain">1</property>
   </filter>
  </entry>
  <entry out="5784" in="5663" producer="3_playlist5">
   <filter id="filter1018">
    <property name="window">75</property>
    <property name="max_gain">20dB</property>
    <property name="mlt_type">filter</property>
    <property name="mlt_service">volume</property>
    <property name="kdenlive_id">mute</property>
    <property name="tag">volume</property>
    <property name="kdenlive_ix">1</property>
    <property name="kdenlive_info"/>
    <property name="disable"/>
    <property name="gain">0</property>
   </filter>
   <filter id="filter1019" in="57537">
    <property name="window">75</property>
    <property name="max_gain">20dB</property>
    <property name="mlt_type">filter</property>
    <property name="mlt_service">volume</property>
    <property name="kdenlive_id">volume</property>
    <property name="tag">volume</property>
    <property name="kdenlive_ix">2</property>
    <property name="kdenlive_info"/>
    <property name="disable"/>
    <property name="gain">1</property>
   </filter>
  </entry>
  <blank length="102"/>
  <entry out="76842" in="73200" producer="1_playlist5">
   <filter id="filter1020" out="76842" in="76750">
    <property name="window">75</property>
    <property name="max_gain">20dB</property>
    <property name="mlt_type">filter</property>
    <property name="mlt_service">volume</property>
    <property name="kdenlive_id">fadeout</property>
    <property name="tag">volume</property>
    <property name="kdenlive_ix">1</property>
    <property name="kdenlive_info"/>
    <property name="disable"/>
    <property name="gain">1</property>
    <property name="end">0</property>
   </filter>
   <filter id="filter1021" in="57537">
    <property name="window">75</property>
    <property name="max_gain">20dB</property>
    <property name="mlt_type">filter</property>
    <property name="mlt_service">volume</property>
    <property name="kdenlive_id">volume</property>
    <property name="tag">volume</property>
    <property name="kdenlive_ix">2</property>
    <property name="kdenlive_info"/>
    <property name="disable"/>
    <property name="gain">1</property>
   </filter>
  </entry>
  <entry out="85082" in="83740" producer="1_playlist5"/>
  <entry out="89435" in="85322" producer="1_playlist5">
   <filter id="filter1022" out="85576" in="85322">
    <property name="window">75</property>
    <property name="max_gain">20dB</property>
    <property name="mlt_type">filter</property>
    <property name="mlt_service">volume</property>
    <property name="kdenlive_id">volume</property>
    <property name="tag">volume</property>
    <property name="kdenlive_ix">1</property>
    <property name="kdenlive_info"/>
    <property name="disable"/>
    <property name="gain">1.4</property>
    <property name="end">1.4</property>
   </filter>
   <filter id="filter1023" out="85667" in="85577">
    <property name="window">75</property>
    <property name="max_gain">20dB</property>
    <property name="mlt_type">filter</property>
    <property name="mlt_service">volume</property>
    <property name="kdenlive_id">volume</property>
    <property name="tag">volume</property>
    <property name="kdenlive_ix">1</property>
    <property name="kdenlive_info"/>
    <property name="disable"/>
    <property name="gain">1.3956</property>
    <property name="end">1</property>
   </filter>
   <filter id="filter1024" out="89237" in="85668">
    <property name="window">75</property>
    <property name="max_gain">20dB</property>
    <property name="mlt_type">filter</property>
    <property name="mlt_service">volume</property>
    <property name="kdenlive_id">volume</property>
    <property name="tag">volume</property>
    <property name="kdenlive_ix">1</property>
    <property name="kdenlive_info"/>
    <property name="disable"/>
    <property name="gain">1</property>
    <property name="end">1</property>
   </filter>
   <filter id="filter1025" out="89258" in="89238">
    <property name="window">75</property>
    <property name="max_gain">20dB</property>
    <property name="mlt_type">filter</property>
    <property name="mlt_service">volume</property>
    <property name="kdenlive_id">volume</property>
    <property name="tag">volume</property>
    <property name="kdenlive_ix">1</property>
    <property name="kdenlive_info"/>
    <property name="disable"/>
    <property name="gain">1</property>
    <property name="end">1</property>
   </filter>
   <filter id="filter1026" out="89294" in="89259">
    <property name="window">75</property>
    <property name="max_gain">20dB</property>
    <property name="mlt_type">filter</property>
    <property name="mlt_service">volume</property>
    <property name="kdenlive_id">volume</property>
    <property name="tag">volume</property>
    <property name="kdenlive_ix">1</property>
    <property name="kdenlive_info"/>
    <property name="disable"/>
    <property name="gain">1</property>
    <property name="end">1</property>
   </filter>
   <filter id="filter1027" out="89435" in="89295">
    <property name="window">75</property>
    <property name="max_gain">20dB</property>
    <property name="mlt_type">filter</property>
    <property name="mlt_service">volume</property>
    <property name="kdenlive_id">volume</property>
    <property name="tag">volume</property>
    <property name="kdenlive_ix">1</property>
    <property name="kdenlive_info"/>
    <property name="disable"/>
    <property name="gain">1</property>
    <property name="end">1</property>
   </filter>
  </entry>
  <blank length="90"/>
  <entry out="95130" in="95051" producer="1_playlist5">
   <filter id="filter1028" out="95057" in="95051">
    <property name="window">75</property>
    <property name="max_gain">20dB</property>
    <property name="mlt_type">filter</property>
    <property name="mlt_service">volume</property>
    <property name="kdenlive_id">volume</property>
    <property name="tag">volume</property>
    <property name="kdenlive_ix">1</property>
    <property name="kdenlive_info"/>
    <property name="disable"/>
    <property name="gain">0</property>
    <property name="end">1</property>
   </filter>
   <filter id="filter1029" out="95130" in="95058">
    <property name="window">75</property>
    <property name="max_gain">20dB</property>
    <property name="mlt_type">filter</property>
    <property name="mlt_service">volume</property>
    <property name="kdenlive_id">volume</property>
    <property name="tag">volume</property>
    <property name="kdenlive_ix">1</property>
    <property name="kdenlive_info"/>
    <property name="disable"/>
    <property name="gain">1</property>
    <property name="end">1</property>
   </filter>
  </entry>
  <blank length="252"/>
  <entry out="98199" in="98045" producer="1_playlist5">
   <filter id="filter1030" out="98196" in="98045">
    <property name="window">75</property>
    <property name="max_gain">20dB</property>
    <property name="mlt_type">filter</property>
    <property name="mlt_service">volume</property>
    <property name="kdenlive_id">volume</property>
    <property name="tag">volume</property>
    <property name="kdenlive_ix">1</property>
    <property name="kdenlive_info"/>
    <property name="disable"/>
    <property name="gain">1</property>
    <property name="end">1</property>
   </filter>
   <filter id="filter1031" out="98199" in="98197">
    <property name="window">75</property>
    <property name="max_gain">20dB</property>
    <property name="mlt_type">filter</property>
    <property name="mlt_service">volume</property>
    <property name="kdenlive_id">volume</property>
    <property name="tag">volume</property>
    <property name="kdenlive_ix">1</property>
    <property name="kdenlive_info"/>
    <property name="disable"/>
    <property name="gain">0.666667</property>
    <property name="end">0</property>
   </filter>
  </entry>
  <blank length="75"/>
  <entry out="104569" in="104550" producer="1_playlist5">
   <filter id="filter1032" out="104559" in="104550">
    <property name="window">75</property>
    <property name="max_gain">20dB</property>
    <property name="mlt_type">filter</property>
    <property name="mlt_service">volume</property>
    <property name="kdenlive_id">volume</property>
    <property name="tag">volume</property>
    <property name="kdenlive_ix">1</property>
    <property name="kdenlive_info"/>
    <property name="disable"/>
    <property name="gain">0</property>
    <property name="end">0.3</property>
   </filter>
   <filter id="filter1033" out="104569" in="104560">
    <property name="window">75</property>
    <property name="max_gain">20dB</property>
    <property name="mlt_type">filter</property>
    <property name="mlt_service">volume</property>
    <property name="kdenlive_id">volume</property>
    <property name="tag">volume</property>
    <property name="kdenlive_ix">1</property>
    <property name="kdenlive_info"/>
    <property name="disable"/>
    <property name="gain">0.37</property>
    <property name="end">1</property>
   </filter>
  </entry>
  <blank length="612"/>
  <entry out="106717" in="105786" producer="1_playlist5">
   <filter id="filter1034" out="106717" in="106673">
    <property name="window">75</property>
    <property name="max_gain">20dB</property>
    <property name="mlt_type">filter</property>
    <property name="mlt_service">volume</property>
    <property name="kdenlive_id">fadeout</property>
    <property name="tag">volume</property>
    <property name="kdenlive_ix">1</property>
    <property name="kdenlive_info"/>
    <property name="disable"/>
    <property name="gain">1</property>
    <property name="end">0</property>
   </filter>
   <filter id="filter1035" out="105891" in="105786">
    <property name="window">75</property>
    <property name="max_gain">20dB</property>
    <property name="mlt_type">filter</property>
    <property name="mlt_service">volume</property>
    <property name="kdenlive_id">volume</property>
    <property name="tag">volume</property>
    <property name="kdenlive_ix">2</property>
    <property name="kdenlive_info"/>
    <property name="disable"/>
    <property name="gain">0.8</property>
    <property name="end">0.8</property>
   </filter>
   <filter id="filter1036" out="105911" in="105892">
    <property name="window">75</property>
    <property name="max_gain">20dB</property>
    <property name="mlt_type">filter</property>
    <property name="mlt_service">volume</property>
    <property name="kdenlive_id">volume</property>
    <property name="tag">volume</property>
    <property name="kdenlive_ix">2</property>
    <property name="kdenlive_info"/>
    <property name="disable"/>
    <property name="gain">0.795</property>
    <property name="end">0.7</property>
   </filter>
   <filter id="filter1037" out="106248" in="105912">
    <property name="window">75</property>
    <property name="max_gain">20dB</property>
    <property name="mlt_type">filter</property>
    <property name="mlt_service">volume</property>
    <property name="kdenlive_id">volume</property>
    <property name="tag">volume</property>
    <property name="kdenlive_ix">2</property>
    <property name="kdenlive_info"/>
    <property name="disable"/>
    <property name="gain">0.7</property>
    <property name="end">0.7</property>
   </filter>
   <filter id="filter1038" out="106339" in="106249">
    <property name="window">75</property>
    <property name="max_gain">20dB</property>
    <property name="mlt_type">filter</property>
    <property name="mlt_service">volume</property>
    <property name="kdenlive_id">volume</property>
    <property name="tag">volume</property>
    <property name="kdenlive_ix">2</property>
    <property name="kdenlive_info"/>
    <property name="disable"/>
    <property name="gain">0.703297</property>
    <property name="end">1</property>
   </filter>
   <filter id="filter1039" out="106717" in="106340">
    <property name="window">75</property>
    <property name="max_gain">20dB</property>
    <property name="mlt_type">filter</property>
    <property name="mlt_service">volume</property>
    <property name="kdenlive_id">volume</property>
    <property name="tag">volume</property>
    <property name="kdenlive_ix">2</property>
    <property name="kdenlive_info"/>
    <property name="disable"/>
    <property name="gain">1</property>
    <property name="end">1</property>
   </filter>
  </entry>
  <entry out="106806" in="106718" producer="1_playlist5">
   <filter id="filter1040">
    <property name="window">75</property>
    <property name="max_gain">20dB</property>
    <property name="mlt_type">filter</property>
    <property name="mlt_service">volume</property>
    <property name="kdenlive_id">mute</property>
    <property name="tag">volume</property>
    <property name="kdenlive_ix">1</property>
    <property name="kdenlive_info"/>
    <property name="disable"/>
    <property name="gain">0</property>
   </filter>
  </entry>
  <blank length="2055"/>
  <entry out="122463" in="122385" producer="1_playlist5">
   <filter id="filter1041" in="122385">
    <property name="window">75</property>
    <property name="max_gain">20dB</property>
    <property name="mlt_type">filter</property>
    <property name="mlt_service">volume</property>
    <property name="kdenlive_id">volume</property>
    <property name="tag">volume</property>
    <property name="kdenlive_ix">1</property>
    <property name="kdenlive_info"/>
    <property name="disable"/>
    <property name="gain">1</property>
   </filter>
   <filter id="filter1042">
    <property name="window">75</property>
    <property name="max_gain">20dB</property>
    <property name="mlt_type">filter</property>
    <property name="mlt_service">volume</property>
    <property name="kdenlive_id">mute</property>
    <property name="tag">volume</property>
    <property name="kdenlive_ix">2</property>
    <property name="kdenlive_info"/>
    <property name="disable"/>
    <property name="gain">0</property>
   </filter>
  </entry>
  <entry out="122766" in="122658" producer="1_playlist5">
   <filter id="filter1043" in="122658">
    <property name="window">75</property>
    <property name="max_gain">20dB</property>
    <property name="mlt_type">filter</property>
    <property name="mlt_service">volume</property>
    <property name="kdenlive_id">volume</property>
    <property name="tag">volume</property>
    <property name="kdenlive_ix">1</property>
    <property name="kdenlive_info"/>
    <property name="disable"/>
    <property name="gain">1</property>
   </filter>
   <filter id="filter1044">
    <property name="window">75</property>
    <property name="max_gain">20dB</property>
    <property name="mlt_type">filter</property>
    <property name="mlt_service">volume</property>
    <property name="kdenlive_id">mute</property>
    <property name="tag">volume</property>
    <property name="kdenlive_ix">2</property>
    <property name="kdenlive_info"/>
    <property name="disable"/>
    <property name="gain">0</property>
   </filter>
  </entry>
  <entry out="123843" in="123628" producer="1_playlist5">
   <filter id="filter1045">
    <property name="window">75</property>
    <property name="max_gain">20dB</property>
    <property name="mlt_type">filter</property>
    <property name="mlt_service">volume</property>
    <property name="kdenlive_id">mute</property>
    <property name="tag">volume</property>
    <property name="kdenlive_ix">1</property>
    <property name="kdenlive_info"/>
    <property name="disable"/>
    <property name="gain">0</property>
   </filter>
  </entry>
  <entry out="124419" in="124084" producer="1_playlist5">
   <filter id="filter1046" out="124419" in="124409">
    <property name="window">75</property>
    <property name="max_gain">20dB</property>
    <property name="mlt_type">filter</property>
    <property name="mlt_service">volume</property>
    <property name="kdenlive_id">fadeout</property>
    <property name="tag">volume</property>
    <property name="kdenlive_ix">1</property>
    <property name="kdenlive_info"/>
    <property name="disable"/>
    <property name="gain">1</property>
    <property name="end">0</property>
   </filter>
  </entry>
  <entry out="124925" in="124490" producer="1_playlist5"/>
  <entry out="127953" in="126923" producer="1_playlist5">
   <filter id="filter1047" out="126944" in="126923">
    <property name="window">75</property>
    <property name="max_gain">20dB</property>
    <property name="mlt_type">filter</property>
    <property name="mlt_service">volume</property>
    <property name="kdenlive_id">volume</property>
    <property name="tag">volume</property>
    <property name="kdenlive_ix">1</property>
    <property name="kdenlive_info"/>
    <property name="disable"/>
    <property name="gain">0</property>
    <property name="end">0</property>
   </filter>
   <filter id="filter1048" out="126953" in="126945">
    <property name="window">75</property>
    <property name="max_gain">20dB</property>
    <property name="mlt_type">filter</property>
    <property name="mlt_service">volume</property>
    <property name="kdenlive_id">volume</property>
    <property name="tag">volume</property>
    <property name="kdenlive_ix">1</property>
    <property name="kdenlive_info"/>
    <property name="disable"/>
    <property name="gain">0.111111</property>
    <property name="end">1</property>
   </filter>
   <filter id="filter1049" out="127953" in="126954">
    <property name="window">75</property>
    <property name="max_gain">20dB</property>
    <property name="mlt_type">filter</property>
    <property name="mlt_service">volume</property>
    <property name="kdenlive_id">volume</property>
    <property name="tag">volume</property>
    <property name="kdenlive_ix">1</property>
    <property name="kdenlive_info"/>
    <property name="disable"/>
    <property name="gain">1</property>
    <property name="end">1</property>
   </filter>
  </entry>
  <blank length="429"/>
  <entry out="134974" in="130902" producer="1_playlist5">
   <filter id="filter1050" out="130924" in="130902">
    <property name="window">75</property>
    <property name="max_gain">20dB</property>
    <property name="mlt_type">filter</property>
    <property name="mlt_service">volume</property>
    <property name="kdenlive_id">volume</property>
    <property name="tag">volume</property>
    <property name="kdenlive_ix">1</property>
    <property name="kdenlive_info"/>
    <property name="disable"/>
    <property name="gain">0</property>
    <property name="end">0</property>
   </filter>
   <filter id="filter1051" out="130941" in="130925">
    <property name="window">75</property>
    <property name="max_gain">20dB</property>
    <property name="mlt_type">filter</property>
    <property name="mlt_service">volume</property>
    <property name="kdenlive_id">volume</property>
    <property name="tag">volume</property>
    <property name="kdenlive_ix">1</property>
    <property name="kdenlive_info"/>
    <property name="disable"/>
    <property name="gain">0.0588235</property>
    <property name="end">1</property>
   </filter>
   <filter id="filter1052" out="134971" in="130942">
    <property name="window">75</property>
    <property name="max_gain">20dB</property>
    <property name="mlt_type">filter</property>
    <property name="mlt_service">volume</property>
    <property name="kdenlive_id">volume</property>
    <property name="tag">volume</property>
    <property name="kdenlive_ix">1</property>
    <property name="kdenlive_info"/>
    <property name="disable"/>
    <property name="gain">1</property>
    <property name="end">1</property>
   </filter>
   <filter id="filter1053" out="134974" in="134972">
    <property name="window">75</property>
    <property name="max_gain">20dB</property>
    <property name="mlt_type">filter</property>
    <property name="mlt_service">volume</property>
    <property name="kdenlive_id">volume</property>
    <property name="tag">volume</property>
    <property name="kdenlive_ix">1</property>
    <property name="kdenlive_info"/>
    <property name="disable"/>
    <property name="gain">0.666667</property>
    <property name="end">0</property>
   </filter>
  </entry>
  <blank length="333"/>
  <entry out="146999" in="143872" producer="1_playlist5">
   <filter id="filter1054" out="146974" in="143872">
    <property name="window">75</property>
    <property name="max_gain">20dB</property>
    <property name="mlt_type">filter</property>
    <property name="mlt_service">volume</property>
    <property name="kdenlive_id">volume</property>
    <property name="tag">volume</property>
    <property name="kdenlive_ix">1</property>
    <property name="kdenlive_info"/>
    <property name="disable"/>
    <property name="gain">1</property>
    <property name="end">1</property>
   </filter>
   <filter id="filter1055" out="146985" in="146975">
    <property name="window">75</property>
    <property name="max_gain">20dB</property>
    <property name="mlt_type">filter</property>
    <property name="mlt_service">volume</property>
    <property name="kdenlive_id">volume</property>
    <property name="tag">volume</property>
    <property name="kdenlive_ix">1</property>
    <property name="kdenlive_info"/>
    <property name="disable"/>
    <property name="gain">0.954545</property>
    <property name="end">0.5</property>
   </filter>
   <filter id="filter1056" out="146999" in="146986">
    <property name="window">75</property>
    <property name="max_gain">20dB</property>
    <property name="mlt_type">filter</property>
    <property name="mlt_service">volume</property>
    <property name="kdenlive_id">volume</property>
    <property name="tag">volume</property>
    <property name="kdenlive_ix">1</property>
    <property name="kdenlive_info"/>
    <property name="disable"/>
    <property name="gain">0.485714</property>
    <property name="end">0.3</property>
   </filter>
  </entry>
  <entry out="149829" in="148874" producer="1_playlist5">
   <filter id="filter1057" out="148891" in="148874">
    <property name="window">75</property>
    <property name="max_gain">20dB</property>
    <property name="mlt_type">filter</property>
    <property name="mlt_service">volume</property>
    <property name="kdenlive_id">volume</property>
    <property name="tag">volume</property>
    <property name="kdenlive_ix">1</property>
    <property name="kdenlive_info"/>
    <property name="disable"/>
    <property name="gain">0</property>
    <property name="end">0</property>
   </filter>
   <filter id="filter1058" out="148897" in="148892">
    <property name="window">75</property>
    <property name="max_gain">20dB</property>
    <property name="mlt_type">filter</property>
    <property name="mlt_service">volume</property>
    <property name="kdenlive_id">volume</property>
    <property name="tag">volume</property>
    <property name="kdenlive_ix">1</property>
    <property name="kdenlive_info"/>
    <property name="disable"/>
    <property name="gain">0.113333</property>
    <property name="end">0.68</property>
   </filter>
   <filter id="filter1059" out="148903" in="148898">
    <property name="window">75</property>
    <property name="max_gain">20dB</property>
    <property name="mlt_type">filter</property>
    <property name="mlt_service">volume</property>
    <property name="kdenlive_id">volume</property>
    <property name="tag">volume</property>
    <property name="kdenlive_ix">1</property>
    <property name="kdenlive_info"/>
    <property name="disable"/>
    <property name="gain">0.733333</property>
    <property name="end">1</property>
   </filter>
   <filter id="filter1060" out="149829" in="148904">
    <property name="window">75</property>
    <property name="max_gain">20dB</property>
    <property name="mlt_type">filter</property>
    <property name="mlt_service">volume</property>
    <property name="kdenlive_id">volume</property>
    <property name="tag">volume</property>
    <property name="kdenlive_ix">1</property>
    <property name="kdenlive_info"/>
    <property name="disable"/>
    <property name="gain">1</property>
    <property name="end">1</property>
   </filter>
  </entry>
  <entry out="149860" in="149830" producer="1_playlist5">
   <filter id="filter1061" out="149840" in="149830">
    <property name="window">75</property>
    <property name="max_gain">20dB</property>
    <property name="mlt_type">filter</property>
    <property name="mlt_service">volume</property>
    <property name="kdenlive_id">volume</property>
    <property name="tag">volume</property>
    <property name="kdenlive_ix">1</property>
    <property name="kdenlive_info"/>
    <property name="disable"/>
    <property name="gain">1</property>
    <property name="end">0</property>
   </filter>
   <filter id="filter1062" out="149860" in="149841">
    <property name="window">75</property>
    <property name="max_gain">20dB</property>
    <property name="mlt_type">filter</property>
    <property name="mlt_service">volume</property>
    <property name="kdenlive_id">volume</property>
    <property name="tag">volume</property>
    <property name="kdenlive_ix">1</property>
    <property name="kdenlive_info"/>
    <property name="disable"/>
    <property name="gain">0</property>
    <property name="end">0</property>
   </filter>
  </entry>
  <entry out="147849" in="147234" producer="1_playlist5">
   <filter id="filter1063" out="147849" in="147839">
    <property name="window">75</property>
    <property name="max_gain">20dB</property>
    <property name="mlt_type">filter</property>
    <property name="mlt_service">volume</property>
    <property name="kdenlive_id">fadeout</property>
    <property name="tag">volume</property>
    <property name="kdenlive_ix">1</property>
    <property name="kdenlive_info"/>
    <property name="disable"/>
    <property name="gain">1</property>
    <property name="end">0</property>
   </filter>
  </entry>
  <entry out="151670" in="150986" producer="1_playlist5">
   <filter id="filter1064" out="151011" in="150986">
    <property name="window">75</property>
    <property name="max_gain">20dB</property>
    <property name="mlt_type">filter</property>
    <property name="mlt_service">volume</property>
    <property name="kdenlive_id">volume</property>
    <property name="tag">volume</property>
    <property name="kdenlive_ix">1</property>
    <property name="kdenlive_info"/>
    <property name="disable"/>
    <property name="gain">1.2</property>
    <property name="end">1</property>
   </filter>
   <filter id="filter1065" out="151224" in="151012">
    <property name="window">75</property>
    <property name="max_gain">20dB</property>
    <property name="mlt_type">filter</property>
    <property name="mlt_service">volume</property>
    <property name="kdenlive_id">volume</property>
    <property name="tag">volume</property>
    <property name="kdenlive_ix">1</property>
    <property name="kdenlive_info"/>
    <property name="disable"/>
    <property name="gain">1</property>
    <property name="end">1</property>
   </filter>
   <filter id="filter1066" out="151254" in="151225">
    <property name="window">75</property>
    <property name="max_gain">20dB</property>
    <property name="mlt_type">filter</property>
    <property name="mlt_service">volume</property>
    <property name="kdenlive_id">volume</property>
    <property name="tag">volume</property>
    <property name="kdenlive_ix">1</property>
    <property name="kdenlive_info"/>
    <property name="disable"/>
    <property name="gain">0.99</property>
    <property name="end">0.7</property>
   </filter>
   <filter id="filter1067" out="151603" in="151255">
    <property name="window">75</property>
    <property name="max_gain">20dB</property>
    <property name="mlt_type">filter</property>
    <property name="mlt_service">volume</property>
    <property name="kdenlive_id">volume</property>
    <property name="tag">volume</property>
    <property name="kdenlive_ix">1</property>
    <property name="kdenlive_info"/>
    <property name="disable"/>
    <property name="gain">0.7</property>
    <property name="end">0.7</property>
   </filter>
   <filter id="filter1068" out="151609" in="151604">
    <property name="window">75</property>
    <property name="max_gain">20dB</property>
    <property name="mlt_type">filter</property>
    <property name="mlt_service">volume</property>
    <property name="kdenlive_id">volume</property>
    <property name="tag">volume</property>
    <property name="kdenlive_ix">1</property>
    <property name="kdenlive_info"/>
    <property name="disable"/>
    <property name="gain">0.75</property>
    <property name="end">1</property>
   </filter>
   <filter id="filter1069" out="151670" in="151610">
    <property name="window">75</property>
    <property name="max_gain">20dB</property>
    <property name="mlt_type">filter</property>
    <property name="mlt_service">volume</property>
    <property name="kdenlive_id">volume</property>
    <property name="tag">volume</property>
    <property name="kdenlive_ix">1</property>
    <property name="kdenlive_info"/>
    <property name="disable"/>
    <property name="gain">1</property>
    <property name="end">1</property>
   </filter>
  </entry>
  <entry out="152220" in="151921" producer="1_playlist5">
   <filter id="filter1070" in="151902">
    <property name="window">75</property>
    <property name="max_gain">20dB</property>
    <property name="mlt_type">filter</property>
    <property name="mlt_service">volume</property>
    <property name="kdenlive_id">volume</property>
    <property name="tag">volume</property>
    <property name="kdenlive_ix">1</property>
    <property name="kdenlive_info"/>
    <property name="disable"/>
    <property name="gain">1</property>
   </filter>
  </entry>
  <entry out="153249" in="152333" producer="1_playlist5">
   <filter id="filter1071" out="153249" in="152333">
    <property name="window">75</property>
    <property name="max_gain">20dB</property>
    <property name="mlt_type">filter</property>
    <property name="mlt_service">volume</property>
    <property name="kdenlive_id">volume</property>
    <property name="tag">volume</property>
    <property name="kdenlive_ix">1</property>
    <property name="kdenlive_info"/>
    <property name="disable"/>
    <property name="gain">1</property>
    <property name="end">1</property>
   </filter>
  </entry>
  <entry out="153572" in="153286" producer="1_playlist5">
   <filter id="filter1072" out="153558" in="153286">
    <property name="window">75</property>
    <property name="max_gain">20dB</property>
    <property name="mlt_type">filter</property>
    <property name="mlt_service">volume</property>
    <property name="kdenlive_id">volume</property>
    <property name="tag">volume</property>
    <property name="kdenlive_ix">1</property>
    <property name="kdenlive_info"/>
    <property name="disable"/>
    <property name="gain">1</property>
    <property name="end">1</property>
   </filter>
   <filter id="filter1073" out="153568" in="153559">
    <property name="window">75</property>
    <property name="max_gain">20dB</property>
    <property name="mlt_type">filter</property>
    <property name="mlt_service">volume</property>
    <property name="kdenlive_id">volume</property>
    <property name="tag">volume</property>
    <property name="kdenlive_ix">1</property>
    <property name="kdenlive_info"/>
    <property name="disable"/>
    <property name="gain">0.975</property>
    <property name="end">0.75</property>
   </filter>
   <filter id="filter1074" out="153572" in="153569">
    <property name="window">75</property>
    <property name="max_gain">20dB</property>
    <property name="mlt_type">filter</property>
    <property name="mlt_service">volume</property>
    <property name="kdenlive_id">volume</property>
    <property name="tag">volume</property>
    <property name="kdenlive_ix">1</property>
    <property name="kdenlive_info"/>
    <property name="disable"/>
    <property name="gain">0.6375</property>
    <property name="end">0.3</property>
   </filter>
  </entry>
  <entry out="154168" in="154137" producer="1_playlist5">
   <filter id="filter1075" in="154068">
    <property name="window">75</property>
    <property name="max_gain">20dB</property>
    <property name="mlt_type">filter</property>
    <property name="mlt_service">volume</property>
    <property name="kdenlive_id">volume</property>
    <property name="tag">volume</property>
    <property name="kdenlive_ix">1</property>
    <property name="kdenlive_info"/>
    <property name="disable"/>
    <property name="gain">0</property>
   </filter>
  </entry>
  <entry out="154089" in="154061" producer="1_playlist5">
   <filter id="filter1076" in="154061">
    <property name="window">75</property>
    <property name="max_gain">20dB</property>
    <property name="mlt_type">filter</property>
    <property name="mlt_service">volume</property>
    <property name="kdenlive_id">volume</property>
    <property name="tag">volume</property>
    <property name="kdenlive_ix">1</property>
    <property name="kdenlive_info"/>
    <property name="disable"/>
    <property name="gain">0</property>
   </filter>
  </entry>
  <blank length="169"/>
  <entry out="157355" in="156756" producer="1_playlist5">
   <filter id="filter1077" out="156893" in="156756">
    <property name="window">75</property>
    <property name="max_gain">20dB</property>
    <property name="mlt_type">filter</property>
    <property name="mlt_service">volume</property>
    <property name="kdenlive_id">volume</property>
    <property name="tag">volume</property>
    <property name="kdenlive_ix">1</property>
    <property name="kdenlive_info"/>
    <property name="disable"/>
    <property name="gain">0</property>
    <property name="end">0.15</property>
   </filter>
   <filter id="filter1078" out="156923" in="156894">
    <property name="window">75</property>
    <property name="max_gain">20dB</property>
    <property name="mlt_type">filter</property>
    <property name="mlt_service">volume</property>
    <property name="kdenlive_id">volume</property>
    <property name="tag">volume</property>
    <property name="kdenlive_ix">1</property>
    <property name="kdenlive_info"/>
    <property name="disable"/>
    <property name="gain">0.178333</property>
    <property name="end">1</property>
   </filter>
   <filter id="filter1079" out="157355" in="156924">
    <property name="window">75</property>
    <property name="max_gain">20dB</property>
    <property name="mlt_type">filter</property>
    <property name="mlt_service">volume</property>
    <property name="kdenlive_id">volume</property>
    <property name="tag">volume</property>
    <property name="kdenlive_ix">1</property>
    <property name="kdenlive_info"/>
    <property name="disable"/>
    <property name="gain">1</property>
    <property name="end">1</property>
   </filter>
  </entry>
  <entry out="159113" in="158182" producer="1_playlist5">
   <filter id="filter1080" out="158340" in="158182">
    <property name="window">75</property>
    <property name="max_gain">20dB</property>
    <property name="mlt_type">filter</property>
    <property name="mlt_service">volume</property>
    <property name="kdenlive_id">fadein</property>
    <property name="tag">volume</property>
    <property name="kdenlive_ix">1</property>
    <property name="kdenlive_info"/>
    <property name="disable"/>
    <property name="gain">0</property>
    <property name="end">1</property>
   </filter>
  </entry>
  <entry out="79555" in="79453" producer="3_playlist5">
   <filter id="filter1081">
    <property name="window">75</property>
    <property name="max_gain">20dB</property>
    <property name="mlt_type">filter</property>
    <property name="mlt_service">volume</property>
    <property name="kdenlive_id">mute</property>
    <property name="tag">volume</property>
    <property name="kdenlive_ix">1</property>
    <property name="kdenlive_info"/>
    <property name="disable"/>
    <property name="gain">0</property>
   </filter>
   <filter id="frei0r.coloradj_RGB">
    <property name="version">0.2</property>
    <property name="mlt_type">filter</property>
    <property name="mlt_service">frei0r.coloradj_RGB</property>
    <property name="kdenlive_id">frei0r.coloradj_RGB</property>
    <property name="tag">frei0r.coloradj_RGB</property>
    <property name="kdenlive_ix">2</property>
    <property name="kdenlive_info"/>
    <property name="disable"/>
    <property name="R">79453=0.5</property>
    <property name="G">79453=0.5</property>
    <property name="B">79453=0.436</property>
    <property name="Action">0.5</property>
    <property name="Keep luma">1</property>
    <property name="Alpha controlled">0</property>
    <property name="Luma formula">1.0</property>
   </filter>
   <filter id="filter1082">
    <property name="version">0.3</property>
    <property name="mlt_type">filter</property>
    <property name="mlt_service">frei0r.saturat0r</property>
    <property name="kdenlive_id">frei0r.saturat0r</property>
    <property name="tag">frei0r.saturat0r</property>
    <property name="kdenlive_ix">3</property>
    <property name="kdenlive_info"/>
    <property name="disable"/>
    <property name="Saturation">79453=0.08</property>
   </filter>
  </entry>
  <entry out="162032" in="161591" producer="1_playlist5">
   <filter id="filter1083" out="161807" in="161591">
    <property name="window">75</property>
    <property name="max_gain">20dB</property>
    <property name="mlt_type">filter</property>
    <property name="mlt_service">volume</property>
    <property name="kdenlive_id">fadein</property>
    <property name="tag">volume</property>
    <property name="kdenlive_ix">1</property>
    <property name="kdenlive_info"/>
    <property name="disable"/>
    <property name="gain">0</property>
    <property name="end">1</property>
   </filter>
  </entry>
  <blank length="663"/>
  <entry out="107004" in="106942" producer="3_playlist5">
   <filter id="filter1084" out="106949" in="106942">
    <property name="window">75</property>
    <property name="max_gain">20dB</property>
    <property name="mlt_type">filter</property>
    <property name="mlt_service">volume</property>
    <property name="kdenlive_id">volume</property>
    <property name="tag">volume</property>
    <property name="kdenlive_ix">1</property>
    <property name="kdenlive_info"/>
    <property name="disable"/>
    <property name="gain">0</property>
    <property name="end">0</property>
   </filter>
   <filter id="filter1085" out="106962" in="106950">
    <property name="window">75</property>
    <property name="max_gain">20dB</property>
    <property name="mlt_type">filter</property>
    <property name="mlt_service">volume</property>
    <property name="kdenlive_id">volume</property>
    <property name="tag">volume</property>
    <property name="kdenlive_ix">1</property>
    <property name="kdenlive_info"/>
    <property name="disable"/>
    <property name="gain">0.00384615</property>
    <property name="end">0.05</property>
   </filter>
   <filter id="filter1086" out="106990" in="106963">
    <property name="window">75</property>
    <property name="max_gain">20dB</property>
    <property name="mlt_type">filter</property>
    <property name="mlt_service">volume</property>
    <property name="kdenlive_id">volume</property>
    <property name="tag">volume</property>
    <property name="kdenlive_ix">1</property>
    <property name="kdenlive_info"/>
    <property name="disable"/>
    <property name="gain">0.05</property>
    <property name="end">0.05</property>
   </filter>
   <filter id="filter1087" out="107004" in="106991">
    <property name="window">75</property>
    <property name="max_gain">20dB</property>
    <property name="mlt_type">filter</property>
    <property name="mlt_service">volume</property>
    <property name="kdenlive_id">volume</property>
    <property name="tag">volume</property>
    <property name="kdenlive_ix">1</property>
    <property name="kdenlive_info"/>
    <property name="disable"/>
    <property name="gain">0.0464286</property>
    <property name="end">0</property>
   </filter>
   <filter id="filter1088">
    <property name="version">0.3</property>
    <property name="mlt_type">filter</property>
    <property name="mlt_service">frei0r.saturat0r</property>
    <property name="kdenlive_id">frei0r.saturat0r</property>
    <property name="tag">frei0r.saturat0r</property>
    <property name="kdenlive_ix">2</property>
    <property name="kdenlive_info"/>
    <property name="disable"/>
    <property name="Saturation">106942=0.03</property>
   </filter>
   <filter id="filter1089">
    <property name="version">0.3</property>
    <property name="mlt_type">filter</property>
    <property name="mlt_service">frei0r.hueshift0r</property>
    <property name="kdenlive_id">frei0r.hueshift0r</property>
    <property name="tag">frei0r.hueshift0r</property>
    <property name="kdenlive_ix">3</property>
    <property name="kdenlive_info"/>
    <property name="disable"/>
    <property name="Hue">106942=0.855556</property>
   </filter>
  </entry>
  <blank length="627"/>
  <entry out="107732" in="107642" producer="3_playlist5">
   <filter id="filter1090" in="107642">
    <property name="window">75</property>
    <property name="max_gain">20dB</property>
    <property name="mlt_type">filter</property>
    <property name="mlt_service">volume</property>
    <property name="kdenlive_id">volume</property>
    <property name="tag">volume</property>
    <property name="kdenlive_ix">1</property>
    <property name="kdenlive_info"/>
    <property name="disable"/>
    <property name="gain">0</property>
   </filter>
   <filter id="filter1091">
    <property name="version">0.3</property>
    <property name="mlt_type">filter</property>
    <property name="mlt_service">frei0r.saturat0r</property>
    <property name="kdenlive_id">frei0r.saturat0r</property>
    <property name="tag">frei0r.saturat0r</property>
    <property name="kdenlive_ix">2</property>
    <property name="kdenlive_info"/>
    <property name="disable"/>
    <property name="Saturation">107642=0.025</property>
   </filter>
   <filter id="filter1092">
    <property name="version">0.3</property>
    <property name="mlt_type">filter</property>
    <property name="mlt_service">frei0r.hueshift0r</property>
    <property name="kdenlive_id">frei0r.hueshift0r</property>
    <property name="tag">frei0r.hueshift0r</property>
    <property name="kdenlive_ix">3</property>
    <property name="kdenlive_info"/>
    <property name="disable"/>
    <property name="Hue">107642=0.855556</property>
   </filter>
   <filter id="filter1093">
    <property name="version">0.2</property>
    <property name="mlt_type">filter</property>
    <property name="mlt_service">frei0r.brightness</property>
    <property name="kdenlive_id">frei0r.brightness</property>
    <property name="tag">frei0r.brightness</property>
    <property name="kdenlive_ix">4</property>
    <property name="kdenlive_info"/>
    <property name="disable"/>
    <property name="Brightness">0.356</property>
   </filter>
  </entry>
  <entry out="175421" in="172195" producer="1_playlist5">
   <filter id="filter769" out="172441" in="172195">
    <property name="window">75</property>
    <property name="max_gain">20dB</property>
    <property name="mlt_type">filter</property>
    <property name="mlt_service">volume</property>
    <property name="kdenlive_id">volume</property>
    <property name="tag">volume</property>
    <property name="kdenlive_ix">1</property>
    <property name="kdenlive_info"/>
    <property name="disable"/>
    <property name="gain">0.4</property>
    <property name="end">1</property>
   </filter>
   <filter id="filter770" out="175421" in="172442">
    <property name="window">75</property>
    <property name="max_gain">20dB</property>
    <property name="mlt_type">filter</property>
    <property name="mlt_service">volume</property>
    <property name="kdenlive_id">volume</property>
    <property name="tag">volume</property>
    <property name="kdenlive_ix">1</property>
    <property name="kdenlive_info"/>
    <property name="disable"/>
    <property name="gain">1</property>
    <property name="end">1</property>
   </filter>
  </entry>
  <entry out="176025" in="175798" producer="1_playlist5">
   <filter id="filter1096" out="175838" in="175798">
    <property name="window">75</property>
    <property name="max_gain">20dB</property>
    <property name="mlt_type">filter</property>
    <property name="mlt_service">volume</property>
    <property name="kdenlive_id">fadein</property>
    <property name="tag">volume</property>
    <property name="kdenlive_ix">1</property>
    <property name="kdenlive_info"/>
    <property name="disable"/>
    <property name="gain">0</property>
    <property name="end">1</property>
   </filter>
   <filter id="filter1097" out="176006" in="175798">
    <property name="window">75</property>
    <property name="max_gain">20dB</property>
    <property name="mlt_type">filter</property>
    <property name="mlt_service">volume</property>
    <property name="kdenlive_id">volume</property>
    <property name="tag">volume</property>
    <property name="kdenlive_ix">2</property>
    <property name="kdenlive_info"/>
    <property name="disable"/>
    <property name="gain">1</property>
    <property name="end">1</property>
   </filter>
   <filter id="filter1098" out="176011" in="176007">
    <property name="window">75</property>
    <property name="max_gain">20dB</property>
    <property name="mlt_type">filter</property>
    <property name="mlt_service">volume</property>
    <property name="kdenlive_id">volume</property>
    <property name="tag">volume</property>
    <property name="kdenlive_ix">2</property>
    <property name="kdenlive_info"/>
    <property name="disable"/>
    <property name="gain">0.9</property>
    <property name="end">0.5</property>
   </filter>
   <filter id="filter1099" out="176025" in="176012">
    <property name="window">75</property>
    <property name="max_gain">20dB</property>
    <property name="mlt_type">filter</property>
    <property name="mlt_service">volume</property>
    <property name="kdenlive_id">volume</property>
    <property name="tag">volume</property>
    <property name="kdenlive_ix">2</property>
    <property name="kdenlive_info"/>
    <property name="disable"/>
    <property name="gain">0.482143</property>
    <property name="end">0.25</property>
   </filter>
  </entry>
  <entry out="176487" in="176372" producer="1_playlist5">
   <filter id="filter1100" out="176403" in="176372">
    <property name="window">75</property>
    <property name="max_gain">20dB</property>
    <property name="mlt_type">filter</property>
    <property name="mlt_service">volume</property>
    <property name="kdenlive_id">volume</property>
    <property name="tag">volume</property>
    <property name="kdenlive_ix">1</property>
    <property name="kdenlive_info"/>
    <property name="disable"/>
    <property name="gain">0</property>
    <property name="end">0</property>
   </filter>
   <filter id="filter1101" out="176435" in="176404">
    <property name="window">75</property>
    <property name="max_gain">20dB</property>
    <property name="mlt_type">filter</property>
    <property name="mlt_service">volume</property>
    <property name="kdenlive_id">volume</property>
    <property name="tag">volume</property>
    <property name="kdenlive_ix">1</property>
    <property name="kdenlive_info"/>
    <property name="disable"/>
    <property name="gain">0.003125</property>
    <property name="end">0.1</property>
   </filter>
   <filter id="filter1102" out="176474" in="176436">
    <property name="window">75</property>
    <property name="max_gain">20dB</property>
    <property name="mlt_type">filter</property>
    <property name="mlt_service">volume</property>
    <property name="kdenlive_id">volume</property>
    <property name="tag">volume</property>
    <property name="kdenlive_ix">1</property>
    <property name="kdenlive_info"/>
    <property name="disable"/>
    <property name="gain">0.1</property>
    <property name="end">0.1</property>
   </filter>
   <filter id="filter1103" out="176477" in="176475">
    <property name="window">75</property>
    <property name="max_gain">20dB</property>
    <property name="mlt_type">filter</property>
    <property name="mlt_service">volume</property>
    <property name="kdenlive_id">volume</property>
    <property name="tag">volume</property>
    <property name="kdenlive_ix">1</property>
    <property name="kdenlive_info"/>
    <property name="disable"/>
    <property name="gain">0.0666667</property>
    <property name="end">0</property>
   </filter>
   <filter id="filter1104" out="176487" in="176478">
    <property name="window">75</property>
    <property name="max_gain">20dB</property>
    <property name="mlt_type">filter</property>
    <property name="mlt_service">volume</property>
    <property name="kdenlive_id">volume</property>
    <property name="tag">volume</property>
    <property name="kdenlive_ix">1</property>
    <property name="kdenlive_info"/>
    <property name="disable"/>
    <property name="gain">0</property>
    <property name="end">0</property>
   </filter>
   <filter id="filter1105" out="176403" in="176372">
    <property name="window">75</property>
    <property name="max_gain">20dB</property>
    <property name="mlt_type">filter</property>
    <property name="mlt_service">volume</property>
    <property name="kdenlive_id">fadein</property>
    <property name="tag">volume</property>
    <property name="kdenlive_ix">2</property>
    <property name="kdenlive_info"/>
    <property name="disable"/>
    <property name="gain">0</property>
    <property name="end">1</property>
   </filter>
   <filter id="freeze">
    <property name="frame">102</property>
    <property name="freeze_after">1</property>
    <property name="freeze_before">0</property>
    <property name="mlt_type">filter</property>
    <property name="mlt_service">freeze</property>
    <property name="kdenlive_id">freeze</property>
    <property name="tag">freeze</property>
    <property name="kdenlive_ix">3</property>
    <property name="kdenlive_info"/>
    <property name="disable"/>
   </filter>
  </entry>
  <blank length="3736"/>
  <entry out="183059" in="181566" producer="1_playlist5">
   <filter id="filter1106" out="181641" in="181566">
    <property name="window">75</property>
    <property name="max_gain">20dB</property>
    <property name="mlt_type">filter</property>
    <property name="mlt_service">volume</property>
    <property name="kdenlive_id">fadein</property>
    <property name="tag">volume</property>
    <property name="kdenlive_ix">1</property>
    <property name="kdenlive_info"/>
    <property name="disable"/>
    <property name="gain">0</property>
    <property name="end">1</property>
   </filter>
  </entry>
  <entry out="183071" in="183060" producer="1_playlist5">
   <filter id="filter1107">
    <property name="window">75</property>
    <property name="max_gain">20dB</property>
    <property name="mlt_type">filter</property>
    <property name="mlt_service">volume</property>
    <property name="kdenlive_id">mute</property>
    <property name="tag">volume</property>
    <property name="kdenlive_ix">1</property>
    <property name="kdenlive_info"/>
    <property name="disable"/>
    <property name="gain">0</property>
   </filter>
  </entry>
  <entry out="192890" in="189151" producer="1_playlist5">
   <filter id="filter1108" out="189341" in="189151">
    <property name="window">75</property>
    <property name="max_gain">20dB</property>
    <property name="mlt_type">filter</property>
    <property name="mlt_service">volume</property>
    <property name="kdenlive_id">fadein</property>
    <property name="tag">volume</property>
    <property name="kdenlive_ix">1</property>
    <property name="kdenlive_info"/>
    <property name="disable"/>
    <property name="gain">0</property>
    <property name="end">1</property>
   </filter>
  </entry>
  <blank length="524"/>
  <entry out="195623" in="194317" producer="1_playlist5">
   <filter id="filter1109" out="194323" in="194317">
    <property name="window">75</property>
    <property name="max_gain">20dB</property>
    <property name="mlt_type">filter</property>
    <property name="mlt_service">volume</property>
    <property name="kdenlive_id">fadein</property>
    <property name="tag">volume</property>
    <property name="kdenlive_ix">1</property>
    <property name="kdenlive_info"/>
    <property name="disable"/>
    <property name="gain">0</property>
    <property name="end">1</property>
   </filter>
   <filter id="filter1110" out="195623" in="195548">
    <property name="window">75</property>
    <property name="max_gain">20dB</property>
    <property name="mlt_type">filter</property>
    <property name="mlt_service">volume</property>
    <property name="kdenlive_id">fadeout</property>
    <property name="tag">volume</property>
    <property name="kdenlive_ix">2</property>
    <property name="kdenlive_info"/>
    <property name="disable"/>
    <property name="gain">1</property>
    <property name="end">0</property>
   </filter>
  </entry>
  <blank length="3488"/>
  <entry out="204436" in="199495" producer="1_playlist5">
   <filter id="filter754" out="199612" in="199495">
    <property name="window">75</property>
    <property name="max_gain">20dB</property>
    <property name="mlt_type">filter</property>
    <property name="mlt_service">volume</property>
    <property name="kdenlive_id">volume</property>
    <property name="tag">volume</property>
    <property name="kdenlive_ix">1</property>
    <property name="kdenlive_info"/>
    <property name="disable"/>
    <property name="gain">0.75</property>
    <property name="end">0.75</property>
   </filter>
   <filter id="filter755" out="199706" in="199613">
    <property name="window">75</property>
    <property name="max_gain">20dB</property>
    <property name="mlt_type">filter</property>
    <property name="mlt_service">volume</property>
    <property name="kdenlive_id">volume</property>
    <property name="tag">volume</property>
    <property name="kdenlive_ix">1</property>
    <property name="kdenlive_info"/>
    <property name="disable"/>
    <property name="gain">0.75266</property>
    <property name="end">1</property>
   </filter>
   <filter id="filter756" out="200074" in="199707">
    <property name="window">75</property>
    <property name="max_gain">20dB</property>
    <property name="mlt_type">filter</property>
    <property name="mlt_service">volume</property>
    <property name="kdenlive_id">volume</property>
    <property name="tag">volume</property>
    <property name="kdenlive_ix">1</property>
    <property name="kdenlive_info"/>
    <property name="disable"/>
    <property name="gain">1</property>
    <property name="end">1</property>
   </filter>
   <filter id="filter757" out="200159" in="200075">
    <property name="window">75</property>
    <property name="max_gain">20dB</property>
    <property name="mlt_type">filter</property>
    <property name="mlt_service">volume</property>
    <property name="kdenlive_id">volume</property>
    <property name="tag">volume</property>
    <property name="kdenlive_ix">1</property>
    <property name="kdenlive_info"/>
    <property name="disable"/>
    <property name="gain">0.994118</property>
    <property name="end">0.5</property>
   </filter>
   <filter id="filter758" out="200449" in="200160">
    <property name="window">75</property>
    <property name="max_gain">20dB</property>
    <property name="mlt_type">filter</property>
    <property name="mlt_service">volume</property>
    <property name="kdenlive_id">volume</property>
    <property name="tag">volume</property>
    <property name="kdenlive_ix">1</property>
    <property name="kdenlive_info"/>
    <property name="disable"/>
    <property name="gain">0.5</property>
    <property name="end">0.5</property>
   </filter>
   <filter id="filter759" out="200459" in="200450">
    <property name="window">75</property>
    <property name="max_gain">20dB</property>
    <property name="mlt_type">filter</property>
    <property name="mlt_service">volume</property>
    <property name="kdenlive_id">volume</property>
    <property name="tag">volume</property>
    <property name="kdenlive_ix">1</property>
    <property name="kdenlive_info"/>
    <property name="disable"/>
    <property name="gain">0.55</property>
    <property name="end">1</property>
   </filter>
   <filter id="filter760" out="200730" in="200460">
    <property name="window">75</property>
    <property name="max_gain">20dB</property>
    <property name="mlt_type">filter</property>
    <property name="mlt_service">volume</property>
    <property name="kdenlive_id">volume</property>
    <property name="tag">volume</property>
    <property name="kdenlive_ix">1</property>
    <property name="kdenlive_info"/>
    <property name="disable"/>
    <property name="gain">1</property>
    <property name="end">1</property>
   </filter>
   <filter id="filter771" out="200739" in="200731">
    <property name="window">75</property>
    <property name="max_gain">20dB</property>
    <property name="mlt_type">filter</property>
    <property name="mlt_service">volume</property>
    <property name="kdenlive_id">volume</property>
    <property name="tag">volume</property>
    <property name="kdenlive_ix">1</property>
    <property name="kdenlive_info"/>
    <property name="disable"/>
    <property name="gain">0.972222</property>
    <property name="end">0.75</property>
   </filter>
   <filter id="filter772" out="200924" in="200740">
    <property name="window">75</property>
    <property name="max_gain">20dB</property>
    <property name="mlt_type">filter</property>
    <property name="mlt_service">volume</property>
    <property name="kdenlive_id">volume</property>
    <property name="tag">volume</property>
    <property name="kdenlive_ix">1</property>
    <property name="kdenlive_info"/>
    <property name="disable"/>
    <property name="gain">0.75</property>
    <property name="end">0.75</property>
   </filter>
   <filter id="filter773" out="201339" in="200925">
    <property name="window">75</property>
    <property name="max_gain">20dB</property>
    <property name="mlt_type">filter</property>
    <property name="mlt_service">volume</property>
    <property name="kdenlive_id">volume</property>
    <property name="tag">volume</property>
    <property name="kdenlive_ix">1</property>
    <property name="kdenlive_info"/>
    <property name="disable"/>
    <property name="gain">0.750602</property>
    <property name="end">1</property>
   </filter>
   <filter id="filter774" out="201874" in="201340">
    <property name="window">75</property>
    <property name="max_gain">20dB</property>
    <property name="mlt_type">filter</property>
    <property name="mlt_service">volume</property>
    <property name="kdenlive_id">volume</property>
    <property name="tag">volume</property>
    <property name="kdenlive_ix">1</property>
    <property name="kdenlive_info"/>
    <property name="disable"/>
    <property name="gain">1</property>
    <property name="end">1</property>
   </filter>
   <filter id="filter775" out="201907" in="201875">
    <property name="window">75</property>
    <property name="max_gain">20dB</property>
    <property name="mlt_type">filter</property>
    <property name="mlt_service">volume</property>
    <property name="kdenlive_id">volume</property>
    <property name="tag">volume</property>
    <property name="kdenlive_ix">1</property>
    <property name="kdenlive_info"/>
    <property name="disable"/>
    <property name="gain">0.992424</property>
    <property name="end">0.75</property>
   </filter>
   <filter id="filter776" out="202081" in="201908">
    <property name="window">75</property>
    <property name="max_gain">20dB</property>
    <property name="mlt_type">filter</property>
    <property name="mlt_service">volume</property>
    <property name="kdenlive_id">volume</property>
    <property name="tag">volume</property>
    <property name="kdenlive_ix">1</property>
    <property name="kdenlive_info"/>
    <property name="disable"/>
    <property name="gain">0.75</property>
    <property name="end">0.75</property>
   </filter>
   <filter id="filter777" out="202098" in="202082">
    <property name="window">75</property>
    <property name="max_gain">20dB</property>
    <property name="mlt_type">filter</property>
    <property name="mlt_service">volume</property>
    <property name="kdenlive_id">volume</property>
    <property name="tag">volume</property>
    <property name="kdenlive_ix">1</property>
    <property name="kdenlive_info"/>
    <property name="disable"/>
    <property name="gain">0.764706</property>
    <property name="end">1</property>
   </filter>
   <filter id="filter778" out="202197" in="202099">
    <property name="window">75</property>
    <property name="max_gain">20dB</property>
    <property name="mlt_type">filter</property>
    <property name="mlt_service">volume</property>
    <property name="kdenlive_id">volume</property>
    <property name="tag">volume</property>
    <property name="kdenlive_ix">1</property>
    <property name="kdenlive_info"/>
    <property name="disable"/>
    <property name="gain">1</property>
    <property name="end">1</property>
   </filter>
   <filter id="filter779" out="202252" in="202198">
    <property name="window">75</property>
    <property name="max_gain">20dB</property>
    <property name="mlt_type">filter</property>
    <property name="mlt_service">volume</property>
    <property name="kdenlive_id">volume</property>
    <property name="tag">volume</property>
    <property name="kdenlive_ix">1</property>
    <property name="kdenlive_info"/>
    <property name="disable"/>
    <property name="gain">0.995455</property>
    <property name="end">0.75</property>
   </filter>
   <filter id="filter780" out="204215" in="202253">
    <property name="window">75</property>
    <property name="max_gain">20dB</property>
    <property name="mlt_type">filter</property>
    <property name="mlt_service">volume</property>
    <property name="kdenlive_id">volume</property>
    <property name="tag">volume</property>
    <property name="kdenlive_ix">1</property>
    <property name="kdenlive_info"/>
    <property name="disable"/>
    <property name="gain">0.75</property>
    <property name="end">0.75</property>
   </filter>
   <filter id="filter900" out="204436" in="204216">
    <property name="window">75</property>
    <property name="max_gain">20dB</property>
    <property name="mlt_type">filter</property>
    <property name="mlt_service">volume</property>
    <property name="kdenlive_id">volume</property>
    <property name="tag">volume</property>
    <property name="kdenlive_ix">1</property>
    <property name="kdenlive_info"/>
    <property name="disable"/>
    <property name="gain">0.751131</property>
    <property name="end">1</property>
   </filter>
   <filter id="filter901" out="204436" in="204426">
    <property name="window">75</property>
    <property name="max_gain">20dB</property>
    <property name="mlt_type">filter</property>
    <property name="mlt_service">volume</property>
    <property name="kdenlive_id">fadeout</property>
    <property name="tag">volume</property>
    <property name="kdenlive_ix">2</property>
    <property name="kdenlive_info"/>
    <property name="disable"/>
    <property name="gain">1</property>
    <property name="end">0</property>
   </filter>
  </entry>
  <entry out="213420" in="212675" producer="1_playlist5">
   <filter id="filter902" out="212698" in="212675">
    <property name="window">75</property>
    <property name="max_gain">20dB</property>
    <property name="mlt_type">filter</property>
    <property name="mlt_service">volume</property>
    <property name="kdenlive_id">volume</property>
    <property name="tag">volume</property>
    <property name="kdenlive_ix">1</property>
    <property name="kdenlive_info"/>
    <property name="disable"/>
    <property name="gain">0.16</property>
    <property name="end">0.75</property>
   </filter>
   <filter id="filter905" out="213420" in="212699">
    <property name="window">75</property>
    <property name="max_gain">20dB</property>
    <property name="mlt_type">filter</property>
    <property name="mlt_service">volume</property>
    <property name="kdenlive_id">volume</property>
    <property name="tag">volume</property>
    <property name="kdenlive_ix">1</property>
    <property name="kdenlive_info"/>
    <property name="disable"/>
    <property name="gain">0.75</property>
    <property name="end">0.75</property>
   </filter>
   <filter id="filter906" out="213420" in="213410">
    <property name="window">75</property>
    <property name="max_gain">20dB</property>
    <property name="mlt_type">filter</property>
    <property name="mlt_service">volume</property>
    <property name="kdenlive_id">fadeout</property>
    <property name="tag">volume</property>
    <property name="kdenlive_ix">2</property>
    <property name="kdenlive_info"/>
    <property name="disable"/>
    <property name="gain">1</property>
    <property name="end">0</property>
   </filter>
  </entry>
  <blank length="764"/>
  <entry out="221189" in="220644" producer="1_playlist5"/>
  <entry out="221227" in="221214" producer="1_playlist5"/>
  <entry out="221533" in="221470" producer="1_playlist5">
   <filter id="filter907" out="221472" in="221470">
    <property name="window">75</property>
    <property name="max_gain">20dB</property>
    <property name="mlt_type">filter</property>
    <property name="mlt_service">volume</property>
    <property name="kdenlive_id">volume</property>
    <property name="tag">volume</property>
    <property name="kdenlive_ix">1</property>
    <property name="kdenlive_info"/>
    <property name="disable"/>
    <property name="gain">0</property>
    <property name="end">1</property>
   </filter>
   <filter id="filter908" out="221488" in="221473">
    <property name="window">75</property>
    <property name="max_gain">20dB</property>
    <property name="mlt_type">filter</property>
    <property name="mlt_service">volume</property>
    <property name="kdenlive_id">volume</property>
    <property name="tag">volume</property>
    <property name="kdenlive_ix">1</property>
    <property name="kdenlive_info"/>
    <property name="disable"/>
    <property name="gain">1</property>
    <property name="end">1</property>
   </filter>
   <filter id="filter909" out="221518" in="221489">
    <property name="window">75</property>
    <property name="max_gain">20dB</property>
    <property name="mlt_type">filter</property>
    <property name="mlt_service">volume</property>
    <property name="kdenlive_id">volume</property>
    <property name="tag">volume</property>
    <property name="kdenlive_ix">1</property>
    <property name="kdenlive_info"/>
    <property name="disable"/>
    <property name="gain">0.966667</property>
    <property name="end">0</property>
   </filter>
   <filter id="filter931" out="221533" in="221519">
    <property name="window">75</property>
    <property name="max_gain">20dB</property>
    <property name="mlt_type">filter</property>
    <property name="mlt_service">volume</property>
    <property name="kdenlive_id">volume</property>
    <property name="tag">volume</property>
    <property name="kdenlive_ix">1</property>
    <property name="kdenlive_info"/>
    <property name="disable"/>
    <property name="gain">0</property>
    <property name="end">0</property>
   </filter>
  </entry>
  <blank length="35"/>
  <entry out="221694" in="221646" producer="1_playlist5">
   <filter id="filter932" out="221676" in="221646">
    <property name="window">75</property>
    <property name="max_gain">20dB</property>
    <property name="mlt_type">filter</property>
    <property name="mlt_service">volume</property>
    <property name="kdenlive_id">volume</property>
    <property name="tag">volume</property>
    <property name="kdenlive_ix">1</property>
    <property name="kdenlive_info"/>
    <property name="disable"/>
    <property name="gain">0</property>
    <property name="end">0</property>
   </filter>
   <filter id="filter1094" out="221680" in="221677">
    <property name="window">75</property>
    <property name="max_gain">20dB</property>
    <property name="mlt_type">filter</property>
    <property name="mlt_service">volume</property>
    <property name="kdenlive_id">volume</property>
    <property name="tag">volume</property>
    <property name="kdenlive_ix">1</property>
    <property name="kdenlive_info"/>
    <property name="disable"/>
    <property name="gain">0.25</property>
    <property name="end">1</property>
   </filter>
   <filter id="filter1095" out="221685" in="221681">
    <property name="window">75</property>
    <property name="max_gain">20dB</property>
    <property name="mlt_type">filter</property>
    <property name="mlt_service">volume</property>
    <property name="kdenlive_id">volume</property>
    <property name="tag">volume</property>
    <property name="kdenlive_ix">1</property>
    <property name="kdenlive_info"/>
    <property name="disable"/>
    <property name="gain">0.8</property>
    <property name="end">0</property>
   </filter>
   <filter id="filter1111" out="221694" in="221686">
    <property name="window">75</property>
    <property name="max_gain">20dB</property>
    <property name="mlt_type">filter</property>
    <property name="mlt_service">volume</property>
    <property name="kdenlive_id">volume</property>
    <property name="tag">volume</property>
    <property name="kdenlive_ix">1</property>
    <property name="kdenlive_info"/>
    <property name="disable"/>
    <property name="gain">0</property>
    <property name="end">0</property>
   </filter>
  </entry>
  <entry out="221879" in="221779" producer="1_playlist5"/>
  <entry out="223121" in="221940" producer="1_playlist5"/>
  <entry out="232327" in="231419" producer="1_playlist5">
   <filter id="filter1112" out="232327" in="232300">
    <property name="window">75</property>
    <property name="max_gain">20dB</property>
    <property name="mlt_type">filter</property>
    <property name="mlt_service">volume</property>
    <property name="kdenlive_id">fadeout</property>
    <property name="tag">volume</property>
    <property name="kdenlive_ix">1</property>
    <property name="kdenlive_info"/>
    <property name="disable"/>
    <property name="gain">1</property>
    <property name="end">0</property>
   </filter>
  </entry>
  <blank length="1810"/>
  <entry out="251983" in="251910" producer="1_playlist5">
   <filter id="filter1113">
    <property name="version">0.3</property>
    <property name="mlt_type">filter</property>
    <property name="mlt_service">frei0r.hueshift0r</property>
    <property name="kdenlive_id">frei0r.hueshift0r</property>
    <property name="tag">frei0r.hueshift0r</property>
    <property name="kdenlive_ix">1</property>
    <property name="kdenlive_info"/>
    <property name="disable"/>
    <property name="Hue">251910=0.930556</property>
   </filter>
   <filter id="filter1114">
    <property name="version">0.2</property>
    <property name="mlt_type">filter</property>
    <property name="mlt_service">frei0r.coloradj_RGB</property>
    <property name="kdenlive_id">frei0r.coloradj_RGB</property>
    <property name="tag">frei0r.coloradj_RGB</property>
    <property name="kdenlive_ix">2</property>
    <property name="kdenlive_info"/>
    <property name="disable">0</property>
    <property name="R">251910=0.345</property>
    <property name="G">251910=0.236</property>
    <property name="B">251910=0.344</property>
    <property name="Action">1.0</property>
    <property name="Keep luma">1</property>
    <property name="Alpha controlled">0</property>
    <property name="Luma formula">0.0</property>
   </filter>
   <filter id="filter1115">
    <property name="gamma">1.08</property>
    <property name="mlt_type">filter</property>
    <property name="mlt_service">gamma</property>
    <property name="kdenlive_id">gamma</property>
    <property name="tag">gamma</property>
    <property name="kdenlive_ix">3</property>
    <property name="kdenlive_info"/>
    <property name="disable"/>
   </filter>
   <filter id="filter1116" out="251947" in="251910">
    <property name="window">75</property>
    <property name="max_gain">20dB</property>
    <property name="mlt_type">filter</property>
    <property name="mlt_service">volume</property>
    <property name="kdenlive_id">fadein</property>
    <property name="tag">volume</property>
    <property name="kdenlive_ix">4</property>
    <property name="kdenlive_info"/>
    <property name="disable"/>
    <property name="gain">0</property>
    <property name="end">1</property>
   </filter>
  </entry>
  <blank length="8"/>
  <entry out="214620" in="214601" producer="1_playlist5">
   <filter id="filter1117">
    <property name="window">75</property>
    <property name="max_gain">20dB</property>
    <property name="mlt_type">filter</property>
    <property name="mlt_service">volume</property>
    <property name="kdenlive_id">mute</property>
    <property name="tag">volume</property>
    <property name="kdenlive_ix">1</property>
    <property name="kdenlive_info"/>
    <property name="disable"/>
    <property name="gain">0</property>
   </filter>
   <filter id="frei0r.flippo">
    <property name="version">0.1</property>
    <property name="mlt_type">filter</property>
    <property name="mlt_service">frei0r.flippo</property>
    <property name="kdenlive_id">frei0r.flippo</property>
    <property name="tag">frei0r.flippo</property>
    <property name="kdenlive_ix">2</property>
    <property name="kdenlive_info"/>
    <property name="disable">0</property>
    <property name="X axis">1</property>
    <property name="Y axis">0</property>
   </filter>
   <filter id="filter1118">
    <property name="mlt_type">filter</property>
    <property name="mlt_service">crop</property>
    <property name="kdenlive_id">crop</property>
    <property name="tag">crop</property>
    <property name="kdenlive_ix">3</property>
    <property name="kdenlive_info"/>
    <property name="disable">0</property>
    <property name="top">0</property>
    <property name="left">0</property>
    <property name="bottom">400</property>
    <property name="right">711</property>
    <property name="center">0</property>
    <property name="center_bias">0</property>
    <property name="use_profile">1</property>
   </filter>
   <filter id="filter1119">
    <property name="version">0.2</property>
    <property name="mlt_type">filter</property>
    <property name="mlt_service">frei0r.brightness</property>
    <property name="kdenlive_id">frei0r.brightness</property>
    <property name="tag">frei0r.brightness</property>
    <property name="kdenlive_ix">4</property>
    <property name="kdenlive_info"/>
    <property name="disable"/>
    <property name="Brightness">0.452</property>
   </filter>
   <filter id="filter1120">
    <property name="version">0.3</property>
    <property name="mlt_type">filter</property>
    <property name="mlt_service">frei0r.levels</property>
    <property name="kdenlive_id">frei0r.levels</property>
    <property name="tag">frei0r.levels</property>
    <property name="kdenlive_ix">5</property>
    <property name="kdenlive_info"/>
    <property name="disable">0</property>
    <property name="Channel">0.3</property>
    <property name="Input black level">214601=0</property>
    <property name="Input white level">214601=0.726</property>
    <property name="Gamma">214601=0.19775</property>
    <property name="Black output">214601=0</property>
    <property name="White output">214601=0.709</property>
    <property name="Show histogram">0</property>
    <property name="Histogram position">0.3</property>
   </filter>
  </entry>
  <entry out="245168" in="245152" producer="1_playlist5">
   <filter id="filter1121" out="245168" in="245156">
    <property name="window">75</property>
    <property name="max_gain">20dB</property>
    <property name="mlt_type">filter</property>
    <property name="mlt_service">volume</property>
    <property name="kdenlive_id">fadeout</property>
    <property name="tag">volume</property>
    <property name="kdenlive_ix">1</property>
    <property name="kdenlive_info"/>
    <property name="disable"/>
    <property name="gain">1</property>
    <property name="end">0</property>
   </filter>
   <filter id="filter1122" in="245152">
    <property name="window">75</property>
    <property name="max_gain">20dB</property>
    <property name="mlt_type">filter</property>
    <property name="mlt_service">volume</property>
    <property name="kdenlive_id">volume</property>
    <property name="tag">volume</property>
    <property name="kdenlive_ix">2</property>
    <property name="kdenlive_info"/>
    <property name="disable"/>
    <property name="gain">1</property>
   </filter>
   <filter id="filter1123" out="245161" in="245152">
    <property name="window">75</property>
    <property name="max_gain">20dB</property>
    <property name="mlt_type">filter</property>
    <property name="mlt_service">volume</property>
    <property name="kdenlive_id">fadein</property>
    <property name="tag">volume</property>
    <property name="kdenlive_ix">3</property>
    <property name="kdenlive_info"/>
    <property name="disable"/>
    <property name="gain">0</property>
    <property name="end">1</property>
   </filter>
  </entry>
  <entry out="246307" in="246235" producer="1_playlist5">
   <filter id="filter1124" out="246307" in="246295">
    <property name="window">75</property>
    <property name="max_gain">20dB</property>
    <property name="mlt_type">filter</property>
    <property name="mlt_service">volume</property>
    <property name="kdenlive_id">fadeout</property>
    <property name="tag">volume</property>
    <property name="kdenlive_ix">1</property>
    <property name="kdenlive_info"/>
    <property name="disable"/>
    <property name="gain">1</property>
    <property name="end">0</property>
   </filter>
   <filter id="filter1125" in="246235">
    <property name="window">75</property>
    <property name="max_gain">20dB</property>
    <property name="mlt_type">filter</property>
    <property name="mlt_service">volume</property>
    <property name="kdenlive_id">volume</property>
    <property name="tag">volume</property>
    <property name="kdenlive_ix">2</property>
    <property name="kdenlive_info"/>
    <property name="disable"/>
    <property name="gain">0</property>
   </filter>
  </entry>
  <entry out="251747" in="251728" producer="1_playlist5">
   <filter id="filter1126">
    <property name="window">75</property>
    <property name="max_gain">20dB</property>
    <property name="mlt_type">filter</property>
    <property name="mlt_service">volume</property>
    <property name="kdenlive_id">mute</property>
    <property name="tag">volume</property>
    <property name="kdenlive_ix">1</property>
    <property name="kdenlive_info"/>
    <property name="disable"/>
    <property name="gain">0</property>
   </filter>
  </entry>
  <entry out="252332" in="252284" producer="1_playlist5">
   <filter id="filter1127" in="252284">
    <property name="window">75</property>
    <property name="max_gain">20dB</property>
    <property name="mlt_type">filter</property>
    <property name="mlt_service">volume</property>
    <property name="kdenlive_id">volume</property>
    <property name="tag">volume</property>
    <property name="kdenlive_ix">1</property>
    <property name="kdenlive_info"/>
    <property name="disable"/>
    <property name="gain">0</property>
   </filter>
  </entry>
  <entry out="252754" in="252619" producer="1_playlist5">
   <filter id="filter1128">
    <property name="window">75</property>
    <property name="max_gain">20dB</property>
    <property name="mlt_type">filter</property>
    <property name="mlt_service">volume</property>
    <property name="kdenlive_id">mute</property>
    <property name="tag">volume</property>
    <property name="kdenlive_ix">1</property>
    <property name="kdenlive_info"/>
    <property name="disable"/>
    <property name="gain">0</property>
   </filter>
  </entry>
  <entry out="253437" in="252895" producer="1_playlist5">
   <filter id="filter1129" out="253437" in="253427">
    <property name="window">75</property>
    <property name="max_gain">20dB</property>
    <property name="mlt_type">filter</property>
    <property name="mlt_service">volume</property>
    <property name="kdenlive_id">fadeout</property>
    <property name="tag">volume</property>
    <property name="kdenlive_ix">1</property>
    <property name="kdenlive_info"/>
    <property name="disable"/>
    <property name="gain">1</property>
    <property name="end">0</property>
   </filter>
   <filter id="filter1130" out="252924" in="252895">
    <property name="window">75</property>
    <property name="max_gain">20dB</property>
    <property name="mlt_type">filter</property>
    <property name="mlt_service">volume</property>
    <property name="kdenlive_id">volume</property>
    <property name="tag">volume</property>
    <property name="kdenlive_ix">2</property>
    <property name="kdenlive_info"/>
    <property name="disable"/>
    <property name="gain">0.3</property>
    <property name="end">1</property>
   </filter>
   <filter id="filter1131" out="253437" in="252925">
    <property name="window">75</property>
    <property name="max_gain">20dB</property>
    <property name="mlt_type">filter</property>
    <property name="mlt_service">volume</property>
    <property name="kdenlive_id">volume</property>
    <property name="tag">volume</property>
    <property name="kdenlive_ix">2</property>
    <property name="kdenlive_info"/>
    <property name="disable"/>
    <property name="gain">1</property>
    <property name="end">1</property>
   </filter>
  </entry>
  <entry out="3391" in="3338" producer="2_playlist5">
   <filter id="filter1132" out="3365" in="3338">
    <property name="window">75</property>
    <property name="max_gain">20dB</property>
    <property name="mlt_type">filter</property>
    <property name="mlt_service">volume</property>
    <property name="kdenlive_id">fadein</property>
    <property name="tag">volume</property>
    <property name="kdenlive_ix">1</property>
    <property name="kdenlive_info"/>
    <property name="disable"/>
    <property name="gain">0</property>
    <property name="end">1</property>
   </filter>
  </entry>
  <entry out="3807" in="3741" producer="2_playlist5"/>
  <entry out="4129" in="4071" producer="2_playlist5">
   <filter id="filter1133" out="4095" in="4071">
    <property name="window">75</property>
    <property name="max_gain">20dB</property>
    <property name="mlt_type">filter</property>
    <property name="mlt_service">volume</property>
    <property name="kdenlive_id">volume</property>
    <property name="tag">volume</property>
    <property name="kdenlive_ix">1</property>
    <property name="kdenlive_info"/>
    <property name="disable"/>
    <property name="gain">0</property>
    <property name="end">0</property>
   </filter>
   <filter id="filter1134" out="4102" in="4096">
    <property name="window">75</property>
    <property name="max_gain">20dB</property>
    <property name="mlt_type">filter</property>
    <property name="mlt_service">volume</property>
    <property name="kdenlive_id">volume</property>
    <property name="tag">volume</property>
    <property name="kdenlive_ix">1</property>
    <property name="kdenlive_info"/>
    <property name="disable"/>
    <property name="gain">0</property>
    <property name="end">0</property>
   </filter>
   <filter id="filter1135" out="4129" in="4103">
    <property name="window">75</property>
    <property name="max_gain">20dB</property>
    <property name="mlt_type">filter</property>
    <property name="mlt_service">volume</property>
    <property name="kdenlive_id">volume</property>
    <property name="tag">volume</property>
    <property name="kdenlive_ix">1</property>
    <property name="kdenlive_info"/>
    <property name="disable"/>
    <property name="gain">0</property>
    <property name="end">0</property>
   </filter>
  </entry>
  <entry out="4070" in="3934" producer="2_playlist5">
   <filter id="filter1136" out="3965" in="3934">
    <property name="window">75</property>
    <property name="max_gain">20dB</property>
    <property name="mlt_type">filter</property>
    <property name="mlt_service">volume</property>
    <property name="kdenlive_id">volume</property>
    <property name="tag">volume</property>
    <property name="kdenlive_ix">1</property>
    <property name="kdenlive_info"/>
    <property name="disable"/>
    <property name="gain">0</property>
    <property name="end">0</property>
   </filter>
   <filter id="filter1137" out="3986" in="3966">
    <property name="window">75</property>
    <property name="max_gain">20dB</property>
    <property name="mlt_type">filter</property>
    <property name="mlt_service">volume</property>
    <property name="kdenlive_id">volume</property>
    <property name="tag">volume</property>
    <property name="kdenlive_ix">1</property>
    <property name="kdenlive_info"/>
    <property name="disable"/>
    <property name="gain">0.047619</property>
    <property name="end">1</property>
   </filter>
   <filter id="filter1138" out="4070" in="3987">
    <property name="window">75</property>
    <property name="max_gain">20dB</property>
    <property name="mlt_type">filter</property>
    <property name="mlt_service">volume</property>
    <property name="kdenlive_id">volume</property>
    <property name="tag">volume</property>
    <property name="kdenlive_ix">1</property>
    <property name="kdenlive_info"/>
    <property name="disable"/>
    <property name="gain">1</property>
    <property name="end">1</property>
   </filter>
  </entry>
  <entry out="4636" in="4176" producer="2_playlist5"/>
  <entry out="5244" in="4937" producer="2_playlist5"/>
  <entry out="5806" in="5662" producer="2_playlist5"/>
  <entry out="5902" in="5842" producer="2_playlist5"/>
  <entry out="8027" in="6709" producer="2_playlist5">
   <filter id="filter1139" out="6727" in="6709">
    <property name="window">75</property>
    <property name="max_gain">20dB</property>
    <property name="mlt_type">filter</property>
    <property name="mlt_service">volume</property>
    <property name="kdenlive_id">volume</property>
    <property name="tag">volume</property>
    <property name="kdenlive_ix">1</property>
    <property name="kdenlive_info"/>
    <property name="disable"/>
    <property name="gain">0.7</property>
    <property name="end">1</property>
   </filter>
   <filter id="filter1140" out="7652" in="6728">
    <property name="window">75</property>
    <property name="max_gain">20dB</property>
    <property name="mlt_type">filter</property>
    <property name="mlt_service">volume</property>
    <property name="kdenlive_id">volume</property>
    <property name="tag">volume</property>
    <property name="kdenlive_ix">1</property>
    <property name="kdenlive_info"/>
    <property name="disable"/>
    <property name="gain">1</property>
    <property name="end">1</property>
   </filter>
   <filter id="filter1141" out="8027" in="7653">
    <property name="window">75</property>
    <property name="max_gain">20dB</property>
    <property name="mlt_type">filter</property>
    <property name="mlt_service">volume</property>
    <property name="kdenlive_id">volume</property>
    <property name="tag">volume</property>
    <property name="kdenlive_ix">1</property>
    <property name="kdenlive_info"/>
    <property name="disable"/>
    <property name="gain">1</property>
    <property name="end">1</property>
   </filter>
  </entry>
  <entry out="8702" in="8369" producer="2_playlist5">
   <filter id="filter1142" out="8702" in="8627">
    <property name="window">75</property>
    <property name="max_gain">20dB</property>
    <property name="mlt_type">filter</property>
    <property name="mlt_service">volume</property>
    <property name="kdenlive_id">fadeout</property>
    <property name="tag">volume</property>
    <property name="kdenlive_ix">1</property>
    <property name="kdenlive_info"/>
    <property name="disable"/>
    <property name="gain">1</property>
    <property name="end">0</property>
   </filter>
   <filter id="filter1143" out="8418" in="8369">
    <property name="window">75</property>
    <property name="max_gain">20dB</property>
    <property name="mlt_type">filter</property>
    <property name="mlt_service">volume</property>
    <property name="kdenlive_id">fadein</property>
    <property name="tag">volume</property>
    <property name="kdenlive_ix">2</property>
    <property name="kdenlive_info"/>
    <property name="disable"/>
    <property name="gain">0</property>
    <property name="end">1</property>
   </filter>
  </entry>
  <entry out="10030" in="8911" producer="2_playlist5">
   <filter id="filter1144" out="10030" in="10030">
    <property name="window">75</property>
    <property name="max_gain">20dB</property>
    <property name="mlt_type">filter</property>
    <property name="mlt_service">volume</property>
    <property name="kdenlive_id">fadeout</property>
    <property name="tag">volume</property>
    <property name="kdenlive_ix">1</property>
    <property name="kdenlive_info"/>
    <property name="disable"/>
    <property name="gain">1</property>
    <property name="end">0</property>
   </filter>
   <filter id="filter1145" in="8911">
    <property name="window">75</property>
    <property name="max_gain">20dB</property>
    <property name="mlt_type">filter</property>
    <property name="mlt_service">volume</property>
    <property name="kdenlive_id">volume</property>
    <property name="tag">volume</property>
    <property name="kdenlive_ix">2</property>
    <property name="kdenlive_info"/>
    <property name="disable"/>
    <property name="gain">0.7</property>
   </filter>
  </entry>
  <entry out="13381" in="10881" producer="2_playlist5">
   <filter id="filter1146" out="11357" in="10881">
    <property name="window">75</property>
    <property name="max_gain">20dB</property>
    <property name="mlt_type">filter</property>
    <property name="mlt_service">volume</property>
    <property name="kdenlive_id">volume</property>
    <property name="tag">volume</property>
    <property name="kdenlive_ix">1</property>
    <property name="kdenlive_info"/>
    <property name="disable"/>
    <property name="gain">0.7</property>
    <property name="end">0.7</property>
   </filter>
   <filter id="filter1147" out="11426" in="11358">
    <property name="window">75</property>
    <property name="max_gain">20dB</property>
    <property name="mlt_type">filter</property>
    <property name="mlt_service">volume</property>
    <property name="kdenlive_id">volume</property>
    <property name="tag">volume</property>
    <property name="kdenlive_ix">1</property>
    <property name="kdenlive_info"/>
    <property name="disable"/>
    <property name="gain">0.704348</property>
    <property name="end">1</property>
   </filter>
   <filter id="filter1148" out="13381" in="11427">
    <property name="window">75</property>
    <property name="max_gain">20dB</property>
    <property name="mlt_type">filter</property>
    <property name="mlt_service">volume</property>
    <property name="kdenlive_id">volume</property>
    <property name="tag">volume</property>
    <property name="kdenlive_ix">1</property>
    <property name="kdenlive_info"/>
    <property name="disable"/>
    <property name="gain">1</property>
    <property name="end">1</property>
   </filter>
  </entry>
  <blank length="917"/>
  <entry out="17424" in="15215" producer="2_playlist5">
   <filter id="filter1149" out="15246" in="15215">
    <property name="window">75</property>
    <property name="max_gain">20dB</property>
    <property name="mlt_type">filter</property>
    <property name="mlt_service">volume</property>
    <property name="kdenlive_id">fadein</property>
    <property name="tag">volume</property>
    <property name="kdenlive_ix">1</property>
    <property name="kdenlive_info"/>
    <property name="disable"/>
    <property name="gain">0</property>
    <property name="end">1</property>
   </filter>
   <filter id="filter1150" out="17239" in="15215">
    <property name="window">75</property>
    <property name="max_gain">20dB</property>
    <property name="mlt_type">filter</property>
    <property name="mlt_service">volume</property>
    <property name="kdenlive_id">volume</property>
    <property name="tag">volume</property>
    <property name="kdenlive_ix">2</property>
    <property name="kdenlive_info"/>
    <property name="disable"/>
    <property name="gain">0.7</property>
    <property name="end">0.7</property>
   </filter>
   <filter id="filter1151" out="17251" in="17240">
    <property name="window">75</property>
    <property name="max_gain">20dB</property>
    <property name="mlt_type">filter</property>
    <property name="mlt_service">volume</property>
    <property name="kdenlive_id">volume</property>
    <property name="tag">volume</property>
    <property name="kdenlive_ix">2</property>
    <property name="kdenlive_info"/>
    <property name="disable"/>
    <property name="gain">0.725</property>
    <property name="end">1</property>
   </filter>
   <filter id="filter1152" out="17424" in="17252">
    <property name="window">75</property>
    <property name="max_gain">20dB</property>
    <property name="mlt_type">filter</property>
    <property name="mlt_service">volume</property>
    <property name="kdenlive_id">volume</property>
    <property name="tag">volume</property>
    <property name="kdenlive_ix">2</property>
    <property name="kdenlive_info"/>
    <property name="disable"/>
    <property name="gain">1</property>
    <property name="end">1</property>
   </filter>
  </entry>
  <entry out="211281" in="210650" producer="1_playlist5">
   <filter id="filter1153" out="210703" in="210650">
    <property name="window">75</property>
    <property name="max_gain">20dB</property>
    <property name="mlt_type">filter</property>
    <property name="mlt_service">volume</property>
    <property name="kdenlive_id">volume</property>
    <property name="tag">volume</property>
    <property name="kdenlive_ix">1</property>
    <property name="kdenlive_info"/>
    <property name="disable"/>
    <property name="gain">0</property>
    <property name="end">0</property>
   </filter>
   <filter id="filter1154" out="210780" in="210704">
    <property name="window">75</property>
    <property name="max_gain">20dB</property>
    <property name="mlt_type">filter</property>
    <property name="mlt_service">volume</property>
    <property name="kdenlive_id">volume</property>
    <property name="tag">volume</property>
    <property name="kdenlive_ix">1</property>
    <property name="kdenlive_info"/>
    <property name="disable"/>
    <property name="gain">0.00155844</property>
    <property name="end">0.12</property>
   </filter>
   <filter id="filter1155" out="210802" in="210781">
    <property name="window">75</property>
    <property name="max_gain">20dB</property>
    <property name="mlt_type">filter</property>
    <property name="mlt_service">volume</property>
    <property name="kdenlive_id">volume</property>
    <property name="tag">volume</property>
    <property name="kdenlive_ix">1</property>
    <property name="kdenlive_info"/>
    <property name="disable"/>
    <property name="gain">0.128182</property>
    <property name="end">0.3</property>
   </filter>
   <filter id="filter1156" out="210825" in="210803">
    <property name="window">75</property>
    <property name="max_gain">20dB</property>
    <property name="mlt_type">filter</property>
    <property name="mlt_service">volume</property>
    <property name="kdenlive_id">volume</property>
    <property name="tag">volume</property>
    <property name="kdenlive_ix">1</property>
    <property name="kdenlive_info"/>
    <property name="disable"/>
    <property name="gain">0.317391</property>
    <property name="end">0.7</property>
   </filter>
   <filter id="filter1157" out="211281" in="210826">
    <property name="window">75</property>
    <property name="max_gain">20dB</property>
    <property name="mlt_type">filter</property>
    <property name="mlt_service">volume</property>
    <property name="kdenlive_id">volume</property>
    <property name="tag">volume</property>
    <property name="kdenlive_ix">1</property>
    <property name="kdenlive_info"/>
    <property name="disable"/>
    <property name="gain">0.7</property>
    <property name="end">0.7</property>
   </filter>
   <filter id="filter1158">
    <property name="version">0.2</property>
    <property name="mlt_type">filter</property>
    <property name="mlt_service">frei0r.coloradj_RGB</property>
    <property name="kdenlive_id">frei0r.coloradj_RGB</property>
    <property name="tag">frei0r.coloradj_RGB</property>
    <property name="kdenlive_ix">2</property>
    <property name="kdenlive_info"/>
    <property name="disable"/>
    <property name="R">210650=0.5</property>
    <property name="G">210650=0.463</property>
    <property name="B">210650=0.512</property>
    <property name="Action">0.5</property>
    <property name="Keep luma">1</property>
    <property name="Alpha controlled">0</property>
    <property name="Luma formula">1.0</property>
   </filter>
  </entry>
  <entry out="22536" in="21955" producer="1_playlist5">
   <filter id="filter1159">
    <property name="version">0.2</property>
    <property name="mlt_type">filter</property>
    <property name="mlt_service">frei0r.coloradj_RGB</property>
    <property name="kdenlive_id">frei0r.coloradj_RGB</property>
    <property name="tag">frei0r.coloradj_RGB</property>
    <property name="kdenlive_ix">1</property>
    <property name="kdenlive_info"/>
    <property name="disable">0</property>
    <property name="R">21955=0.5</property>
    <property name="G">21955=0.453</property>
    <property name="B">21955=0.413</property>
    <property name="Action">0.5</property>
    <property name="Keep luma">1</property>
    <property name="Alpha controlled">0</property>
    <property name="Luma formula">1.0</property>
   </filter>
  </entry>
  <blank length="125"/>
  <entry out="24104" in="22305" producer="2_playlist5">
   <filter id="filter1160" out="22365" in="22305">
    <property name="window">75</property>
    <property name="max_gain">20dB</property>
    <property name="mlt_type">filter</property>
    <property name="mlt_service">volume</property>
    <property name="kdenlive_id">fadein</property>
    <property name="tag">volume</property>
    <property name="kdenlive_ix">1</property>
    <property name="kdenlive_info"/>
    <property name="disable"/>
    <property name="gain">0</property>
    <property name="end">1</property>
   </filter>
  </entry>
  <entry out="225189" in="225041" producer="1_playlist5">
   <filter id="filter1161">
    <property name="window">75</property>
    <property name="max_gain">20dB</property>
    <property name="mlt_type">filter</property>
    <property name="mlt_service">volume</property>
    <property name="kdenlive_id">mute</property>
    <property name="tag">volume</property>
    <property name="kdenlive_ix">1</property>
    <property name="kdenlive_info"/>
    <property name="disable"/>
    <property name="gain">0</property>
   </filter>
  </entry>
  <blank length="272"/>
  <entry out="50754" in="50083" producer="2_playlist5">
   <filter id="filter1162" out="50106" in="50083">
    <property name="window">75</property>
    <property name="max_gain">20dB</property>
    <property name="mlt_type">filter</property>
    <property name="mlt_service">volume</property>
    <property name="kdenlive_id">volume</property>
    <property name="tag">volume</property>
    <property name="kdenlive_ix">1</property>
    <property name="kdenlive_info"/>
    <property name="disable"/>
    <property name="gain">1</property>
    <property name="end">1</property>
   </filter>
   <filter id="filter1163" out="50754" in="50107">
    <property name="window">75</property>
    <property name="max_gain">20dB</property>
    <property name="mlt_type">filter</property>
    <property name="mlt_service">volume</property>
    <property name="kdenlive_id">volume</property>
    <property name="tag">volume</property>
    <property name="kdenlive_ix">1</property>
    <property name="kdenlive_info"/>
    <property name="disable"/>
    <property name="gain">1</property>
    <property name="end">1</property>
   </filter>
  </entry>
  <entry out="53215" in="51441" producer="2_playlist5"/>
  <entry out="34054" in="33640" producer="2_playlist5">
   <filter id="filter1164" out="33715" in="33640">
    <property name="window">75</property>
    <property name="max_gain">20dB</property>
    <property name="mlt_type">filter</property>
    <property name="mlt_service">volume</property>
    <property name="kdenlive_id">fadein</property>
    <property name="tag">volume</property>
    <property name="kdenlive_ix">1</property>
    <property name="kdenlive_info"/>
    <property name="disable"/>
    <property name="gain">0</property>
    <property name="end">1</property>
   </filter>
  </entry>
  <entry out="34103" in="34055" producer="2_playlist5">
   <filter id="filter1165">
    <property name="window">75</property>
    <property name="max_gain">20dB</property>
    <property name="mlt_type">filter</property>
    <property name="mlt_service">volume</property>
    <property name="kdenlive_id">mute</property>
    <property name="tag">volume</property>
    <property name="kdenlive_ix">1</property>
    <property name="kdenlive_info"/>
    <property name="disable"/>
    <property name="gain">0</property>
   </filter>
  </entry>
  <entry out="27479" in="27268" producer="2_playlist5">
   <filter id="filter1166" out="27280" in="27268">
    <property name="window">75</property>
    <property name="max_gain">20dB</property>
    <property name="mlt_type">filter</property>
    <property name="mlt_service">volume</property>
    <property name="kdenlive_id">volume</property>
    <property name="tag">volume</property>
    <property name="kdenlive_ix">1</property>
    <property name="kdenlive_info"/>
    <property name="disable"/>
    <property name="gain">0.35</property>
    <property name="end">0.35</property>
   </filter>
   <filter id="filter1167" out="27330" in="27281">
    <property name="window">75</property>
    <property name="max_gain">20dB</property>
    <property name="mlt_type">filter</property>
    <property name="mlt_service">volume</property>
    <property name="kdenlive_id">volume</property>
    <property name="tag">volume</property>
    <property name="kdenlive_ix">1</property>
    <property name="kdenlive_info"/>
    <property name="disable"/>
    <property name="gain">0.355</property>
    <property name="end">0.6</property>
   </filter>
   <filter id="filter1168" out="27371" in="27331">
    <property name="window">75</property>
    <property name="max_gain">20dB</property>
    <property name="mlt_type">filter</property>
    <property name="mlt_service">volume</property>
    <property name="kdenlive_id">volume</property>
    <property name="tag">volume</property>
    <property name="kdenlive_ix">1</property>
    <property name="kdenlive_info"/>
    <property name="disable"/>
    <property name="gain">0.609756</property>
    <property name="end">1</property>
   </filter>
   <filter id="filter1169" out="27479" in="27372">
    <property name="window">75</property>
    <property name="max_gain">20dB</property>
    <property name="mlt_type">filter</property>
    <property name="mlt_service">volume</property>
    <property name="kdenlive_id">volume</property>
    <property name="tag">volume</property>
    <property name="kdenlive_ix">1</property>
    <property name="kdenlive_info"/>
    <property name="disable"/>
    <property name="gain">1</property>
    <property name="end">1</property>
   </filter>
  </entry>
  <entry out="28599" in="27697" producer="2_playlist5">
   <filter id="filter1170" out="27761" in="27697">
    <property name="window">75</property>
    <property name="max_gain">20dB</property>
    <property name="mlt_type">filter</property>
    <property name="mlt_service">volume</property>
    <property name="kdenlive_id">volume</property>
    <property name="tag">volume</property>
    <property name="kdenlive_ix">1</property>
    <property name="kdenlive_info"/>
    <property name="disable"/>
    <property name="gain">0</property>
    <property name="end">0</property>
   </filter>
   <filter id="filter1171" out="27776" in="27762">
    <property name="window">75</property>
    <property name="max_gain">20dB</property>
    <property name="mlt_type">filter</property>
    <property name="mlt_service">volume</property>
    <property name="kdenlive_id">volume</property>
    <property name="tag">volume</property>
    <property name="kdenlive_ix">1</property>
    <property name="kdenlive_info"/>
    <property name="disable"/>
    <property name="gain">0.0666667</property>
    <property name="end">1</property>
   </filter>
   <filter id="filter1172" out="28161" in="27777">
    <property name="window">75</property>
    <property name="max_gain">20dB</property>
    <property name="mlt_type">filter</property>
    <property name="mlt_service">volume</property>
    <property name="kdenlive_id">volume</property>
    <property name="tag">volume</property>
    <property name="kdenlive_ix">1</property>
    <property name="kdenlive_info"/>
    <property name="disable"/>
    <property name="gain">1</property>
    <property name="end">1</property>
   </filter>
   <filter id="filter1173" out="28183" in="28162">
    <property name="window">75</property>
    <property name="max_gain">20dB</property>
    <property name="mlt_type">filter</property>
    <property name="mlt_service">volume</property>
    <property name="kdenlive_id">volume</property>
    <property name="tag">volume</property>
    <property name="kdenlive_ix">1</property>
    <property name="kdenlive_info"/>
    <property name="disable"/>
    <property name="gain">1</property>
    <property name="end">1</property>
   </filter>
   <filter id="filter1174" out="28599" in="28184">
    <property name="window">75</property>
    <property name="max_gain">20dB</property>
    <property name="mlt_type">filter</property>
    <property name="mlt_service">volume</property>
    <property name="kdenlive_id">volume</property>
    <property name="tag">volume</property>
    <property name="kdenlive_ix">1</property>
    <property name="kdenlive_info"/>
    <property name="disable"/>
    <property name="gain">1</property>
    <property name="end">1</property>
   </filter>
  </entry>
  <entry out="28807" in="28696" producer="2_playlist5">
   <filter id="filter1175" in="28696">
    <property name="window">75</property>
    <property name="max_gain">20dB</property>
    <property name="mlt_type">filter</property>
    <property name="mlt_service">volume</property>
    <property name="kdenlive_id">volume</property>
    <property name="tag">volume</property>
    <property name="kdenlive_ix">1</property>
    <property name="kdenlive_info"/>
    <property name="disable"/>
    <property name="gain">1</property>
   </filter>
  </entry>
  <entry out="29217" in="28934" producer="2_playlist5">
   <filter id="filter1176" out="28951" in="28934">
    <property name="window">75</property>
    <property name="max_gain">20dB</property>
    <property name="mlt_type">filter</property>
    <property name="mlt_service">volume</property>
    <property name="kdenlive_id">volume</property>
    <property name="tag">volume</property>
    <property name="kdenlive_ix">1</property>
    <property name="kdenlive_info"/>
    <property name="disable"/>
    <property name="gain">0.46</property>
    <property name="end">1</property>
   </filter>
   <filter id="filter1177" out="29217" in="28952">
    <property name="window">75</property>
    <property name="max_gain">20dB</property>
    <property name="mlt_type">filter</property>
    <property name="mlt_service">volume</property>
    <property name="kdenlive_id">volume</property>
    <property name="tag">volume</property>
    <property name="kdenlive_ix">1</property>
    <property name="kdenlive_info"/>
    <property name="disable"/>
    <property name="gain">1</property>
    <property name="end">1</property>
   </filter>
  </entry>
  <entry out="30489" in="29385" producer="2_playlist5">
   <filter id="filter1178" out="29429" in="29385">
    <property name="window">75</property>
    <property name="max_gain">20dB</property>
    <property name="mlt_type">filter</property>
    <property name="mlt_service">volume</property>
    <property name="kdenlive_id">volume</property>
    <property name="tag">volume</property>
    <property name="kdenlive_ix">1</property>
    <property name="kdenlive_info"/>
    <property name="disable"/>
    <property name="gain">0</property>
    <property name="end">0</property>
   </filter>
   <filter id="filter1179" out="29439" in="29430">
    <property name="window">75</property>
    <property name="max_gain">20dB</property>
    <property name="mlt_type">filter</property>
    <property name="mlt_service">volume</property>
    <property name="kdenlive_id">volume</property>
    <property name="tag">volume</property>
    <property name="kdenlive_ix">1</property>
    <property name="kdenlive_info"/>
    <property name="disable"/>
    <property name="gain">0.05</property>
    <property name="end">0.5</property>
   </filter>
   <filter id="filter1180" out="29510" in="29440">
    <property name="window">75</property>
    <property name="max_gain">20dB</property>
    <property name="mlt_type">filter</property>
    <property name="mlt_service">volume</property>
    <property name="kdenlive_id">volume</property>
    <property name="tag">volume</property>
    <property name="kdenlive_ix">1</property>
    <property name="kdenlive_info"/>
    <property name="disable"/>
    <property name="gain">0.504225</property>
    <property name="end">0.8</property>
   </filter>
   <filter id="filter1181" out="29750" in="29511">
    <property name="window">75</property>
    <property name="max_gain">20dB</property>
    <property name="mlt_type">filter</property>
    <property name="mlt_service">volume</property>
    <property name="kdenlive_id">volume</property>
    <property name="tag">volume</property>
    <property name="kdenlive_ix">1</property>
    <property name="kdenlive_info"/>
    <property name="disable"/>
    <property name="gain">0.8</property>
    <property name="end">0.8</property>
   </filter>
   <filter id="filter1182" out="29789" in="29751">
    <property name="window">75</property>
    <property name="max_gain">20dB</property>
    <property name="mlt_type">filter</property>
    <property name="mlt_service">volume</property>
    <property name="kdenlive_id">volume</property>
    <property name="tag">volume</property>
    <property name="kdenlive_ix">1</property>
    <property name="kdenlive_info"/>
    <property name="disable"/>
    <property name="gain">0.805128</property>
    <property name="end">1</property>
   </filter>
   <filter id="filter1183" out="30483" in="29790">
    <property name="window">75</property>
    <property name="max_gain">20dB</property>
    <property name="mlt_type">filter</property>
    <property name="mlt_service">volume</property>
    <property name="kdenlive_id">volume</property>
    <property name="tag">volume</property>
    <property name="kdenlive_ix">1</property>
    <property name="kdenlive_info"/>
    <property name="disable"/>
    <property name="gain">1</property>
    <property name="end">1</property>
   </filter>
   <filter id="filter1184" out="30489" in="30484">
    <property name="window">75</property>
    <property name="max_gain">20dB</property>
    <property name="mlt_type">filter</property>
    <property name="mlt_service">volume</property>
    <property name="kdenlive_id">volume</property>
    <property name="tag">volume</property>
    <property name="kdenlive_ix">1</property>
    <property name="kdenlive_info"/>
    <property name="disable"/>
    <property name="gain">0.933333</property>
    <property name="end">0.6</property>
   </filter>
  </entry>
  <entry out="31681" in="30980" producer="2_playlist5"/>
  <entry out="33148" in="33093" producer="2_playlist5">
   <filter id="filter1185" out="33119" in="33093">
    <property name="window">75</property>
    <property name="max_gain">20dB</property>
    <property name="mlt_type">filter</property>
    <property name="mlt_service">volume</property>
    <property name="kdenlive_id">fadein</property>
    <property name="tag">volume</property>
    <property name="kdenlive_ix">1</property>
    <property name="kdenlive_info"/>
    <property name="disable"/>
    <property name="gain">0</property>
    <property name="end">1</property>
   </filter>
   <filter id="filter1186" out="33148" in="33121">
    <property name="window">75</property>
    <property name="max_gain">20dB</property>
    <property name="mlt_type">filter</property>
    <property name="mlt_service">volume</property>
    <property name="kdenlive_id">fadeout</property>
    <property name="tag">volume</property>
    <property name="kdenlive_ix">2</property>
    <property name="kdenlive_info"/>
    <property name="disable"/>
    <property name="gain">1</property>
    <property name="end">0</property>
   </filter>
  </entry>
  <entry out="54751" in="53245" producer="2_playlist5">
   <filter id="filter1187" out="53373" in="53245">
    <property name="window">75</property>
    <property name="max_gain">20dB</property>
    <property name="mlt_type">filter</property>
    <property name="mlt_service">volume</property>
    <property name="kdenlive_id">fadein</property>
    <property name="tag">volume</property>
    <property name="kdenlive_ix">1</property>
    <property name="kdenlive_info"/>
    <property name="disable"/>
    <property name="gain">0</property>
    <property name="end">1</property>
   </filter>
   <filter id="filter1188" out="54698" in="53245">
    <property name="window">75</property>
    <property name="max_gain">20dB</property>
    <property name="mlt_type">filter</property>
    <property name="mlt_service">volume</property>
    <property name="kdenlive_id">volume</property>
    <property name="tag">volume</property>
    <property name="kdenlive_ix">2</property>
    <property name="kdenlive_info"/>
    <property name="disable"/>
    <property name="gain">1</property>
    <property name="end">1</property>
   </filter>
   <filter id="filter1189" out="54712" in="54699">
    <property name="window">75</property>
    <property name="max_gain">20dB</property>
    <property name="mlt_type">filter</property>
    <property name="mlt_service">volume</property>
    <property name="kdenlive_id">volume</property>
    <property name="tag">volume</property>
    <property name="kdenlive_ix">2</property>
    <property name="kdenlive_info"/>
    <property name="disable"/>
    <property name="gain">0.95</property>
    <property name="end">0.3</property>
   </filter>
   <filter id="filter1190" out="54751" in="54713">
    <property name="window">75</property>
    <property name="max_gain">20dB</property>
    <property name="mlt_type">filter</property>
    <property name="mlt_service">volume</property>
    <property name="kdenlive_id">volume</property>
    <property name="tag">volume</property>
    <property name="kdenlive_ix">2</property>
    <property name="kdenlive_info"/>
    <property name="disable"/>
    <property name="gain">0.296154</property>
    <property name="end">0.15</property>
   </filter>
  </entry>
  <blank length="3341"/>
  <entry out="60109" in="59304" producer="2_playlist5">
   <filter id="filter1191" out="59341" in="59304">
    <property name="window">75</property>
    <property name="max_gain">20dB</property>
    <property name="mlt_type">filter</property>
    <property name="mlt_service">volume</property>
    <property name="kdenlive_id">fadein</property>
    <property name="tag">volume</property>
    <property name="kdenlive_ix">1</property>
    <property name="kdenlive_info"/>
    <property name="disable"/>
    <property name="gain">0</property>
    <property name="end">1</property>
   </filter>
  </entry>
  <entry out="39411" in="39176" producer="2_playlist5">
   <filter id="filter1192" out="39177" in="39176">
    <property name="window">75</property>
    <property name="max_gain">20dB</property>
    <property name="mlt_type">filter</property>
    <property name="mlt_service">volume</property>
    <property name="kdenlive_id">volume</property>
    <property name="tag">volume</property>
    <property name="kdenlive_ix">1</property>
    <property name="kdenlive_info"/>
    <property name="disable"/>
    <property name="gain">0</property>
    <property name="end">0</property>
   </filter>
   <filter id="filter1193" out="39291" in="39178">
    <property name="window">75</property>
    <property name="max_gain">20dB</property>
    <property name="mlt_type">filter</property>
    <property name="mlt_service">volume</property>
    <property name="kdenlive_id">volume</property>
    <property name="tag">volume</property>
    <property name="kdenlive_ix">1</property>
    <property name="kdenlive_info"/>
    <property name="disable"/>
    <property name="gain">0.00701754</property>
    <property name="end">0.8</property>
   </filter>
   <filter id="filter1194" out="39411" in="39292">
    <property name="window">75</property>
    <property name="max_gain">20dB</property>
    <property name="mlt_type">filter</property>
    <property name="mlt_service">volume</property>
    <property name="kdenlive_id">volume</property>
    <property name="tag">volume</property>
    <property name="kdenlive_ix">1</property>
    <property name="kdenlive_info"/>
    <property name="disable"/>
    <property name="gain">0.801667</property>
    <property name="end">1</property>
   </filter>
  </entry>
  <blank length="1604"/>
  <entry out="107249" in="107178" producer="3_playlist5">
   <filter id="filter1195">
    <property name="window">75</property>
    <property name="max_gain">20dB</property>
    <property name="mlt_type">filter</property>
    <property name="mlt_service">volume</property>
    <property name="kdenlive_id">mute</property>
    <property name="tag">volume</property>
    <property name="kdenlive_ix">1</property>
    <property name="kdenlive_info"/>
    <property name="disable"/>
    <property name="gain">0</property>
   </filter>
   <filter id="filter1196">
    <property name="version">0.3</property>
    <property name="mlt_type">filter</property>
    <property name="mlt_service">frei0r.saturat0r</property>
    <property name="kdenlive_id">frei0r.saturat0r</property>
    <property name="tag">frei0r.saturat0r</property>
    <property name="kdenlive_ix">2</property>
    <property name="kdenlive_info"/>
    <property name="disable">0</property>
    <property name="Saturation">107178=0.048</property>
   </filter>
   <filter id="filter1197">
    <property name="version">0.3</property>
    <property name="mlt_type">filter</property>
    <property name="mlt_service">frei0r.curves</property>
    <property name="kdenlive_id">frei0r.bezier_curves</property>
    <property name="tag">frei0r.curves</property>
    <property name="kdenlive_ix">3</property>
    <property name="kdenlive_info"/>
    <property name="disable"/>
    <property name="Channel">0.4</property>
    <property name="Luma formula">1</property>
    <property name="Bézier spline">-1;-1#0;0#0.1;0.1|0.0678046;0.097651#0.117805;0.147651#0.167805;0.197651|0.249866;0.252013#0.299866;0.302013#0.349866;0.352013|0.636283;0.560222#0.700134;0.590604#0.748795;0.613758|0.93929;0.835906#0.98929;0.885906#1;0.935906|0.98929;0.9#1;1#2;2</property>
   </filter>
   <filter id="filter1198">
    <property name="version">0.3</property>
    <property name="mlt_type">filter</property>
    <property name="mlt_service">frei0r.balanc0r</property>
    <property name="kdenlive_id">frei0r.balanc0r</property>
    <property name="tag">frei0r.balanc0r</property>
    <property name="kdenlive_ix">4</property>
    <property name="kdenlive_info"/>
    <property name="disable"/>
    <property name="Neutral Color">0xffffffff</property>
    <property name="Green Tint">107178=0.0646</property>
   </filter>
   <filter id="filter1199">
    <property name="gamma">0.21</property>
    <property name="mlt_type">filter</property>
    <property name="mlt_service">gamma</property>
    <property name="kdenlive_id">gamma</property>
    <property name="tag">gamma</property>
    <property name="kdenlive_ix">5</property>
    <property name="kdenlive_info"/>
    <property name="disable">0</property>
   </filter>
  </entry>
  <blank length="40"/>
  <entry out="43128" in="41853" producer="2_playlist5">
   <filter id="filter1200" out="41924" in="41853">
    <property name="window">75</property>
    <property name="max_gain">20dB</property>
    <property name="mlt_type">filter</property>
    <property name="mlt_service">volume</property>
    <property name="kdenlive_id">volume</property>
    <property name="tag">volume</property>
    <property name="kdenlive_ix">1</property>
    <property name="kdenlive_info"/>
    <property name="disable"/>
    <property name="gain">0</property>
    <property name="end">0</property>
   </filter>
   <filter id="filter1201" out="41946" in="41925">
    <property name="window">75</property>
    <property name="max_gain">20dB</property>
    <property name="mlt_type">filter</property>
    <property name="mlt_service">volume</property>
    <property name="kdenlive_id">volume</property>
    <property name="tag">volume</property>
    <property name="kdenlive_ix">1</property>
    <property name="kdenlive_info"/>
    <property name="disable"/>
    <property name="gain">0.0272727</property>
    <property name="end">0.6</property>
   </filter>
   <filter id="filter1202" out="42025" in="41947">
    <property name="window">75</property>
    <property name="max_gain">20dB</property>
    <property name="mlt_type">filter</property>
    <property name="mlt_service">volume</property>
    <property name="kdenlive_id">volume</property>
    <property name="tag">volume</property>
    <property name="kdenlive_ix">1</property>
    <property name="kdenlive_info"/>
    <property name="disable"/>
    <property name="gain">0.602532</property>
    <property name="end">0.8</property>
   </filter>
   <filter id="filter1203" out="42040" in="42026">
    <property name="window">75</property>
    <property name="max_gain">20dB</property>
    <property name="mlt_type">filter</property>
    <property name="mlt_service">volume</property>
    <property name="kdenlive_id">volume</property>
    <property name="tag">volume</property>
    <property name="kdenlive_ix">1</property>
    <property name="kdenlive_info"/>
    <property name="disable"/>
    <property name="gain">0.78</property>
    <property name="end">0.5</property>
   </filter>
   <filter id="filter1204" out="42652" in="42041">
    <property name="window">75</property>
    <property name="max_gain">20dB</property>
    <property name="mlt_type">filter</property>
    <property name="mlt_service">volume</property>
    <property name="kdenlive_id">volume</property>
    <property name="tag">volume</property>
    <property name="kdenlive_ix">1</property>
    <property name="kdenlive_info"/>
    <property name="disable"/>
    <property name="gain">0.5</property>
    <property name="end">0.5</property>
   </filter>
   <filter id="filter1205" out="42659" in="42653">
    <property name="window">75</property>
    <property name="max_gain">20dB</property>
    <property name="mlt_type">filter</property>
    <property name="mlt_service">volume</property>
    <property name="kdenlive_id">volume</property>
    <property name="tag">volume</property>
    <property name="kdenlive_ix">1</property>
    <property name="kdenlive_info"/>
    <property name="disable"/>
    <property name="gain">0.557143</property>
    <property name="end">0.9</property>
   </filter>
   <filter id="filter1206" out="42763" in="42660">
    <property name="window">75</property>
    <property name="max_gain">20dB</property>
    <property name="mlt_type">filter</property>
    <property name="mlt_service">volume</property>
    <property name="kdenlive_id">volume</property>
    <property name="tag">volume</property>
    <property name="kdenlive_ix">1</property>
    <property name="kdenlive_info"/>
    <property name="disable"/>
    <property name="gain">0.9</property>
    <property name="end">0.9</property>
   </filter>
   <filter id="filter1207" out="42792" in="42764">
    <property name="window">75</property>
    <property name="max_gain">20dB</property>
    <property name="mlt_type">filter</property>
    <property name="mlt_service">volume</property>
    <property name="kdenlive_id">volume</property>
    <property name="tag">volume</property>
    <property name="kdenlive_ix">1</property>
    <property name="kdenlive_info"/>
    <property name="disable"/>
    <property name="gain">0.886207</property>
    <property name="end">0.5</property>
   </filter>
   <filter id="filter1208" out="43128" in="42793">
    <property name="window">75</property>
    <property name="max_gain">20dB</property>
    <property name="mlt_type">filter</property>
    <property name="mlt_service">volume</property>
    <property name="kdenlive_id">volume</property>
    <property name="tag">volume</property>
    <property name="kdenlive_ix">1</property>
    <property name="kdenlive_info"/>
    <property name="disable"/>
    <property name="gain">0.5</property>
    <property name="end">0.5</property>
   </filter>
  </entry>
  <entry out="43480" in="43385" producer="2_playlist5">
   <filter id="filter1209" out="43458" in="43385">
    <property name="window">75</property>
    <property name="max_gain">20dB</property>
    <property name="mlt_type">filter</property>
    <property name="mlt_service">volume</property>
    <property name="kdenlive_id">volume</property>
    <property name="tag">volume</property>
    <property name="kdenlive_ix">1</property>
    <property name="kdenlive_info"/>
    <property name="disable"/>
    <property name="gain">0.5</property>
    <property name="end">0.5</property>
   </filter>
   <filter id="filter1210" out="43465" in="43459">
    <property name="window">75</property>
    <property name="max_gain">20dB</property>
    <property name="mlt_type">filter</property>
    <property name="mlt_service">volume</property>
    <property name="kdenlive_id">volume</property>
    <property name="tag">volume</property>
    <property name="kdenlive_ix">1</property>
    <property name="kdenlive_info"/>
    <property name="disable"/>
    <property name="gain">0.428571</property>
    <property name="end">0</property>
   </filter>
   <filter id="filter1211" out="43480" in="43466">
    <property name="window">75</property>
    <property name="max_gain">20dB</property>
    <property name="mlt_type">filter</property>
    <property name="mlt_service">volume</property>
    <property name="kdenlive_id">volume</property>
    <property name="tag">volume</property>
    <property name="kdenlive_ix">1</property>
    <property name="kdenlive_info"/>
    <property name="disable"/>
    <property name="gain">0</property>
    <property name="end">0</property>
   </filter>
  </entry>
  <entry out="44958" in="44860" producer="2_playlist5">
   <filter id="filter1212">
    <property name="window">75</property>
    <property name="max_gain">20dB</property>
    <property name="mlt_type">filter</property>
    <property name="mlt_service">volume</property>
    <property name="kdenlive_id">mute</property>
    <property name="tag">volume</property>
    <property name="kdenlive_ix">1</property>
    <property name="kdenlive_info"/>
    <property name="disable"/>
    <property name="gain">0</property>
   </filter>
  </entry>
  <entry out="45590" in="45229" producer="2_playlist5">
   <filter id="filter1213" out="45590" in="45229">
    <property name="window">75</property>
    <property name="max_gain">20dB</property>
    <property name="mlt_type">filter</property>
    <property name="mlt_service">volume</property>
    <property name="kdenlive_id">volume</property>
    <property name="tag">volume</property>
    <property name="kdenlive_ix">1</property>
    <property name="kdenlive_info"/>
    <property name="disable"/>
    <property name="gain">0.5</property>
    <property name="end">0.5</property>
   </filter>
  </entry>
  <blank length="50"/>
  <entry out="47611" in="46250" producer="2_playlist5">
   <filter id="filter1214" out="47611" in="46250">
    <property name="window">75</property>
    <property name="max_gain">20dB</property>
    <property name="mlt_type">filter</property>
    <property name="mlt_service">volume</property>
    <property name="kdenlive_id">volume</property>
    <property name="tag">volume</property>
    <property name="kdenlive_ix">1</property>
    <property name="kdenlive_info"/>
    <property name="disable"/>
    <property name="gain">0.5</property>
    <property name="end">0.5</property>
   </filter>
  </entry>
  <entry out="45686" in="45614" producer="2_playlist5">
   <filter id="filter1215">
    <property name="window">75</property>
    <property name="max_gain">20dB</property>
    <property name="mlt_type">filter</property>
    <property name="mlt_service">volume</property>
    <property name="kdenlive_id">mute</property>
    <property name="tag">volume</property>
    <property name="kdenlive_ix">1</property>
    <property name="kdenlive_info"/>
    <property name="disable"/>
    <property name="gain">0</property>
   </filter>
  </entry>
  <entry out="67927" in="63509" producer="2_playlist5">
   <filter id="filter1216" out="63619" in="63509">
    <property name="window">75</property>
    <property name="max_gain">20dB</property>
    <property name="mlt_type">filter</property>
    <property name="mlt_service">volume</property>
    <property name="kdenlive_id">volume</property>
    <property name="tag">volume</property>
    <property name="kdenlive_ix">1</property>
    <property name="kdenlive_info"/>
    <property name="disable"/>
    <property name="gain">0.2</property>
    <property name="end">1</property>
   </filter>
   <filter id="filter1217" out="67927" in="63620">
    <property name="window">75</property>
    <property name="max_gain">20dB</property>
    <property name="mlt_type">filter</property>
    <property name="mlt_service">volume</property>
    <property name="kdenlive_id">volume</property>
    <property name="tag">volume</property>
    <property name="kdenlive_ix">1</property>
    <property name="kdenlive_info"/>
    <property name="disable"/>
    <property name="gain">1</property>
    <property name="end">1</property>
   </filter>
  </entry>
  <blank length="3213"/>
  <entry out="78159" in="77606" producer="2_playlist5">
   <filter id="filter1218" out="77653" in="77606">
    <property name="window">75</property>
    <property name="max_gain">20dB</property>
    <property name="mlt_type">filter</property>
    <property name="mlt_service">volume</property>
    <property name="kdenlive_id">fadein</property>
    <property name="tag">volume</property>
    <property name="kdenlive_ix">1</property>
    <property name="kdenlive_info"/>
    <property name="disable"/>
    <property name="gain">0</property>
    <property name="end">1</property>
   </filter>
  </entry>
  <entry out="80769" in="78813" producer="2_playlist5"/>
  <entry out="80856" in="80771" producer="2_playlist5">
   <filter id="filter1219" out="80856" in="80829">
    <property name="window">75</property>
    <property name="max_gain">20dB</property>
    <property name="mlt_type">filter</property>
    <property name="mlt_service">volume</property>
    <property name="kdenlive_id">fadeout</property>
    <property name="tag">volume</property>
    <property name="kdenlive_ix">1</property>
    <property name="kdenlive_info"/>
    <property name="disable"/>
    <property name="gain">1</property>
    <property name="end">0</property>
   </filter>
  </entry>
  <entry out="35617" in="35442" producer="2_playlist5">
   <filter id="filter1220" out="35466" in="35442">
    <property name="window">75</property>
    <property name="max_gain">20dB</property>
    <property name="mlt_type">filter</property>
    <property name="mlt_service">volume</property>
    <property name="kdenlive_id">fadein</property>
    <property name="tag">volume</property>
    <property name="kdenlive_ix">1</property>
    <property name="kdenlive_info"/>
    <property name="disable"/>
    <property name="gain">0</property>
    <property name="end">1</property>
   </filter>
  </entry>
  <entry out="87779" in="84868" producer="2_playlist5">
   <filter id="filter1221" out="84973" in="84868">
    <property name="window">75</property>
    <property name="max_gain">20dB</property>
    <property name="mlt_type">filter</property>
    <property name="mlt_service">volume</property>
    <property name="kdenlive_id">fadein</property>
    <property name="tag">volume</property>
    <property name="kdenlive_ix">1</property>
    <property name="kdenlive_info"/>
    <property name="disable"/>
    <property name="gain">0</property>
    <property name="end">1</property>
   </filter>
   <filter id="filter1222" out="87779" in="87716">
    <property name="window">75</property>
    <property name="max_gain">20dB</property>
    <property name="mlt_type">filter</property>
    <property name="mlt_service">volume</property>
    <property name="kdenlive_id">fadeout</property>
    <property name="tag">volume</property>
    <property name="kdenlive_ix">2</property>
    <property name="kdenlive_info"/>
    <property name="disable"/>
    <property name="gain">1</property>
    <property name="end">0</property>
   </filter>
  </entry>
  <blank length="614"/>
  <entry out="90737" in="90400" producer="2_playlist5">
   <filter id="filter1223" out="90418" in="90400">
    <property name="window">75</property>
    <property name="max_gain">20dB</property>
    <property name="mlt_type">filter</property>
    <property name="mlt_service">volume</property>
    <property name="kdenlive_id">volume</property>
    <property name="tag">volume</property>
    <property name="kdenlive_ix">1</property>
    <property name="kdenlive_info"/>
    <property name="disable"/>
    <property name="gain">0</property>
    <property name="end">1</property>
   </filter>
   <filter id="filter1224" out="90732" in="90419">
    <property name="window">75</property>
    <property name="max_gain">20dB</property>
    <property name="mlt_type">filter</property>
    <property name="mlt_service">volume</property>
    <property name="kdenlive_id">volume</property>
    <property name="tag">volume</property>
    <property name="kdenlive_ix">1</property>
    <property name="kdenlive_info"/>
    <property name="disable"/>
    <property name="gain">1</property>
    <property name="end">1</property>
   </filter>
   <filter id="filter1225" out="90737" in="90733">
    <property name="window">75</property>
    <property name="max_gain">20dB</property>
    <property name="mlt_type">filter</property>
    <property name="mlt_service">volume</property>
    <property name="kdenlive_id">volume</property>
    <property name="tag">volume</property>
    <property name="kdenlive_ix">1</property>
    <property name="kdenlive_info"/>
    <property name="disable"/>
    <property name="gain">0.97</property>
    <property name="end">0.85</property>
   </filter>
  </entry>
  <entry out="93946" in="91166" producer="2_playlist5">
   <filter id="filter1226" out="93946" in="93934">
    <property name="window">75</property>
    <property name="max_gain">20dB</property>
    <property name="mlt_type">filter</property>
    <property name="mlt_service">volume</property>
    <property name="kdenlive_id">fadeout</property>
    <property name="tag">volume</property>
    <property name="kdenlive_ix">1</property>
    <property name="kdenlive_info"/>
    <property name="disable"/>
    <property name="gain">1</property>
    <property name="end">0</property>
   </filter>
  </entry>
  <blank length="2527"/>
  <entry out="98513" in="97642" producer="2_playlist5"/>
  <entry out="100748" in="98937" producer="2_playlist5">
   <filter id="filter1227" out="100749" in="100733">
    <property name="window">75</property>
    <property name="max_gain">20dB</property>
    <property name="mlt_type">filter</property>
    <property name="mlt_service">volume</property>
    <property name="kdenlive_id">fadeout</property>
    <property name="tag">volume</property>
    <property name="kdenlive_ix">1</property>
    <property name="kdenlive_info"/>
    <property name="disable"/>
    <property name="gain">1</property>
    <property name="end">0</property>
   </filter>
  </entry>
  <blank length="174"/>
  <entry out="102002" in="101893" producer="2_playlist5">
   <filter id="filter1228" out="101910" in="101893">
    <property name="window">75</property>
    <property name="max_gain">20dB</property>
    <property name="mlt_type">filter</property>
    <property name="mlt_service">volume</property>
    <property name="kdenlive_id">fadein</property>
    <property name="tag">volume</property>
    <property name="kdenlive_ix">1</property>
    <property name="kdenlive_info"/>
    <property name="disable"/>
    <property name="gain">0</property>
    <property name="end">1</property>
   </filter>
  </entry>
  <blank length="150"/>
  <entry out="103721" in="102009" producer="2_playlist5"/>
  <entry out="105132" in="104404" producer="2_playlist5"/>
  <entry out="105501" in="105413" producer="2_playlist5"/>
  <entry out="108773" in="106201" producer="2_playlist5">
   <filter id="filter1229" out="106276" in="106201">
    <property name="window">75</property>
    <property name="max_gain">20dB</property>
    <property name="mlt_type">filter</property>
    <property name="mlt_service">volume</property>
    <property name="kdenlive_id">fadein</property>
    <property name="tag">volume</property>
    <property name="kdenlive_ix">1</property>
    <property name="kdenlive_info"/>
    <property name="disable"/>
    <property name="gain">0</property>
    <property name="end">1</property>
   </filter>
  </entry>
  <entry out="109829" in="109557" producer="2_playlist5"/>
  <entry out="112725" in="112510" producer="2_playlist5"/>
  <entry out="113325" in="112885" producer="2_playlist5"/>
  <blank length="199"/>
  <entry out="113970" in="113525" producer="2_playlist5"/>
  <entry out="114934" in="114576" producer="2_playlist5">
   <filter id="filter1230" out="114891" in="114576">
    <property name="window">75</property>
    <property name="max_gain">20dB</property>
    <property name="mlt_type">filter</property>
    <property name="mlt_service">volume</property>
    <property name="kdenlive_id">volume</property>
    <property name="tag">volume</property>
    <property name="kdenlive_ix">1</property>
    <property name="kdenlive_info"/>
    <property name="disable"/>
    <property name="gain">1</property>
    <property name="end">1</property>
   </filter>
   <filter id="filter1231" out="114934" in="114892">
    <property name="window">75</property>
    <property name="max_gain">20dB</property>
    <property name="mlt_type">filter</property>
    <property name="mlt_service">volume</property>
    <property name="kdenlive_id">volume</property>
    <property name="tag">volume</property>
    <property name="kdenlive_ix">1</property>
    <property name="kdenlive_info"/>
    <property name="disable"/>
    <property name="gain">0.988372</property>
    <property name="end">0.5</property>
   </filter>
  </entry>
  <entry out="117934" in="115367" producer="2_playlist5"/>
  <entry out="122255" in="121573" producer="2_playlist5"/>
  <entry out="127323" in="124712" producer="2_playlist5">
   <filter id="filter1232" out="124767" in="124712">
    <property name="window">75</property>
    <property name="max_gain">20dB</property>
    <property name="mlt_type">filter</property>
    <property name="mlt_service">volume</property>
    <property name="kdenlive_id">fadein</property>
    <property name="tag">volume</property>
    <property name="kdenlive_ix">1</property>
    <property name="kdenlive_info"/>
    <property name="disable"/>
    <property name="gain">0</property>
    <property name="end">1</property>
   </filter>
  </entry>
  <entry out="131250" in="129894" producer="2_playlist5"/>
  <entry out="131920" in="131552" producer="2_playlist5">
   <filter id="filter1233" out="131567" in="131552">
    <property name="window">75</property>
    <property name="max_gain">20dB</property>
    <property name="mlt_type">filter</property>
    <property name="mlt_service">volume</property>
    <property name="kdenlive_id">fadein</property>
    <property name="tag">volume</property>
    <property name="kdenlive_ix">1</property>
    <property name="kdenlive_info"/>
    <property name="disable"/>
    <property name="gain">0</property>
    <property name="end">1</property>
   </filter>
   <filter id="filter1234" out="131746" in="131552">
    <property name="window">75</property>
    <property name="max_gain">20dB</property>
    <property name="mlt_type">filter</property>
    <property name="mlt_service">volume</property>
    <property name="kdenlive_id">volume</property>
    <property name="tag">volume</property>
    <property name="kdenlive_ix">2</property>
    <property name="kdenlive_info"/>
    <property name="disable"/>
    <property name="gain">0.9</property>
    <property name="end">0.9</property>
   </filter>
   <filter id="filter1235" out="131785" in="131747">
    <property name="window">75</property>
    <property name="max_gain">20dB</property>
    <property name="mlt_type">filter</property>
    <property name="mlt_service">volume</property>
    <property name="kdenlive_id">volume</property>
    <property name="tag">volume</property>
    <property name="kdenlive_ix">2</property>
    <property name="kdenlive_info"/>
    <property name="disable"/>
    <property name="gain">0.897436</property>
    <property name="end">0.8</property>
   </filter>
   <filter id="filter1236" out="131913" in="131786">
    <property name="window">75</property>
    <property name="max_gain">20dB</property>
    <property name="mlt_type">filter</property>
    <property name="mlt_service">volume</property>
    <property name="kdenlive_id">volume</property>
    <property name="tag">volume</property>
    <property name="kdenlive_ix">2</property>
    <property name="kdenlive_info"/>
    <property name="disable"/>
    <property name="gain">0.8</property>
    <property name="end">0.8</property>
   </filter>
  </entry>
  <entry out="131738" in="131718" producer="2_playlist5">
   <filter id="filter1237" in="131718">
    <property name="window">75</property>
    <property name="max_gain">20dB</property>
    <property name="mlt_type">filter</property>
    <property name="mlt_service">volume</property>
    <property name="kdenlive_id">volume</property>
    <property name="tag">volume</property>
    <property name="kdenlive_ix">1</property>
    <property name="kdenlive_info"/>
    <property name="disable"/>
    <property name="gain">0</property>
   </filter>
   <filter id="filter1238">
    <property name="mlt_type">filter</property>
    <property name="mlt_service">crop</property>
    <property name="kdenlive_id">crop</property>
    <property name="tag">crop</property>
    <property name="kdenlive_ix">2</property>
    <property name="kdenlive_info"/>
    <property name="disable"/>
    <property name="top">30</property>
    <property name="left">0</property>
    <property name="bottom">124</property>
    <property name="right">275</property>
    <property name="center">0</property>
    <property name="center_bias">0</property>
    <property name="use_profile">1</property>
   </filter>
  </entry>
  <entry out="132146" in="132058" producer="2_playlist5">
   <filter id="filter1239" out="132146" in="132058">
    <property name="window">75</property>
    <property name="max_gain">20dB</property>
    <property name="mlt_type">filter</property>
    <property name="mlt_service">volume</property>
    <property name="kdenlive_id">volume</property>
    <property name="tag">volume</property>
    <property name="kdenlive_ix">1</property>
    <property name="kdenlive_info"/>
    <property name="disable"/>
    <property name="gain">1</property>
    <property name="end">1</property>
   </filter>
  </entry>
  <entry out="137921" in="137899" producer="2_playlist5">
   <filter id="filter1240" in="137899">
    <property name="window">75</property>
    <property name="max_gain">20dB</property>
    <property name="mlt_type">filter</property>
    <property name="mlt_service">volume</property>
    <property name="kdenlive_id">volume</property>
    <property name="tag">volume</property>
    <property name="kdenlive_ix">1</property>
    <property name="kdenlive_info"/>
    <property name="disable"/>
    <property name="gain">0</property>
   </filter>
   <filter id="filter1241">
    <property name="mlt_type">filter</property>
    <property name="mlt_service">crop</property>
    <property name="kdenlive_id">crop</property>
    <property name="tag">crop</property>
    <property name="kdenlive_ix">2</property>
    <property name="kdenlive_info"/>
    <property name="disable"/>
    <property name="top">200</property>
    <property name="left">0</property>
    <property name="bottom">267</property>
    <property name="right">830</property>
    <property name="center">0</property>
    <property name="center_bias">0</property>
    <property name="use_profile">1</property>
   </filter>
   <filter id="affinerotate">
    <property name="background">colour:0x00000000</property>
    <property name="mlt_type">filter</property>
    <property name="mlt_service">affine</property>
    <property name="kdenlive_id">affinerotate</property>
    <property name="tag">affine</property>
    <property name="kdenlive_ix">3</property>
    <property name="kdenlive_info"/>
    <property name="disable"/>
    <property name="transition.rotate_x">137899=0</property>
    <property name="transition.rotate_y">137899=0</property>
    <property name="transition.rotate_z">137899=-180</property>
    <property name="transition.ox">137899=0</property>
    <property name="transition.oy">137899=0</property>
    <property name="transition.keyed">1</property>
    <property name="transition.always_active">1</property>
   </filter>
   <filter id="filter1242">
    <property name="version">0.1</property>
    <property name="mlt_type">filter</property>
    <property name="mlt_service">frei0r.letterb0xed</property>
    <property name="kdenlive_id">frei0r.letterb0xed</property>
    <property name="tag">frei0r.letterb0xed</property>
    <property name="kdenlive_ix">4</property>
    <property name="kdenlive_info"/>
    <property name="disable">0</property>
    <property name="Border Width">0.25</property>
    <property name="Transparency">0</property>
   </filter>
  </entry>
  <entry out="132279" in="132253" producer="2_playlist5">
   <filter id="filter1243" in="132253">
    <property name="window">75</property>
    <property name="max_gain">20dB</property>
    <property name="mlt_type">filter</property>
    <property name="mlt_service">volume</property>
    <property name="kdenlive_id">volume</property>
    <property name="tag">volume</property>
    <property name="kdenlive_ix">1</property>
    <property name="kdenlive_info"/>
    <property name="disable"/>
    <property name="gain">0</property>
   </filter>
  </entry>
  <entry out="132318" in="132280" producer="2_playlist5">
   <filter id="filter1244" in="132280">
    <property name="window">75</property>
    <property name="max_gain">20dB</property>
    <property name="mlt_type">filter</property>
    <property name="mlt_service">volume</property>
    <property name="kdenlive_id">volume</property>
    <property name="tag">volume</property>
    <property name="kdenlive_ix">1</property>
    <property name="kdenlive_info"/>
    <property name="disable"/>
    <property name="gain">0</property>
   </filter>
   <filter id="filter1245">
    <property name="mlt_type">filter</property>
    <property name="mlt_service">crop</property>
    <property name="kdenlive_id">crop</property>
    <property name="tag">crop</property>
    <property name="kdenlive_ix">2</property>
    <property name="kdenlive_info"/>
    <property name="disable">0</property>
    <property name="top">100</property>
    <property name="left">750</property>
    <property name="bottom">322</property>
    <property name="right">0</property>
    <property name="center">0</property>
    <property name="center_bias">0</property>
    <property name="use_profile">1</property>
   </filter>
  </entry>
  <blank length="20"/>
  <entry out="132505" in="132471" producer="2_playlist5">
   <filter id="filter1246" in="132471">
    <property name="window">75</property>
    <property name="max_gain">20dB</property>
    <property name="mlt_type">filter</property>
    <property name="mlt_service">volume</property>
    <property name="kdenlive_id">volume</property>
    <property name="tag">volume</property>
    <property name="kdenlive_ix">1</property>
    <property name="kdenlive_info"/>
    <property name="disable"/>
    <property name="gain">0</property>
   </filter>
   <filter id="filter1247">
    <property name="mlt_type">filter</property>
    <property name="mlt_service">crop</property>
    <property name="kdenlive_id">crop</property>
    <property name="tag">crop</property>
    <property name="kdenlive_ix">2</property>
    <property name="kdenlive_info"/>
    <property name="disable"/>
    <property name="top">0</property>
    <property name="left">200</property>
    <property name="bottom">220</property>
    <property name="right">191</property>
    <property name="center">0</property>
    <property name="center_bias">0</property>
    <property name="use_profile">1</property>
   </filter>
  </entry>
  <entry out="136312" in="135011" producer="2_playlist5">
   <filter id="filter1248" out="135650" in="135011">
    <property name="window">75</property>
    <property name="max_gain">20dB</property>
    <property name="mlt_type">filter</property>
    <property name="mlt_service">volume</property>
    <property name="kdenlive_id">volume</property>
    <property name="tag">volume</property>
    <property name="kdenlive_ix">1</property>
    <property name="kdenlive_info"/>
    <property name="disable"/>
    <property name="gain">1</property>
    <property name="end">1</property>
   </filter>
   <filter id="filter1249" out="135681" in="135651">
    <property name="window">75</property>
    <property name="max_gain">20dB</property>
    <property name="mlt_type">filter</property>
    <property name="mlt_service">volume</property>
    <property name="kdenlive_id">volume</property>
    <property name="tag">volume</property>
    <property name="kdenlive_ix">1</property>
    <property name="kdenlive_info"/>
    <property name="disable"/>
    <property name="gain">0.993548</property>
    <property name="end">0.8</property>
   </filter>
   <filter id="filter1250" out="135858" in="135682">
    <property name="window">75</property>
    <property name="max_gain">20dB</property>
    <property name="mlt_type">filter</property>
    <property name="mlt_service">volume</property>
    <property name="kdenlive_id">volume</property>
    <property name="tag">volume</property>
    <property name="kdenlive_ix">1</property>
    <property name="kdenlive_info"/>
    <property name="disable"/>
    <property name="gain">0.8</property>
    <property name="end">0.8</property>
   </filter>
   <filter id="filter1251" out="135914" in="135859">
    <property name="window">75</property>
    <property name="max_gain">20dB</property>
    <property name="mlt_type">filter</property>
    <property name="mlt_service">volume</property>
    <property name="kdenlive_id">volume</property>
    <property name="tag">volume</property>
    <property name="kdenlive_ix">1</property>
    <property name="kdenlive_info"/>
    <property name="disable"/>
    <property name="gain">0.803571</property>
    <property name="end">1</property>
   </filter>
   <filter id="filter1252" out="136312" in="135915">
    <property name="window">75</property>
    <property name="max_gain">20dB</property>
    <property name="mlt_type">filter</property>
    <property name="mlt_service">volume</property>
    <property name="kdenlive_id">volume</property>
    <property name="tag">volume</property>
    <property name="kdenlive_ix">1</property>
    <property name="kdenlive_info"/>
    <property name="disable"/>
    <property name="gain">1</property>
    <property name="end">1</property>
   </filter>
  </entry>
  <entry out="139491" in="139404" producer="2_playlist5"/>
  <entry out="143494" in="143454" producer="2_playlist5">
   <filter id="filter1253">
    <property name="window">75</property>
    <property name="max_gain">20dB</property>
    <property name="mlt_type">filter</property>
    <property name="mlt_service">volume</property>
    <property name="kdenlive_id">mute</property>
    <property name="tag">volume</property>
    <property name="kdenlive_ix">1</property>
    <property name="kdenlive_info"/>
    <property name="disable"/>
    <property name="gain">0</property>
   </filter>
   <filter id="filter1254">
    <property name="mlt_type">filter</property>
    <property name="mlt_service">crop</property>
    <property name="kdenlive_id">crop</property>
    <property name="tag">crop</property>
    <property name="kdenlive_ix">2</property>
    <property name="kdenlive_info"/>
    <property name="disable"/>
    <property name="top">0</property>
    <property name="left">256</property>
    <property name="bottom">288</property>
    <property name="right">256</property>
    <property name="center">0</property>
    <property name="center_bias">0</property>
    <property name="use_profile">1</property>
   </filter>
  </entry>
  <entry out="140350" in="139995" producer="2_playlist5">
   <filter id="filter1255" out="140007" in="139995">
    <property name="window">75</property>
    <property name="max_gain">20dB</property>
    <property name="mlt_type">filter</property>
    <property name="mlt_service">volume</property>
    <property name="kdenlive_id">volume</property>
    <property name="tag">volume</property>
    <property name="kdenlive_ix">1</property>
    <property name="kdenlive_info"/>
    <property name="disable"/>
    <property name="gain">0</property>
    <property name="end">0</property>
   </filter>
   <filter id="filter1256" out="140023" in="140008">
    <property name="window">75</property>
    <property name="max_gain">20dB</property>
    <property name="mlt_type">filter</property>
    <property name="mlt_service">volume</property>
    <property name="kdenlive_id">volume</property>
    <property name="tag">volume</property>
    <property name="kdenlive_ix">1</property>
    <property name="kdenlive_info"/>
    <property name="disable"/>
    <property name="gain">0.0625</property>
    <property name="end">1</property>
   </filter>
   <filter id="filter1257" out="140335" in="140024">
    <property name="window">75</property>
    <property name="max_gain">20dB</property>
    <property name="mlt_type">filter</property>
    <property name="mlt_service">volume</property>
    <property name="kdenlive_id">volume</property>
    <property name="tag">volume</property>
    <property name="kdenlive_ix">1</property>
    <property name="kdenlive_info"/>
    <property name="disable"/>
    <property name="gain">1</property>
    <property name="end">1</property>
   </filter>
   <filter id="filter1258" out="140350" in="140336">
    <property name="window">75</property>
    <property name="max_gain">20dB</property>
    <property name="mlt_type">filter</property>
    <property name="mlt_service">volume</property>
    <property name="kdenlive_id">volume</property>
    <property name="tag">volume</property>
    <property name="kdenlive_ix">1</property>
    <property name="kdenlive_info"/>
    <property name="disable"/>
    <property name="gain">0.966667</property>
    <property name="end">0.5</property>
   </filter>
  </entry>
  <entry out="141492" in="141420" producer="2_playlist5">
   <filter id="filter1259" out="141489" in="141420">
    <property name="window">75</property>
    <property name="max_gain">20dB</property>
    <property name="mlt_type">filter</property>
    <property name="mlt_service">volume</property>
    <property name="kdenlive_id">volume</property>
    <property name="tag">volume</property>
    <property name="kdenlive_ix">1</property>
    <property name="kdenlive_info"/>
    <property name="disable"/>
    <property name="gain">1</property>
    <property name="end">1</property>
   </filter>
  </entry>
  <entry out="141532" in="141493" producer="2_playlist5">
   <filter id="filter1260" out="141501" in="141493">
    <property name="window">75</property>
    <property name="max_gain">20dB</property>
    <property name="mlt_type">filter</property>
    <property name="mlt_service">volume</property>
    <property name="kdenlive_id">volume</property>
    <property name="tag">volume</property>
    <property name="kdenlive_ix">1</property>
    <property name="kdenlive_info"/>
    <property name="disable"/>
    <property name="gain">1.05</property>
    <property name="end">1.06</property>
   </filter>
   <filter id="filter1261" out="141516" in="141502">
    <property name="window">75</property>
    <property name="max_gain">20dB</property>
    <property name="mlt_type">filter</property>
    <property name="mlt_service">volume</property>
    <property name="kdenlive_id">volume</property>
    <property name="tag">volume</property>
    <property name="kdenlive_ix">1</property>
    <property name="kdenlive_info"/>
    <property name="disable"/>
    <property name="gain">1.006</property>
    <property name="end">0.25</property>
   </filter>
   <filter id="filter1262" out="141532" in="141517">
    <property name="window">75</property>
    <property name="max_gain">20dB</property>
    <property name="mlt_type">filter</property>
    <property name="mlt_service">volume</property>
    <property name="kdenlive_id">volume</property>
    <property name="tag">volume</property>
    <property name="kdenlive_ix">1</property>
    <property name="kdenlive_info"/>
    <property name="disable"/>
    <property name="gain">0.234375</property>
    <property name="end">0</property>
   </filter>
  </entry>
  <entry out="143116" in="141606" producer="2_playlist5">
   <filter id="filter1263" out="143116" in="141606">
    <property name="window">75</property>
    <property name="max_gain">20dB</property>
    <property name="mlt_type">filter</property>
    <property name="mlt_service">volume</property>
    <property name="kdenlive_id">volume</property>
    <property name="tag">volume</property>
    <property name="kdenlive_ix">1</property>
    <property name="kdenlive_info"/>
    <property name="disable"/>
    <property name="gain">1</property>
    <property name="end">1</property>
   </filter>
  </entry>
  <entry out="143652" in="143436" producer="2_playlist5"/>
  <entry out="146041" in="145992" producer="2_playlist5">
   <filter id="filter1264" out="146035" in="145992">
    <property name="window">75</property>
    <property name="max_gain">20dB</property>
    <property name="mlt_type">filter</property>
    <property name="mlt_service">volume</property>
    <property name="kdenlive_id">volume</property>
    <property name="tag">volume</property>
    <property name="kdenlive_ix">1</property>
    <property name="kdenlive_info"/>
    <property name="disable"/>
    <property name="gain">0.2</property>
    <property name="end">0.2</property>
   </filter>
   <filter id="filter1265" out="146041" in="146036">
    <property name="window">75</property>
    <property name="max_gain">20dB</property>
    <property name="mlt_type">filter</property>
    <property name="mlt_service">volume</property>
    <property name="kdenlive_id">volume</property>
    <property name="tag">volume</property>
    <property name="kdenlive_ix">1</property>
    <property name="kdenlive_info"/>
    <property name="disable"/>
    <property name="gain">0.166667</property>
    <property name="end">0</property>
   </filter>
  </entry>
  <blank length="108"/>
  <entry out="143425" in="143334" producer="2_playlist5">
   <filter id="filter1266" out="143362" in="143334">
    <property name="window">75</property>
    <property name="max_gain">20dB</property>
    <property name="mlt_type">filter</property>
    <property name="mlt_service">volume</property>
    <property name="kdenlive_id">volume</property>
    <property name="tag">volume</property>
    <property name="kdenlive_ix">1</property>
    <property name="kdenlive_info"/>
    <property name="disable"/>
    <property name="gain">0</property>
    <property name="end">0</property>
   </filter>
   <filter id="filter1267" out="143397" in="143363">
    <property name="window">75</property>
    <property name="max_gain">20dB</property>
    <property name="mlt_type">filter</property>
    <property name="mlt_service">volume</property>
    <property name="kdenlive_id">volume</property>
    <property name="tag">volume</property>
    <property name="kdenlive_ix">1</property>
    <property name="kdenlive_info"/>
    <property name="disable"/>
    <property name="gain">0.0285714</property>
    <property name="end">1</property>
   </filter>
   <filter id="filter1268" out="143425" in="143398">
    <property name="window">75</property>
    <property name="max_gain">20dB</property>
    <property name="mlt_type">filter</property>
    <property name="mlt_service">volume</property>
    <property name="kdenlive_id">volume</property>
    <property name="tag">volume</property>
    <property name="kdenlive_ix">1</property>
    <property name="kdenlive_info"/>
    <property name="disable"/>
    <property name="gain">1</property>
    <property name="end">1</property>
   </filter>
  </entry>
  <entry out="148331" in="147923" producer="2_playlist5">
   <filter id="filter1269" out="147932" in="147923">
    <property name="window">75</property>
    <property name="max_gain">20dB</property>
    <property name="mlt_type">filter</property>
    <property name="mlt_service">volume</property>
    <property name="kdenlive_id">fadein</property>
    <property name="tag">volume</property>
    <property name="kdenlive_ix">1</property>
    <property name="kdenlive_info"/>
    <property name="disable"/>
    <property name="gain">0</property>
    <property name="end">1</property>
   </filter>
  </entry>
  <entry out="149264" in="149209" producer="2_playlist5">
   <filter id="filter1270" out="149235" in="149209">
    <property name="window">75</property>
    <property name="max_gain">20dB</property>
    <property name="mlt_type">filter</property>
    <property name="mlt_service">volume</property>
    <property name="kdenlive_id">volume</property>
    <property name="tag">volume</property>
    <property name="kdenlive_ix">1</property>
    <property name="kdenlive_info"/>
    <property name="disable"/>
    <property name="gain">1</property>
    <property name="end">1</property>
   </filter>
   <filter id="filter1271" out="149240" in="149236">
    <property name="window">75</property>
    <property name="max_gain">20dB</property>
    <property name="mlt_type">filter</property>
    <property name="mlt_service">volume</property>
    <property name="kdenlive_id">volume</property>
    <property name="tag">volume</property>
    <property name="kdenlive_ix">1</property>
    <property name="kdenlive_info"/>
    <property name="disable"/>
    <property name="gain">0.8</property>
    <property name="end">0</property>
   </filter>
   <filter id="filter1272" out="149249" in="149241">
    <property name="window">75</property>
    <property name="max_gain">20dB</property>
    <property name="mlt_type">filter</property>
    <property name="mlt_service">volume</property>
    <property name="kdenlive_id">volume</property>
    <property name="tag">volume</property>
    <property name="kdenlive_ix">1</property>
    <property name="kdenlive_info"/>
    <property name="disable"/>
    <property name="gain">0</property>
    <property name="end">0</property>
   </filter>
   <filter id="filter1273" out="149264" in="149250">
    <property name="window">75</property>
    <property name="max_gain">20dB</property>
    <property name="mlt_type">filter</property>
    <property name="mlt_service">volume</property>
    <property name="kdenlive_id">volume</property>
    <property name="tag">volume</property>
    <property name="kdenlive_ix">1</property>
    <property name="kdenlive_info"/>
    <property name="disable"/>
    <property name="gain">0</property>
    <property name="end">0</property>
   </filter>
  </entry>
  <entry out="145020" in="144401" producer="2_playlist5"/>
  <entry out="145248" in="145153" producer="2_playlist5"/>
  <entry out="147232" in="147027" producer="2_playlist5"/>
  <entry out="149902" in="149811" producer="2_playlist5">
   <filter id="filter1274" out="149833" in="149811">
    <property name="window">75</property>
    <property name="max_gain">20dB</property>
    <property name="mlt_type">filter</property>
    <property name="mlt_service">volume</property>
    <property name="kdenlive_id">volume</property>
    <property name="tag">volume</property>
    <property name="kdenlive_ix">1</property>
    <property name="kdenlive_info"/>
    <property name="disable"/>
    <property name="gain">0</property>
    <property name="end">0</property>
   </filter>
   <filter id="filter1275" out="149840" in="149834">
    <property name="window">75</property>
    <property name="max_gain">20dB</property>
    <property name="mlt_type">filter</property>
    <property name="mlt_service">volume</property>
    <property name="kdenlive_id">volume</property>
    <property name="tag">volume</property>
    <property name="kdenlive_ix">1</property>
    <property name="kdenlive_info"/>
    <property name="disable"/>
    <property name="gain">0.142857</property>
    <property name="end">1</property>
   </filter>
   <filter id="filter1276" out="149858" in="149841">
    <property name="window">75</property>
    <property name="max_gain">20dB</property>
    <property name="mlt_type">filter</property>
    <property name="mlt_service">volume</property>
    <property name="kdenlive_id">volume</property>
    <property name="tag">volume</property>
    <property name="kdenlive_ix">1</property>
    <property name="kdenlive_info"/>
    <property name="disable"/>
    <property name="gain">1</property>
    <property name="end">1</property>
   </filter>
   <filter id="filter1277" out="149902" in="149859">
    <property name="window">75</property>
    <property name="max_gain">20dB</property>
    <property name="mlt_type">filter</property>
    <property name="mlt_service">volume</property>
    <property name="kdenlive_id">volume</property>
    <property name="tag">volume</property>
    <property name="kdenlive_ix">1</property>
    <property name="kdenlive_info"/>
    <property name="disable"/>
    <property name="gain">1</property>
    <property name="end">1</property>
   </filter>
  </entry>
  <entry out="150136" in="149961" producer="2_playlist5">
   <filter id="filter1278" out="150118" in="149961">
    <property name="window">75</property>
    <property name="max_gain">20dB</property>
    <property name="mlt_type">filter</property>
    <property name="mlt_service">volume</property>
    <property name="kdenlive_id">volume</property>
    <property name="tag">volume</property>
    <property name="kdenlive_ix">1</property>
    <property name="kdenlive_info"/>
    <property name="disable"/>
    <property name="gain">1</property>
    <property name="end">1</property>
   </filter>
   <filter id="filter1279" out="150136" in="150119">
    <property name="window">75</property>
    <property name="max_gain">20dB</property>
    <property name="mlt_type">filter</property>
    <property name="mlt_service">volume</property>
    <property name="kdenlive_id">volume</property>
    <property name="tag">volume</property>
    <property name="kdenlive_ix">1</property>
    <property name="kdenlive_info"/>
    <property name="disable"/>
    <property name="gain">1</property>
    <property name="end">1</property>
   </filter>
  </entry>
  <entry out="150272" in="150174" producer="2_playlist5">
   <filter id="filter1280" out="150272" in="150174">
    <property name="window">75</property>
    <property name="max_gain">20dB</property>
    <property name="mlt_type">filter</property>
    <property name="mlt_service">volume</property>
    <property name="kdenlive_id">volume</property>
    <property name="tag">volume</property>
    <property name="kdenlive_ix">1</property>
    <property name="kdenlive_info"/>
    <property name="disable"/>
    <property name="gain">1</property>
    <property name="end">1</property>
   </filter>
  </entry>
  <entry out="150553" in="150532" producer="2_playlist5">
   <filter id="filter1281" out="150553" in="150551">
    <property name="window">75</property>
    <property name="max_gain">20dB</property>
    <property name="mlt_type">filter</property>
    <property name="mlt_service">volume</property>
    <property name="kdenlive_id">fadeout</property>
    <property name="tag">volume</property>
    <property name="kdenlive_ix">1</property>
    <property name="kdenlive_info"/>
    <property name="disable"/>
    <property name="gain">1</property>
    <property name="end">0</property>
   </filter>
  </entry>
  <blank length="33"/>
  <entry out="151149" in="151043" producer="2_playlist5"/>
  <entry out="151355" in="151236" producer="2_playlist5">
   <filter id="filter1282" out="151288" in="151236">
    <property name="window">75</property>
    <property name="max_gain">20dB</property>
    <property name="mlt_type">filter</property>
    <property name="mlt_service">volume</property>
    <property name="kdenlive_id">volume</property>
    <property name="tag">volume</property>
    <property name="kdenlive_ix">1</property>
    <property name="kdenlive_info"/>
    <property name="disable"/>
    <property name="gain">1</property>
    <property name="end">1</property>
   </filter>
   <filter id="filter1283" out="151315" in="151289">
    <property name="window">75</property>
    <property name="max_gain">20dB</property>
    <property name="mlt_type">filter</property>
    <property name="mlt_service">volume</property>
    <property name="kdenlive_id">volume</property>
    <property name="tag">volume</property>
    <property name="kdenlive_ix">1</property>
    <property name="kdenlive_info"/>
    <property name="disable"/>
    <property name="gain">1</property>
    <property name="end">1</property>
   </filter>
   <filter id="filter1284" out="151334" in="151316">
    <property name="window">75</property>
    <property name="max_gain">20dB</property>
    <property name="mlt_type">filter</property>
    <property name="mlt_service">volume</property>
    <property name="kdenlive_id">volume</property>
    <property name="tag">volume</property>
    <property name="kdenlive_ix">1</property>
    <property name="kdenlive_info"/>
    <property name="disable"/>
    <property name="gain">1</property>
    <property name="end">1</property>
   </filter>
   <filter id="filter1285" out="151339" in="151335">
    <property name="window">75</property>
    <property name="max_gain">20dB</property>
    <property name="mlt_type">filter</property>
    <property name="mlt_service">volume</property>
    <property name="kdenlive_id">volume</property>
    <property name="tag">volume</property>
    <property name="kdenlive_ix">1</property>
    <property name="kdenlive_info"/>
    <property name="disable"/>
    <property name="gain">1</property>
    <property name="end">1</property>
   </filter>
   <filter id="filter1286" out="151355" in="151340">
    <property name="window">75</property>
    <property name="max_gain">20dB</property>
    <property name="mlt_type">filter</property>
    <property name="mlt_service">volume</property>
    <property name="kdenlive_id">volume</property>
    <property name="tag">volume</property>
    <property name="kdenlive_ix">1</property>
    <property name="kdenlive_info"/>
    <property name="disable"/>
    <property name="gain">1</property>
    <property name="end">1</property>
   </filter>
  </entry>
  <entry out="152248" in="152232" producer="2_playlist5">
   <filter id="filter1287" out="152233" in="152232">
    <property name="window">75</property>
    <property name="max_gain">20dB</property>
    <property name="mlt_type">filter</property>
    <property name="mlt_service">volume</property>
    <property name="kdenlive_id">volume</property>
    <property name="tag">volume</property>
    <property name="kdenlive_ix">1</property>
    <property name="kdenlive_info"/>
    <property name="disable"/>
    <property name="gain">0</property>
    <property name="end">0</property>
   </filter>
   <filter id="filter1288" out="152237" in="152234">
    <property name="window">75</property>
    <property name="max_gain">20dB</property>
    <property name="mlt_type">filter</property>
    <property name="mlt_service">volume</property>
    <property name="kdenlive_id">volume</property>
    <property name="tag">volume</property>
    <property name="kdenlive_ix">1</property>
    <property name="kdenlive_info"/>
    <property name="disable"/>
    <property name="gain">0</property>
    <property name="end">0</property>
   </filter>
   <filter id="filter1289" out="152248" in="152238">
    <property name="window">75</property>
    <property name="max_gain">20dB</property>
    <property name="mlt_type">filter</property>
    <property name="mlt_service">volume</property>
    <property name="kdenlive_id">volume</property>
    <property name="tag">volume</property>
    <property name="kdenlive_ix">1</property>
    <property name="kdenlive_info"/>
    <property name="disable"/>
    <property name="gain">0</property>
    <property name="end">0</property>
   </filter>
  </entry>
  <entry out="152600" in="152418" producer="2_playlist5">
   <filter id="filter1290" out="152476" in="152418">
    <property name="window">75</property>
    <property name="max_gain">20dB</property>
    <property name="mlt_type">filter</property>
    <property name="mlt_service">volume</property>
    <property name="kdenlive_id">volume</property>
    <property name="tag">volume</property>
    <property name="kdenlive_ix">1</property>
    <property name="kdenlive_info"/>
    <property name="disable"/>
    <property name="gain">0</property>
    <property name="end">0</property>
   </filter>
   <filter id="filter1291" out="152496" in="152477">
    <property name="window">75</property>
    <property name="max_gain">20dB</property>
    <property name="mlt_type">filter</property>
    <property name="mlt_service">volume</property>
    <property name="kdenlive_id">volume</property>
    <property name="tag">volume</property>
    <property name="kdenlive_ix">1</property>
    <property name="kdenlive_info"/>
    <property name="disable"/>
    <property name="gain">0.035</property>
    <property name="end">0.7</property>
   </filter>
   <filter id="filter1292" out="152535" in="152497">
    <property name="window">75</property>
    <property name="max_gain">20dB</property>
    <property name="mlt_type">filter</property>
    <property name="mlt_service">volume</property>
    <property name="kdenlive_id">volume</property>
    <property name="tag">volume</property>
    <property name="kdenlive_ix">1</property>
    <property name="kdenlive_info"/>
    <property name="disable"/>
    <property name="gain">0.707692</property>
    <property name="end">1</property>
   </filter>
   <filter id="filter1293" out="152600" in="152536">
    <property name="window">75</property>
    <property name="max_gain">20dB</property>
    <property name="mlt_type">filter</property>
    <property name="mlt_service">volume</property>
    <property name="kdenlive_id">volume</property>
    <property name="tag">volume</property>
    <property name="kdenlive_ix">1</property>
    <property name="kdenlive_info"/>
    <property name="disable"/>
    <property name="gain">1</property>
    <property name="end">1</property>
   </filter>
  </entry>
  <entry out="152815" in="152711" producer="2_playlist5">
   <filter id="filter1294" out="152732" in="152711">
    <property name="window">75</property>
    <property name="max_gain">20dB</property>
    <property name="mlt_type">filter</property>
    <property name="mlt_service">volume</property>
    <property name="kdenlive_id">fadein</property>
    <property name="tag">volume</property>
    <property name="kdenlive_ix">1</property>
    <property name="kdenlive_info"/>
    <property name="disable"/>
    <property name="gain">0</property>
    <property name="end">1</property>
   </filter>
   <filter id="filter1295" out="152769" in="152711">
    <property name="window">75</property>
    <property name="max_gain">20dB</property>
    <property name="mlt_type">filter</property>
    <property name="mlt_service">volume</property>
    <property name="kdenlive_id">volume</property>
    <property name="tag">volume</property>
    <property name="kdenlive_ix">2</property>
    <property name="kdenlive_info"/>
    <property name="disable"/>
    <property name="gain">1</property>
    <property name="end">1</property>
   </filter>
   <filter id="filter1296" out="152774" in="152770">
    <property name="window">75</property>
    <property name="max_gain">20dB</property>
    <property name="mlt_type">filter</property>
    <property name="mlt_service">volume</property>
    <property name="kdenlive_id">volume</property>
    <property name="tag">volume</property>
    <property name="kdenlive_ix">2</property>
    <property name="kdenlive_info"/>
    <property name="disable"/>
    <property name="gain">1</property>
    <property name="end">1</property>
   </filter>
   <filter id="filter1297" out="152815" in="152775">
    <property name="window">75</property>
    <property name="max_gain">20dB</property>
    <property name="mlt_type">filter</property>
    <property name="mlt_service">volume</property>
    <property name="kdenlive_id">volume</property>
    <property name="tag">volume</property>
    <property name="kdenlive_ix">2</property>
    <property name="kdenlive_info"/>
    <property name="disable"/>
    <property name="gain">1</property>
    <property name="end">1</property>
   </filter>
  </entry>
  <entry out="153635" in="153581" producer="2_playlist5">
   <filter id="filter1298">
    <property name="mlt_type">filter</property>
    <property name="mlt_service">crop</property>
    <property name="kdenlive_id">crop</property>
    <property name="tag">crop</property>
    <property name="kdenlive_ix">1</property>
    <property name="kdenlive_info"/>
    <property name="disable">0</property>
    <property name="top">100</property>
    <property name="left">500</property>
    <property name="bottom">181</property>
    <property name="right">0</property>
    <property name="center">0</property>
    <property name="center_bias">0</property>
    <property name="use_profile">1</property>
   </filter>
   <filter id="filter1299" out="153608" in="153581">
    <property name="window">75</property>
    <property name="max_gain">20dB</property>
    <property name="mlt_type">filter</property>
    <property name="mlt_service">volume</property>
    <property name="kdenlive_id">volume</property>
    <property name="tag">volume</property>
    <property name="kdenlive_ix">2</property>
    <property name="kdenlive_info"/>
    <property name="disable"/>
    <property name="gain">0</property>
    <property name="end">0</property>
   </filter>
   <filter id="filter1300" out="153613" in="153609">
    <property name="window">75</property>
    <property name="max_gain">20dB</property>
    <property name="mlt_type">filter</property>
    <property name="mlt_service">volume</property>
    <property name="kdenlive_id">volume</property>
    <property name="tag">volume</property>
    <property name="kdenlive_ix">2</property>
    <property name="kdenlive_info"/>
    <property name="disable"/>
    <property name="gain">0.2</property>
    <property name="end">1</property>
   </filter>
   <filter id="filter1301" out="153635" in="153614">
    <property name="window">75</property>
    <property name="max_gain">20dB</property>
    <property name="mlt_type">filter</property>
    <property name="mlt_service">volume</property>
    <property name="kdenlive_id">volume</property>
    <property name="tag">volume</property>
    <property name="kdenlive_ix">2</property>
    <property name="kdenlive_info"/>
    <property name="disable"/>
    <property name="gain">1</property>
    <property name="end">1</property>
   </filter>
  </entry>
  <entry out="153803" in="153636" producer="2_playlist5"/>
  <entry out="155092" in="154323" producer="2_playlist5"/>
  <entry out="155479" in="155180" producer="2_playlist5"/>
  <entry out="155686" in="155650" producer="2_playlist5">
   <filter id="filter1302" in="155650">
    <property name="window">75</property>
    <property name="max_gain">20dB</property>
    <property name="mlt_type">filter</property>
    <property name="mlt_service">volume</property>
    <property name="kdenlive_id">volume</property>
    <property name="tag">volume</property>
    <property name="kdenlive_ix">1</property>
    <property name="kdenlive_info"/>
    <property name="disable"/>
    <property name="gain">0</property>
   </filter>
  </entry>
  <entry out="155757" in="155711" producer="2_playlist5">
   <filter id="filter1303" in="155711">
    <property name="window">75</property>
    <property name="max_gain">20dB</property>
    <property name="mlt_type">filter</property>
    <property name="mlt_service">volume</property>
    <property name="kdenlive_id">volume</property>
    <property name="tag">volume</property>
    <property name="kdenlive_ix">1</property>
    <property name="kdenlive_info"/>
    <property name="disable"/>
    <property name="gain">0</property>
   </filter>
  </entry>
  <entry out="147877" in="147851" producer="2_playlist5">
   <filter id="filter1304">
    <property name="mlt_type">filter</property>
    <property name="mlt_service">crop</property>
    <property name="kdenlive_id">crop</property>
    <property name="tag">crop</property>
    <property name="kdenlive_ix">1</property>
    <property name="kdenlive_info"/>
    <property name="disable"/>
    <property name="top">144</property>
    <property name="left">0</property>
    <property name="bottom">250</property>
    <property name="right">700</property>
    <property name="center">0</property>
    <property name="center_bias">0</property>
    <property name="use_profile">1</property>
   </filter>
   <filter id="filter1305">
    <property name="window">75</property>
    <property name="max_gain">20dB</property>
    <property name="mlt_type">filter</property>
    <property name="mlt_service">volume</property>
    <property name="kdenlive_id">mute</property>
    <property name="tag">volume</property>
    <property name="kdenlive_ix">2</property>
    <property name="kdenlive_info"/>
    <property name="disable"/>
    <property name="gain">0</property>
   </filter>
  </entry>
  <entry out="156349" in="155950" producer="2_playlist5">
   <filter id="filter1306" out="155986" in="155950">
    <property name="window">75</property>
    <property name="max_gain">20dB</property>
    <property name="mlt_type">filter</property>
    <property name="mlt_service">volume</property>
    <property name="kdenlive_id">volume</property>
    <property name="tag">volume</property>
    <property name="kdenlive_ix">1</property>
    <property name="kdenlive_info"/>
    <property name="disable"/>
    <property name="gain">0</property>
    <property name="end">0.75</property>
   </filter>
   <filter id="filter1307" out="156023" in="155987">
    <property name="window">75</property>
    <property name="max_gain">20dB</property>
    <property name="mlt_type">filter</property>
    <property name="mlt_service">volume</property>
    <property name="kdenlive_id">volume</property>
    <property name="tag">volume</property>
    <property name="kdenlive_ix">1</property>
    <property name="kdenlive_info"/>
    <property name="disable"/>
    <property name="gain">0.756757</property>
    <property name="end">1</property>
   </filter>
   <filter id="filter1308" out="156219" in="156024">
    <property name="window">75</property>
    <property name="max_gain">20dB</property>
    <property name="mlt_type">filter</property>
    <property name="mlt_service">volume</property>
    <property name="kdenlive_id">volume</property>
    <property name="tag">volume</property>
    <property name="kdenlive_ix">1</property>
    <property name="kdenlive_info"/>
    <property name="disable"/>
    <property name="gain">1</property>
    <property name="end">1</property>
   </filter>
   <filter id="filter1309" out="156349" in="156220">
    <property name="window">75</property>
    <property name="max_gain">20dB</property>
    <property name="mlt_type">filter</property>
    <property name="mlt_service">volume</property>
    <property name="kdenlive_id">volume</property>
    <property name="tag">volume</property>
    <property name="kdenlive_ix">1</property>
    <property name="kdenlive_info"/>
    <property name="disable"/>
    <property name="gain">1</property>
    <property name="end">1</property>
   </filter>
  </entry>
  <entry out="156935" in="156567" producer="2_playlist5">
   <filter id="filter1310" out="156924" in="156567">
    <property name="window">75</property>
    <property name="max_gain">20dB</property>
    <property name="mlt_type">filter</property>
    <property name="mlt_service">volume</property>
    <property name="kdenlive_id">volume</property>
    <property name="tag">volume</property>
    <property name="kdenlive_ix">1</property>
    <property name="kdenlive_info"/>
    <property name="disable"/>
    <property name="gain">1</property>
    <property name="end">1</property>
   </filter>
   <filter id="filter1311" out="156935" in="156925">
    <property name="window">75</property>
    <property name="max_gain">20dB</property>
    <property name="mlt_type">filter</property>
    <property name="mlt_service">volume</property>
    <property name="kdenlive_id">volume</property>
    <property name="tag">volume</property>
    <property name="kdenlive_ix">1</property>
    <property name="kdenlive_info"/>
    <property name="disable"/>
    <property name="gain">0.909091</property>
    <property name="end">0</property>
   </filter>
  </entry>
  <blank length="236"/>
  <entry out="159747" in="159037" producer="2_playlist5">
   <filter id="filter1312" out="159070" in="159037">
    <property name="window">75</property>
    <property name="max_gain">20dB</property>
    <property name="mlt_type">filter</property>
    <property name="mlt_service">volume</property>
    <property name="kdenlive_id">fadein</property>
    <property name="tag">volume</property>
    <property name="kdenlive_ix">1</property>
    <property name="kdenlive_info"/>
    <property name="disable"/>
    <property name="gain">0</property>
    <property name="end">1</property>
   </filter>
   <filter id="filter1313" out="159038" in="159037">
    <property name="window">75</property>
    <property name="max_gain">20dB</property>
    <property name="mlt_type">filter</property>
    <property name="mlt_service">volume</property>
    <property name="kdenlive_id">volume</property>
    <property name="tag">volume</property>
    <property name="kdenlive_ix">2</property>
    <property name="kdenlive_info"/>
    <property name="disable"/>
    <property name="gain">1</property>
    <property name="end">0.62</property>
   </filter>
   <filter id="filter1314" out="159458" in="159039">
    <property name="window">75</property>
    <property name="max_gain">20dB</property>
    <property name="mlt_type">filter</property>
    <property name="mlt_service">volume</property>
    <property name="kdenlive_id">volume</property>
    <property name="tag">volume</property>
    <property name="kdenlive_ix">2</property>
    <property name="kdenlive_info"/>
    <property name="disable"/>
    <property name="gain">0.620429</property>
    <property name="end">0.8</property>
   </filter>
   <filter id="filter1315" out="159747" in="159459">
    <property name="window">75</property>
    <property name="max_gain">20dB</property>
    <property name="mlt_type">filter</property>
    <property name="mlt_service">volume</property>
    <property name="kdenlive_id">volume</property>
    <property name="tag">volume</property>
    <property name="kdenlive_ix">2</property>
    <property name="kdenlive_info"/>
    <property name="disable"/>
    <property name="gain">0.8</property>
    <property name="end">0.8</property>
   </filter>
  </entry>
  <entry out="160923" in="159836" producer="2_playlist5">
   <filter id="filter1316" out="160228" in="159836">
    <property name="window">75</property>
    <property name="max_gain">20dB</property>
    <property name="mlt_type">filter</property>
    <property name="mlt_service">volume</property>
    <property name="kdenlive_id">volume</property>
    <property name="tag">volume</property>
    <property name="kdenlive_ix">1</property>
    <property name="kdenlive_info"/>
    <property name="disable"/>
    <property name="gain">0.8</property>
    <property name="end">0.8</property>
   </filter>
   <filter id="filter1317" out="160240" in="160229">
    <property name="window">75</property>
    <property name="max_gain">20dB</property>
    <property name="mlt_type">filter</property>
    <property name="mlt_service">volume</property>
    <property name="kdenlive_id">volume</property>
    <property name="tag">volume</property>
    <property name="kdenlive_ix">1</property>
    <property name="kdenlive_info"/>
    <property name="disable"/>
    <property name="gain">0.816667</property>
    <property name="end">1</property>
   </filter>
   <filter id="filter1318" out="160893" in="160241">
    <property name="window">75</property>
    <property name="max_gain">20dB</property>
    <property name="mlt_type">filter</property>
    <property name="mlt_service">volume</property>
    <property name="kdenlive_id">volume</property>
    <property name="tag">volume</property>
    <property name="kdenlive_ix">1</property>
    <property name="kdenlive_info"/>
    <property name="disable"/>
    <property name="gain">1</property>
    <property name="end">1</property>
   </filter>
   <filter id="filter1319" out="160908" in="160894">
    <property name="window">75</property>
    <property name="max_gain">20dB</property>
    <property name="mlt_type">filter</property>
    <property name="mlt_service">volume</property>
    <property name="kdenlive_id">volume</property>
    <property name="tag">volume</property>
    <property name="kdenlive_ix">1</property>
    <property name="kdenlive_info"/>
    <property name="disable"/>
    <property name="gain">0.933333</property>
    <property name="end">0</property>
   </filter>
   <filter id="filter1320" out="160924" in="160909">
    <property name="window">75</property>
    <property name="max_gain">20dB</property>
    <property name="mlt_type">filter</property>
    <property name="mlt_service">volume</property>
    <property name="kdenlive_id">volume</property>
    <property name="tag">volume</property>
    <property name="kdenlive_ix">1</property>
    <property name="kdenlive_info"/>
    <property name="disable"/>
    <property name="gain">0</property>
    <property name="end">0</property>
   </filter>
   <filter id="filter1321" out="159921" in="159836">
    <property name="window">75</property>
    <property name="max_gain">20dB</property>
    <property name="mlt_type">filter</property>
    <property name="mlt_service">volume</property>
    <property name="kdenlive_id">fadein</property>
    <property name="tag">volume</property>
    <property name="kdenlive_ix">2</property>
    <property name="kdenlive_info"/>
    <property name="disable"/>
    <property name="gain">0</property>
    <property name="end">1</property>
   </filter>
  </entry>
  <entry out="161557" in="161463" producer="2_playlist5">
   <filter id="filter1322" in="161463">
    <property name="window">75</property>
    <property name="max_gain">20dB</property>
    <property name="mlt_type">filter</property>
    <property name="mlt_service">volume</property>
    <property name="kdenlive_id">volume</property>
    <property name="tag">volume</property>
    <property name="kdenlive_ix">1</property>
    <property name="kdenlive_info"/>
    <property name="disable"/>
    <property name="gain">0</property>
   </filter>
  </entry>
  <entry out="161179" in="161053" producer="2_playlist5">
   <filter id="filter1323" in="161053">
    <property name="window">75</property>
    <property name="max_gain">20dB</property>
    <property name="mlt_type">filter</property>
    <property name="mlt_service">volume</property>
    <property name="kdenlive_id">volume</property>
    <property name="tag">volume</property>
    <property name="kdenlive_ix">1</property>
    <property name="kdenlive_info"/>
    <property name="disable"/>
    <property name="gain">0</property>
   </filter>
  </entry>
  <blank length="115"/>
  <entry out="164955" in="162134" producer="2_playlist5">
   <filter id="filter1324" out="162209" in="162134">
    <property name="window">75</property>
    <property name="max_gain">20dB</property>
    <property name="mlt_type">filter</property>
    <property name="mlt_service">volume</property>
    <property name="kdenlive_id">fadein</property>
    <property name="tag">volume</property>
    <property name="kdenlive_ix">1</property>
    <property name="kdenlive_info"/>
    <property name="disable"/>
    <property name="gain">0</property>
    <property name="end">1</property>
   </filter>
  </entry>
  <blank length="171"/>
  <entry out="169316" in="165957" producer="2_playlist5">
   <filter id="filter1325" out="166124" in="165957">
    <property name="window">75</property>
    <property name="max_gain">20dB</property>
    <property name="mlt_type">filter</property>
    <property name="mlt_service">volume</property>
    <property name="kdenlive_id">fadein</property>
    <property name="tag">volume</property>
    <property name="kdenlive_ix">1</property>
    <property name="kdenlive_info"/>
    <property name="disable"/>
    <property name="gain">0</property>
    <property name="end">1</property>
   </filter>
   <filter id="filter1326" out="169024" in="165957">
    <property name="window">75</property>
    <property name="max_gain">20dB</property>
    <property name="mlt_type">filter</property>
    <property name="mlt_service">volume</property>
    <property name="kdenlive_id">volume</property>
    <property name="tag">volume</property>
    <property name="kdenlive_ix">2</property>
    <property name="kdenlive_info"/>
    <property name="disable"/>
    <property name="gain">1</property>
    <property name="end">1</property>
   </filter>
   <filter id="filter1327" out="169316" in="169025">
    <property name="window">75</property>
    <property name="max_gain">20dB</property>
    <property name="mlt_type">filter</property>
    <property name="mlt_service">volume</property>
    <property name="kdenlive_id">volume</property>
    <property name="tag">volume</property>
    <property name="kdenlive_ix">2</property>
    <property name="kdenlive_info"/>
    <property name="disable"/>
    <property name="gain">0.998288</property>
    <property name="end">0.5</property>
   </filter>
  </entry>
  <entry out="176624" in="176244" producer="2_playlist5">
   <filter id="filter1328" out="176292" in="176244">
    <property name="window">75</property>
    <property name="max_gain">20dB</property>
    <property name="mlt_type">filter</property>
    <property name="mlt_service">volume</property>
    <property name="kdenlive_id">fadein</property>
    <property name="tag">volume</property>
    <property name="kdenlive_ix">1</property>
    <property name="kdenlive_info"/>
    <property name="disable"/>
    <property name="gain">0</property>
    <property name="end">1</property>
   </filter>
  </entry>
  <entry out="176945" in="176912" producer="2_playlist5">
   <filter id="filter1329">
    <property name="window">75</property>
    <property name="max_gain">20dB</property>
    <property name="mlt_type">filter</property>
    <property name="mlt_service">volume</property>
    <property name="kdenlive_id">mute</property>
    <property name="tag">volume</property>
    <property name="kdenlive_ix">1</property>
    <property name="kdenlive_info"/>
    <property name="disable"/>
    <property name="gain">0</property>
   </filter>
  </entry>
  <entry out="177179" in="177119" producer="2_playlist5">
   <filter id="filter1330">
    <property name="window">75</property>
    <property name="max_gain">20dB</property>
    <property name="mlt_type">filter</property>
    <property name="mlt_service">volume</property>
    <property name="kdenlive_id">mute</property>
    <property name="tag">volume</property>
    <property name="kdenlive_ix">1</property>
    <property name="kdenlive_info"/>
    <property name="disable"/>
    <property name="gain">0</property>
   </filter>
  </entry>
  <blank length="50"/>
  <entry out="175308" in="175253" producer="2_playlist5"/>
  <entry out="175499" in="175436" producer="2_playlist5">
   <filter id="filter1331" out="175500" in="175436">
    <property name="window">75</property>
    <property name="max_gain">20dB</property>
    <property name="mlt_type">filter</property>
    <property name="mlt_service">volume</property>
    <property name="kdenlive_id">fadeout</property>
    <property name="tag">volume</property>
    <property name="kdenlive_ix">1</property>
    <property name="kdenlive_info"/>
    <property name="disable"/>
    <property name="gain">1</property>
    <property name="end">0</property>
   </filter>
  </entry>
  <entry out="134302" in="134143" producer="2_playlist5">
   <filter id="filter1332">
    <property name="window">75</property>
    <property name="max_gain">20dB</property>
    <property name="mlt_type">filter</property>
    <property name="mlt_service">volume</property>
    <property name="kdenlive_id">mute</property>
    <property name="tag">volume</property>
    <property name="kdenlive_ix">1</property>
    <property name="kdenlive_info"/>
    <property name="disable"/>
    <property name="gain">0</property>
   </filter>
  </entry>
  <entry out="134359" in="134328" producer="2_playlist5">
   <filter id="filter1333">
    <property name="window">75</property>
    <property name="max_gain">20dB</property>
    <property name="mlt_type">filter</property>
    <property name="mlt_service">volume</property>
    <property name="kdenlive_id">mute</property>
    <property name="tag">volume</property>
    <property name="kdenlive_ix">1</property>
    <property name="kdenlive_info"/>
    <property name="disable"/>
    <property name="gain">0</property>
   </filter>
  </entry>
  <entry out="176065" in="175893" producer="2_playlist5">
   <filter id="filter1334">
    <property name="window">75</property>
    <property name="max_gain">20dB</property>
    <property name="mlt_type">filter</property>
    <property name="mlt_service">volume</property>
    <property name="kdenlive_id">mute</property>
    <property name="tag">volume</property>
    <property name="kdenlive_ix">1</property>
    <property name="kdenlive_info"/>
    <property name="disable"/>
    <property name="gain">0</property>
   </filter>
  </entry>
  <blank length="171"/>
  <entry out="177594" in="177426" producer="2_playlist5"/>
  <blank length="10265"/>
  <entry out="87" in="0" producer="8"/>
 </playlist>
 <tractor id="maintractor" out="327146" title="Anonymous Submission" in="0" global_feed="1">
  <property name="meta.volume">1</property>
  <track producer="black_track"/>
  <track producer="playlist0"/>
  <track producer="playlist1"/>
  <track producer="playlist2"/>
  <track producer="playlist3"/>
  <track producer="playlist4"/>
  <track producer="playlist5"/>
  <transition id="transition16">
   <property name="a_track">0</property>
   <property name="b_track">3</property>
   <property name="mlt_type">transition</property>
   <property name="mlt_service">mix</property>
   <property name="always_active">1</property>
   <property name="combine">1</property>
   <property name="internal_added">237</property>
  </transition>
  <transition id="transition17">
   <property name="a_track">0</property>
   <property name="b_track">4</property>
   <property name="mlt_type">transition</property>
   <property name="mlt_service">mix</property>
   <property name="always_active">1</property>
   <property name="combine">1</property>
   <property name="internal_added">237</property>
  </transition>
  <transition id="transition19">
   <property name="a_track">0</property>
   <property name="b_track">5</property>
   <property name="mlt_type">transition</property>
   <property name="mlt_service">mix</property>
   <property name="always_active">1</property>
   <property name="combine">1</property>
   <property name="internal_added">237</property>
  </transition>
  <transition id="transition20">
   <property name="a_track">0</property>
   <property name="b_track">6</property>
   <property name="mlt_type">transition</property>
   <property name="mlt_service">mix</property>
   <property name="always_active">1</property>
   <property name="combine">1</property>
   <property name="internal_added">237</property>
  </transition>
  <transition id="transition0" out="2964" in="2949">
   <property name="a_track">5</property>
   <property name="b_track">6</property>
   <property name="factory">loader</property>
   <property name="mlt_type">transition</property>
   <property name="mlt_service">luma</property>
   <property name="automatic">1</property>
   <property name="kdenlive_id">dissolve</property>
   <property name="force_track">0</property>
   <property name="reverse">0</property>
  </transition>
  <transition id="transition1" out="3134" in="3127">
   <property name="a_track">5</property>
   <property name="b_track">6</property>
   <property name="factory">loader</property>
   <property name="mlt_type">transition</property>
   <property name="mlt_service">luma</property>
   <property name="automatic">1</property>
   <property name="kdenlive_id">luma</property>
   <property name="force_track">0</property>
   <property name="invert">0</property>
   <property name="reverse">0</property>
   <property name="softness">0</property>
  </transition>
  <transition id="transition37">
   <property name="a_track">0</property>
   <property name="b_track">2</property>
   <property name="mlt_type">transition</property>
   <property name="mlt_service">mix</property>
   <property name="always_active">1</property>
   <property name="internal_added">237</property>
   <property name="combine">1</property>
  </transition>
  <transition id="transition18" out="1389" in="1325">
   <property name="a_track">5</property>
   <property name="b_track">6</property>
   <property name="factory">loader</property>
   <property name="mlt_type">transition</property>
   <property name="mlt_service">luma</property>
   <property name="automatic">1</property>
   <property name="kdenlive_id">luma</property>
   <property name="force_track">0</property>
   <property name="invert">0</property>
   <property name="reverse">0</property>
   <property name="softness">0</property>
  </transition>
  <transition id="transition22" out="1482" in="1411">
   <property name="a_track">5</property>
   <property name="b_track">6</property>
   <property name="factory">loader</property>
   <property name="mlt_type">transition</property>
   <property name="mlt_service">luma</property>
   <property name="automatic">1</property>
   <property name="kdenlive_id">dissolve</property>
   <property name="force_track">0</property>
   <property name="reverse">1</property>
  </transition>
  <transition id="transition30" out="1410" in="1390">
   <property name="a_track">5</property>
   <property name="b_track">6</property>
   <property name="distort">0</property>
   <property name="geometry">0/0:100%x100%:100%</property>
   <property name="fill">1</property>
   <property name="mlt_type">transition</property>
   <property name="mlt_service">affine</property>
   <property name="automatic">1</property>
   <property name="force_track">0</property>
   <property name="keyed">1</property>
   <property name="rotate_x">0</property>
   <property name="rotate_y">0</property>
   <property name="rotate_z">0</property>
   <property name="shear_x">0</property>
   <property name="shear_y">0</property>
   <property name="shear_z">0</property>
  </transition>
  <transition id="transition12">
   <property name="a_track">0</property>
   <property name="b_track">1</property>
   <property name="mlt_type">transition</property>
   <property name="mlt_service">mix</property>
   <property name="always_active">1</property>
   <property name="internal_added">237</property>
   <property name="combine">1</property>
  </transition>
  <transition id="transition2" out="71020" in="71016">
   <property name="a_track">5</property>
   <property name="b_track">6</property>
   <property name="factory">loader</property>
   <property name="mlt_type">transition</property>
   <property name="mlt_service">luma</property>
   <property name="automatic">1</property>
   <property name="kdenlive_id">luma</property>
   <property name="force_track">0</property>
   <property name="invert">0</property>
   <property name="reverse">0</property>
   <property name="softness">0</property>
  </transition>
  <transition id="transition3" out="72104" in="72100">
   <property name="a_track">5</property>
   <property name="b_track">6</property>
   <property name="factory">loader</property>
   <property name="mlt_type">transition</property>
   <property name="mlt_service">luma</property>
   <property name="automatic">1</property>
   <property name="kdenlive_id">dissolve</property>
   <property name="force_track">0</property>
   <property name="reverse">1</property>
  </transition>
  <transition id="transition4" out="80088" in="80072">
   <property name="a_track">5</property>
   <property name="b_track">6</property>
   <property name="factory">loader</property>
   <property name="mlt_type">transition</property>
   <property name="mlt_service">luma</property>
   <property name="automatic">1</property>
   <property name="kdenlive_id">dissolve</property>
   <property name="force_track">0</property>
   <property name="reverse">1</property>
  </transition>
  <transition id="transition5" out="113109" in="113101">
   <property name="a_track">5</property>
   <property name="b_track">6</property>
   <property name="factory">loader</property>
   <property name="mlt_type">transition</property>
   <property name="mlt_service">luma</property>
   <property name="automatic">1</property>
   <property name="kdenlive_id">dissolve</property>
   <property name="force_track">0</property>
   <property name="reverse">1</property>
  </transition>
  <transition id="transition6" out="118781" in="118749">
   <property name="a_track">5</property>
   <property name="b_track">6</property>
   <property name="factory">loader</property>
   <property name="mlt_type">transition</property>
   <property name="mlt_service">luma</property>
   <property name="automatic">1</property>
   <property name="kdenlive_id">dissolve</property>
   <property name="force_track">0</property>
   <property name="reverse">1</property>
  </transition>
  <transition id="transition7" out="140244" in="140231">
   <property name="a_track">5</property>
   <property name="b_track">6</property>
   <property name="factory">loader</property>
   <property name="mlt_type">transition</property>
   <property name="mlt_service">luma</property>
   <property name="automatic">1</property>
   <property name="kdenlive_id">dissolve</property>
   <property name="force_track">0</property>
   <property name="reverse">1</property>
  </transition>
  <transition id="transition8" out="135361" in="135343">
   <property name="a_track">5</property>
   <property name="b_track">6</property>
   <property name="factory">loader</property>
   <property name="mlt_type">transition</property>
   <property name="mlt_service">luma</property>
   <property name="automatic">1</property>
   <property name="kdenlive_id">dissolve</property>
   <property name="force_track">0</property>
   <property name="reverse">1</property>
  </transition>
  <transition id="transition11" out="147478" in="147476">
   <property name="a_track">5</property>
   <property name="b_track">6</property>
   <property name="factory">loader</property>
   <property name="mlt_type">transition</property>
   <property name="mlt_service">luma</property>
   <property name="automatic">1</property>
   <property name="kdenlive_id">dissolve</property>
   <property name="force_track">0</property>
   <property name="reverse">0</property>
  </transition>
  <transition id="transition14" out="148195" in="148185">
   <property name="a_track">5</property>
   <property name="b_track">6</property>
   <property name="factory">loader</property>
   <property name="mlt_type">transition</property>
   <property name="mlt_service">luma</property>
   <property name="automatic">1</property>
   <property name="kdenlive_id">dissolve</property>
   <property name="force_track">0</property>
   <property name="reverse">1</property>
  </transition>
  <transition id="transition15" out="164089" in="164076">
   <property name="a_track">5</property>
   <property name="b_track">6</property>
   <property name="factory">loader</property>
   <property name="mlt_type">transition</property>
   <property name="mlt_service">luma</property>
   <property name="automatic">1</property>
   <property name="kdenlive_id">luma</property>
   <property name="force_track">0</property>
   <property name="invert">0</property>
   <property name="reverse">0</property>
   <property name="softness">0</property>
  </transition>
  <transition id="transition21" out="181722" in="181698">
   <property name="a_track">5</property>
   <property name="b_track">6</property>
   <property name="factory">loader</property>
   <property name="mlt_type">transition</property>
   <property name="mlt_service">luma</property>
   <property name="automatic">1</property>
   <property name="kdenlive_id">dissolve</property>
   <property name="force_track">0</property>
   <property name="reverse">0</property>
  </transition>
  <transition id="transition25" out="199662" in="199661">
   <property name="a_track">5</property>
   <property name="b_track">6</property>
   <property name="factory">loader</property>
   <property name="mlt_type">transition</property>
   <property name="mlt_service">luma</property>
   <property name="automatic">1</property>
   <property name="kdenlive_id">dissolve</property>
   <property name="force_track">0</property>
   <property name="reverse">0</property>
  </transition>
  <transition id="transition9" out="210896" in="210894">
   <property name="a_track">5</property>
   <property name="b_track">6</property>
   <property name="factory">loader</property>
   <property name="mlt_type">transition</property>
   <property name="mlt_service">luma</property>
   <property name="automatic">1</property>
   <property name="kdenlive_id">dissolve</property>
   <property name="force_track">0</property>
   <property name="reverse">0</property>
  </transition>
  <transition id="transition10" out="236168" in="236149">
   <property name="a_track">5</property>
   <property name="b_track">6</property>
   <property name="factory">loader</property>
   <property name="mlt_type">transition</property>
   <property name="mlt_service">luma</property>
   <property name="automatic">1</property>
   <property name="kdenlive_id">dissolve</property>
   <property name="force_track">0</property>
   <property name="reverse">0</property>
  </transition>
  <transition id="transition13" out="238866" in="238795">
   <property name="a_track">5</property>
   <property name="b_track">6</property>
   <property name="version">0.1</property>
   <property name="mlt_type">transition</property>
   <property name="mlt_service">frei0r.addition_alpha</property>
   <property name="automatic">1</property>
   <property name="force_track">0</property>
  </transition>
  <transition id="transition23" out="308621" in="308610">
   <property name="a_track">5</property>
   <property name="b_track">6</property>
   <property name="factory">loader</property>
   <property name="mlt_type">transition</property>
   <property name="mlt_service">luma</property>
   <property name="automatic">1</property>
   <property name="kdenlive_id">dissolve</property>
   <property name="force_track">0</property>
   <property name="reverse">1</property>
  </transition>
  <transition id="transition24" out="308545" in="308534">
   <property name="a_track">5</property>
   <property name="b_track">6</property>
   <property name="factory">loader</property>
   <property name="mlt_type">transition</property>
   <property name="mlt_service">luma</property>
   <property name="automatic">1</property>
   <property name="kdenlive_id">luma</property>
   <property name="force_track">0</property>
   <property name="invert">0</property>
   <property name="reverse">0</property>
   <property name="softness">0</property>
  </transition>
  <transition id="transition26" out="308609" in="308546">
   <property name="a_track">5</property>
   <property name="b_track">6</property>
   <property name="distort">0</property>
   <property name="geometry">0/0:100%x100%:100%</property>
   <property name="fill">1</property>
   <property name="mlt_type">transition</property>
   <property name="mlt_service">affine</property>
   <property name="automatic">1</property>
   <property name="force_track">0</property>
   <property name="keyed">1</property>
   <property name="rotate_x">0</property>
   <property name="rotate_y">0</property>
   <property name="rotate_z">0</property>
   <property name="shear_x">0</property>
   <property name="shear_y">0</property>
   <property name="shear_z">0</property>
  </transition>
  <transition id="transition28" out="144138" in="144120">
   <property name="a_track">4</property>
   <property name="b_track">5</property>
   <property name="factory">loader</property>
   <property name="mlt_type">transition</property>
   <property name="mlt_service">luma</property>
   <property name="automatic">1</property>
   <property name="kdenlive_id">luma</property>
   <property name="force_track">0</property>
   <property name="invert">0</property>
   <property name="reverse">0</property>
   <property name="softness">0</property>
  </transition>
  <transition id="transition50">
   <property name="a_track">3</property>
   <property name="b_track">4</property>
   <property name="version">0.9</property>
   <property name="mlt_type">transition</property>
   <property name="mlt_service">frei0r.cairoblend</property>
   <property name="internal_added">237</property>
  </transition>
  <transition id="transition51">
   <property name="a_track">4</property>
   <property name="b_track">5</property>
   <property name="version">0.9</property>
   <property name="mlt_type">transition</property>
   <property name="mlt_service">frei0r.cairoblend</property>
   <property name="internal_added">237</property>
  </transition>
  <transition id="transition52">
   <property name="a_track">5</property>
   <property name="b_track">6</property>
   <property name="version">0.9</property>
   <property name="mlt_type">transition</property>
   <property name="mlt_service">frei0r.cairoblend</property>
   <property name="internal_added">237</property>
  </transition>
  <transition id="transition53">
   <property name="a_track">1</property>
   <property name="b_track">2</property>
   <property name="version">0.9</property>
   <property name="mlt_type">transition</property>
   <property name="mlt_service">frei0r.cairoblend</property>
   <property name="internal_added">237</property>
  </transition>
  <transition id="transition54">
   <property name="a_track">2</property>
   <property name="b_track">3</property>
   <property name="version">0.9</property>
   <property name="mlt_type">transition</property>
   <property name="mlt_service">frei0r.cairoblend</property>
   <property name="internal_added">237</property>
  </transition>
  <transition id="transition32">
   <property name="a_track">0</property>
   <property name="b_track">1</property>
   <property name="version">0.9</property>
   <property name="mlt_type">transition</property>
   <property name="mlt_service">frei0r.cairoblend</property>
   <property name="internal_added">237</property>
  </transition>
 </tractor>
</mlt>
